<svg width="50" height="49" viewBox="0 0 50 49" fill="none" xmlns="http://www.w3.org/2000/svg">
<path d="M25.3599 49C38.8798 49 49.8398 38.0399 49.8398 24.52C49.8398 11.0001 38.8798 0.0400391 25.3599 0.0400391C11.8399 0.0400391 0.879883 11.0001 0.879883 24.52C0.879883 38.0399 11.8399 49 25.3599 49Z" fill="#F0F0F0"/>
<path d="M49.8405 24.5187C49.8405 14.8133 44.1924 6.42741 36.0039 2.46777V46.5695C44.1924 42.61 49.8405 34.224 49.8405 24.5187Z" fill="#D80027"/>
<path d="M0.879883 24.5187C0.879883 34.224 6.52797 42.61 14.7164 46.5696L14.7164 2.46777C6.52797 6.42741 0.879883 14.8133 0.879883 24.5187Z" fill="#D80027"/>
<path d="M29.6178 27.7118L33.8752 25.5831L31.7466 24.5188V22.3901L27.4891 24.5188L29.6178 20.2614H27.4891L25.3604 17.0684L23.2317 20.2614H21.103L23.2317 24.5188L18.9743 22.3901V24.5188L16.8457 25.5831L21.103 27.7118L20.0387 29.8405H24.2961V33.0335H26.4247V29.8405H30.6822L29.6178 27.7118Z" fill="#D80027"/>
</svg>
