<svg id="b8085d09-e56d-4985-ae7f-2fed41bb1ca3" data-name="Слой 1" xmlns="http://www.w3.org/2000/svg" xmlns:xlink="http://www.w3.org/1999/xlink" viewBox="0 0 484.85 106.45"><defs><linearGradient id="b8fe8e16-6065-4642-97e4-0f6805263048" x1="414.77" y1="7.74" x2="423.01" y2="7.74" gradientUnits="userSpaceOnUse"><stop offset="0" stop-color="#0b6cfe"/><stop offset="1" stop-color="#0c5fe5"/></linearGradient><linearGradient id="e9650382-2184-4b02-b6ab-3a8177bd917e" x1="284.49" y1="61.27" x2="280.06" y2="61.27" gradientUnits="userSpaceOnUse"><stop offset="0" stop-color="#0b6cfe" stop-opacity="0"/><stop offset="0.49" stop-color="#0b6cfe" stop-opacity="0.6"/><stop offset="0.97" stop-color="#73add8"/></linearGradient><linearGradient id="f8fa93c4-df22-45ae-a94d-1e1653dfef68" x1="441.87" y1="40.78" x2="444.42" y2="40.67" xlink:href="#b8fe8e16-6065-4642-97e4-0f6805263048"/><linearGradient id="b0e47fc2-8d00-4860-9f88-aebb6e5058f3" x1="432.16" y1="78.18" x2="443.25" y2="82.37" xlink:href="#b8fe8e16-6065-4642-97e4-0f6805263048"/><linearGradient id="ab503fcd-2c76-4ddd-8985-9ec9d76c9361" x1="312.51" y1="79.3" x2="312.51" y2="66.59" xlink:href="#b8fe8e16-6065-4642-97e4-0f6805263048"/><linearGradient id="a72e33d6-adb7-4725-89fc-e8dcb0045eb7" x1="337.94" y1="79.3" x2="337.94" y2="66.59" xlink:href="#b8fe8e16-6065-4642-97e4-0f6805263048"/><linearGradient id="f2c5596c-0abb-4497-9142-72fb176ab606" x1="363.37" y1="79.3" x2="363.37" y2="66.59" xlink:href="#b8fe8e16-6065-4642-97e4-0f6805263048"/><linearGradient id="a8d407a7-204d-4146-9ab2-a373ef68e9b4" x1="388.8" y1="79.3" x2="388.8" y2="66.59" xlink:href="#b8fe8e16-6065-4642-97e4-0f6805263048"/><linearGradient id="e4eb9ca0-1d3b-4a60-a4b7-86f8cbf671c8" x1="413.8" y1="79.3" x2="413.8" y2="66.59" xlink:href="#b8fe8e16-6065-4642-97e4-0f6805263048"/><linearGradient id="fa9e327a-2480-4179-a2b9-1638748adf65" x1="312.53" y1="36.6" x2="312.53" y2="52.82" xlink:href="#b8fe8e16-6065-4642-97e4-0f6805263048"/><linearGradient id="a924ef0f-58a1-4f06-92a5-f7536188a22f" x1="337.98" y1="36.6" x2="337.98" y2="52.82" xlink:href="#b8fe8e16-6065-4642-97e4-0f6805263048"/><linearGradient id="ad93f3ef-468e-4046-be5b-10b6f23a408e" x1="363.43" y1="36.6" x2="363.43" y2="52.82" xlink:href="#b8fe8e16-6065-4642-97e4-0f6805263048"/><linearGradient id="a2cca0fe-1df2-45a5-980a-21217d0216e3" x1="304.18" y1="88.21" x2="304.18" y2="80.73" gradientUnits="userSpaceOnUse"><stop offset="0" stop-color="#0b6cfe" stop-opacity="0"/><stop offset="1" stop-color="#0c5fe5"/></linearGradient><linearGradient id="fe92c8ee-cc8d-4e14-9617-c2f718ee284e" x1="347.15" y1="68.05" x2="347.15" y2="68.71" xlink:href="#b8fe8e16-6065-4642-97e4-0f6805263048"/><linearGradient id="b5d42516-d0c8-43b0-b9c3-fecec3cf0556" x1="284.99" y1="88.21" x2="284.99" y2="80.73" xlink:href="#a2cca0fe-1df2-45a5-980a-21217d0216e3"/><linearGradient id="ffd6e337-5edc-4f43-95b7-98fad9136fdf" x1="388.95" y1="36.6" x2="388.95" y2="52.82" xlink:href="#b8fe8e16-6065-4642-97e4-0f6805263048"/><linearGradient id="a6c3ea4d-a6e7-49f4-8e97-8c83faee953a" x1="414.25" y1="36.6" x2="414.25" y2="52.82" xlink:href="#b8fe8e16-6065-4642-97e4-0f6805263048"/><linearGradient id="a76f19fd-afbe-4017-b619-01923a1e391a" x1="430.82" y1="66.67" x2="430.82" y2="67.12" xlink:href="#b8fe8e16-6065-4642-97e4-0f6805263048"/><linearGradient id="ec33c887-a884-4135-b986-8874529edcea" x1="296.37" y1="79.79" x2="296.37" y2="80.43" xlink:href="#b8fe8e16-6065-4642-97e4-0f6805263048"/><linearGradient id="be57356b-7c95-4a3c-931d-137d28a5546d" x1="376.51" y1="95.21" x2="376.51" y2="95.85" xlink:href="#b8fe8e16-6065-4642-97e4-0f6805263048"/><linearGradient id="a7ebdf85-2de6-4ecc-b9ab-3c8bb2e91778" x1="376.51" y1="79.79" x2="376.51" y2="80.43" xlink:href="#b8fe8e16-6065-4642-97e4-0f6805263048"/><linearGradient id="bd8e5a0f-b383-46ba-b73e-0a079a55e4a9" x1="362.26" y1="28.73" x2="362.26" y2="-10.89" gradientUnits="userSpaceOnUse"><stop offset="0" stop-color="#0b6cfe"/><stop offset="1" stop-color="#afc4e2"/></linearGradient><linearGradient id="b28accbf-48a9-4578-b041-ef715ddfdef7" x1="362.32" y1="33.58" x2="362.32" y2="34" xlink:href="#b8fe8e16-6065-4642-97e4-0f6805263048"/><radialGradient id="e6c0b9fb-717c-46fb-96b4-e5d38031ce34" cx="304.04" cy="34.5" r="27.07" gradientUnits="userSpaceOnUse"><stop offset="0" stop-color="#0b6cfe" stop-opacity="0"/><stop offset="0.75" stop-color="#0b6cfe" stop-opacity="0.6"/><stop offset="0.78" stop-color="#247afa" stop-opacity="0.66"/><stop offset="0.87" stop-color="#6da0ed" stop-opacity="0.84"/><stop offset="0.94" stop-color="#9ab9e5" stop-opacity="0.96"/><stop offset="0.97" stop-color="#acc2e2"/></radialGradient><radialGradient id="ef0198e7-a7ca-42a6-a95c-70b92130310b" cx="-629.47" cy="51.85" r="5.12" gradientTransform="translate(944.43) scale(0.8 1)" gradientUnits="userSpaceOnUse"><stop offset="0" stop-color="#a3aab8"/><stop offset="0.86" stop-color="#222326"/></radialGradient><linearGradient id="fa54ac72-1f46-4059-9f66-1758050da56b" x1="312.33" y1="9.89" x2="312.33" y2="14.22" gradientUnits="userSpaceOnUse"><stop offset="0" stop-color="#fff" stop-opacity="0"/><stop offset="1" stop-color="#fff"/></linearGradient><linearGradient id="bdb2a5ed-a877-4132-b3b8-40b58f185cf6" x1="337.73" y1="9.89" x2="337.73" y2="14.22" xlink:href="#fa54ac72-1f46-4059-9f66-1758050da56b"/><linearGradient id="f1b9b242-5e59-4bfd-9c4e-bc19b6c099b2" x1="363.12" y1="9.89" x2="363.12" y2="14.22" xlink:href="#fa54ac72-1f46-4059-9f66-1758050da56b"/><linearGradient id="a760e2c0-9a56-42ab-a56d-42bb3d56807e" x1="388.52" y1="9.89" x2="388.52" y2="14.22" xlink:href="#fa54ac72-1f46-4059-9f66-1758050da56b"/><linearGradient id="ee0d8cdb-e2d4-4959-a669-3ff0c5219804" x1="413.91" y1="9.89" x2="413.91" y2="14.22" xlink:href="#fa54ac72-1f46-4059-9f66-1758050da56b"/><linearGradient id="a17741ca-0bca-47b2-a21b-674ac70e993a" x1="401.57" y1="20.07" x2="401.57" y2="19.53" xlink:href="#b8fe8e16-6065-4642-97e4-0f6805263048"/><linearGradient id="fe6ecf09-e7ee-4243-b7ee-ced750447331" x1="376.09" y1="20.07" x2="376.09" y2="19.53" xlink:href="#b8fe8e16-6065-4642-97e4-0f6805263048"/><linearGradient id="b16aaece-e39a-4386-82be-1ddba48c6426" x1="350.6" y1="20.07" x2="350.6" y2="19.53" xlink:href="#b8fe8e16-6065-4642-97e4-0f6805263048"/><linearGradient id="be231a42-8432-4302-bd0d-49435c4a2c0f" x1="283.67" y1="68.26" x2="279.84" y2="68.26" xlink:href="#e9650382-2184-4b02-b6ab-3a8177bd917e"/><linearGradient id="a2b44c7c-e0fc-4633-b534-6c1b9c5a2796" x1="283.67" y1="80.26" x2="279.84" y2="80.26" xlink:href="#e9650382-2184-4b02-b6ab-3a8177bd917e"/><radialGradient id="be44dfab-c681-4aab-b05a-f2a13139ae43" cx="324.03" cy="92.8" r="13.2" gradientUnits="userSpaceOnUse"><stop offset="0" stop-color="#36383d"/><stop offset="0.71" stop-color="#222326"/><stop offset="0.97" stop-color="#36383d"/></radialGradient><radialGradient id="fee97c16-4ac5-48e0-a3bf-f2f904c6297d" cx="323.87" cy="94.16" r="7.93" gradientUnits="userSpaceOnUse"><stop offset="0" stop-color="#0c5fe5"/><stop offset="0.16" stop-color="#0c5ddf"/><stop offset="0.37" stop-color="#0b56cd"/><stop offset="0.63" stop-color="#0a4baf"/><stop offset="0.9" stop-color="#083b87"/><stop offset="1" stop-color="#073577"/></radialGradient><radialGradient id="e970c60d-e7b7-4644-9326-7d6ea62c99bc" cx="323.9" cy="93.87" r="6.27" xlink:href="#fee97c16-4ac5-48e0-a3bf-f2f904c6297d"/><radialGradient id="aed52060-fdac-4af6-a7d0-69c36e695696" cx="324.03" cy="92.8" r="1.08" gradientUnits="userSpaceOnUse"><stop offset="0" stop-color="#fff"/><stop offset="0.11" stop-color="#f9f9f9"/><stop offset="0.26" stop-color="#e7e7e8"/><stop offset="0.44" stop-color="#c9cacc"/><stop offset="0.64" stop-color="#a0a2a5"/><stop offset="0.85" stop-color="#6d6f74"/><stop offset="1" stop-color="#43464d"/></radialGradient><radialGradient id="a01585f7-147d-4082-9d30-0da875b3bf21" cx="431.04" cy="92.46" r="13.52" gradientTransform="matrix(1, 0, 0, 1, 0, 0)" xlink:href="#ef0198e7-a7ca-42a6-a95c-70b92130310b"/><radialGradient id="ab089829-90b9-4bfb-a066-0a5ed9066902" cx="429.23" cy="94.15" r="7.93" xlink:href="#fee97c16-4ac5-48e0-a3bf-f2f904c6297d"/><radialGradient id="a5e8d620-d967-489e-be40-f811a7fed2e1" cx="429.26" cy="93.87" r="6.27" xlink:href="#fee97c16-4ac5-48e0-a3bf-f2f904c6297d"/><radialGradient id="e33d37b4-d946-4be4-9664-1684377c5f24" cx="429.42" cy="89.83" r="5.04" xlink:href="#aed52060-fdac-4af6-a7d0-69c36e695696"/><radialGradient id="b2cb5c76-56f0-42ec-a8d3-5bb2935ba6d7" cx="429.66" cy="90" r="3.2" xlink:href="#fee97c16-4ac5-48e0-a3bf-f2f904c6297d"/><radialGradient id="e9091411-b261-4e5d-9d9f-cf0cfa5199dc" cx="412.45" cy="46.93" r="0.86" xlink:href="#aed52060-fdac-4af6-a7d0-69c36e695696"/><radialGradient id="b76b28d7-420c-4d97-ad9c-51db8f43888a" cx="324.17" cy="102.3" r="9.57" gradientTransform="matrix(-1, 0, 0, -0.94, 648.08, 199.59)" gradientUnits="userSpaceOnUse"><stop offset="0" stop-color="#fff"/><stop offset="0.19" stop-color="#fff" stop-opacity="0.78"/><stop offset="0.49" stop-color="#fff" stop-opacity="0.45"/><stop offset="0.73" stop-color="#fff" stop-opacity="0.21"/><stop offset="0.91" stop-color="#fff" stop-opacity="0.06"/><stop offset="1" stop-color="#fff" stop-opacity="0"/></radialGradient><radialGradient id="a9868bc6-894d-4b88-9411-181304fe99a8" cx="324.22" cy="105.58" r="13.65" gradientTransform="matrix(-1, 0, 0, -0.94, 648.18, 205.95)" xlink:href="#b76b28d7-420c-4d97-ad9c-51db8f43888a"/><radialGradient id="b8a35333-d31a-455c-9788-356b30294a97" cx="429.84" cy="105.58" r="13.65" gradientTransform="matrix(-1, 0, 0, -0.94, 859.42, 206.24)" xlink:href="#b76b28d7-420c-4d97-ad9c-51db8f43888a"/><linearGradient id="e47250da-e5b3-4d20-a7c5-6176f329a860" x1="443.74" y1="44.54" x2="445.16" y2="44.54" gradientUnits="userSpaceOnUse"><stop offset="0" stop-color="#f5cd7f"/><stop offset="1" stop-color="#52442a"/></linearGradient><linearGradient id="e0daf363-1c74-4e4c-b99f-468457d3c6e2" x1="315.18" y1="44.54" x2="313.54" y2="44.54" xlink:href="#e47250da-e5b3-4d20-a7c5-6176f329a860"/><linearGradient id="a3a147bb-82d7-4bea-975e-f7fb23635301" x1="340.45" y1="44.54" x2="338.81" y2="44.54" xlink:href="#e47250da-e5b3-4d20-a7c5-6176f329a860"/><linearGradient id="bca8e7c1-2b5e-4d43-9886-05c84c7729f4" x1="365.88" y1="44.54" x2="364.24" y2="44.54" xlink:href="#e47250da-e5b3-4d20-a7c5-6176f329a860"/><linearGradient id="e7c7b34b-d840-4052-94a6-362b6a202cc2" x1="8754.8" y1="44.54" x2="8753.15" y2="44.54" gradientTransform="matrix(1, 0, 0, -1, -8417.43, 89.09)" xlink:href="#e47250da-e5b3-4d20-a7c5-6176f329a860"/><linearGradient id="e132bd0f-339f-42c3-83ec-ca62b06626af" x1="8780.27" y1="44.54" x2="8778.62" y2="44.54" gradientTransform="matrix(1, 0, 0, -1, -8468.37, 89.09)" xlink:href="#e47250da-e5b3-4d20-a7c5-6176f329a860"/><linearGradient id="b2429559-d0da-44dd-8c52-d6d6f913ad38" x1="8729.32" y1="44.54" x2="8727.68" y2="44.54" gradientTransform="matrix(1, 0, 0, -1, -8366.49, 89.09)" xlink:href="#e47250da-e5b3-4d20-a7c5-6176f329a860"/><linearGradient id="b012b811-ae1b-490a-ba89-ebf831163916" x1="391.26" y1="44.54" x2="389.62" y2="44.54" xlink:href="#e47250da-e5b3-4d20-a7c5-6176f329a860"/><linearGradient id="a863af7f-717e-4bfc-a74c-fe8ca536716c" x1="8703.95" y1="44.54" x2="8702.31" y2="44.54" gradientTransform="matrix(1, 0, 0, -1, -8315.74, 89.09)" xlink:href="#e47250da-e5b3-4d20-a7c5-6176f329a860"/><linearGradient id="b2eb7fdf-68e8-4fae-a120-3809ae943f2e" x1="416.82" y1="44.54" x2="415.18" y2="44.54" xlink:href="#e47250da-e5b3-4d20-a7c5-6176f329a860"/><linearGradient id="b8202c02-5753-4d11-8eb5-13184710a065" x1="8678.4" y1="44.54" x2="8676.76" y2="44.54" gradientTransform="matrix(1, 0, 0, -1, -8264.64, 89.09)" xlink:href="#e47250da-e5b3-4d20-a7c5-6176f329a860"/><linearGradient id="f4122860-3a60-47cb-848c-a809cbfe3203" x1="8653.57" y1="44.54" x2="8651.93" y2="44.54" gradientTransform="matrix(1, 0, 0, -1, -8214.98, 89.09)" xlink:href="#e47250da-e5b3-4d20-a7c5-6176f329a860"/><linearGradient id="edc07472-f8c1-42b8-9513-d13fbfbe2f50" x1="416.68" y1="7.75" x2="419.44" y2="7.75" gradientUnits="userSpaceOnUse"><stop offset="0" stop-color="#fff" stop-opacity="0"/><stop offset="0.47" stop-color="#fff"/><stop offset="1" stop-color="#fff" stop-opacity="0.1"/></linearGradient></defs><title>form_page_img_ua</title><path d="M449.87,72V0H407V72h-8.17V8.25h-42.9V72H211.65V32H157.27V72H145.53V0H102.64V72H88.85V8.25H34.47V72H0v33.23H484.85V72ZM14.5,97.47H7.86V89.4H14.5Zm0-11.7H7.86V77.7H14.5ZM28,97.47H21.39V89.4H28Zm0-11.7H21.39V77.7H28Zm30.64-2.46H49V68h9.71Zm0-23H49V45h9.71Zm0-23H49V21.94h9.71Zm21.7,46.05h-9.7V68h9.7Zm0-23h-9.7V45h9.7Zm0-23h-9.7V21.94h9.7Zm38.07,32h-8.2V54h8.2Zm0-23h-8.2V30.93h8.2Zm0-23h-8.2V7.9h8.2Zm18.35,46.05h-8.2V54h8.2Zm0-23h-8.2V30.93h8.2Zm0-23h-8.2V7.9h8.2Z" style="opacity:0.05"/><path d="M75.55,39.33c-1.26.16-1.84.76-1.73,1.81l.62,6.06a3.75,3.75,0,0,1-.09,1.74c-.14.36-.25.54-.32.54l-5,.51a4.84,4.84,0,0,0,.36-2.81L68.91,42a3.33,3.33,0,0,1,.66-2.61,6.08,6.08,0,0,1,3-1.56v0q-4.07.19-4.42-3.34l-.5-4.88A4.73,4.73,0,0,0,66.75,27l4.94-.51c.15,0,.32.24.5.58a4.43,4.43,0,0,1,.37,1.55l.59,5.73c.11,1.05.78,1.53,2,1.44l-1-9.55,6-.62,1,9.56C82.44,35,83,34.35,82.9,33.3l-.58-5.73a3.85,3.85,0,0,1,.08-1.72c.14-.35.25-.53.34-.54l4.94-.5a4.65,4.65,0,0,0-.36,2.76l.5,4.88q.36,3.54-3.67,4.17v0a6.16,6.16,0,0,1,3.29.91A3.31,3.31,0,0,1,88.62,40l.53,5.18a4.83,4.83,0,0,0,.92,2.68l-4.94.51q-.24-.08-.51-.6a5,5,0,0,1-.37-1.56l-.62-6c-.1-1.06-.8-1.53-2.08-1.43l1,9.9-6,.61Z"/><path d="M102.13,33l.41,4L95,37.74l-.41-4Z"/><path d="M115.93,35.19c-1.26.15-1.83.76-1.72,1.81l.62,6.06a4.08,4.08,0,0,1-.09,1.74c-.14.35-.25.54-.33.54l-4.94.51a4.92,4.92,0,0,0,.36-2.81l-.54-5.18a3.33,3.33,0,0,1,.66-2.61,6.12,6.12,0,0,1,3-1.56v0c-2.7.14-4.18-1-4.42-3.34l-.5-4.87a4.63,4.63,0,0,0-.92-2.64l5-.51c.15.05.31.24.49.58a4.4,4.4,0,0,1,.38,1.55l.58,5.73c.11,1.05.79,1.53,2,1.44l-1-9.55,6-.62,1,9.56c1.25-.17,1.83-.78,1.72-1.83l-.59-5.73a4,4,0,0,1,.09-1.72c.13-.35.25-.53.33-.54l4.95-.51a4.69,4.69,0,0,0-.37,2.77l.5,4.88c.25,2.36-1,3.75-3.66,4.17v0a6.12,6.12,0,0,1,3.28.91A3.28,3.28,0,0,1,129,35.84l.54,5.18a4.83,4.83,0,0,0,.92,2.68l-5,.51a1.12,1.12,0,0,1-.5-.6,4.56,4.56,0,0,1-.37-1.56L124,36c-.11-1.05-.8-1.52-2.09-1.42l1,9.9-6,.61Z"/><path d="M142.51,28.87l.41,3.95-7.54.77-.4-4Z"/><path d="M156.32,31c-1.26.16-1.84.77-1.73,1.82l.62,6.06a4,4,0,0,1-.08,1.74q-.23.53-.33.54l-5,.51a4.76,4.76,0,0,0,.36-2.81l-.53-5.18a3.33,3.33,0,0,1,.66-2.61,6.08,6.08,0,0,1,3-1.56v0c-2.71.14-4.18-1-4.42-3.34l-.5-4.87a4.7,4.7,0,0,0-.92-2.64l4.94-.51c.15,0,.32.24.5.58a4.43,4.43,0,0,1,.37,1.55l.59,5.73c.11,1.05.78,1.53,2,1.44l-1-9.55,6-.62,1,9.56c1.26-.17,1.83-.78,1.72-1.83l-.58-5.73a3.85,3.85,0,0,1,.08-1.72c.14-.35.25-.53.34-.54l4.94-.51a4.69,4.69,0,0,0-.36,2.77l.5,4.88q.36,3.54-3.67,4.17v0a6.16,6.16,0,0,1,3.29.91,3.31,3.31,0,0,1,1.18,2.42l.53,5.18a4.83,4.83,0,0,0,.92,2.68l-4.94.5c-.16-.05-.33-.24-.51-.59a4.84,4.84,0,0,1-.36-1.56l-.63-6.06c-.1-1.05-.8-1.52-2.08-1.42l1,9.9-6,.61Z"/><path d="M182.9,24.73l.41,3.95-7.54.77-.41-3.95Z"/><path d="M196.7,26.9c-1.26.16-1.83.77-1.72,1.82l.62,6.06a4.08,4.08,0,0,1-.09,1.74q-.21.52-.33.54l-4.94.51a4.92,4.92,0,0,0,.36-2.81l-.54-5.18a3.33,3.33,0,0,1,.66-2.61,6.12,6.12,0,0,1,3-1.56v0c-2.7.14-4.18-1-4.42-3.34l-.5-4.88a4.62,4.62,0,0,0-.92-2.63l4.95-.51c.15,0,.31.24.49.58a4.34,4.34,0,0,1,.38,1.55l.58,5.73c.11,1.05.79,1.53,2,1.44l-1-9.55,6-.62,1,9.55c1.25-.16,1.83-.77,1.72-1.82l-.59-5.73a4,4,0,0,1,.09-1.72c.13-.35.25-.53.33-.54l5-.51a4.68,4.68,0,0,0-.37,2.77L209,20c.25,2.36-1,3.75-3.66,4.17v0a6,6,0,0,1,3.28.91,3.26,3.26,0,0,1,1.18,2.42l.54,5.18a4.86,4.86,0,0,0,.92,2.68l-4.95.5c-.16-.05-.33-.25-.5-.59a4.56,4.56,0,0,1-.37-1.56l-.62-6.06c-.11-1.05-.8-1.52-2.09-1.42l1,9.9-6,.61Z"/><path d="M226,33.9l-5,.51L220,23.93l-2,10.8-5.25.54-2.36-23,5-.51,1.06,10.39,2.29-10.73,5-.52Z"/><path d="M241.79,32.28l-5,.52-1.07-10.48-2,10.8-5.25.53-2.36-23,5-.52,1.07,10.4,2.29-10.74,5-.51Z"/><path d="M72.44,57.23l.38,3.7-3.71.38-.38-3.7Zm4.72,4,2.36,23-6,.61-2.36-23Zm1.49-4.62.38,3.7-3.71.38L74.94,57Z"/><path d="M99.45,86.2l-4.14.43-.4-4-9.67,1,.4,4L81.52,88l-.9-8.77,1.22-.13a40.73,40.73,0,0,0,.83-7.61,78.62,78.62,0,0,0-.42-10.15l-.07-.69,13.28-1.37,1.87,18.2,1.22-.12Zm-8.13-8.06-1.4-13.65-1.77.18v.17a66.79,66.79,0,0,1,0,13.63Z"/><path d="M98.55,59l10-1,.47,4.6L105,63l.44,4.37,3.74-.38.45,4.38-3.74.38.52,5.06,4.4-.45.47,4.61L100.91,82Z"/><path d="M129.12,55.89l2.36,23-5.23.53-1.6-15.54-.49,15.76-3.71.38-3.76-15,1.55,15.19L113,80.8l-2.36-23,7.74-.79c.38,1.36.78,3,1.22,4.82l1.45,5.77.27-10.9Z"/><path d="M146.58,67.72a46.5,46.5,0,0,1,.34,4.93,5.56,5.56,0,0,1-.75,2.74A5.47,5.47,0,0,1,144,77.46a8.35,8.35,0,0,1-3.34,1,8.68,8.68,0,0,1-3.38-.26,5.54,5.54,0,0,1-3.89-4.09,47.73,47.73,0,0,1-.69-5l-.4-3.94c-.24-2.31-.35-4-.34-4.93a5.53,5.53,0,0,1,.75-2.74,5.63,5.63,0,0,1,2.14-2.08,9.43,9.43,0,0,1,6.73-.72,5.58,5.58,0,0,1,3.89,4.09,48.09,48.09,0,0,1,.68,5Zm-6.76-6.95a7.11,7.11,0,0,0-.39-2,.69.69,0,0,0-.77-.37.83.83,0,0,0-.69.43A5.12,5.12,0,0,0,138,61l1.1,10.75a10.53,10.53,0,0,0,.41,2.46.73.73,0,0,0,.81.39.74.74,0,0,0,.73-.62,11.1,11.1,0,0,0-.09-2.59Z"/><path d="M164.42,52.25l-.06,15.43a32,32,0,0,1-.31,5.15,3.26,3.26,0,0,1-1.49,2.26,10.23,10.23,0,0,1-4.1,1l-3.5.36-.31-3,.36,0a3.2,3.2,0,0,0,1.44-.34.7.7,0,0,0,.22-.62s-.19-.65-.54-1.91l-4.93-17,5.2-.54,3.38,14.16-.55-14.45Z"/><path d="M187.74,73.14l-6,.62-1.89-18.43-1.74.17,1.33,13a7.72,7.72,0,0,1-.28,3.77,3,3,0,0,1-1.87,1.61,22.38,22.38,0,0,1-4.28.73l-.94.1-.4-4a3.15,3.15,0,0,0,1.48-.42c.25-.21.33-.84.22-1.9l-1.74-16.95,13.75-1.41Z"/><path d="M202.83,62c.23,2.31.35,4,.34,4.93a5.59,5.59,0,0,1-2.89,4.82,9.43,9.43,0,0,1-6.73.72,5.54,5.54,0,0,1-3.89-4.09,48.09,48.09,0,0,1-.68-5l-.41-3.94c-.24-2.31-.35-4-.34-4.93a5.5,5.5,0,0,1,2.89-4.81,8.4,8.4,0,0,1,3.35-1,8.68,8.68,0,0,1,3.38.26,5.58,5.58,0,0,1,3.89,4.09,48.52,48.52,0,0,1,.68,5Zm-6.77-7a7.2,7.2,0,0,0-.39-2,.7.7,0,0,0-.77-.37.81.81,0,0,0-.68.44,4.83,4.83,0,0,0,0,2.16l1.1,10.75a10.21,10.21,0,0,0,.42,2.46.71.71,0,0,0,.8.39.74.74,0,0,0,.73-.62,11.11,11.11,0,0,0-.09-2.59Z"/><path d="M217.44,46.83l2.36,23-6,.62-1-9.67L211,61l1,9.67-6,.61-2.36-23,6-.61.85,8.23,1.79-.18-.85-8.24Z"/><path d="M239.73,71.82l-4.14.42-.4-4-9.67,1,.4,4-4.12.43-.9-8.78,1.22-.12a40,40,0,0,0,.83-7.61A78.55,78.55,0,0,0,222.53,47l-.07-.7,13.28-1.36,1.87,18.2,1.22-.12Zm-8.12-8.06-1.4-13.65-1.78.18,0,.17a67.43,67.43,0,0,1,0,13.62Z"/><path d="M253.89,56.72c.24,2.31.35,4,.34,4.92a5.57,5.57,0,0,1-.75,2.75,5.68,5.68,0,0,1-2.14,2.07,8.4,8.4,0,0,1-3.35,1,8.68,8.68,0,0,1-3.38-.26,5.59,5.59,0,0,1-2.55-1.57,5.51,5.51,0,0,1-1.34-2.53,47.78,47.78,0,0,1-.68-5l-.4-3.94c-.24-2.32-.35-4-.34-4.93a5.5,5.5,0,0,1,2.89-4.82,8.35,8.35,0,0,1,3.34-1,8.73,8.73,0,0,1,3.39.26,5.62,5.62,0,0,1,3.89,4.1c.21.93.43,2.59.68,5Zm-6.76-7a7,7,0,0,0-.39-2,.71.71,0,0,0-.78-.37.81.81,0,0,0-.68.43,5.23,5.23,0,0,0,0,2.17l1.1,10.75a10.76,10.76,0,0,0,.42,2.45.71.71,0,0,0,.81.4.75.75,0,0,0,.73-.62,12.08,12.08,0,0,0-.1-2.6Z"/><path d="M268.5,41.59l2.37,23-6,.61-1-9.67-1.79.18,1,9.67-6,.62-2.36-23,6-.61.84,8.24,1.79-.19-.84-8.23Z"/><path d="M417.15,6.55h3.48A2.38,2.38,0,0,1,423,8.92v0a0,0,0,0,1,0,0h-8.23a0,0,0,0,1,0,0v0a2.38,2.38,0,0,1,2.38-2.38Z" style="fill:url(#b8fe8e16-6065-4642-97e4-0f6805263048)"/><rect x="307.55" y="74.63" width="31.38" height="25.01" style="fill:#070707"/><rect x="411.57" y="74.63" width="31.38" height="25.01" style="fill:#070707"/><path d="M452.05,95.57c.1,2-4.58,3.68-6.59,3.68h-1.91v-9c0-7.94-6.79-13.15-14.77-12.94-7.7.22-13.61,5.53-13.61,13.23v8.76H338v-9c0-7.94-6.54-13.13-14.52-12.91-7.7.21-13.73,5.5-13.73,13.19v8.77h-28a2.1,2.1,0,0,1-2.09-2.09V31.84a23.09,23.09,0,0,1,.52-4.88h0a22.37,22.37,0,0,1,1.12-3.65A22.91,22.91,0,0,1,302.63,8.92H433.36A10,10,0,0,1,442,13.85a9.88,9.88,0,0,1,1.39,5.09s.64,4.64,1.42,15.45c.42,5.72.87,13.17,1.3,22.58.23,5,.4,12.66.53,16.83.44.34,4.2,3.24,4.45,5.31C451.36,81.39,451.73,89.45,452.05,95.57Z" style="fill:#0b6cfe"/><path d="M284.8,23.3v76h-3a2.1,2.1,0,0,1-2.09-2.09V31.84a23.09,23.09,0,0,1,.52-4.88h0a22.37,22.37,0,0,1,1.12-3.65Z" style="fill:url(#e9650382-2184-4b02-b6ab-3a8177bd917e)"/><path d="M446.43,66.34s-.93-23.12-1.44-29-1.72-19.89-1.72-19.89l-2.87-2.38,1.73,32.32,1.29,18.93Z" style="fill:url(#f8fa93c4-df22-45ae-a94d-1e1653dfef68)"/><polygon points="446.63 98.68 443.55 98.68 443.5 89.08 440.32 81.99 433.25 77.57 429.11 77.27 429.11 67.44 446.63 67.44 446.63 98.68" style="fill:url(#b0e47fc2-8d00-4860-9f88-aebb6e5058f3)"/><path d="M338.91,90.71s8.83-11,30.25-10.52,21.08-4.51,24.3-6.85,18.13-4.62,18.13-4.62H302s6.81,3.67,10.32,3.55c7.22-.24,16.13,1.81,22.59,3.28S338.91,90.71,338.91,90.71Z" style="fill:#fff;opacity:0.08"/><rect x="414.04" y="80.91" width="0.44" height="7.43" style="fill:#0c5fe5"/><path d="M447.07,85.79a3.3,3.3,0,0,1,2-1.35,6.51,6.51,0,0,1,1.7-.39l-.13-1s-1.91,0-2.44-.1a4.83,4.83,0,0,1-1.13-.34Z" style="fill:#fff;opacity:0.28"/><rect x="311.98" y="68.8" width="1.05" height="10.8" style="fill:url(#ab503fcd-2c76-4ddd-8985-9ec9d76c9361)"/><rect x="337.41" y="68.8" width="1.05" height="10.8" style="fill:url(#a72e33d6-adb7-4725-89fc-e8dcb0045eb7)"/><rect x="362.85" y="68.8" width="1.05" height="10.8" style="fill:url(#f2c5596c-0abb-4497-9142-72fb176ab606)"/><rect x="388.28" y="68.8" width="1.05" height="10.8" style="fill:url(#a8d407a7-204d-4146-9ab2-a373ef68e9b4)"/><rect x="413.35" y="68.8" width="0.91" height="10.8" style="fill:url(#e4eb9ca0-1d3b-4a60-a4b7-86f8cbf671c8)"/><rect x="311.98" y="34.39" width="1.09" height="14.04" style="fill:url(#fa9e327a-2480-4179-a2b9-1638748adf65)"/><rect x="337.43" y="34.39" width="1.09" height="14.04" style="fill:url(#a924ef0f-58a1-4f06-92a5-f7536188a22f)"/><rect x="362.89" y="34.39" width="1.09" height="14.04" style="fill:url(#ad93f3ef-468e-4046-be5b-10b6f23a408e)"/><rect x="303.61" y="80.91" width="1.15" height="18.04" style="fill:url(#a2cca0fe-1df2-45a5-980a-21217d0216e3)"/><rect x="304.53" y="49.34" width="0.44" height="49.61" style="fill:#0c5fe5"/><rect x="285.34" y="49.34" width="0.44" height="49.61" style="fill:#0c5fe5"/><rect x="284.2" y="49.34" width="0.44" height="49.61" style="fill:#0c5fe5"/><rect x="303.38" y="49.34" width="0.44" height="49.61" style="fill:#0c5fe5"/><rect x="279.71" y="67.73" width="134.88" height="1.08" style="fill:url(#fe92c8ee-cc8d-4e14-9617-c2f718ee284e)"/><rect x="338.25" y="68.8" width="0.44" height="30.82" style="fill:#0c5fe5"/><rect x="284.42" y="80.91" width="1.15" height="18.04" style="fill:url(#b5d42516-d0c8-43b0-b9c3-fecec3cf0556)"/><rect x="388.41" y="34.39" width="1.09" height="14.04" style="fill:url(#ffd6e337-5edc-4f43-95b7-98fad9136fdf)"/><rect x="413.71" y="34.39" width="1.09" height="14.04" style="fill:url(#a6c3ea4d-a6e7-49f4-8e97-8c83faee953a)"/><rect x="312.85" y="68.95" width="0.44" height="14.96" style="fill:#0c5fe5"/><rect x="414.04" y="68.8" width="0.44" height="10.8" style="fill:#0c5fe5"/><rect x="311.76" y="68.95" width="0.44" height="14.96" style="fill:#0c5fe5"/><rect x="279.71" y="68.58" width="134.92" height="0.44" style="fill:#0c5fe5"/><path d="M414.63,68H279.71a.22.22,0,0,1-.22-.22.22.22,0,0,1,.22-.23H414.63a.22.22,0,0,1,.22.23A.22.22,0,0,1,414.63,68Z" style="fill:#fff;opacity:0.30000000000000004"/><rect x="415.71" y="66.34" width="30.22" height="1.12" style="fill:url(#a76f19fd-afbe-4017-b619-01923a1e391a)"/><rect x="415.71" y="67.22" width="30.73" height="0.44" style="fill:#0c5fe5"/><path d="M446.43,66.56H415.71a.22.22,0,1,1,0-.44h30.72a.22.22,0,0,1,0,.44Z" style="fill:#fff;opacity:0.25"/><rect x="427.97" y="67.44" width="0.44" height="8.99" style="fill:#0c5fe5"/><rect x="428.89" y="67.44" width="0.44" height="8.99" style="fill:#0c5fe5"/><rect x="279.93" y="49.12" width="134.48" height="0.44" style="fill:#0c5fe5"/><path d="M414.35,48.87H279.93a.21.21,0,0,1-.22-.22.22.22,0,0,1,.22-.22H414.35a.22.22,0,0,1,.22.22A.22.22,0,0,1,414.35,48.87Z" style="fill:#fff;opacity:0.25"/><path d="M446.75,74.29l1.53,1.22,2.49,2.94.2,1.16v.59a6.31,6.31,0,0,0-1.24-1.71,12.14,12.14,0,0,0-3-1.63V74.29Z" style="fill:#fff;opacity:0.28"/><path d="M446.75,75.18s1.33.94,1.85,1.36a13.68,13.68,0,0,1,1.53,1.58,5.94,5.94,0,0,1,.57,1L451,79l-.84-2-1.85-1.48-1.09-1.22-.34-.2Z" style="fill:#fff"/><rect x="279.71" y="79.6" width="33.33" height="1.31" style="fill:url(#ec33c887-a884-4135-b986-8874529edcea)"/><path d="M313.3,79.82H279.93a.22.22,0,0,1,0-.44H313.3a.22.22,0,0,1,0,.44Z" style="fill:#fff;opacity:0.25"/><polygon points="417.27 76.26 416.22 76.14 417.29 75.78 427.93 75.78 427.97 76.51 417.27 76.26" style="fill:#fff;opacity:0.65"/><rect x="337.19" y="68.8" width="0.44" height="30.82" style="fill:#0c5fe5"/><rect x="338.28" y="33.48" width="0.44" height="14.96" style="fill:#0c5fe5"/><rect x="337.19" y="33.48" width="0.44" height="14.96" style="fill:#0c5fe5"/><rect x="312.85" y="33.48" width="0.44" height="14.96" style="fill:#0c5fe5"/><rect x="311.76" y="33.48" width="0.44" height="14.96" style="fill:#0c5fe5"/><rect x="362.66" y="68.8" width="0.44" height="30.82" style="fill:#0c5fe5"/><rect x="363.75" y="68.8" width="0.44" height="30.82" style="fill:#0c5fe5"/><rect x="362.66" y="32.64" width="0.44" height="15.78" style="fill:#0c5fe5"/><rect x="363.75" y="32.64" width="0.44" height="15.78" style="fill:#0c5fe5"/><rect x="388.12" y="68.8" width="0.44" height="30.82" style="fill:#0c5fe5"/><rect x="413.12" y="68.8" width="0.44" height="30.82" style="fill:#0c5fe5"/><rect x="413.58" y="29.13" width="0.44" height="19.29" style="fill:#0c5fe5"/><rect x="414.58" y="29.13" width="0.44" height="19.29" style="fill:#0c5fe5"/><rect x="389.21" y="68.8" width="0.44" height="30.82" style="fill:#0c5fe5"/><rect x="388.12" y="29.13" width="0.44" height="19.31" style="fill:#0c5fe5"/><rect x="389.21" y="29.13" width="0.44" height="19.31" style="fill:#0c5fe5"/><polygon points="418.22 96.34 337.21 96.34 334.8 95.03 418.22 95.03 418.22 96.34" style="fill:url(#be57356b-7c95-4a3c-931d-137d28a5546d)"/><path d="M414.25,95.25H338.91a.22.22,0,0,1-.22-.22.22.22,0,0,1,.22-.22h75.34a.21.21,0,0,1,.22.22A.22.22,0,0,1,414.25,95.25Z" style="fill:#fff;opacity:0.25"/><polygon points="418.22 80.91 337.21 80.91 334.8 79.6 418.22 79.6 418.22 80.91" style="fill:url(#a7ebdf85-2de6-4ecc-b9ab-3c8bb2e91778)"/><path d="M418.91,79.82H334.22a.22.22,0,0,1,0-.44h84.69a.22.22,0,0,1,0,.44Z" style="fill:#fff;opacity:0.25"/><path d="M444.8,34.39H279.71V31.84c0-.43,0-.87,0-1.3a23.37,23.37,0,0,1,.48-3.58h0a22.92,22.92,0,0,1,22.39-18H433.36A10,10,0,0,1,442,13.85a9.88,9.88,0,0,1,1.39,5.09S444,23.58,444.8,34.39Z" style="fill:url(#bd8e5a0f-b383-46ba-b73e-0a079a55e4a9)"/><polygon points="415.71 76.02 414.63 74.55 414.63 45.94 415.71 45.94 415.71 76.02" style="fill:#0c5fe5"/><path d="M313.06,17.81v-1.1a2.26,2.26,0,0,1,2.3-2.21H335.1a2.25,2.25,0,0,1,2.29,2.21v1.1Z" style="fill:#0c5fe5"/><path d="M338.52,17.81v-1.1a2.26,2.26,0,0,1,2.3-2.21h19.74a2.26,2.26,0,0,1,2.3,2.21v1.1Z" style="fill:#0c5fe5"/><path d="M364,17.81v-1.1a2.26,2.26,0,0,1,2.3-2.21H386a2.26,2.26,0,0,1,2.3,2.21v1.1Z" style="fill:#0c5fe5"/><path d="M389.42,17.81v-1.1a2.26,2.26,0,0,1,2.3-2.21h19.74a2.25,2.25,0,0,1,2.29,2.21v1.1Z" style="fill:#0c5fe5"/><path d="M414.77,17.81v-1.1a2.26,2.26,0,0,1,2.3-2.21l21.35,0a3,3,0,0,1,3.07,2.11l.11,1.18Z" style="fill:#0c5fe5"/><path d="M313.07,64.3s-.44,3.14,1.9,3.14H336c1.74,0,1.33-3,1.33-3Z" style="fill:#fff;opacity:0.28"/><path d="M287.64,29.2s-.45,3.14,1.9,3.14H310.6c1.74,0,1.34-3,1.34-3Z" style="fill:#fff;opacity:0.28"/><path d="M287.64,28.49s-.45,3.14,1.9,3.14H310.6c1.74,0,1.34-3,1.34-3Z" style="fill:#fff;opacity:0.41000000000000003"/><rect x="279.87" y="33.24" width="164.89" height="1.14" style="fill:url(#b28accbf-48a9-4578-b041-ef715ddfdef7)"/><path d="M313.07,29.2s-.44,3.14,1.9,3.14H336c1.74,0,1.33-3,1.33-3Z" style="fill:#fff;opacity:0.28"/><path d="M313.07,28.49s-.44,3.14,1.9,3.14H336c1.74,0,1.33-3,1.33-3Z" style="fill:#fff;opacity:0.41000000000000003"/><path d="M338.5,29.2s-.44,3.14,1.9,3.14h21.07c1.74,0,1.34-3,1.34-3Z" style="fill:#fff;opacity:0.28"/><path d="M303,11.3s-4.08.91-6.42,1.7-6.26,2.94-10,8-2.47,12.44-2.47,12.44l-4.25.26-.12-3.2a23.37,23.37,0,0,1,.48-3.58h0a22.92,22.92,0,0,1,22.39-18Z" style="fill:url(#e6c0b9fb-717c-46fb-96b4-e5d38031ce34)"/><path d="M444.8,33.47H279.71a.22.22,0,0,1-.22-.23.22.22,0,0,1,.22-.22H444.8a.22.22,0,0,1,.22.22A.22.22,0,0,1,444.8,33.47Z" style="fill:#fff;opacity:0.25"/><path d="M338.5,28.49s-.44,3.14,1.9,3.14h21.07c1.74,0,1.34-3,1.34-3Z" style="fill:#fff;opacity:0.41000000000000003"/><path d="M363.93,29.2s-.44,3.14,1.9,3.14H386.9c1.74,0,1.34-3,1.34-3Z" style="fill:#fff;opacity:0.28"/><path d="M363.93,28.49s-.44,3.14,1.9,3.14H386.9c1.74,0,1.34-3,1.34-3Z" style="fill:#fff;opacity:0.41000000000000003"/><path d="M389.37,29.2s-.45,3.14,1.9,3.14h21.06c1.74,0,1.34-3,1.34-3Z" style="fill:#fff;opacity:0.28"/><path d="M389.37,28.49s-.45,3.14,1.9,3.14h21.06c1.74,0,1.34-3,1.34-3Z" style="fill:#fff;opacity:0.41000000000000003"/><path d="M414.8,29.2s-.51,3.14,2.17,3.14h24c2,0,1.53-3,1.53-3Z" style="fill:#fff;opacity:0.28"/><path d="M414.8,28.49s-.51,3.14,2.17,3.14h24c2,0,1.53-3,1.53-3Z" style="fill:#fff;opacity:0.41000000000000003"/><path d="M311.55,17.38V29.22A1.54,1.54,0,0,1,310,30.77H289.58A1.54,1.54,0,0,1,288,29.22V26.89A11.06,11.06,0,0,1,299.1,15.83H310A1.54,1.54,0,0,1,311.55,17.38Z" style="fill:#a1c4c4"/><path d="M337,17.39V29.21a1.56,1.56,0,0,1-1.56,1.56H315.05a1.56,1.56,0,0,1-1.57-1.56V17.39a1.56,1.56,0,0,1,1.57-1.56h20.39a1.58,1.58,0,0,1,.71.17A1.55,1.55,0,0,1,337,17.39Z" style="fill:#a1c4c4"/><path d="M337,52.25V64.07a1.54,1.54,0,0,1-.26.87,1.58,1.58,0,0,1-1.3.69H315.05a1.56,1.56,0,0,1-1.57-1.56V52.25a1.56,1.56,0,0,1,1.57-1.56h20.39A1.56,1.56,0,0,1,337,52.25Z" style="fill:#a1c4c4"/><path d="M387.9,52.25V64.07a1.56,1.56,0,0,1-1.57,1.56H365.94a1.56,1.56,0,0,1-1.56-1.56V52.25a1.56,1.56,0,0,1,1.56-1.56h20.39A1.56,1.56,0,0,1,387.9,52.25Z" style="fill:#a1c4c4"/><rect x="338.93" y="15.83" width="23.52" height="14.94" rx="1.6" style="fill:#a1c4c4"/><rect x="364.38" y="15.83" width="23.52" height="14.94" rx="1.6" style="fill:#a1c4c4"/><rect x="389.83" y="15.83" width="23.52" height="14.94" rx="1.6" style="fill:#a1c4c4"/><path d="M442.13,29a1.61,1.61,0,0,1-1.6,1.73H416.88a1.6,1.6,0,0,1-1.6-1.6V17.43a1.6,1.6,0,0,1,1.6-1.6H439.6a1.6,1.6,0,0,1,1.59,1.47Z" style="fill:#a1c4c4"/><rect x="416.73" y="47.41" width="11.46" height="18.22" rx="1.36" style="fill:#a1c4c4"/><path d="M444.54,64.23a1.36,1.36,0,0,1-1.35,1.4H431.38A1.36,1.36,0,0,1,430,64.27V48.77a1.36,1.36,0,0,1,1.36-1.36h11.29A1.35,1.35,0,0,1,444,48.73Z" style="fill:#a1c4c4"/><path d="M362.45,55.78v8.29a1.56,1.56,0,0,1-1.56,1.56h-20.4a1.56,1.56,0,0,1-1.56-1.56V55.78Z" style="fill:#a1c4c4"/><path d="M362.45,52.25v1.84H338.93V52.25a1.56,1.56,0,0,1,1.56-1.56h20.4A1.56,1.56,0,0,1,362.45,52.25Z" style="fill:#a1c4c4"/><path d="M413.35,55.78v8.29a1.56,1.56,0,0,1-1.56,1.56h-20.4a1.56,1.56,0,0,1-1.56-1.56V55.78Z" style="fill:#a1c4c4"/><path d="M413.35,52.25v1.84H389.83V52.25a1.56,1.56,0,0,1,1.56-1.56h20.4A1.56,1.56,0,0,1,413.35,52.25Z" style="fill:#a1c4c4"/><path d="M337,20.24v9a1.56,1.56,0,0,1-1.56,1.56h-5.59l-3-14.94h8.61a1.58,1.58,0,0,1,.71.17Z" style="fill:#fff;opacity:0.5"/><path d="M337,52.25V64.07a1.54,1.54,0,0,1-.26.87l-2.87-14.25h1.57A1.56,1.56,0,0,1,337,52.25Z" style="fill:#fff;opacity:0.5"/><path d="M343.83,54.09h-4.9V52.25a1.56,1.56,0,0,1,1.56-1.56h2.66Z" style="fill:#fff;opacity:0.5"/><path d="M346.16,65.63h-5.67a1.56,1.56,0,0,1-1.56-1.56V55.78h5.24Z" style="fill:#fff;opacity:0.5"/><path d="M387.9,17.43V29.17a1.6,1.6,0,0,1-1.6,1.6H376l-2.53-14.94H386.3A1.6,1.6,0,0,1,387.9,17.43Z" style="fill:#fff;opacity:0.5"/><path d="M387.9,52.25V64.07a1.56,1.56,0,0,1-1.57,1.56H382l-2.53-14.94h6.91A1.56,1.56,0,0,1,387.9,52.25Z" style="fill:#fff;opacity:0.5"/><path d="M389.83,29.17V17.43a1.6,1.6,0,0,1,1.6-1.6h1L395,30.77h-3.54A1.6,1.6,0,0,1,389.83,29.17Z" style="fill:#fff;opacity:0.5"/><path d="M398.93,54.09h-9.1V52.25a1.56,1.56,0,0,1,1.56-1.56h7Z" style="fill:#fff;opacity:0.5"/><path d="M400.88,65.63h-9.49a1.56,1.56,0,0,1-1.56-1.56V55.78h9.38Z" style="fill:#fff;opacity:0.5"/><path d="M290.87,22.36a10.21,10.21,0,0,0-.85,2.88c0,.92-.32,3.4.15,3.93s3,.26,3.54.26-2.1-.58-2.46-1.3a10.23,10.23,0,0,1-.13-4.5c.3-1.23,1-3.16,1-3.16A14.1,14.1,0,0,0,290.87,22.36Z" style="fill:#fff"/><path d="M315,62.53h0a1.9,1.9,0,0,0,1.89,1.9h.29Z" style="fill:#fff"/><path d="M316.4,17h9.68a0,0,0,0,1,0,0v.72a0,0,0,0,1,0,0h-10.4a0,0,0,0,1,0,0v0A.72.72,0,0,1,316.4,17Z" style="fill:#fff"/><path d="M311.55,17.38V29.22A1.54,1.54,0,0,1,310,30.77h-4l-1.4-14.94H310A1.54,1.54,0,0,1,311.55,17.38Z" style="fill:#68a8de;opacity:0.30000000000000004"/><path d="M313.48,29.21V17.39a1.56,1.56,0,0,1,1.57-1.56H326.1l1.4,14.94H315.05A1.56,1.56,0,0,1,313.48,29.21Z" style="fill:#68a8de;opacity:0.30000000000000004"/><path d="M330.77,65.63H315.05a1.56,1.56,0,0,1-1.57-1.56V52.25a1.56,1.56,0,0,1,1.57-1.56h14.32Z" style="fill:#68a8de;opacity:0.30000000000000004"/><path d="M413.35,17.43V29.17a1.6,1.6,0,0,1-1.6,1.6h-9.23l-2.07-14.94h11.3A1.6,1.6,0,0,1,413.35,17.43Z" style="fill:#68a8de;opacity:0.30000000000000004"/><path d="M413.35,52.25v1.84h-7.6l-.47-3.4h6.51A1.56,1.56,0,0,1,413.35,52.25Z" style="fill:#68a8de;opacity:0.30000000000000004"/><path d="M406,55.78h7.36v8.29a1.56,1.56,0,0,1-1.56,1.56h-4.44Z" style="fill:#68a8de;opacity:0.30000000000000004"/><rect x="416.73" y="47.41" width="11.46" height="18.22" rx="1.36" style="fill:#68a8de;opacity:0.30000000000000004"/><path d="M434.44,30.77H416.88a1.6,1.6,0,0,1-1.6-1.6V17.43a1.6,1.6,0,0,1,1.6-1.6h15.49Z" style="fill:#68a8de;opacity:0.30000000000000004"/><path d="M439.27,65.63h-7.89A1.36,1.36,0,0,1,430,64.27V48.77a1.36,1.36,0,0,1,1.36-1.36h5.37Z" style="fill:#68a8de;opacity:0.30000000000000004"/><polygon points="431.11 30.77 427.78 30.77 425.93 15.83 429.26 15.83 431.11 30.77" style="fill:#fff;opacity:0.4"/><path d="M435.44,65.63l-2.26-18.22h-1.8A1.36,1.36,0,0,0,430,48.77v.06l2.09,16.8Z" style="fill:#fff;opacity:0.4"/><path d="M338.54,64.3s-.45,3.14,1.9,3.14H361.5c1.74,0,1.34-3,1.34-3Z" style="fill:#fff;opacity:0.28"/><path d="M364,64.3s-.44,3.14,1.9,3.14H387c1.74,0,1.33-3,1.33-3Z" style="fill:#fff;opacity:0.28"/><path d="M389.47,64.3s-.45,3.14,1.9,3.14h21.06c1.74,0,1.34-3,1.34-3Z" style="fill:#fff;opacity:0.28"/><path d="M441.63,13.85l-.19.55a12.6,12.6,0,0,0-3.73-2.16A17.42,17.42,0,0,0,432,11.3H299.43c-13.92,0-19.3,15.17-19.56,15.65a22.92,22.92,0,0,1,22.39-18H433A10,10,0,0,1,441.63,13.85Z" style="fill:#fff;opacity:0.24"/><path d="M445.46,99.69h-1.91a.44.44,0,0,1-.44-.44V90.19a12.08,12.08,0,0,0-3.57-8.87,13.69,13.69,0,0,0-10.1-3.62c-7.88.21-13.83,5.71-13.83,12.79v8.76a.44.44,0,0,1-.44.44H338a.44.44,0,0,1-.44-.44V90.19a11.35,11.35,0,0,0-3.41-8.36,14.46,14.46,0,0,0-10.66-3.76c-7.83.22-13.3,5.32-13.3,12.41v8.77a.44.44,0,0,1-.44.44h-28a2.54,2.54,0,0,1-2.53-2.54V31.84A23.39,23.39,0,0,1,302.63,8.48H433.36a10.48,10.48,0,0,1,10.47,10.46s1.5,11.12,2.71,38c.16,3.47.29,8.29.4,12.17.05,1.67.09,3.21.13,4.46,1.17.91,4.21,3.46,4.45,5.48s.55,8.22.83,13.74l.14,2.75a2.25,2.25,0,0,1-.72,1.63,9.71,9.71,0,0,1-4.35,2.21.43.43,0,0,1-.42.3ZM444,98.8h1.55a9.93,9.93,0,0,0,5.59-2.23,1.34,1.34,0,0,0,.47-1l-.14-2.75c-.27-5.5-.58-11.74-.82-13.68-.17-1.41-2.41-3.58-4.28-5a.44.44,0,0,1-.17-.34c0-1.28-.09-2.9-.14-4.66-.1-3.88-.24-8.7-.39-12.16-1.22-26.84-2.7-37.88-2.72-38a9.6,9.6,0,0,0-9.58-9.63H302.63a22.5,22.5,0,0,0-22.48,22.47V97.15a1.65,1.65,0,0,0,1.65,1.65h27.52V90.48c0-7.6,5.82-13.07,14.16-13.29a15.33,15.33,0,0,1,11.3,4,12.22,12.22,0,0,1,3.68,9V98.8h76.27V90.49c0-7.57,6.31-13.45,14.69-13.68a14.69,14.69,0,0,1,10.74,3.88,12.9,12.9,0,0,1,3.83,9.5Z"/><path d="M310,31.21H289.58a2,2,0,0,1-2-2V26.89A11.53,11.53,0,0,1,299.1,15.38H310a2,2,0,0,1,2,2V29.22A2,2,0,0,1,310,31.21ZM299.1,16.27a10.63,10.63,0,0,0-10.62,10.62v2.33a1.11,1.11,0,0,0,1.1,1.11H310a1.11,1.11,0,0,0,1.1-1.11V17.37a1.11,1.11,0,0,0-1.1-1.1Z"/><path d="M335.44,31.21H315.05a2,2,0,0,1-2-2V17.39a2,2,0,0,1,2-2h20.39a2,2,0,0,1,2,2V29.21A2,2,0,0,1,335.44,31.21ZM315.05,16.27a1.12,1.12,0,0,0-1.12,1.12V29.21a1.12,1.12,0,0,0,1.12,1.12h20.39a1.12,1.12,0,0,0,1.12-1.12V17.39a1.12,1.12,0,0,0-1.12-1.12Z"/><path d="M335.44,66.07H315.05a2,2,0,0,1-2-2V52.25a2,2,0,0,1,2-2h20.39a2,2,0,0,1,2,2V64.07A2,2,0,0,1,335.44,66.07ZM315.05,51.13a1.12,1.12,0,0,0-1.12,1.12V64.07a1.12,1.12,0,0,0,1.12,1.12h20.39a1.12,1.12,0,0,0,1.12-1.12V52.25a1.12,1.12,0,0,0-1.12-1.12Z"/><path d="M386.34,66.07h-20.4a2,2,0,0,1-2-2V52.25a2,2,0,0,1,2-2h20.4a2,2,0,0,1,2,2V64.07A2,2,0,0,1,386.34,66.07Zm-20.4-14.94a1.13,1.13,0,0,0-1.12,1.12V64.07a1.12,1.12,0,0,0,1.12,1.12h20.4a1.12,1.12,0,0,0,1.12-1.12V52.25a1.13,1.13,0,0,0-1.12-1.12Z"/><path d="M440.53,31.21H416.88a2,2,0,0,1-2.05-2V17.43a2.05,2.05,0,0,1,2.05-2h22.71a2.06,2.06,0,0,1,2,1.89L442.57,29a2,2,0,0,1-2,2.2ZM416.88,16.27a1.16,1.16,0,0,0-1.16,1.16V29.17a1.16,1.16,0,0,0,1.16,1.16h23.65a1.16,1.16,0,0,0,.85-.38,1.12,1.12,0,0,0,.3-.87l-.93-11.74a1.17,1.17,0,0,0-1.16-1.07Z"/><path d="M426.83,66.07h-8.74a1.79,1.79,0,0,1-1.8-1.8V48.77a1.8,1.8,0,0,1,1.8-1.81h8.74a1.81,1.81,0,0,1,1.81,1.81v15.5A1.8,1.8,0,0,1,426.83,66.07Zm-8.74-18.22a.92.92,0,0,0-.92.92v15.5a.92.92,0,0,0,.92.92h8.74a.92.92,0,0,0,.92-.92V48.77a.92.92,0,0,0-.92-.92Z"/><path d="M443.18,66.07h-11.8a1.8,1.8,0,0,1-1.8-1.8V48.77a1.81,1.81,0,0,1,1.8-1.81h11.29a1.8,1.8,0,0,1,1.8,1.75L445,64.22a1.78,1.78,0,0,1-1.8,1.85Zm-11.8-18.22a.92.92,0,0,0-.91.92v15.5a.92.92,0,0,0,.91.92h11.8a.91.91,0,0,0,.66-.28.89.89,0,0,0,.26-.67l-.51-15.5a.92.92,0,0,0-.92-.89Z"/><path d="M360.89,66.07h-20.4a2,2,0,0,1-2-2V55.78a.44.44,0,0,1,.44-.44h23.52a.44.44,0,0,1,.44.44v8.29A2,2,0,0,1,360.89,66.07Zm-21.51-9.84v7.84a1.12,1.12,0,0,0,1.11,1.12h20.4A1.12,1.12,0,0,0,362,64.07V56.23Z"/><path d="M362.45,54.53H338.93a.44.44,0,0,1-.44-.44V52.25a2,2,0,0,1,2-2h20.4a2,2,0,0,1,2,2v1.84A.44.44,0,0,1,362.45,54.53Zm-23.07-.89H362V52.25a1.13,1.13,0,0,0-1.12-1.12h-20.4a1.12,1.12,0,0,0-1.11,1.12Z"/><path d="M411.78,66.07H391.39a2,2,0,0,1-2-2V55.78a.44.44,0,0,1,.44-.44h23.52a.44.44,0,0,1,.44.44v8.29A2,2,0,0,1,411.78,66.07Zm-21.51-9.84v7.84a1.12,1.12,0,0,0,1.12,1.12h20.39a1.12,1.12,0,0,0,1.12-1.12V56.23Z"/><path d="M413.35,54.53H389.83a.44.44,0,0,1-.44-.44V52.25a2,2,0,0,1,2-2h20.39a2,2,0,0,1,2,2v1.84A.44.44,0,0,1,413.35,54.53Zm-23.08-.89H412.9V52.25a1.12,1.12,0,0,0-1.12-1.12H391.39a1.12,1.12,0,0,0-1.12,1.12Z"/><path d="M442.47,99.28v-8.4c0-7.37-6.07-12.6-13.48-12.4-7.14.19-12.74,5.52-12.74,12.67v8.13h-2V91.15s-.94-14.72,14.82-14.72c16.7,0,15.44,14.51,15.44,14.51v8.34Z" style="fill:#29292d"/><path d="M445,99.72H442V90.88a11.62,11.62,0,0,0-3.49-8.41A13.06,13.06,0,0,0,429,78.92c-7,.19-12.31,5.45-12.31,12.23v8.57h-2.87V91.15c0-.24-.37-6.47,3.8-10.91,2.65-2.82,6.5-4.25,11.46-4.25,5.45,0,9.61,1.52,12.36,4.52A14.85,14.85,0,0,1,445,91Zm-2-.88h1.17v-7.9c0-.1.44-5.77-3.3-9.84-2.58-2.8-6.51-4.23-11.7-4.23-4.7,0-8.33,1.34-10.81,4-3.9,4.16-3.57,10.22-3.56,10.28v7.72h1.09V91.15c0-7.27,5.67-12.91,13.18-13.11a13.88,13.88,0,0,1,10.18,3.8,12.5,12.5,0,0,1,3.75,9Z"/><path d="M336.86,99.28v-8.4c0-7.37-6.07-12.6-13.48-12.4-7.14.19-12.74,5.52-12.74,12.67v8.13h-2V91.15s-.94-14.72,14.82-14.72c16.7,0,15.44,14.51,15.44,14.51v8.34Z" style="fill:#29292d"/><path d="M339.35,99.72h-2.93V90.88a11.58,11.58,0,0,0-3.49-8.4,13,13,0,0,0-9.54-3.56c-7,.19-12.31,5.45-12.31,12.23v8.57h-2.87V91.15c0-.24-.37-6.47,3.8-10.91,2.65-2.82,6.5-4.25,11.46-4.25,5.45,0,9.61,1.52,12.36,4.52A14.85,14.85,0,0,1,339.35,91Zm-2.05-.88h1.17v-7.9c0-.1.44-5.77-3.3-9.84-2.58-2.8-6.51-4.23-11.7-4.23-4.7,0-8.34,1.34-10.81,4-3.91,4.17-3.57,10.22-3.56,10.28v7.72h1.09V91.15c0-7.27,5.67-12.91,13.18-13.11a13.88,13.88,0,0,1,10.18,3.8,12.5,12.5,0,0,1,3.75,9Z"/><path d="M408.86,83.67v1.5a1.05,1.05,0,0,1-1.06,1.06h-4a1.05,1.05,0,0,1-1-.65,1.07,1.07,0,0,1-.08-.41v-1.5a1.05,1.05,0,0,1,1.05-1.06h4A1.05,1.05,0,0,1,408.86,83.67Z" style="fill:#0c5fe5"/><rect x="439.96" y="52.47" width="2.41" height="4.84" rx="1.08" style="fill:url(#ef0198e7-a7ca-42a6-a95c-70b92130310b)"/><path d="M441.29,57.71H441a1.47,1.47,0,0,1-1.47-1.48V53.55A1.47,1.47,0,0,1,441,52.08h.26a1.47,1.47,0,0,1,1.47,1.47v2.68A1.47,1.47,0,0,1,441.29,57.71ZM441,52.87a.69.69,0,0,0-.68.68v2.68a.68.68,0,0,0,.68.68h.26a.68.68,0,0,0,.68-.68V53.55a.69.69,0,0,0-.68-.68Z"/><path d="M408.86,83.67v1.5a1.05,1.05,0,0,1-1.06,1.06h-4a1.05,1.05,0,0,1-1-.65,1.07,1.07,0,0,1-.08-.41v-1.5a1.05,1.05,0,0,1,1.05-1.06h4A1.05,1.05,0,0,1,408.86,83.67Z" style="fill:#0c5fe5"/><path d="M408.86,84.71v.46a1.05,1.05,0,0,1-1.06,1.06h-4a1.05,1.05,0,0,1-1-.65,1.07,1.07,0,0,1-.08-.41v-.46a1.05,1.05,0,0,1,1.05-1.06h4A1.05,1.05,0,0,1,408.86,84.71Z" style="fill:#070707;opacity:0.35000000000000003"/><path d="M408.78,85.58a1.07,1.07,0,0,1-1,.65h-4a1.05,1.05,0,0,1-1-.65Z" style="fill:#fff;opacity:0.65"/><path d="M407.8,86.45h-4a1.28,1.28,0,0,1-1.28-1.28v-1.5a1.28,1.28,0,0,1,1.28-1.28h4a1.28,1.28,0,0,1,1.28,1.28v1.5A1.28,1.28,0,0,1,407.8,86.45Zm-4-3.62a.84.84,0,0,0-.83.84v1.5a.83.83,0,0,0,.83.84h4a.84.84,0,0,0,.84-.84v-1.5a.85.85,0,0,0-.84-.84Z"/><path d="M423,9.37h-8.24a.45.45,0,0,1-.44-.45,2.82,2.82,0,0,1,2.82-2.82h3.48a2.82,2.82,0,0,1,2.82,2.82A.45.45,0,0,1,423,9.37Zm-7.74-.89h7.24A1.94,1.94,0,0,0,420.63,7h-3.48A1.94,1.94,0,0,0,415.27,8.48Z"/><rect x="279.71" y="43.13" width="161.68" height="2.8" style="fill:#f5cd7f"/><path d="M441.84,46.38H279.27V42.69H441.84Zm-161.69-.89H441V43.58H280.15Z"/><path d="M296.55,14.84s-5.95,1-7.87,3.79S286.59,26,286.59,26s1.09-5.09,3.42-7.42A13.39,13.39,0,0,1,296.55,14.84Z" style="fill:#fff;opacity:0.56"/><rect x="284.2" y="80.91" width="0.44" height="18.04" style="fill:#0c5fe5"/><path d="M417.53,81.13H335.87a.22.22,0,0,1,0-.44h81.66a.22.22,0,1,1,0,.44Z"/><path d="M415.71,73.57a2.27,2.27,0,0,0,.72,1.51c.44.38.86.7.86.7l-1,.36.77.31-.45-.07-.66-.36-.64-.58Z" style="fill:#0c5fe5"/><path d="M334.8,67.44a5.75,5.75,0,0,0,1.72-.68,3.35,3.35,0,0,0,.89-1.13s-.11,1.2-.65,1.57A4.16,4.16,0,0,1,334.8,67.44Z" style="fill:#fff;opacity:0.65"/><path d="M360.27,67.44a5.63,5.63,0,0,0,1.71-.68,3.45,3.45,0,0,0,.9-1.13s-.11,1.2-.65,1.57A4.17,4.17,0,0,1,360.27,67.44Z" style="fill:#fff;opacity:0.65"/><path d="M385.73,67.44a5.75,5.75,0,0,0,1.72-.68,3.35,3.35,0,0,0,.89-1.13s-.11,1.2-.65,1.57A4.16,4.16,0,0,1,385.73,67.44Z" style="fill:#fff;opacity:0.65"/><path d="M440,32.32a5.73,5.73,0,0,0,1.71-.68,3.45,3.45,0,0,0,.9-1.13s-.12,1.2-.66,1.57A4.12,4.12,0,0,1,440,32.32Z" style="fill:#fff;opacity:0.65"/><path d="M411.14,67.44a5.75,5.75,0,0,0,1.72-.68,3.35,3.35,0,0,0,.89-1.13s-.11,1.2-.65,1.57A4.16,4.16,0,0,1,411.14,67.44Z" style="fill:#fff;opacity:0.65"/><path d="M455.35,94.15a2.28,2.28,0,0,1-.67,1.63,1.81,1.81,0,0,1-.21.18,2.32,2.32,0,0,1-1.41.49h-1V91.86h1A2.3,2.3,0,0,1,455.35,94.15Z" style="fill:#36383d"/><path d="M453.06,96.89H451.6V91.42h1.46A2.73,2.73,0,0,1,455,96.09l-.26.23A2.74,2.74,0,0,1,453.06,96.89Zm-.57-.89h.57a1.82,1.82,0,0,0,1.13-.39.65.65,0,0,0,.17-.15,1.8,1.8,0,0,0,.55-1.31,1.84,1.84,0,0,0-1.85-1.84h-.57Z"/><path d="M279.71,91.86v4.59h-1a2.32,2.32,0,0,1-1.63-.67,2.38,2.38,0,0,1-.57-1,2.07,2.07,0,0,1-.1-.66,2.3,2.3,0,0,1,2.3-2.29Z" style="fill:#36383d"/><path d="M280.15,96.89H278.7a2.73,2.73,0,0,1-2.63-2,2.88,2.88,0,0,1-.11-.78,2.74,2.74,0,0,1,2.74-2.73h1.45Zm-1.45-4.58a1.86,1.86,0,0,0-1.78,2.37,1.78,1.78,0,0,0,.47.78,1.83,1.83,0,0,0,1.31.54h.57V92.31Z"/><polygon points="303.83 98.95 303.38 98.95 303.38 81.13 285.79 81.13 285.79 98.95 285.35 98.95 285.35 80.69 303.83 80.69 303.83 98.95" style="fill:#0c5fe5"/><path d="M312,81.13H279.71a.22.22,0,1,1,0-.44H312a.22.22,0,1,1,0,.44Z"/><path d="M285.91,41V52a16.84,16.84,0,0,0,.93-4.72c0-2.12-.47-4.2-.47-5.39a18.17,18.17,0,0,0-.46-3.14Z" style="fill:#fff;opacity:0.56"/><path d="M312.33,14.87h0a.44.44,0,0,1-.43-.46l.22-5h.4l.25,5A.44.44,0,0,1,312.33,14.87Z" style="opacity:0.55;fill:url(#fa54ac72-1f46-4059-9f66-1758050da56b)"/><path d="M337.73,14.87h0a.43.43,0,0,1-.43-.46l.22-5h.39l.25,5A.43.43,0,0,1,337.73,14.87Z" style="opacity:0.55;fill:url(#bdb2a5ed-a877-4132-b3b8-40b58f185cf6)"/><path d="M363.12,14.87h0a.44.44,0,0,1-.43-.46l.22-5h.4l.25,5A.44.44,0,0,1,363.12,14.87Z" style="opacity:0.55;fill:url(#f1b9b242-5e59-4bfd-9c4e-bc19b6c099b2)"/><path d="M388.52,14.87h0a.43.43,0,0,1-.43-.46l.22-5h.39l.25,5A.43.43,0,0,1,388.52,14.87Z" style="opacity:0.55;fill:url(#a760e2c0-9a56-42ab-a56d-42bb3d56807e)"/><path d="M413.91,14.87h0a.44.44,0,0,1-.43-.46l.22-5h.4l.25,5A.44.44,0,0,1,413.91,14.87Z" style="opacity:0.55;fill:url(#ee0d8cdb-e2d4-4959-a669-3ff0c5219804)"/><path d="M426.57,76.68h-9.38a2.78,2.78,0,0,1-2.78-2.78v-28a.22.22,0,1,1,.44,0v28a2.33,2.33,0,0,0,2.34,2.33h9.38a.22.22,0,0,1,.22.22A.22.22,0,0,1,426.57,76.68Z"/><path d="M446.63,98.9a.22.22,0,0,1-.22-.22V69.42a.22.22,0,0,1,.44,0V98.68A.22.22,0,0,1,446.63,98.9Z"/><path d="M396.4,79.33h16.05a71.14,71.14,0,0,0-7.95-.54C402.22,78.92,396.4,79.33,396.4,79.33Z" style="fill:#fff;opacity:0.65"/><path d="M414.26,96.67H338.91a.22.22,0,0,1-.22-.22.22.22,0,0,1,.22-.22h75.35a.21.21,0,0,1,.22.22A.22.22,0,0,1,414.26,96.67Z"/><path d="M389.84,94.78h22.61s-6-.32-9.7-.32S389.84,94.78,389.84,94.78Z" style="fill:#fff;opacity:0.65"/><rect x="416.73" y="54.82" width="11.46" height="0.96" style="fill:#0b6cfe"/><path d="M428.19,56H416.73a.22.22,0,0,1-.22-.23v-1a.22.22,0,0,1,.22-.22h11.46a.22.22,0,0,1,.22.22v1A.22.22,0,0,1,428.19,56ZM417,55.56h11V55H417Z"/><rect x="416.73" y="61.87" width="11.46" height="0.96" style="fill:#0b6cfe"/><path d="M428.19,63.05H416.73a.22.22,0,0,1-.22-.22v-1a.22.22,0,0,1,.22-.22h11.46a.22.22,0,0,1,.22.22v1A.22.22,0,0,1,428.19,63.05ZM417,62.61h11v-.52H417Z"/><rect x="373.43" y="83.03" width="3.27" height="6.17" rx="1.64" style="fill:#070707"/><path d="M375.19,90.16h-.25a2.39,2.39,0,0,1-2.38-2.38V84.39A2.38,2.38,0,0,1,374.94,82h.25a2.38,2.38,0,0,1,2.38,2.37v3.39A2.39,2.39,0,0,1,375.19,90.16Zm-.25-7.73a2,2,0,0,0-2,2v3.39a2,2,0,0,0,2,2h.25a2,2,0,0,0,2-2V84.39a2,2,0,0,0-2-2Z" style="fill:#0c5fe5"/><path d="M376.23,87.43a1.15,1.15,0,1,1-2.29,0,1.21,1.21,0,0,1,.16-.59,1.16,1.16,0,0,1,1-.55,1.14,1.14,0,0,1,1,.53A1.07,1.07,0,0,1,376.23,87.43Z" style="fill:#36383d"/><path d="M376.05,86.82a1.15,1.15,0,0,1-1.95,0,1.16,1.16,0,0,1,1-.55A1.14,1.14,0,0,1,376.05,86.82Z" style="fill:#fff;opacity:0.25"/><path d="M449.66,90.34a.47.47,0,0,1-.16,0,.43.43,0,0,1-.28-.39L449,84.4a.44.44,0,0,1,.22-.4.45.45,0,0,1,.46,0c.18.11.77.65,1.06,2.81a4,4,0,0,1-.77,3.39A.46.46,0,0,1,449.66,90.34Z"/><path d="M449.9,85.05a6.14,6.14,0,0,1,.45,2,14.21,14.21,0,0,1-.23,2.08Z" style="fill:#fff"/><path d="M279.57,80.59a.42.42,0,0,1-.29-.12,3.94,3.94,0,0,1-.89-3.36c.21-2.16.78-2.72.95-2.84a.43.43,0,0,1,.46,0,.43.43,0,0,1,.24.39l0,5.52a.45.45,0,0,1-.27.4A.58.58,0,0,1,279.57,80.59Z"/><path d="M279.17,75.31a6.37,6.37,0,0,0-.39,2,14.38,14.38,0,0,0,.3,2.07Z" style="fill:#fff"/><path d="M279.57,88.59a.46.46,0,0,1-.29-.11,4,4,0,0,1-.89-3.37c.21-2.16.78-2.72.95-2.84a.45.45,0,0,1,.7.37l0,5.51a.45.45,0,0,1-.27.4A.39.39,0,0,1,279.57,88.59Z"/><path d="M279.17,83.32a6.28,6.28,0,0,0-.39,2,14.38,14.38,0,0,0,.3,2.07Z" style="fill:#fff"/><path d="M444.8,34.61H279.71a.22.22,0,1,1,0-.44H444.8a.22.22,0,0,1,0,.44Z"/><path d="M386,48.42h23.68s-6.78,0-7.42.22a52.09,52.09,0,0,1-6.62.24c-1.44-.09-4.6-.11-5.8-.22S386,48.42,386,48.42Z" style="fill:#fff;opacity:0.65"/><rect x="416.73" y="55.78" width="1.02" height="6.08" style="fill:#0b6cfe"/><path d="M417.74,62.09h-1a.22.22,0,0,1-.22-.22V55.78a.22.22,0,0,1,.22-.22h1a.22.22,0,0,1,.23.22v6.09A.22.22,0,0,1,417.74,62.09Zm-.79-.44h.57V56H417Z"/><rect x="416.97" y="62.11" width="11.04" height="0.24" style="fill:#fff;opacity:0.65"/><rect x="416.97" y="55.06" width="11.04" height="0.24" style="fill:#fff;opacity:0.65"/><path d="M285.91,40.31V42.6h5.72s-5-.36-5.26-.44-.27-.3-.27-.64S286,41,286,40.87a1.07,1.07,0,0,0,0-.56,2.08,2.08,0,0,1-.12-.27Z" style="fill:#fff;opacity:0.56"/><rect x="311.72" y="43.57" width="0.44" height="1.95" style="fill:#0c5fe5;opacity:0.2"/><rect x="312.85" y="43.57" width="0.44" height="1.95" style="fill:#0c5fe5;opacity:0.2"/><rect x="337.19" y="43.57" width="0.44" height="1.95" style="fill:#0c5fe5;opacity:0.2"/><rect x="338.32" y="43.57" width="0.44" height="1.95" style="fill:#0c5fe5;opacity:0.2"/><rect x="362.64" y="43.57" width="0.44" height="1.95" style="fill:#0c5fe5;opacity:0.2"/><rect x="363.78" y="43.57" width="0.44" height="1.95" style="fill:#0c5fe5;opacity:0.2"/><rect x="388.07" y="43.57" width="0.44" height="1.95" style="fill:#0c5fe5;opacity:0.2"/><rect x="389.2" y="43.57" width="0.44" height="1.95" style="fill:#0c5fe5;opacity:0.2"/><rect x="413.56" y="43.57" width="0.44" height="1.95" style="fill:#0c5fe5;opacity:0.2"/><rect x="414.69" y="43.57" width="0.44" height="1.95" style="fill:#0c5fe5;opacity:0.2"/><path d="M309.12,94.11s-1.62-16.83,14.56-16.83c16,0,14.82,16.83,14.82,16.83s2.56-17.44-14.84-17.44C306.66,76.67,309.12,94.11,309.12,94.11Z" style="fill:#fff;opacity:0.15"/><path d="M414.72,94.25s-1.64-17,14.72-17S444,94.18,444,94.18s2.72-17.51-14.62-17.51S414.72,94.25,414.72,94.25Z" style="fill:#fff;opacity:0.15"/><path d="M310.88,83.4S313.59,77,323.24,77c11,0,13.93,7.29,13.93,7.29s-2.67-7.87-13.93-7.87C313.81,76.43,310.88,83.4,310.88,83.4Z" style="fill:#fff;opacity:0.56"/><path d="M416.47,83.4S419.18,77,428.83,77c11,0,14,7.39,14,7.39s-2.77-8-14-8C419.4,76.43,416.47,83.4,416.47,83.4Z" style="fill:#fff;opacity:0.56"/><path d="M341.1,51.65h19.06a.8.8,0,0,1,.8.8v0a0,0,0,0,1,0,0H340.3a0,0,0,0,1,0,0v0A.8.8,0,0,1,341.1,51.65Z" style="fill:#fff"/><path d="M392.06,51.65h19.06a.8.8,0,0,1,.8.8v0a0,0,0,0,1,0,0H391.26a0,0,0,0,1,0,0v0A.8.8,0,0,1,392.06,51.65Z" style="fill:#fff"/><path d="M314.8,9.43H423.52s-4.1.31-28.66,1.21S314.8,9.43,314.8,9.43Z" style="fill:#fff;opacity:0.65"/><rect x="337" y="99.28" width="79.22" height="1.02" style="fill:#36383d"/><path d="M416.67,100.74H336.56v-1.9h80.11Zm-79.23-.88h78.34v-.14H337.44Z"/><rect x="389.67" y="19.1" width="23.81" height="1.7" style="fill:url(#a17741ca-0bca-47b2-a21b-674ac70e993a)"/><path d="M411.75,31.21H391.43a2,2,0,0,1-2-2V20.8a.44.44,0,0,1,.44-.44h23.52a.44.44,0,0,1,.44.44v8.37A2,2,0,0,1,411.75,31.21Zm-21.48-10v7.93a1.16,1.16,0,0,0,1.16,1.16h20.32a1.16,1.16,0,0,0,1.15-1.16V21.24Z"/><path d="M413.35,19.55H389.83a.44.44,0,0,1-.44-.45V17.43a2,2,0,0,1,2-2h20.32a2.05,2.05,0,0,1,2,2V19.1A.45.45,0,0,1,413.35,19.55Zm-23.08-.89H412.9V17.43a1.16,1.16,0,0,0-1.15-1.16H391.43a1.16,1.16,0,0,0-1.16,1.16Z"/><rect x="364.18" y="19.1" width="23.81" height="1.7" style="fill:url(#fe6ecf09-e7ee-4243-b7ee-ced750447331)"/><path d="M386.26,31.21H365.94a2,2,0,0,1-2-2V20.8a.44.44,0,0,1,.44-.44h23.52a.44.44,0,0,1,.44.44v8.37A2,2,0,0,1,386.26,31.21Zm-21.47-10v7.93a1.16,1.16,0,0,0,1.15,1.16h20.32a1.16,1.16,0,0,0,1.16-1.16V21.24Z"/><path d="M387.86,19.55H364.34a.45.45,0,0,1-.44-.45V17.43a2.05,2.05,0,0,1,2-2h20.32a2,2,0,0,1,2,2V19.1A.45.45,0,0,1,387.86,19.55Zm-23.07-.89h22.63V17.43a1.16,1.16,0,0,0-1.16-1.16H365.94a1.16,1.16,0,0,0-1.15,1.16Z"/><rect x="338.69" y="19.1" width="23.81" height="1.7" style="fill:url(#b16aaece-e39a-4386-82be-1ddba48c6426)"/><path d="M360.77,31.21H340.46a2,2,0,0,1-2-2V20.8a.45.45,0,0,1,.45-.44h23.51a.45.45,0,0,1,.45.44v8.37A2,2,0,0,1,360.77,31.21Zm-21.47-10v7.93a1.16,1.16,0,0,0,1.16,1.16h20.31a1.16,1.16,0,0,0,1.16-1.16V21.24Z"/><path d="M362.37,19.55H338.86a.45.45,0,0,1-.45-.45V17.43a2.05,2.05,0,0,1,2-2h20.31a2.05,2.05,0,0,1,2.05,2V19.1A.45.45,0,0,1,362.37,19.55Zm-23.07-.89h22.63V17.43a1.16,1.16,0,0,0-1.16-1.16H340.46a1.16,1.16,0,0,0-1.16,1.16Z"/><path d="M362.45,55H338.93a.22.22,0,0,1-.22-.22.22.22,0,0,1,.22-.23h23.52a.22.22,0,0,1,.22.23A.22.22,0,0,1,362.45,55Z" style="fill:#fff;opacity:0.55"/><path d="M413.35,55H389.83a.22.22,0,0,1-.22-.22.22.22,0,0,1,.22-.23h23.52a.22.22,0,0,1,.22.23A.22.22,0,0,1,413.35,55Z" style="fill:#fff;opacity:0.55"/><path d="M413.35,20H389.83a.22.22,0,0,1,0-.44h23.52a.22.22,0,1,1,0,.44Z" style="fill:#fff;opacity:0.55"/><path d="M387.85,20H364.33a.22.22,0,0,1,0-.44h23.52a.22.22,0,1,1,0,.44Z" style="fill:#fff;opacity:0.55"/><path d="M362.36,20H338.84a.22.22,0,0,1,0-.44h23.52a.22.22,0,1,1,0,.44Z" style="fill:#fff;opacity:0.55"/><rect x="280.18" y="67.73" width="4.01" height="1.08" style="fill:url(#be231a42-8432-4302-bd0d-49435c4a2c0f)"/><rect x="280.18" y="79.72" width="4.01" height="1.08" style="fill:url(#a2b44c7c-e0fc-4633-b534-6c1b9c5a2796)"/><path d="M337.23,92.8a13.2,13.2,0,0,1-26.4,0,13.5,13.5,0,0,1,.2-2.31,13.2,13.2,0,0,1,25.75-1.11A12.89,12.89,0,0,1,337.23,92.8Z" style="fill:url(#be44dfab-c681-4aab-b05a-f2a13139ae43)"/><path d="M324,106.45a13.65,13.65,0,1,1,13.18-17.18,13.46,13.46,0,0,1,.46,3.53A13.66,13.66,0,0,1,324,106.45ZM324,80a12.72,12.72,0,0,0-12.56,10.53,12.93,12.93,0,0,0-.2,2.23,12.76,12.76,0,0,0,25.52,0,12.51,12.51,0,0,0-.44-3.3A12.76,12.76,0,0,0,324,80Z"/><circle cx="324.03" cy="92.8" r="8.09" style="fill:url(#fee97c16-4ac5-48e0-a3bf-f2f904c6297d)"/><path d="M324,101.34a8.54,8.54,0,1,1,8.54-8.54A8.55,8.55,0,0,1,324,101.34Zm0-16.19a7.65,7.65,0,1,0,7.65,7.65A7.66,7.66,0,0,0,324,85.15Z"/><circle cx="324.03" cy="92.8" r="6.4" style="fill:url(#e970c60d-e7b7-4644-9326-7d6ea62c99bc)"/><path d="M324,99.65a6.85,6.85,0,1,1,6.85-6.85A6.85,6.85,0,0,1,324,99.65Zm0-12.81a6,6,0,1,0,6,6A6,6,0,0,0,324,86.84Z"/><circle cx="324.03" cy="92.8" r="3.17" style="fill:#2d0509"/><path d="M324,96.41a3.61,3.61,0,1,1,3.61-3.61A3.61,3.61,0,0,1,324,96.41Zm0-6.33a2.73,2.73,0,1,0,2.72,2.72A2.73,2.73,0,0,0,324,90.08Z"/><circle cx="324.03" cy="92.8" r="1.08" style="fill:url(#aed52060-fdac-4af6-a7d0-69c36e695696)"/><path d="M324,94.19a1.39,1.39,0,1,1,1.39-1.39A1.39,1.39,0,0,1,324,94.19ZM324,92a.77.77,0,0,0-.77.76.77.77,0,0,0,1.54,0A.77.77,0,0,0,324,92Z"/><path d="M324,103.91A11.11,11.11,0,1,1,335.14,92.8,11.12,11.12,0,0,1,324,103.91Zm0-21.78A10.67,10.67,0,1,0,334.7,92.8,10.69,10.69,0,0,0,324,82.13Z" style="opacity:0.39"/><path d="M336.78,89.38a13.57,13.57,0,0,0-12.6-7.46A13.9,13.9,0,0,0,311,90.49a13.2,13.2,0,0,1,25.75-1.11Z" style="fill:#070707;opacity:0.63"/><path d="M442.59,92.8a13.2,13.2,0,1,1-26.4,0,13.5,13.5,0,0,1,.2-2.31,13.2,13.2,0,0,1,25.75-1.11A12.89,12.89,0,0,1,442.59,92.8Z" style="fill:url(#a01585f7-147d-4082-9d30-0da875b3bf21)"/><path d="M429.39,106.44a13.65,13.65,0,1,1,13.18-17.17A13.36,13.36,0,0,1,443,92.8,13.67,13.67,0,0,1,429.39,106.44Zm0-26.4a12.72,12.72,0,0,0-12.56,10.53,12.93,12.93,0,0,0-.2,2.23,12.76,12.76,0,1,0,25.52,0,12.51,12.51,0,0,0-.44-3.3A12.76,12.76,0,0,0,429.39,80Z"/><circle cx="429.39" cy="92.8" r="8.09" style="fill:url(#ab089829-90b9-4bfb-a066-0a5ed9066902)"/><path d="M429.39,101.33a8.54,8.54,0,1,1,8.54-8.53A8.55,8.55,0,0,1,429.39,101.33Zm0-16.18A7.65,7.65,0,1,0,437,92.8,7.66,7.66,0,0,0,429.39,85.15Z"/><circle cx="429.39" cy="92.8" r="6.4" style="fill:url(#a5e8d620-d967-489e-be40-f811a7fed2e1)"/><path d="M429.39,99.64a6.85,6.85,0,1,1,6.85-6.84A6.85,6.85,0,0,1,429.39,99.64Zm0-12.8a6,6,0,1,0,6,6A6,6,0,0,0,429.39,86.84Z"/><circle cx="429.39" cy="92.8" r="4.06" style="fill:url(#e33d37b4-d946-4be4-9664-1684377c5f24)"/><path d="M429.39,97.42A4.63,4.63,0,1,1,434,92.8,4.62,4.62,0,0,1,429.39,97.42Zm0-8.11a3.49,3.49,0,1,0,3.49,3.49A3.49,3.49,0,0,0,429.39,89.31Z"/><circle cx="429.39" cy="92.8" r="0.76" style="fill:#fff;opacity:0.25"/><path d="M429.39,103.91A11.11,11.11,0,1,1,440.5,92.8,11.12,11.12,0,0,1,429.39,103.91Zm0-21.78A10.67,10.67,0,1,0,440.06,92.8,10.68,10.68,0,0,0,429.39,82.13Z" style="opacity:0.39"/><path d="M442.14,89.38c-2.7-5.13-9.58-6-15.09-4.33-10.24,3.17-8.06,8.82-10.66,14.57-2.14-18.09,6.5-20,13-20A13.2,13.2,0,0,1,442.14,89.38Z" style="fill:#070707;opacity:0.63"/><path d="M280.18,58.16V86.83s.43-8.41.77-12.2.4-6.07,0-7.43-.74-2.47-.25-3.72.91-1.67.53-2.86A16.56,16.56,0,0,0,280.18,58.16Z" style="fill:#fff;opacity:0.56"/><path d="M350.6,79.72h35.13s-9.67-.25-10.64-1.52-5.31-1.45-6.41-.77-6.06,1.9-7.11.95-3.51-.33-4.44,0-3.82,1.4-4.07,1a1,1,0,0,0-1.28-.31A10,10,0,0,1,350.6,79.72Z" style="fill:#fff;opacity:0.12"/><path d="M390.47,42.6h21.44s-5.37-.8-7.35-.4-3.68-.45-4.93-.4-3.51.54-3.93.6a7.78,7.78,0,0,1-2.6-.09c-.37-.22-1.05.06-1.14.09S390.47,42.6,390.47,42.6Z" style="fill:#fff;opacity:0.65"/><polyline points="442.96 46.93 441.82 50.22 440.97 50.22 441.28 46.93" style="fill:#0b6cfe"/><path d="M441.82,50.44H441a.2.2,0,0,1-.16-.07.18.18,0,0,1-.06-.17l.31-3.29a.2.2,0,0,1,.24-.2.22.22,0,0,1,.2.24l-.29,3h.45l1.09-3.15a.22.22,0,0,1,.28-.13.22.22,0,0,1,.14.28L442,50.3A.22.22,0,0,1,441.82,50.44Z"/><rect x="441.07" y="50.22" width="0.66" height="4.31" style="fill:#0b6cfe"/><path d="M441.72,54.75h-.65a.22.22,0,0,1-.23-.22V50.22a.22.22,0,0,1,.23-.22h.65a.22.22,0,0,1,.23.22v4.31A.22.22,0,0,1,441.72,54.75Zm-.43-.44h.21V50.44h-.21Z"/><path d="M373.51,33.24h42.71s-12-.54-13.71-.72-5.61.6-7.35.36-4.57-.67-5.83-.38a24.82,24.82,0,0,1-6.31.32C381.07,32.61,373.51,33.24,373.51,33.24Z" style="fill:#fff;opacity:0.65"/><path d="M443.42,59.39v3.92a1.36,1.36,0,0,1-1.35,1.35h-4.59l4.15-.63A1.33,1.33,0,0,0,442.75,63Z" style="fill:#fff"/><path d="M416.15,68.58v2.71a1,1,0,0,0,1,1h.75l-.9-.41a.93.93,0,0,1-.55-.77Z" style="fill:#fff"/><circle cx="429.4" cy="92.8" r="1.73" style="fill:url(#b2cb5c76-56f0-42ec-a8d3-5bb2935ba6d7)"/><path d="M429.4,95a2.17,2.17,0,1,1,2.17-2.17A2.17,2.17,0,0,1,429.4,95Zm0-3.45a1.28,1.28,0,1,0,1.28,1.28A1.28,1.28,0,0,0,429.4,91.52Z"/><circle cx="412.61" cy="47.41" r="1.02" style="fill:#0c5fe5"/><circle cx="412.45" cy="46.93" r="0.86" style="fill:url(#e9091411-b261-4e5d-9d9f-cf0cfa5199dc)"/><path d="M412.45,48a1.09,1.09,0,1,1,1.08-1.08A1.08,1.08,0,0,1,412.45,48Zm0-1.72a.64.64,0,0,0-.64.64.64.64,0,1,0,1.28,0A.64.64,0,0,0,412.45,46.29Z"/><path d="M424.07,9.43h9.55a9.72,9.72,0,0,1,4.84,1.45,7.58,7.58,0,0,1,2.42,2.21s-2.85-2.26-5-2.68-5.11-.92-5.82-.72a7.7,7.7,0,0,1-2.63.2C426.8,9.77,424.07,9.43,424.07,9.43Z" style="fill:#fff;opacity:0.65"/><path d="M358.66,14.5h50.65a60.14,60.14,0,0,0-6.68-.48c-2,.08-8.3,0-9.59,0-7,.12-17.57-.12-19.86,0S358.66,14.5,358.66,14.5Z" style="fill:#fff"/><path d="M291.39,34.39H380.7s-21,5.43-30,3.57-18,1.61-23.19,2.08-22,1.91-22.75,0S291.39,34.39,291.39,34.39Z" style="fill:#fff;opacity:0.15"/><circle cx="426.55" cy="92.65" r="0.44" style="fill:#fff;opacity:0.15"/><circle cx="427.26" cy="94.53" r="0.44" style="fill:#fff;opacity:0.15"/><circle cx="429.39" cy="95.59" r="0.44" style="fill:#fff;opacity:0.15"/><circle cx="431.71" cy="94.46" r="0.44" style="fill:#fff;opacity:0.15"/><circle cx="432.23" cy="92.55" r="0.44" style="fill:#fff;opacity:0.15"/><path d="M279,91.86a3.16,3.16,0,0,1-2.47,3,2.07,2.07,0,0,1-.1-.66,2.3,2.3,0,0,1,2.3-2.29Z" style="fill:#fff;opacity:0.56"/><path d="M455.35,94.15a2.28,2.28,0,0,1-.67,1.63,1.81,1.81,0,0,1-.21.18A6.05,6.05,0,0,1,453,92v-.17h0A2.3,2.3,0,0,1,455.35,94.15Z" style="fill:#fff;opacity:0.45"/><path d="M321.73,102.08h0a9.89,9.89,0,0,1-4.61-2.64,9.62,9.62,0,0,1-2.34-4.74.22.22,0,0,1,.18-.25.22.22,0,0,1,.26.18,9.18,9.18,0,0,0,2.21,4.49,9.44,9.44,0,0,0,4.38,2.52.23.23,0,0,1,.18.26A.22.22,0,0,1,321.73,102.08Z" style="opacity:0.5700000000000001"/><path d="M318.17,103.42a.2.2,0,0,1-.11,0,13.82,13.82,0,0,1-2.27-1.63,13,13,0,0,1-2-2.44.21.21,0,0,1,.07-.3.21.21,0,0,1,.3.06,12.71,12.71,0,0,0,1.94,2.35,14.59,14.59,0,0,0,2.19,1.57.22.22,0,0,1,.09.3A.24.24,0,0,1,318.17,103.42Z" style="opacity:0.33"/><path d="M324,100.11a7.31,7.31,0,1,1,7.31-7.31A7.32,7.32,0,0,1,324,100.11Zm0-14.18a6.87,6.87,0,1,0,6.87,6.87A6.88,6.88,0,0,0,324,85.93Z" style="fill:#2d0509"/><path d="M429.39,100.11a7.31,7.31,0,1,1,7.31-7.31A7.32,7.32,0,0,1,429.39,100.11Zm0-14.18a6.87,6.87,0,1,0,6.87,6.87A6.88,6.88,0,0,0,429.39,85.93Z" style="fill:#2d0509"/><path d="M331.43,94.89c-1.18,2.72-3.14,5.5-7.45,5.5s-6-2.58-7.33-5.26c2.77-1.22,3.38-1.78,7.53-1.78S328.69,93.75,331.43,94.89Z" style="opacity:0.63;fill:url(#b76b28d7-420c-4d97-ad9c-51db8f43888a)"/><path d="M334.59,95c-1.69,3.88-4.49,7.84-10.64,7.84s-8.62-3.68-10.45-7.5c3.95-1.73,4.81-2.54,10.74-2.54C330,92.8,330.68,93.37,334.59,95Z" style="opacity:0.46;fill:url(#a9868bc6-894d-4b88-9411-181304fe99a8)"/><path d="M440.21,95c-1.69,3.88-4.48,7.84-10.64,7.84s-8.61-3.68-10.45-7.5c3.95-1.73,4.81-2.54,10.75-2.54C435.58,92.8,436.3,93.37,440.21,95Z" style="opacity:0.46;fill:url(#b8a35333-d31a-455c-9788-356b30294a97)"/><path d="M299.79,43.57h131s-42.3,2-64.94,2C356,45.52,299.79,43.57,299.79,43.57Z" style="fill:#fff;opacity:0.56"/><polygon points="442.13 43.13 445.38 43.13 445.52 45.94 442.36 45.94 442.13 43.13" style="fill:url(#e47250da-e5b3-4d20-a7c5-6176f329a860)"/><path d="M446,46.38h-4l-.3-3.69h4.15Zm-3.21-.89h2.28L445,43.58h-2.35Z"/><path d="M442.88,46.09h-3.19a.54.54,0,0,1-.54-.53V43.22a.54.54,0,0,1,.54-.54h3.08a.55.55,0,0,1,.54.51l.1,2.34A.53.53,0,0,1,442.88,46.09Z" style="fill:#0097d3"/><path d="M442.88,46.59h-3.19a1,1,0,0,1-1-1V43.22a1,1,0,0,1,1-1h3.08a1,1,0,0,1,1,1l.11,2.34a1.06,1.06,0,0,1-.28.76A1.07,1.07,0,0,1,442.88,46.59Zm-3.19-3.41,0,2.38,3.23,0s0,0,0,0l-.09-2.37Z"/><path d="M442.22,44.37a.36.36,0,0,1-.36.38h-.23a.36.36,0,0,0,.06-.2.44.44,0,0,0-.44-.44h-.31a.44.44,0,0,0-.43.44.35.35,0,0,0,.05.2h-.3a.35.35,0,0,1-.36-.35V44a.36.36,0,0,1,.36-.35h1.56a.34.34,0,0,1,.35.32Z" style="fill:#fff;opacity:0.15"/><circle cx="441.51" cy="44.39" r="0.81" style="fill:#0c5fe5"/><path d="M439.69,45.34V43.27H442s-1.26,0-1.61.67S439.69,45.34,439.69,45.34Z" style="fill:#fff;opacity:0.39"/><rect x="313.27" y="43.57" width="1.95" height="1.95" style="opacity:0.26;fill:url(#e0daf363-1c74-4e4c-b99f-468457d3c6e2)"/><rect x="338.54" y="43.57" width="1.95" height="1.95" style="opacity:0.26;fill:url(#a3a147bb-82d7-4bea-975e-f7fb23635301)"/><rect x="363.98" y="43.57" width="1.95" height="1.95" style="opacity:0.26;fill:url(#bca8e7c1-2b5e-4d43-9886-05c84c7729f4)"/><rect x="335.46" y="43.57" width="1.95" height="1.95" transform="translate(672.87 89.09) rotate(-180)" style="opacity:0.26;fill:url(#e7c7b34b-d840-4052-94a6-362b6a202cc2)"/><rect x="309.99" y="43.57" width="1.95" height="1.95" transform="translate(621.93 89.09) rotate(-180)" style="opacity:0.26;fill:url(#e132bd0f-339f-42c3-83ec-ca62b06626af)"/><rect x="360.93" y="43.57" width="1.95" height="1.95" transform="translate(723.81 89.09) rotate(-180)" style="opacity:0.26;fill:url(#b2429559-d0da-44dd-8c52-d6d6f913ad38)"/><rect x="389.35" y="43.57" width="1.95" height="1.95" style="opacity:0.26;fill:url(#b012b811-ae1b-490a-ba89-ebf831163916)"/><rect x="386.3" y="43.57" width="1.95" height="1.95" transform="translate(774.56 89.09) rotate(-180)" style="opacity:0.26;fill:url(#a863af7f-717e-4bfc-a74c-fe8ca536716c)"/><rect x="414.91" y="43.57" width="1.95" height="1.95" style="opacity:0.26;fill:url(#b2eb7fdf-68e8-4fae-a120-3809ae943f2e)"/><rect x="411.85" y="43.57" width="1.95" height="1.95" transform="translate(825.65 89.09) rotate(-180)" style="opacity:0.26;fill:url(#b8202c02-5753-4d11-8eb5-13184710a065)"/><rect x="436.68" y="43.57" width="1.95" height="1.95" transform="translate(875.31 89.09) rotate(-180)" style="opacity:0.26;fill:url(#f4122860-3a60-47cb-848c-a809cbfe3203)"/><path d="M366.46,63.31a1,1,0,0,0,.22-.14c.85-.72,7-5.83,10.68-6.2a26.7,26.7,0,0,0,9.14-2.88,2,2,0,0,0,.12-1.06,1,1,0,0,0-1-1H367.16a1.28,1.28,0,0,0-1.28,1.28V63.59Z" style="fill:#7171e2;opacity:0.30000000000000004"/><path d="M365.88,27.51v.66a1,1,0,0,0,1,1h18.68a1,1,0,0,0,1-1V23.35a1,1,0,0,0-.94-1c-1.81-.17-5.81-.35-8.19,1-3.14,1.75-2.13,3.67-4,3.65s-3.48-1.13-5.09-.71A6.62,6.62,0,0,0,365.88,27.51Z" style="fill:#7171e2;opacity:0.2"/><path d="M345.28,57.23H360a1,1,0,0,1,1,1v4.4a1,1,0,0,1-1,1c-2.29,0-8-.22-10.64-1.73-3.4-1.93-2.55-2.27-4.24-2.69H345A1,1,0,0,1,345.28,57.23Z" style="fill:#7171e2;opacity:0.30000000000000004"/><rect x="416.68" y="7.03" width="2.76" height="1.44" style="opacity:0.55;fill:url(#edc07472-f8c1-42b8-9513-d13fbfbe2f50)"/><path d="M341.47,71.82H342v3.75h1.8V76h-2.34Z" style="fill:#f5cd7f"/><path d="M342,71.82v3.75h1.8V76h-2.34V71.82H342m.05,0h-.63v4.29h2.42v-.54h-1.79V71.78Z"/><path d="M345.9,73.2a1.42,1.42,0,0,1-1.41,1.59,1.38,1.38,0,0,1-1.36-1.53,1.43,1.43,0,0,1,1.4-1.59A1.38,1.38,0,0,1,345.9,73.2Zm-2.35,0c0,.64.35,1.22,1,1.22s1-.57,1-1.26-.31-1.23-1-1.23S343.55,72.58,343.55,73.25Z" style="fill:#f5cd7f"/><path d="M344.53,71.67a1.38,1.38,0,0,1,1.37,1.53,1.42,1.42,0,0,1-1.41,1.59,1.38,1.38,0,0,1-1.36-1.53,1.43,1.43,0,0,1,1.4-1.59m0,2.8c.62,0,1-.57,1-1.25s-.31-1.24-1-1.24-1,.6-1,1.27.35,1.22,1,1.22m0-2.85a1.49,1.49,0,0,0-1.45,1.64,1.44,1.44,0,0,0,1.41,1.58,1.47,1.47,0,0,0,1.45-1.64,1.42,1.42,0,0,0-1.41-1.58Zm0,2.81c-.63,0-.92-.61-.92-1.18s.29-1.22.93-1.22.92.61.92,1.19-.29,1.21-.93,1.21Z"/><path d="M346.4,74.74v-3h.43l1,1.54a7,7,0,0,1,.54,1h0c0-.41,0-.78,0-1.25V71.71h.37v3h-.4l-1-1.53a10.39,10.39,0,0,1-.56-1h0c0,.38,0,.75,0,1.25v1.29Z" style="fill:#f5cd7f"/><path d="M348.68,71.72v3h-.4l-1-1.53a10.39,10.39,0,0,1-.56-1h0c0,.38,0,.75,0,1.25v1.29h-.37v-3h.43l1,1.53a7,7,0,0,1,.54,1h0c0-.41,0-.78,0-1.25V71.72h.37m0,0h-.46V73c0,.37,0,.7,0,1a7.46,7.46,0,0,0-.45-.8l-1-1.53v0h-.5v3.12h.46V73.45c0-.43,0-.75,0-1.07.12.25.28.52.48.85l1,1.54,0,0h.46V71.67Z"/><path d="M349.36,71.76a5,5,0,0,1,.83-.07,1.74,1.74,0,0,1,1.23.38,1.4,1.4,0,0,1,.42,1.09,1.6,1.6,0,0,1-.43,1.17,1.83,1.83,0,0,1-1.34.44,4.87,4.87,0,0,1-.71,0Zm.39,2.67a2.3,2.3,0,0,0,.4,0,1.16,1.16,0,0,0,1.29-1.28A1.09,1.09,0,0,0,350.21,72a2.52,2.52,0,0,0-.46,0Z" style="fill:#f5cd7f"/><path d="M350.19,71.69a1.74,1.74,0,0,1,1.23.38,1.4,1.4,0,0,1,.42,1.09,1.6,1.6,0,0,1-.43,1.17,1.83,1.83,0,0,1-1.34.44,4.87,4.87,0,0,1-.71,0v-3a5,5,0,0,1,.83-.07m0,2.76a1.16,1.16,0,0,0,1.29-1.28A1.09,1.09,0,0,0,350.21,72a2.52,2.52,0,0,0-.46,0v2.39a2.3,2.3,0,0,0,.4,0m0-2.8a5.93,5.93,0,0,0-.84.06h0v3h0c.2,0,.44,0,.71,0a1.87,1.87,0,0,0,1.37-.45,1.63,1.63,0,0,0,.45-1.2,1.44,1.44,0,0,0-.44-1.12,1.78,1.78,0,0,0-1.26-.39Zm-.39.43a1.94,1.94,0,0,1,.41,0,1.25,1.25,0,0,1,.9.3,1.13,1.13,0,0,1,.28.82,1.12,1.12,0,0,1-1.24,1.24,2,2,0,0,1-.35,0V72.08Z"/><path d="M354.94,73.2a1.41,1.41,0,0,1-1.41,1.59,1.39,1.39,0,0,1-1.36-1.53,1.44,1.44,0,0,1,1.41-1.59A1.37,1.37,0,0,1,354.94,73.2Zm-2.35,0c0,.64.35,1.22,1,1.22s1-.57,1-1.26-.32-1.23-1-1.23S352.59,72.58,352.59,73.25Z" style="fill:#f5cd7f"/><path d="M353.58,71.67a1.37,1.37,0,0,1,1.36,1.53,1.41,1.41,0,0,1-1.41,1.59,1.39,1.39,0,0,1-1.36-1.53,1.44,1.44,0,0,1,1.41-1.59m0,2.8c.62,0,1-.57,1-1.25s-.32-1.24-1-1.24-1,.6-1,1.27.35,1.22,1,1.22m0-2.85a1.49,1.49,0,0,0-1.45,1.64,1.44,1.44,0,0,0,1.4,1.58A1.46,1.46,0,0,0,355,73.2a1.41,1.41,0,0,0-1.4-1.58Zm0,2.81c-.64,0-.92-.61-.92-1.18s.28-1.22.92-1.22.92.61.92,1.19-.28,1.21-.92,1.21Z"/><path d="M355.45,74.74v-3h.43l1,1.54a8.21,8.21,0,0,1,.54,1h0a12.31,12.31,0,0,1,0-1.25V71.71h.37v3h-.39l-1-1.53a8.77,8.77,0,0,1-.57-1h0c0,.38,0,.75,0,1.25v1.29Z" style="fill:#f5cd7f"/><path d="M357.72,71.72v3h-.39l-1-1.53a8.77,8.77,0,0,1-.57-1h0c0,.38,0,.75,0,1.25v1.29h-.37v-3h.43l1,1.53a8.21,8.21,0,0,1,.54,1h0a12.31,12.31,0,0,1,0-1.25V71.72h.37m0,0h-.46V73c0,.37,0,.7,0,1a8.5,8.5,0,0,0-.46-.8l-1-1.53v0h-.49v3.12h.45V73.45c0-.43,0-.75,0-1.07a8.38,8.38,0,0,0,.49.85l1,1.54v0h.47V71.67Z"/><path d="M360.7,72.05h-.92v-.34H362v.34h-.92v2.69h-.4Z" style="fill:#f5cd7f"/><path d="M362,71.72v.33h-.92v2.69h-.4V72.05h-.92v-.33H362m.05,0h-2.33v.42h.92v2.7h.48v-2.7h.93v-.42Z"/><path d="M362.36,71.76a3.36,3.36,0,0,1,.75-.07,1.25,1.25,0,0,1,.88.25.75.75,0,0,1,.23.57.8.8,0,0,1-.57.78h0a.75.75,0,0,1,.45.61,5.19,5.19,0,0,0,.23.83h-.4a3.31,3.31,0,0,1-.2-.72c-.09-.42-.26-.58-.61-.59h-.37v1.31h-.39Zm.39,1.37h.4c.42,0,.68-.22.68-.57s-.28-.56-.69-.57a1.46,1.46,0,0,0-.39,0Z" style="fill:#f5cd7f"/><path d="M363.11,71.69a1.25,1.25,0,0,1,.88.25.75.75,0,0,1,.23.57.8.8,0,0,1-.57.78h0a.75.75,0,0,1,.45.61,5.19,5.19,0,0,0,.23.83h-.4a3.31,3.31,0,0,1-.2-.72c-.09-.42-.26-.58-.61-.59h-.37v1.31h-.39v-3a4.07,4.07,0,0,1,.75-.07m-.36,1.44h.4c.42,0,.68-.23.68-.57s-.28-.56-.69-.57a1.46,1.46,0,0,0-.39,0v1.1m.36-1.48a4.18,4.18,0,0,0-.76.06h0v3.07h.48V73.47h.32c.33,0,.48.16.56.56a3.49,3.49,0,0,0,.21.73v0h.51l0-.07a4.59,4.59,0,0,1-.23-.82.82.82,0,0,0-.39-.6.84.84,0,0,0,.52-.79.76.76,0,0,0-.26-.6,1.24,1.24,0,0,0-.9-.26Zm-.31.41.34,0c.29,0,.65.09.65.52s-.25.53-.64.53h-.35v-1Z"/><path d="M365.29,73.79l-.32.95h-.4l1-3h.47l1,3h-.41l-.33-.95Zm1-.31-.29-.87a4.21,4.21,0,0,1-.16-.55h0l-.15.55-.3.87Z" style="fill:#f5cd7f"/><path d="M366.07,71.72l1,3h-.41l-.33-.95h-1.07l-.32.95h-.4l1-3h.47m-.7,1.76h.91l-.29-.87a4.21,4.21,0,0,1-.16-.55h0l-.15.55-.3.87m.73-1.81h-.53v0l-1,3,0,.06h.5v0l.3-.93h1l.31.93v0h.52l0-.06-1-3v0Zm-.67,1.77.28-.82a3.26,3.26,0,0,0,.11-.4c0,.13.07.26.12.41l.28.81Z"/><path d="M367.55,74.74v-3H368l1,1.54a8.21,8.21,0,0,1,.54,1h0a12.31,12.31,0,0,1-.05-1.25V71.71h.37v3h-.39l-1-1.53a8.77,8.77,0,0,1-.57-1h0c0,.38,0,.75,0,1.25v1.29Z" style="fill:#f5cd7f"/><path d="M369.82,71.72v3h-.39l-1-1.53a8.77,8.77,0,0,1-.57-1h0c0,.38,0,.75,0,1.25v1.29h-.37v-3H368l1,1.53a8.21,8.21,0,0,1,.54,1h0a12.31,12.31,0,0,1-.05-1.25V71.72h.37m.05,0h-.46V73c0,.37,0,.7,0,1-.13-.25-.28-.52-.46-.8l-1-1.53v0h-.49v3.12H368V73.45c0-.43,0-.75,0-1.07a8.38,8.38,0,0,0,.49.85l1,1.54v0h.47V71.67Z"/><path d="M370.45,74.27a1.48,1.48,0,0,0,.7.19c.4,0,.64-.21.64-.51s-.17-.45-.57-.6-.8-.44-.8-.86a.87.87,0,0,1,1-.82,1.41,1.41,0,0,1,.66.14l-.1.32a1.27,1.27,0,0,0-.58-.14c-.41,0-.57.25-.57.45s.19.42.6.59.78.44.78.89-.35.87-1.06.87a1.57,1.57,0,0,1-.78-.2Z" style="fill:#f5cd7f"/><path d="M371.4,71.67a1.41,1.41,0,0,1,.66.14l-.1.32a1.27,1.27,0,0,0-.58-.14c-.41,0-.57.25-.57.45s.19.42.6.59.78.44.78.89-.35.87-1.06.87a1.57,1.57,0,0,1-.78-.2l.1-.32a1.48,1.48,0,0,0,.7.19c.4,0,.64-.21.64-.51s-.17-.45-.57-.6-.8-.44-.8-.86a.87.87,0,0,1,1-.82m0,0a.92.92,0,0,0-1,.87c0,.41.27.7.83.9.4.15.54.3.54.56s-.22.47-.59.47a1.3,1.3,0,0,1-.67-.19l-.05,0,0,0-.1.33v0l0,0a1.58,1.58,0,0,0,.8.2c.81,0,1.1-.49,1.1-.91s-.24-.72-.8-.93-.57-.31-.57-.55.16-.41.52-.41a1.23,1.23,0,0,1,.56.14l0,0,0,0,.11-.32v0h0a1.36,1.36,0,0,0-.69-.16Z"/><path d="M372.72,71.75a4.72,4.72,0,0,1,.75-.06,1.25,1.25,0,0,1,.85.25.82.82,0,0,1,.26.64.88.88,0,0,1-.23.64,1.25,1.25,0,0,1-.92.34,1.51,1.51,0,0,1-.32,0v1.21h-.39Zm.39,1.46a1.55,1.55,0,0,0,.33,0c.47,0,.75-.23.75-.64s-.28-.6-.71-.6a2.45,2.45,0,0,0-.37,0Z" style="fill:#f5cd7f"/><path d="M373.47,71.69a1.25,1.25,0,0,1,.85.25.82.82,0,0,1,.26.64.88.88,0,0,1-.23.64,1.25,1.25,0,0,1-.92.34,1.51,1.51,0,0,1-.32,0v1.21h-.39v-3a4.72,4.72,0,0,1,.75-.06m0,1.55c.47,0,.75-.23.75-.64s-.28-.6-.71-.6a2.45,2.45,0,0,0-.37,0v1.18a1.55,1.55,0,0,0,.33,0m0-1.59a4.59,4.59,0,0,0-.76.06h0v3.08h.48V73.58a1.18,1.18,0,0,0,.27,0,1.26,1.26,0,0,0,.95-.35.88.88,0,0,0,.25-.67.87.87,0,0,0-.28-.67,1.3,1.3,0,0,0-.88-.26Zm-.31.42a1.42,1.42,0,0,1,.32,0c.25,0,.67.07.67.55s-.26.6-.71.6l-.28,0V72.07Z"/><path d="M377.7,73.2a1.42,1.42,0,0,1-1.41,1.59,1.38,1.38,0,0,1-1.36-1.53,1.44,1.44,0,0,1,1.41-1.59A1.38,1.38,0,0,1,377.7,73.2Zm-2.35,0c0,.64.35,1.22,1,1.22s1-.57,1-1.26S377,72,376.32,72,375.35,72.58,375.35,73.25Z" style="fill:#f5cd7f"/><path d="M376.34,71.67a1.38,1.38,0,0,1,1.36,1.53,1.42,1.42,0,0,1-1.41,1.59,1.38,1.38,0,0,1-1.36-1.53,1.44,1.44,0,0,1,1.41-1.59m0,2.8c.62,0,1-.57,1-1.25S377,72,376.32,72s-1,.6-1,1.27.35,1.22,1,1.22m0-2.85a1.48,1.48,0,0,0-1.45,1.64,1.44,1.44,0,0,0,1.4,1.58,1.47,1.47,0,0,0,1.45-1.64,1.41,1.41,0,0,0-1.4-1.58Zm0,2.81c-.63,0-.92-.61-.92-1.18s.29-1.22.93-1.22.92.61.92,1.19-.29,1.21-.93,1.21Z"/><path d="M378.21,71.76a3.36,3.36,0,0,1,.75-.07,1.22,1.22,0,0,1,.87.25.72.72,0,0,1,.24.57.8.8,0,0,1-.57.78h0a.79.79,0,0,1,.45.61,4.27,4.27,0,0,0,.23.83h-.41a5.27,5.27,0,0,1-.2-.72c-.09-.42-.25-.58-.6-.59h-.37v1.31h-.39Zm.39,1.37h.4c.42,0,.68-.22.68-.57S379.4,72,379,72a1.43,1.43,0,0,0-.38,0Z" style="fill:#f5cd7f"/><path d="M379,71.69a1.22,1.22,0,0,1,.87.25.72.72,0,0,1,.24.57.8.8,0,0,1-.57.78h0a.79.79,0,0,1,.45.61,4.27,4.27,0,0,0,.23.83h-.41a5.27,5.27,0,0,1-.2-.72c-.09-.42-.25-.58-.6-.59h-.37v1.31h-.39v-3a4.07,4.07,0,0,1,.75-.07m-.36,1.44h.4c.42,0,.68-.23.68-.57S379.4,72,379,72a1.43,1.43,0,0,0-.38,0v1.1m.36-1.48a4.1,4.1,0,0,0-.76.06h0v3.07h.48V73.47H379c.33,0,.47.16.56.56a3.28,3.28,0,0,0,.21.73v0h.5l0-.07a4.59,4.59,0,0,1-.23-.82.82.82,0,0,0-.39-.6.85.85,0,0,0,.52-.79.76.76,0,0,0-.26-.6,1.24,1.24,0,0,0-.9-.26Zm-.32.41.34,0c.3,0,.66.09.66.52s-.25.53-.64.53h-.36v-1Z"/><path d="M382.1,72.21h-1.27v-.45h3.08v.45h-1.27v3.71h-.54Z" style="fill:#f5cd7f"/><path d="M383.91,71.76v.45h-1.27v3.71h-.54V72.21h-1.27v-.45h3.08m0-.05h-3.17v.55h1.26V76h.64v-3.7H384v-.55Z"/><rect x="345.56" y="75.57" width="34.74" height="0.46" style="fill:#f5cd7f"/><path d="M380.3,75.57V76H345.56v-.46H380.3m.05,0H345.52v.54h34.83v-.54Z"/></svg>