<svg width="830" height="170" viewBox="0 0 830 170" fill="none" xmlns="http://www.w3.org/2000/svg">
<path fill-rule="evenodd" clip-rule="evenodd" d="M0.618164 3.00077L38.4182 3.00077L38.4182 167.001H0.618164L0.618164 3.00077ZM60.5744 3.00077L87.4356 3.00077L118.974 77.098L118.974 3.00077L150.574 3.00077L150.574 167.001H124.694L93.1744 87.2515L93.1744 167.001L60.5744 167.001L60.5744 3.00077ZM92.1744 82.0008L125.374 166.001H149.574L149.574 4.00077L119.974 4.00077L119.974 82.0008L86.7744 4.00077L61.5744 4.00077L61.5744 166.001L92.1744 166.001L92.1744 82.0008ZM181.347 156.877L181.342 156.871C173.644 148.349 169.621 135 169.084 117.031L169.058 116.144L201.669 111.241L201.684 112.388C201.817 122.614 203.015 129.816 205.17 134.137C206.303 136.209 207.673 137.712 209.262 138.702C210.852 139.691 212.714 140.201 214.884 140.201C217.646 140.201 219.569 139.309 220.839 137.644C222.148 135.928 222.884 133.235 222.884 129.401C222.884 123.295 221.457 118.091 218.644 113.744L218.639 113.735L218.633 113.726C215.909 109.315 211.527 104.527 205.437 99.3635L205.427 99.3548L191.438 87.1642C191.436 87.1626 191.434 87.1611 191.432 87.1595C184.433 81.2359 178.956 74.9545 175.023 68.3101L175.017 68.2998L175.011 68.2894C171.18 61.4478 169.284 53.4066 169.284 44.2008C169.284 30.3964 173.351 19.6322 181.608 12.0636L181.614 12.0581C189.98 4.5155 201.377 0.800781 215.684 0.800781C231.187 0.800781 242.009 5.32296 247.734 14.6739C253.445 23.7858 256.479 34.8324 256.883 47.7696L256.912 48.6815L224.119 52.7274L224.084 51.6325C223.818 43.2432 223.019 37.3844 221.746 33.9481L221.738 33.9276L221.732 33.9068C221.187 32.2112 220.321 31.0125 219.17 30.2266C218.011 29.4355 216.474 29.0008 214.484 29.0008C211.773 29.0008 209.683 30.1484 208.126 32.5401C206.636 34.9013 205.884 37.5786 205.884 40.6008C205.884 45.915 207.048 50.313 209.318 53.8495C211.784 57.4809 215.712 61.6801 221.144 66.4493L221.145 66.4503L234.531 78.2388C234.534 78.2409 234.536 78.2429 234.539 78.2449C242.606 85.103 248.883 92.3861 253.349 100.1C257.852 107.878 260.084 117.057 260.084 127.601C260.084 135.364 258.244 142.468 254.554 148.893C250.994 155.192 245.926 160.187 239.374 163.872C232.804 167.568 225.23 169.401 216.684 169.401C201.051 169.401 189.207 165.288 181.353 156.884L181.347 156.877ZM233.884 79.0008L220.484 67.2008C215.017 62.4008 211.017 58.1341 208.484 54.4008C206.084 50.6674 204.884 46.0675 204.884 40.6008C204.884 37.4008 205.684 34.5341 207.284 32.0008C209.017 29.3341 211.417 28.0008 214.484 28.0008C218.75 28.0008 221.484 29.8674 222.684 33.6008C223.963 37.0558 224.752 42.7214 225.049 50.5975C225.061 50.928 225.073 51.2625 225.084 51.6008L255.884 47.8008C255.484 35.0008 252.484 24.1341 246.884 15.2008C241.417 6.26745 231.017 1.80078 215.684 1.80078C201.55 1.80078 190.417 5.46745 182.284 12.8008C174.284 20.1341 170.284 30.6008 170.284 44.2008C170.284 53.2674 172.15 61.1341 175.884 67.8008C179.75 74.3341 185.15 80.5341 192.084 86.4008L206.084 98.6008C212.217 103.801 216.684 108.667 219.484 113.201C222.417 117.734 223.884 123.134 223.884 129.401C223.884 137.267 220.884 141.201 214.884 141.201C210.217 141.201 206.684 139.001 204.284 134.601C202.092 130.217 200.898 123.154 200.701 113.41C200.694 113.076 200.688 112.74 200.684 112.401L170.084 117.001C170.617 134.867 174.617 147.934 182.084 156.201C189.684 164.334 201.217 168.401 216.684 168.401C225.084 168.401 232.484 166.601 238.884 163.001C245.284 159.401 250.217 154.534 253.684 148.401C257.284 142.134 259.084 135.201 259.084 127.601C259.084 117.201 256.884 108.201 252.484 100.601C248.084 93.0008 241.884 85.8008 233.884 79.0008ZM265.618 31.6008V3.00077L352.218 3.00077V31.6008L328.018 31.6008V167.001H290.018V31.6008L265.618 31.6008ZM291.018 30.6008V166.001H327.018V30.6008L351.218 30.6008V4.00077L266.618 4.00077V30.6008L291.018 30.6008ZM380.225 3.00077L422.685 3.00077L453.258 167.001L418.2 167.001L412.8 132.801H390.704L385.104 167.001H349.248L380.225 3.00077ZM389.854 131.801H413.654L419.054 166.001L452.054 166.001L421.854 4.00077L381.054 4.00077L350.454 166.001H384.254L389.854 131.801ZM401.654 47.2008L393.054 110.401L410.254 110.401L401.654 47.2008ZM401.654 54.6174L394.199 109.401L409.109 109.401L401.654 54.6174ZM518.582 3.00077L556.382 3.00077V140.801H593.582V167.001H518.582V3.00077ZM555.382 141.801V4.00077L519.582 4.00077V166.001H592.582V141.801H555.382ZM607.454 3.00077L645.254 3.00077V167.001L607.454 167.001V3.00077ZM667.41 3.00077L739.41 3.00077V29.2008L705.21 29.2008V68.0008H735.01V95.0008H705.21V167.001H667.41V3.00077ZM704.21 94.0008H734.01V69.0008H704.21V28.2008L738.41 28.2008V4.00077L668.41 4.00077V166.001H704.21V94.0008ZM754.129 3.00077L828.929 3.00077V29.4008L791.929 29.4008V67.6008H820.129V94.4008H791.929V140.801L829.329 140.801V167.001L754.129 167.001V3.00077ZM790.929 141.801V93.4008H819.129V68.6008H790.929V28.4008L827.929 28.4008V4.00077L755.129 4.00077V166.001L828.329 166.001V141.801L790.929 141.801ZM1.61816 4.00077L1.61816 166.001H37.4182L37.4182 4.00077L1.61816 4.00077ZM608.454 4.00077V166.001L644.254 166.001V4.00077L608.454 4.00077Z" fill="white"/>
</svg>
