<svg width="208" height="248" viewBox="0 0 208 248" fill="none" xmlns="http://www.w3.org/2000/svg">
<path fill-rule="evenodd" clip-rule="evenodd" d="M43.1037 29.3462L64.4772 36.9194L51.7221 71.6873C51.0326 73.7527 51.8944 75.9903 53.7905 76.8509L102.743 99.7426C103.26 100.087 103.949 100.087 104.466 100.087C105.156 100.087 105.673 99.9147 106.19 99.7426L155.142 76.8509C157.038 75.9903 158.073 73.7527 157.211 71.6873L144.456 36.9194L160.658 31.2395V52.5822C158.934 53.6149 157.728 55.3361 157.728 57.4015C157.728 60.4996 160.313 63.0814 163.416 63.0814C166.519 63.0814 169.104 60.4996 169.104 57.4015C169.104 55.3361 167.897 53.4428 166.174 52.5822V29.1741C167.553 28.4856 168.587 27.1086 168.587 25.5596C168.587 23.8384 167.553 22.2893 165.829 21.6009L105.845 0.258178C104.983 -0.0860592 103.949 -0.0860592 103.087 0.258178L43.1037 21.4287C41.38 21.9451 40.3458 23.6663 40.3458 25.3875C40.3458 27.1086 41.38 28.8298 43.1037 29.3462ZM148.248 70.8267L104.466 91.3088L60.8575 70.8267L72.2338 39.6733L103.087 50.5167C103.605 50.6889 103.949 50.6889 104.466 50.6889C104.983 50.6889 105.328 50.6889 105.845 50.5167L136.699 39.6733L148.248 70.8267ZM104.466 8.69198L152.04 25.3875L137.906 30.3789L104.639 42.0829L71.3719 30.3789L57.0655 25.3875L104.466 8.69198ZM182.721 115.059C182.031 112.822 179.618 111.789 177.377 112.478L104.466 138.295L31.5546 112.65C29.3138 111.961 27.073 112.994 26.2112 115.232C25.5217 117.469 26.5559 119.707 28.7967 120.567L103.087 146.729C103.604 146.901 103.949 146.901 104.466 146.901C104.983 146.901 105.328 146.901 105.845 146.729L180.135 120.567C182.376 119.707 183.582 117.297 182.721 115.059ZM104.122 133.307L35.5195 109.038C35.0024 108.866 34.83 108.522 35.0024 108.178C34.83 107.834 34.83 107.317 35.0024 106.973C35.1747 106.629 40.3457 97.5065 54.8246 97.5065C60.5127 97.5065 66.8903 99.0556 73.785 101.809C94.1243 110.243 102.053 118.505 104.811 122.292C107.569 118.505 115.498 110.071 135.837 101.809C142.732 98.8835 149.109 97.5065 154.798 97.5065C169.276 97.5065 174.447 106.629 174.62 106.973C174.792 107.317 174.792 107.834 174.62 108.178C174.447 108.522 174.103 108.866 173.758 109.038L105.156 133.307H104.639H104.122Z" fill="white"/>
<path fill-rule="evenodd" clip-rule="evenodd" d="M85.4794 243.641V244.277H87.3913V232.345H85.559V236.799C85.3997 236.561 85.081 236.402 84.7624 236.243C84.4437 236.163 84.0454 236.083 83.7268 236.083C83.0895 236.083 82.6115 236.243 82.2132 236.481C81.8148 236.72 81.4962 237.038 81.2572 237.436C81.0182 237.834 80.8589 238.311 80.7792 238.788C80.6995 239.265 80.6199 239.743 80.6199 240.22C80.6199 240.697 80.6199 241.254 80.6996 241.731C80.7792 242.209 80.9385 242.686 81.0979 243.084C81.3369 243.481 81.5758 243.8 81.9742 244.038C82.2928 244.277 82.8505 244.436 83.4878 244.436C83.8064 244.436 84.1251 244.436 84.5234 244.277C84.842 244.197 85.1607 243.959 85.4794 243.641ZM85.3997 239.584C85.4793 239.822 85.4794 240.14 85.4794 240.379C85.4794 240.498 85.4594 240.638 85.4395 240.777L85.4395 240.777C85.4196 240.916 85.3997 241.055 85.3997 241.175C85.32 241.493 85.2404 241.731 85.1607 241.97C85.081 242.209 84.9217 242.447 84.6827 242.606C84.5234 242.766 84.2047 242.845 83.8861 242.845C83.5674 242.845 83.2488 242.766 83.0895 242.606C82.8505 242.447 82.6911 242.288 82.6115 242.05C82.4521 241.891 82.3725 241.572 82.3725 241.334C82.2928 241.016 82.2928 240.777 82.2928 240.538V240.538C82.2928 240.379 82.3127 240.24 82.3326 240.101C82.3526 239.961 82.3725 239.822 82.3725 239.663C82.4521 239.345 82.5318 239.106 82.6115 238.868C82.6911 238.629 82.8505 238.39 83.0895 238.231C83.3284 238.072 83.5674 237.993 83.9657 237.993C84.2844 237.993 84.6031 238.072 84.7624 238.231C85.0014 238.39 85.1607 238.549 85.2404 238.788C85.32 239.027 85.3997 239.265 85.3997 239.584ZM15.4143 243.521L15.4143 243.521C15.2151 243.222 15.016 242.924 14.8168 242.606C14.6176 242.288 14.4185 241.989 14.2193 241.691C14.0202 241.393 13.821 241.094 13.6218 240.776C13.5422 240.896 13.4426 240.995 13.343 241.094L13.343 241.094L13.343 241.094C13.2434 241.194 13.1439 241.293 13.0642 241.413C12.9845 241.532 12.885 241.631 12.7854 241.731L12.7854 241.731L12.7854 241.731C12.6858 241.83 12.5862 241.93 12.5066 242.049V244.436H10.6743V232.503H12.5066V239.663H12.5862L14.1795 237.833L15.6134 236.322H17.9237L14.9761 239.504C15.2549 239.901 15.5338 240.319 15.8126 240.737L15.8127 240.737C16.0914 241.154 16.3702 241.572 16.649 241.97C16.9279 242.367 17.2067 242.785 17.4855 243.203C17.7643 243.62 18.0432 244.038 18.322 244.436H16.0117C15.8126 244.117 15.6135 243.819 15.4143 243.521ZM8.2854 242.132L8.28539 242.132C8.0464 242.609 7.80741 243.086 7.4091 243.405C7.01079 243.802 6.61247 244.041 6.05482 244.28L6.0548 244.28C5.49716 244.439 4.93953 244.598 4.3819 244.598C3.74459 244.598 3.18695 244.518 2.62931 244.28C2.07166 244.041 1.67334 243.802 1.27503 243.405C0.876712 243.007 0.637724 242.609 0.398734 242.052C0.239407 241.575 0.0800781 240.939 0.0800781 240.382V233.063H2.07166V240.223C2.07166 240.541 2.15133 240.939 2.23099 241.177C2.31065 241.495 2.46998 241.734 2.70897 241.973C2.8683 242.211 3.10729 242.37 3.42594 242.53C3.74459 242.689 4.06324 242.689 4.3819 242.689C5.09887 242.689 5.57684 242.45 6.05482 242.052C6.45314 241.654 6.69213 241.018 6.69213 240.223V232.984H8.68371V240.382C8.60405 241.018 8.44473 241.575 8.2854 242.132L8.2854 242.132ZM21.5077 238.389C21.8264 238.15 22.145 237.991 22.623 237.991H23.4196C23.4679 238.015 23.5234 238.039 23.5841 238.065C23.7237 238.126 23.8903 238.198 24.057 238.309L24.7739 236.639C24.5349 236.479 24.2959 236.4 24.057 236.32C23.7383 236.241 23.4993 236.241 23.1807 236.241H23.1807C22.3044 236.241 21.6671 236.559 21.1891 237.275H21.1094V236.32H19.2772V244.434H21.1094V239.582C21.1094 239.025 21.1891 238.627 21.5077 238.389ZM28.2809 236.241C28.7589 236.241 29.1572 236.32 29.5555 236.4C29.9538 236.479 30.3521 236.639 30.5911 236.798C30.9098 237.036 31.1488 237.275 31.3081 237.593C31.4674 237.911 31.5471 238.389 31.5471 238.866V244.434H29.7148V243.718C29.4758 244.037 29.1572 244.196 28.8385 244.355C28.4402 244.514 28.0419 244.514 27.6436 244.514H27.6436C26.7673 244.514 26.0503 244.275 25.5723 243.877C25.0944 243.48 24.7757 242.843 24.7757 242.048C24.7757 241.73 24.8554 241.411 24.935 241.093C25.0943 240.775 25.2537 240.536 25.4927 240.298C25.7317 240.059 26.0503 239.9 26.369 239.741C26.6876 239.582 27.0859 239.582 27.5639 239.582H27.5639H29.7945V239.025V239.025C29.7945 238.866 29.7945 238.707 29.7148 238.548C29.675 238.468 29.6352 238.409 29.5953 238.349C29.5555 238.289 29.5157 238.23 29.4758 238.15L28.9978 237.911C28.7589 237.832 28.5199 237.832 28.2012 237.832H28.2012C27.7232 237.832 27.4046 237.911 27.0859 237.991C26.8521 238.049 26.6612 238.193 26.4817 238.329C26.4166 238.378 26.3529 238.426 26.2893 238.468L25.3333 237.195C25.7317 236.798 26.2096 236.559 26.6876 236.4C27.0859 236.32 27.6436 236.241 28.2809 236.241ZM26.5283 241.968V241.968C26.5283 242.127 26.5283 242.207 26.6079 242.366C26.6876 242.525 26.7673 242.605 26.8469 242.684C26.9266 242.764 27.0859 242.843 27.3249 242.923C27.4842 243.002 27.7232 243.002 28.0419 243.002C28.2809 243.002 28.4402 243.002 28.6792 242.923C28.784 242.888 28.8734 242.868 28.9543 242.851L28.9543 242.851C29.0579 242.828 29.1474 242.808 29.2368 242.764C29.3962 242.684 29.5555 242.525 29.6351 242.446C29.7148 242.287 29.7945 242.127 29.7945 241.889V241.65V241.093H27.8826C27.4046 241.093 27.0859 241.173 26.8469 241.332C26.6876 241.491 26.5283 241.73 26.5283 241.968ZM33.5371 232.984V234.734H35.3693V232.984H33.5371ZM33.5371 236.325V244.439H35.3693V236.325H33.5371ZM42.3813 244.434V239.582C42.3813 239.025 42.3017 238.627 42.0627 238.389C41.8237 238.07 41.4254 237.991 40.9474 237.991C40.4694 237.991 40.1507 238.15 39.8321 238.389C39.5134 238.707 39.3541 239.105 39.3541 239.582V244.434H37.4422V236.32H39.2744V237.195C39.5134 236.877 39.8321 236.639 40.2304 236.479C40.6287 236.32 41.027 236.241 41.3457 236.241C42.1423 236.241 42.8593 236.479 43.3373 236.957C43.8153 237.434 44.1339 238.15 44.1339 239.105V244.434H42.3813ZM46.2836 232.984V234.734H48.1159V232.984H46.2836ZM46.2836 236.325V244.439H48.1159V236.325H46.2836ZM53.2952 236.241C53.7732 236.241 54.1715 236.32 54.5698 236.4C54.9681 236.479 55.3665 236.639 55.6054 236.798C55.9241 237.036 56.1631 237.275 56.3224 237.593C56.4817 237.911 56.5614 238.389 56.5614 238.866V244.434H54.7291V243.718C54.4902 244.037 54.1715 244.196 53.8528 244.355C53.4545 244.514 53.0562 244.514 52.6579 244.514C51.7816 244.514 51.0646 244.275 50.5866 243.877C50.1087 243.48 49.79 242.843 49.79 242.048C49.79 241.73 49.8697 241.411 49.9493 241.093C50.1087 240.775 50.268 240.536 50.507 240.298C50.746 240.059 51.0646 239.9 51.3833 239.741C51.7019 239.582 52.1002 239.582 52.5782 239.582H54.8088V239.025C54.8088 238.866 54.8088 238.707 54.7291 238.548C54.6893 238.468 54.6495 238.409 54.6096 238.349L54.6096 238.349C54.5698 238.289 54.53 238.23 54.4901 238.15L54.0122 237.911C53.7732 237.832 53.5342 237.832 53.2155 237.832C52.7376 237.832 52.4189 237.911 52.1002 237.991C51.8664 238.049 51.6755 238.193 51.496 238.329L51.4959 238.329C51.4308 238.378 51.3672 238.426 51.3036 238.468L50.3476 237.195C50.746 236.798 51.2239 236.559 51.7019 236.4C52.1799 236.32 52.7375 236.241 53.2952 236.241ZM51.6223 241.968V241.968C51.6223 242.127 51.6223 242.207 51.7019 242.366C51.7816 242.525 51.8613 242.605 51.9409 242.684C52.0206 242.764 52.1799 242.843 52.4189 242.923C52.5782 243.002 52.8172 243.002 53.1359 243.002C53.3749 243.002 53.5342 243.002 53.7732 242.923C53.9325 242.923 54.1715 242.843 54.3308 242.764C54.4902 242.684 54.6495 242.525 54.7291 242.446C54.8088 242.287 54.8885 242.127 54.8885 241.889V241.65V241.093H52.9765C52.4986 241.093 52.1799 241.173 51.9409 241.332C51.7019 241.491 51.6223 241.73 51.6223 241.968ZM63.4117 239.582V244.434H65.2439V239.105C65.2439 238.15 64.9253 237.434 64.4473 236.957C63.9693 236.479 63.2523 236.241 62.4557 236.241C62.137 236.241 61.7387 236.32 61.3404 236.479C60.9421 236.639 60.6234 236.877 60.3845 237.195V236.32H58.5522V244.434H60.3845V239.582C60.3845 239.105 60.5438 238.707 60.8624 238.389C61.1811 238.15 61.4997 237.991 61.9777 237.991C62.4557 237.991 62.854 238.07 63.093 238.389C63.332 238.627 63.4117 239.025 63.4117 239.582ZM71.6183 244.439V232.984H79.2659V234.813H73.6098V237.836H78.4693V239.586H73.6098V242.689H79.2659V244.518H71.6183V244.439ZM90.977 236.404V241.177C90.977 241.733 91.0566 242.131 91.2956 242.449C91.5346 242.688 91.9329 242.847 92.4906 242.847C92.8889 242.847 93.2872 242.688 93.6059 242.449C93.9245 242.131 94.0838 241.733 94.0838 241.256V236.404H95.9161V244.518H94.0838V243.722H94.0042C93.7652 244.04 93.4465 244.279 93.0482 244.438C92.6499 244.597 92.2516 244.677 91.9329 244.677C91.0566 244.677 90.4193 244.438 89.8617 243.961C89.3837 243.484 89.065 242.768 89.065 241.733V236.404H90.977ZM101.093 244.597C101.651 244.597 102.209 244.518 102.687 244.279C103.165 244.04 103.643 243.722 104.041 243.245L102.846 241.972C102.673 242.145 102.458 242.276 102.261 242.396L102.261 242.396C102.187 242.442 102.115 242.485 102.049 242.529C101.81 242.688 101.492 242.768 101.253 242.768C100.615 242.768 100.137 242.609 99.8188 242.211C99.5001 241.813 99.3408 241.256 99.3408 240.381C99.3408 239.506 99.5001 238.87 99.8188 238.472C100.137 238.074 100.615 237.915 101.253 237.915C101.731 237.915 102.288 238.233 102.766 238.711L103.961 237.438C103.165 236.722 102.288 236.324 101.173 236.324C100.695 236.324 100.217 236.404 99.7391 236.563C99.3408 236.722 98.8628 236.961 98.5442 237.279C98.1458 237.597 97.9069 237.995 97.6679 238.552C97.4289 239.108 97.3492 239.745 97.3492 240.461C97.3492 241.177 97.4289 241.813 97.6679 242.37C97.8272 242.847 98.1458 243.324 98.4645 243.643C98.7831 243.961 99.1815 244.199 99.6594 244.359C100.137 244.518 100.615 244.597 101.093 244.597ZM108.343 236.241C108.821 236.241 109.219 236.32 109.617 236.4C110.016 236.479 110.414 236.639 110.653 236.798C110.972 237.036 111.211 237.275 111.37 237.593C111.529 237.911 111.609 238.389 111.609 238.866V244.434H109.777V243.718C109.538 244.037 109.219 244.196 108.9 244.355C108.502 244.514 108.104 244.514 107.705 244.514C106.829 244.514 106.112 244.275 105.634 243.877C105.156 243.48 104.837 242.843 104.837 242.048C104.837 241.73 104.917 241.411 104.997 241.093C105.156 240.775 105.315 240.536 105.554 240.298C105.793 240.059 106.112 239.9 106.431 239.741C106.749 239.582 107.148 239.582 107.626 239.582H109.856V239.025C109.856 238.866 109.856 238.707 109.777 238.548C109.737 238.468 109.697 238.409 109.657 238.349L109.657 238.349C109.617 238.289 109.577 238.23 109.538 238.15L109.06 237.911C108.821 237.832 108.582 237.832 108.263 237.832C107.785 237.832 107.466 237.911 107.148 237.991C106.914 238.049 106.723 238.193 106.543 238.329L106.543 238.329C106.478 238.378 106.415 238.426 106.351 238.468L105.395 237.195C105.793 236.798 106.271 236.559 106.749 236.4C107.227 236.32 107.785 236.241 108.343 236.241ZM106.67 241.968C106.67 242.127 106.67 242.207 106.749 242.366C106.829 242.525 106.909 242.605 106.988 242.684C107.068 242.764 107.227 242.843 107.466 242.923C107.626 243.002 107.865 243.002 108.183 243.002C108.422 243.002 108.582 243.002 108.821 242.923C108.925 242.888 109.015 242.868 109.096 242.851C109.199 242.828 109.289 242.808 109.378 242.764C109.538 242.684 109.697 242.525 109.777 242.446C109.856 242.287 109.936 242.127 109.936 241.889V241.65V241.093H108.024C107.546 241.093 107.227 241.173 106.988 241.332C106.749 241.491 106.67 241.73 106.67 241.968ZM114.556 243.879C114.954 244.277 115.432 244.436 116.07 244.436V244.357H117.185V242.766H116.548C116.309 242.766 116.07 242.686 115.99 242.527C115.91 242.368 115.831 242.209 115.831 241.891V237.754H117.105V236.243H115.831V234.095H113.998V236.243H113.042V237.754H113.998V242.368C113.998 243.004 114.158 243.561 114.556 243.879ZM118.858 234.734V232.984H120.69V234.734H118.858ZM118.858 244.439V236.325H120.69V244.439H118.858ZM127.859 236.559C127.381 236.32 126.823 236.241 126.186 236.241C125.389 236.241 124.752 236.4 124.274 236.877C123.717 237.195 123.318 237.593 123 238.23C122.84 238.548 122.761 238.866 122.681 239.264C122.601 239.661 122.601 240.059 122.601 240.536C122.601 241.73 122.761 242.764 123.239 243.4C123.557 243.798 123.956 244.116 124.434 244.355C124.912 244.593 125.469 244.673 126.106 244.673C126.744 244.673 127.301 244.514 127.859 244.275C128.417 243.957 128.815 243.559 129.134 243.082C129.163 243.008 129.193 242.938 129.222 242.868C129.349 242.561 129.467 242.278 129.532 241.889C129.612 241.491 129.691 240.934 129.691 240.298C129.691 239.741 129.612 239.264 129.532 238.786C129.452 238.309 129.293 237.911 129.054 237.593C128.735 237.116 128.337 236.798 127.859 236.559ZM125.23 238.15C125.469 237.991 125.788 237.911 126.106 237.911C126.425 237.911 126.664 237.991 126.903 238.07C127.142 238.23 127.301 238.468 127.461 238.786C127.62 239.105 127.7 239.582 127.7 240.218V241.093V241.094C127.7 241.332 127.7 241.491 127.62 241.65C127.54 242.048 127.301 242.366 127.062 242.525C126.744 242.764 126.425 242.843 126.106 242.843C125.788 242.843 125.469 242.764 125.23 242.605C124.991 242.446 124.832 242.287 124.673 241.968C124.513 241.73 124.434 241.491 124.434 241.252C124.354 241.014 124.354 240.696 124.354 240.377C124.354 240.059 124.354 239.741 124.434 239.502L124.673 238.786C124.752 238.548 124.991 238.309 125.23 238.15ZM136.143 244.434V239.582C136.143 239.025 136.063 238.627 135.824 238.389C135.585 238.07 135.187 237.991 134.709 237.991C134.231 237.991 133.912 238.15 133.594 238.389C133.275 238.707 133.116 239.105 133.116 239.582V244.434H131.283V236.32H133.116V237.195C133.355 236.877 133.673 236.639 134.072 236.479C134.47 236.32 134.868 236.241 135.187 236.241C135.984 236.241 136.701 236.479 137.179 236.957C137.656 237.434 137.975 238.15 137.975 239.105V244.434H136.143ZM150.803 243.882C151.441 243.405 151.919 242.689 152.237 241.893L150.405 241.177C150.246 241.655 150.007 241.973 149.608 242.291C149.29 242.53 148.812 242.689 148.254 242.689C147.856 242.689 147.537 242.609 147.219 242.45C146.9 242.291 146.661 242.132 146.502 241.893C146.342 241.655 146.183 241.416 146.103 241.098C146.024 240.859 145.944 240.541 145.944 240.223V237.2C145.944 236.936 145.999 236.727 146.063 236.482C146.076 236.432 146.09 236.379 146.103 236.325C146.183 236.007 146.342 235.768 146.502 235.529C146.741 235.291 146.9 235.132 147.219 234.972C147.537 234.893 147.856 234.813 148.254 234.813C148.812 234.813 149.29 234.893 149.608 235.211C149.927 235.529 150.166 235.847 150.325 236.325L152.237 235.609C151.998 234.813 151.52 234.177 150.803 233.7C150.086 233.222 149.29 232.984 148.254 232.984C147.537 232.984 146.9 233.063 146.342 233.302C145.785 233.541 145.307 233.859 144.988 234.257C144.59 234.654 144.351 235.052 144.191 235.609C144.032 236.166 143.952 236.723 143.952 237.279V240.223C143.952 240.859 144.032 241.416 144.191 241.973C144.351 242.45 144.669 242.927 144.988 243.325C145.386 243.723 145.785 244.041 146.342 244.28C146.9 244.518 147.537 244.598 148.254 244.598C149.29 244.598 150.086 244.359 150.803 243.882ZM156.935 236.241C157.572 236.241 158.13 236.32 158.608 236.559C159.086 236.798 159.484 237.116 159.803 237.593C160.042 237.911 160.201 238.309 160.281 238.786C160.361 239.264 160.44 239.741 160.44 240.298C160.44 240.934 160.361 241.491 160.281 241.889C160.216 242.278 160.098 242.561 159.971 242.868L159.969 242.871C159.941 242.939 159.912 243.009 159.883 243.082C159.564 243.559 159.166 243.957 158.608 244.275C158.05 244.514 157.493 244.673 156.855 244.673C156.218 244.673 155.661 244.593 155.183 244.355C154.705 244.116 154.306 243.798 153.988 243.4C153.51 242.764 153.35 241.73 153.35 240.536C153.35 240.059 153.35 239.661 153.43 239.264C153.51 238.866 153.589 238.548 153.749 238.23C154.067 237.593 154.466 237.195 155.023 236.877C155.501 236.4 156.218 236.241 156.935 236.241ZM156.855 237.911C156.537 237.911 156.218 237.991 155.979 238.15C155.74 238.309 155.501 238.548 155.422 238.786L155.183 239.502C155.103 239.741 155.103 240.059 155.103 240.377V240.377V240.378C155.103 240.696 155.103 241.014 155.183 241.252C155.183 241.491 155.262 241.73 155.422 241.968C155.581 242.287 155.74 242.446 155.979 242.605C156.218 242.764 156.537 242.843 156.855 242.843C157.174 242.843 157.493 242.764 157.811 242.525C158.05 242.366 158.289 242.048 158.369 241.65C158.449 241.491 158.449 241.332 158.449 241.093V240.218C158.449 239.582 158.369 239.105 158.21 238.786C158.05 238.468 157.891 238.23 157.652 238.07C157.413 237.991 157.174 237.911 156.855 237.911ZM171.914 239.582V244.434H173.586V239.105C173.586 238.15 173.348 237.434 172.79 236.957C172.312 236.479 171.595 236.241 170.798 236.241C170.241 236.241 169.763 236.32 169.364 236.559C168.886 236.798 168.488 237.036 168.169 237.434C167.691 236.639 166.974 236.241 165.939 236.241C165.54 236.241 165.142 236.32 164.744 236.479C164.346 236.639 164.027 236.877 163.788 237.195V236.32H161.956V244.514H163.788V239.661C163.788 239.184 163.947 238.786 164.266 238.468C164.585 238.15 164.983 237.991 165.381 237.991C165.859 237.991 166.257 238.07 166.496 238.389C166.735 238.627 166.895 239.025 166.895 239.582V244.514H168.727V239.661C168.727 239.184 168.886 238.786 169.205 238.468C169.524 238.15 169.922 237.991 170.32 237.991C170.878 237.991 171.276 238.07 171.515 238.389C171.754 238.627 171.914 239.025 171.914 239.582ZM177.65 236.32V237.036H177.73C177.969 236.718 178.287 236.479 178.686 236.4C179.004 236.241 179.403 236.241 179.721 236.241C180.359 236.241 180.837 236.4 181.235 236.639C181.633 236.877 181.952 237.195 182.111 237.593C182.35 237.991 182.43 238.468 182.51 238.945V238.945C182.589 239.423 182.589 239.9 182.589 240.377C182.589 240.855 182.51 241.332 182.43 241.809C182.35 242.287 182.191 242.764 181.952 243.162C181.713 243.559 181.394 243.877 180.996 244.116C180.598 244.355 180.04 244.514 179.403 244.514C179.139 244.514 178.875 244.459 178.566 244.395L178.565 244.395L178.562 244.395C178.499 244.382 178.434 244.368 178.367 244.355C178.049 244.196 177.81 244.037 177.571 243.798V247.775H175.738V236.32H177.65ZM177.65 240.377C177.65 240.616 177.65 240.934 177.73 241.173C177.73 241.491 177.81 241.73 177.889 241.968C177.969 242.207 178.128 242.366 178.367 242.525C178.606 242.684 178.845 242.764 179.164 242.764C179.482 242.764 179.801 242.684 179.96 242.525C180.199 242.366 180.359 242.207 180.438 241.968C180.518 241.73 180.598 241.491 180.677 241.173C180.677 241.014 180.697 240.875 180.717 240.736L180.717 240.735C180.737 240.596 180.757 240.457 180.757 240.298V239.502C180.757 239.184 180.677 238.945 180.598 238.707C180.518 238.468 180.359 238.23 180.12 238.15C179.881 237.991 179.642 237.911 179.243 237.911C178.925 237.911 178.606 237.991 178.447 238.15C178.275 238.265 178.185 238.42 178.089 238.588L178.089 238.588L178.089 238.588C178.052 238.653 178.013 238.72 177.969 238.786C177.889 239.025 177.81 239.264 177.73 239.582C177.65 239.9 177.65 240.139 177.65 240.377ZM188.643 236.4C188.245 236.32 187.846 236.241 187.368 236.241C186.731 236.241 186.253 236.32 185.775 236.4C185.297 236.559 184.819 236.798 184.421 237.195L185.377 238.468C185.44 238.426 185.504 238.378 185.569 238.329L185.569 238.329C185.749 238.193 185.94 238.049 186.173 237.991C186.492 237.911 186.811 237.832 187.289 237.832C187.607 237.832 187.846 237.832 188.085 237.911L188.563 238.15C188.603 238.23 188.643 238.289 188.683 238.349C188.723 238.409 188.762 238.468 188.802 238.548C188.882 238.707 188.882 238.866 188.882 239.025V239.582H186.651C186.173 239.582 185.775 239.582 185.456 239.741C185.138 239.9 184.819 240.059 184.58 240.298C184.341 240.536 184.182 240.775 184.022 241.093C183.943 241.411 183.863 241.73 183.863 242.048C183.863 242.843 184.182 243.48 184.66 243.877C185.138 244.275 185.855 244.514 186.731 244.514C187.129 244.514 187.528 244.514 187.926 244.355C188.245 244.196 188.563 244.037 188.802 243.718V244.434H190.634V238.866C190.634 238.389 190.555 237.911 190.395 237.593C190.236 237.275 189.997 237.036 189.679 236.798C189.44 236.639 189.041 236.479 188.643 236.4ZM185.695 242.366C185.616 242.207 185.616 242.127 185.616 241.968C185.616 241.73 185.775 241.491 185.934 241.332C186.173 241.173 186.492 241.093 186.97 241.093H188.882V241.65V241.889C188.882 242.127 188.802 242.287 188.723 242.446C188.643 242.525 188.484 242.684 188.324 242.764C188.165 242.843 187.926 242.923 187.767 242.923C187.528 243.002 187.368 243.002 187.129 243.002C186.811 243.002 186.572 243.002 186.412 242.923C186.173 242.843 186.014 242.764 185.934 242.684C185.855 242.605 185.775 242.525 185.695 242.366ZM197.405 244.434V239.582C197.405 239.025 197.325 238.627 197.086 238.389C196.847 238.07 196.449 237.991 195.971 237.991C195.493 237.991 195.174 238.15 194.855 238.389C194.537 238.707 194.377 239.105 194.377 239.582V244.434H192.545V236.32H194.377V237.195C194.616 236.877 194.935 236.639 195.333 236.479C195.732 236.32 196.13 236.241 196.449 236.241C197.245 236.241 197.962 236.479 198.44 236.957C198.918 237.434 199.237 238.15 199.237 239.105V244.434H197.405ZM203.459 247.378C203.858 247.139 204.176 246.741 204.415 246.105L208 236.241H206.009L204.973 239.264L204.176 241.809H204.097L203.3 239.264L202.265 236.241H200.273L203.3 243.957L202.902 245.23C202.822 245.468 202.663 245.707 202.504 245.866C202.344 246.025 202.105 246.105 201.866 246.105H201.388V247.696H202.105C202.583 247.696 203.061 247.616 203.459 247.378Z" fill="white"/>
<path fill-rule="evenodd" clip-rule="evenodd" d="M51.781 180H89.0635C90.9754 180 92.489 181.511 92.4093 183.421V220.172C92.4093 222.002 90.8957 223.513 89.0635 223.513H51.781C49.9488 223.513 48.4352 222.002 48.4352 220.172V183.341C48.4352 181.511 49.9488 180 51.781 180ZM0 184.297H7.1697V217.627H0V184.297ZM124.592 198.615H122.361V184.297H115.191V217.627H122.361V201.797H124.592V217.627H131.761V184.297H124.592V198.615ZM18.3237 184.297L20.6339 198.536V184.297H27.7239V217.627H20.6339L18.3237 203.309V217.627H11.154V184.297H18.3237ZM163.946 198.536L161.636 184.297H154.467V217.627H161.636V203.388L163.946 217.627H171.036V184.297H163.946V198.536ZM34.3355 187.956H30.7506V184.138H45.09V187.956H41.5052V217.628H34.3355V187.956ZM207.524 187.399V184.297H201.31H198.044H194.14V217.627H198.044H201.31H207.524V214.445H201.31V201.797H207.524V198.615H201.31V187.399H207.524ZM105.795 184.297H107.866C110.654 184.297 112.885 186.524 112.885 189.308V195.751H105.715V189.547C105.715 188.672 105.396 187.956 104.918 187.956C104.52 187.956 104.122 188.672 104.122 189.547V200.922V212.298C104.122 213.173 104.44 213.888 104.918 213.888C105.317 213.888 105.715 213.173 105.715 212.298V206.093H112.885V212.536C112.885 215.32 110.654 217.548 107.866 217.548H105.795H104.201H102.13C99.4217 217.548 97.1114 215.32 97.1114 212.536V200.922V189.308C97.1114 186.603 99.342 184.297 102.13 184.297H104.201H105.795ZM147.616 184.297H143.792H142.278H138.454H137.897L134.63 217.627H141.322L141.641 208.081H144.668L144.987 217.627H151.678L148.173 184.297H147.616ZM141.561 204.82L142.039 189.944H143.951L144.429 204.82H141.561ZM184.023 184.297H186.094C188.803 184.297 191.113 186.524 191.113 189.308V195.751H183.943V189.547C183.943 188.672 183.625 187.956 183.147 187.956C182.748 187.956 182.35 188.672 182.35 189.547V200.922V212.377C182.35 213.252 182.669 213.968 183.147 213.968C183.545 213.968 183.943 213.252 183.943 212.377V205.456H182.908V201.399H191.113V203.309V205.456V212.536C191.113 215.32 188.882 217.548 186.094 217.548H184.023H182.43H180.358C177.57 217.548 175.34 215.32 175.34 212.536V200.922V189.308C175.34 186.603 177.57 184.297 180.358 184.297H182.43H184.023Z" fill="white"/>
<path fill-rule="evenodd" clip-rule="evenodd" d="M82.2919 182.942H89.3819L85.3191 201.795L89.3819 220.728H82.2919L80.7783 209.75H79.8223L78.3884 220.728H71.2187L75.3612 201.795L71.2187 182.942H78.3884L79.8223 193.841H80.7783L82.2919 182.942ZM53.7734 182.942H57.5973H60.8635H68.0332V187.477H60.8635V199.568H68.0332V204.102H60.8635V216.114H68.0332V220.728H60.8635H57.5973H53.7734V182.942Z" fill="#0B6CFE"/>
</svg>
