<svg width="423" height="249" viewBox="0 0 423 249" fill="none" xmlns="http://www.w3.org/2000/svg">
<path d="M337.3 12C340.3 12 342.7 14.4 342.7 17.4H365.2H366C366.5 17.4 366.9 17.4 367.4 17.4C367.5 17.4 367.7 17.4 367.8 17.4C368.1 17.4 368.5 17.5 368.8 17.5C368.9 17.5 369.1 17.5 369.2 17.6C369.6 17.7 370.1 17.7 370.5 17.8C370.5 17.8 370.5 17.8 370.6 17.8C371 17.9 371.5 18 371.9 18.1C372 18.1 372.2 18.2 372.3 18.2C372.6 18.3 372.9 18.4 373.2 18.5C373.3 18.5 373.5 18.6 373.6 18.6C374 18.7 374.4 18.9 374.7 19H374.8C375.2 19.2 375.6 19.4 376 19.5C376.1 19.6 376.2 19.6 376.3 19.7C376.6 19.8 376.9 20 377.2 20.2C377.3 20.3 377.4 20.3 377.5 20.4C377.8 20.6 378.2 20.8 378.5 21C378.5 21 378.5 21 378.6 21C379 21.2 379.3 21.5 379.7 21.8C379.8 21.9 379.9 21.9 380 22C380.3 22.2 380.5 22.4 380.8 22.7C380.9 22.8 381 22.8 381.1 22.9C381.8 23.5 382.4 24.1 383 24.8C383 24.9 383.1 24.9 383.1 25C383.4 25.3 383.6 25.6 383.8 25.9C383.8 26 383.9 26 383.9 26.1C384.5 26.8 385 27.6 385.5 28.4C385.7 28.8 385.9 29.1 386.1 29.5C386.1 29.6 386.2 29.6 386.2 29.7C386.6 30.5 387 31.4 387.3 32.2C387.3 32.3 387.4 32.4 387.4 32.5C387.5 32.8 387.6 33.2 387.7 33.5C387.7 33.6 387.8 33.7 387.8 33.9C387.9 34.3 388 34.7 388.1 35.1V35.2C388.2 35.6 388.3 36.1 388.3 36.5C388.3 36.6 388.3 36.8 388.3 36.9C388.3 37.2 388.4 37.6 388.4 37.9C388.4 38 388.4 38.2 388.4 38.3C388.4 38.5 388.4 38.8 388.4 39C388.4 39.5 388.5 40 388.5 40.6C388.7 42.4 389.3 46.9 390 54.5C390 54.7 390 54.9 390.1 55.2C390.1 55.6 390.2 55.9 390.2 56.3C390.6 60.6 391 65.8 391.5 72H391.6V73.2C392 79.3 392.5 86.3 393 94.3C393.2 98.2 393.5 102.3 393.7 106.6C393.7 106.8 393.7 106.9 393.7 107.1C393.8 108.2 393.8 109.2 393.9 110.3C393.9 110.6 393.9 110.9 393.9 111.1C394 112.7 394.1 114.4 394.1 116.1C394.1 117 394.2 117.8 394.2 118.7C394.2 119.4 394.3 120 394.3 120.7C394.4 122.3 394.4 123.9 394.5 125.5C394.7 130.9 395 137.6 395.2 144.2C395.3 145.7 395.3 146.6 395.3 146.6C395.3 147.4 395.3 148.3 395.4 149.1H395.8V153.6V163.3V163.4C396.4 163.9 400.1 166.7 402.8 169.9L403.7 170.6L404.1 171.5C405 172.8 405.7 174.2 405.9 175.4C406.5 180.6 407.4 198.7 408.1 212.5C408.2 214.7 405.7 216.8 402.6 218.3C399.4 219.8 395.6 220.8 393.3 220.8H393.2H391.1V220.9H387.6V221.7H382.5C377.3 230.3 367.8 236 357 236C346.2 236 336.8 230.3 331.5 221.7H327.3V223.2H148.7V222H144.9C139.7 230.6 130.2 236.3 119.4 236.3C108.6 236.3 99.1 230.6 93.9 222H82.3V221.1H31H24.2C21.6 221.1 19.5 219 19.5 216.4V214.8H17.2C15.8 214.8 14.5 214.2 13.5 213.3C12.9 212.7 12.4 211.9 12.2 211.1C12.1 210.6 12 210.1 12 209.6C12 206.8 14.3 204.4 17.2 204.4H17.8H19.5V179.7V176.7V152.3V150V100.9V94.6V74.8V69.1C19.5 68.2 19.5 67.3 19.6 66.3C19.6 66.1 19.6 65.8 19.7 65.6C19.7 65.1 19.8 64.5 19.8 64C19.8 63.9 19.8 63.7 19.8 63.6C19.8 63.4 19.9 63.2 19.9 63C20 62.6 20 62.1 20.1 61.7C20.1 61.5 20.2 61.2 20.2 61C20.2 60.9 20.2 60.7 20.3 60.6C20.4 60.2 20.4 59.8 20.5 59.4C20.6 59.1 20.6 58.8 20.7 58.4C20.7 58.3 20.7 58.2 20.8 58.1C20.8 57.9 20.9 57.7 21 57.5C21.1 57 21.2 56.5 21.4 56C21.4 55.8 21.5 55.7 21.5 55.5C21.7 54.8 21.9 54.1 22.1 53.4C20.8 56.1 20.1 57.8 20 58.1C25 34.9 45.7 17.4 70.5 17.4H71.3H324.3C324.3 14.4 326.7 12 329.7 12H337.3V12ZM153 221.2H316.9V221.1L153 221.2ZM337.3 0H329.5C324.6 0 320.1 2.1 317 5.4H71.2H70.4C55.8 5.4 41.5 10.5 30.2 19.7C19.1 28.8 11.2 41.5 8.2 55.5C7.8 57.2 7.8 58.8 8.2 60.4C8 60.8 8 61.2 7.9 61.5V61.6C7.9 61.8 7.8 62.1 7.8 62.3L7.7 62.8C7.6 63.5 7.6 64.1 7.6 64.7V64.8V64.9C7.6 65.2 7.6 65.4 7.5 65.7C7.4 66.9 7.4 68 7.4 69.1V74.8V94.5V100.8V150V152.4V176.8V179.8V195.5C3 198.6 0 203.7 0 209.6C0 211.3 0.2 212.9 0.7 214.5C1.5 217.2 3 219.7 5 221.7C6.5 223.1 8.1 224.3 9.9 225.1C12.9 229.8 18.1 233 24.1 233H31H77.8C79.2 233.6 80.7 233.9 82.4 233.9H88C95.9 243 107.2 248.2 119.5 248.2C131.1 248.2 141.9 243.5 149.7 235.3H327C334.8 243.5 345.6 248.2 357.2 248.2C369.5 248.2 380.9 242.9 388.8 233.8C390 233.7 391.2 233.4 392.3 233C392.4 233 392.6 233 392.7 233H393.5H393.6H393.7C397.9 233 403.4 231.5 408.1 229.3C419.2 223.9 420.5 216.2 420.3 212.1C420.2 210.1 420.1 207.9 420 205.7C419.2 190 418.6 178.6 418.1 174.1C417.8 171.4 416.8 168.7 415 166C414.2 164.2 413 162.7 411.5 161.4L411.4 161.3C410.3 160.1 409.2 159 408.1 158V153.7V149.2C408.1 148 407.9 146.9 407.6 145.9L407.5 144C407.3 135.6 407.1 129.8 406.8 125.1C406.7 123.5 406.7 121.9 406.6 120.3L406.5 118.3L406.4 115.7C406.3 114 406.2 112.3 406.1 110.7V110.3V109.8C406 108.7 406 107.6 405.9 106.6V106.4V106.1C405.7 101.8 405.4 97.7 405.2 93.8V93.7C404.8 86.4 404.3 79.4 403.8 72.9V72.1C403.8 71.3 403.7 70.5 403.6 69.7C403.2 64.6 402.8 59.8 402.4 55.3L402.3 54.2V54.1L402.2 53.5C401.5 46.2 401 41.6 400.7 39.5L400.6 38.8V38.4C400.6 38.2 400.6 37.9 400.6 37.7C400.6 37.5 400.6 37.3 400.6 37.2V37.1C400.6 36.6 400.5 36 400.4 35.5V35.4C400.4 35.2 400.4 35 400.3 34.9C400.2 34.2 400.1 33.5 399.9 32.8C399.9 32.7 399.9 32.6 399.8 32.5C399.7 31.9 399.5 31.3 399.4 30.7C399.4 30.5 399.3 30.4 399.3 30.2V30.1C399.2 29.6 399 29.1 398.8 28.6C398.7 28.4 398.7 28.3 398.6 28.1C398.1 26.8 397.6 25.5 396.9 24.2L396.8 23.9C396.5 23.3 396.2 22.8 395.9 22.3C395.9 22.2 395.8 22.1 395.8 22V21.9C395.1 20.7 394.3 19.6 393.5 18.5C393.4 18.4 393.4 18.3 393.3 18.2C392.9 17.7 392.5 17.3 392.2 16.8C392.1 16.7 392.1 16.6 392 16.5C391.1 15.5 390.1 14.5 389.1 13.6C389 13.5 388.9 13.4 388.8 13.3C388.4 13 388 12.6 387.6 12.3C387.4 12.2 387.3 12.1 387.2 12C386.6 11.6 386.1 11.2 385.6 10.8C385.5 10.8 385.5 10.7 385.4 10.7C384.9 10.4 384.4 10.1 383.9 9.8C383.7 9.7 383.6 9.6 383.4 9.5C383 9.3 382.5 9 382.1 8.8H382C381.8 8.7 381.7 8.6 381.5 8.6C380.9 8.3 380.3 8 379.7 7.8C379.6 7.8 379.5 7.7 379.4 7.7C378.9 7.5 378.4 7.3 377.8 7.1C377.6 7 377.4 7 377.3 6.9H377.2C376.7 6.7 376.3 6.6 375.8 6.5H375.7C375.5 6.5 375.4 6.4 375.2 6.4C374.5 6.2 373.8 6.1 373.2 5.9H373.1H373C372.4 5.8 371.8 5.7 371.2 5.6C371 5.6 370.8 5.6 370.7 5.5H370.6C370.1 5.4 369.6 5.4 369.1 5.3H369C368.8 5.3 368.6 5.3 368.5 5.3C367.7 5.3 367 5.2 366.4 5.2H365.6H350.2C346.7 2.1 342.2 0 337.3 0Z" fill="white"/>
<path d="M396.8 221.1H393.3H393.4H396.8ZM396.8 214.1H393.4C393.4 214.1 393.4 214.1 393.3 214.1C393.2 214.1 393.2 214.1 393.1 214.1C393.2 214.1 393.2 214.1 393.3 214.1V215C391.2 216.2 389.8 218.5 389.8 221.1C389.8 223.7 391.2 226 393.3 227.2V228.1H396.8C400.5 228 403.5 224.9 403.5 221.1C403.8 217.2 400.7 214.1 396.8 214.1Z" fill="white"/>
<path d="M19.2002 165.6L19.1002 178C19.1002 178 18.5002 177.4 18.0002 176.2C17.6002 175.3 17.3002 174 17.4002 172.3C17.4002 172 17.4002 171.8 17.3002 171.5C17.2002 169.6 18.2002 167.1 18.2002 167.1V167.3C18.7002 165.9 19.2002 165.6 19.2002 165.6ZM19.2002 158.6C17.8002 158.6 16.4002 159 15.2002 159.9C14.0002 160.7 13.0002 161.9 12.3002 163.5C12.0002 163.9 11.8002 164.4 11.6002 164.9C11.2002 166 10.2002 169 10.4002 171.9C10.4002 172.1 10.4002 172.4 10.4002 172.6C10.4002 174.8 10.7002 176.8 11.4002 178.6C11.5002 178.8 11.5002 178.9 11.6002 179.1C12.6002 181.4 13.9002 182.7 14.4002 183.2C15.7002 184.4 17.4002 185 19.1002 185C20.0002 185 21.0002 184.8 21.9002 184.4C24.4002 183.3 26.1002 180.8 26.1002 178L26.2002 165.6C26.2002 163 24.8002 160.6 22.4002 159.4C21.4002 158.8 20.3002 158.6 19.2002 158.6Z" fill="white"/>
<path d="M19.2002 183.6L19.1002 196C19.1002 196 18.5002 195.4 18.0002 194.2C17.6002 193.3 17.3002 192 17.4002 190.3C17.4002 190 17.4002 189.8 17.3002 189.5C17.2002 187.6 18.2002 185.1 18.2002 185.1V185.3C18.7002 184 19.2002 183.6 19.2002 183.6ZM19.2002 176.6C17.8002 176.6 16.4002 177 15.2002 177.9C14.0002 178.7 13.0002 179.9 12.3002 181.5C12.0002 181.9 11.8002 182.4 11.6002 182.9C11.2002 184 10.2002 187 10.4002 189.9C10.4002 190.1 10.4002 190.4 10.4002 190.6C10.4002 192.8 10.7002 194.8 11.4002 196.6C11.5002 196.8 11.5002 196.9 11.6002 197.1C12.6002 199.4 13.8002 200.7 14.4002 201.2C15.7002 202.4 17.4002 203 19.1002 203C20.0002 203 21.0002 202.8 21.9002 202.4C24.4002 201.3 26.1002 198.8 26.1002 196L26.2002 183.6C26.2002 181 24.8002 178.6 22.4002 177.4C21.4002 176.9 20.3002 176.6 19.2002 176.6Z" fill="white"/>
<path d="M410.5 204.4C413.4 204.4 415.7 206.7 415.7 209.6C415.7 211 415.1 212.3 414.2 213.3C414.1 213.4 413.9 213.6 413.7 213.7C412.8 214.4 411.7 214.8 410.5 214.8H408.2V212.8V204.4H410.5V204.4ZM410.5 197.4H408.2C404.3 197.4 401.2 200.5 401.2 204.4V212.8V214.8C401.2 218.7 404.3 221.8 408.2 221.8H410.5C413.2 221.8 415.8 220.9 417.9 219.3C418.4 218.9 418.8 218.5 419.1 218.2C421.4 215.9 422.7 212.8 422.7 209.6C422.6 202.9 417.2 197.4 410.5 197.4Z" fill="white"/>
<path d="M342.7 17.4H324.1C324.1 14.4 326.5 12 329.5 12H337.3C340.3 12 342.7 14.4 342.7 17.4Z" fill="url(#paint0_linear)"/>
<path d="M153.1 165.6H82.2998V222H153.1V165.6Z" fill="#070707"/>
<path d="M387.7 165.6H316.9V222H387.7V165.6Z" fill="#070707"/>
<path d="M408.2 212.8C408.4 217.3 397.9 221.1 393.4 221.1H389V200.7C389 182.8 373.7 171 355.7 171.5C338.3 172 325 184 325 201.3V221.1H151V200.7C151 182.8 136.2 171.1 118.2 171.6C100.8 172.1 87.2 184 87.2 201.4V221.2H24.2C21.6 221.2 19.5 219.1 19.5 216.5V69.1C19.5 65.3 19.9 61.6 20.7 58.1C21.3 55.3 22.2 52.5 23.2 49.9C30.8 30.9 49.4 17.5 71.2 17.5H366C374.3 17.5 381.5 22 385.5 28.6C387.5 32 388.6 35.9 388.6 40.1C388.6 40.1 390 50.6 391.8 74.9C392.7 87.8 393.8 104.6 394.7 125.8C395.2 137.1 395.6 154.4 395.9 163.8C396.9 164.6 405.4 171.1 405.9 175.8C406.6 180.8 407.5 199 408.2 212.8Z" fill="url(#paint1_linear)"/>
<path d="M30.9004 49.7998V221.1H24.1004C21.5004 221.1 19.4004 219 19.4004 216.4V69.0998C19.4004 65.2998 19.8004 61.5998 20.6004 58.0998C21.2004 55.2998 22.1004 52.4998 23.1004 49.8998H30.9004V49.7998Z" fill="url(#paint2_linear)"/>
<path d="M395.5 146.9C395.5 146.9 393.4 94.8002 392.3 81.5002C391.2 68.2002 388.4 36.6002 388.4 36.6002L381.9 31.2002L385.8 104.1L388.7 146.8H395.5V146.9Z" fill="url(#paint3_linear)"/>
<path d="M396 219.8H389L388.9 198.2L381.8 182.2L365.8 172.2L356.5 171.5V149.4H396V219.8Z" fill="url(#paint4_linear)"/>
<path opacity="0.08" d="M153 201.9C153 201.9 172.9 177 221.2 178.2C269.5 179.4 268.8 168 276 162.8C283.3 157.5 316.9 152.4 316.9 152.4H69.7998C69.7998 152.4 85.1998 160.7 93.0998 160.4C109.4 159.9 129.5 164.5 144 167.8C158.6 171 153 201.9 153 201.9Z" fill="white"/>
<path d="M323 179.7V196.5" stroke="#A21C26" stroke-miterlimit="10"/>
<path opacity="0.28" d="M397 190.8C397 190.8 398.1 188.7 401.5 187.7C404.9 186.7 405.3 186.8 405.3 186.8L405 184.5C405 184.5 400.7 184.4 399.5 184.3C398.3 184.2 397 183.5 397 183.5V190.8Z" fill="white"/>
<path d="M94.6998 152.4H92.2998V176.8H94.6998V152.4Z" fill="url(#paint5_linear)"/>
<path d="M152 152.4H149.6V176.8H152V152.4Z" fill="url(#paint6_linear)"/>
<path d="M209.4 152.4H207V176.8H209.4V152.4Z" fill="url(#paint7_linear)"/>
<path d="M266.7 152.4H264.3V176.8H266.7V152.4Z" fill="url(#paint8_linear)"/>
<path d="M322.9 152.4H320.9V176.8H322.9V152.4Z" fill="url(#paint9_linear)"/>
<path d="M94.7998 74.7998H92.2998V106.5H94.7998V74.7998Z" fill="url(#paint10_linear)"/>
<path d="M152.2 74.7998H149.7V106.5H152.2V74.7998Z" fill="url(#paint11_linear)"/>
<path d="M209.6 74.7998H207.1V106.5H209.6V74.7998Z" fill="url(#paint12_linear)"/>
<path d="M76.0004 179.7H73.4004V220.4H76.0004V179.7Z" fill="url(#paint13_linear)"/>
<path d="M75.9004 108.5V220.4" stroke="#A21C26" stroke-miterlimit="10"/>
<path d="M32.7002 108.5V220.4" stroke="#A21C26" stroke-miterlimit="10"/>
<path d="M30.0996 108.5V220.4" stroke="#A21C26" stroke-miterlimit="10"/>
<path d="M73.4004 108.5V220.4" stroke="#A21C26" stroke-miterlimit="10"/>
<path d="M323.8 150H19.5V152.4H323.8V150Z" fill="url(#paint14_linear)"/>
<path d="M152 152.4V221.9" stroke="#A21C26" stroke-miterlimit="10"/>
<path d="M32.6996 179.7H30.0996V220.4H32.6996V179.7Z" fill="url(#paint15_linear)"/>
<path d="M267.1 74.7998H264.6V106.5H267.1V74.7998Z" fill="url(#paint16_linear)"/>
<path d="M324.2 74.7998H321.7V106.5H324.2V74.7998Z" fill="url(#paint17_linear)"/>
<path d="M94.7002 152.8V186.5" stroke="#A21C26" stroke-miterlimit="10"/>
<path d="M323 152.4V176.8" stroke="#A21C26" stroke-miterlimit="10"/>
<path d="M92.2998 152.8V186.5" stroke="#A21C26" stroke-miterlimit="10"/>
<path d="M323.8 152.4H19.5" stroke="#A21C26" stroke-miterlimit="10"/>
<path opacity="0.3" d="M323.8 150H19.5" stroke="white" stroke-miterlimit="10" stroke-linecap="round" stroke-linejoin="round"/>
<path d="M394.4 146.9H326.2V149.4H394.4V146.9Z" fill="url(#paint18_linear)"/>
<path d="M326.2 149.4H395.5" stroke="#A21C26" stroke-miterlimit="10"/>
<path opacity="0.25" d="M326.2 146.9H395.5" stroke="white" stroke-miterlimit="10" stroke-linecap="round" stroke-linejoin="round"/>
<path d="M354.4 149.4V169.6" stroke="#A21C26" stroke-miterlimit="10"/>
<path d="M356.5 149.4V169.6" stroke="#A21C26" stroke-miterlimit="10"/>
<path d="M19.9004 108.5H323.3" stroke="#A21C26" stroke-miterlimit="10"/>
<path opacity="0.25" d="M19.9004 107H323.2" stroke="white" stroke-miterlimit="10" stroke-linecap="round" stroke-linejoin="round"/>
<path opacity="0.28" d="M396.2 164.8L399.6 167.5L405.2 174.1L405.6 176.7V178C405.6 178 404.7 175.9 402.8 174.1C400.9 172.3 396.1 170.4 396.1 170.4V166V164.8H396.2Z" fill="white"/>
<path d="M396.2 166.8C396.2 166.8 399.2 168.9 400.4 169.9C401.6 170.9 403.2 172.7 403.8 173.5C404.4 174.3 405.1 175.7 405.1 175.7L405.7 175.5L403.8 171L399.6 167.6L397.1 164.9L396.3 164.5L396.2 166.8Z" fill="white"/>
<path d="M94.7 176.8H19.5V179.8H94.7V176.8Z" fill="url(#paint19_linear)"/>
<path opacity="0.25" d="M19.9004 176.8H95.2004" stroke="white" stroke-miterlimit="10" stroke-linecap="round" stroke-linejoin="round"/>
<path opacity="0.65" d="M329.8 169.2L327.4 169L329.8 168.2H353.8L353.9 169.8L329.8 169.2Z" fill="white"/>
<path d="M149.6 152.4V221.9" stroke="#A21C26" stroke-miterlimit="10"/>
<path d="M152.1 72.7002V106.5" stroke="#A21C26" stroke-miterlimit="10"/>
<path d="M149.6 72.7002V106.5" stroke="#A21C26" stroke-miterlimit="10"/>
<path d="M94.7002 72.7002V106.5" stroke="#A21C26" stroke-miterlimit="10"/>
<path d="M92.2998 72.7002V106.5" stroke="#A21C26" stroke-miterlimit="10"/>
<path d="M207.1 152.4V221.9" stroke="#A21C26" stroke-miterlimit="10"/>
<path d="M209.5 152.4V221.9" stroke="#A21C26" stroke-miterlimit="10"/>
<path d="M207.1 70.9004V106.5" stroke="#A21C26" stroke-miterlimit="10"/>
<path d="M209.5 70.9004V106.5" stroke="#A21C26" stroke-miterlimit="10"/>
<path d="M264.5 152.4V221.9" stroke="#A21C26" stroke-miterlimit="10"/>
<path d="M320.9 152.4V221.9" stroke="#A21C26" stroke-miterlimit="10"/>
<path d="M321.9 62.9004V106.5" stroke="#A21C26" stroke-miterlimit="10"/>
<path d="M324.2 62.9004V106.5" stroke="#A21C26" stroke-miterlimit="10"/>
<path d="M267 152.4V221.9" stroke="#A21C26" stroke-miterlimit="10"/>
<path d="M264.5 62.9004V106.5" stroke="#A21C26" stroke-miterlimit="10"/>
<path d="M267 62.9004V106.5" stroke="#A21C26" stroke-miterlimit="10"/>
<path d="M331.9 214.5H149.2L143.7 211.6H331.9V214.5Z" fill="url(#paint20_linear)"/>
<path opacity="0.25" d="M153 211.6H322.9" stroke="white" stroke-miterlimit="10" stroke-linecap="round" stroke-linejoin="round"/>
<path d="M331.9 179.7H149.2L143.7 176.8H331.9V179.7Z" fill="url(#paint21_linear)"/>
<path opacity="0.25" d="M142.4 176.8H333.4" stroke="white" stroke-miterlimit="10" stroke-linecap="round" stroke-linejoin="round"/>
<path d="M391.8 74.7998H19.5V69.0998C19.5 68.0998 19.5 67.0998 19.6 66.0998C19.8 63.3998 20.1 60.6998 20.7 57.9998C25.7 34.7998 46.4 17.2998 71.2 17.2998H366C374.3 17.2998 381.5 21.7998 385.5 28.3998C387.5 31.7998 388.6 35.6998 388.6 39.8998C388.6 39.9998 390.1 50.3998 391.8 74.7998Z" fill="url(#paint22_linear)"/>
<path d="M326.2 168.7L323.8 165.4V100.9H326.2V168.7Z" fill="#A21C26"/>
<path d="M94.7002 37.4004V34.9004C94.7002 32.1004 97.0002 29.9004 99.9002 29.9004H144.4C147.3 29.9004 149.6 32.1004 149.6 34.9004V37.4004H94.7002Z" fill="#A21C26"/>
<path d="M152.1 37.4004V34.9004C152.1 32.1004 154.4 29.9004 157.3 29.9004H201.8C204.7 29.9004 207 32.1004 207 34.9004V37.4004H152.1Z" fill="#A21C26"/>
<path d="M209.5 37.4004V34.9004C209.5 32.1004 211.8 29.9004 214.7 29.9004H259.2C262.1 29.9004 264.4 32.1004 264.4 34.9004V37.4004H209.5Z" fill="#A21C26"/>
<path d="M266.9 37.4004V34.9004C266.9 32.1004 269.2 29.9004 272.1 29.9004H316.6C319.5 29.9004 321.8 32.1004 321.8 34.9004V37.4004H266.9Z" fill="#A21C26"/>
<path d="M324.1 37.4004V34.9004C324.1 32.1004 326.4 29.9004 329.3 29.9004L377.4 30.0004C380.3 30.0004 383.4 31.3004 384.3 34.7004L384.5 37.4004H324.1V37.4004Z" fill="#A21C26"/>
<path opacity="0.28" d="M94.7001 142.3C94.7001 142.3 93.7001 149.4 99.0001 149.4C102.3 149.4 143.6 149.4 146.5 149.4C150.4 149.4 149.5 142.6 149.5 142.6L94.7001 142.3Z" fill="white"/>
<path opacity="0.28" d="M37.2997 63.0996C37.2997 63.0996 36.2997 70.1996 41.5997 70.1996C44.8997 70.1996 86.1997 70.1996 89.0997 70.1996C92.9997 70.1996 92.0997 63.3996 92.0997 63.3996L37.2997 63.0996Z" fill="white"/>
<path opacity="0.41" d="M37.2997 61.5C37.2997 61.5 36.2997 68.6 41.5997 68.6C44.8997 68.6 86.1997 68.6 89.0997 68.6C92.9997 68.6 92.0997 61.8 92.0997 61.8L37.2997 61.5Z" fill="white"/>
<path d="M391.7 72.2002H19.7998V74.8002H391.7V72.2002Z" fill="url(#paint23_linear)"/>
<path opacity="0.28" d="M94.7001 63.0996C94.7001 63.0996 93.7001 70.1996 99.0001 70.1996C102.3 70.1996 143.6 70.1996 146.5 70.1996C150.4 70.1996 149.5 63.3996 149.5 63.3996L94.7001 63.0996Z" fill="white"/>
<path opacity="0.41" d="M94.7001 61.5C94.7001 61.5 93.7001 68.6 99.0001 68.6C102.3 68.6 143.6 68.6 146.5 68.6C150.4 68.6 149.5 61.8 149.5 61.8L94.7001 61.5Z" fill="white"/>
<path opacity="0.28" d="M152.1 63.0996C152.1 63.0996 151.1 70.1996 156.4 70.1996C159.7 70.1996 201 70.1996 203.9 70.1996C207.8 70.1996 206.9 63.3996 206.9 63.3996L152.1 63.0996Z" fill="white"/>
<path d="M72.0004 22.6998C72.0004 22.6998 62.8004 24.6998 57.5004 26.4998C52.2004 28.2998 43.4004 33.0998 34.9004 44.5998C26.4004 56.0998 29.3004 72.6998 29.3004 72.6998L19.7004 73.2998L19.4004 66.0998C19.6004 63.3998 19.9004 60.6998 20.5004 57.9998C25.5004 34.7998 46.2004 17.2998 71.0004 17.2998L72.0004 22.6998Z" fill="url(#paint24_radial)"/>
<path opacity="0.25" d="M391.8 72.2002H19.5" stroke="white" stroke-miterlimit="10" stroke-linecap="round" stroke-linejoin="round"/>
<path opacity="0.41" d="M152.1 61.5C152.1 61.5 151.1 68.6 156.4 68.6C159.7 68.6 201 68.6 203.9 68.6C207.8 68.6 206.9 61.8 206.9 61.8L152.1 61.5Z" fill="white"/>
<path opacity="0.28" d="M209.4 63.0996C209.4 63.0996 208.4 70.1996 213.7 70.1996C217 70.1996 258.3 70.1996 261.2 70.1996C265.1 70.1996 264.2 63.3996 264.2 63.3996L209.4 63.0996Z" fill="white"/>
<path opacity="0.41" d="M209.4 61.5C209.4 61.5 208.4 68.6 213.7 68.6C217 68.6 258.3 68.6 261.2 68.6C265.1 68.6 264.2 61.8 264.2 61.8L209.4 61.5Z" fill="white"/>
<path opacity="0.28" d="M266.8 63.0996C266.8 63.0996 265.8 70.1996 271.1 70.1996C274.4 70.1996 315.7 70.1996 318.6 70.1996C322.5 70.1996 321.6 63.3996 321.6 63.3996L266.8 63.0996Z" fill="white"/>
<path opacity="0.41" d="M266.8 61.5C266.8 61.5 265.8 68.6 271.1 68.6C274.4 68.6 315.7 68.6 318.6 68.6C322.5 68.6 321.6 61.8 321.6 61.8L266.8 61.5Z" fill="white"/>
<path opacity="0.28" d="M324.2 63.0996C324.2 63.0996 323.1 70.1996 329.1 70.1996C332.8 70.1996 380.1 70.1996 383.3 70.1996C387.8 70.1996 386.7 63.3996 386.7 63.3996L324.2 63.0996Z" fill="white"/>
<path opacity="0.41" d="M324.2 61.5C324.2 61.5 323.1 68.6 329.1 68.6C332.8 68.6 380.1 68.6 383.3 68.6C387.8 68.6 386.7 61.8 386.7 61.8L324.2 61.5Z" fill="white"/>
<path d="M91.3002 36.3998V63.0998C91.3002 64.9998 89.7002 66.5998 87.8002 66.5998H41.7002C39.8002 66.5998 38.2002 64.9998 38.2002 63.0998V57.7998C38.2002 43.9998 49.4002 32.7998 63.2002 32.7998H87.8002C89.7002 32.8998 91.3002 34.4998 91.3002 36.3998Z" fill="#A1C4C4"/>
<path d="M148.7 36.5V63.2C148.7 65.1 147.1 66.7 145.2 66.7H99.2002C97.3002 66.7 95.7002 65.1 95.7002 63.2V36.5C95.7002 34.5 97.3002 33 99.2002 33H145.2C145.8 33 146.3 33.1 146.8 33.4C147.9 33.9 148.7 35.1 148.7 36.5Z" fill="#A1C4C4"/>
<path d="M148.7 115.1V141.8C148.7 142.5 148.5 143.2 148.1 143.8C147.5 144.7 146.4 145.4 145.2 145.4H99.2002C97.3002 145.4 95.7002 143.8 95.7002 141.9V115.2C95.7002 113.3 97.3002 111.7 99.2002 111.7H145.2C147.1 111.6 148.7 113.2 148.7 115.1Z" fill="#A1C4C4"/>
<path d="M263.5 115.1V141.8C263.5 143.7 261.9 145.3 260 145.3H214C212.1 145.3 210.5 143.7 210.5 141.8V115.1C210.5 113.2 212.1 111.6 214 111.6H260C261.9 111.6 263.5 113.2 263.5 115.1Z" fill="#A1C4C4"/>
<path d="M202.501 66.5994H156.701C154.701 66.5994 153.101 64.9994 153.101 62.9994V36.4994C153.101 34.4994 154.701 32.8994 156.701 32.8994H202.501C204.501 32.8994 206.101 34.4994 206.101 36.4994V62.9994C206.101 64.9994 204.501 66.5994 202.501 66.5994Z" fill="#A1C4C4"/>
<path d="M263.5 36.4994V62.9994C263.5 64.9994 261.9 66.5994 259.9 66.5994H214.1C212.1 66.5994 210.5 64.9994 210.5 62.9994V36.4994C210.5 34.4994 212.1 32.8994 214.1 32.8994H259.9C261.9 32.8994 263.5 34.5994 263.5 36.4994Z" fill="#A1C4C4"/>
<path d="M320.9 36.4994V62.9994C320.9 64.9994 319.3 66.5994 317.3 66.5994H271.5C269.5 66.5994 267.9 64.9994 267.9 62.9994V36.4994C267.9 34.4994 269.5 32.8994 271.5 32.8994H317.3C319.3 32.8994 320.9 34.5994 320.9 36.4994Z" fill="#A1C4C4"/>
<path d="M385.8 62.6994C386 64.7994 384.3 66.5994 382.2 66.5994H328.8C326.8 66.5994 325.2 64.9994 325.2 62.9994V36.4994C325.2 34.4994 326.8 32.8994 328.8 32.8994H380C381.9 32.8994 383.5 34.3994 383.6 36.1994L385.8 62.6994Z" fill="#A1C4C4"/>
<path d="M354.4 107.2V142.2C354.4 143.9 353 145.3 351.3 145.3H331.6C329.9 145.3 328.5 143.9 328.5 142.2V107.2C328.5 105.5 329.9 104.1 331.6 104.1H351.3C353 104.2 354.4 105.5 354.4 107.2Z" fill="#A1C4C4"/>
<path d="M391.3 142.1C391.3 143.8 390 145.3 388.2 145.3H361.6C359.9 145.3 358.5 143.9 358.5 142.2V107.2C358.5 105.5 359.9 104.1 361.6 104.1H387C388.7 104.1 390 105.4 390.1 107.1L391.3 142.1Z" fill="#A1C4C4"/>
<path d="M206.1 123.1V141.8C206.1 143.7 204.5 145.3 202.6 145.3H156.6C154.6 145.3 153.1 143.7 153.1 141.8V123.1H206.1V123.1Z" fill="#A1C4C4"/>
<path d="M206.1 115.1V119.2H153V115.1C153 113.2 154.6 111.6 156.5 111.6H202.5C204.5 111.6 206.1 113.2 206.1 115.1Z" fill="#A1C4C4"/>
<path d="M320.9 123.1V141.8C320.9 143.7 319.3 145.3 317.4 145.3H271.4C269.4 145.3 267.9 143.7 267.9 141.8V123.1H320.9V123.1Z" fill="#A1C4C4"/>
<path d="M320.9 115.1V119.2H267.9V115.1C267.9 113.2 269.5 111.6 271.4 111.6H317.4C319.3 111.6 320.9 113.2 320.9 115.1Z" fill="#A1C4C4"/>
<path opacity="0.5" d="M148.7 42.8994V63.0994C148.7 64.9994 147.1 66.5994 145.2 66.5994H132.6L125.8 32.8994H145.2C145.8 32.8994 146.3 32.9994 146.8 33.2994L148.7 42.8994Z" fill="white"/>
<path opacity="0.5" d="M148.701 115.1V141.8C148.701 142.5 148.501 143.2 148.101 143.8L141.601 111.7H145.101C147.101 111.6 148.701 113.2 148.701 115.1Z" fill="white"/>
<path opacity="0.5" d="M164.1 119.2H153V115.1C153 113.2 154.6 111.6 156.5 111.6H162.5L164.1 119.2Z" fill="white"/>
<path opacity="0.5" d="M169.3 145.3H156.5C154.5 145.3 153 143.7 153 141.8V123.1H164.8L169.3 145.3Z" fill="white"/>
<path opacity="0.5" d="M263.5 36.4994V62.9994C263.5 64.9994 261.9 66.5994 259.9 66.5994H236.8L231 32.8994H259.8C261.9 32.8994 263.5 34.5994 263.5 36.4994Z" fill="white"/>
<path opacity="0.5" d="M263.5 115.1V141.8C263.5 143.7 261.9 145.3 260 145.3H250.1L244.4 111.6H260C261.9 111.6 263.5 113.2 263.5 115.1Z" fill="white"/>
<path opacity="0.5" d="M267.8 62.9994V36.4994C267.8 34.4994 269.4 32.8994 271.4 32.8994H273.7L279.4 66.5994H271.4C269.5 66.5994 267.8 64.9994 267.8 62.9994Z" fill="white"/>
<path opacity="0.5" d="M288.4 119.2H267.9V115.1C267.9 113.2 269.5 111.6 271.4 111.6H287.1L288.4 119.2Z" fill="white"/>
<path opacity="0.5" d="M292.8 145.3H271.4C269.4 145.3 267.9 143.7 267.9 141.8V123.1H289L292.8 145.3Z" fill="white"/>
<path d="M44.6003 47.7C44.0003 49 42.8003 52.2 42.7003 54.2C42.6003 56.2 42.0003 61.8 43.0003 63C44.1003 64.2 49.8003 63.6 51.0003 63.6C52.2003 63.6 46.3003 62.3 45.4003 60.7C44.6003 59.1 44.4003 53.3 45.1003 50.6C45.8003 47.8 47.4003 43.5 47.4003 43.5C47.4003 43.5 45.2003 46.4 44.6003 47.7Z" fill="white"/>
<path d="M99 138.3C99 140.7 100.9 142.6 103.3 142.6H104L99 138.3Z" fill="white"/>
<path d="M124 37.3002H100.5C100.5 36.4002 101.2 35.7002 102.1 35.7002H124V37.3002Z" fill="white"/>
<path opacity="0.3" d="M91.3 36.3994V63.0994C91.3 64.9994 89.7 66.5994 87.8 66.5994H78.7L75.5 32.8994H87.8C89.7 32.8994 91.3 34.4994 91.3 36.3994Z" fill="#68A8DE"/>
<path opacity="0.3" d="M95.6006 63.1V36.5C95.6006 34.5 97.2006 33 99.1006 33H124.001L127.201 66.7H99.2006C97.2006 66.6 95.6006 65.1 95.6006 63.1Z" fill="#68A8DE"/>
<path opacity="0.3" d="M134.6 145.3H99.2002C97.3002 145.3 95.7002 143.7 95.7002 141.8V115.1C95.7002 113.2 97.3002 111.6 99.2002 111.6H131.5L134.6 145.3Z" fill="#68A8DE"/>
<path opacity="0.3" d="M320.9 36.4994V62.9994C320.9 64.9994 319.3 66.5994 317.3 66.5994H296.5L291.8 32.8994H317.3C319.3 32.8994 320.9 34.5994 320.9 36.4994Z" fill="#68A8DE"/>
<path opacity="0.3" d="M320.9 115.1V119.2H303.8L302.7 111.5H317.4C319.3 111.6 320.9 113.2 320.9 115.1Z" fill="#68A8DE"/>
<path opacity="0.3" d="M304.3 123.1H320.9V141.8C320.9 143.7 319.3 145.3 317.4 145.3H307.4L304.3 123.1Z" fill="#68A8DE"/>
<path opacity="0.3" d="M354.4 107.2V142.2C354.4 143.9 353 145.3 351.3 145.3H331.6C329.9 145.3 328.5 143.9 328.5 142.2V107.2C328.5 105.5 329.9 104.1 331.6 104.1H351.3C353 104.2 354.4 105.5 354.4 107.2Z" fill="#68A8DE"/>
<path opacity="0.3" d="M368.5 66.5994H328.9C326.9 66.5994 325.3 64.9994 325.3 62.9994V36.4994C325.3 34.4994 326.9 32.8994 328.9 32.8994H363.8L368.5 66.5994Z" fill="#68A8DE"/>
<path opacity="0.3" d="M379.4 145.3H361.6C359.9 145.3 358.5 143.9 358.5 142.2V107.2C358.5 105.5 359.9 104.1 361.6 104.1H373.7L379.4 145.3Z" fill="#68A8DE"/>
<path opacity="0.4" d="M361 66.5994H353.5L349.3 32.8994H356.8L361 66.5994Z" fill="white"/>
<path opacity="0.4" d="M370.7 145.3L365.6 104.2H361.5C359.8 104.2 358.4 105.6 358.4 107.3V107.4L363.1 145.3H370.7Z" fill="white"/>
<path opacity="0.28" d="M152.2 142.3C152.2 142.3 151.2 149.4 156.5 149.4C159.8 149.4 201.1 149.4 204 149.4C207.9 149.4 207 142.6 207 142.6L152.2 142.3Z" fill="white"/>
<path opacity="0.28" d="M209.6 142.3C209.6 142.3 208.6 149.4 213.9 149.4C217.2 149.4 258.5 149.4 261.4 149.4C265.3 149.4 264.4 142.6 264.4 142.6L209.6 142.3Z" fill="white"/>
<path opacity="0.28" d="M267 142.3C267 142.3 266 149.4 271.3 149.4C274.6 149.4 315.9 149.4 318.8 149.4C322.7 149.4 321.8 142.6 321.8 142.6L267 142.3Z" fill="white"/>
<path opacity="0.63" d="M384.7 28.4998L384.3 29.6998C384.3 29.6998 381.4 26.9998 375.9 24.7998C370.3 22.5998 363.1 22.6998 363.1 22.6998C363.1 22.6998 89.5004 22.6998 64.0004 22.6998C32.6004 22.6998 20.5004 56.8998 19.9004 57.9998C24.9004 34.7998 45.6004 17.2998 70.4004 17.2998H365.3C373.5 17.3998 380.8 21.7998 384.7 28.4998Z" fill="#FFD297"/>
<path d="M393.3 221.1C397.8 221.1 408.4 217.3 408.1 212.8C407.4 199 406.6 180.8 405.9 175.7C405.3 171 396.9 164.5 395.9 163.7C395.6 154.3 395.2 137 394.7 125.7C392 64.4004 388.6 40.0004 388.6 40.0004C388.6 27.5004 378.5 17.4004 366 17.4004H71.2C42.6 17.4004 19.5 40.6004 19.5 69.1004V216.4C19.5 219 21.6 221.1 24.2 221.1H87.3V201.3C87.3 183.9 100.9 172.8 118.3 172.3C136.3 171.8 151.1 182.7 151.1 200.6V221H325.1V201.2C325.1 183.8 339.9 171.8 357.3 171.4C375.3 170.9 389.1 182.7 389.1 200.6V221H396.9L393.3 221.1Z" stroke="black" stroke-width="2" stroke-miterlimit="10" stroke-linecap="round" stroke-linejoin="round"/>
<path d="M87.8002 66.6004H41.7002C39.8002 66.6004 38.2002 65.0004 38.2002 63.1004V57.8004C38.2002 44.0004 49.4002 32.9004 63.1002 32.9004H87.7002C89.6002 32.9004 91.2002 34.5004 91.2002 36.4004V63.1004C91.3002 65.1004 89.7002 66.6004 87.8002 66.6004Z" stroke="black" stroke-width="2" stroke-miterlimit="10" stroke-linecap="round" stroke-linejoin="round"/>
<path d="M145.2 66.6H99.2002C97.3002 66.6 95.7002 65 95.7002 63.1V36.5C95.7002 34.6 97.3002 33 99.2002 33H145.2C147.1 33 148.7 34.6 148.7 36.5V63.2C148.7 65.1 147.1 66.6 145.2 66.6Z" stroke="black" stroke-width="2" stroke-miterlimit="10" stroke-linecap="round" stroke-linejoin="round"/>
<path d="M145.2 145.301H99.2002C97.3002 145.301 95.7002 143.701 95.7002 141.801V115.101C95.7002 113.201 97.3002 111.601 99.2002 111.601H145.2C147.1 111.601 148.7 113.201 148.7 115.101V141.801C148.7 143.701 147.1 145.301 145.2 145.301Z" stroke="black" stroke-width="2" stroke-miterlimit="10" stroke-linecap="round" stroke-linejoin="round"/>
<path d="M260 145.301H214C212.1 145.301 210.5 143.701 210.5 141.801V115.101C210.5 113.201 212.1 111.601 214 111.601H260C261.9 111.601 263.5 113.201 263.5 115.101V141.801C263.5 143.701 261.9 145.301 260 145.301Z" stroke="black" stroke-width="2" stroke-miterlimit="10" stroke-linecap="round" stroke-linejoin="round"/>
<path d="M382.2 66.6004H328.9C326.9 66.6004 325.3 65.0004 325.3 63.0004V36.5004C325.3 34.5004 326.9 32.9004 328.9 32.9004H380.1C382 32.9004 383.6 34.3004 383.7 36.2004L385.8 62.7004C386 64.8004 384.3 66.6004 382.2 66.6004Z" stroke="black" stroke-width="2" stroke-miterlimit="10" stroke-linecap="round" stroke-linejoin="round"/>
<path d="M351.3 145.301H331.6C329.9 145.301 328.5 143.901 328.5 142.201V107.201C328.5 105.501 329.9 104.101 331.6 104.101H351.3C353 104.101 354.4 105.501 354.4 107.201V142.201C354.4 143.901 353 145.301 351.3 145.301Z" stroke="black" stroke-width="2" stroke-miterlimit="10" stroke-linecap="round" stroke-linejoin="round"/>
<path d="M388.2 145.301H361.6C359.9 145.301 358.5 143.901 358.5 142.201V107.201C358.5 105.501 359.9 104.101 361.6 104.101H387.1C388.8 104.101 390.1 105.401 390.2 107.101L391.4 142.101C391.3 143.801 389.9 145.301 388.2 145.301Z" stroke="black" stroke-width="2" stroke-miterlimit="10" stroke-linecap="round" stroke-linejoin="round"/>
<path d="M153 141.801C153 143.701 154.6 145.301 156.5 145.301H202.5C204.4 145.301 206 143.701 206 141.801V123.101H153V141.801Z" stroke="black" stroke-width="2" stroke-miterlimit="10" stroke-linecap="round" stroke-linejoin="round"/>
<path d="M202.6 111.601H156.6C154.7 111.601 153.1 113.201 153.1 115.101V119.201H206.1V115.101C206.1 113.201 204.5 111.601 202.6 111.601Z" stroke="black" stroke-width="2" stroke-miterlimit="10" stroke-linecap="round" stroke-linejoin="round"/>
<path d="M267.9 141.801C267.9 143.701 269.5 145.301 271.4 145.301H317.4C319.3 145.301 320.9 143.701 320.9 141.801V123.101H267.9V141.801Z" stroke="black" stroke-width="2" stroke-miterlimit="10" stroke-linecap="round" stroke-linejoin="round"/>
<path d="M317.4 111.601H271.4C269.5 111.601 267.9 113.201 267.9 115.101V119.201H320.9V115.101C320.9 113.201 319.3 111.601 317.4 111.601Z" stroke="black" stroke-width="2" stroke-miterlimit="10" stroke-linecap="round" stroke-linejoin="round"/>
<path d="M386.6 221.2V202.2C386.6 185.6 372.9 173.8 356.2 174.2C340.1 174.6 327.5 186.7 327.5 202.8V221.1H323V202.8C323 202.8 320.9 169.6 356.4 169.6C394.1 169.6 391.2 202.3 391.2 202.3V221.1H386.6V221.2Z" fill="#29292D" stroke="black" stroke-width="2" stroke-miterlimit="10"/>
<path d="M148.4 221.2V202.2C148.4 185.6 134.7 173.8 118 174.2C101.9 174.6 89.2999 186.7 89.2999 202.8V221.1H84.7999V202.8C84.7999 202.8 82.6999 169.6 118.2 169.6C155.9 169.6 153 202.3 153 202.3V221.1H148.4V221.2Z" fill="#29292D" stroke="black" stroke-width="2" stroke-miterlimit="10"/>
<path d="M310.8 186V189.4C310.8 189.7 310.7 190 310.6 190.3C310.3 191.2 309.4 191.8 308.4 191.8H299.4C298.4 191.8 297.6 191.2 297.2 190.3C297.1 190 297 189.7 297 189.4V186C297 184.7 298.1 183.6 299.4 183.6H308.4C309.7 183.6 310.8 184.6 310.8 186Z" fill="#A21C26"/>
<path d="M383.9 126.5H383.3C382 126.5 380.9 125.4 380.9 124.1V118C380.9 116.7 382 115.6 383.3 115.6H383.9C385.2 115.6 386.3 116.7 386.3 118V124.1C386.3 125.4 385.3 126.5 383.9 126.5Z" fill="url(#paint25_radial)" stroke="black" stroke-width="1.792" stroke-miterlimit="10"/>
<path d="M310.8 186V189.4C310.8 189.7 310.7 190 310.6 190.3C310.3 191.2 309.4 191.8 308.4 191.8H299.4C298.4 191.8 297.6 191.2 297.2 190.3C297.1 190 297 189.7 297 189.4V186C297 184.7 298.1 183.6 299.4 183.6H308.4C309.7 183.6 310.8 184.6 310.8 186Z" fill="#A21C26"/>
<path opacity="0.35" d="M310.8 188.3V189.4C310.8 189.7 310.7 190 310.6 190.3C310.3 191.2 309.4 191.8 308.4 191.8H299.4C298.4 191.8 297.6 191.2 297.2 190.3C297.1 190 297 189.7 297 189.4V188.3C297 187 298.1 185.9 299.4 185.9H308.4C309.7 185.9 310.8 187 310.8 188.3Z" fill="#070707"/>
<path opacity="0.65" d="M310.6 190.3C310.3 191.2 309.4 191.8 308.4 191.8H299.4C298.4 191.8 297.6 191.2 297.2 190.3H310.6Z" fill="white"/>
<path d="M308.4 191.7H299.4C298.1 191.7 297 190.6 297 189.3V186C297 184.7 298.1 183.6 299.4 183.6H308.4C309.7 183.6 310.8 184.7 310.8 186V189.4C310.8 190.7 309.7 191.7 308.4 191.7Z" stroke="black" stroke-miterlimit="10" stroke-linecap="round" stroke-linejoin="round"/>
<path d="M342.7 17.4H324.1C324.1 14.4 326.5 12 329.5 12H337.3C340.3 12 342.7 14.4 342.7 17.4Z" stroke="black" stroke-width="2" stroke-miterlimit="10" stroke-linecap="round" stroke-linejoin="round"/>
<path d="M384.2 94.5H19.5V100.8H384.2V94.5Z" fill="#F5CD7F" stroke="black" stroke-width="2" stroke-miterlimit="10"/>
<path opacity="0.56" d="M57.4 30.7002C57.4 30.7002 44 33.0002 39.7 39.3002C35.4 45.6002 35 55.9002 35 55.9002C35 55.9002 37.5 44.4002 42.7 39.2002C49.8 32.0002 57.4 30.7002 57.4 30.7002Z" fill="white"/>
<path d="M30.0996 179.7V220.4" stroke="#A21C26" stroke-miterlimit="10"/>
<path d="M146.1 179.7H330.3" stroke="black" stroke-miterlimit="10" stroke-linecap="round" stroke-linejoin="round"/>
<path d="M326.2 163.2C326.2 163.2 326.2 165.2 327.8 166.6C328.8 167.5 329.8 168.2 329.8 168.2L327.5 169L329.2 169.7L328.2 169.5L326.7 168.7L325.3 167.4L326.2 163.2Z" fill="#A21C26"/>
<path opacity="0.65" d="M143.7 149.4C143.7 149.4 146.3 148.8 147.6 147.9C148.9 146.9 149.6 145.3 149.6 145.3C149.6 145.3 149.3 148 148.1 148.8C146.9 149.6 143.7 149.4 143.7 149.4Z" fill="white"/>
<path opacity="0.65" d="M201.2 149.4C201.2 149.4 203.8 148.8 205.1 147.9C206.4 146.9 207.1 145.3 207.1 145.3C207.1 145.3 206.8 148 205.6 148.8C204.4 149.6 201.2 149.4 201.2 149.4Z" fill="white"/>
<path opacity="0.65" d="M258.6 149.4C258.6 149.4 261.2 148.8 262.5 147.9C263.8 146.9 264.5 145.3 264.5 145.3C264.5 145.3 264.2 148 263 148.8C261.8 149.6 258.6 149.4 258.6 149.4Z" fill="white"/>
<path opacity="0.65" d="M381 70.1C381 70.1 383.6 69.5 384.9 68.6C386.2 67.6 386.9 66 386.9 66C386.9 66 386.6 68.7 385.4 69.5C384.2 70.3 381 70.1 381 70.1Z" fill="white"/>
<path opacity="0.65" d="M315.9 149.4C315.9 149.4 318.5 148.8 319.8 147.9C321.1 146.9 321.8 145.3 321.8 145.3C321.8 145.3 321.5 148 320.3 148.8C319.1 149.6 315.9 149.4 315.9 149.4Z" fill="white"/>
<path d="M415.6 209.6C415.6 211 415 212.3 414.1 213.3C414 213.4 413.8 213.6 413.6 213.7C412.7 214.4 411.6 214.8 410.4 214.8H408.1V204.5H410.4C413.3 204.4 415.6 206.8 415.6 209.6Z" fill="#36383D" stroke="black" stroke-width="2" stroke-miterlimit="10"/>
<path d="M19.5 204.4V214.7H17.2C15.8 214.7 14.5 214.1 13.5 213.2C12.9 212.6 12.5 211.8 12.2 211C12.1 210.5 12 210 12 209.5C12 206.7 14.3 204.3 17.2 204.3H19.5V204.4Z" fill="#36383D" stroke="black" stroke-width="2" stroke-miterlimit="10"/>
<path d="M32.7002 220.4V179.7H73.4002V220.4" stroke="#A21C26" stroke-miterlimit="10"/>
<path d="M19.5 179.7H92.3" stroke="black" stroke-miterlimit="10" stroke-linecap="round" stroke-linejoin="round"/>
<path opacity="0.56" d="M33.3998 89.6996V114.5C33.3998 114.5 35.4998 108.7 35.4998 103.9C35.4998 99.0996 34.3998 94.3996 34.3998 91.6996C34.3998 88.9996 33.2998 84.5996 33.2998 84.5996V89.6996H33.3998Z" fill="white"/>
<path opacity="0.55" d="M93 30.7996C92.4 30.7996 92 30.2996 92 29.7996L92.5 18.5996H93.4L94 29.6996C94 30.2996 93.6 30.7996 93 30.7996Z" fill="url(#paint26_linear)"/>
<path opacity="0.55" d="M150.3 30.7996C149.7 30.7996 149.3 30.2996 149.3 29.7996L149.8 18.5996H150.7L151.3 29.7996C151.3 30.2996 150.9 30.7996 150.3 30.7996Z" fill="url(#paint27_linear)"/>
<path opacity="0.55" d="M207.6 30.7996C207 30.7996 206.6 30.2996 206.6 29.7996L207.1 18.5996H208L208.6 29.7996C208.6 30.2996 208.2 30.7996 207.6 30.7996Z" fill="url(#paint28_linear)"/>
<path opacity="0.55" d="M264.9 30.7996C264.3 30.7996 263.9 30.2996 263.9 29.7996L264.4 18.5996H265.3L265.9 29.7996C265.9 30.2996 265.5 30.7996 264.9 30.7996Z" fill="url(#paint29_linear)"/>
<path opacity="0.55" d="M322.2 30.7996C321.6 30.7996 321.2 30.2996 321.2 29.7996L321.7 18.5996H322.6L323.2 29.7996C323.2 30.2996 322.7 30.7996 322.2 30.7996Z" fill="url(#paint30_linear)"/>
<path d="M323.8 100.9V164C323.8 167.2 326.4 169.8 329.6 169.8H350.8" stroke="black" stroke-miterlimit="10" stroke-linecap="round" stroke-linejoin="round"/>
<path d="M396 153.8V219.8" stroke="black" stroke-miterlimit="10" stroke-linecap="round" stroke-linejoin="round"/>
<path opacity="0.65" d="M282.7 176.2H318.9C318.9 176.2 306.1 174.7 301 175C295.9 175.3 282.7 176.2 282.7 176.2Z" fill="white"/>
<path d="M153 214.8H323" stroke="black" stroke-miterlimit="10" stroke-linecap="round" stroke-linejoin="round"/>
<path opacity="0.65" d="M267.9 211H318.9C318.9 211 305.4 210.3 297 210.3C288.6 210.3 267.9 211 267.9 211Z" fill="white"/>
<path d="M354.4 120.9H328.5V123.1H354.4V120.9Z" fill="#FE1018" stroke="black" stroke-miterlimit="10" stroke-linecap="round" stroke-linejoin="round"/>
<path d="M354.4 136.8H328.5V139H354.4V136.8Z" fill="#FE1018" stroke="black" stroke-miterlimit="10" stroke-linecap="round" stroke-linejoin="round"/>
<path d="M234.6 198.4C232.6 198.4 230.9 196.7 230.9 194.7V188.2C230.9 186.2 232.6 184.5 234.6 184.5C236.6 184.5 238.3 186.2 238.3 188.2V194.7C238.2 196.8 236.6 198.4 234.6 198.4Z" fill="#070707"/>
<path d="M234.8 200.1H234.2C231.5 200.1 229.3 197.9 229.3 195.2V187.6C229.3 184.9 231.5 182.7 234.2 182.7H234.8C237.5 182.7 239.7 184.9 239.7 187.6V195.2C239.7 197.9 237.5 200.1 234.8 200.1Z" stroke="#A21C26" stroke-width="0.9445" stroke-miterlimit="10"/>
<path d="M237.2 194.5C237.2 195.9 236 197.1 234.6 197.1C233.2 197.1 232 195.9 232 194.5C232 194 232.1 193.6 232.4 193.2C232.9 192.4 233.7 191.9 234.6 191.9C235.5 191.9 236.3 192.4 236.8 193.1C237 193.5 237.2 193.9 237.2 194.5Z" fill="#36383D"/>
<path opacity="0.25" d="M236.8 193.1C236.3 193.9 235.5 194.4 234.6 194.4C233.7 194.4 232.9 193.9 232.4 193.2C232.9 192.4 233.7 191.9 234.6 191.9C235.5 191.9 236.3 192.3 236.8 193.1Z" fill="white"/>
<path d="M402.3 187.6L402.8 200C402.8 200 404.9 198 404.2 193.2C403.6 188.4 402.3 187.6 402.3 187.6Z" stroke="black" stroke-width="2" stroke-miterlimit="10" stroke-linecap="round" stroke-linejoin="round"/>
<path d="M403.3 189.1C403.3 189.1 404.3 191.6 404.3 193.5C404.3 195.4 403.8 198.2 403.8 198.2L403.3 189.1Z" fill="white"/>
<path d="M19.2003 165.6L19.1003 178C19.1003 178 17.0003 176.1 17.4003 171.3C17.8003 166.5 19.2003 165.6 19.2003 165.6Z" stroke="black" stroke-width="2" stroke-miterlimit="10" stroke-linecap="round" stroke-linejoin="round"/>
<path d="M18.1998 167.1C18.1998 167.1 17.2998 169.6 17.2998 171.5C17.2998 173.4 17.9998 176.2 17.9998 176.2L18.1998 167.1Z" fill="white"/>
<path d="M19.2003 183.6L19.1003 196C19.1003 196 17.0003 194.1 17.4003 189.3C17.8003 184.5 19.2003 183.6 19.2003 183.6Z" stroke="black" stroke-width="2" stroke-miterlimit="10" stroke-linecap="round" stroke-linejoin="round"/>
<path d="M18.1998 185.2C18.1998 185.2 17.2998 187.7 17.2998 189.6C17.2998 191.5 17.9998 194.3 17.9998 194.3L18.1998 185.2Z" fill="white"/>
<path d="M391.8 74.7998H19.5" stroke="black" stroke-miterlimit="10" stroke-linecap="round" stroke-linejoin="round"/>
<path opacity="0.65" d="M259.2 106.5H312.6C312.6 106.5 297.3 106.6 295.9 107C294.5 107.4 284.2 107.7 281 107.5C277.7 107.3 270.6 107.3 267.9 107C265.2 106.7 259.2 106.5 259.2 106.5Z" fill="white"/>
<path d="M330.8 123.1H328.5V136.8H330.8V123.1Z" fill="#FE1018" stroke="black" stroke-miterlimit="10" stroke-linecap="round" stroke-linejoin="round"/>
<path opacity="0.65" d="M354 137.3H329.1V137.8H354V137.3Z" fill="white"/>
<path opacity="0.65" d="M354 121.4H329.1V121.9H354V121.4Z" fill="white"/>
<path opacity="0.56" d="M33.4004 88.1V93.3H46.3004C46.3004 93.3 34.9004 92.5 34.5004 92.3C34.0004 92.1 33.9004 91.6 33.9004 90.9C33.9004 90.2 33.6004 89.8 33.7004 89.4C33.8004 89.1 33.9004 88.3 33.7004 88.1C33.5004 87.9 33.4004 87.5 33.4004 87.5V88.1Z" fill="white"/>
<path opacity="0.2" d="M92.2002 95.5V99.9" stroke="#A21C26" stroke-miterlimit="10"/>
<path opacity="0.2" d="M94.7002 95.5V99.9" stroke="#A21C26" stroke-miterlimit="10"/>
<path opacity="0.2" d="M149.6 95.5V99.9" stroke="#A21C26" stroke-miterlimit="10"/>
<path opacity="0.2" d="M152.2 95.5V99.9" stroke="#A21C26" stroke-miterlimit="10"/>
<path opacity="0.2" d="M207 95.5V99.9" stroke="#A21C26" stroke-miterlimit="10"/>
<path opacity="0.2" d="M209.6 95.5V99.9" stroke="#A21C26" stroke-miterlimit="10"/>
<path opacity="0.2" d="M264.4 95.5V99.9" stroke="#A21C26" stroke-miterlimit="10"/>
<path opacity="0.2" d="M266.9 95.5V99.9" stroke="#A21C26" stroke-miterlimit="10"/>
<path opacity="0.2" d="M321.9 95.5V99.9" stroke="#A21C26" stroke-miterlimit="10"/>
<path opacity="0.2" d="M324.4 95.5V99.9" stroke="#A21C26" stroke-miterlimit="10"/>
<path opacity="0.15" d="M85.8003 209.5C85.8003 209.5 82.2003 171.5 118.6 171.5C154.7 171.5 152 209.5 152 209.5C152 209.5 157.8 170.1 118.5 170.1C80.3003 170.2 85.8003 209.5 85.8003 209.5Z" fill="white"/>
<path opacity="0.15" d="M324 209.8C324 209.8 320.3 171.5 357.2 171.5C394.1 171.5 390.1 209.6 390.1 209.6C390.1 209.6 396.2 170.1 357.1 170.1C318.3 170.2 324 209.8 324 209.8Z" fill="white"/>
<path opacity="0.56" d="M89.7998 185.4C89.7998 185.4 95.8998 171 117.7 171C142.5 171 149.1 187.5 149.1 187.5C149.1 187.5 143.1 169.7 117.7 169.7C96.3998 169.6 89.7998 185.4 89.7998 185.4Z" fill="white"/>
<path opacity="0.56" d="M328 185.4C328 185.4 334.1 171 355.9 171C380.7 171 387.5 187.7 387.5 187.7C387.5 187.7 381.3 169.7 355.9 169.7C334.6 169.6 328 185.4 328 185.4Z" fill="white"/>
<path d="M202.7 115.6H156.1V115.5C156.1 114.5 156.9 113.7 157.9 113.7H200.9C201.9 113.7 202.7 114.5 202.7 115.6Z" fill="white"/>
<path d="M317.7 115.6H271.1V115.5C271.1 114.5 271.9 113.7 272.9 113.7H315.9C316.9 113.7 317.7 114.5 317.7 115.6Z" fill="white"/>
<path opacity="0.65" d="M98.5996 18.5H343.8C343.8 18.5 334.6 19.2 279.2 21.2C223.8 23.2 98.5996 18.5 98.5996 18.5Z" fill="white"/>
<path d="M327.4 221.2H148.7V223.5H327.4V221.2Z" fill="#36383D" stroke="black" stroke-width="2" stroke-miterlimit="10"/>
<path d="M321.2 40.2998H267.5V44.0998H321.2V40.2998Z" fill="url(#paint31_linear)"/>
<path d="M267.9 63.0002C267.9 65.0002 269.5 66.6002 271.5 66.6002H317.3C319.3 66.6002 320.9 65.0002 320.9 63.0002V44.2002H267.9V63.0002V63.0002Z" stroke="black" stroke-width="2" stroke-miterlimit="10" stroke-linecap="round" stroke-linejoin="round"/>
<path d="M317.3 32.9004H271.5C269.5 32.9004 267.9 34.5004 267.9 36.5004V40.3004H320.9V36.5004C320.9 34.6004 319.3 32.9004 317.3 32.9004Z" stroke="black" stroke-width="2" stroke-miterlimit="10" stroke-linecap="round" stroke-linejoin="round"/>
<path d="M263.7 40.2998H210V44.0998H263.7V40.2998Z" fill="url(#paint32_linear)"/>
<path d="M210.4 63.0002C210.4 65.0002 212 66.6002 214 66.6002H259.8C261.8 66.6002 263.4 65.0002 263.4 63.0002V44.2002H210.4V63.0002V63.0002Z" stroke="black" stroke-width="2" stroke-miterlimit="10" stroke-linecap="round" stroke-linejoin="round"/>
<path d="M259.8 32.9004H214C212 32.9004 210.4 34.5004 210.4 36.5004V40.3004H263.4V36.5004C263.4 34.6004 261.8 32.9004 259.8 32.9004Z" stroke="black" stroke-width="2" stroke-miterlimit="10" stroke-linecap="round" stroke-linejoin="round"/>
<path d="M206.2 40.2998H152.5V44.0998H206.2V40.2998Z" fill="url(#paint33_linear)"/>
<path d="M152.9 63.0002C152.9 65.0002 154.5 66.6002 156.5 66.6002H202.3C204.3 66.6002 205.9 65.0002 205.9 63.0002V44.2002H152.9V63.0002Z" stroke="black" stroke-width="2" stroke-miterlimit="10" stroke-linecap="round" stroke-linejoin="round"/>
<path d="M202.3 32.9004H156.5C154.5 32.9004 152.9 34.5004 152.9 36.5004V40.3004H205.9V36.5004C205.9 34.6004 204.3 32.9004 202.3 32.9004Z" stroke="black" stroke-width="2" stroke-miterlimit="10" stroke-linecap="round" stroke-linejoin="round"/>
<path opacity="0.55" d="M153 120.8H206.1" stroke="white" stroke-miterlimit="10" stroke-linecap="round" stroke-linejoin="round"/>
<path opacity="0.55" d="M267.8 120.8H320.9" stroke="white" stroke-miterlimit="10" stroke-linecap="round" stroke-linejoin="round"/>
<path opacity="0.55" d="M267.8 41.9004H320.9" stroke="white" stroke-miterlimit="10" stroke-linecap="round" stroke-linejoin="round"/>
<path opacity="0.55" d="M210.3 41.9004H263.4" stroke="white" stroke-miterlimit="10" stroke-linecap="round" stroke-linejoin="round"/>
<path opacity="0.55" d="M152.8 41.9004H205.9" stroke="white" stroke-miterlimit="10" stroke-linecap="round" stroke-linejoin="round"/>
<path d="M29.5 150H20.5V152.4H29.5V150Z" fill="url(#paint34_linear)"/>
<path d="M29.5 177.1H20.5V179.5H29.5V177.1Z" fill="url(#paint35_linear)"/>
<path d="M149.2 206.6C149.2 223 135.9 236.4 119.4 236.4C102.9 236.4 89.5996 223 89.5996 206.6C89.5996 204.8 89.7996 203.1 90.0996 201.4C92.5996 187.4 104.8 176.8 119.4 176.8C133.2 176.8 144.8 186.2 148.2 198.9C148.9 201.3 149.2 203.9 149.2 206.6Z" fill="url(#paint36_radial)" stroke="black" stroke-width="2" stroke-miterlimit="10"/>
<path d="M119.4 224.9C129.506 224.9 137.7 216.707 137.7 206.6C137.7 196.493 129.506 188.3 119.4 188.3C109.293 188.3 101.1 196.493 101.1 206.6C101.1 216.707 109.293 224.9 119.4 224.9Z" fill="url(#paint37_radial)" stroke="black" stroke-width="2" stroke-miterlimit="10"/>
<path d="M119.4 221C127.353 221 133.8 214.553 133.8 206.6C133.8 198.647 127.353 192.2 119.4 192.2C111.447 192.2 105 198.647 105 206.6C105 214.553 111.447 221 119.4 221Z" fill="url(#paint38_radial)" stroke="black" stroke-width="2" stroke-miterlimit="10"/>
<path d="M119.4 213.7C123.321 213.7 126.5 210.521 126.5 206.6C126.5 202.679 123.321 199.5 119.4 199.5C115.479 199.5 112.3 202.679 112.3 206.6C112.3 210.521 115.479 213.7 119.4 213.7Z" fill="#2D0509" stroke="black" stroke-width="2" stroke-miterlimit="10"/>
<path d="M119.4 209C120.725 209 121.8 207.926 121.8 206.6C121.8 205.275 120.725 204.2 119.4 204.2C118.075 204.2 117 205.275 117 206.6C117 207.926 118.075 209 119.4 209Z" fill="url(#paint39_radial)" stroke="black" stroke-width="1.4126" stroke-miterlimit="10"/>
<path opacity="0.39" d="M119.4 231.2C132.986 231.2 144 220.186 144 206.6C144 193.014 132.986 182 119.4 182C105.814 182 94.7998 193.014 94.7998 206.6C94.7998 220.186 105.814 231.2 119.4 231.2Z" stroke="black" stroke-miterlimit="10" stroke-linecap="round"/>
<path opacity="0.63" d="M148.2 198.9C142.1 187.3 131.7 182.1 119.8 182.1C107.1 182.1 95.9996 188.5 90.0996 201.4C92.5996 187.4 104.8 176.8 119.4 176.8C133.2 176.8 144.8 186.1 148.2 198.9Z" fill="#070707"/>
<path d="M386.9 206.6C386.9 223 373.6 236.4 357.1 236.4C340.6 236.4 327.3 223.1 327.3 206.6C327.3 204.8 327.5 203.1 327.8 201.4C330.3 187.4 342.5 176.8 357.1 176.8C370.9 176.8 382.5 186.2 385.9 198.9C386.5 201.3 386.9 203.9 386.9 206.6Z" fill="url(#paint40_radial)" stroke="black" stroke-width="2" stroke-miterlimit="10"/>
<path d="M357.1 224.9C367.207 224.9 375.4 216.707 375.4 206.6C375.4 196.493 367.207 188.3 357.1 188.3C346.993 188.3 338.8 196.493 338.8 206.6C338.8 216.707 346.993 224.9 357.1 224.9Z" fill="url(#paint41_radial)" stroke="black" stroke-width="2" stroke-miterlimit="10"/>
<path d="M357.1 221C365.053 221 371.5 214.553 371.5 206.6C371.5 198.647 365.053 192.2 357.1 192.2C349.147 192.2 342.7 198.647 342.7 206.6C342.7 214.553 349.147 221 357.1 221Z" fill="url(#paint42_radial)" stroke="black" stroke-width="2" stroke-miterlimit="10"/>
<path d="M357.1 215.7C362.126 215.7 366.2 211.626 366.2 206.6C366.2 201.574 362.126 197.5 357.1 197.5C352.074 197.5 348 201.574 348 206.6C348 211.626 352.074 215.7 357.1 215.7Z" fill="url(#paint43_radial)" stroke="black" stroke-width="2.5598" stroke-miterlimit="10"/>
<path opacity="0.25" d="M357.099 208.299C358.038 208.299 358.799 207.538 358.799 206.599C358.799 205.661 358.038 204.899 357.099 204.899C356.161 204.899 355.399 205.661 355.399 206.599C355.399 207.538 356.161 208.299 357.099 208.299Z" fill="white"/>
<path opacity="0.39" d="M357.1 231.2C370.686 231.2 381.7 220.186 381.7 206.6C381.7 193.014 370.686 182 357.1 182C343.514 182 332.5 193.014 332.5 206.6C332.5 220.186 343.514 231.2 357.1 231.2Z" stroke="black" stroke-miterlimit="10" stroke-linecap="round"/>
<path opacity="0.63" d="M385.8 198.8C379.7 187.2 364.2 185.2 351.8 189C328.7 196.1 333.6 208.9 327.8 221.9C323 181.1 342.5 176.7 357.1 176.7C370.9 176.8 382.5 186.1 385.8 198.8Z" fill="#070707"/>
<path opacity="0.56" d="M20.5 128.4V193.1C20.5 193.1 21.5 174.1 22.3 165.6C23.1 157.1 23.2 151.9 22.3 148.8C21.4 145.7 20.6 143.2 21.7 140.4C22.8 137.6 23.7 136.6 22.9 134C22 131.3 20.5 128.4 20.5 128.4Z" fill="white"/>
<path opacity="0.12" d="M179.4 177.1H258.6C258.6 177.1 236.8 176.5 234.6 173.7C232.4 170.8 222.6 170.4 220.1 172C217.6 173.6 206.4 176.3 204.1 174.1C201.7 172 196.2 173.4 194.1 174.1C192 174.8 185.5 177.3 184.9 176.2C184.3 175.1 182.5 175.1 182 175.5C181.5 175.9 179.4 177.1 179.4 177.1Z" fill="white"/>
<path opacity="0.65" d="M269.3 93.2999H317.7C317.7 93.2999 305.6 91.4999 301.1 92.3999C296.6 93.2999 292.8 91.3999 290 91.4999C287.2 91.5999 282.1 92.6999 281.1 92.7999C280.1 92.8999 276.1 93.0999 275.2 92.5999C274.4 92.0999 272.8 92.6999 272.6 92.7999C272.5 92.8999 269.3 93.2999 269.3 93.2999Z" fill="white"/>
<path d="M387.7 103.1L385.1 110.5H383.2L383.9 103.1" fill="#FE1018"/>
<path d="M387.7 103.1L385.1 110.5H383.2L383.9 103.1" stroke="black" stroke-miterlimit="10" stroke-linecap="round" stroke-linejoin="round"/>
<path d="M384.9 110.5H383.4V120.2H384.9V110.5Z" fill="#FE1018" stroke="black" stroke-miterlimit="10" stroke-linecap="round" stroke-linejoin="round"/>
<path opacity="0.65" d="M231 72.1995H327.3C327.3 72.1995 300.2 70.9995 296.4 70.5995C292.6 70.1995 283.8 71.8995 279.8 71.3995C275.8 70.8995 269.5 69.8995 266.6 70.4995C263.8 71.0995 256.8 71.6995 252.4 71.1995C248 70.6995 231 72.1995 231 72.1995Z" fill="white"/>
<path d="M388.7 131.2V140C388.7 141.7 387.3 143 385.7 143H375.3L384.7 141.6C386 141.4 387 140.4 387.2 139.2L388.7 131.2Z" fill="white"/>
<path d="M327.2 151.9V158C327.2 159.2 328.2 160.2 329.4 160.2H331.1L329.1 159.3C328.4 159 327.9 158.3 327.8 157.6L327.2 151.9Z" fill="white"/>
<path d="M357.1 210.5C359.254 210.5 361 208.754 361 206.6C361 204.446 359.254 202.7 357.1 202.7C354.946 202.7 353.2 204.446 353.2 206.6C353.2 208.754 354.946 210.5 357.1 210.5Z" fill="url(#paint44_radial)" stroke="black" stroke-width="2" stroke-miterlimit="10"/>
<path d="M319.2 106.5C320.471 106.5 321.5 105.471 321.5 104.2C321.5 102.93 320.471 101.9 319.2 101.9C317.93 101.9 316.9 102.93 316.9 104.2C316.9 105.471 317.93 106.5 319.2 106.5Z" fill="#A21C26"/>
<path d="M318.9 105C319.949 105 320.8 104.15 320.8 103.1C320.8 102.051 319.949 101.2 318.9 101.2C317.851 101.2 317 102.051 317 103.1C317 104.15 317.851 105 318.9 105Z" fill="url(#paint45_radial)" stroke="black" stroke-miterlimit="10"/>
<path opacity="0.65" d="M345.1 18.5H366.6C366.6 18.5 372.9 18.5 377.5 21.8C382.1 25 383 26.8 383 26.8C383 26.8 376.6 21.7 371.7 20.7C366.8 19.7 360.2 18.6 358.6 19.1C357 19.5 354.1 19.8 352.7 19.5C351.2 19.3 345.1 18.5 345.1 18.5Z" fill="white"/>
<path d="M197.5 29.8999H311.8C311.8 29.8999 301.3 28.5999 296.7 28.7999C292.1 28.9999 278 28.6999 275.1 28.7999C259.3 29.0999 235.5 28.4999 230.3 28.6999C225.1 28.8999 197.5 29.8999 197.5 29.8999Z" fill="white"/>
<path opacity="0.15" d="M45.7998 74.7998H247.3C247.3 74.7998 199.9 87.0998 179.6 82.7998C159.3 78.5998 139 86.3998 127.3 87.4998C115.6 88.5998 77.6998 91.7998 75.9998 87.4998C74.2998 83.1998 45.7998 74.7998 45.7998 74.7998Z" fill="white"/>
<path opacity="0.15" d="M350.7 207.2C351.252 207.2 351.7 206.752 351.7 206.2C351.7 205.648 351.252 205.2 350.7 205.2C350.148 205.2 349.7 205.648 349.7 206.2C349.7 206.752 350.148 207.2 350.7 207.2Z" fill="white"/>
<path opacity="0.15" d="M352.3 211.5C352.852 211.5 353.3 211.052 353.3 210.5C353.3 209.948 352.852 209.5 352.3 209.5C351.748 209.5 351.3 209.948 351.3 210.5C351.3 211.052 351.748 211.5 352.3 211.5Z" fill="white"/>
<path opacity="0.15" d="M357.1 213.8C357.652 213.8 358.1 213.352 358.1 212.8C358.1 212.248 357.652 211.8 357.1 211.8C356.547 211.8 356.1 212.248 356.1 212.8C356.1 213.352 356.547 213.8 357.1 213.8Z" fill="white"/>
<path opacity="0.15" d="M362.3 211.3C362.852 211.3 363.3 210.852 363.3 210.3C363.3 209.748 362.852 209.3 362.3 209.3C361.748 209.3 361.3 209.748 361.3 210.3C361.3 210.852 361.748 211.3 362.3 211.3Z" fill="white"/>
<path opacity="0.15" d="M363.5 207C364.052 207 364.5 206.552 364.5 206C364.5 205.448 364.052 205 363.5 205C362.948 205 362.5 205.448 362.5 206C362.5 206.552 362.948 207 363.5 207Z" fill="white"/>
<path opacity="0.56" d="M17.8 204.4C17.7 207.7 15.3 210.4 12.2 211C12.1 210.5 12 210 12 209.5C12 206.7 14.3 204.3 17.2 204.3H17.8V204.4Z" fill="white"/>
<path opacity="0.45" d="M415.6 209.6C415.6 211 415 212.3 414.1 213.3C414 213.4 413.8 213.6 413.6 213.7C411.6 211.3 410.3 208.2 410.3 204.9C410.3 204.8 410.3 204.6 410.3 204.5H410.4C413.3 204.4 415.6 206.8 415.6 209.6Z" fill="white"/>
<path opacity="0.57" d="M99 210.8C99 210.8 100.1 217.3 104.1 221.2C109.1 226.1 114.2 227 114.2 227" stroke="black" stroke-miterlimit="10" stroke-linecap="round"/>
<path opacity="0.33" d="M96.7002 221C96.7002 221 98.8002 224.3 101.2 226.4C103.6 228.6 106.2 230 106.2 230" stroke="black" stroke-miterlimit="10" stroke-linecap="round"/>
<path d="M119.4 222.6C128.237 222.6 135.4 215.436 135.4 206.6C135.4 197.763 128.237 190.6 119.4 190.6C110.564 190.6 103.4 197.763 103.4 206.6C103.4 215.436 110.564 222.6 119.4 222.6Z" stroke="#2D0509" stroke-miterlimit="10"/>
<path d="M357.1 222.6C365.936 222.6 373.1 215.436 373.1 206.6C373.1 197.763 365.936 190.6 357.1 190.6C348.263 190.6 341.1 197.763 341.1 206.6C341.1 215.436 348.263 222.6 357.1 222.6Z" stroke="#2D0509" stroke-miterlimit="10"/>
<path opacity="0.63" d="M136.1 211.3C133.4 217.4 129 223.7 119.3 223.7C109.7 223.7 105.7 217.9 102.8 211.8C109 209.1 110.4 207.8 119.8 207.8C128.8 207.8 129.9 208.7 136.1 211.3Z" fill="url(#paint46_radial)"/>
<path opacity="0.46" d="M143.2 211.5C139.4 220.3 133.1 229.2 119.2 229.2C105.5 229.2 99.7996 220.9 95.5996 212.3C104.5 208.4 106.5 206.6 119.8 206.6C132.8 206.6 134.4 207.9 143.2 211.5Z" fill="url(#paint47_radial)"/>
<path opacity="0.46" d="M381.5 211.5C377.7 220.3 371.4 229.2 357.5 229.2C343.8 229.2 338.1 220.9 333.9 212.3C342.8 208.4 344.8 206.6 358.1 206.6C371 206.6 372.7 207.9 381.5 211.5Z" fill="url(#paint48_radial)"/>
<path opacity="0.56" d="M64.7998 95.5H360.3C360.3 95.5 264.9 99.9 213.8 99.9C191.6 99.9 64.7998 95.5 64.7998 95.5Z" fill="white"/>
<path d="M385.8 94.5H393.2L393.5 100.9H386.3L385.8 94.5Z" fill="url(#paint49_linear)" stroke="black" stroke-width="2" stroke-miterlimit="10"/>
<path d="M387.5 101.2H380.3C379.6 101.2 379.1 100.7 379.1 100V94.7C379.1 94 379.6 93.5 380.3 93.5H387.3C387.9 93.5 388.5 94 388.5 94.6L388.7 99.9C388.7 100.6 388.2 101.2 387.5 101.2Z" fill="#FF4800" stroke="black" stroke-width="2.2483" stroke-miterlimit="10" stroke-linecap="round" stroke-linejoin="round"/>
<path opacity="0.15" d="M386 97.2996C386 97.7996 385.7 98.1996 385.2 98.1996H384.7C384.8 98.0996 384.8 97.8996 384.8 97.6996C384.8 97.1996 384.4 96.6996 383.8 96.6996H383.1C382.6 96.6996 382.1 97.0996 382.1 97.6996C382.1 97.8996 382.1 97.9996 382.2 98.1996H381.5C381.1 98.1996 380.7 97.7996 380.7 97.3996V96.3996C380.7 95.9996 381.1 95.5996 381.5 95.5996H385C385.4 95.5996 385.8 95.8996 385.8 96.2996L386 97.2996Z" fill="white"/>
<path d="M384.4 99.1996C385.394 99.1996 386.2 98.3937 386.2 97.3996C386.2 96.4055 385.394 95.5996 384.4 95.5996C383.405 95.5996 382.6 96.4055 382.6 97.3996C382.6 98.3937 383.405 99.1996 384.4 99.1996Z" fill="#D32300"/>
<path opacity="0.39" d="M380.3 99.4998V94.7998H385.5C385.5 94.7998 382.7 94.8998 381.9 96.2998C381.1 97.7998 380.3 99.4998 380.3 99.4998Z" fill="white"/>
<path opacity="0.26" d="M99.6002 95.5H95.2002V99.9H99.6002V95.5Z" fill="url(#paint50_linear)"/>
<path opacity="0.26" d="M156.6 95.5H152.2V99.9H156.6V95.5Z" fill="url(#paint51_linear)"/>
<path opacity="0.26" d="M213.9 95.5H209.5V99.9H213.9V95.5Z" fill="url(#paint52_linear)"/>
<path opacity="0.26" d="M145.2 99.9H149.6V95.5H145.2V99.9Z" fill="url(#paint53_linear)"/>
<path opacity="0.26" d="M87.7998 99.9H92.1998V95.5H87.7998V99.9Z" fill="url(#paint54_linear)"/>
<path opacity="0.26" d="M202.7 99.9H207.1V95.5H202.7V99.9Z" fill="url(#paint55_linear)"/>
<path opacity="0.26" d="M271.2 95.5H266.8V99.9H271.2V95.5Z" fill="url(#paint56_linear)"/>
<path opacity="0.26" d="M259.9 99.9H264.3V95.5H259.9V99.9Z" fill="url(#paint57_linear)"/>
<path opacity="0.26" d="M328.8 95.5H324.4V99.9H328.8V95.5Z" fill="url(#paint58_linear)"/>
<path opacity="0.26" d="M317.5 99.9H321.9V95.5H317.5V99.9Z" fill="url(#paint59_linear)"/>
<path opacity="0.26" d="M373.5 99.9H377.9V95.5H373.5V99.9Z" fill="url(#paint60_linear)"/>
<path opacity="0.3" d="M215.1 140C215.3 139.9 215.4 139.8 215.6 139.7C217.5 138.1 231.3 126.6 239.7 125.7C248.7 124.8 259.7 120 260.3 119.2C260.6 118.8 260.6 117.8 260.6 116.8C260.5 115.6 259.5 114.6 258.3 114.6H216.7C215.1 114.6 213.8 115.9 213.8 117.5V140.6L215.1 140Z" fill="#7171E2"/>
<path opacity="0.2" d="M213.8 59.2996V60.7996C213.8 62.0996 214.8 63.0996 216.1 63.0996H258.2C259.5 63.0996 260.5 62.0996 260.5 60.7996V49.8996C260.5 48.6996 259.6 47.6996 258.4 47.5996C254.3 47.1996 245.3 46.7996 239.9 49.7996C232.8 53.7996 235.1 58.0996 230.9 57.9996C226.7 57.8996 223.1 55.4996 219.4 56.3996C215.9 57.3996 213.8 59.2996 213.8 59.2996Z" fill="#7171E2"/>
<path opacity="0.3" d="M167.4 126.3H200.5C201.7 126.3 202.7 127.3 202.7 128.5V138.4C202.7 139.6 201.7 140.6 200.5 140.6C195.3 140.6 182.5 140.1 176.5 136.7C168.8 132.4 170.8 131.6 166.9 130.6H166.8C164.3 130 164.8 126.3 167.4 126.3Z" fill="#7171E2"/>
<path opacity="0.55" d="M334.6 13.0996H328.4V16.3996H334.6V13.0996Z" fill="url(#paint61_linear)"/>
<path d="M158.8 168.799L158.7 159.199H160V167.699L164 167.599L164.1 168.799H158.8Z" fill="#F5CD7F"/>
<path d="M160 159.2V167.6H164V168.6H158.7V159.1H160V159.2ZM160.1 159.1H160H158.8H158.7V159.2V168.7V168.8H158.8H164.1H164.2V168.7V167.7V167.6H164H160.1V159.1Z" fill="black"/>
<path d="M165.6 165.999C163.8 165.999 162.5 164.599 162.5 162.499C162.5 160.399 163.8 158.899 165.7 158.899C167.6 158.899 168.8 160.299 168.8 162.399C168.8 164.899 167.2 165.999 165.6 165.999ZM165.6 159.699C164.1 159.699 163.5 161.099 163.5 162.499C163.5 163.799 164.2 165.199 165.6 165.199C167.1 165.199 167.7 163.799 167.7 162.399C167.8 161.099 167.1 159.699 165.6 159.699Z" fill="#F5CD7F"/>
<path d="M165.7 158.9C167.6 158.9 168.8 160.3 168.8 162.4C168.8 164.7 167.4 166 165.6 166C163.8 166 162.5 164.6 162.5 162.5C162.5 160.3 163.9 158.9 165.7 158.9ZM165.6 165.2C167 165.2 167.8 163.9 167.8 162.4C167.8 161 167.1 159.6 165.6 159.6C164.1 159.6 163.4 160.9 163.4 162.4C163.5 163.9 164.2 165.2 165.6 165.2ZM165.7 158.8C163.8 158.8 162.4 160.3 162.4 162.5C162.4 164.6 163.7 166.1 165.6 166.1C167.2 166.1 168.9 165 168.9 162.4C168.9 160.2 167.6 158.8 165.7 158.8ZM165.6 165.1C164.2 165.1 163.5 163.7 163.5 162.4C163.5 161 164.1 159.7 165.6 159.7C167 159.7 167.7 161.1 167.7 162.4C167.7 163.7 167.1 165.1 165.6 165.1Z" fill="black"/>
<path d="M174.1 165.899L171.9 162.399C171.3 161.499 170.9 160.799 170.6 160.099C170.7 160.899 170.7 161.799 170.7 162.899V165.799H169.8V158.899H170.8L173 162.399C173.5 163.199 173.9 163.899 174.2 164.599C174 163.699 174 162.799 174 161.799V158.999H174.9V165.899H174.1Z" fill="#F5CD7F"/>
<path d="M175 158.999V165.799H174.1L171.9 162.299C171.4 161.499 171 160.799 170.6 159.999C170.7 160.899 170.7 161.699 170.7 162.799V165.699H169.9V158.999H170.9L173.1 162.499C173.6 163.299 174 163.999 174.3 164.699C174.2 163.799 174.2 162.999 174.2 161.899V158.999H175ZM175.1 158.899H175H174.2H174.1V158.999V161.899C174.1 162.699 174.1 163.499 174.2 164.199C173.9 163.599 173.6 162.999 173.2 162.399L171 158.899H170.9H169.9H169.8V158.999V165.799V165.899H169.9H170.7H170.8V165.799V162.899C170.8 161.899 170.8 161.199 170.8 160.499C171.1 161.099 171.4 161.699 171.9 162.399L174.1 165.899H174.2H175.1H175.2V165.799V158.899H175.1Z" fill="black"/>
<path d="M178.201 165.9C177.601 165.9 177.101 165.9 176.601 165.8V159C177.301 158.9 177.901 158.8 178.501 158.8C179.801 158.8 180.701 159.1 181.301 159.7C181.901 160.3 182.301 161.1 182.301 162.2C182.301 163.3 182.001 164.2 181.301 164.9C180.601 165.6 179.501 165.9 178.201 165.9ZM178.501 159.7C178.001 159.7 177.701 159.7 177.501 159.8V165.1C177.501 165.1 177.601 165.1 177.701 165.1C177.901 165.1 178.101 165.1 178.301 165.1C180.101 165.1 181.201 164.1 181.201 162.3C181.201 161.5 181.001 160.9 180.501 160.4C180.101 159.9 179.401 159.7 178.501 159.7Z" fill="#F5CD7F"/>
<path d="M178.4 158.9C179.7 158.9 180.6 159.2 181.2 159.8C181.8 160.4 182.2 161.1 182.2 162.3C182.2 163.4 181.9 164.3 181.2 165C180.6 165.6 179.5 166 178.2 166C177.6 166 177 166 176.6 165.9V159.2C177.1 159 177.7 158.9 178.4 158.9ZM178.3 165.2C180.2 165.2 181.2 164.1 181.2 162.3C181.2 160.7 180.3 159.7 178.4 159.7C177.9 159.7 177.6 159.7 177.4 159.8V165.2C177.7 165.2 178 165.2 178.3 165.2ZM178.4 158.8C177.8 158.8 177.1 158.8 176.5 158.9H176.4V159V165.7V165.8H176.5C177 165.9 177.5 165.9 178.1 165.9C179.5 165.9 180.5 165.5 181.2 164.9C181.9 164.2 182.2 163.3 182.2 162.2C182.2 161.1 181.9 160.3 181.2 159.7C180.6 159.1 179.7 158.8 178.4 158.8ZM177.6 159.8C177.8 159.8 178.1 159.7 178.5 159.7C179.4 159.7 180.1 159.9 180.5 160.4C180.9 160.8 181.1 161.5 181.1 162.2C181.1 164 180.1 165 178.3 165C178.1 165 177.7 165 177.5 165V159.8H177.6Z" fill="black"/>
<path d="M185.999 165.999C184.199 165.999 182.899 164.599 182.899 162.499C182.899 160.399 184.199 158.899 186.099 158.899C187.999 158.899 189.199 160.299 189.199 162.399C189.199 164.899 187.599 165.999 185.999 165.999ZM185.999 159.699C184.499 159.699 183.899 161.099 183.899 162.499C183.899 163.799 184.599 165.199 185.999 165.199C187.499 165.199 188.099 163.799 188.099 162.399C188.199 161.099 187.499 159.699 185.999 159.699Z" fill="#F5CD7F"/>
<path d="M186.1 158.9C188 158.9 189.2 160.3 189.2 162.4C189.2 164.7 187.8 166 186 166C184.2 166 182.9 164.6 182.9 162.5C182.9 160.3 184.3 158.9 186.1 158.9ZM186 165.2C187.4 165.2 188.2 163.9 188.2 162.4C188.2 161 187.5 159.6 186 159.6C184.5 159.6 183.8 160.9 183.8 162.4C183.9 163.9 184.6 165.2 186 165.2ZM186.1 158.8C184.2 158.8 182.8 160.3 182.8 162.5C182.8 164.6 184.1 166.1 186 166.1C187.6 166.1 189.3 165 189.3 162.4C189.3 160.2 188 158.8 186.1 158.8ZM186 165.1C184.6 165.1 183.9 163.7 183.9 162.4C183.9 161 184.5 159.7 186 159.7C187.4 159.7 188.1 161.1 188.1 162.4C188.1 163.7 187.5 165.1 186 165.1Z" fill="black"/>
<path d="M194.5 165.899L192.3 162.399C191.7 161.499 191.3 160.799 191 160.099C191.1 160.899 191.1 161.799 191.1 162.899V165.799H190.2V158.899H191.2L193.4 162.399C193.9 163.199 194.3 163.899 194.6 164.599C194.4 163.699 194.4 162.799 194.4 161.799V158.999H195.3V165.899H194.5Z" fill="#F5CD7F"/>
<path d="M195.4 158.999V165.799H194.5L192.3 162.299C191.8 161.499 191.4 160.799 191 159.999C191.1 160.899 191.1 161.699 191.1 162.799V165.699H190.3V158.999H191.3L193.5 162.499C194 163.299 194.4 163.999 194.7 164.699C194.6 163.799 194.6 162.999 194.6 161.899V158.999H195.4ZM195.5 158.899H195.4H194.6H194.5V158.999V161.899C194.5 162.699 194.5 163.499 194.6 164.199C194.3 163.599 194 162.999 193.6 162.399L191.4 158.899H191.3H190.3H190.2V158.999V165.799V165.899H190.3H191.1H191.2V165.799V162.899C191.2 161.899 191.2 161.199 191.2 160.499C191.5 161.099 191.8 161.699 192.3 162.399L194.5 165.899H194.6H195.5H195.6V165.799V158.899H195.5Z" fill="black"/>
<path d="M202.1 165.899V159.699L200.1 159.799L200 158.999L205.1 158.899L205.2 159.699L203 159.799L203.1 165.899H202.1Z" fill="#F5CD7F"/>
<path d="M205.1 158.999V159.699H203V165.799H202.1V159.699H200V158.999H205.1ZM205.2 158.899H205.1H200V158.999V159.699V159.799H200.1H202.1V165.799V165.899H202.2H203.1H203.2V165.799V159.799H205.2H205.3V159.699V158.899H205.2Z" fill="black"/>
<path d="M209.399 165.9C209.299 165.7 209.099 165.2 208.899 164.2C208.699 163.3 208.399 162.9 207.599 162.9H206.799V165.8H205.899V159C206.399 158.9 206.999 158.8 207.599 158.8C208.599 158.8 209.199 159 209.599 159.4C209.999 159.7 210.199 160.2 210.199 160.7C210.199 161.5 209.699 162.2 208.899 162.5C209.399 162.6 209.799 163.1 209.899 163.8C210.099 164.7 210.299 165.4 210.399 165.7V165.8H209.399V165.9ZM207.599 159.7C207.199 159.7 206.899 159.7 206.699 159.8V162.2H207.599C208.499 162.2 209.099 161.7 209.099 161C209.199 159.9 208.299 159.7 207.599 159.7Z" fill="#F5CD7F"/>
<path d="M207.6 158.9C208.5 158.9 209.1 159.1 209.6 159.5C209.9 159.8 210.1 160.3 210.1 160.8C210.1 161.7 209.5 162.3 208.8 162.5C209.3 162.7 209.6 163.2 209.8 163.9C210 164.9 210.2 165.5 210.3 165.8H209.4C209.3 165.6 209.1 165 208.9 164.2C208.7 163.3 208.3 162.9 207.5 162.9H206.7V165.9H205.8V159.2C206.3 159 207 158.9 207.6 158.9ZM206.8 162.2H207.7C208.6 162.2 209.2 161.7 209.2 160.9C209.2 160 208.6 159.6 207.6 159.6C207.2 159.6 206.9 159.6 206.7 159.7V162.2H206.8ZM207.6 158.8C207 158.8 206.3 158.9 205.9 158.9H205.8V159V165.7V165.8H205.9H206.8H206.9V165.7V163H207.6C208.3 163 208.7 163.4 208.9 164.2C209.1 165.2 209.3 165.7 209.4 165.9H209.5H210.4H210.6L210.5 165.8C210.4 165.5 210.2 164.8 210 164C209.8 163.3 209.6 162.9 209.1 162.6C209.8 162.3 210.3 161.6 210.3 160.8C210.3 160.2 210.1 159.8 209.7 159.4C209.2 159 208.5 158.8 207.6 158.8ZM206.9 159.8C207.1 159.8 207.3 159.7 207.7 159.7C208.4 159.7 209.2 159.9 209.2 160.9C209.2 161.6 208.6 162.1 207.8 162.1H207V159.8H206.9Z" fill="black"/>
<path d="M215.6 165.899L214.8 163.699H212.4L211.7 165.799H210.7L213 158.899H214.1L216.5 165.799H215.6V165.899ZM213.7 159.899C213.6 160.299 213.5 160.599 213.4 160.999L212.7 162.999L214.7 162.899L214 160.999C213.9 160.699 213.8 160.299 213.7 159.899Z" fill="#F5CD7F"/>
<path d="M214.3 158.999L216.6 165.799H215.7L215 163.699H212.6L211.9 165.799H211L213.3 158.999H214.3ZM212.7 162.999H214.8L214.1 160.999C213.9 160.599 213.8 160.099 213.7 159.799C213.6 160.199 213.5 160.599 213.4 160.999L212.7 162.999ZM214.3 158.899H213.2H213.1V158.999L210.8 165.799V165.899H210.9H211.8H211.9V165.799L212.6 163.699H214.9L215.6 165.799V165.899H215.7H216.6H216.7V165.799L214.3 158.899ZM212.8 162.899L213.4 161.099C213.5 160.799 213.6 160.499 213.7 160.199C213.8 160.499 213.9 160.799 214 161.099L214.6 162.899H212.8Z" fill="black"/>
<path d="M221.8 165.899L219.6 162.399C219 161.499 218.6 160.799 218.3 160.099C218.4 160.899 218.4 161.799 218.4 162.899V165.799H217.5V158.899H218.5L220.7 162.399C221.2 163.199 221.6 163.899 221.9 164.599C221.7 163.699 221.7 162.799 221.7 161.799V158.999H222.6V165.899H221.8Z" fill="#F5CD7F"/>
<path d="M222.7 158.999V165.799H221.8L219.6 162.299C219.1 161.499 218.7 160.799 218.3 159.999C218.4 160.899 218.4 161.699 218.4 162.799V165.699H217.6V158.999H218.6L220.8 162.499C221.3 163.299 221.7 163.999 222 164.699C221.9 163.799 221.9 162.999 221.9 161.899V158.999H222.7ZM222.8 158.899H221.9H221.8V158.999V161.899C221.8 162.699 221.8 163.499 221.9 164.199C221.6 163.599 221.3 162.999 220.9 162.399L218.7 158.899H218.6H217.6H217.5V158.999V165.799V165.899H217.6H218.4H218.5V165.799V162.899C218.5 161.899 218.5 161.199 218.5 160.499C218.8 161.099 219.1 161.699 219.6 162.399L221.8 165.899H221.9H222.8H222.9V165.799V158.899H222.8Z" fill="black"/>
<path d="M225.7 165.999C225.1 165.999 224.3 165.799 223.9 165.599L224.1 164.799C224.6 164.999 225.2 165.199 225.7 165.199C226.6 165.199 227.1 164.799 227.1 164.099C227.1 163.499 226.8 163.099 225.8 162.799C224.5 162.399 224 161.699 224 160.799C224 159.699 224.9 158.899 226.3 158.899C227.1 158.899 227.6 159.099 227.8 159.199L227.6 159.999C227.3 159.899 226.9 159.699 226.3 159.699C225.4 159.699 225.1 160.199 225.1 160.699C225.1 161.299 225.4 161.599 226.4 161.999C227.7 162.499 228.2 163.099 228.2 164.099C228.1 164.899 227.5 165.999 225.7 165.999Z" fill="#F5CD7F"/>
<path d="M226.3 158.9C227 158.9 227.5 159.1 227.8 159.2L227.6 159.9C227.4 159.8 226.9 159.6 226.3 159.6C225.4 159.6 225 160.2 225 160.6C225 161.2 225.4 161.6 226.4 161.9C227.6 162.3 228.1 162.9 228.1 163.9C228.1 165 227.3 165.9 225.7 165.9C225 165.9 224.3 165.7 224 165.5L224.2 164.8C224.6 165 225.2 165.2 225.8 165.2C226.7 165.2 227.2 164.7 227.2 164C227.2 163.4 226.8 163 225.9 162.6C224.8 162.2 224.1 161.6 224.1 160.7C224.1 159.7 224.9 158.9 226.3 158.9ZM226.3 158.8C224.9 158.8 224 159.6 224 160.8C224 161.7 224.6 162.4 225.9 162.8C226.8 163.1 227.1 163.5 227.1 164.1C227.1 164.8 226.6 165.2 225.8 165.2C225.3 165.2 224.7 165 224.3 164.8L224.2 164.7V164.8L224 165.5V165.6H224.1C224.5 165.9 225.2 166.1 225.9 166.1C227.7 166.1 228.4 165 228.4 164C228.4 163 227.9 162.4 226.6 161.9C225.6 161.5 225.3 161.2 225.3 160.7C225.3 160.2 225.7 159.8 226.5 159.8C227.1 159.8 227.5 160 227.7 160.1L227.8 160.2V160.1L228 159.4V159.3H227.9C227.6 159 227.1 158.8 226.3 158.8Z" fill="black"/>
<path d="M229.3 165.899V159.099C229.9 158.999 230.4 158.899 231 158.899C231.9 158.899 232.5 159.099 232.9 159.499C233.3 159.799 233.5 160.399 233.5 160.999C233.5 161.599 233.3 162.099 233 162.499C232.5 162.999 231.8 163.299 230.9 163.299C230.7 163.299 230.4 163.299 230.2 163.199L230.3 165.899H229.3ZM230.2 162.399C230.3 162.399 230.6 162.399 230.9 162.399C232 162.399 232.6 161.899 232.6 160.999C232.6 160.199 232 159.699 231 159.699C230.7 159.699 230.3 159.699 230.2 159.799V162.399Z" fill="#F5CD7F"/>
<path d="M231 158.9C231.9 158.9 232.5 159.1 232.9 159.5C233.3 159.8 233.5 160.3 233.5 160.9C233.5 161.5 233.3 162 233 162.4C232.5 162.9 231.8 163.1 230.9 163.1C230.6 163.1 230.4 163.1 230.2 163V165.7H229.3V159C229.7 159 230.2 158.9 231 158.9ZM230.9 162.4C232 162.4 232.6 161.9 232.6 160.9C232.6 160 232 159.6 231 159.6C230.6 159.6 230.3 159.6 230.2 159.7V162.4C230.3 162.4 230.6 162.4 230.9 162.4ZM231 158.8C230.4 158.8 229.8 158.8 229.3 158.9H229.2V159V165.7V165.8H229.3H230.2H230.3V165.7V163.1C230.5 163.1 230.7 163.1 230.9 163.1C231.8 163.1 232.6 162.8 233.1 162.3C233.5 161.9 233.7 161.4 233.7 160.8C233.7 160.2 233.5 159.6 233.1 159.3C232.5 159 231.8 158.8 231 158.8ZM230.2 159.8C230.4 159.8 230.6 159.7 230.9 159.7C231.5 159.7 232.4 159.9 232.4 160.9C232.4 161.8 231.8 162.3 230.8 162.3C230.5 162.3 230.3 162.3 230.2 162.2V159.8Z" fill="black"/>
<path d="M237.3 165.999C235.5 165.999 234.2 164.599 234.2 162.499C234.2 160.399 235.5 158.899 237.4 158.899C239.3 158.899 240.5 160.299 240.5 162.399C240.5 164.899 238.9 165.999 237.3 165.999ZM237.4 159.699C235.9 159.699 235.3 161.099 235.3 162.499C235.3 163.799 236 165.199 237.4 165.199C238.9 165.199 239.5 163.799 239.5 162.399C239.5 161.099 238.8 159.699 237.4 159.699Z" fill="#F5CD7F"/>
<path d="M237.401 158.9C239.301 158.9 240.501 160.3 240.501 162.4C240.501 164.7 239.101 166 237.301 166C235.501 166 234.201 164.6 234.201 162.5C234.201 160.3 235.601 158.9 237.401 158.9ZM237.401 165.2C238.801 165.2 239.601 163.9 239.601 162.4C239.601 161 238.901 159.6 237.401 159.6C235.901 159.6 235.201 160.9 235.201 162.4C235.201 163.9 236.001 165.2 237.401 165.2ZM237.401 158.8C235.501 158.8 234.101 160.3 234.101 162.5C234.101 164.6 235.401 166.1 237.301 166.1C238.901 166.1 240.601 165 240.601 162.4C240.601 160.2 239.301 158.8 237.401 158.8ZM237.401 165.1C236.001 165.1 235.301 163.7 235.301 162.4C235.301 161 235.901 159.7 237.401 159.7C238.801 159.7 239.501 161.1 239.501 162.4C239.501 163.7 238.801 165.1 237.401 165.1Z" fill="black"/>
<path d="M245.2 165.9C245.1 165.7 244.9 165.2 244.7 164.2C244.5 163.3 244.2 162.9 243.4 162.9H242.6V165.8H241.7V159C242.2 158.9 242.8 158.8 243.4 158.8C244.4 158.8 245 159 245.4 159.4C245.8 159.7 246 160.2 246 160.7C246 161.5 245.5 162.2 244.7 162.5C245.2 162.6 245.6 163.1 245.7 163.8C245.9 164.7 246.1 165.4 246.2 165.7V165.8H245.2V165.9ZM243.4 159.7C243 159.7 242.7 159.7 242.5 159.8V162.2H243.4C244.3 162.2 244.9 161.7 244.9 161C244.9 159.9 244.1 159.7 243.4 159.7Z" fill="#F5CD7F"/>
<path d="M243.3 158.9C244.2 158.9 244.8 159.1 245.3 159.5C245.6 159.8 245.8 160.3 245.8 160.8C245.8 161.7 245.2 162.3 244.5 162.5C245 162.7 245.3 163.2 245.5 163.9C245.7 164.9 245.9 165.5 246 165.8H245.1C245 165.6 244.8 165 244.6 164.2C244.4 163.3 244 162.9 243.2 162.9H242.4V165.9H241.5V159.2C242.1 159 242.7 158.9 243.3 158.9ZM242.5 162.2H243.4C244.3 162.2 244.9 161.7 244.9 160.9C244.9 160 244.3 159.6 243.3 159.6C242.9 159.6 242.6 159.6 242.4 159.7V162.2H242.5ZM243.3 158.8C242.7 158.8 242 158.9 241.6 158.9H241.5V159V165.7V165.8H241.6H242.5H242.6V165.7V163H243.3C244 163 244.4 163.4 244.6 164.2C244.8 165.2 245 165.7 245.1 165.9H245.2H246.1H246.3L246.2 165.8C246.1 165.5 245.9 164.8 245.7 164C245.5 163.3 245.3 162.9 244.8 162.6C245.5 162.3 246 161.6 246 160.8C246 160.2 245.8 159.8 245.4 159.4C244.9 159 244.3 158.8 243.3 158.8ZM242.6 159.8C242.8 159.8 243 159.7 243.4 159.7C244.1 159.7 244.9 159.9 244.9 160.9C244.9 161.6 244.3 162.1 243.5 162.1H242.7V159.8H242.6Z" fill="black"/>
<path d="M250.4 168.5V160.1L247.6 160.2L247.5 159.1L254.5 159L254.6 160.1L251.6 160.2L251.7 168.5H250.4Z" fill="#F5CD7F"/>
<path d="M254.5 159.1V160.1H251.6V168.5H250.4V160.1H247.5V159.1H254.5ZM254.6 159H247.6H247.5V159.1V160.1V160.2H247.6H250.4V168.5V168.6H250.5H251.7H251.8V168.5V160.2H254.6H254.7V160.1V159H254.6Z" fill="black"/>
<path d="M168 168.8V167.7L246.4 167.6V168.8H168Z" fill="#F5CD7F"/>
<path d="M246.4 167.7V168.7H168V167.7H246.4ZM246.5 167.6H168H167.9V167.7V168.7V168.8H168H246.4H246.5V168.7V167.6Z" fill="black"/>
<defs>
<linearGradient id="paint0_linear" x1="324.115" y1="14.6821" x2="342.69" y2="14.6821" gradientUnits="userSpaceOnUse">
<stop stop-color="#FE1018"/>
<stop offset="1" stop-color="#A21C26"/>
</linearGradient>
<linearGradient id="paint1_linear" x1="213.827" y1="64.851" x2="213.827" y2="255.581" gradientUnits="userSpaceOnUse">
<stop stop-color="#FE1018"/>
<stop offset="1" stop-color="#A21C26"/>
</linearGradient>
<linearGradient id="paint2_linear" x1="30.2318" y1="135.444" x2="20.2581" y2="135.444" gradientUnits="userSpaceOnUse">
<stop stop-color="#FE1018" stop-opacity="0"/>
<stop offset="0.4916" stop-color="#FE1018" stop-opacity="0.6"/>
<stop offset="0.9721" stop-color="#FF7A85"/>
</linearGradient>
<linearGradient id="paint3_linear" x1="385.243" y1="89.2264" x2="390.988" y2="88.9711" gradientUnits="userSpaceOnUse">
<stop stop-color="#FE1018"/>
<stop offset="1" stop-color="#A21C26"/>
</linearGradient>
<linearGradient id="paint4_linear" x1="363.33" y1="173.582" x2="388.351" y2="183.028" gradientUnits="userSpaceOnUse">
<stop stop-color="#FE1018"/>
<stop offset="1" stop-color="#A21C26"/>
</linearGradient>
<linearGradient id="paint5_linear" x1="93.4438" y1="176.107" x2="93.4438" y2="147.438" gradientUnits="userSpaceOnUse">
<stop stop-color="#FE1018"/>
<stop offset="1" stop-color="#A21C26"/>
</linearGradient>
<linearGradient id="paint6_linear" x1="150.809" y1="176.107" x2="150.809" y2="147.438" gradientUnits="userSpaceOnUse">
<stop stop-color="#FE1018"/>
<stop offset="1" stop-color="#A21C26"/>
</linearGradient>
<linearGradient id="paint7_linear" x1="208.174" y1="176.107" x2="208.174" y2="147.438" gradientUnits="userSpaceOnUse">
<stop stop-color="#FE1018"/>
<stop offset="1" stop-color="#A21C26"/>
</linearGradient>
<linearGradient id="paint8_linear" x1="265.539" y1="176.107" x2="265.539" y2="147.438" gradientUnits="userSpaceOnUse">
<stop stop-color="#FE1018"/>
<stop offset="1" stop-color="#A21C26"/>
</linearGradient>
<linearGradient id="paint9_linear" x1="321.92" y1="176.107" x2="321.92" y2="147.438" gradientUnits="userSpaceOnUse">
<stop stop-color="#FE1018"/>
<stop offset="1" stop-color="#A21C26"/>
</linearGradient>
<linearGradient id="paint10_linear" x1="93.482" y1="79.787" x2="93.482" y2="116.374" gradientUnits="userSpaceOnUse">
<stop stop-color="#FE1018"/>
<stop offset="1" stop-color="#A21C26"/>
</linearGradient>
<linearGradient id="paint11_linear" x1="150.886" y1="79.787" x2="150.886" y2="116.374" gradientUnits="userSpaceOnUse">
<stop stop-color="#FE1018"/>
<stop offset="1" stop-color="#A21C26"/>
</linearGradient>
<linearGradient id="paint12_linear" x1="208.307" y1="79.787" x2="208.307" y2="116.374" gradientUnits="userSpaceOnUse">
<stop stop-color="#FE1018"/>
<stop offset="1" stop-color="#A21C26"/>
</linearGradient>
<linearGradient id="paint13_linear" x1="74.6531" y1="196.213" x2="74.6531" y2="179.34" gradientUnits="userSpaceOnUse">
<stop stop-color="#FE1018" stop-opacity="0"/>
<stop offset="1" stop-color="#A21C26"/>
</linearGradient>
<linearGradient id="paint14_linear" x1="171.585" y1="150.734" x2="171.585" y2="152.221" gradientUnits="userSpaceOnUse">
<stop stop-color="#FE1018"/>
<stop offset="1" stop-color="#A21C26"/>
</linearGradient>
<linearGradient id="paint15_linear" x1="31.3757" y1="196.213" x2="31.3757" y2="179.34" gradientUnits="userSpaceOnUse">
<stop stop-color="#FE1018" stop-opacity="0"/>
<stop offset="1" stop-color="#A21C26"/>
</linearGradient>
<linearGradient id="paint16_linear" x1="265.871" y1="79.787" x2="265.871" y2="116.374" gradientUnits="userSpaceOnUse">
<stop stop-color="#FE1018"/>
<stop offset="1" stop-color="#A21C26"/>
</linearGradient>
<linearGradient id="paint17_linear" x1="322.942" y1="79.787" x2="322.942" y2="116.374" gradientUnits="userSpaceOnUse">
<stop stop-color="#FE1018"/>
<stop offset="1" stop-color="#A21C26"/>
</linearGradient>
<linearGradient id="paint18_linear" x1="360.307" y1="147.623" x2="360.307" y2="148.635" gradientUnits="userSpaceOnUse">
<stop stop-color="#FE1018"/>
<stop offset="1" stop-color="#A21C26"/>
</linearGradient>
<linearGradient id="paint19_linear" x1="57.0469" y1="177.207" x2="57.0469" y2="178.647" gradientUnits="userSpaceOnUse">
<stop stop-color="#FE1018"/>
<stop offset="1" stop-color="#A21C26"/>
</linearGradient>
<linearGradient id="paint20_linear" x1="237.816" y1="212.006" x2="237.816" y2="213.445" gradientUnits="userSpaceOnUse">
<stop stop-color="#FE1018"/>
<stop offset="1" stop-color="#A21C26"/>
</linearGradient>
<linearGradient id="paint21_linear" x1="237.816" y1="177.207" x2="237.816" y2="178.647" gradientUnits="userSpaceOnUse">
<stop stop-color="#FE1018"/>
<stop offset="1" stop-color="#A21C26"/>
</linearGradient>
<linearGradient id="paint22_linear" x1="205.655" y1="62.0423" x2="205.655" y2="-27.3252" gradientUnits="userSpaceOnUse">
<stop stop-color="#FE1018"/>
<stop offset="1" stop-color="#FFA8BD"/>
</linearGradient>
<linearGradient id="paint23_linear" x1="205.79" y1="72.9895" x2="205.79" y2="73.9315" gradientUnits="userSpaceOnUse">
<stop stop-color="#FE1018"/>
<stop offset="1" stop-color="#A21C26"/>
</linearGradient>
<radialGradient id="paint24_radial" cx="0" cy="0" r="1" gradientUnits="userSpaceOnUse" gradientTransform="translate(74.3442 75.0542) scale(61.0591)">
<stop stop-color="#FE1018" stop-opacity="0"/>
<stop offset="0.7466" stop-color="#FE1018" stop-opacity="0.6"/>
<stop offset="0.7749" stop-color="#FE282F" stop-opacity="0.6503"/>
<stop offset="0.87" stop-color="#FF7279" stop-opacity="0.819"/>
<stop offset="0.9381" stop-color="#FFA1A7" stop-opacity="0.9398"/>
<stop offset="0.9721" stop-color="#FFB3B9"/>
</radialGradient>
<radialGradient id="paint25_radial" cx="0" cy="0" r="1" gradientUnits="userSpaceOnUse" gradientTransform="translate(378.919 114.191) scale(9.27546 11.5539)">
<stop stop-color="#A3AAB8"/>
<stop offset="0.8567" stop-color="#222326"/>
</radialGradient>
<linearGradient id="paint26_linear" x1="93.049" y1="19.5315" x2="93.049" y2="29.3014" gradientUnits="userSpaceOnUse">
<stop stop-color="white" stop-opacity="0"/>
<stop offset="1" stop-color="white"/>
</linearGradient>
<linearGradient id="paint27_linear" x1="150.331" y1="19.5315" x2="150.331" y2="29.3014" gradientUnits="userSpaceOnUse">
<stop stop-color="white" stop-opacity="0"/>
<stop offset="1" stop-color="white"/>
</linearGradient>
<linearGradient id="paint28_linear" x1="207.614" y1="19.5315" x2="207.614" y2="29.3014" gradientUnits="userSpaceOnUse">
<stop stop-color="white" stop-opacity="0"/>
<stop offset="1" stop-color="white"/>
</linearGradient>
<linearGradient id="paint29_linear" x1="264.897" y1="19.5315" x2="264.897" y2="29.3014" gradientUnits="userSpaceOnUse">
<stop stop-color="white" stop-opacity="0"/>
<stop offset="1" stop-color="white"/>
</linearGradient>
<linearGradient id="paint30_linear" x1="322.179" y1="19.5315" x2="322.179" y2="29.3014" gradientUnits="userSpaceOnUse">
<stop stop-color="white" stop-opacity="0"/>
<stop offset="1" stop-color="white"/>
</linearGradient>
<linearGradient id="paint31_linear" x1="294.346" y1="42.5104" x2="294.346" y2="41.2976" gradientUnits="userSpaceOnUse">
<stop stop-color="#FE1018"/>
<stop offset="1" stop-color="#A21C26"/>
</linearGradient>
<linearGradient id="paint32_linear" x1="236.857" y1="42.5104" x2="236.857" y2="41.2976" gradientUnits="userSpaceOnUse">
<stop stop-color="#FE1018"/>
<stop offset="1" stop-color="#A21C26"/>
</linearGradient>
<linearGradient id="paint33_linear" x1="179.368" y1="42.5104" x2="179.368" y2="41.2976" gradientUnits="userSpaceOnUse">
<stop stop-color="#FE1018"/>
<stop offset="1" stop-color="#A21C26"/>
</linearGradient>
<linearGradient id="paint34_linear" x1="28.3841" y1="151.213" x2="19.7524" y2="151.213" gradientUnits="userSpaceOnUse">
<stop stop-color="#FE1018" stop-opacity="0"/>
<stop offset="0.4916" stop-color="#FE1018" stop-opacity="0.6"/>
<stop offset="0.9721" stop-color="#FF7A85"/>
</linearGradient>
<linearGradient id="paint35_linear" x1="28.3841" y1="178.265" x2="19.7524" y2="178.265" gradientUnits="userSpaceOnUse">
<stop stop-color="#FE1018" stop-opacity="0"/>
<stop offset="0.4916" stop-color="#FE1018" stop-opacity="0.6"/>
<stop offset="0.9721" stop-color="#FF7A85"/>
</linearGradient>
<radialGradient id="paint36_radial" cx="0" cy="0" r="1" gradientUnits="userSpaceOnUse" gradientTransform="translate(119.428 206.565) scale(29.78)">
<stop stop-color="#36383D"/>
<stop offset="0.7059" stop-color="#222326"/>
<stop offset="0.9721" stop-color="#36383D"/>
</radialGradient>
<radialGradient id="paint37_radial" cx="0" cy="0" r="1" gradientUnits="userSpaceOnUse" gradientTransform="translate(119.065 209.622) scale(17.8887)">
<stop stop-color="#A21C26"/>
<stop offset="0.1814" stop-color="#9C1A24"/>
<stop offset="0.4325" stop-color="#8A161E"/>
<stop offset="0.7228" stop-color="#6D0E14"/>
<stop offset="1" stop-color="#4A0509"/>
</radialGradient>
<radialGradient id="paint38_radial" cx="0" cy="0" r="1" gradientUnits="userSpaceOnUse" gradientTransform="translate(119.141 208.984) scale(14.1537)">
<stop stop-color="#A21C26"/>
<stop offset="0.1814" stop-color="#9C1A24"/>
<stop offset="0.4325" stop-color="#8A161E"/>
<stop offset="0.7228" stop-color="#6D0E14"/>
<stop offset="1" stop-color="#4A0509"/>
</radialGradient>
<radialGradient id="paint39_radial" cx="0" cy="0" r="1" gradientUnits="userSpaceOnUse" gradientTransform="translate(119.428 206.566) scale(2.4345)">
<stop stop-color="white"/>
<stop offset="0.1109" stop-color="#F9F9F9"/>
<stop offset="0.2644" stop-color="#E7E7E8"/>
<stop offset="0.4429" stop-color="#C9CACC"/>
<stop offset="0.6402" stop-color="#A0A2A5"/>
<stop offset="0.8503" stop-color="#6D6F74"/>
<stop offset="1" stop-color="#43464D"/>
</radialGradient>
<radialGradient id="paint40_radial" cx="0" cy="0" r="1" gradientUnits="userSpaceOnUse" gradientTransform="translate(360.817 205.787) scale(30.504)">
<stop stop-color="#A3AAB8"/>
<stop offset="0.8567" stop-color="#222326"/>
</radialGradient>
<radialGradient id="paint41_radial" cx="0" cy="0" r="1" gradientUnits="userSpaceOnUse" gradientTransform="translate(356.723 209.615) scale(17.8887)">
<stop stop-color="#A21C26"/>
<stop offset="0.1814" stop-color="#9C1A24"/>
<stop offset="0.4325" stop-color="#8A161E"/>
<stop offset="0.7228" stop-color="#6D0E14"/>
<stop offset="1" stop-color="#4A0509"/>
</radialGradient>
<radialGradient id="paint42_radial" cx="0" cy="0" r="1" gradientUnits="userSpaceOnUse" gradientTransform="translate(356.799 208.977) scale(14.1537)">
<stop stop-color="#A21C26"/>
<stop offset="0.1814" stop-color="#9C1A24"/>
<stop offset="0.4325" stop-color="#8A161E"/>
<stop offset="0.7228" stop-color="#6D0E14"/>
<stop offset="1" stop-color="#4A0509"/>
</radialGradient>
<radialGradient id="paint43_radial" cx="0" cy="0" r="1" gradientUnits="userSpaceOnUse" gradientTransform="translate(357.147 199.851) scale(11.3646)">
<stop stop-color="white"/>
<stop offset="0.1109" stop-color="#F9F9F9"/>
<stop offset="0.2644" stop-color="#E7E7E8"/>
<stop offset="0.4429" stop-color="#C9CACC"/>
<stop offset="0.6402" stop-color="#A0A2A5"/>
<stop offset="0.8503" stop-color="#6D6F74"/>
<stop offset="1" stop-color="#43464D"/>
</radialGradient>
<radialGradient id="paint44_radial" cx="0" cy="0" r="1" gradientUnits="userSpaceOnUse" gradientTransform="translate(357.69 200.234) scale(7.21979)">
<stop stop-color="#A21C26"/>
<stop offset="0.1814" stop-color="#9C1A24"/>
<stop offset="0.4325" stop-color="#8A161E"/>
<stop offset="0.7228" stop-color="#6D0E14"/>
<stop offset="1" stop-color="#4A0509"/>
</radialGradient>
<radialGradient id="paint45_radial" cx="0" cy="0" r="1" gradientUnits="userSpaceOnUse" gradientTransform="translate(318.874 103.085) scale(1.94679)">
<stop stop-color="white"/>
<stop offset="0.1109" stop-color="#F9F9F9"/>
<stop offset="0.2644" stop-color="#E7E7E8"/>
<stop offset="0.4429" stop-color="#C9CACC"/>
<stop offset="0.6402" stop-color="#A0A2A5"/>
<stop offset="0.8503" stop-color="#6D6F74"/>
<stop offset="1" stop-color="#43464D"/>
</radialGradient>
<radialGradient id="paint46_radial" cx="0" cy="0" r="1" gradientUnits="userSpaceOnUse" gradientTransform="translate(119.735 227.989) rotate(-179.842) scale(21.5786 20.3335)">
<stop stop-color="white"/>
<stop offset="1" stop-color="white" stop-opacity="0"/>
</radialGradient>
<radialGradient id="paint47_radial" cx="0" cy="0" r="1" gradientUnits="userSpaceOnUse" gradientTransform="translate(119.854 235.378) rotate(-179.842) scale(30.7922 29.0155)">
<stop stop-color="white"/>
<stop offset="1" stop-color="white" stop-opacity="0"/>
</radialGradient>
<radialGradient id="paint48_radial" cx="0" cy="0" r="1" gradientUnits="userSpaceOnUse" gradientTransform="translate(358.106 235.378) rotate(-179.842) scale(30.7922 29.0155)">
<stop stop-color="white"/>
<stop offset="1" stop-color="white" stop-opacity="0"/>
</radialGradient>
<linearGradient id="paint49_linear" x1="389.445" y1="97.6914" x2="392.669" y2="97.6914" gradientUnits="userSpaceOnUse">
<stop stop-color="#F5CD7F"/>
<stop offset="1" stop-color="#52442A"/>
</linearGradient>
<linearGradient id="paint50_linear" x1="99.4613" y1="97.7074" x2="95.7591" y2="97.7074" gradientUnits="userSpaceOnUse">
<stop stop-color="#F5CD7F"/>
<stop offset="1" stop-color="#52442A"/>
</linearGradient>
<linearGradient id="paint51_linear" x1="156.466" y1="97.7074" x2="152.764" y2="97.7074" gradientUnits="userSpaceOnUse">
<stop stop-color="#F5CD7F"/>
<stop offset="1" stop-color="#52442A"/>
</linearGradient>
<linearGradient id="paint52_linear" x1="213.84" y1="97.7074" x2="210.138" y2="97.7074" gradientUnits="userSpaceOnUse">
<stop stop-color="#F5CD7F"/>
<stop offset="1" stop-color="#52442A"/>
</linearGradient>
<linearGradient id="paint53_linear" x1="145.305" y1="97.7074" x2="149.008" y2="97.7074" gradientUnits="userSpaceOnUse">
<stop stop-color="#F5CD7F"/>
<stop offset="1" stop-color="#52442A"/>
</linearGradient>
<linearGradient id="paint54_linear" x1="87.8536" y1="97.7074" x2="91.5558" y2="97.7074" gradientUnits="userSpaceOnUse">
<stop stop-color="#F5CD7F"/>
<stop offset="1" stop-color="#52442A"/>
</linearGradient>
<linearGradient id="paint55_linear" x1="202.76" y1="97.7074" x2="206.462" y2="97.7074" gradientUnits="userSpaceOnUse">
<stop stop-color="#F5CD7F"/>
<stop offset="1" stop-color="#52442A"/>
</linearGradient>
<linearGradient id="paint56_linear" x1="271.079" y1="97.7074" x2="267.377" y2="97.7074" gradientUnits="userSpaceOnUse">
<stop stop-color="#F5CD7F"/>
<stop offset="1" stop-color="#52442A"/>
</linearGradient>
<linearGradient id="paint57_linear" x1="260" y1="97.7074" x2="263.702" y2="97.7074" gradientUnits="userSpaceOnUse">
<stop stop-color="#F5CD7F"/>
<stop offset="1" stop-color="#52442A"/>
</linearGradient>
<linearGradient id="paint58_linear" x1="328.739" y1="97.7074" x2="325.036" y2="97.7074" gradientUnits="userSpaceOnUse">
<stop stop-color="#F5CD7F"/>
<stop offset="1" stop-color="#52442A"/>
</linearGradient>
<linearGradient id="paint59_linear" x1="317.622" y1="97.7074" x2="321.325" y2="97.7074" gradientUnits="userSpaceOnUse">
<stop stop-color="#F5CD7F"/>
<stop offset="1" stop-color="#52442A"/>
</linearGradient>
<linearGradient id="paint60_linear" x1="373.633" y1="97.7074" x2="377.335" y2="97.7074" gradientUnits="userSpaceOnUse">
<stop stop-color="#F5CD7F"/>
<stop offset="1" stop-color="#52442A"/>
</linearGradient>
<linearGradient id="paint61_linear" x1="328.424" y1="14.7123" x2="334.648" y2="14.7123" gradientUnits="userSpaceOnUse">
<stop stop-color="white" stop-opacity="0"/>
<stop offset="0.4749" stop-color="white"/>
<stop offset="1" stop-color="white" stop-opacity="0.1034"/>
</linearGradient>
</defs>
</svg>
