<?xml version="1.0" encoding="utf-8"?>
<!-- Generator: Adobe Illustrator 24.0.0, SVG Export Plug-In . SVG Version: 6.00 Build 0)  -->
<svg version="1.1" id="Слой_1" xmlns="http://www.w3.org/2000/svg" xmlns:xlink="http://www.w3.org/1999/xlink" x="0px" y="0px"
	 viewBox="0 0 121.9 270.9" style="enable-background:new 0 0 121.9 270.9;" xml:space="preserve">
<style type="text/css">
	.st0{fill:#FFFFFF;}
	.st1{fill:url(#SVGID_1_);}
	.st2{fill:url(#SVGID_2_);}
	.st3{opacity:0.15;fill:#FFFFFF;}
	.st4{fill:url(#SVGID_3_);}
	.st5{opacity:0.65;fill:#FFFFFF;}
	.st6{fill:url(#SVGID_4_);}
	.st7{fill:url(#SVGID_5_);}
	.st8{fill:url(#SVGID_6_);}
	.st9{fill:none;stroke:#000000;stroke-width:2;stroke-linecap:round;stroke-linejoin:round;stroke-miterlimit:10;}
	.st10{fill:#BBB8BD;}
	.st11{fill:none;stroke:#A21C26;stroke-linejoin:round;stroke-miterlimit:10;}
	.st12{fill:url(#SVGID_7_);}
	.st13{fill:none;stroke:#000000;stroke-linecap:round;stroke-linejoin:round;stroke-miterlimit:10;}
	.st14{fill:url(#SVGID_8_);}
	.st15{fill:url(#SVGID_9_);}
	.st16{fill:none;stroke:#A21C26;stroke-miterlimit:10;}
	.st17{opacity:0.25;fill:none;stroke:#FFFFFF;stroke-linecap:round;stroke-linejoin:round;stroke-miterlimit:10;}
	.st18{stroke:#000000;stroke-width:2;stroke-linecap:round;stroke-linejoin:round;stroke-miterlimit:10;}
	.st19{fill:#3D2614;stroke:#000000;stroke-linecap:round;stroke-linejoin:round;stroke-miterlimit:10;}
	.st20{fill:none;stroke:#A21C26;stroke-width:0.972;stroke-miterlimit:10;}
	.st21{opacity:0.65;fill:none;stroke:#FFFFFF;stroke-width:0.75;stroke-linecap:round;stroke-linejoin:round;stroke-miterlimit:10;}
	.st22{fill:#D1A67C;}
	.st23{fill:#C17938;}
	.st24{fill:#3D2614;}
	.st25{fill:#261204;}
	.st26{fill:#63200B;stroke:#000000;stroke-linecap:round;stroke-linejoin:round;stroke-miterlimit:10;}
	.st27{fill:#AF897E;stroke:#000000;stroke-linecap:round;stroke-linejoin:round;stroke-miterlimit:10;}
	.st28{opacity:8.000000e-02;fill:#FFFFFF;}
	.st29{font-family:'MyriadPro-Regular';}
	.st30{font-size:11.1278px;}
	.st31{fill:none;stroke:#A21C26;stroke-width:0.9952;stroke-miterlimit:10;}
</style>
<g>
	<g>
		<path class="st0" d="M60.9,12c37.1,0,44.8,12.4,44.8,12.4v0.8l0,4.2l0,0l0,1.3l0,11.1l0,0v5.8v0.8h-1.5v3.1h-1.5v14.1v3.3h0
			c0.8,0,1.4,0.3,2,0.8h0.9h0.1h0v46c0,0,0,0,0,0v52.8c0,0,0,0,0,0l0,86.2h4.2v4.4H12v-4.4h4.1v-0.8v-90.9V85.4v-0.8V71.9v-0.1v-2.2
			h1c0.5-0.5,1.2-0.8,2-0.8h0V51.4h-1.5v-0.8v-2.3h-1.5v-0.8v-5.1v-0.8c0,0,0,0,0,0v-2.4l0,0l0-3.2v-11v-0.8
			C16.1,24.4,23.8,12,60.9,12 M60.9,0C20.3,0,8.6,13.9,5.9,18.1c-1.2,1.9-1.8,4.1-1.8,6.3v0.8v11l0,3.2c0,0.1,0,0.1,0,0.2v2
			c0,0.1,0,0.1,0,0.2v0.8v5.1v0.8c0,2.5,0.7,4.7,2,6.6c0.2,0.8,0.6,1.5,1,2.3v4.4c-1.8,2.1-3,4.9-3,7.9v2.2v0.1v12.7v0.8v77.5v82.6
			c-2.5,2.2-4.1,5.4-4.1,9.1v4.4c0,6.6,5.4,12,12,12h97.9c6.6,0,12-5.4,12-12v-4.4c0-3.6-1.6-6.9-4.2-9.1l0-77.1c0-0.1,0-0.2,0-0.3
			v-52.2c0-0.1,0-0.2,0-0.3v-46c0-3-1.1-5.8-3-7.9v-4.4c0.4-0.7,0.7-1.5,1-2.3c1.3-1.9,2-4.2,2-6.6v-0.8v-5.8l0-11.1l0-1.2
			c0-0.1,0-0.1,0-0.2l0-4v-0.8c0-2.2-0.6-4.4-1.8-6.3C113.3,13.9,101.6,0,60.9,0L60.9,0z"/>
	</g>
	<g>
		<linearGradient id="SVGID_1_" gradientUnits="userSpaceOnUse" x1="60.9323" y1="-47.922" x2="60.9323" y2="342.7497">
			<stop  offset="0" style="stop-color:#FE1018"/>
			<stop  offset="1" style="stop-color:#A21C26"/>
		</linearGradient>
		<path class="st1" d="M104.3,50.3v-3.1h1.5v-5.8l0,0V24.1c0,0-7.7-12.4-44.8-12.4c-37.1,0-44.8,12.4-44.8,12.4v17.3c0,0,0,0,0,0
			v5.8h1.5v3.1h1.5v18.1h0h0c-1.6,0-3,1.3-3,3v12.9v169.1h89.6V84.2V71.4c0-1.6-1.3-3-3-3h0V50.3H104.3z"/>
		<linearGradient id="SVGID_2_" gradientUnits="userSpaceOnUse" x1="60.9323" y1="62.1463" x2="60.9323" y2="53.0789">
			<stop  offset="0" style="stop-color:#FE1018"/>
			<stop  offset="1" style="stop-color:#A21C26"/>
		</linearGradient>
		<rect x="19.1" y="51.1" class="st2" width="83.7" height="14.1"/>
		<path class="st3" d="M76.2,254.1c0,0-8.2-22.6,5.1-33.6s9.7-24.5,14.8-31.1c5-6.6,9.7-21.4,9.7-21.4l0,86.2H76.2z"/>
		<path class="st3" d="M17.3,162.5c0,0,11.3-18,35.4-16.3s35.2-6.4,36.1-10.8c0.9-4.3,5.5-13.3,8.9-15.3s8.1-5,8.1-5v-46H16.1v93.3
			H17.3z"/>
		<radialGradient id="SVGID_3_" cx="60.933" cy="53.357" r="59.24" gradientUnits="userSpaceOnUse">
			<stop  offset="0" style="stop-color:#FE1018;stop-opacity:0"/>
			<stop  offset="0.4471" style="stop-color:#FE1018;stop-opacity:0.6"/>
			<stop  offset="0.5166" style="stop-color:#FE282F;stop-opacity:0.6503"/>
			<stop  offset="0.7498" style="stop-color:#FF7279;stop-opacity:0.819"/>
			<stop  offset="0.9168" style="stop-color:#FFA1A7;stop-opacity:0.9398"/>
			<stop  offset="1" style="stop-color:#FFB3B9"/>
		</radialGradient>
		<path class="st4" d="M16.1,24.8v17.9c0,0,9.6-20.3,44.8-20.3c34.8,0,44.8,20.2,44.8,20.2l0-17.7c0,0-7.7-12.4-44.8-12.4
			S16.1,24.8,16.1,24.8z"/>
		<path class="st5" d="M95.6,31.8c0,0,3-0.4,4,0c1.1,0.4,1.9,0.9,2.6,0.4s1.3-0.4,1.7-1.2c0.4-0.9,1.8-1.9,1.8-1.9l0,12.1l-2.5-2.4
			L95.6,31.8z"/>
		<path class="st5" d="M16.1,31.2c0,0,3.3-1.5,5.2-1s3.4,2.6,3.4,2.6l-7.6,7.6L16.1,39L16.1,31.2z"/>
		<linearGradient id="SVGID_4_" gradientUnits="userSpaceOnUse" x1="22.146" y1="161.6475" x2="17.1673" y2="161.6475">
			<stop  offset="0" style="stop-color:#FE1018;stop-opacity:0"/>
			<stop  offset="0.4916" style="stop-color:#FE1018;stop-opacity:0.6"/>
			<stop  offset="0.9721" style="stop-color:#FF7A85"/>
		</linearGradient>
		<rect x="16.1" y="69.2" class="st6" width="4.6" height="185"/>
		
			<linearGradient id="SVGID_5_" gradientUnits="userSpaceOnUse" x1="3052.5959" y1="161.6475" x2="3047.6174" y2="161.6475" gradientTransform="matrix(-1 0 0 1 3152.3147 0)">
			<stop  offset="0" style="stop-color:#FE1018;stop-opacity:0"/>
			<stop  offset="0.4916" style="stop-color:#FE1018;stop-opacity:0.6"/>
			<stop  offset="0.9721" style="stop-color:#FF7A85"/>
		</linearGradient>
		<polygon class="st7" points="101.1,254.1 105.7,254.1 105.7,69.2 101.1,69.2 		"/>
		<linearGradient id="SVGID_6_" gradientUnits="userSpaceOnUse" x1="60.8814" y1="73.0883" x2="60.8814" y2="70.4796">
			<stop  offset="0" style="stop-color:#FE1018;stop-opacity:0"/>
			<stop  offset="0.4916" style="stop-color:#FE1018;stop-opacity:0.6"/>
			<stop  offset="0.9721" style="stop-color:#FF7A85"/>
		</linearGradient>
		<polygon class="st8" points="101.1,73.4 20.8,73.4 16.1,69.2 105.6,69.2 		"/>
		<rect x="19.1" y="51.1" class="st9" width="83.7" height="18.1"/>
		<rect x="17.6" y="48" class="st9" width="86.7" height="3.1"/>
		<path class="st9" d="M18.5,69.2c-1.3,0-2.3,1-2.3,2.3V85v169.1h89.6V85V71.5c0-1.3-1-2.3-2.3-2.3H18.5z"/>
		<path class="st9" d="M105.7,48H16.1v-5.8c0,0,10.4-19.8,44.8-19.8s44.8,19.8,44.8,19.8V48z"/>
		<path class="st9" d="M16.1,42.2V26.9c0-1.5,0.6-3,1.7-4c3.9-3.5,15.1-10.5,43.1-10.5c27.9,0,39.2,7.1,43.1,10.5
			c1.1,1,1.7,2.5,1.7,4v15.3"/>
		<rect x="25.7" y="55.3" class="st10" width="70.4" height="9.9"/>
		<path class="st11" d="M21.4,43.7h79c0,0-7.7-17-39.7-17S21.4,43.7,21.4,43.7z"/>
		
			<radialGradient id="SVGID_7_" cx="60.9323" cy="64.591" r="46.2003" gradientTransform="matrix(1.028679e-13 -1 1.2333 1.268720e-13 -18.7309 125.5233)" gradientUnits="userSpaceOnUse">
			<stop  offset="0" style="stop-color:#FE1018"/>
			<stop  offset="0.3166" style="stop-color:#FC1018"/>
			<stop  offset="0.4769" style="stop-color:#F4111A"/>
			<stop  offset="0.6022" style="stop-color:#E7131C"/>
			<stop  offset="0.7094" style="stop-color:#D4151E"/>
			<stop  offset="0.8039" style="stop-color:#BC1922"/>
			<stop  offset="0.8802" style="stop-color:#A21C26"/>
		</radialGradient>
		<path class="st12" d="M21.4,43.7h79c0,0-7.7-17-39.7-17S21.4,43.7,21.4,43.7z"/>
		<path class="st13" d="M100.4,43.7c0,0-7.7-17-39.7-17s-39.3,17-39.3,17"/>
		<linearGradient id="SVGID_8_" gradientUnits="userSpaceOnUse" x1="23.9173" y1="164.5787" x2="25.0202" y2="164.5787">
			<stop  offset="0" style="stop-color:#FE1018"/>
			<stop  offset="1" style="stop-color:#A21C26"/>
		</linearGradient>
		<polygon class="st14" points="25.7,252.6 23.8,252.6 23.8,76.5 25.7,78.5 		"/>
		
			<linearGradient id="SVGID_9_" gradientUnits="userSpaceOnUse" x1="3000.0854" y1="164.5787" x2="3001.1885" y2="164.5787" gradientTransform="matrix(-1 0 0 1 3097.9751 0)">
			<stop  offset="0" style="stop-color:#FE1018"/>
			<stop  offset="1" style="stop-color:#A21C26"/>
		</linearGradient>
		<polygon class="st15" points="96.1,252.6 98,252.6 98,76.5 96.1,78.5 		"/>
		<rect x="25.7" y="78.5" class="st16" width="70.4" height="175.6"/>
		<polyline class="st17" points="23.8,252.2 23.8,76.5 98.1,76.5 98.1,252.2 		"/>
		<rect x="12" y="254.1" class="st18" width="97.9" height="4.4"/>
		<g>
			<rect x="35.8" y="87.8" class="st19" width="14" height="21.7"/>
			<rect x="53.9" y="87.8" class="st19" width="14" height="21.7"/>
			<rect x="72" y="87.8" class="st19" width="14" height="21.7"/>
			<rect x="35.8" y="112.7" class="st19" width="14" height="21.7"/>
			<rect x="53.9" y="112.7" class="st19" width="14" height="21.7"/>
			<rect x="72" y="112.7" class="st19" width="14" height="21.7"/>
			<rect x="35.8" y="137.6" class="st19" width="14" height="21.7"/>
			<rect x="53.9" y="137.6" class="st19" width="14" height="21.7"/>
			<rect x="72" y="137.6" class="st19" width="14" height="21.7"/>
			<rect x="35.8" y="162.5" class="st19" width="14" height="21.7"/>
			<rect x="53.9" y="162.5" class="st19" width="14" height="21.7"/>
			<rect x="72" y="162.5" class="st19" width="14" height="21.7"/>
			<rect x="35.8" y="187.4" class="st19" width="14" height="21.7"/>
			<rect x="53.9" y="187.4" class="st19" width="14" height="21.7"/>
			<rect x="72" y="187.4" class="st19" width="14" height="21.7"/>
			<rect x="35.8" y="212.3" class="st19" width="14" height="21.7"/>
			<rect x="53.9" y="212.3" class="st19" width="14" height="21.7"/>
			<rect x="72" y="212.3" class="st19" width="14" height="21.7"/>
		</g>
		<rect x="35.8" y="240" class="st16" width="50.3" height="7.7"/>
		<line class="st16" x1="20.8" y1="72" x2="100.4" y2="72"/>
		<line class="st16" x1="20.8" y1="74.3" x2="100.4" y2="74.3"/>
		<line class="st17" x1="21.4" y1="44.7" x2="100.4" y2="44.7"/>
		<line class="st13" x1="35.8" y1="248.7" x2="86.1" y2="248.7"/>
		<line class="st13" x1="36.7" y1="241" x2="85.2" y2="241"/>
		<polyline class="st20" points="88.8,85.1 88.8,236.7 33.1,236.7 33.1,85.1 		"/>
		<line class="st17" x1="33.1" y1="85.1" x2="88.8" y2="85.1"/>
		<line class="st17" x1="35.8" y1="110.4" x2="49.8" y2="110.4"/>
		<line class="st17" x1="53.9" y1="110.4" x2="67.9" y2="110.4"/>
		<line class="st17" x1="72" y1="110.4" x2="86.1" y2="110.4"/>
		<line class="st17" x1="35.8" y1="135.4" x2="49.8" y2="135.4"/>
		<line class="st17" x1="53.9" y1="135.4" x2="67.9" y2="135.4"/>
		<line class="st17" x1="72" y1="135.4" x2="86.1" y2="135.4"/>
		<line class="st17" x1="35.8" y1="160.3" x2="49.8" y2="160.3"/>
		<line class="st17" x1="53.9" y1="160.3" x2="67.9" y2="160.3"/>
		<line class="st17" x1="72" y1="160.3" x2="86.1" y2="160.3"/>
		<line class="st17" x1="35.8" y1="185.2" x2="49.8" y2="185.2"/>
		<line class="st17" x1="53.9" y1="185.2" x2="67.9" y2="185.2"/>
		<line class="st17" x1="72" y1="185.2" x2="86.1" y2="185.2"/>
		<line class="st17" x1="35.8" y1="210.1" x2="49.8" y2="210.1"/>
		<line class="st17" x1="53.9" y1="210.1" x2="67.9" y2="210.1"/>
		<line class="st17" x1="72" y1="210.1" x2="86.1" y2="210.1"/>
		<line class="st17" x1="35.8" y1="234.9" x2="49.8" y2="234.9"/>
		<line class="st17" x1="53.9" y1="234.9" x2="67.9" y2="234.9"/>
		<line class="st17" x1="72" y1="234.9" x2="86.1" y2="234.9"/>
		<line class="st13" x1="26.6" y1="79.5" x2="95.2" y2="79.5"/>
		<path class="st5" d="M19.2,29.4c0.5-0.1,0.6,0.5,0.3,0.5s-1-0.1-1.1,0s-0.4-0.2-0.3-0.2C18.2,29.5,19.2,29.4,19.2,29.4z"/>
		<path class="st21" d="M20.7,43c0,0,3-4.8,6.9-7.9c3.9-3,7-4.3,7-4.3"/>
		<path class="st22" d="M29.5,154.2L29.5,154.2c-0.8,0-1.4-0.6-1.4-1.4V144c0-0.8,0.6-1.4,1.4-1.4h0c0.8,0,1.4,0.6,1.4,1.4v8.8
			C30.9,153.6,30.2,154.2,29.5,154.2z"/>
		<path class="st23" d="M29.4,153.3L29.4,153.3c-0.5,0-0.8-0.4-0.8-0.8v-8.6c0-0.5,0.4-0.8,0.8-0.8h0c0.5,0,0.8,0.4,0.8,0.8v8.6
			C30.2,153,29.9,153.3,29.4,153.3z"/>
		<path class="st5" d="M29.4,150.1L29.4,150.1c-0.1,0-0.3-0.1-0.3-0.3v-5.4c0-0.1,0.1-0.3,0.3-0.3l0,0c0.1,0,0.3,0.1,0.3,0.3v5.4
			C29.6,150,29.5,150.1,29.4,150.1z"/>
		<g>
			<g>
				<rect x="35.8" y="87.8" class="st24" width="14" height="21.7"/>
				<rect x="53.9" y="87.8" class="st24" width="14" height="21.7"/>
				<rect x="72.1" y="87.8" class="st24" width="14.1" height="21.7"/>
				<rect x="35.8" y="112.7" class="st24" width="14" height="21.7"/>
				<rect x="53.9" y="112.7" class="st24" width="14" height="21.7"/>
				<rect x="72.1" y="112.7" class="st24" width="14.1" height="21.7"/>
				<rect x="35.8" y="137.6" class="st24" width="14" height="21.7"/>
				<rect x="53.9" y="137.6" class="st24" width="14" height="21.7"/>
				<rect x="72.1" y="137.6" class="st24" width="14.1" height="21.7"/>
				<rect x="35.8" y="162.5" class="st24" width="14" height="21.7"/>
				<rect x="53.9" y="162.5" class="st24" width="14" height="21.7"/>
				<rect x="72.1" y="162.5" class="st24" width="14.1" height="21.7"/>
				<rect x="35.8" y="187.4" class="st24" width="14" height="21.7"/>
				<rect x="53.9" y="187.4" class="st24" width="14" height="21.7"/>
				<rect x="72.1" y="187.4" class="st24" width="14.1" height="21.7"/>
				<rect x="35.8" y="212.3" class="st24" width="14" height="21.7"/>
				<rect x="53.9" y="212.3" class="st24" width="14" height="21.7"/>
				<rect x="72.1" y="212.3" class="st24" width="14.1" height="21.7"/>
			</g>
			<rect x="35.8" y="170.8" class="st25" width="14" height="13.4"/>
			<rect x="35.8" y="187.4" class="st25" width="14" height="21.7"/>
			<rect x="35.8" y="212.3" class="st25" width="14" height="21.7"/>
			<rect x="53.9" y="170.8" class="st25" width="14" height="13.4"/>
			<rect x="53.9" y="187.4" class="st25" width="14" height="21.7"/>
			<rect x="53.9" y="212.3" class="st25" width="14" height="21.7"/>
			<rect x="72.1" y="170.8" class="st25" width="14.1" height="13.4"/>
			<rect x="72.1" y="187.4" class="st25" width="14.1" height="21.7"/>
			<rect x="72.1" y="212.3" class="st25" width="14.1" height="21.7"/>
			<rect x="42.8" y="122.5" class="st26" width="7" height="11.9"/>
			<rect x="42.8" y="137.6" class="st26" width="7" height="16.6"/>
			<rect x="53.9" y="122.5" class="st26" width="10.8" height="11.9"/>
			<rect x="53.9" y="137.6" class="st26" width="10.8" height="16.6"/>
			<rect x="78" y="101.4" class="st27" width="6.5" height="33"/>
			<rect x="78" y="137.6" class="st27" width="6.5" height="5.9"/>
			<path class="st3" d="M35.8,162.5h2.3c-0.8,0.9-1.6,1.8-2.3,2.7V162.5z"/>
			<rect x="35.8" y="87.8" class="st3" width="14" height="21.7"/>
			<path class="st3" d="M49.8,137.6V153c-0.7,0.4-1.3,0.8-1.9,1.2c-2.4,1.6-4.6,3.3-6.6,5.1h-5.5v-21.7H49.8z"/>
			<rect x="35.8" y="112.7" class="st3" width="14" height="21.7"/>
			<path class="st3" d="M68,137.6v6c-1.1,0.5-2.2,1.1-3.3,1.6c-3.3,1.6-6.9,3.4-10.8,5.5v-13.1H68z"/>
			<rect x="53.9" y="87.8" class="st3" width="14" height="21.7"/>
			<rect x="53.9" y="112.7" class="st3" width="14" height="21.7"/>
			<path class="st3" d="M80,137.6c-0.7,0.3-1.3,0.7-2,1.1c-1.8,0.9-3.8,1.9-5.9,3v-4H80z"/>
			<path class="st3" d="M84.5,109.5v3.2h1.6v21.5c-0.1,0.1-0.2,0.1-0.3,0.2H72.1v-21.7H78v-3.2h-5.9V87.8h14.1v21.7H84.5z"/>
			<path class="st28" d="M49.8,212.3v14.6c-0.4,0.5-0.8,1-1.2,1.5c-0.7,0.8-1.4,1.7-2.1,2.6c-0.8,1-1.7,2-2.7,3.1h-8.1v-21.7H49.8z"
				/>
			<path class="st28" d="M49.8,195.1v14h-14v-7.5c1.4-0.5,2.9-1.1,4.4-1.8c0.2-0.1,0.3-0.1,0.5-0.2
				C43.6,198.3,46.7,196.8,49.8,195.1z"/>
			<path class="st28" d="M53.9,212.3h6.9c-2.3,2.4-4,5.1-6.9,9.1V212.3z"/>
			<path class="st28" d="M72.1,204.2c-1.3,0.9-2.6,1.8-4.1,2.8c-1.1,0.7-2.2,1.4-3.3,2.2H53.9v-16.3c5.1-3,9.9-3.7,14-3.2
				c1.5,0.2,2.8,0.5,4.1,0.9c3.5,1.2,6,3.1,7,4.6C80.7,197.5,77.3,200.6,72.1,204.2z"/>
			<path class="st3" d="M40.7,134.4h-1.4c0.2-3.6,0.4-7.3,0.4-7.3C39.9,127.5,40.3,130.6,40.7,134.4z"/>
			<path class="st3" d="M41.5,149.7c-0.9,0.8-2.4-8.1-2.4-9.1c0-0.3,0-1.5,0.1-3H41C41.6,143.3,41.9,149.3,41.5,149.7z"/>
			<path class="st3" d="M42.3,209.1h-2.7c0.2-3.7,0.4-7.1,0.5-9.3c0.1-1.8,0.2-2.8,0.2-2.8s0.1,1.1,0.3,2.6c0.2,2,0.6,4.7,1,6.1
				C41.9,206.4,42.1,207.7,42.3,209.1z"/>
			<path class="st3" d="M48.7,228.3c0.4,0,0.8,0,1.2,0v2.7c-1.1,0-2.2-0.1-3.3-0.2c-2.6-0.2-5.1-0.5-6.2-0.6
				c-1.3-0.2-1.3-9.4-0.9-18h3.1c0.1,1.6,0.2,3.1,0.3,3.9c0.2,2.1-0.6,6.3,0,8.2c0.6,1.9,1.6,3.6,2.7,3.7
				C46.1,228.2,47.2,228.3,48.7,228.3z"/>
			<path class="st3" d="M63.3,229.5c-0.3,0.8-5.2,0.8-8,1.4c-0.3,0.1-0.8,0.1-1.3,0.2v-2.7c0.8,0,1.5-0.1,2.4-0.1
				C61.6,227.8,63.6,228.7,63.3,229.5z"/>
			<g>
				<rect x="35.7" y="87.8" class="st13" width="14" height="21.7"/>
				<rect x="53.8" y="87.8" class="st13" width="14" height="21.7"/>
				<rect x="71.9" y="87.8" class="st13" width="14.1" height="21.7"/>
				<rect x="35.7" y="112.7" class="st13" width="14" height="21.7"/>
				<rect x="53.8" y="112.7" class="st13" width="14" height="21.7"/>
				<rect x="71.9" y="112.7" class="st13" width="14.1" height="21.7"/>
				<rect x="35.7" y="137.6" class="st13" width="14" height="21.7"/>
				<rect x="53.8" y="137.6" class="st13" width="14" height="21.7"/>
				<rect x="71.9" y="137.6" class="st13" width="14.1" height="21.7"/>
				<rect x="35.7" y="162.5" class="st13" width="14" height="21.7"/>
				<rect x="53.8" y="162.5" class="st13" width="14" height="21.7"/>
				<rect x="71.9" y="162.5" class="st13" width="14.1" height="21.7"/>
				<rect x="35.7" y="187.4" class="st13" width="14" height="21.7"/>
				<rect x="53.8" y="187.4" class="st13" width="14" height="21.7"/>
				<rect x="71.9" y="187.4" class="st13" width="14.1" height="21.7"/>
				<rect x="35.7" y="212.3" class="st13" width="14" height="21.7"/>
				<rect x="53.8" y="212.3" class="st13" width="14" height="21.7"/>
				<rect x="71.9" y="212.3" class="st13" width="14.1" height="21.7"/>
			</g>
		</g>
		<text transform="matrix(1 0 0 1 33.1017 64.2782)" class="st29 st30">TELEPHONE</text>
		<rect x="23.8" y="53.2" class="st31" width="74.3" height="13.9"/>
	</g>
</g>
</svg>
