<svg id="beae7924-241b-49ff-94db-3fec94cccae4" data-name="Слой 1" xmlns="http://www.w3.org/2000/svg" xmlns:xlink="http://www.w3.org/1999/xlink" viewBox="0 0 221.42 391.2"><defs><linearGradient id="e1e203c4-6c97-4685-b710-34491e5b3d9b" x1="110.71" y1="300.81" x2="110.71" y2="397.53" gradientUnits="userSpaceOnUse"><stop offset="0" stop-color="#fe1018"/><stop offset="1" stop-color="#a21c26"/></linearGradient><radialGradient id="a9f0fff7-440d-40c7-b64c-8cf324d26430" cx="111.13" cy="216.56" r="61.88" gradientTransform="matrix(-1, 0, 0, -1.64, 222.96, 571.39)" gradientUnits="userSpaceOnUse"><stop offset="0.46" stop-color="#e2c8ac"/><stop offset="0.54" stop-color="#e0c5a9" stop-opacity="0.98"/><stop offset="0.64" stop-color="#dcbd9f" stop-opacity="0.92"/><stop offset="0.76" stop-color="#d5b090" stop-opacity="0.82"/><stop offset="0.89" stop-color="#cb9d7a" stop-opacity="0.68"/><stop offset="1" stop-color="#c28b65" stop-opacity="0.55"/></radialGradient><radialGradient id="ac0f76f5-3b33-4719-b397-9f59d683f419" cx="109.75" cy="161.29" r="74.53" gradientTransform="matrix(-1, 0, 0, -1.64, 220.02, 425.51)" gradientUnits="userSpaceOnUse"><stop offset="0.48" stop-color="#1d2124"/><stop offset="0.65" stop-color="#181c1e"/><stop offset="0.87" stop-color="#0b0d0e"/><stop offset="1"/></radialGradient></defs><title>london_man_</title><path d="M54.08,238.38s-2.73,3.51-6,2-1.2-7.61-.91-10.48a13.21,13.21,0,0,0-.19-4.5l6-.54Z" fill="#e2bf9a"/><path d="M54.08,238.38s-2.73,3.51-6,2-1.2-7.61-.91-10.48a13.21,13.21,0,0,0-.19-4.5l6-.54Z" fill="#d39c76" opacity="0.55"/><path d="M54.08,238.38s-2.73,3.51-6,2-1.2-7.61-.91-10.48a13.21,13.21,0,0,0-.19-4.5l6-.54Z" fill="none" stroke="#000" stroke-miterlimit="10" stroke-width="2.96"/><path d="M166.74,238.38s2.74,3.51,6,2,1.2-7.61.92-10.48a12.9,12.9,0,0,1,.19-4.5l-6-.54Z" fill="#e2bf9a"/><path d="M166.74,238.38s2.74,3.51,6,2,1.2-7.61.92-10.48a12.9,12.9,0,0,1,.19-4.5l-6-.54Z" fill="#d39c76" opacity="0.55"/><path d="M219.94,389.67H1.48c0-44.28,33.65-81.51,77.75-85.48,9.37-.85,19.82-1.33,31.48-1.33s22.11.48,31.48,1.33c44.1,4,77.75,41.2,77.75,85.48Z" fill="url(#e1e203c4-6c97-4685-b710-34491e5b3d9b)"/><path d="M6.34,388s-2.08-7,1.14-19.35,11.54-29,11.54-29L10.66,351l-5.5,13.77L1.6,385.14l-.12,4.53H6.72Z" fill="#fff" opacity="0.25"/><path d="M214.58,388s2.08-7-1.13-19.35-11.55-29-11.55-29l8.37,11.3,5.5,13.77,3.55,20.39.12,4.53H214.2Z" fill="#fff" opacity="0.25"/><rect x="95.96" y="273.81" width="29.5" height="29.48" fill="#e2bf9a" stroke="#000" stroke-miterlimit="10" stroke-width="2.96"/><path d="M125.46,273.81v13.1a65.17,65.17,0,0,1-14.71,1.65A64.1,64.1,0,0,1,96,286.88V273.81Z"/><path d="M57.86,375.82A23.2,23.2,0,0,1,53.12,374c-1.34-.64-1.68-3.38-1.68-3.38h0c.05-.29.09-.55.13-.77.38-2.65.66-11.17,0-12.59s-3.41-.94-5.4,1.14c-1,1.07-2.27,4-3.4,7.34h0s-.24.74-.71.76-2.32-.85-2.56,0,1.28.38,1.71,1.13a5.5,5.5,0,0,1,.26,2.4h0c-.22.79-.43,1.58-.61,2.34h0l-.26.33a1.44,1.44,0,0,1-.58.18c-.22,0-.91-.39-.91,0s.3.21.69.72a4.63,4.63,0,0,1,.35,2h0a39.64,39.64,0,0,0-.52,4.53h0s-.29,1.33-1,1.61-3.31.07-3.4,1,2.69.62,3.21.74a2.48,2.48,0,0,1,1,.68h0c0,3.14.14,5.57.14,5.57H50s-.12-1.3-.25-2.87l2.25.33c.64.09,1.74-.62.79-1a12.81,12.81,0,0,0-3.13-.46c0-.33,0-.66-.08-1a18.16,18.16,0,0,1,3.26-.27c1.37.1,3.12,0,3.36-1.27S53.32,382,52,381.78A5,5,0,0,1,49.63,380c.18-1.18.45-2.58.74-4a6.86,6.86,0,0,1,2.43-.41c.9.14,5.29,1.65,5.91,1.42S59.09,376,57.86,375.82Z" fill="#841422" opacity="0.55"/><path d="M164.29,375.82A23.2,23.2,0,0,0,169,374c1.34-.64,1.68-3.38,1.68-3.38h0c-.05-.29-.1-.55-.13-.77-.38-2.65-.66-11.17,0-12.59s3.41-.94,5.4,1.14c1,1.07,2.27,4,3.39,7.34h0s.24.74.71.76,2.32-.85,2.56,0-1.28.38-1.71,1.13a5.5,5.5,0,0,0-.26,2.4h0c.22.79.42,1.58.61,2.34h0l.26.33a1.44,1.44,0,0,0,.58.18c.22,0,.91-.39.91,0s-.3.21-.69.72a4.63,4.63,0,0,0-.35,2h0a39.64,39.64,0,0,1,.52,4.53h0s.29,1.33,1,1.61,3.31.07,3.4,1-2.69.62-3.21.74a2.48,2.48,0,0,0-1,.68h0c0,3.14-.14,5.57-.14,5.57H172.19s.12-1.3.25-2.87l-2.25.33c-.64.09-1.74-.62-.79-1a12.81,12.81,0,0,1,3.13-.46c0-.33.05-.66.08-1a18.16,18.16,0,0,0-3.26-.27c-1.37.1-3.12,0-3.36-1.27s2.84-1.14,4.2-1.38a5,5,0,0,0,2.33-1.78c-.18-1.18-.45-2.58-.74-4a6.86,6.86,0,0,0-2.43-.41c-.9.14-5.29,1.65-5.91,1.42S163.06,376,164.29,375.82Z" fill="#841422" opacity="0.55"/><path d="M111,389.07l-.91-77.91-38.74-5.68-8.5,1.8s39.28,6.72,41.41,8.8c.33.31.59,2.22.82,5.21,0,0-.3,3.87-2.94,5s-8.89,2.28-8.89,4.87,7.36.42,9.84.52a5.22,5.22,0,0,1,2.5.69c.11,3.43.19,7.2.26,11.13h0s-2.38,2.85-4.18,2.75-2.84,1-2.65,1.89,4.83-.19,5.2,0a8.65,8.65,0,0,0,1.71.25c.27,19.77.19,41.27.19,41.27Z" fill="#841422" opacity="0.55"/><rect x="36.74" y="380.06" width="2.93" height="2.93" fill="none" stroke="#a21c26" stroke-miterlimit="10" stroke-width="1.48"/><path d="M219.94,389.67H1.48c0-44.28,33.65-81.51,77.75-85.48,9.37-.85,19.82-1.33,31.48-1.33s22.11.48,31.48,1.33c44.1,4,77.75,41.2,77.75,85.48Z" fill="none" stroke="#000" stroke-linecap="round" stroke-linejoin="round" stroke-width="2.96"/><rect x="95.96" y="273.8" width="29.49" height="29.49" stroke-width="2.96" stroke="#000" stroke-linecap="round" stroke-linejoin="round" fill="none"/><path d="M168.39,150.75v73.94a57.68,57.68,0,1,1-115.35,0V150.75Z" fill="#e2bf9a" stroke="#000" stroke-miterlimit="10" stroke-width="2.96"/><path d="M168.8,150.75v73.94a57.67,57.67,0,1,1-115.34,0V150.75Z" fill="url(#a9f0fff7-440d-40c7-b64c-8cf324d26430)"/><path d="M97.42,186.77s8,5.16,9,8.52,1,4.16,1,4.3-2.46,2.75-2.46,2.75l-2.37-8.71Z" fill="#d39c76" opacity="0.55"/><path d="M73.15,232.1l.43-.6,4,1.36a3.29,3.29,0,0,0,4.27-2.34l.14-.62.87.68a3.29,3.29,0,0,0,5.06-1.31l.18-.41,1.37,2a3.28,3.28,0,0,0,4.42,1l1.3-.78.47.21a3.27,3.27,0,0,0,3.88-.9,20.85,20.85,0,0,1,7.92-5.65c2-.57,2.23-.33,3,.19a10.76,10.76,0,0,1,1.79,2.07,3.29,3.29,0,0,0,3.26,2.87H117l1.91,1.43a3.29,3.29,0,0,0,4.68-.77l.83-1.19,2.23,1.83a3.29,3.29,0,0,0,4.82-.71h0l2,2.35a3.28,3.28,0,0,0,4.32.57l1.56-1,1.5,1.95a3.29,3.29,0,0,0,4.26.83L148,233.5l.36.56a3.29,3.29,0,0,0,5.32.29l3.61-4.45.8-12.69s-67.86-5.55-68.46-5.5-19.76,5.5-19.76,5.5l-7.21,4.17,4.83,10.2A3.29,3.29,0,0,0,73.15,232.1Z" fill="#d39c76" opacity="0.55"/><path d="M109.34,213.61a88.46,88.46,0,0,0-7.18,11.11,45.49,45.49,0,0,0-2.71,6,16.84,16.84,0,0,0-1.2,6.14,6.89,6.89,0,0,0,.71,2.84,10.45,10.45,0,0,0,.69,1.33,10.14,10.14,0,0,0,.9,1.15,6.66,6.66,0,0,0,5.11,2.07,9.51,9.51,0,0,0,2.9-.46,7.91,7.91,0,0,0,1.32-.54,4.72,4.72,0,0,0,.55-.34c.17-.15.35-.27.52-.44a18.14,18.14,0,0,0,3.43-5l0,0a1.48,1.48,0,1,1,2.66,1.3v0a25.69,25.69,0,0,1-1.86,3,15.93,15.93,0,0,1-2.43,2.75c-.23.21-.51.4-.77.6a8.09,8.09,0,0,1-.89.51,10,10,0,0,1-1.79.67,12.68,12.68,0,0,1-3.68.46,9.12,9.12,0,0,1-6.77-3.06,11.4,11.4,0,0,1-1.1-1.51,14,14,0,0,1-.79-1.66,10.88,10.88,0,0,1-.57-1.75,8.62,8.62,0,0,1-.2-1.87A19.11,19.11,0,0,1,97.75,230a48.51,48.51,0,0,1,3-6.08,89.88,89.88,0,0,1,7.68-11,.56.56,0,0,1,.89.69Z"/><path d="M53,198s-3.94,68.68,57.75,68.68,57.59-69.63,57.59-69.63l-4.34-5S166.83,258,110.71,258s-53.19-61.66-53.19-61.66l-1.79-4.28Z" fill="#bc8e6f" opacity="0.75"/><path d="M94.3,257.36s-3.65-8.57,16.41-8.57c23.46,0,13.77,9.75,13.77,9.75L113.74,257l-9.71.68Z" fill="#dd8c8c"/><path d="M120.23,250.57s5,2.53-.9,3.09a43.24,43.24,0,0,1-8.2,1c-5,.09-14.75-2-14.75-2l6.2,4.87,15.14-.12,5.6.61,4.53-.37-1.53-4.17-3.58-2.88Z" fill="#d87373"/><path d="M126.41,256a5.49,5.49,0,0,0-2.28-3.33,13.7,13.7,0,0,0-4.11-1.91,24.66,24.66,0,0,0-4.62-.89,46.94,46.94,0,0,0-4.75-.29,31.22,31.22,0,0,0-9.34,1.08,11.72,11.72,0,0,0-4,2.06,5.84,5.84,0,0,0-2.07,3.49L93,255.61a8.29,8.29,0,0,1,3.18-4.39,13.49,13.49,0,0,1,4.67-2.1,35.82,35.82,0,0,1,9.8-.93,42.05,42.05,0,0,1,9.75,1.08,15.46,15.46,0,0,1,4.69,1.93,7.71,7.71,0,0,1,3.36,4.22Z"/><path d="M57.67,182.42S50.08,258,110.71,258s53-75.57,53-75.57" fill="none" stroke="#000" stroke-linecap="round" stroke-linejoin="round" stroke-width="5.93"/><path d="M131.51,270.38H88.75a15.82,15.82,0,0,1,5.19-7.27c3.29-2.69,8.54-5.13,16.78-5.13,12.08,0,17.23,5.22,19.37,8.88a.46.46,0,0,1,.07.14c.15.26.3.53.42.78A10.78,10.78,0,0,1,131.51,270.38Z" fill="#e2bf9a"/><path d="M167.37,207.65s1,12.3-4.17,31.79c-3.77,14.22-18.76,28.33-34.77,34.92-.05-.05-6.15-5.49-17.64-5.49S96,275.42,96,275.47c-14.66-5.34-26.65-17.18-32.1-23.92-7.18-8.89-7.2-31.41-7.2-31.41L53,217.79v6.9a57.61,57.61,0,0,0,19.29,43,57.66,57.66,0,0,0,96.06-43V208.86Zm-39.11,66.79c-1.3.53-2.61,1-3.91,1.43Z" fill="#d39c76" opacity="0.55"/><path d="M53,150.74H168.38a0,0,0,0,1,0,0v73.95a57.67,57.67,0,0,1-57.67,57.67h0A57.67,57.67,0,0,1,53,224.69V150.74a0,0,0,0,1,0,0Z" fill="none" stroke="#000" stroke-miterlimit="10" stroke-width="2.96"/><path d="M130.09,266.86c-1-1.4-4-4.12-12.58-5.94-12-2.55-23.19,2.85-23.57,3.26v-1.07c3.29-2.69,8.54-5.13,16.78-5.13C122.8,258,128,263.2,130.09,266.86Z" fill="#ffebc2"/><path d="M88.51,270.32a15,15,0,0,1,3.28-5.92,20.16,20.16,0,0,1,5.35-4.23,28.66,28.66,0,0,1,13.17-3c1.13,0,2.26.09,3.38.12s2.26.29,3.38.44a23.55,23.55,0,0,1,6.45,2.25,17.42,17.42,0,0,1,5.32,4.29,13.82,13.82,0,0,1,2.89,6.11.23.23,0,0,1-.18.26.23.23,0,0,1-.25-.16v0a14.14,14.14,0,0,0-3.28-5.48,16.29,16.29,0,0,0-5.15-3.71,24.82,24.82,0,0,0-6.1-1.89c-1.07-.11-2.13-.3-3.21-.37s-2.16-.11-3.24-.09a30.1,30.1,0,0,0-12.52,2.58,19.59,19.59,0,0,0-5.2,3.69,15.66,15.66,0,0,0-3.61,5.3v0a.25.25,0,0,1-.33.14A.25.25,0,0,1,88.51,270.32Z"/><polygon points="69.89 305.55 78.08 288.55 111.04 297.05 111.04 311.16 69.89 305.55" stroke="#000" stroke-linecap="round" stroke-linejoin="round" stroke-width="2.96"/><polygon points="153.69 305.55 145.5 288.55 112.55 297.05 112.55 311.16 153.69 305.55" stroke="#000" stroke-linecap="round" stroke-linejoin="round" stroke-width="2.96"/><line x1="110.71" y1="312.29" x2="110.71" y2="389.67" stroke="#000" stroke-linecap="round" stroke-linejoin="round" stroke-width="2.96"/><polyline points="78.63 292.62 111.5 301 112.68 313.44 113.72 386.75" fill="none" stroke="#fff" stroke-linecap="round" stroke-linejoin="round" stroke-width="2.96"/><line x1="145.04" y1="292.61" x2="111.5" y2="301" fill="none" stroke="#fff" stroke-linecap="round" stroke-linejoin="round" stroke-width="2.96"/><circle cx="116.82" cy="327.17" r="4" fill="#fff"/><circle cx="116.82" cy="345.24" r="4" fill="#fff"/><circle cx="116.82" cy="365.96" r="4" fill="#fff"/><circle cx="116.82" cy="384.03" r="4" fill="#fff"/><path d="M47.34,363.28a.59.59,0,0,0,.34-.27h0v.05l-.06.17-.11.39-.21.81-.39,1.66c-.24,1.11-.47,2.22-.69,3.34-.44,2.23-.84,4.47-1.12,6.69s-.25,4.47-.29,6.73,0,4.56,0,6.83h0a1.49,1.49,0,0,1-3,0v-.09c.1-2.3.23-4.59.38-6.89a67.72,67.72,0,0,1,.72-6.95c.42-2.3,1-4.53,1.53-6.76.28-1.12.58-2.23.9-3.34l.49-1.66.26-.83.15-.43.1-.23a.77.77,0,0,1,.06-.15l.05-.09a.84.84,0,0,1,.41-.35.69.69,0,0,1,.44,1.31Z"/><path d="M173.33,362a.82.82,0,0,1,.42.35l0,.09a.48.48,0,0,1,.07.15l.09.23.15.43.27.83.49,1.66c.31,1.11.61,2.22.9,3.34.57,2.23,1.11,4.46,1.53,6.76a67.72,67.72,0,0,1,.72,6.95c.15,2.3.27,4.59.37,6.89a1.48,1.48,0,1,1-3,.13v-.08h0c0-2.27,0-4.56,0-6.83s0-4.57-.29-6.73-.68-4.46-1.12-6.69c-.22-1.12-.45-2.23-.7-3.34l-.38-1.66-.21-.81-.11-.39-.06-.17V363h0a.61.61,0,0,0,.35.27.69.69,0,0,1,.43-1.31Z"/><path d="M114.86,351.84c.28,0,13.43,2.72,15.8,4.58s7.28,6.11,5.68,7.53-15.8-3.59-16.84-3.88-4.64-.94-4.64-.94Z" fill="#841422" opacity="0.55"/><path d="M69.89,310.12c.31,0,28.13,6,29.45,7.19s1.71,5.86,1,6.72-.56-3.13-2.36-4.74-28.76-8.24-28.83-8.7S69.89,310.12,69.89,310.12Z" fill="#fff" opacity="0.25"/><path d="M117.51,319.39s-.28-4.12.85-4.75,12.21-2.91,13.06-2.35-7.24,3.11-9,3.51-2.42,5.43-3.41,5.36S117.51,319.39,117.51,319.39Z" fill="#fff" opacity="0.25"/><path d="M188.67,72.17V175.35a22.56,22.56,0,0,1-22.56,22.56s-11.11-9.52-55.4-9.52-55.4,9.52-55.4,9.52a22.56,22.56,0,0,1-22.56-22.56V72.17c0-31.86,34.9-57.67,78-57.67S188.67,40.31,188.67,72.17Z" stroke="#000" stroke-miterlimit="10" stroke-width="2.96"/><polyline points="54.46 33.36 55.92 13.27 66.86 25.23" stroke="#000" stroke-linecap="round" stroke-linejoin="round" stroke-width="2.96"/><polyline points="65.81 34.59 67.27 14.5 78.21 26.45" stroke="#000" stroke-linecap="round" stroke-linejoin="round" stroke-width="2.96"/><polyline points="73.33 34.59 74.79 14.5 85.73 26.45" stroke="#000" stroke-linecap="round" stroke-linejoin="round" stroke-width="2.96"/><polyline points="76.76 26.23 81.24 6.59 90.25 20.06" stroke="#000" stroke-linecap="round" stroke-linejoin="round" stroke-width="2.96"/><polyline points="89.13 17.96 91.74 1.48 100.75 14.95" stroke="#000" stroke-linecap="round" stroke-linejoin="round" stroke-width="2.96"/><polyline points="99.46 17.54 105.16 1.86 111.44 16.8" stroke="#000" stroke-linecap="round" stroke-linejoin="round" stroke-width="2.96"/><polyline points="106.85 16.35 115.39 2.02 118.76 17.87" stroke="#000" stroke-linecap="round" stroke-linejoin="round" stroke-width="2.96"/><polyline points="111.98 16.59 123.92 4.94 123.1 21.12" stroke="#000" stroke-linecap="round" stroke-linejoin="round" stroke-width="2.96"/><polyline points="121.69 19.18 130.41 4.96 133.58 20.85" stroke="#000" stroke-linecap="round" stroke-linejoin="round" stroke-width="2.96"/><polyline points="132.48 17.61 141.2 3.4 144.37 19.29" stroke="#000" stroke-linecap="round" stroke-linejoin="round" stroke-width="2.96"/><polyline points="153.06 23.89 166.45 13.93 163.48 29.86" stroke="#000" stroke-linecap="round" stroke-linejoin="round" stroke-width="2.96"/><polyline points="184.57 59.16 199.42 66.77 183.83 71.15" stroke="#000" stroke-linecap="round" stroke-linejoin="round" stroke-width="2.96"/><polyline points="184.57 68.34 199.42 75.94 183.83 80.33" stroke="#000" stroke-linecap="round" stroke-linejoin="round" stroke-width="2.96"/><polyline points="179.42 116.4 194.26 124 178.67 128.39" stroke="#000" stroke-linecap="round" stroke-linejoin="round" stroke-width="2.96"/><polyline points="180.55 124.54 195.4 132.14 179.8 136.52" stroke="#000" stroke-linecap="round" stroke-linejoin="round" stroke-width="2.96"/><polyline points="179.42 130.53 194.26 138.13 178.67 142.51" stroke="#000" stroke-linecap="round" stroke-linejoin="round" stroke-width="2.96"/><polyline points="184.57 139.05 199.42 146.65 183.83 151.03" stroke="#000" stroke-linecap="round" stroke-linejoin="round" stroke-width="2.96"/><polyline points="184.57 108.27 199.42 115.87 183.83 120.25" stroke="#000" stroke-linecap="round" stroke-linejoin="round" stroke-width="2.96"/><polyline points="180.55 75.06 195.4 82.66 179.8 87.04" stroke="#000" stroke-linecap="round" stroke-linejoin="round" stroke-width="2.96"/><polyline points="188.26 86.52 203.19 93.96 187.64 98.51" stroke="#000" stroke-linecap="round" stroke-linejoin="round" stroke-width="2.96"/><polyline points="184.47 151.03 199.4 158.47 183.85 163.02" stroke="#000" stroke-linecap="round" stroke-linejoin="round" stroke-width="2.96"/><polyline points="184.47 159.54 199.4 166.99 183.85 171.53" stroke="#000" stroke-linecap="round" stroke-linejoin="round" stroke-width="2.96"/><polyline points="184.47 179.22 199.4 186.66 183.85 191.21" stroke="#000" stroke-linecap="round" stroke-linejoin="round" stroke-width="2.96"/><polyline points="187.75 169.08 200.13 180.25 183.94 180.46" stroke="#000" stroke-linecap="round" stroke-linejoin="round" stroke-width="2.96"/><polyline points="187.75 188.38 200.13 199.55 183.94 199.76" stroke="#000" stroke-linecap="round" stroke-linejoin="round" stroke-width="2.96"/><polyline points="181.88 195.12 194.26 206.29 178.07 206.5" stroke="#000" stroke-linecap="round" stroke-linejoin="round" stroke-width="2.96"/><polyline points="185.98 204.33 195.51 218.02 179.69 214.56" stroke="#000" stroke-linecap="round" stroke-linejoin="round" stroke-width="2.96"/><polyline points="180.99 211.71 190.52 225.4 174.69 221.93" stroke="#000" stroke-linecap="round" stroke-linejoin="round" stroke-width="2.96"/><polyline points="162.4 220.46 151.85 233.38 150.84 217.21" stroke="#000" stroke-linecap="round" stroke-linejoin="round" stroke-width="2.96"/><polyline points="182.22 214.82 182.31 231.5 171.24 219.67" stroke="#000" stroke-linecap="round" stroke-linejoin="round" stroke-width="2.96"/><polyline points="178.7 218.96 174.27 235.04 166.82 220.66" stroke="#000" stroke-linecap="round" stroke-linejoin="round" stroke-width="2.96"/><polyline points="170 218.96 165.57 235.04 158.11 220.66" stroke="#000" stroke-linecap="round" stroke-linejoin="round" stroke-width="2.96"/><polyline points="48.52 46.75 43.33 27.28 57.58 35" stroke="#000" stroke-linecap="round" stroke-linejoin="round" stroke-width="2.96"/><polyline points="38.73 52.56 33.54 33.1 47.78 40.82" stroke="#000" stroke-linecap="round" stroke-linejoin="round" stroke-width="2.96"/><polyline points="41.68 66.73 28.78 51.26 44.95 52.27" stroke="#000" stroke-linecap="round" stroke-linejoin="round" stroke-width="2.96"/><polyline points="36.48 142.66 20.81 130.01 36.86 127.83" stroke="#000" stroke-linecap="round" stroke-linejoin="round" stroke-width="2.96"/><polyline points="43.16 149.68 24.64 141.75 39.5 135.31" stroke="#000" stroke-linecap="round" stroke-linejoin="round" stroke-width="2.96"/><polyline points="43.16 181.96 24.64 174.03 39.5 167.58" stroke="#000" stroke-linecap="round" stroke-linejoin="round" stroke-width="2.96"/><polyline points="40.55 189.14 22.03 181.22 36.89 174.77" stroke="#000" stroke-linecap="round" stroke-linejoin="round" stroke-width="2.96"/><polyline points="46.12 194.84 27.6 186.91 42.46 180.46" stroke="#000" stroke-linecap="round" stroke-linejoin="round" stroke-width="2.96"/><polyline points="44.99 199.57 26.47 191.64 41.33 185.19" stroke="#000" stroke-linecap="round" stroke-linejoin="round" stroke-width="2.96"/><polyline points="44.99 205.1 26.47 197.17 41.33 190.72" stroke="#000" stroke-linecap="round" stroke-linejoin="round" stroke-width="2.96"/><polyline points="39.33 158.19 20.81 150.27 35.67 143.82" stroke="#000" stroke-linecap="round" stroke-linejoin="round" stroke-width="2.96"/><polyline points="46.12 165.38 27.6 157.46 42.46 151.01" stroke="#000" stroke-linecap="round" stroke-linejoin="round" stroke-width="2.96"/><polyline points="38.04 173.71 19.52 165.78 34.38 159.33" stroke="#000" stroke-linecap="round" stroke-linejoin="round" stroke-width="2.96"/><polyline points="42.75 211.4 22.67 209.8 34.7 198.94" stroke="#000" stroke-linecap="round" stroke-linejoin="round" stroke-width="2.96"/><polyline points="53.97 221.41 34.85 227.76 41.7 213.08" stroke="#000" stroke-linecap="round" stroke-linejoin="round" stroke-width="2.96"/><polyline points="57.57 215.85 46.02 232.36 42.75 216.49" stroke="#000" stroke-linecap="round" stroke-linejoin="round" stroke-width="2.96"/><polyline points="75.74 214.76 68.36 233.5 61.48 218.83" stroke="#000" stroke-linecap="round" stroke-linejoin="round" stroke-width="2.96"/><polyline points="84.15 209.18 76.77 227.93 69.89 213.26" stroke="#000" stroke-linecap="round" stroke-linejoin="round" stroke-width="2.96"/><polyline points="91.17 207.84 83.79 226.59 76.91 211.92" stroke="#000" stroke-linecap="round" stroke-linejoin="round" stroke-width="2.96"/><polyline points="99.66 210.12 92.28 228.86 85.4 214.19" stroke="#000" stroke-linecap="round" stroke-linejoin="round" stroke-width="2.96"/><polyline points="110.79 212.7 98.36 228.54 95.96 212.52" stroke="#000" stroke-linecap="round" stroke-linejoin="round" stroke-width="2.96"/><polyline points="155.43 214.68 143.77 231.11 140.61 215.22" stroke="#000" stroke-linecap="round" stroke-linejoin="round" stroke-width="2.96"/><polyline points="148.02 213.48 136.36 229.9 133.2 214.01" stroke="#000" stroke-linecap="round" stroke-linejoin="round" stroke-width="2.96"/><polyline points="140.61 211.28 128.94 227.7 125.79 211.81" stroke="#000" stroke-linecap="round" stroke-linejoin="round" stroke-width="2.96"/><polyline points="131.87 211.28 120.2 227.7 117.05 211.81" stroke="#000" stroke-linecap="round" stroke-linejoin="round" stroke-width="2.96"/><polyline points="126.83 209.81 115.17 226.23 112.01 210.34" stroke="#000" stroke-linecap="round" stroke-linejoin="round" stroke-width="2.96"/><polyline points="62.67 215.85 51.13 232.36 47.86 216.49" stroke="#000" stroke-linecap="round" stroke-linejoin="round" stroke-width="2.96"/><polyline points="40.55 86.56 22.12 78.43 37.05 72.15" stroke="#000" stroke-linecap="round" stroke-linejoin="round" stroke-width="2.96"/><polyline points="44.95 95.65 26.52 87.52 41.45 81.23" stroke="#000" stroke-linecap="round" stroke-linejoin="round" stroke-width="2.96"/><polyline points="40.55 104.7 22.12 96.57 37.05 90.28" stroke="#000" stroke-linecap="round" stroke-linejoin="round" stroke-width="2.96"/><polyline points="37.86 114.41 19.43 106.28 34.36 99.99" stroke="#000" stroke-linecap="round" stroke-linejoin="round" stroke-width="2.96"/><polyline points="42.67 123.47 24.24 115.34 39.17 109.06" stroke="#000" stroke-linecap="round" stroke-linejoin="round" stroke-width="2.96"/><polyline points="40.55 130.68 22.12 122.55 37.05 116.27" stroke="#000" stroke-linecap="round" stroke-linejoin="round" stroke-width="2.96"/><polyline points="180.34 99.8 200.33 102.32 187.82 112.61" stroke="#000" stroke-linecap="round" stroke-linejoin="round" stroke-width="2.96"/><polyline points="170.35 36.23 190.34 38.74 177.82 49.04" stroke="#000" stroke-linecap="round" stroke-linejoin="round" stroke-width="2.96"/><polygon points="33.54 63.98 24.13 67.77 32.75 72.17 33.54 63.98" stroke="#000" stroke-linecap="round" stroke-linejoin="round" stroke-width="2.96"/><polygon points="35.36 211.18 29.54 219.49 39.17 218.47 35.36 211.18" stroke="#000" stroke-linecap="round" stroke-linejoin="round" stroke-width="2.96"/><polygon points="171.52 35.56 172.77 25.5 164.73 30.9 171.52 35.56" stroke="#000" stroke-linecap="round" stroke-linejoin="round" stroke-width="2.96"/><polygon points="180.72 55.42 187.97 48.32 178.31 47.55 180.72 55.42" stroke="#000" stroke-linecap="round" stroke-linejoin="round" stroke-width="2.96"/><polygon points="181.07 61.17 188.32 54.07 178.67 53.3 181.07 61.17" stroke="#000" stroke-linecap="round" stroke-linejoin="round" stroke-width="2.96"/><polygon points="182.21 64.65 189.46 57.55 179.8 56.78 182.21 64.65" stroke="#000" stroke-linecap="round" stroke-linejoin="round" stroke-width="2.96"/><polygon points="151.15 24.57 152.4 14.5 144.37 19.9 151.15 24.57" stroke="#000" stroke-linecap="round" stroke-linejoin="round" stroke-width="2.96"/><polyline points="67.37 218.75 55.83 235.26 52.55 219.39" stroke="#000" stroke-linecap="round" stroke-linejoin="round" stroke-width="2.96"/><path d="M188.67,72.17V205.1a22.56,22.56,0,0,1-22.56,22.56s-11.11-9.52-55.4-9.52-55.4,9.52-55.4,9.52A22.56,22.56,0,0,1,32.75,205.1V72.17c0-31.86,34.9-57.67,78-57.67S188.67,40.31,188.67,72.17Z" stroke="#000" stroke-miterlimit="10" stroke-width="2.96" fill="url(#ac0f76f5-3b33-4719-b397-9f59d683f419)"/><polyline points="73.33 95.65 76.76 120.25 95.55 99.99" fill="none" stroke="#000" stroke-linecap="round" stroke-linejoin="round" stroke-width="2.96"/><polyline points="137.26 140.22 146.91 153.56 151.99 139.05" fill="none" stroke="#000" stroke-linecap="round" stroke-linejoin="round" stroke-width="2.96"/><polyline points="115.71 76.64 121.69 95.65 130.45 86.14" fill="none" stroke="#000" stroke-linecap="round" stroke-linejoin="round" stroke-width="2.96"/><polyline points="73.33 59 65.81 72.17 83.5 70.11" fill="none" stroke="#000" stroke-linecap="round" stroke-linejoin="round" stroke-width="2.96"/><polyline points="102.58 47.55 106.46 34.59 121.69 47.55" fill="none" stroke="#000" stroke-linecap="round" stroke-linejoin="round" stroke-width="2.96"/><polyline points="74.66 151.01 68.03 165.54 84.04 159.54" fill="none" stroke="#000" stroke-linecap="round" stroke-linejoin="round" stroke-width="2.96"/><polyline points="104.3 163.02 110.71 174.83 115.71 163.02" fill="none" stroke="#000" stroke-linecap="round" stroke-linejoin="round" stroke-width="2.96"/><polyline points="138.42 173.71 149.47 181.26 149.47 169.08" fill="none" stroke="#000" stroke-linecap="round" stroke-linejoin="round" stroke-width="2.96"/><polyline points="150.6 120.25 164.02 122.39 157.31 110.98" fill="none" stroke="#000" stroke-linecap="round" stroke-linejoin="round" stroke-width="2.96"/><polyline points="115.71 126.31 125.91 136.52 127.89 122.39" fill="none" stroke="#000" stroke-linecap="round" stroke-linejoin="round" stroke-width="2.96"/><path d="M93.55,136.52C93,136.81,90,149.68,90,149.68l16.85-3.38" fill="none" stroke="#000" stroke-linecap="round" stroke-linejoin="round" stroke-width="2.96"/><path d="M98.71,253s1-2,7.08-2.65a34.44,34.44,0,0,1,10.11.26s.9.29.5.36-7.19-.71-11,0-5.1,2.13-5.1,2.13a4.67,4.67,0,0,1-1.42.56C98.39,253.69,98.71,253,98.71,253Z" fill="#eab2b2"/><path d="M99.66,234.18a9,9,0,0,0,.81,5.64,6.19,6.19,0,0,0,4.12,3.34,7.31,7.31,0,0,0,4.47-.75c1-.57,0-1.24-.71-1.17s-3.62,2.06-5.92-.78-2-3.5-2.2-4.87,0-1.92-.15-2.15S99.66,234.18,99.66,234.18Z" fill="#ffebc2"/><path d="M166.74,238.38s2.74,3.51,6,2,1.2-7.61.92-10.48a12.9,12.9,0,0,1,.19-4.5l-6-.54Z" fill="none" stroke="#000" stroke-miterlimit="10" stroke-width="2.96"/></svg>