<svg width="30" height="36" viewBox="0 0 30 36" fill="none" xmlns="http://www.w3.org/2000/svg">
<path fill-rule="evenodd" clip-rule="evenodd" d="M11.9775 6.26611C11.9775 4.33312 13.5445 0.766113 15.4775 0.766113C17.4105 0.766113 18.9775 4.33312 18.9775 6.26611L18.9775 13.9002C18.9847 13.9044 18.9919 13.9086 18.999 13.913L27.999 19.413C28.0102 19.4198 28.0213 19.4269 28.0322 19.4342C28.3749 19.6627 28.839 20.0695 29.2261 20.6063C29.6134 21.1433 29.9775 21.8868 29.9775 22.7663L29.9775 24.2663C29.9775 24.5853 29.8253 24.8852 29.5678 25.0735C29.3103 25.2618 28.9783 25.3159 28.6743 25.2192L18.9775 22.1338V28.8069L22.016 31.0857C22.283 31.2345 22.6035 31.4781 22.8759 31.8105C23.187 32.19 23.4775 32.74 23.4775 33.4319L23.4775 34.9319C23.4775 35.2533 23.323 35.5552 23.0623 35.7431C22.8015 35.9311 22.4663 35.9822 22.1613 35.8806L15.2272 33.5692L8.29377 35.8804C7.98882 35.982 7.6536 35.9309 7.39283 35.7429C7.13206 35.555 6.97754 35.2531 6.97754 34.9317L6.97754 33.4317C6.97754 32.7398 7.26808 32.1898 7.57915 31.8103C7.85158 31.4779 8.17212 31.2343 8.4391 31.0855L11.9775 28.4317V22.1338L2.28074 25.2192C1.97673 25.3159 1.64481 25.2618 1.38729 25.0735C1.12976 24.8852 0.977539 24.5853 0.977539 24.2663L0.977539 22.7663C0.977539 21.8868 1.34168 21.1433 1.72895 20.6063C2.11611 20.0695 2.58015 19.6627 2.92284 19.4342C2.93378 19.4269 2.94487 19.4198 2.95609 19.413L11.9561 13.913C11.9632 13.9086 11.9704 13.9044 11.9775 13.9002L11.9775 6.26611ZM15.4775 31.4316L21.4775 33.5445L21.4775 33.4319C21.4775 33.3238 21.4347 33.2072 21.3291 33.0783C21.2167 32.9412 21.081 32.8517 21.0303 32.8263C20.9767 32.7995 20.9255 32.7679 20.8775 32.7319L16.9775 29.4316L16.9775 28.9316L16.9775 28.4316L16.9775 21.2095L16.9775 20.7896C16.9772 20.7743 16.9772 20.7588 16.9775 20.7434L16.9775 6.26611C16.9775 5.43769 16.306 2.76611 15.4775 2.76611C14.6491 2.76611 13.9775 5.43769 13.9775 6.26611V20.7434C13.9779 20.7589 13.9779 20.7742 13.9775 20.7896L13.9775 28.9201L13.9775 28.9418L13.9775 29.4316L13.5853 29.7258L13.5775 29.7317L9.57754 32.7317C9.52955 32.7677 9.47841 32.7993 9.42475 32.8261C9.37406 32.8515 9.23834 32.941 9.12593 33.0781C9.02033 33.207 8.97754 33.3236 8.97754 33.4317L8.97754 33.5443L15.4775 31.4316ZM18.9775 20.035L27.9775 22.8987L27.9775 22.7663C27.9775 22.4457 27.8417 22.1058 27.6039 21.7762C27.373 21.4559 27.0967 21.2174 26.9368 21.1078L18.9775 16.2438L18.9775 20.035ZM11.9775 16.2438L11.9775 20.035L2.97754 22.8987L2.97754 22.7663C2.97754 22.4457 3.11339 22.1058 3.35113 21.7762C3.58207 21.4559 3.85839 21.2174 4.01824 21.1078L11.9775 16.2438Z" fill="white"/>
</svg>
