<svg width="103" height="103" viewBox="0 0 103 103" fill="none" xmlns="http://www.w3.org/2000/svg">
<path fill-rule="evenodd" clip-rule="evenodd" d="M100.576 38.0148C99.9243 35.5816 98.2896 33.6741 96.2135 32.6051C96.9255 30.3812 96.7327 27.8766 95.4732 25.6951C94.2137 23.5136 92.141 22.0942 89.8591 21.5989C89.9713 19.2665 89.1367 16.8971 87.3555 15.1158C85.5743 13.3347 83.205 12.5001 80.8727 12.6122C80.3775 10.33 78.9581 8.25707 76.7763 6.99743C74.5946 5.7378 72.0897 5.54505 69.8656 6.25729C68.7966 4.18136 66.8892 2.54669 64.456 1.89473C62.0229 1.24277 59.5537 1.70473 57.5899 2.96801C56.0199 1.23927 53.7543 0.153809 51.2351 0.153809C48.716 0.153809 46.4505 1.23919 44.8805 2.96781C42.9167 1.70451 40.4475 1.24253 38.0143 1.8945C35.5811 2.54647 33.6737 4.1812 32.6047 6.25719C30.3808 5.54517 27.8761 5.738 25.6945 6.99752C23.5129 8.25706 22.0936 10.3298 21.5983 12.6118C19.2657 12.4995 16.8961 13.334 15.1147 15.1154C13.3334 16.8967 12.4989 19.2662 12.6112 21.5987C10.3292 22.094 8.25658 23.5134 6.99708 25.6949C5.73759 27.8764 5.54474 30.381 6.25672 32.6049C4.18059 33.6739 2.54574 35.5814 1.89374 38.0147C1.24173 40.448 1.70381 42.9174 2.96731 44.8813C1.2387 46.4512 0.15332 48.7168 0.15332 51.2359C0.15332 53.7549 1.23869 56.0205 2.9673 57.5904C1.70396 59.5542 1.24196 62.0235 1.89394 64.4567C2.54591 66.8899 4.18064 68.7973 6.25664 69.8664C5.54461 72.0902 5.73744 74.5949 6.99696 76.7765C8.25651 78.9581 10.3293 80.3774 12.6113 80.8727C12.4989 83.2053 13.3335 85.5749 15.1148 87.3563C16.8961 89.1376 19.2655 89.9721 21.5979 89.8599C22.0932 92.142 23.5125 94.2149 25.6942 95.4745C27.8758 96.734 30.3806 96.9268 32.6045 96.2147C33.6736 98.2907 35.581 99.9253 38.0141 100.577C40.4475 101.229 42.9169 100.767 44.8807 99.5037C46.4507 101.232 48.7162 102.318 51.2353 102.318C53.7543 102.318 56.0198 101.232 57.5897 99.5039C59.5536 100.767 62.0229 101.229 64.4561 100.577C66.8894 99.9254 68.7968 98.2906 69.8659 96.2145C72.0898 96.9267 74.5947 96.7339 76.7763 95.4743C78.958 94.2147 80.3774 92.1418 80.8726 89.8597C83.205 89.9719 85.5745 89.1374 87.3557 87.3561C89.1369 85.5749 89.9715 83.2055 89.8593 80.8731C92.1413 80.3778 94.214 78.9585 95.4736 76.7769C96.7332 74.5951 96.926 72.0902 96.2137 69.8662C98.2897 68.7971 99.9243 66.8897 100.576 64.4566C101.228 62.0234 100.766 59.5542 99.503 57.5904C101.232 56.0205 102.317 53.7548 102.317 51.2357C102.317 48.7165 101.232 46.4508 99.503 44.8809C100.766 42.9171 101.228 40.4479 100.576 38.0148Z" fill="#00969F"/>
<path d="M26.0941 33.9103L28.5575 33.4502L29.4006 37.9641L31.1209 37.6428L30.2777 33.1288L32.7549 32.6661L34.8371 43.8133L32.3599 44.2761L31.4499 39.4043L29.7297 39.7256L30.6396 44.5974L28.1763 45.0575L26.0941 33.9103ZM34.3699 32.3645L36.8195 31.9069L38.9017 43.0541L36.452 43.5117L34.3699 32.3645ZM40.8573 37.5617C40.3672 37.3779 39.9428 37.0631 39.5842 36.6174C39.2331 36.1607 38.9975 35.6113 38.8776 34.9691C38.6479 33.7397 38.7988 32.819 39.3301 32.207C39.8706 31.5934 40.7739 31.1683 42.04 30.9318L44.9025 30.3971L46.9847 41.5443L44.5351 42.0019L43.7125 37.598L43.2721 37.6803L43.1207 37.7086L42.3194 42.4157L39.6633 42.9119L40.8573 37.5617ZM43.3886 35.864L42.7691 32.5474L42.3837 32.6194C41.3745 32.8079 40.9727 33.4526 41.1784 34.5536C41.3857 35.6637 42.0032 36.1228 43.0308 35.9309L43.3886 35.864ZM46.6564 30.0695L49.1198 29.6094L49.945 34.027L50.1927 33.9807L51.0052 29.2572L53.4548 28.7996L52.3949 34.4096L55.6058 39.934L53.0736 40.407L50.5423 35.8523L50.2946 35.8986L51.202 40.7566L48.7386 41.2167L46.6564 30.0695ZM54.5319 28.5984L56.4724 28.236L57.6651 34.6215L59.3211 27.7039L60.9175 27.4057L62.9997 38.5529L61.0179 38.9231L59.8046 32.4274L58.1142 39.4654L56.6141 39.7456L54.5319 28.5984ZM65.0007 31.9695L61.975 27.2082L64.3008 26.7737L66.0886 29.5588L66.5165 26.3599L68.567 25.9768L67.695 32.1357L70.8694 37.0829L68.5573 37.5148L66.5728 34.4389L65.9976 37.9929L63.9608 38.3734L65.0007 31.9695ZM16.0067 53.0885L18.8142 52.5641L22.9744 63.3232L20.7037 63.7473L19.8925 61.4634L18.2549 61.7693L18.3091 64.1946L15.9833 64.629L16.0067 53.0885ZM19.3835 60.0346L17.9795 55.7963L18.2 60.2557L19.3835 60.0346ZM22.059 51.958L27.2197 50.9941L27.5616 52.8244L24.8643 53.3282L26.6046 62.6451L24.1412 63.1052L22.059 51.958ZM28.388 50.7758L33.3974 49.8402L33.711 51.5191L31.165 51.9947L31.6817 54.7608L33.6221 54.3984L33.9409 56.1049L32.0005 56.4673L32.6225 59.7977L35.196 59.317L35.5071 60.9822L30.4702 61.9231L28.388 50.7758ZM34.5846 49.6184L37.048 49.1583L37.8911 53.6722L39.6114 53.3509L38.7682 48.8369L41.2454 48.3742L43.3275 59.5214L40.8504 59.9841L39.9404 55.1124L38.2201 55.4337L39.1301 60.3055L36.6667 60.7656L34.5846 49.6184ZM44.2894 49.6998L42.6105 50.0135L42.2686 48.1831L48.0899 47.0958L48.4318 48.9261L46.7666 49.2371L48.5069 58.554L46.0297 59.0167L44.2894 49.6998ZM54.3771 57.6284C53.166 57.8546 52.2445 57.6992 51.6125 57.1621C50.9879 56.6141 50.5634 55.7392 50.3389 54.5373L49.5883 50.5188C49.3586 49.2894 49.4378 48.3157 49.8259 47.5975C50.2123 46.8702 51.0156 46.3926 52.2358 46.1647C53.401 45.947 54.279 46.0726 54.8698 46.5415C55.4606 47.0103 55.8519 47.7585 56.0439 48.786L56.2238 49.7494L53.8155 50.1992L53.6072 49.0845C53.5267 48.6533 53.4191 48.3316 53.2845 48.1194C53.1499 47.9071 52.9083 47.8336 52.5597 47.8987C52.2111 47.9638 52.0048 48.1305 51.941 48.3988C51.8755 48.6579 51.883 49.0031 51.9635 49.4343L52.9429 54.6776C53.0252 55.118 53.1436 55.4471 53.2983 55.6651C53.4604 55.8722 53.7112 55.9441 54.0506 55.8806C54.3901 55.8172 54.5843 55.6623 54.6332 55.4158C54.6895 55.1584 54.6766 54.8095 54.5943 54.3691L54.3758 53.1993L56.7842 52.7495L56.9641 53.7128C57.1595 54.7587 57.0689 55.6207 56.6923 56.2987C56.314 56.9675 55.5423 57.4108 54.3771 57.6284ZM56.8671 45.4563L59.3305 44.9961L60.2097 49.7027L60.7602 49.5999C62.9437 49.192 64.236 50.0615 64.637 52.2084C64.7981 53.0708 64.7718 53.7689 64.5582 54.3025C64.352 54.8252 64.0083 55.2218 63.5271 55.492C63.0533 55.7514 62.454 55.9488 61.7292 56.0842L58.9493 56.6035L56.8671 45.4563ZM61.4422 54.4715C61.8734 54.3909 62.1622 54.2088 62.3086 53.9251C62.455 53.6414 62.4785 53.2335 62.3791 52.7014C62.2849 52.1968 62.1249 51.8231 61.8992 51.5804C61.6734 51.3378 61.3174 51.2618 60.8312 51.3527L60.5284 51.4092L61.1119 54.5332L61.4422 54.4715ZM64.5142 44.0279L66.9776 43.5678L67.8027 47.9854L68.0504 47.9391L68.863 43.2156L71.3126 42.758L70.2526 48.368L73.4636 53.8924L70.9314 54.3654L68.4 49.8107L68.1523 49.857L69.0597 54.715L66.5963 55.1751L64.5142 44.0279ZM72.3897 42.5568L74.3301 42.1944L75.5229 48.5799L77.1789 41.6623L78.7752 41.3641L80.8574 52.5113L78.8757 52.8815L77.6624 46.3858L75.9719 53.4238L74.4719 53.704L72.3897 42.5568ZM82.8585 45.9279L79.8328 41.1665L82.1585 40.7321L83.9463 43.5172L84.3742 40.3183L86.4248 39.9352L85.5528 46.0941L88.7271 51.0413L86.4151 51.4732L84.4306 48.3973L83.8554 51.9513L81.8186 52.3317L82.8585 45.9279ZM37.9053 79.0592C36.7952 79.2666 35.9496 79.1112 35.3686 78.593C34.7876 78.0749 34.3926 77.2562 34.1835 76.1369L34.1089 75.7378L36.4209 75.3059L36.5006 75.7326C36.6052 76.2922 36.7339 76.6764 36.8868 76.8852C37.049 77.0923 37.2814 77.1676 37.5842 77.111C37.8778 77.0562 38.0536 76.9047 38.1117 76.6565C38.1789 76.4065 38.1637 76.0201 38.066 75.4971C37.9546 74.9008 37.7823 74.4867 37.5491 74.2549C37.3234 74.0122 36.962 73.9326 36.4648 74.016C36.4356 74.0119 36.2283 74.0459 35.843 74.1179L35.5628 72.6178L36.127 72.5124C36.6391 72.4073 36.962 72.2045 37.0958 71.9042C37.2388 71.6021 37.2546 71.1529 37.1432 70.5566C37.0609 70.1162 36.9304 69.7988 36.7517 69.6043C36.5712 69.4006 36.3296 69.3271 36.0268 69.3836C35.7424 69.4367 35.5574 69.59 35.4718 69.8433C35.3954 70.095 35.3928 70.4373 35.4642 70.8702L35.5799 71.4895L33.2679 71.9213L33.1419 71.247C32.9568 70.2561 33.0936 69.4378 33.5521 68.7919C34.0198 68.1444 34.7354 67.7306 35.6987 67.5507C36.6804 67.3673 37.4899 67.482 38.1271 67.8947C38.7736 68.3056 39.1885 69.0019 39.3719 69.9836C39.4901 70.6167 39.4628 71.182 39.2899 71.6795C39.1169 72.1771 38.8435 72.5177 38.4696 72.7015C38.9316 72.7861 39.3196 73.008 39.6336 73.3671C39.9458 73.7171 40.1713 74.2636 40.3101 75.0067C40.5141 76.0985 40.4303 76.9972 40.0589 77.7027C39.6874 78.4082 38.9696 78.8604 37.9053 79.0592ZM40.2348 66.8743L45.7671 65.8409L46.1167 67.7126L43.0478 68.2858L43.5773 71.1208L44.1003 71.0231C46.3022 70.6118 47.6036 71.4796 48.0047 73.6265C48.1657 74.4889 48.1395 75.1869 47.9258 75.7205C47.7196 76.2433 47.3759 76.6398 46.8947 76.9101C46.4209 77.1695 45.8171 77.3677 45.0831 77.5048L42.3169 78.0215L40.2348 66.8743ZM44.7961 75.8921C45.2365 75.8099 45.5261 75.6323 45.6651 75.3595C45.8115 75.0758 45.835 74.6679 45.7356 74.1358C45.6396 73.622 45.4788 73.2437 45.253 73.0011C45.0273 72.7584 44.6713 72.6825 44.1851 72.7733L43.8961 72.8273L44.4796 75.9512L44.7961 75.8921ZM53.1194 76.1746C51.9176 76.3991 51.0023 76.252 50.3737 75.7333C49.7434 75.2054 49.3151 74.3359 49.0889 73.1249L48.3152 68.9825C48.089 67.7714 48.1762 66.8152 48.5769 66.1137C48.9758 65.403 49.7763 64.9354 50.9781 64.7109C52.1892 64.4847 53.109 64.631 53.7376 65.1497C54.3754 65.6667 54.8065 66.5262 55.031 67.7281L55.8048 71.8704C56.031 73.0815 55.9409 74.0478 55.5345 74.7693C55.1355 75.48 54.3305 75.9484 53.1194 76.1746ZM52.793 74.4269C53.1416 74.3618 53.3496 74.2042 53.4168 73.9543C53.4824 73.6952 53.4774 73.3638 53.402 72.9601L52.3995 67.5929C52.3224 67.1801 52.2073 66.8693 52.0544 66.6604C51.9015 66.4516 51.6507 66.3798 51.302 66.4449C50.9718 66.5066 50.7738 66.667 50.7083 66.9261C50.641 67.1761 50.6451 67.5029 50.7205 67.9066L51.7231 73.2737C51.7985 73.6774 51.9089 73.9891 52.0544 74.2088C52.1981 74.4193 52.4443 74.492 52.793 74.4269ZM55.8773 63.9525L59.6206 63.2533C60.6023 63.0699 61.3885 63.2126 61.9793 63.6815C62.5684 64.1411 62.9606 64.8939 63.156 65.9398C63.3787 67.1325 63.2494 68.0159 62.768 68.5901C62.294 69.1534 61.5478 69.5301 60.5295 69.7203L59.5386 69.9054L60.4229 74.6395L57.9595 75.0997L55.8773 63.9525ZM60.043 68.0309C60.4742 67.9504 60.7372 67.7826 60.832 67.5275C60.9359 67.2707 60.9373 66.8717 60.8362 66.3304C60.7437 65.8349 60.6063 65.4808 60.4242 65.268C60.242 65.0551 59.9261 64.9907 59.4766 65.0747L58.6646 65.2264L59.2173 68.1852L60.043 68.0309ZM63.6568 62.4994L66.1064 62.0418L68.1886 73.189L65.739 73.6466L63.6568 62.4994ZM67.5562 61.771L70.46 61.2286C71.1847 61.0932 71.814 61.0564 72.3478 61.1181C72.889 61.1689 73.3558 61.3808 73.7483 61.7538C74.1408 62.1267 74.4098 62.7031 74.5555 63.4829C74.6789 64.1435 74.6327 64.6839 74.4168 65.104C74.2009 65.5241 73.8409 65.8334 73.3368 66.032C73.9945 65.9946 74.5359 66.1736 74.961 66.5689C75.3862 66.9643 75.6724 67.5564 75.8198 68.3455C76.2311 70.5474 75.3129 71.8583 73.0651 72.2781L69.6383 72.9182L67.5562 61.771ZM71.3341 65.6798C71.8571 65.5821 72.188 65.3968 72.3269 65.124C72.4751 64.8495 72.502 64.4599 72.4077 63.9553C72.3255 63.5149 72.1445 63.2069 71.8648 63.0313C71.5835 62.8465 71.2134 62.7969 70.7547 62.8826L70.328 62.9623L70.8524 65.7697L71.3341 65.6798ZM72.3034 70.6401C72.8263 70.5425 73.1693 70.3455 73.3324 70.0492C73.5028 69.742 73.5358 69.3085 73.4313 68.7489C73.313 68.1158 73.1198 67.6914 72.8517 67.4757C72.5927 67.2582 72.1971 67.1991 71.665 67.2985L71.1558 67.3937L71.7804 70.7378L72.3034 70.6401Z" fill="white"/>
<circle cx="51.5371" cy="50.9336" r="41.8164" stroke="white"/>
</svg>
