<svg width="766" height="766" viewBox="0 0 766 766" fill="none" xmlns="http://www.w3.org/2000/svg">
<path fill-rule="evenodd" clip-rule="evenodd" d="M382.833 0.376953L398.429 0.65332L408.643 62.4863L396.083 62.21L394.288 49.0986L385.179 48.96L382.833 61.9346L369.997 61.6582L382.833 0.376953ZM393.185 41.0928L390.424 16.9395L386.697 40.9551L393.185 41.0928ZM338.528 2.99902L325.002 4.51758L331.627 65.7988L345.153 64.2803L342.255 37.6426L343.635 37.5039L355.366 63.3145L369.307 61.7959L354.263 30.4648L362.405 0.514648L348.88 1.89453L342.53 27.1523L341.15 27.291L338.528 2.99902ZM275.037 15.4199L285.526 12.9355L293.808 47.165L300.709 9.20898L309.267 7.13867L323.896 67.04L313.269 69.6621L304.712 34.7432L297.534 73.3887L289.529 75.3213L275.037 15.4199ZM238.048 28.8086L225.351 33.7773L247.985 91.1943L260.684 86.2256L250.746 61.1055L259.579 57.5176L269.517 82.6367L282.215 77.668L259.579 20.3896L246.882 25.3584L255.991 48.5459L247.157 51.9961L238.048 28.8086ZM186.153 72.7002L185.601 82.2236L194.021 82.0859L193.054 73.2529L200.507 78.083L204.51 70.4922L195.814 66.9033L201.197 60.0029L194.986 55.0342L190.846 62.4873L186.981 54.3438L179.114 59.1748L184.635 66.2139L176.216 66.6279L177.596 74.3564L186.153 72.7002ZM435.972 4.10352L422.445 2.1709L413.198 63.1758L426.724 65.1084L430.727 38.6084L432.106 38.7461L437.075 66.627L451.153 68.5586L444.391 34.4678L459.711 7.55371L446.323 5.62109L433.763 28.3945L432.383 28.2568L435.972 4.10352ZM471.579 10.4521L481.931 13.3506L472.27 47.3037L497.113 17.7676L505.532 20.252L488.556 79.4629L478.066 76.4258L488.004 41.9209L462.746 72.0098L454.74 69.6631L471.579 10.4521ZM516.713 24.1172L516.023 54.7578L491.869 80.5674L502.221 84.9844L515.609 70.6299L515.333 90.5049L527.064 95.4736L527.617 63.5908L550.114 38.4717L539.763 34.0547L528.169 47.167L528.583 29.2236L516.713 24.1172ZM587.654 59.7256L600.628 68.2832L576.061 125.976L565.57 119.074L571.092 107.066L563.5 102.098L554.529 111.76L543.764 104.582L587.654 59.7256ZM574.542 99.6133L585.17 77.8066L569.159 96.0254L574.542 99.6133ZM641.345 100.579L619.537 82.2227L579.787 129.149L590.139 137.983L623.402 98.6475L634.857 108.309L641.345 100.579ZM649.487 108.446L668.672 128.321L662.047 134.809L652.247 124.732L641.206 135.36L648.659 143.09L641.896 149.576L634.442 141.848L621.192 154.684L631.13 164.896L624.505 171.246L605.183 151.232L649.487 108.446ZM685.098 148.472L676.816 137.568L627.543 174.834L635.824 185.737L657.355 169.451L663.152 177.042L641.759 193.329L650.04 204.232L699.176 166.967L690.895 156.063L671.02 171.107L665.223 163.517L685.098 148.472ZM701.245 189.604L696.553 181.598L705.248 176.491L721.396 204.233L712.701 209.34L708.009 201.335L663.565 227.283L656.665 215.413L701.245 189.604ZM687.72 230.181C681.646 232.804 677.506 236.116 675.436 240.118C673.228 244.121 673.642 249.09 676.264 255.024C678.887 260.959 682.199 264.548 686.201 265.652C690.204 266.895 694.896 266.342 700.142 263.996L704.973 261.926L699.59 249.78L693.654 252.402C691.446 253.368 689.652 253.92 688.271 253.92C686.892 254.059 685.787 253.092 685.098 251.436C684.407 249.642 684.407 248.262 685.373 247.157C686.201 246.054 687.857 244.949 690.066 243.983L716.566 232.39C718.774 231.423 720.568 231.009 722.087 231.009C723.467 231.009 724.571 231.837 725.399 233.632C726.228 235.426 726.09 236.806 725.123 237.772C724.157 238.738 722.639 239.704 720.431 240.671L714.771 243.155L720.154 255.301L724.985 253.23C730.23 250.884 733.681 247.985 735.475 244.259C737.27 240.671 736.855 235.84 734.232 229.905C731.61 223.694 728.021 219.968 723.743 218.863C719.465 217.759 714.22 218.449 708.009 221.21L687.72 230.181ZM745.275 259.579L749.14 272.691L725.676 279.454L726.09 280.834L752.038 282.767L755.765 295.74L724.848 292.98L696.691 313.27L692.827 299.881L716.152 283.732L715.738 282.353L689.929 289.806L686.064 276.693L745.275 259.579ZM759.903 318.377L758.247 307.749L697.38 316.996L698.622 325.14L736.578 335.629L701.106 341.012L702.763 351.777L763.63 342.53L762.25 333.835L724.984 323.621L759.903 318.377ZM736.441 366.684L764.598 354.538L764.873 367.374L748.449 374.551L765.287 379.658L765.563 390.976L733.267 381.038L704.006 393.874L703.73 381.038L721.949 373.033L703.316 366.822L703.04 355.504L736.441 366.684ZM721.949 417.889C715.324 416.785 710.08 417.475 706.215 419.684C702.213 422.029 699.729 426.446 698.762 433.071C697.658 439.42 698.624 444.113 701.385 447.287C704.145 450.462 708.424 452.532 714.082 453.36L719.327 454.188L721.397 441.076L715.049 440.11C712.702 439.696 710.908 439.145 709.666 438.454C708.424 437.764 708.01 436.384 708.285 434.59C708.562 432.657 709.39 431.553 710.77 431.139C712.15 430.587 714.082 430.587 716.429 431.001L745.275 435.556C747.621 435.97 749.416 436.521 750.658 437.35C751.9 438.04 752.314 439.42 752.038 441.353C751.762 443.285 750.934 444.389 749.554 444.665C749.124 444.751 748.655 444.811 748.142 444.838C747.893 444.852 747.633 444.858 747.362 444.857C746.859 444.854 746.319 444.825 745.739 444.767L745.423 444.731L745.078 444.689L744.698 444.636C744.481 444.604 744.26 444.567 744.033 444.527L737.96 443.561L735.89 456.673L741.135 457.501C746.793 458.467 751.348 457.777 754.799 455.568C758.249 453.36 760.457 449.082 761.424 442.732C762.527 436.107 761.562 431.139 758.525 427.826C755.488 424.514 750.658 422.443 743.895 421.34L721.949 417.889ZM754.659 473.511L746.24 502.909L736.303 500.011L740.995 483.725L725.951 479.308L725.123 482.068C721.811 493.8 714.357 497.94 702.901 494.628C698.347 493.248 695.034 491.454 692.964 489.245C690.894 486.899 689.789 484.276 689.651 481.378C689.514 478.479 690.065 475.029 691.17 471.026L695.448 456.396L754.659 473.511ZM699.46 476.684C699.534 477.636 699.847 478.458 700.417 479.17C701.383 480.55 703.315 481.654 706.214 482.482C706.871 482.68 707.498 482.838 708.093 482.957C708.715 483.081 709.303 483.163 709.856 483.201C710.078 483.217 710.294 483.226 710.505 483.228C710.932 483.23 711.336 483.206 711.718 483.153C712.116 483.099 712.49 483.013 712.839 482.896C714.633 482.345 715.737 480.826 716.565 478.204L716.979 476.686L700.417 471.854L699.865 473.649C699.531 474.785 699.391 475.791 699.46 476.684ZM702.073 501.943C696.001 499.183 690.756 498.493 686.478 499.735C682.198 500.978 678.748 504.565 676.126 510.639C673.503 516.712 673.228 521.818 675.159 525.821C677.092 529.823 681.232 533.274 687.306 535.896L708.284 545.006C714.357 547.628 719.464 548.318 723.743 547.076C727.884 545.834 731.472 542.107 734.095 536.034C736.854 529.962 737.131 524.993 735.198 520.99C733.267 516.987 729.126 513.675 723.053 511.053L702.073 501.943ZM689.651 521.681C687.72 520.853 686.201 519.886 685.235 518.782C684.269 517.815 684.131 516.298 684.959 514.365C685.787 512.571 686.892 511.743 688.271 511.743C689.79 511.743 691.446 512.295 693.517 513.123L720.706 524.993C722.639 525.821 724.157 526.787 725.123 527.892C726.089 528.995 726.089 530.376 725.399 532.032C724.571 533.826 723.467 534.792 722.087 534.792C720.706 534.931 718.912 534.517 716.842 533.55L689.651 521.681ZM719.189 565.847L708.424 583.514C705.663 588.206 702.213 590.828 698.21 591.519C694.208 592.209 689.653 591.104 684.822 588.068C679.163 584.617 676.127 580.891 675.437 577.026C674.885 573.023 675.989 568.607 678.888 563.776L681.786 559.084L659.288 545.558L666.327 533.964L719.189 565.847ZM687.583 567.917C686.341 569.987 686.064 571.644 686.755 573.023C687.444 574.404 689.101 575.784 691.585 577.303C693.07 578.177 694.391 578.829 695.544 579.19C696.213 579.399 696.825 579.511 697.382 579.511C698.9 579.511 700.28 578.545 701.661 576.336L704.007 572.472L690.067 564.053L687.583 567.917ZM660.115 580.892C654.87 576.612 650.04 574.542 645.623 574.681C641.206 574.681 636.79 577.303 632.649 582.686C628.509 587.931 626.853 592.623 627.681 597.04C628.509 601.456 631.545 605.735 636.79 609.876L654.595 624.229C659.839 628.37 664.67 630.44 669.087 630.303C673.503 630.165 677.92 627.542 682.061 622.298C686.201 617.19 687.857 612.36 687.029 608.081C686.201 603.665 683.165 599.386 677.92 595.245L660.115 580.892ZM643.001 596.764C641.206 595.384 640.103 594.003 639.412 592.761C638.722 591.519 638.998 590.139 640.24 588.62C641.482 587.103 642.725 586.55 644.104 586.964C644.798 587.103 645.526 587.416 646.307 587.868C646.667 588.076 647.038 588.314 647.422 588.579C647.862 588.882 648.32 589.22 648.798 589.587L671.985 608.081C673.779 609.462 674.884 610.842 675.573 612.084C675.765 612.513 675.856 612.957 675.85 613.413C675.848 613.517 675.841 613.621 675.829 613.727C675.821 613.8 675.811 613.873 675.797 613.947C675.783 614.026 675.767 614.105 675.747 614.185C675.728 614.262 675.705 614.339 675.68 614.417C675.614 614.621 675.53 614.827 675.428 615.033C675.308 615.275 675.161 615.519 674.989 615.762C674.913 615.87 674.832 615.979 674.745 616.087C674.044 616.944 673.343 617.493 672.616 617.76C672.056 617.965 671.481 618.001 670.881 617.881C669.501 617.604 667.982 616.639 666.188 615.259L643.001 596.764ZM659.841 647.004L648.247 658.045C645.349 660.806 642.588 662.876 639.966 664.256C637.344 665.637 634.583 666.051 631.685 665.498C628.786 664.946 625.888 663.152 622.852 659.978C620.367 657.355 618.986 654.732 618.711 652.248C618.588 651.146 618.656 650.045 618.926 648.943C619.265 647.561 619.921 646.178 620.919 644.795C618.021 646.865 614.984 647.693 611.947 647.142C608.773 646.59 605.736 644.795 602.7 641.621C594.281 632.787 594.557 624.092 603.528 615.535L617.192 602.423L659.841 647.004ZM611.947 620.642C609.877 622.574 608.911 624.506 609.049 626.438C609.188 628.371 610.291 630.303 612.5 632.649C614.984 635.134 617.055 636.514 618.849 636.79C620.643 636.928 622.713 636.1 624.783 634.029L626.854 632.098L614.018 618.709L611.947 620.642ZM631.133 640.379C629.062 642.311 628.096 644.243 628.234 645.899C628.372 647.556 629.477 649.35 631.408 651.42C633.064 653.215 634.859 654.043 636.653 654.043C637.617 654.043 638.582 653.804 639.568 653.304C640.416 652.873 641.28 652.25 642.174 651.42L643.83 649.764L633.064 638.584L631.133 640.379ZM591.104 685.235L591.381 675.712L582.961 675.988L584.203 684.821L576.612 680.267L572.886 687.996L581.719 691.309L576.612 698.485L583.1 703.178L586.964 695.587L591.104 703.592L598.834 698.485L593.037 691.584L601.456 690.895L599.662 683.303L591.104 685.235ZM533.275 734.923L520.439 739.615L511.744 716.151L502.772 719.464L511.468 742.928L498.632 747.62L477.239 689.79L490.075 685.097L499.46 710.354L508.432 707.042L499.046 681.784L511.882 677.092L533.275 734.923ZM465.23 720.018L472.822 754.522L483.312 752.176L469.924 691.999L461.78 693.793L453.913 732.301L446.184 697.244L435.557 699.59L448.944 759.768L457.502 757.835L465.23 720.018ZM433.071 762.251L419.545 763.493L417.475 739.201L416.095 739.339L409.193 764.459L395.668 765.563L404.363 735.751L389.871 704.144L403.811 702.901L415.129 728.85L416.509 728.712L414.162 701.936L427.688 700.693L433.071 762.251ZM359.645 764.46L375.104 765.149L389.319 704.145L376.483 703.593L373.861 716.566L364.752 716.152L363.233 703.04L350.674 702.488L359.645 764.46ZM368.064 748.449L365.718 724.296L372.343 724.571L368.064 748.449ZM335.629 762.664L322.24 760.455L326.243 736.439L324.863 736.164L311.889 758.799L298.501 756.591L314.373 729.953L308.301 695.724L322.103 698.07L326.52 726.088L327.899 726.364L332.316 699.864L345.704 702.072L335.629 762.664ZM276.418 750.104L286.632 753.278L304.851 694.481L296.983 691.997L271.035 721.534L281.663 687.167L271.174 683.992L252.955 742.927L261.374 745.55L286.77 716.427L276.418 750.104ZM243.155 708.146L241.775 738.787L230.043 733.542L230.733 715.6L218.863 728.573L208.512 723.881L231.562 699.175L232.804 667.292L244.397 672.537L243.707 692.412L257.371 678.334L267.585 683.026L243.155 708.146ZM158.962 692.826L171.66 701.659L216.379 657.631L205.751 650.315L196.642 659.839L189.188 654.732L194.848 642.862L184.496 635.686L158.962 692.826ZM174.559 683.717L185.601 662.048L190.983 665.774L174.559 683.717ZM140.191 678.61L118.798 659.701L125.423 652.11L136.603 661.909L170.556 623.264L180.77 632.235L140.191 678.61ZM92.0225 631.406L110.793 651.695L155.926 609.875L137.017 589.448L130.254 595.659L139.915 606.148L126.39 618.709L119.074 610.842L112.173 617.19L119.488 625.058L108.309 635.409L98.7852 625.058L92.0225 631.406ZM84.0166 622.021L76.0107 610.98L96.1621 596.35L90.6416 588.621L70.4902 603.251L62.4854 592.209L112.311 556.048L120.315 567.09L98.5088 582.962L104.029 590.691L125.837 574.818L133.842 585.86L84.0166 622.021ZM65.2471 577.58L60.6924 569.437L105.688 544.455L99.0625 532.447L54.0674 557.429L49.6514 549.424L40.8174 554.393L56.4141 582.549L65.2471 577.58ZM87.4678 519.472C85.2588 523.475 81.1182 526.648 75.0459 529.133L54.4805 537.553C48.2695 540.175 42.8867 540.865 38.6084 539.623C34.3291 538.381 30.8789 534.654 28.3945 528.443C25.9102 522.508 25.6348 517.678 27.4287 513.951C29.2227 510.225 32.8115 507.326 38.0566 505.256L43.0244 503.186L48.1318 515.47L42.4727 517.815C40.2646 518.781 38.7461 519.609 37.6416 520.576C37.1338 521.084 36.8545 521.707 36.8047 522.444C36.7598 523.108 36.9004 523.866 37.2275 524.717C37.918 526.511 39.0225 527.477 40.541 527.477C42.0586 527.477 43.8535 527.062 46.0615 526.234L72.8369 515.193C75.0459 514.228 76.7021 513.261 77.668 512.156C78.6338 511.053 78.7725 509.673 78.082 507.878C77.3916 506.084 76.2881 505.256 74.9072 505.256C73.5273 505.256 71.7334 505.67 69.3867 506.636L63.4521 509.12L58.3447 496.837L63.3135 494.767C68.6963 492.558 73.3896 492.144 77.3916 493.386C81.3945 494.628 84.5693 498.217 87.0537 504.151C89.5381 510.501 89.6758 515.607 87.4678 519.472ZM14.4551 485.52L18.043 498.631L77.5303 482.621L73.9414 469.509L47.9941 476.41L47.5801 475.029L71.1816 459.434L67.5928 445.907L39.0225 465.645L8.24414 462.332L11.6943 475.443L37.6426 477.79L38.0566 479.17L14.4551 485.52ZM6.03516 450.186L4.65527 439.558L39.7119 435.003L2.72266 423.961L1.61816 415.266L62.7617 407.261L64.1416 418.164L28.5322 422.857L66.2119 434.037L67.3164 442.318L6.03516 450.186ZM0.65332 403.397L29.0859 391.804L62.2109 403.673V392.355L43.7158 385.868L62.0732 378.277L61.9346 365.441L32.3984 377.587L0.37793 366.96V378.277L17.0781 383.66L0.515625 390.562L0.65332 403.397ZM60.417 339.355C56.4141 341.563 51.1699 341.978 44.6826 340.874L22.876 337.009C16.251 335.767 11.4199 333.559 8.38379 330.246C5.48535 326.934 4.51855 321.965 5.76074 315.202C6.86523 308.854 9.21191 304.574 12.6621 302.504C16.1123 300.434 20.667 299.882 26.3262 300.848L31.5713 301.814L29.2246 314.926L23.1514 313.822C21.8867 313.6 20.7822 313.496 19.8174 313.491C19.3428 313.489 18.9014 313.511 18.4912 313.554C18.3027 313.573 18.1221 313.598 17.9473 313.627C17.8398 313.645 17.7344 313.663 17.6309 313.684C16.25 313.96 15.4229 315.063 15.1465 316.996C15.0859 317.419 15.0586 317.815 15.0654 318.186C15.0703 318.445 15.0928 318.692 15.1318 318.926C15.1699 319.149 15.2236 319.361 15.2949 319.561C15.3545 319.729 15.4258 319.891 15.5088 320.043C15.5674 320.149 15.6318 320.252 15.7021 320.351C15.7598 320.431 15.8203 320.508 15.8857 320.582C16.0674 320.788 16.2812 320.973 16.5264 321.137C17.7686 321.965 19.5635 322.655 21.9092 323.069L50.4795 328.038C52.3877 328.375 54.0225 328.438 55.3086 328.227L55.5801 328.177C55.666 328.159 55.751 328.141 55.834 328.12L55.9248 328.097L56.1387 328.038C57.5186 327.624 58.3467 326.52 58.7607 324.726C59.0371 322.931 58.623 321.551 57.5186 320.86C56.2764 320.171 54.4824 319.48 52.1357 319.066L45.7871 317.963L48.1338 304.851L53.3779 305.816C59.0371 306.783 63.3154 308.991 65.9375 312.165C68.6982 315.34 69.3887 320.171 68.2842 326.52C66.9043 332.73 64.4199 337.147 60.417 339.355ZM22.0459 255.301L12.9365 284.562L71.5957 302.78L76.1504 288.149C76.7588 286.022 77.1992 284.062 77.4727 282.224C77.6953 280.723 77.8066 279.302 77.8066 277.937C77.8066 274.899 76.8408 272.277 74.7705 269.931C72.8379 267.585 69.5254 265.652 64.9707 264.272C53.6533 260.684 46.2002 264.824 42.6113 276.418L41.7832 279.179L26.877 274.485L31.9834 258.337L22.0459 255.301ZM68.2773 282.334C68.3594 283.266 68.2236 284.324 67.8691 285.527L67.3174 287.184L50.8926 282.077L51.3066 280.559C51.9277 278.592 52.7812 277.246 53.9268 276.521C54.3086 276.28 54.7227 276.107 55.1709 276.004C56.8271 275.59 59.0361 275.728 61.7959 276.556C63.1025 277.014 64.2236 277.502 65.1455 278.035C65.3438 278.15 65.5332 278.268 65.7129 278.387C65.8535 278.48 65.9893 278.576 66.1182 278.673C66.3906 278.876 66.6367 279.086 66.8555 279.303C66.9541 279.4 67.0479 279.499 67.1357 279.6C67.252 279.732 67.3584 279.868 67.4551 280.007C67.5527 280.146 67.6416 280.29 67.7217 280.438C67.8311 280.638 67.9248 280.846 68.0039 281.062C68.1465 281.458 68.2383 281.881 68.2773 282.334ZM81.6709 259.718C77.3916 260.821 72.1475 259.993 66.0742 257.233L45.2334 247.71C39.1602 244.949 35.1572 241.499 33.3633 237.496C31.4307 233.493 31.9834 228.524 34.7432 222.452C37.5039 216.379 41.0928 212.79 45.3711 211.548C49.6494 210.306 54.7568 211.134 60.8291 213.895L81.6709 223.418C87.7432 226.179 91.7461 229.629 93.6787 233.632C95.6104 237.634 95.1963 242.741 92.2979 248.813C89.5381 255.024 85.9492 258.613 81.6709 259.718ZM83.3271 240.671C82.3604 239.566 80.9805 238.601 78.9102 237.634L51.9961 225.212C49.9258 224.246 48.1318 223.832 46.751 223.832C46.2148 223.832 45.7197 223.979 45.2666 224.254C44.5537 224.688 43.9443 225.441 43.4385 226.454C42.9912 227.348 42.8262 228.161 42.9209 228.895C42.9688 229.268 43.084 229.62 43.2637 229.951C43.3848 230.175 43.5352 230.39 43.7148 230.595C44.6807 231.699 46.0615 232.665 48.1318 233.632L75.0459 246.054C77.1162 247.02 78.7725 247.434 80.1523 247.571C80.8721 247.571 81.5166 247.347 82.0869 246.877C82.3418 246.666 82.582 246.406 82.8076 246.095C83.043 245.77 83.2617 245.389 83.4648 244.949C83.8438 244.129 84.0488 243.395 84.0684 242.734C84.0801 242.337 84.0244 241.966 83.8984 241.619C83.7754 241.281 83.5859 240.966 83.3271 240.671ZM61.5205 175.524L50.4795 193.054L102.513 225.902L109.828 214.446L87.7451 200.507L90.6436 195.813C93.542 191.121 94.9219 186.704 94.3701 182.702C93.8174 178.699 90.7812 174.973 85.2607 171.384C80.4297 168.21 75.875 166.968 71.8721 167.657C67.8701 168.348 64.4189 170.97 61.5205 175.524ZM83.0518 186.566C83.6045 187.809 83.3281 189.465 82.0859 191.535L79.6016 195.262L65.7998 186.566L68.1455 182.84C69.5264 180.77 70.9062 179.804 72.4248 179.804C72.9521 179.852 73.5293 179.966 74.1562 180.158C74.8613 180.375 75.6289 180.69 76.46 181.12C77.0186 181.409 77.6055 181.751 78.2217 182.149C80.8438 183.806 82.3623 185.187 83.0518 186.566ZM124.044 185.739C119.628 185.739 114.797 183.531 109.69 179.253L92.1611 164.622C87.0547 160.344 84.0186 156.065 83.3281 151.648C82.5 147.37 84.2939 142.539 88.5732 137.433C92.8516 132.325 97.2686 129.703 101.685 129.703C106.102 129.703 110.933 131.773 116.039 136.052L133.567 150.683C138.675 154.961 141.711 159.378 142.401 163.656C143.229 168.073 141.435 172.766 137.156 178.011C132.878 183.117 128.599 185.739 124.044 185.739ZM130.669 167.659C130.117 166.417 128.875 165.036 127.219 163.519L104.445 144.609C102.651 143.091 101.133 142.263 99.7529 141.849C98.3721 141.435 97.1299 142.125 95.8877 143.505C94.7842 144.886 94.3701 146.266 95.0596 147.508C95.6123 148.75 96.8545 150.13 98.5107 151.648L121.284 170.695C122.94 172.075 124.458 173.042 125.839 173.456C127.219 173.87 128.461 173.317 129.703 171.8C130.945 170.281 131.222 169.039 130.669 167.659ZM123.077 102.236L111.207 113.14L152.89 158.549L166.83 145.713C175.939 137.293 176.491 128.598 168.21 119.627C165.174 116.452 162.137 114.52 159.101 113.968C156.064 113.416 153.027 114.105 150.129 116.176C151.924 113.691 152.752 111.346 152.476 108.723C152.338 106.101 150.957 103.479 148.473 100.855C145.574 97.6816 142.676 95.749 139.777 95.1973C136.879 94.6445 134.119 95.0586 131.496 96.3008C128.874 97.543 125.976 99.4756 123.077 102.236ZM142.952 114.934C143.09 116.59 141.986 118.385 139.916 120.316L137.846 122.111L127.355 110.655L129.15 108.999C129.851 108.398 130.533 107.906 131.204 107.523C132.384 106.851 133.527 106.515 134.671 106.515C135.724 106.515 136.695 106.802 137.629 107.354C138.408 107.813 139.162 108.459 139.916 109.275C140.684 110.099 141.3 110.899 141.771 111.67C142.485 112.838 142.869 113.936 142.952 114.934ZM161.723 134.533C161.861 136.465 160.757 138.397 158.687 140.33L156.479 142.262L143.918 128.598L145.988 126.666C148.197 124.733 150.268 123.768 152.062 124.043C153.994 124.319 156.064 125.699 158.41 128.322C160.48 130.53 161.585 132.601 161.723 134.533Z" fill="#0B6CFE" fill-opacity="0.15"/>
</svg>
