<svg width="765" height="766" viewBox="0 0 765 766" fill="none" xmlns="http://www.w3.org/2000/svg">
    <path fill-rule="evenodd" clip-rule="evenodd" d="M385.466 28.6963L374.981 0L387.812 0.414062L394.158 17.2451L400.09 0.689453L411.403 0.96582L399.677 32.6973L410.852 62.6348L398.021 62.2207L390.984 43.5957L383.811 61.8066L372.498 61.5312L385.466 28.6963ZM338.56 2.75977L327.937 3.86328L333.868 65.2568L342.146 64.4287L354.701 27.1787L358.15 62.9111L369.049 61.8076L363.116 0.552734L354.287 1.37988L342.009 37.9404L338.56 2.75977ZM279.236 14.21L292.48 11.0361L297.999 34.7656L299.378 34.4902L302.689 8.69141L315.934 5.65625L311.52 36.2832L330.282 65.5312L316.624 68.7051L301.861 44.5615L300.482 44.8369L306.553 71.0498L293.308 74.085L279.236 14.21ZM246.262 25.5234L233.569 30.2139L255.092 87.8818L269.439 82.501C273.165 81.1221 276.2 79.6045 278.545 77.6729C280.891 75.8789 282.271 73.3955 282.96 70.3604C283.649 67.4639 283.098 63.6006 281.442 59.1855C277.304 48.0107 269.578 44.5615 258.265 48.8389L255.367 49.9424L246.262 25.5234ZM270.544 70.3604C269.991 72.0166 268.612 73.2578 266.404 74.0859L264.749 74.6377L258.679 58.4961L260.196 57.9443C262.68 57.1162 264.749 57.1162 266.129 58.2197C267.508 59.3232 268.75 61.1172 269.716 63.7383C269.849 64.0713 269.97 64.3955 270.079 64.7119L270.167 64.9746C270.206 65.0938 270.243 65.2119 270.279 65.3291C270.311 65.4307 270.34 65.5322 270.368 65.6318L270.436 65.8789C270.61 66.5391 270.726 67.1602 270.781 67.7412C270.876 68.7295 270.797 69.6025 270.544 70.3604ZM219.223 101.265C215.084 99.4707 211.497 95.6084 208.323 89.6758L197.977 70.085C194.803 64.0146 193.699 58.9102 194.527 54.4951C195.355 50.0811 198.804 46.3555 204.736 43.1826C210.393 40.1475 215.222 39.457 218.946 40.8369C222.81 42.3545 225.982 45.5283 228.604 50.6328L231.087 55.3232L219.36 61.5312L216.463 56.1514C215.359 54.0811 214.256 52.5635 213.29 51.5986C212.187 50.7705 210.944 50.7705 209.151 51.5986C208.245 52.127 207.587 52.6973 207.177 53.3535C206.972 53.6816 206.829 54.0312 206.748 54.4082C206.694 54.6553 206.668 54.9141 206.668 55.1855C206.806 56.7031 207.357 58.4961 208.462 60.5654L221.981 86.2266C223.085 88.4336 224.327 89.8135 225.431 90.7793C226.534 91.6074 228.052 91.6074 229.708 90.7793C230.037 90.6152 230.334 90.4336 230.597 90.2383C230.962 89.9668 231.262 89.667 231.493 89.3457C231.932 88.7383 232.125 88.0537 232.053 87.3301C231.915 85.9512 231.226 84.1572 230.121 81.9502L227.086 76.293L238.813 70.085L241.297 74.7754C244.056 79.8809 244.884 84.4336 244.056 88.5723C243.228 92.7109 239.917 96.1602 234.261 99.1953C228.328 102.368 223.361 103.058 219.223 101.265ZM159.484 84.4326L167.072 79.1904L196.183 121.683L207.495 113.957L178.385 71.4648L185.973 66.2217L180.316 57.9443L153.828 76.1553L159.484 84.4326ZM116.854 107.197L127.063 98.2295L143.48 116.992L150.655 110.784L134.237 92.0215L144.585 83.0537L185.146 129.409L174.798 138.376L157.001 118.096L149.827 124.304L167.624 144.585L157.415 153.552L116.854 107.197ZM108.3 115.889L89.8125 136.582L135.616 177.695L154.241 157.001L147.343 150.793L137.823 161.416L124.165 149.137L131.34 141.136L124.304 134.789L117.129 142.791L105.816 132.582L115.198 122.097L108.3 115.889ZM65.8086 168.313L82.6396 145.273L90.7793 151.206L81.9502 163.209L123.614 193.561L115.612 204.598L65.8086 168.313ZM53.2529 188.318L45.665 201.839L93.6758 242.262L100.022 231.087L89.6748 222.809L94.0898 214.945L106.368 219.498L112.576 208.599L53.2529 188.318ZM63.876 202.942L86.3633 211.91L83.1904 217.566L63.876 202.942ZM45.9404 273.579L15.3135 275.097L19.4521 262.956L37.3867 261.99L23.4531 251.367L27.1777 240.606L53.9424 261.301L85.8115 259.646L81.6729 271.786L61.8066 272.89L76.9824 285.168L73.2578 295.791L45.9404 273.579ZM7.17383 310.553L4.96582 321.038L65.2559 333.73L66.9111 325.591L35.042 302.689L70.2227 310.001L72.4297 299.24L12.1396 286.548L10.3467 295.239L41.6641 317.865L7.17383 310.553ZM0.276367 370.704L1.24219 357.184L25.5234 358.978L25.6611 357.598L1.93164 346.699L2.89746 333.179L30.9033 346.561L64.4287 337.455L63.4629 351.39L36.0088 358.288L35.8701 359.667L62.6348 361.736L61.6689 375.257L0.276367 370.704ZM29.7998 419.681C32.5586 418.025 34.4902 415.956 35.8701 413.473L63.876 423.544L63.0488 408.92L38.2158 401.332V400.504L38.0771 398.021L62.3584 396.642L61.5312 383.121L0 386.708L0.828125 402.573C1.24121 409.609 2.89746 414.715 5.79395 418.025C8.8291 421.337 13.6582 422.854 20.418 422.44C21.0977 422.388 21.7637 422.315 22.4131 422.222C22.5713 422.199 22.7285 422.175 22.8848 422.149L23.2334 422.09C23.6211 422.021 24.002 421.944 24.377 421.858C26.3711 421.402 28.1895 420.698 29.7998 419.681ZM10.0713 399.677L28.4199 398.573L28.5586 400.643C28.834 406.299 25.9365 409.196 19.8662 409.609C13.7959 409.886 10.4854 407.265 10.209 401.746L10.0713 399.677ZM6.20801 449.343L4.13867 435.96L64.9805 426.303L67.0498 439.686L6.20801 449.343ZM14.3477 485.351L17.7969 498.457L77.3965 482.729L73.9473 469.622L47.8721 476.521L45.3887 467.277L71.4639 460.379L68.0146 447.135L8.41504 462.862L11.8643 476.106L36.0078 469.761L38.4912 479.004L14.3477 485.351ZM72.5684 579.164L82.0879 579.717V571.438L73.2588 572.404L78.0869 564.954L70.499 560.953L66.9121 569.646L60.0137 564.265L55.0479 570.473L62.4971 574.611L54.3574 578.475L59.1865 586.339L66.2227 580.82L66.498 589.235L74.2246 587.718L72.5684 579.164ZM435.133 47.459C433.891 53.5293 434.305 58.3584 436.099 62.2217C437.892 66.084 441.893 68.5674 447.963 69.8096C453.758 71.0508 458.311 70.2227 461.621 67.4639C464.933 64.7051 467.14 60.4277 468.382 54.4951C469.209 50.4941 469.209 47.3213 468.382 44.8379C467.416 42.4932 466.036 40.5615 463.829 39.1816C466.036 39.0439 468.105 37.9404 470.037 35.7324C471.831 33.5254 473.21 30.7656 473.9 27.3164C475.004 21.9365 474.314 17.6592 471.969 14.2109C469.485 10.7617 465.622 8.55371 460.38 7.4502C455.275 6.34668 450.86 6.89844 447.136 9.24414C443.41 11.4512 441.065 15.3145 439.961 20.6943L439.271 24.2812L451.826 26.9033L452.516 23.5918C453.067 21.2461 453.758 19.5908 454.724 18.4873C454.821 18.376 454.922 18.2715 455.025 18.1738C455.125 18.0801 455.228 17.9922 455.332 17.9111C455.449 17.8203 455.569 17.7383 455.693 17.6641C455.827 17.584 455.965 17.5137 456.105 17.4531C456.239 17.3955 456.377 17.3457 456.518 17.3057C456.902 17.1953 457.312 17.1494 457.748 17.167C457.975 17.1758 458.208 17.2021 458.448 17.2461C460.104 17.6592 461.069 18.4873 461.621 19.8672C462.173 21.2461 462.173 23.1777 461.621 25.5234C460.932 28.6963 459.966 30.9043 458.586 32.1455C457.207 33.3877 455.138 33.8008 452.378 33.249L449.343 32.5596L447.688 40.6992C449.757 41.251 450.86 41.3887 450.998 41.5273C453.62 42.2168 455.275 43.3203 455.965 44.9756C456.655 46.6318 456.655 49.1152 455.965 52.2881C455.413 55.1855 454.724 57.1172 453.896 58.2207C453.067 59.4619 451.964 59.7383 450.309 59.4619C448.653 59.0479 447.688 58.2207 447.273 56.8408C446.997 55.4609 446.997 53.2539 447.688 50.2188L448.102 47.873L435.547 45.252L435.133 47.459ZM490.18 15.4521L519.151 25.2471L515.841 35.043L499.837 29.6621L494.87 44.5625L497.63 45.5273C509.218 49.3906 512.943 56.9785 509.218 68.292C507.7 72.8447 505.77 76.0176 503.286 77.9492C500.94 79.8799 498.182 80.8457 495.284 80.8457C492.249 80.8457 488.938 80.1562 485.075 78.915L470.451 73.6719L490.18 15.4521ZM487.834 70.2227C490.18 71.0508 491.973 70.9131 493.353 69.9473C493.895 69.5674 494.416 69.0596 494.907 68.416C495.666 67.4229 496.354 66.1035 496.939 64.4287C497.905 61.8076 498.043 59.4619 497.63 57.8066C497.216 56.0127 495.698 54.7715 493.215 53.9434L491.697 53.3916L486.179 69.6709L487.834 70.2227ZM516.116 69.2568C513.081 75.1885 512.115 80.4316 513.219 84.708C514.185 88.9854 517.771 92.71 523.842 95.6074C529.912 98.6426 534.879 99.1943 539.018 97.4004C543.019 95.6074 546.605 91.7441 549.503 85.6738L559.574 65.1172C562.471 59.0469 563.437 53.9424 562.333 49.666C561.229 45.3887 557.78 41.6641 551.71 38.7666C545.64 35.7314 540.673 35.1797 536.672 36.9736C532.671 38.7666 529.084 42.6299 526.188 48.7002L516.116 69.2568ZM535.431 82.6387C534.465 84.5703 533.361 86.0879 532.258 86.916C531.562 87.4375 530.701 87.6299 529.746 87.5283C529.378 87.4893 528.995 87.4062 528.604 87.2822C528.398 87.2178 528.19 87.1416 527.98 87.0537C526.188 86.0879 525.359 84.9844 525.497 83.6045C525.497 82.2246 526.049 80.5693 527.015 78.5L540.121 51.7354C540.458 51.0615 540.812 50.4551 541.176 49.9102C541.856 48.8916 542.575 48.0869 543.294 47.459C544.398 46.4932 545.777 46.4932 547.434 47.3203C549.227 48.2861 550.055 49.3896 550.055 50.7695C550.055 52.2871 549.503 53.9424 548.537 56.0117L535.431 82.6387ZM580.683 55.1846L597.928 66.6357C602.48 69.6709 604.964 73.1201 605.516 77.2588C606.067 81.2598 604.688 85.6748 601.515 90.5029C597.79 96.0215 594.065 98.9189 589.927 99.333C585.926 99.7471 581.511 98.3672 576.958 95.1943L572.405 92.1592L557.919 113.957L546.606 106.369L580.683 55.1846ZM581.373 86.7783C583.304 88.1582 584.96 88.4336 586.339 87.8818C587.719 87.3301 589.236 85.6748 590.892 83.1914C592.409 80.9834 593.237 79.0527 593.375 77.5352C593.514 76.0176 592.548 74.5 590.479 73.1201L586.753 70.6367L577.647 84.1572L581.373 86.7783ZM630.073 91.1934L619.588 82.6396L580.544 130.236L591.029 138.79L630.073 91.1934ZM638.764 98.6426L650.353 109.817C653.25 112.577 655.319 115.336 656.837 117.819C658.217 120.441 658.769 123.062 658.354 125.959C657.94 128.856 656.285 131.892 653.25 134.927C650.767 137.548 648.146 139.065 645.662 139.342C643.179 139.756 640.558 139.065 638.212 137.41C640.42 140.17 641.386 143.205 640.972 146.24C640.558 149.413 638.764 152.448 635.867 155.621C627.451 164.312 618.76 164.451 609.792 155.759L596.134 142.653L638.764 98.6426ZM614.482 147.619C616.552 149.688 618.483 150.517 620.415 150.379C622.209 150.103 624.278 148.999 626.485 146.792C628.969 144.309 630.21 142.101 630.349 140.308C630.486 138.514 629.521 136.444 627.313 134.513L625.244 132.582L612.413 145.826L614.482 147.619ZM633.384 127.753C635.453 129.822 637.385 130.65 639.04 130.374C640.695 130.099 642.489 128.994 644.421 127.063C646.076 125.27 646.904 123.477 646.766 121.683C646.722 121.112 646.594 120.542 646.383 119.972C645.93 118.748 645.092 117.525 643.869 116.302L642.213 114.646L631.452 125.821L633.384 127.753ZM691.742 184.73L682.223 184.179L682.499 192.595L691.328 191.629L686.5 199.079L694.088 203.08L697.675 194.25L704.711 199.631L709.539 193.422L702.089 189.283L710.229 185.421L705.263 177.557L698.227 183.075L697.812 174.659L690.087 176.177L691.742 184.73ZM739.339 244.193L743.615 257.161L719.886 265.025L722.921 273.993L746.65 266.129L750.928 279.098L692.569 298.55L688.293 285.582L713.815 277.028L710.78 268.061L685.258 276.614L680.98 263.646L739.339 244.193ZM756.998 305.724L754.101 292.479L693.949 306L696.847 319.244L756.998 305.724ZM726.784 330.143C727.888 327.521 729.819 325.314 732.441 323.659C735.062 321.865 738.098 320.762 741.547 320.348C748.307 319.52 753.273 320.624 756.309 323.797C759.481 326.97 761.413 331.937 762.241 338.835L764.172 354.562L703.055 362.012L701.399 348.63L725.543 345.732L725.267 343.249L725.129 342.422L699.882 336.489L698.088 321.865L726.784 330.143ZM735.062 344.354L753.273 342.146L752.997 340.076C752.308 334.558 748.996 332.074 742.926 332.902C736.855 333.592 734.097 336.766 734.786 342.422L735.062 344.354ZM764.861 384.224L764.999 370.565L703.33 369.876L703.192 383.534L730.095 383.948V385.328L703.192 393.881L703.055 407.815L735.89 396.641L764.586 408.229L764.724 394.709L740.442 385.328V383.948L764.861 384.224ZM763.345 420.371L761.827 430.994L726.923 425.89L759.619 446.584L758.378 455.275L697.398 446.445L698.916 435.547L734.372 440.651L701.124 419.543L702.365 411.403L763.345 420.371ZM755.894 466.863L725.404 470.312L696.708 449.894L693.673 460.793L709.677 472.105L689.948 474.451L686.499 486.729L718.23 483.005L746.236 501.905L749.271 491.007L734.647 481.35L752.445 479.28L755.894 466.863ZM730.096 541.915L723.335 555.85L662.908 539.432L668.427 528.119L680.981 531.981L684.982 523.842L674.221 516.254L679.877 504.665L730.096 541.915ZM688.845 534.327L711.885 541.777L691.604 528.395L688.845 534.327ZM696.847 600.549L712.161 576.544L660.149 543.57L652.837 555.021L696.295 582.614L688.293 595.169L696.847 600.549ZM690.087 609.931L672.842 631.591L665.529 625.797L674.221 614.76L662.218 605.24L655.596 613.656L648.146 607.861L654.769 599.446L640.282 587.995L631.453 599.17L624.278 593.514L641.523 571.716L690.087 609.931ZM654.906 650.905L664.701 641.386L621.795 597.1L612 606.619L630.763 625.934L623.865 632.556L605.102 613.241L595.307 622.761L638.213 667.047L648.008 657.527L630.625 639.592L637.523 632.97L654.906 650.905ZM616.691 671.875L624.003 666.219L630.211 674.221L604.826 693.949L598.618 685.947L605.93 680.291L574.198 639.729L584.96 631.314L616.691 671.875ZM574.75 663.873C571.301 658.217 567.438 654.63 563.161 653.112C559.022 651.595 554.056 652.561 548.123 656.01C542.743 659.459 539.708 663.184 539.018 667.322C538.328 671.461 539.569 676.014 542.604 680.98L545.364 685.533L556.677 678.635L553.366 673.117C552.124 671.047 551.435 669.254 551.158 667.874C550.883 666.494 551.572 665.253 553.229 664.287C554.884 663.321 556.264 663.184 557.505 664.012C558.746 664.839 559.988 666.219 561.229 668.288L576.268 692.983C577.51 695.053 578.199 696.708 578.337 698.226C578.476 699.743 577.785 700.985 576.13 701.951C574.475 702.917 573.095 703.055 571.991 702.227C570.888 701.399 569.783 700.02 568.542 697.95L565.369 692.707L554.056 699.605L556.815 704.158C559.851 708.987 563.299 712.022 567.162 713.264C571.025 714.506 575.716 713.401 581.234 710.091C587.028 706.642 590.202 702.641 590.754 698.226C591.306 693.812 589.926 688.706 586.339 682.912L574.75 663.873ZM553.366 724.991L540.95 730.51L530.326 706.78L527.567 708.021C516.53 712.988 508.667 709.953 503.838 699.192C501.906 694.777 501.079 691.19 501.631 688.018C502.044 684.982 503.424 682.499 505.632 680.43C507.839 678.36 510.736 676.566 514.461 674.911L528.533 668.703L553.366 724.991ZM517.772 683.188C515.564 684.154 514.323 685.534 513.909 687.189C513.495 688.845 513.909 691.053 515.15 693.674C516.255 696.157 517.634 697.95 519.151 699.055C520.669 700.021 522.601 700.021 525.084 698.916L526.602 698.227L519.565 682.499L517.772 683.188ZM495.698 747.617L508.805 743.754L491.007 684.845L477.9 688.707L485.627 714.368L484.247 714.782L467.968 691.604L454.585 695.605L475.142 723.612L472.658 754.516L485.627 750.652L487.282 724.716L488.662 724.302L495.698 747.617ZM460.794 757.136L450.171 758.791L444.652 723.887L434.719 761.274L426.027 762.654L416.232 701.812L426.993 700.02L432.649 735.476L442.858 697.536L450.998 696.156L460.794 757.136ZM414.163 763.896L401.746 735.89L412.646 702.228L401.332 702.641L395.4 721.266L387.26 703.193L374.43 703.606L387.398 732.717L377.741 765.138L389.054 764.724L394.021 747.893L401.332 764.311L414.163 763.896ZM349.183 705.538C351.252 709.263 351.941 714.092 350.976 720.3L350.7 722.507L338.007 720.714L338.283 718.368C338.697 715.333 338.697 713.126 338.283 711.746C337.869 710.366 336.766 709.677 335.11 709.4C333.454 709.125 332.351 709.677 331.523 710.78C330.833 711.884 330.144 713.953 329.729 716.851C329.315 720.162 329.453 722.507 330.144 724.163C330.833 725.818 332.627 726.784 335.386 727.198C335.439 727.252 335.64 727.306 335.985 727.367C336.241 727.412 336.575 727.462 336.989 727.52C337.457 727.585 338.026 727.66 338.697 727.75L337.594 735.89L334.559 735.476C331.799 735.062 329.729 735.613 328.488 736.855C327.246 738.097 326.418 740.442 325.866 743.753C325.591 746.099 325.591 748.03 326.28 749.41C326.832 750.789 327.936 751.479 329.592 751.755C329.808 751.795 330.019 751.817 330.223 751.824C330.446 751.831 330.662 751.819 330.87 751.79C330.979 751.774 331.084 751.754 331.188 751.729C331.259 751.712 331.328 751.692 331.396 751.671C331.659 751.59 331.906 751.477 332.138 751.336C332.533 751.095 332.883 750.771 333.179 750.376C334.006 749.271 334.696 747.479 335.11 745.133L335.662 741.684L348.354 743.478L347.803 747.202C346.975 752.583 344.905 756.584 341.318 759.067C337.869 761.551 333.454 762.517 328.212 761.688C322.831 760.86 318.83 758.93 316.348 755.618C313.726 752.445 312.898 748.03 313.588 742.649C314.14 739.2 315.243 736.304 316.899 734.096C318.692 731.889 320.624 730.509 322.831 730.233C320.624 728.991 318.969 727.198 318.003 724.853C317.037 722.507 316.761 719.334 317.451 715.195C318.278 709.263 320.348 704.71 323.383 701.812C326.557 698.777 330.971 697.812 336.766 698.64C343.112 699.605 347.112 701.951 349.183 705.538ZM268.612 747.755L298.137 755.756L314.416 696.295L299.654 692.294C295.653 691.19 292.204 690.776 289.307 690.914C286.271 691.19 283.65 692.294 281.443 694.363C279.235 696.433 277.442 699.882 276.2 704.435C273.165 715.886 277.442 723.197 289.169 726.37L291.928 727.061L287.789 742.236L271.372 737.821L268.612 747.755ZM291.515 701.399C292.894 700.434 294.688 700.157 297.033 700.848L298.826 701.123L294.273 717.816L292.756 717.403C290.135 716.713 288.617 715.472 288.065 713.815C287.514 712.16 287.651 709.953 288.341 707.193C289.031 704.297 290.135 702.365 291.515 701.399ZM270.819 688.018C272.061 692.294 271.509 697.537 268.888 703.607L260.059 724.715C257.437 730.924 254.264 734.925 250.263 736.994C246.399 739.063 241.295 738.787 235.225 736.166C229.017 733.545 225.292 730.233 223.912 725.957C222.532 721.68 223.223 716.575 225.706 710.367L234.535 689.259C237.156 683.051 240.329 678.912 244.33 676.843C248.331 674.772 253.298 675.049 259.506 677.67C265.853 680.291 269.577 683.74 270.819 688.018ZM251.643 687.052C250.539 688.018 249.573 689.535 248.745 691.604L237.294 718.921C236.467 720.99 236.053 722.784 236.053 724.163C236.19 725.543 237.019 726.646 238.812 727.337C240.468 728.026 241.847 727.889 242.951 726.923C243.467 726.472 243.952 725.9 244.407 725.209C244.681 724.793 244.943 724.334 245.195 723.831C245.422 723.379 245.639 722.893 245.848 722.37L257.299 695.054C258.127 692.983 258.541 691.328 258.541 689.811C258.541 689.195 258.349 688.635 257.977 688.142C257.753 687.845 257.464 687.572 257.112 687.327C256.738 687.065 256.294 686.835 255.781 686.638C254.126 685.948 252.746 686.086 251.643 687.052ZM187.353 711.332L205.287 721.68L236.053 668.563L224.326 661.666L211.22 684.292L206.529 681.532C201.7 678.635 197.286 677.531 193.285 678.222C189.284 678.911 185.697 682.084 182.386 687.74C179.488 692.707 178.385 697.26 179.213 701.261C179.902 705.262 182.662 708.573 187.353 711.332ZM197.562 689.396C198.941 688.706 200.597 688.845 202.666 690.086L206.529 692.432L198.251 706.504L194.389 704.296C192.319 703.055 191.216 701.675 191.216 700.157C191.216 698.64 191.905 696.708 193.285 694.363C194.803 691.741 196.182 690.086 197.562 689.396ZM164.864 696.708L153.828 688.845L189.836 638.902L200.873 646.766L164.864 696.708ZM131.616 670.772L143.619 681.396L184.317 635.178L170.107 622.623C160.727 614.346 152.034 614.897 144.033 624.003C141.136 627.313 139.618 630.487 139.342 633.66C139.066 636.695 140.17 639.73 142.515 642.352C140.032 640.834 137.41 640.42 134.927 640.834C132.306 641.248 129.822 642.903 127.478 645.663C124.58 648.836 123.062 652.009 122.786 654.906C122.511 657.804 123.2 660.562 124.718 663.046C126.374 665.529 128.581 668.15 131.616 670.772ZM141.825 649.802C143.48 649.388 145.412 650.216 147.62 652.147L149.551 653.94L139.342 665.529L137.549 664.012C135.617 662.356 134.514 660.562 134.375 658.77C134.237 656.976 134.927 655.183 136.583 653.389C138.376 651.319 140.17 650.078 141.825 649.802ZM159.484 628.831C161.416 628.556 163.348 629.384 165.555 631.314L167.762 633.108L155.483 646.904L153.414 645.111C151.207 643.18 150.104 641.248 150.104 639.455C150.241 637.523 151.345 635.315 153.69 632.694C154.934 631.273 156.234 630.195 157.481 629.534C158.172 629.168 158.846 628.93 159.484 628.831Z" fill="#0B6CFE" fill-opacity="0.15"/>
</svg>