<svg width="39" height="39" viewBox="0 0 39 39" fill="none" xmlns="http://www.w3.org/2000/svg">
<mask id="mask0" mask-type="alpha" maskUnits="userSpaceOnUse" x="0" y="0" width="39" height="39">
<circle cx="19.5" cy="19.5" r="19.5" fill="#C4C4C4"/>
</mask>
<g mask="url(#mask0)">
<path d="M26.5743 12.4883H25.9834V16.0474H26.5743C27.5544 16.0474 28.3538 15.248 28.3538 14.2678C28.3538 13.2877 27.5544 12.4883 26.5743 12.4883Z" fill="#FE9866"/>
<path fill-rule="evenodd" clip-rule="evenodd" d="M24.9834 11.4883H26.5743C28.1067 11.4883 29.3538 12.7354 29.3538 14.2678C29.3538 15.8002 28.1067 17.0474 26.5743 17.0474H24.9834V11.4883ZM25.9834 12.4883H26.5743C26.715 12.4883 26.852 12.5048 26.9834 12.5359C27.7675 12.7215 28.3538 13.4284 28.3538 14.2678C28.3538 15.1072 27.7675 15.8141 26.9834 15.9998C26.852 16.0309 26.715 16.0474 26.5743 16.0474H25.9834V12.4883Z" fill="black"/>
<path d="M10.5586 14.2678C10.5586 15.248 11.358 16.0474 12.3381 16.0474H12.929V12.4883H12.3381C11.358 12.4883 10.5586 13.2877 10.5586 14.2678Z" fill="#FE9866"/>
<path fill-rule="evenodd" clip-rule="evenodd" d="M13.929 17.0474H12.3381C10.8057 17.0474 9.55859 15.8002 9.55859 14.2678C9.55859 12.7354 10.8057 11.4883 12.3381 11.4883H13.929V17.0474ZM12.929 16.0474H12.3381C12.1974 16.0474 12.0604 16.0309 11.929 15.9998C11.1449 15.8141 10.5586 15.1072 10.5586 14.2678C10.5586 13.4284 11.1449 12.7215 11.929 12.5359C12.0604 12.5048 12.1974 12.4883 12.3381 12.4883H12.929V16.0474Z" fill="black"/>
<path d="M19.4559 31.3198C21.6108 31.3198 23.5641 30.0338 24.4122 28.0527L24.6138 27.5869L23.2513 27.4271C22.7091 27.3645 22.2086 27.1143 21.8263 26.7319H17.0785C16.6962 27.1143 16.1957 27.3576 15.6535 27.4271L14.291 27.5869L14.4926 28.0527C15.3476 30.0338 17.294 31.3198 19.4559 31.3198Z" fill="#FFD5A5"/>
<path d="M21.8263 26.7241H17.0785C16.6962 27.1064 16.1957 27.3497 15.6535 27.4193L14.291 27.5791L14.4926 28.0449C14.8749 28.9346 15.4866 29.7062 16.2721 30.2832C17.8292 30.0608 20.728 29.5186 22.9871 27.315C22.5909 27.1482 22.2016 26.9466 21.8263 26.7241Z" fill="#FE9866" fill-opacity="0.45"/>
<path d="M27.7984 27.9554L24.6216 27.5801L24.42 28.0458C23.2453 30.7846 20.0685 32.0498 17.3297 30.875C16.0576 30.3259 15.0496 29.3179 14.5005 28.0458L14.2989 27.5801L11.1152 27.9554C8.75869 28.2683 7 30.2841 7 32.6615V39.5H31.9136V32.6615C31.9136 30.2841 30.1549 28.2683 27.7984 27.9554Z" fill="url(#paint0_linear)"/>
<path fill-rule="evenodd" clip-rule="evenodd" d="M27.9229 26.9631L27.93 26.964C30.7857 27.3431 32.9136 29.7848 32.9136 32.6614V40.4999H6V32.6614C6 29.7848 8.12786 27.3431 10.9836 26.964L10.9908 26.9631L14.921 26.4997L15.4182 27.6485C15.8662 28.6862 16.6875 29.5082 17.7251 29.9564C19.9574 30.9131 22.5447 29.8811 23.501 27.6515L23.5023 27.6485L23.9996 26.4995L27.9229 26.9631ZM17.3297 30.8749C16.0576 30.3257 15.0496 29.3178 14.5005 28.0457L14.2989 27.58L11.1152 27.9553C8.75869 28.2681 7 30.284 7 32.6614V39.4999H31.9136V32.6614C31.9136 30.284 30.1549 28.2681 27.7984 27.9553L24.6216 27.58L24.42 28.0457C23.2453 30.7845 20.0685 32.0497 17.3297 30.8749Z" fill="black"/>
<path d="M24.2953 7.74776H14.8067C14.4244 7.74776 14.049 7.65739 13.7084 7.48361C12.4989 6.87189 12.0192 5.39821 12.631 4.18868C12.7422 3.96624 12.8882 3.76465 13.055 3.59086L13.618 3L14.2089 4.18868H21.7233C23.5654 4.18868 25.3867 5.99603 24.7888 7.74776H24.2953V7.74776Z" fill="url(#paint1_linear)"/>
<path fill-rule="evenodd" clip-rule="evenodd" d="M14.209 4.18881H21.7234C23.5655 4.18881 25.3868 5.99616 24.789 7.74789H14.8068C14.4245 7.74789 14.0491 7.65752 13.7085 7.48374C12.499 6.87202 12.0194 5.39834 12.6311 4.18881C12.7038 4.04344 12.7913 3.90698 12.8898 3.78137C12.942 3.71477 12.9973 3.65121 13.0551 3.59099L13.6182 3.00013L14.209 4.18881ZM12.3323 2.8999L13.8785 1.27734L14.8287 3.18881H21.7234C22.9568 3.18881 24.132 3.78324 24.9105 4.63816C25.6942 5.49878 26.1831 6.75876 25.7354 8.07087L25.5043 8.74789H14.8068C14.2669 8.74789 13.7363 8.62025 13.2557 8.37532C11.5525 7.5129 10.8799 5.4384 11.7377 3.73953C11.8965 3.42249 12.1017 3.1404 12.3323 2.8999Z" fill="black"/>
<path d="M24.7949 7.74756H21.9935H16.495H14.1246C13.0888 8.28281 12.0739 9.35332 12.1851 10.6602L12.3381 12.4953V20.5589C12.3381 21.4973 12.5744 22.4218 13.0332 23.2421L13.2556 23.6314C14.5208 25.9114 16.9259 27.3295 19.5396 27.3295C22.3827 27.3225 24.9547 25.6472 26.1087 23.0544C26.4215 22.3454 26.5814 21.5807 26.5814 20.8091V12.4884L26.7343 10.6532C26.8386 9.35332 26.0392 8.15074 24.7949 7.74756Z" fill="url(#paint2_linear)"/>
<path fill-rule="evenodd" clip-rule="evenodd" d="M24.9532 6.74756L25.1035 6.79625C26.7896 7.34258 27.8727 8.97272 27.7314 10.7332L27.7312 10.7363L27.5817 12.53V20.8091C27.5817 21.7189 27.3932 22.6211 27.0239 23.458L27.0226 23.461C25.7083 26.4142 22.7793 28.3216 19.5425 28.3295L19.54 28.3295C16.5651 28.3295 13.827 26.7166 12.3847 24.1222L12.1608 23.7303C11.617 22.7581 11.3384 21.665 11.3384 20.5589V12.5369L11.1891 10.745C11.1891 10.7446 11.1891 10.7453 11.1891 10.745C11.0278 8.84367 12.4797 7.47211 13.6658 6.85917L13.8818 6.74756H24.9532ZM12.1855 10.6602L12.3384 12.4953V20.5589C12.3384 21.4973 12.5748 22.4218 13.0336 23.2421L13.256 23.6314C14.5211 25.9114 16.9263 27.3295 19.54 27.3295C22.3831 27.3225 24.9551 25.6472 26.109 23.0544C26.4218 22.3454 26.5817 21.5807 26.5817 20.8091V12.4884L26.7346 10.6532C26.8389 9.35332 26.0395 8.15074 24.7952 7.74756H14.1249C13.0892 8.28281 12.0743 9.35332 12.1855 10.6602Z" fill="black"/>
<path d="M11.7478 35.0317H7V38H11.7478V35.0317Z" fill="url(#paint3_linear)"/>
<path fill-rule="evenodd" clip-rule="evenodd" d="M6 34.0317H12.7478V39H6V34.0317ZM11.7478 35.0317V38H7V35.0317H11.7478Z" fill="black"/>
<path d="M31.9138 35.0317H27.166V38H31.9138V35.0317Z" fill="url(#paint4_linear)"/>
<path fill-rule="evenodd" clip-rule="evenodd" d="M26.166 34.0317H32.9138V39H26.166V34.0317ZM31.9138 35.0317V38H27.166V35.0317H31.9138Z" fill="black"/>
<path d="M24.2046 20.3922C24.0308 20.6703 23.6624 20.7537 23.3843 20.5729C23.2731 20.5034 23.1897 20.3992 23.148 20.281L22.7239 19.1827C22.5501 18.7169 22.0983 18.4111 21.6048 18.418H17.3088C16.8153 18.418 16.3774 18.7239 16.1966 19.1827L15.7726 20.281C15.6544 20.5868 15.3138 20.7398 15.0079 20.6216C14.8898 20.5729 14.7855 20.4895 14.716 20.3853L12.3525 16.4438V20.5521C12.3525 21.4905 12.5889 22.415 13.0477 23.2353L13.2701 23.6246C15.2095 27.0933 19.5889 28.3306 23.0506 26.3912C24.4062 25.6335 25.4836 24.4518 26.1162 23.0268C26.422 22.3247 26.5819 21.56 26.5819 20.7884V16.6941L24.2046 20.3922Z" fill="url(#paint5_linear)"/>
<path fill-rule="evenodd" clip-rule="evenodd" d="M23.7949 19.18L23.6585 18.8268C23.3354 17.9686 22.5069 17.4085 21.5988 17.4179H17.3088C16.3939 17.4179 15.5936 17.9849 15.2662 18.816L15.1389 19.1458L11.3525 12.8315V20.5519C11.3525 21.6581 11.6311 22.7511 12.1749 23.7233L12.3996 24.1166C14.6095 28.0637 19.596 29.4725 23.5391 27.2636C25.0837 26.4001 26.3102 25.0544 27.0302 23.4323L27.033 23.426C27.3937 22.5979 27.5819 21.6973 27.5819 20.7883V13.2891L23.7949 19.18ZM23.0506 26.391C24.4062 25.6334 25.4836 24.4516 26.1162 23.0266C26.422 22.3245 26.5819 21.5599 26.5819 20.7883V16.6939L24.2046 20.392C24.0308 20.6701 23.6624 20.7535 23.3843 20.5728C23.2731 20.5033 23.1897 20.399 23.148 20.2808L22.7239 19.1825C22.5501 18.7168 22.0983 18.4109 21.6048 18.4179H17.3088C16.8153 18.4179 16.3774 18.7237 16.1966 19.1825L15.7726 20.2808C15.6544 20.5867 15.3138 20.7396 15.0079 20.6214C14.8898 20.5728 14.7855 20.4894 14.716 20.3851L12.3525 16.4437V20.5519C12.3525 21.4904 12.5889 22.4149 13.0477 23.2351L13.2701 23.6244C15.2095 27.0931 19.5889 28.3305 23.0506 26.391Z" fill="black"/>
<path opacity="0.75" d="M25.1755 36.25H13.3245C13.2157 36.25 13.125 36.0511 13.125 35.8125C13.125 35.5739 13.2157 35.375 13.3245 35.375H25.1755C25.2843 35.375 25.375 35.5739 25.375 35.8125C25.375 36.0644 25.2843 36.25 25.1755 36.25Z" fill="#FC9119"/>
<path opacity="0.75" d="M25.1755 33.625H13.3245C13.2157 33.625 13.125 33.4261 13.125 33.1875C13.125 32.9489 13.2157 32.75 13.3245 32.75H25.1755C25.2843 32.75 25.375 32.9489 25.375 33.1875C25.375 33.4394 25.2843 33.625 25.1755 33.625Z" fill="#FC9119"/>
</g>
<defs>
<linearGradient id="paint0_linear" x1="19.457" y1="27.0117" x2="19.457" y2="37.1283" gradientUnits="userSpaceOnUse">
<stop stop-color="#F0CA30"/>
<stop offset="1" stop-color="#FCA039"/>
</linearGradient>
<linearGradient id="paint1_linear" x1="18.6378" y1="7.45313" x2="18.6378" y2="5.80151" gradientUnits="userSpaceOnUse">
<stop stop-color="#5C3724"/>
<stop offset="1" stop-color="#70432C"/>
</linearGradient>
<linearGradient id="paint2_linear" x1="19.4573" y1="25.3608" x2="19.4573" y2="11.3523" gradientUnits="userSpaceOnUse">
<stop stop-color="#FE9866"/>
<stop offset="1" stop-color="#FFD5A5"/>
</linearGradient>
<linearGradient id="paint3_linear" x1="7" y1="36.5153" x2="11.7454" y2="36.5153" gradientUnits="userSpaceOnUse">
<stop stop-color="#FE9866"/>
<stop offset="1" stop-color="#FFD5A5"/>
</linearGradient>
<linearGradient id="paint4_linear" x1="27.1685" y1="36.5153" x2="31.9141" y2="36.5153" gradientUnits="userSpaceOnUse">
<stop stop-color="#FE9866"/>
<stop offset="1" stop-color="#FFD5A5"/>
</linearGradient>
<linearGradient id="paint5_linear" x1="19.4628" y1="26.1951" x2="19.4628" y2="20.4784" gradientUnits="userSpaceOnUse">
<stop stop-color="#5C3724"/>
<stop offset="1" stop-color="#70432C"/>
</linearGradient>
</defs>
</svg>
