<svg width="29" height="40" viewBox="0 0 29 40" fill="none" xmlns="http://www.w3.org/2000/svg">
<path d="M22.3706 10.8438H21.6953V14.9113H22.3706C23.4907 14.9113 24.4043 13.9977 24.4043 12.8775C24.4043 11.7574 23.4907 10.8438 22.3706 10.8438Z" fill="#FE9866"/>
<path d="M4.06641 12.8775C4.06641 13.9977 4.98001 14.9113 6.10017 14.9113H6.77544V10.8438H6.10017C4.98001 10.8438 4.06641 11.7574 4.06641 12.8775Z" fill="#FE9866"/>
<path d="M14.2357 32.3654C16.6984 32.3654 18.9308 30.8957 19.9 28.6315L20.1304 28.0992L18.5733 27.9165C17.9537 27.845 17.3817 27.559 16.9447 27.1221H11.5187C11.0818 27.559 10.5098 27.8371 9.89011 27.9165L8.33301 28.0992L8.5634 28.6315C9.54055 30.8957 11.765 32.3654 14.2357 32.3654Z" fill="#FFD5A5"/>
<path d="M23.7696 28.5203L20.139 28.0913L19.9086 28.6236C18.566 31.7537 14.9354 33.1995 11.8054 31.8569C10.3515 31.2293 9.1996 30.0774 8.57199 28.6236L8.3416 28.0913L4.70308 28.5203C2.00993 28.8778 0 31.1817 0 33.8987V39.9999H28.4727V33.8987C28.4727 31.1817 26.4627 28.8778 23.7696 28.5203Z" fill="url(#paint0_linear)"/>
<path d="M19.7662 5.42601H8.92211C8.48517 5.42601 8.05617 5.32274 7.6669 5.12413C6.28458 4.42502 5.73641 2.74081 6.43552 1.35849C6.56263 1.10427 6.72946 0.873882 6.92013 0.675273L7.56362 0L8.23889 1.35849H16.8268C18.932 1.35849 21.0135 3.42403 20.3302 5.42601H19.7662V5.42601Z" fill="url(#paint1_linear)"/>
<path d="M20.3377 5.42578H17.1361H10.8521H8.14305C6.95934 6.0375 5.79946 7.26093 5.92657 8.75448L6.10134 10.8518V20.0673C6.10134 21.1398 6.37145 22.1964 6.89578 23.1338L7.15 23.5787C8.59588 26.1845 11.3446 27.8051 14.3317 27.8051C17.581 27.7972 20.5204 25.8826 21.8392 22.9193C22.1967 22.109 22.3794 21.2351 22.3794 20.3533V10.8439L22.5542 8.74653C22.6733 7.26093 21.7597 5.88656 20.3377 5.42578Z" fill="url(#paint2_linear)"/>
<path d="M5.42601 36.6074H0V39.9997H5.42601V36.6074Z" fill="url(#paint3_linear)"/>
<path d="M28.4729 36.6074H23.0469V39.9997H28.4729V36.6074Z" fill="url(#paint4_linear)"/>
<path d="M16.9447 27.1133H11.5187C11.0818 27.5502 10.5098 27.8283 9.89011 27.9077L8.33301 28.0904L8.5634 28.6227C9.00034 29.6396 9.69944 30.5214 10.5972 31.1808C12.3767 30.9266 15.6895 30.3069 18.2714 27.7886C17.8186 27.5979 17.3737 27.3675 16.9447 27.1133Z" fill="#FE9866" fill-opacity="0.45"/>
<path d="M19.6624 19.8767C19.4638 20.1944 19.0427 20.2898 18.7249 20.0832C18.5978 20.0038 18.5025 19.8846 18.4548 19.7496L17.9702 18.4943C17.7716 17.9621 17.2552 17.6125 16.6912 17.6205H11.7815C11.2175 17.6205 10.717 17.97 10.5104 18.4943L10.0258 19.7496C9.89077 20.0991 9.50149 20.2739 9.15194 20.1388C9.01689 20.0832 8.89772 19.9879 8.81828 19.8687L6.11719 15.3643V20.0594C6.11719 21.1319 6.3873 22.1885 6.91163 23.1259L7.16585 23.5708C9.38233 27.5351 14.3873 28.9492 18.3436 26.7327C19.8927 25.8667 21.1241 24.5162 21.8471 22.8876C22.1966 22.0852 22.3793 21.2113 22.3793 20.3295V15.6503L19.6624 19.8767Z" fill="url(#paint5_linear)"/>
<path opacity="0.75" d="M22.1095 35.1703H6.53853C6.39553 35.1703 6.27637 35.0512 6.27637 34.9082C6.27637 34.7652 6.39553 34.646 6.53853 34.646H22.1095C22.2525 34.646 22.3717 34.7652 22.3717 34.9082C22.3717 35.0512 22.2525 35.1703 22.1095 35.1703Z" fill="#FC9119"/>
<path opacity="0.75" d="M22.1095 37.974H6.53853C6.39553 37.974 6.27637 37.8549 6.27637 37.7119C6.27637 37.5689 6.39553 37.4497 6.53853 37.4497H22.1095C22.2525 37.4497 22.3717 37.5689 22.3717 37.7119C22.3717 37.8628 22.2525 37.974 22.1095 37.974Z" fill="#FC9119"/>
<defs>
<linearGradient id="paint0_linear" x1="14.2366" y1="27.4417" x2="14.2366" y2="39.0035" gradientUnits="userSpaceOnUse">
<stop stop-color="#F0CA30"/>
<stop offset="1" stop-color="#FCA039"/>
</linearGradient>
<linearGradient id="paint1_linear" x1="13.3005" y1="5.08929" x2="13.3005" y2="3.20172" gradientUnits="userSpaceOnUse">
<stop stop-color="#5C3724"/>
<stop offset="1" stop-color="#70432C"/>
</linearGradient>
<linearGradient id="paint2_linear" x1="14.2377" y1="25.5552" x2="14.2377" y2="9.54554" gradientUnits="userSpaceOnUse">
<stop stop-color="#FE9866"/>
<stop offset="1" stop-color="#FFD5A5"/>
</linearGradient>
<linearGradient id="paint3_linear" x1="0" y1="38.3029" x2="5.42331" y2="38.3029" gradientUnits="userSpaceOnUse">
<stop stop-color="#FE9866"/>
<stop offset="1" stop-color="#FFD5A5"/>
</linearGradient>
<linearGradient id="paint4_linear" x1="23.0497" y1="38.3029" x2="28.4732" y2="38.3029" gradientUnits="userSpaceOnUse">
<stop stop-color="#FE9866"/>
<stop offset="1" stop-color="#FFD5A5"/>
</linearGradient>
<linearGradient id="paint5_linear" x1="14.2432" y1="26.5085" x2="14.2432" y2="19.9752" gradientUnits="userSpaceOnUse">
<stop stop-color="#5C3724"/>
<stop offset="1" stop-color="#70432C"/>
</linearGradient>
</defs>
</svg>
