<svg width="41" height="30" viewBox="0 0 41 30" fill="none" xmlns="http://www.w3.org/2000/svg">
<path d="M15.2343 10.3794H25.0603C25.0603 10.3794 25.9301 7.09411 26.0577 6.50432C26.4487 4.68191 22.1826 3.05998 20.8307 2.93904L20.8771 2.16534L20.3486 1.73956V1.12823H20.8075L20.9599 1.43638H21.1057V0.374421H20.9616L20.8009 0.674288H20.3486V0.230285L20.6667 0.0497019V0H19.6296V0.0497019L19.946 0.230285V0.674288H19.4937L19.333 0.374421H19.1889V1.43638H19.3347L19.4871 1.12823H19.946V1.73956L19.4175 2.16534L19.4639 2.93904C18.1137 3.06163 13.8476 4.68191 14.2386 6.50432C14.3645 7.09577 15.2343 10.3794 15.2343 10.3794ZM20.4281 4.59245C20.4281 4.59245 20.8042 3.79225 21.331 3.86183C22.789 4.05567 25.2691 4.95693 25.458 6.19119H24.9112V6.34693L25.2326 6.52751V6.97151H24.7737L24.6114 6.67165H24.4656V7.73361H24.6147L24.7688 7.42711H25.236L24.8102 8.88835L23.5643 8.89498L23.1104 8.27867C23.1104 8.27867 23.1004 8.04342 23.1104 7.75018C23.1203 7.45693 23.3357 7.42711 23.4633 7.47516C23.5842 7.52155 23.5378 7.80485 23.5246 7.83467C23.5511 7.80982 23.8211 7.61598 23.894 7.3857C23.9719 7.1405 23.9918 6.76774 23.6886 6.69815C23.3854 6.63023 23.0822 7.01293 23.0822 7.01293C23.0822 7.01293 23.17 6.82572 23.1998 6.62029C23.2297 6.41485 23.228 6.36515 23.1601 6.08185C23.0905 5.79689 22.8088 5.52188 22.8088 5.52188C22.8088 5.52188 22.5255 5.79689 22.456 6.08185C22.3864 6.36681 22.3864 6.41485 22.4162 6.62029C22.446 6.82572 22.5338 7.01293 22.5338 7.01293C22.5338 7.01293 22.2306 6.63023 21.9275 6.69815C21.6243 6.76774 21.6442 7.1405 21.722 7.3857C21.7966 7.61598 22.0666 7.81147 22.0915 7.83467C22.0782 7.80485 22.0318 7.51989 22.1528 7.4735C22.2787 7.42546 22.4941 7.45362 22.504 7.74852C22.5139 8.04176 22.504 8.27702 22.504 8.27702L22.0418 8.90492L21.1455 8.9132L21.1356 8.69948L20.4662 8.03513V7.42546H20.9251L21.0776 7.73195H21.2234V6.66999H21.0792L20.9185 6.96986H20.4662V6.52751L20.7843 6.34693V6.19119H20.4281V4.59245ZM18.9636 3.86018C19.4921 3.79059 19.8665 4.59079 19.8665 4.59079V6.18954H19.5103V6.34527L19.8284 6.52585V6.96986H19.3761L19.2154 6.66999H19.0713V7.73195H19.2187L19.3695 7.42546H19.8284V8.03513L19.1591 8.69948L19.1508 8.9132L18.2545 8.90492L17.7923 8.27702C17.7923 8.27702 17.7823 8.04176 17.7923 7.74852C17.8022 7.45528 18.0176 7.42546 18.1452 7.4735C18.2644 7.51989 18.2197 7.80319 18.2065 7.83301C18.233 7.80816 18.503 7.61432 18.5759 7.38404C18.6538 7.13884 18.6737 6.76608 18.3721 6.6965C18.0689 6.62857 17.7658 7.01127 17.7658 7.01127C17.7658 7.01127 17.8536 6.82406 17.8834 6.61863C17.9116 6.4132 17.9116 6.36349 17.8436 6.08019C17.774 5.79524 17.4924 5.52022 17.4924 5.52022C17.4924 5.52022 17.2091 5.79524 17.1395 6.08019C17.0716 6.36515 17.0716 6.4132 17.1014 6.61863C17.1312 6.82406 17.219 7.01127 17.219 7.01127C17.219 7.01127 16.9159 6.62857 16.6127 6.6965C16.3095 6.76608 16.3294 7.13884 16.4072 7.38404C16.4801 7.61267 16.7502 7.80816 16.7767 7.83301C16.7634 7.80319 16.7171 7.51989 16.838 7.4735C16.9656 7.42546 17.1809 7.45362 17.1909 7.74852C17.2008 8.04176 17.1909 8.27702 17.1909 8.27702L16.7369 8.89332L15.4927 8.88669L15.067 7.42546H15.5325L15.6866 7.73195H15.8357V6.66999H15.6899L15.5259 6.96986H15.067V6.52751L15.39 6.34693V6.19119H14.8433C15.0885 5.03314 17.5057 4.05401 18.9636 3.86018ZM23.5229 7.83798C23.5229 7.83798 23.5246 7.83798 23.5246 7.83467C23.5229 7.83633 23.5212 7.83798 23.5229 7.83798ZM18.2015 7.83798C18.2015 7.83798 18.2031 7.83798 18.2031 7.83467C18.2015 7.83633 18.2015 7.83798 18.2015 7.83798ZM16.7734 7.83798C16.7734 7.83798 16.7734 7.83798 16.7717 7.83467C16.7734 7.83633 16.7734 7.83798 16.7734 7.83798ZM22.0948 7.83798C22.0948 7.83798 22.0948 7.83798 22.0931 7.83633C22.0931 7.83633 22.0948 7.83798 22.0948 7.83798Z" fill="url(#paint0_linear)"/>
<path d="M4.95949 5.24365C4.35147 5.36128 3.84285 5.62636 3.57778 5.80032C3.3127 5.97427 2.94491 6.33378 2.94491 6.33378C2.94491 6.33378 3.32264 6.19959 3.50654 6.19959C3.69043 6.19959 3.87433 6.28574 3.87433 6.28574C3.87433 6.28574 3.44524 6.33378 3.23815 6.40005C3.03271 6.46632 2.8687 6.57732 2.8687 6.57732C2.8687 6.57732 2.90349 7.12238 3.19507 7.35598C3.485 7.58958 4.04332 7.52497 4.04332 7.52497C4.04332 7.52497 4.02509 7.7039 3.79812 7.74697C3.56949 7.7917 3.29116 7.67076 3.19839 7.59124C3.10561 7.51337 3.08242 7.40237 3.07579 7.41231C3.06916 7.42225 2.76764 8.04187 3.21164 8.70125C3.65564 9.36062 4.03006 9.93717 4.0748 10.3497C4.11953 10.7622 4.07645 10.9014 4.07645 10.9014C4.07645 10.9014 4.3465 10.8931 4.4956 10.802C4.64471 10.7109 4.79382 10.4011 4.79382 10.4011C4.79382 10.4011 4.97606 10.7954 5.46479 10.9196C5.95353 11.0455 6.84319 10.7059 6.84319 10.7059C6.84319 10.7059 6.65101 10.6645 6.49693 10.5883C6.34286 10.5137 6.26333 10.4226 6.26333 10.4226C6.26333 10.4226 6.59965 10.4358 6.99727 10.4557C7.39654 10.4756 7.78587 10.4971 7.92503 10.7225C8.06586 10.9511 8.02941 11.1234 8.02941 11.1234C8.02941 11.1234 8.20502 11.125 8.32099 10.9975C8.43696 10.8699 8.4088 10.6827 8.4088 10.6827C8.4088 10.6827 8.69376 10.8384 8.72026 10.9826C8.74843 11.1267 8.62086 11.2377 8.62086 11.2377C8.62086 11.2377 9.01682 11.241 9.00356 10.8136C8.99031 10.3861 8.76499 10.1757 8.76499 10.1757C8.76499 10.1757 9.21397 9.86924 9.23551 9.52298C9.25539 9.17673 9.16758 9.08064 9.16758 9.08064C9.16758 9.08064 9.06486 9.5031 8.84949 9.60582C8.6308 9.71351 8.34916 9.576 8.34916 9.576C8.34916 9.576 8.51152 9.50973 8.57116 9.41033C8.6308 9.31092 8.60926 9.19992 8.60926 9.19992C8.60926 9.19992 8.38892 9.3308 8.26301 9.31092C8.13544 9.2927 8.05923 9.25459 8.05923 9.25459C8.05923 9.25459 8.41377 8.91496 8.35413 8.69793C8.29448 8.4809 8.20005 8.44777 8.20005 8.44777C8.20005 8.44777 8.27295 8.7758 8.00124 8.87189C7.7312 8.96798 7.59866 8.87023 7.37831 8.78243C7.15962 8.69296 6.90449 8.60184 6.90449 8.60184C6.90449 8.60184 7.01218 8.52066 7.12318 8.55048C7.23418 8.58031 7.34021 8.63001 7.34021 8.63001C7.34021 8.63001 7.28719 8.40304 7.10992 8.34174C6.931 8.28044 6.65764 8.13133 6.65764 8.13133C6.65764 8.13133 7.07845 8.13796 7.27394 8.09985C7.46778 8.06341 7.54896 7.93252 7.5589 7.6691C7.56884 7.40403 7.51085 7.3361 7.51085 7.3361C7.51085 7.3361 7.06519 7.48355 6.75538 7.46533C6.44557 7.44545 6.4141 7.19694 6.42072 7.09256C6.42569 6.98488 6.52344 6.80926 6.68911 6.71649C6.85479 6.62205 7.00721 6.63696 7.00721 6.63696C7.00721 6.63696 7.05525 6.70655 7.00058 6.78773C6.94591 6.86891 6.87135 6.93517 6.87135 6.93517C6.87135 6.93517 6.95585 6.96334 7.03537 6.92192C7.11489 6.8805 7.18116 6.77116 7.18116 6.77116C7.18116 6.77116 7.24909 6.89873 7.21098 6.97494C7.17454 7.0528 7.10992 7.13398 7.10992 7.13398C7.10992 7.13398 7.68481 6.92689 7.75605 6.61543C7.82729 6.30396 7.56387 5.94279 7.56387 5.94279L7.52742 5.61642C7.52742 5.61642 7.41973 5.5137 7.27891 5.50707C7.13643 5.50045 6.88461 5.50542 6.6974 5.54021C6.51019 5.57666 6.26168 5.59819 6.14239 5.5253C6.03968 5.46234 5.69508 5.22046 5.22125 5.22046C5.14007 5.2188 5.05061 5.22543 4.95949 5.24365ZM5.47473 6.02232C5.47473 6.02232 5.52609 5.91794 5.652 5.83345C5.76632 5.75724 5.94027 5.7473 5.96512 5.73902C5.96512 5.7357 5.96512 5.7357 5.96678 5.7357C5.96844 5.73736 5.96678 5.73736 5.96512 5.73902C5.96347 5.76552 6.00157 5.94942 5.83424 6.03557C5.77791 6.06373 5.72324 6.07368 5.67354 6.07368C5.55922 6.07533 5.47473 6.02232 5.47473 6.02232ZM11.2501 6.91529C11.2501 6.91529 11.0281 6.91861 10.9204 7.02629C10.8144 7.13398 10.7647 7.45539 10.7647 7.45539C10.7647 7.45539 11.038 8.33345 10.9171 8.62007C10.7978 8.90502 10.6073 9.15685 10.1798 9.37554C9.7524 9.59422 9.68945 9.76487 9.4807 9.96533C9.27361 10.1641 9.05492 10.2321 9.05492 10.2321C9.05492 10.2321 9.26864 10.6761 9.15101 10.9776C9.03504 11.2791 8.80641 11.3785 8.80641 11.3785C8.80641 11.3785 9.05161 11.6187 9.209 11.6916C9.36804 11.7645 9.42603 11.7844 9.42603 11.7844C9.42603 11.7844 9.50887 11.7215 9.60661 11.5674C9.70436 11.4117 9.83524 11.3073 9.83524 11.3073C9.83524 11.3073 9.88494 11.4017 9.84684 11.4879C9.80708 11.5757 9.68614 11.6867 9.68614 11.6867C9.68614 11.6867 9.99263 11.748 10.266 11.352C10.5394 10.9561 10.8392 10.7307 10.8392 10.7307C10.8392 10.7307 10.8011 10.9461 10.715 11.0339C10.6288 11.1217 10.5559 11.1996 10.5559 11.1996C10.5559 11.1996 10.884 11.1284 10.9751 10.9743C11.0645 10.8219 11.1424 10.4408 11.1971 10.358C11.2534 10.2751 11.3048 10.2503 11.3048 10.2503C11.3048 10.2503 11.2667 10.3845 11.4837 10.4309C11.6991 10.4773 11.9095 10.4126 11.9095 10.4126C11.9095 10.4126 11.8747 10.3944 11.8548 10.3348C11.8349 10.2751 11.8465 10.2089 11.8465 10.2089C11.8465 10.2089 12.1016 10.2553 12.2623 10.184C12.4231 10.1128 12.4297 9.92888 12.4297 9.92888C12.4297 9.92888 12.2988 10.0333 12.1563 9.99847C12.0138 9.96202 11.9492 9.91066 11.8979 9.90403C11.8498 9.8974 11.7272 9.92226 11.7272 9.92226L12.1099 9.71351L12.0221 9.30761C12.0221 9.30761 12.3618 9.08229 12.4926 8.85864C12.6235 8.63332 12.5307 8.43783 12.5307 8.43783C12.5307 8.43783 12.713 8.35499 12.8505 8.35996C12.9863 8.36493 13.0692 8.46102 13.0692 8.46102C13.0692 8.46102 13.0625 8.21417 12.8936 8.12802C12.7262 8.04187 12.3866 8.13796 12.3866 8.13796C12.3866 8.13796 12.3965 7.90436 12.2276 7.80993C12.0586 7.71549 11.8979 7.71384 11.8979 7.71384C11.8979 7.71384 12.0122 7.48521 12.2375 7.409C12.4612 7.33445 12.6086 7.35267 12.6086 7.35267C12.6086 7.35267 12.433 7.10747 12.1729 7.15883C11.9111 7.21019 11.7206 7.37421 11.7206 7.37421C11.7206 7.37421 11.6626 7.2748 11.5765 7.25161C11.492 7.22842 11.3694 7.21185 11.3694 7.21185C11.3694 7.21185 11.4621 7.03458 11.6113 6.98156C11.7604 6.92855 11.868 6.94677 11.868 6.94677C11.868 6.94677 11.7852 6.80429 11.6079 6.79767C11.6046 6.79767 11.5997 6.79767 11.5963 6.79767C11.4257 6.79767 11.2501 6.91529 11.2501 6.91529ZM0.62383 11.6585C1.16061 11.9136 1.59964 11.6486 1.59964 11.6486C1.59964 11.6486 1.5632 12.1837 1.0728 12.3278C0.582412 12.472 0.393545 12.3692 0.393545 12.3692C0.393545 12.3692 0.615547 12.6459 0.945236 12.6409C1.27327 12.6376 1.61621 12.4521 1.76697 12.303C1.91774 12.1539 2.04365 11.9799 2.04365 11.9799C2.04365 11.9799 2.09666 12.409 2.34683 12.6194C2.59699 12.8298 2.74113 12.8514 2.74113 12.8514C2.74113 12.8514 2.50919 12.578 2.47274 12.2848C2.43629 11.9932 2.71794 11.748 2.97638 11.69C4.02344 11.4464 4.35644 13.5985 4.25372 14.2231C4.17751 14.6969 3.83623 15.6197 3.44027 16.2046C3.04597 16.7894 2.94656 16.8391 2.8687 16.9634C2.79249 17.0876 2.80243 17.3361 2.80243 17.3361C2.80243 17.3361 2.82231 17.3328 2.89024 17.2781C2.95982 17.2251 3.07413 17.2019 3.07413 17.2019C3.07413 17.2019 3.06916 17.4322 2.80243 17.6526C2.53735 17.8746 2.44623 18.08 2.44623 18.08C2.44623 18.08 2.53238 18.0535 2.62019 18.0469C2.70965 18.0402 2.77426 18.0667 2.77426 18.0667C2.77426 18.0667 2.42469 18.1645 2.34683 18.3285C2.26896 18.4925 2.36671 18.6433 2.36671 18.6433C2.36671 18.6433 2.36671 18.5339 2.59202 18.4594C2.81568 18.3865 2.95982 18.3086 2.95982 18.3086C2.95982 18.3086 2.84882 18.5588 2.89852 18.7592C2.94656 18.9581 2.9068 19.2662 2.82728 19.4219C2.74776 19.5777 2.66161 19.6439 2.66161 19.6439L2.92503 19.7632C2.92503 19.7632 2.84716 19.9769 2.65498 20.015C2.4628 20.0515 2.35677 20.0233 2.35677 20.0233C2.35677 20.0233 2.55392 20.2652 2.81734 20.2437C3.08242 20.2221 3.25969 19.9985 3.25969 19.9985C3.25969 19.9985 3.26134 20.0581 3.56452 20.1873C3.86936 20.3182 3.94226 20.3331 3.94226 20.3331C3.94226 20.3331 3.93563 20.295 4.00853 20.2619C4.08142 20.2271 4.12284 20.2387 4.12284 20.2387C4.12284 20.2387 4.20899 20.5303 4.12284 20.7059C4.03669 20.8832 3.94226 20.9594 3.94226 20.9594C3.94226 20.9594 4.2355 20.9826 4.42602 20.7755C4.61489 20.5701 4.46744 20.1691 4.46744 20.1691L4.72589 20.2188C4.72589 20.2188 4.73749 20.078 4.8137 19.9537C4.88991 19.8295 4.97109 19.793 4.97109 19.793C4.97109 19.793 5.08706 19.9803 5.06718 20.1327C5.0473 20.2867 5.00588 20.3348 5.00588 20.3348C5.00588 20.3348 5.31072 20.2056 5.29249 19.9604C5.27427 19.7152 5.20303 19.5992 5.20303 19.5992L5.37864 19.5744C5.37864 19.5744 5.37864 19.1154 5.12516 18.9846C4.87003 18.8553 4.49892 18.3782 4.46081 17.9176C4.42105 17.4571 4.47904 16.7281 4.94126 16.4382C5.40349 16.1499 6.096 16.0157 6.56817 15.6761C7.04034 15.3348 7.34021 15.078 7.34021 15.078C7.34021 15.078 6.9923 15.5435 6.91774 15.7274C6.84319 15.9113 6.87301 16.0157 6.87301 16.0157C6.87301 16.0157 6.88958 16.2029 7.09336 16.4315C7.29713 16.6618 7.38328 16.743 7.38328 16.743C7.38328 16.743 7.25571 17.0578 7.32033 17.1936C7.3866 17.3295 7.47772 17.3924 7.47772 17.3924C7.47772 17.3924 7.48434 17.2218 7.54399 17.1191C7.60363 17.018 7.67984 16.9435 7.67984 16.9435C7.67984 16.9435 7.93497 16.8739 8.0526 17.0611C8.16857 17.2483 8.15698 17.6989 8.15698 17.6989C8.15698 17.6989 8.24975 17.7205 8.38726 17.7039C8.52311 17.689 8.67056 17.6294 8.67056 17.6294C8.67056 17.6294 8.69044 17.8348 8.65565 17.9607C8.62086 18.0883 8.54465 18.2109 8.54465 18.2109C8.54465 18.2109 8.83955 18.1943 8.99528 18.0137C9.14936 17.8348 9.1858 17.7072 9.1858 17.7072L9.27858 17.8282L9.71927 17.5333C9.71927 17.5333 9.79548 17.6178 9.83358 17.7602C9.87169 17.9027 9.86506 18.0237 9.86506 18.0237C9.86506 18.0237 10.0788 17.7934 10.0639 17.6062C10.0473 17.419 10.0009 17.2798 10.0009 17.2798L10.0838 17.1439C10.0838 17.1439 10.2826 17.1953 10.3008 17.3411C10.319 17.4869 10.3008 17.6509 10.3008 17.6509C10.3008 17.6509 10.5427 17.3046 10.4847 17.1058C10.425 16.9087 10.3422 16.8341 10.3422 16.8341C10.3422 16.8341 10.377 16.5989 10.1252 16.5376C9.875 16.4763 9.15764 16.3255 8.97706 16.1118C8.79647 15.8964 8.42537 14.9123 8.33756 14.5097C8.24975 14.1088 8.23318 14.0227 8.2746 13.8736C8.31602 13.7261 8.37235 13.6549 8.37235 13.6549L7.96314 13.4942C7.96314 13.4942 8.31105 13.4378 8.68216 13.6035C9.05327 13.7708 9.27195 13.9183 9.27195 13.9183L9.14936 14.1618C9.14936 14.1618 9.26864 14.2182 9.54366 14.0956C9.81867 13.9713 9.81702 13.9034 9.97938 13.8719C10.1434 13.8404 10.2445 13.9001 10.2445 13.9001C10.2445 13.9001 10.0241 14.0425 9.95784 14.1154C9.89157 14.1883 9.87666 14.3209 9.87666 14.3209C9.87666 14.3209 9.97772 14.1718 10.2627 14.1552C10.5493 14.1403 10.6272 14.2844 10.7978 14.291C10.9684 14.2977 11.1026 14.2712 11.1026 14.2712C11.1026 14.2712 11.2186 14.5081 11.4257 14.5478C11.6328 14.5893 11.8167 14.5031 11.8167 14.5031C11.8167 14.5031 11.6427 14.4865 11.5566 14.3938C11.4688 14.3026 11.4439 14.1767 11.4439 14.1767C11.4439 14.1767 11.5997 13.7973 11.8863 13.9415C12.1729 14.0856 12.3336 14.1933 12.5026 14.1916C12.6716 14.1883 12.8372 14.0674 12.8372 14.0674C12.8372 14.0674 12.9747 14.1105 13.036 14.2182C13.0957 14.3258 13.1139 14.4633 13.1139 14.4633C13.1139 14.4633 13.2995 14.1386 13.1553 13.9564C13.0112 13.7758 12.9101 13.6648 12.9101 13.6648C12.9101 13.6648 13.1686 13.5058 13.3028 13.2208C13.437 12.9358 13.4403 12.8547 13.4403 12.8547C13.4403 12.8547 13.6126 12.7619 13.7501 12.805C13.8876 12.848 13.9688 12.9027 13.9688 12.9027C13.9688 12.9027 13.9456 12.578 13.6755 12.5217C13.4055 12.4637 13.316 12.5117 13.316 12.5117C13.316 12.5117 13.3591 12.3245 13.104 12.293C12.8488 12.2632 12.6003 12.2119 12.6003 12.2119C12.6003 12.2119 12.7925 12.0743 13.0095 12.0627C13.2266 12.0512 13.4071 12.1638 13.4071 12.1638C13.4071 12.1638 13.3922 11.8772 13.1719 11.8209C12.9515 11.7645 12.7726 11.8689 12.7726 11.8689C12.7726 11.8689 12.655 11.7314 12.5009 11.6519C12.3452 11.5724 12.1795 11.6436 12.0934 11.7612C12.0072 11.8772 11.8034 12.4256 11.4936 12.525C10.7481 12.7652 9.36804 12.0893 8.77991 11.6088C8.54299 11.415 8.37566 11.2476 8.37566 11.2476C8.25804 11.352 7.98136 11.5077 7.82563 11.4001C7.82563 11.4001 7.84551 10.9378 7.70469 10.8252C7.56387 10.7125 7.44293 10.7075 7.44293 10.7075C7.44293 10.7075 7.44293 10.9428 6.71893 11.0637C5.99494 11.1847 5.44325 11.2211 5.18646 11.082C4.92967 10.9411 4.84849 10.7009 4.8402 10.7125C4.83358 10.7241 5.13179 11.5425 4.99428 12.1191C4.85512 12.694 4.60661 13.2606 4.60661 13.2606C4.60661 13.2606 4.51714 12.0213 4.29845 11.5657C4.08142 11.1101 3.76499 10.5137 3.04265 10.4822C2.31866 10.4524 2.00057 10.6645 1.43894 10.7937C0.875653 10.9229 0.352127 10.8931 0.217932 10.4623C0.0837368 10.0299 0.304082 9.66878 0.304082 9.66878C-0.269146 10.1045 0.0423187 11.3835 0.62383 11.6585Z" fill="url(#paint1_linear)"/>
<path d="M26.4175 12.9141C26.4175 12.9141 26.497 12.8594 26.6345 12.8163C26.772 12.7732 26.9443 12.866 26.9443 12.866C26.9443 12.866 26.9476 12.9472 27.0835 13.2322C27.2177 13.5171 27.4761 13.6762 27.4761 13.6762C27.4761 13.6762 27.3751 13.7872 27.2309 13.9677C27.0868 14.15 27.2724 14.4747 27.2724 14.4747C27.2724 14.4747 27.2889 14.3372 27.3486 14.2295C27.4099 14.1218 27.5474 14.0788 27.5474 14.0788C27.5474 14.0788 27.713 14.1997 27.882 14.203C28.051 14.2063 28.2117 14.097 28.4983 13.9528C28.7849 13.8087 28.9407 14.1881 28.9407 14.1881C28.9407 14.1881 28.9175 14.314 28.8297 14.4051C28.7419 14.4979 28.5696 14.5145 28.5696 14.5145C28.5696 14.5145 28.7518 14.599 28.9589 14.5592C29.166 14.5194 29.282 14.2825 29.282 14.2825C29.282 14.2825 29.4162 14.309 29.5885 14.3024C29.7591 14.2958 29.837 14.1516 30.1219 14.1666C30.4085 14.1815 30.5096 14.3322 30.5096 14.3322C30.5096 14.3322 30.4947 14.1997 30.4301 14.1268C30.3638 14.0539 30.1435 13.9114 30.1435 13.9114C30.1435 13.9114 30.2445 13.8518 30.4085 13.8833C30.5726 13.9147 30.5692 13.9843 30.8426 14.1069C31.1176 14.2295 31.2386 14.1732 31.2386 14.1732L31.116 13.9296C31.116 13.9296 31.3347 13.7822 31.7058 13.6149C32.0769 13.4475 32.4231 13.5055 32.4231 13.5055L32.0139 13.6662C32.0139 13.6662 32.0702 13.7375 32.1117 13.8849C32.1531 14.0324 32.1365 14.1202 32.0487 14.5211C31.9609 14.922 31.5914 15.9078 31.4092 16.1232C31.2286 16.3369 30.5113 16.4876 30.2594 16.5489C30.0093 16.6102 30.0424 16.8455 30.0424 16.8455C30.0424 16.8455 29.9579 16.92 29.8999 17.1172C29.8419 17.316 30.0838 17.6623 30.0838 17.6623C30.0838 17.6623 30.0656 17.4982 30.0838 17.3524C30.102 17.2067 30.3009 17.1553 30.3009 17.1553L30.3837 17.2911C30.3837 17.2911 30.3373 17.432 30.3207 17.6175C30.3042 17.8047 30.5195 18.035 30.5195 18.035C30.5195 18.035 30.5129 17.9141 30.5494 17.7716C30.5875 17.6291 30.6637 17.5446 30.6637 17.5446L31.1044 17.8395L31.1971 17.7186C31.1971 17.7186 31.2336 17.8445 31.3877 18.0251C31.5417 18.204 31.8383 18.2222 31.8383 18.2222C31.8383 18.2222 31.7621 18.0996 31.7273 17.9721C31.6925 17.8462 31.7124 17.6407 31.7124 17.6407C31.7124 17.6407 31.8615 17.6987 31.9973 17.7153C32.1332 17.7318 32.2276 17.7103 32.2276 17.7103C32.2276 17.7103 32.2144 17.2597 32.3303 17.0725C32.4463 16.8869 32.7015 16.9548 32.7015 16.9548C32.7015 16.9548 32.7777 17.0294 32.8373 17.1304C32.8986 17.2332 32.9052 17.4038 32.9052 17.4038C32.9052 17.4038 32.9963 17.3408 33.0626 17.205C33.1289 17.0675 33.0013 16.7544 33.0013 16.7544C33.0013 16.7544 33.0875 16.6715 33.2912 16.4429C33.495 16.2126 33.5116 16.0271 33.5116 16.0271C33.5116 16.0271 33.5414 15.9227 33.4669 15.7388C33.3923 15.5549 33.0444 15.0894 33.0444 15.0894C33.0444 15.0894 33.3443 15.3461 33.8164 15.6874C34.2886 16.0271 34.9811 16.1613 35.4433 16.4495C35.9056 16.7378 35.9652 17.4684 35.9254 17.929C35.8857 18.3896 35.5146 18.8667 35.2594 18.9959C35.006 19.1268 35.006 19.5857 35.006 19.5857L35.1799 19.6106C35.1799 19.6106 35.1087 19.7265 35.0905 19.9717C35.0722 20.2169 35.3771 20.3462 35.3771 20.3462C35.3771 20.3462 35.3373 20.2981 35.3174 20.144C35.2975 19.99 35.4119 19.8044 35.4119 19.8044C35.4119 19.8044 35.4947 19.8409 35.5692 19.9651C35.6455 20.0894 35.6571 20.2302 35.6571 20.2302L35.9155 20.1805C35.9155 20.1805 35.7681 20.5814 35.9569 20.7868C36.1458 20.9939 36.4407 20.9707 36.4407 20.9707C36.4407 20.9707 36.3463 20.8929 36.2601 20.7173C36.174 20.5416 36.2601 20.2501 36.2601 20.2501C36.2601 20.2501 36.3015 20.2368 36.3744 20.2733C36.449 20.3064 36.4407 20.3445 36.4407 20.3445C36.4407 20.3445 36.5136 20.3296 36.8184 20.1987C37.1216 20.0678 37.1233 20.0098 37.1233 20.0098C37.1233 20.0098 37.2989 20.2318 37.5639 20.255C37.829 20.2766 38.0262 20.0347 38.0262 20.0347C38.0262 20.0347 37.9218 20.0645 37.728 20.0264C37.5358 19.99 37.4579 19.7746 37.4579 19.7746L37.7197 19.6553C37.7197 19.6553 37.6319 19.589 37.5524 19.4333C37.4728 19.2776 37.4331 18.9711 37.4811 18.7706C37.5292 18.5718 37.4182 18.32 37.4182 18.32C37.4182 18.32 37.5623 18.3978 37.7876 18.4707C38.0129 18.5453 38.0113 18.6546 38.0113 18.6546C38.0113 18.6546 38.109 18.5039 38.0328 18.3399C37.9549 18.1742 37.6054 18.0781 37.6054 18.0781C37.6054 18.0781 37.67 18.0516 37.7578 18.0582C37.8456 18.0648 37.9317 18.0913 37.9317 18.0913C37.9317 18.0913 37.8423 17.8843 37.5755 17.6639C37.3088 17.4436 37.3038 17.2133 37.3038 17.2133C37.3038 17.2133 37.4198 17.2365 37.4877 17.2895C37.5573 17.3425 37.5772 17.3475 37.5772 17.3475C37.5772 17.3475 37.5855 17.099 37.5109 16.9747C37.4347 16.8505 37.3353 16.8008 36.9394 16.2159C36.5451 15.6311 36.2054 14.7083 36.1276 14.2345C36.0248 13.6082 36.3595 11.4578 37.4049 11.7013C37.6634 11.761 37.9433 12.0045 37.9085 12.2961C37.8721 12.5894 37.6402 12.8627 37.6402 12.8627C37.6402 12.8627 37.7843 12.8412 38.0345 12.6308C38.2846 12.4204 38.3376 11.9913 38.3376 11.9913C38.3376 11.9913 38.4636 12.1652 38.6143 12.3143C38.7634 12.4634 39.108 12.649 39.4344 12.6523C39.7624 12.6556 39.9861 12.3806 39.9861 12.3806C39.9861 12.3806 39.7972 12.4833 39.3052 12.3392C38.8148 12.1934 38.7783 11.6599 38.7783 11.6599C38.7783 11.6599 39.2157 11.9233 39.7541 11.6699C40.3357 11.3932 40.6455 10.1142 40.0772 9.68842C40.0772 9.68842 40.2959 10.0496 40.1634 10.482C40.0292 10.9144 39.5056 10.9426 38.9424 10.8133C38.3791 10.6841 38.061 10.4737 37.337 10.5019C36.613 10.5317 36.2982 11.1281 36.0812 11.5854C35.8625 12.041 35.773 13.2802 35.773 13.2802C35.773 13.2802 35.5229 12.7136 35.3854 12.1387C35.2478 11.5638 35.5461 10.7438 35.5378 10.7322C35.5295 10.7206 35.4483 10.9608 35.1915 11.1016C34.9364 11.2424 34.3847 11.2043 33.6607 11.0834C32.9367 10.9641 32.9384 10.7272 32.9384 10.7272C32.9384 10.7272 32.8174 10.7322 32.6766 10.8448C32.5358 10.9575 32.5557 11.4197 32.5557 11.4197C32.3983 11.5274 32.1249 11.3717 32.0056 11.2673C32.0056 11.2673 31.8383 11.4346 31.603 11.6284C31.0149 12.1089 29.6348 12.7848 28.8893 12.5446C28.5812 12.4452 28.3774 11.8968 28.2896 11.7809C28.2018 11.6649 28.0361 11.592 27.882 11.6715C27.728 11.751 27.6103 11.8886 27.6103 11.8886C27.6103 11.8886 27.4314 11.7842 27.2111 11.8405C26.9907 11.8968 26.9758 12.1835 26.9758 12.1835C26.9758 12.1835 27.158 12.0691 27.3751 12.0824C27.5921 12.094 27.7843 12.2315 27.7843 12.2315C27.7843 12.2315 27.5358 12.2829 27.2806 12.3127C27.0255 12.3425 27.0686 12.5314 27.0686 12.5314C27.0686 12.5314 26.9791 12.4833 26.7091 12.5413C26.444 12.5894 26.4175 12.9041 26.4175 12.9141ZM34.2356 5.52175C34.1163 5.59464 33.8661 5.57311 33.6806 5.53666C33.495 5.50021 33.2415 5.49524 33.0991 5.50352C32.9582 5.51181 32.8506 5.61287 32.8506 5.61287L32.8141 5.93924C32.8141 5.93924 32.5523 6.30041 32.6236 6.61188C32.6948 6.92334 33.2681 7.13043 33.2681 7.13043C33.2681 7.13043 33.2051 7.04925 33.1686 6.97138C33.1305 6.89518 33.1985 6.76761 33.1985 6.76761C33.1985 6.76761 33.2647 6.87695 33.3443 6.91837C33.4238 6.95979 33.5083 6.93162 33.5083 6.93162C33.5083 6.93162 33.4337 6.86535 33.3791 6.78417C33.3244 6.70465 33.3724 6.63341 33.3724 6.63341C33.3724 6.63341 33.5232 6.6185 33.6905 6.71294C33.8562 6.80571 33.9539 6.98298 33.9589 7.08901C33.9639 7.19504 33.9341 7.44355 33.6226 7.46178C33.3128 7.48 32.8688 7.33255 32.8688 7.33255C32.8688 7.33255 32.8108 7.40048 32.8207 7.66555C32.8307 7.93063 32.9119 8.05986 33.1057 8.0963C33.2995 8.13441 33.722 8.12778 33.722 8.12778C33.722 8.12778 33.447 8.27689 33.2681 8.33819C33.0908 8.39948 33.0378 8.62646 33.0378 8.62646C33.0378 8.62646 33.1438 8.57676 33.2548 8.54693C33.3658 8.51546 33.4735 8.59829 33.4735 8.59829C33.4735 8.59829 33.2184 8.68941 32.9997 8.77888C32.781 8.86834 32.6484 8.96609 32.3767 8.86834C32.1067 8.77225 32.1779 8.44422 32.1779 8.44422C32.1779 8.44422 32.0835 8.47735 32.0239 8.69438C31.9642 8.91141 32.3204 9.25104 32.3204 9.25104C32.3204 9.25104 32.2425 9.28915 32.1166 9.30737C31.9891 9.32725 31.7704 9.19637 31.7704 9.19637C31.7704 9.19637 31.7488 9.30572 31.8085 9.40678C31.8681 9.50618 32.0305 9.57245 32.0305 9.57245C32.0305 9.57245 31.7488 9.70996 31.5318 9.60724C31.3148 9.50452 31.2121 9.08206 31.2121 9.08206C31.2121 9.08206 31.1226 9.17815 31.1441 9.5244C31.1657 9.87066 31.6146 10.1772 31.6146 10.1772C31.6146 10.1772 31.391 10.3876 31.3777 10.815C31.3661 11.2424 31.7604 11.2391 31.7604 11.2391C31.7604 11.2391 31.6329 11.1265 31.661 10.984C31.6892 10.8398 31.9725 10.6841 31.9725 10.6841C31.9725 10.6841 31.9443 10.8713 32.0603 10.9989C32.1763 11.1265 32.3519 11.1248 32.3519 11.1248C32.3519 11.1248 32.3154 10.9508 32.4563 10.7239C32.5971 10.4969 32.9864 10.477 33.3857 10.4571C33.7833 10.4373 34.1196 10.424 34.1196 10.424C34.1196 10.424 34.0401 10.5135 33.886 10.5897C33.7319 10.6642 33.5381 10.7073 33.5381 10.7073C33.5381 10.7073 34.4278 11.0469 34.9165 10.921C35.4052 10.7968 35.5875 10.4025 35.5875 10.4025C35.5875 10.4025 35.7382 10.7123 35.8873 10.8034C36.0364 10.8929 36.3065 10.9028 36.3065 10.9028C36.3065 10.9028 36.2634 10.762 36.3082 10.3511C36.3529 9.93859 36.7273 9.36204 37.1713 8.70267C37.6137 8.04329 37.3138 7.42533 37.3072 7.41373C37.2989 7.40379 37.279 7.51314 37.1846 7.59266C37.0901 7.67052 36.8118 7.79147 36.5848 7.74839C36.3562 7.70532 36.338 7.52639 36.338 7.52639C36.338 7.52639 36.8946 7.591 37.1862 7.3574C37.4778 7.1238 37.5126 6.57874 37.5126 6.57874C37.5126 6.57874 37.3502 6.46774 37.1431 6.40147C36.9361 6.3352 36.5086 6.28716 36.5086 6.28716C36.5086 6.28716 36.6925 6.19935 36.8764 6.20101C37.0603 6.20101 37.438 6.3352 37.438 6.3352C37.438 6.3352 37.0702 5.97569 36.8052 5.80174C36.5401 5.62778 36.0315 5.3627 35.4218 5.24507C35.329 5.22685 35.2412 5.22022 35.1567 5.22022C34.6829 5.21857 34.3383 5.46045 34.2356 5.52175ZM34.4145 5.73712C34.4162 5.73547 34.4162 5.73712 34.4162 5.74044C34.4145 5.73878 34.4129 5.73878 34.4145 5.73712ZM34.547 6.03699C34.3797 5.95084 34.4178 5.76694 34.4162 5.74044C34.441 5.74872 34.615 5.75866 34.7276 5.83487C34.8552 5.91936 34.9066 6.02374 34.9066 6.02374C34.9066 6.02374 34.8221 6.07675 34.7078 6.07675C34.658 6.07509 34.6034 6.06515 34.547 6.03699ZM28.7717 6.79743C28.5961 6.8024 28.5116 6.94653 28.5116 6.94653C28.5116 6.94653 28.6193 6.92831 28.7667 6.98133C28.9158 7.03434 29.0103 7.21161 29.0103 7.21161C29.0103 7.21161 28.8877 7.22818 28.8032 7.25137C28.7187 7.27457 28.659 7.37397 28.659 7.37397C28.659 7.37397 28.4685 7.20995 28.2067 7.1586C27.945 7.10724 27.771 7.35243 27.771 7.35243C27.771 7.35243 27.9185 7.33255 28.1421 7.40876C28.3674 7.48497 28.4818 7.7136 28.4818 7.7136C28.4818 7.7136 28.3211 7.71526 28.1521 7.80969C27.9814 7.90412 27.993 8.13772 27.993 8.13772C27.993 8.13772 27.6534 8.03998 27.4861 8.12778C27.3171 8.21393 27.3088 8.46078 27.3088 8.46078C27.3088 8.46078 27.39 8.36469 27.5275 8.35972C27.665 8.35475 27.8472 8.43759 27.8472 8.43759C27.8472 8.43759 27.7545 8.63474 27.8853 8.8584C28.0162 9.08371 28.3559 9.30737 28.3559 9.30737L28.2697 9.71327L28.6508 9.92202C28.6508 9.92202 28.5282 9.89717 28.4785 9.90379C28.4304 9.91042 28.3641 9.96178 28.2217 9.99823C28.0792 10.0347 27.9483 9.92865 27.9483 9.92865C27.9483 9.92865 27.9533 10.1125 28.114 10.1838C28.2747 10.255 28.5315 10.2086 28.5315 10.2086C28.5315 10.2086 28.5431 10.2749 28.5232 10.3345C28.5033 10.3942 28.4702 10.4124 28.4702 10.4124C28.4702 10.4124 28.6806 10.477 28.8959 10.4306C29.1113 10.3842 29.0749 10.2501 29.0749 10.2501C29.0749 10.2501 29.1262 10.2749 29.1809 10.3577C29.2372 10.4406 29.3151 10.8216 29.4046 10.974C29.494 11.1281 29.8237 11.1994 29.8237 11.1994C29.8237 11.1994 29.7508 11.1215 29.6663 11.0337C29.5802 10.9442 29.5404 10.7305 29.5404 10.7305C29.5404 10.7305 29.8403 10.9558 30.1136 11.3518C30.387 11.7477 30.6935 11.6864 30.6935 11.6864C30.6935 11.6864 30.5709 11.5754 30.5328 11.4876C30.4947 11.4015 30.5427 11.307 30.5427 11.307C30.5427 11.307 30.6736 11.4114 30.7714 11.5672C30.8691 11.7212 30.9536 11.7842 30.9536 11.7842C30.9536 11.7842 31.0132 11.7643 31.1706 11.6914C31.328 11.6185 31.5732 11.3783 31.5732 11.3783C31.5732 11.3783 31.3462 11.2789 31.2286 10.9774C31.111 10.6758 31.3247 10.2318 31.3247 10.2318C31.3247 10.2318 31.106 10.1656 30.8989 9.96509C30.6902 9.76629 30.6272 9.59399 30.1998 9.3753C29.7724 9.15661 29.5818 8.90479 29.4625 8.61983C29.3433 8.33322 29.6166 7.45515 29.6166 7.45515C29.6166 7.45515 29.5669 7.1354 29.4609 7.02606C29.3549 6.91837 29.1312 6.91506 29.1312 6.91506C29.1312 6.91506 28.9556 6.79743 28.7833 6.79743C28.78 6.79743 28.7767 6.79743 28.7717 6.79743Z" fill="url(#paint2_linear)"/>
<path d="M26.7949 11.98H13.5759C13.5858 12.0247 13.5974 12.0711 13.6057 12.1109C13.6306 12.2451 13.5676 12.3163 13.5676 12.3163C14.0431 12.3759 14.2286 12.7454 14.1309 13.2093C14.0928 13.1894 13.6306 12.9309 13.5991 13.0221C13.5113 13.2822 13.387 13.4793 13.1949 13.6765C13.5792 13.9697 13.397 14.6026 12.9977 14.7732C12.9977 14.6059 12.9265 14.4535 12.8436 14.311C12.5404 14.5231 12.2621 14.3971 11.9805 14.2381C12.3797 18.2871 16.2399 23.2507 20.3022 23.5423C24.3479 23.2507 27.89 18.312 28.3125 14.2812C28.0507 14.422 27.7939 14.4966 27.5289 14.311C27.446 14.4535 27.3764 14.6042 27.3764 14.7732C26.9623 14.5976 26.7999 13.9647 27.1776 13.6765C26.9855 13.4777 26.8612 13.2822 26.7751 13.0221C26.5729 13.0055 26.4122 13.1198 26.2432 13.2093C26.1455 12.747 26.331 12.3759 26.8065 12.3163C26.7254 12.2301 26.7701 12.0827 26.7949 11.98ZM20.448 13.5953C21.0743 13.0502 21.7171 12.9044 22.5139 13.2441C23.0921 13.4893 24.1872 14.2265 24.7439 13.5837V18.7858C24.7439 18.7842 24.6859 18.8488 24.5815 18.915C24.4556 18.9946 24.2601 19.0741 24.0199 19.0327C23.5809 18.9565 22.9546 18.6268 22.5156 18.4396C21.7187 18.1016 21.0759 18.2457 20.4497 18.7925L20.448 13.5953ZM17.7823 13.2441C18.5792 12.9061 19.222 13.0502 19.8466 13.5953V18.7925C19.222 18.2474 18.5776 18.1016 17.7823 18.4396C17.3416 18.6268 16.7171 18.9565 16.2764 19.0327C16.0361 19.0741 15.8406 18.9946 15.7147 18.915C15.6104 18.8488 15.5524 18.7842 15.5524 18.7858V13.5837C15.7131 13.7692 15.9202 13.8405 16.1455 13.8405C16.6988 13.8405 17.3715 13.418 17.7823 13.2441Z" fill="url(#paint3_linear)"/>
<path d="M3.20166 25.5751C3.78483 26.2295 4.77058 26.4797 5.19967 27.2881C4.90146 28.2292 3.88258 29.205 3.91405 30.0002C5.73977 29.2083 8.08735 28.9382 10.1947 28.4296C9.1576 27.8017 8.02605 27.2683 7.05355 26.5741C6.93096 25.8882 7.34017 24.6705 6.7686 24.4336C5.6851 24.919 4.17582 24.9803 3.20166 25.5751Z" fill="url(#paint4_radial)"/>
<path d="M37.6006 25.4343C36.3547 25.1095 35.1072 24.7865 33.8895 24.4336V26.7166C32.6983 27.1904 31.5022 27.6609 30.75 28.5738C33.0926 28.8007 35.0674 29.3938 37.0307 30.0002C36.6165 28.9863 35.9157 28.2606 35.6026 27.1457C36.1476 26.4531 37.1466 26.2162 37.6006 25.4343Z" fill="url(#paint5_radial)"/>
<path d="M7.76953 26.4315C8.50512 27.3129 9.70625 27.7288 10.7666 28.2871V26.0024C9.65986 26.0389 8.81161 26.3321 7.76953 26.4315Z" fill="url(#paint6_radial)"/>
<path d="M30.1781 28.289C31.0462 27.5866 32.3898 27.3613 33.0326 26.4335C31.9905 26.3341 31.1423 26.0408 30.0356 26.0044C30.1284 26.7201 29.8484 27.8086 30.1781 28.289Z" fill="url(#paint7_radial)"/>
<path d="M7.48251 26.2889C15.2956 24.609 26.3295 24.7316 33.46 26.2889V21.7213C33.1983 21.5291 32.9796 21.5043 32.6963 21.4396C32.4842 21.4015 32.4063 21.3767 31.747 21.2939C28.0127 20.82 23.9752 20.54 19.9958 20.54C15.5359 20.54 11.1455 20.8929 7.34003 21.7229C7.43447 23.1974 7.15117 25.0513 7.48251 26.2889Z" fill="url(#paint8_radial)"/>
<path d="M10.4796 22.2912C10.5078 22.4735 10.5359 22.6557 10.5641 22.8379C10.5376 22.8412 10.5127 22.8446 10.4862 22.8462C10.4564 22.7286 10.41 22.6342 10.3454 22.5629C10.2824 22.49 10.2195 22.4486 10.1582 22.437C10.0969 22.4238 9.99583 22.4271 9.855 22.4453C9.70756 22.4652 9.56011 22.4834 9.41266 22.5033C9.45408 22.8131 9.49549 23.1229 9.53691 23.4327C9.60649 23.4228 9.67773 23.4145 9.74732 23.4045C9.88317 23.3863 9.96932 23.3532 10.0074 23.3018C10.0472 23.2521 10.0571 23.1577 10.0406 23.0235C10.0687 23.0202 10.0952 23.0152 10.1234 23.0135C10.1565 23.272 10.188 23.5304 10.2211 23.7872C10.193 23.7906 10.1665 23.7939 10.1383 23.7972C10.1267 23.7027 10.1085 23.6298 10.082 23.5785C10.0571 23.5271 10.0223 23.4923 9.98257 23.4774C9.94115 23.4625 9.8666 23.4625 9.75726 23.4758C9.68767 23.4857 9.61643 23.494 9.54851 23.5039C9.57336 23.6862 9.59655 23.8668 9.6214 24.049C9.6446 24.2213 9.66448 24.334 9.67939 24.3853C9.6943 24.4367 9.72247 24.4748 9.76057 24.4947C9.79867 24.5162 9.86991 24.5195 9.97097 24.5063C9.99583 24.5029 10.0207 24.4996 10.0455 24.4963C10.0488 24.5212 10.0522 24.546 10.0555 24.5709C9.71252 24.6156 9.37124 24.662 9.02995 24.71C9.02664 24.6852 9.02333 24.6603 9.02001 24.6355C9.04321 24.6322 9.0664 24.6289 9.08794 24.6255C9.18237 24.6123 9.24698 24.5924 9.28012 24.5626C9.31325 24.5344 9.33148 24.4947 9.33479 24.4416C9.3381 24.3903 9.32651 24.2727 9.30166 24.0888C9.25195 23.7309 9.20225 23.3714 9.15421 23.0135C9.12936 22.8396 9.10948 22.7269 9.09125 22.6789C9.07303 22.6292 9.04652 22.5977 9.01007 22.5828C8.97362 22.5679 8.89741 22.5679 8.7831 22.5845C8.76985 22.5861 8.75659 22.5878 8.74334 22.5894C8.74002 22.5646 8.73671 22.5397 8.7334 22.5149C9.31325 22.4387 9.89642 22.3625 10.4796 22.2912ZM30.4664 23.5023C30.41 23.9496 30.41 24.2395 30.4713 24.3704C30.531 24.5013 30.6287 24.5758 30.7629 24.5941C30.9203 24.6156 31.0412 24.5576 31.1241 24.4218C31.2069 24.2859 31.2765 24.0175 31.3328 23.6183C31.3941 23.1693 31.3958 22.8794 31.3361 22.7485C31.2748 22.6176 31.1771 22.5414 31.0396 22.5232C30.9021 22.5049 30.7878 22.5513 30.6933 22.6607C30.5989 22.7717 30.5244 23.0517 30.4664 23.5023ZM30.193 23.4675C30.2344 23.1295 30.3338 22.8678 30.4912 22.6822C30.6486 22.4966 30.8358 22.4171 31.0479 22.4469C31.2616 22.4751 31.4206 22.601 31.525 22.823C31.6277 23.045 31.6559 23.3234 31.6078 23.658C31.5598 23.991 31.4571 24.2495 31.3014 24.4367C31.1456 24.6239 30.9634 24.7018 30.753 24.6736C30.5459 24.6454 30.3902 24.5228 30.2874 24.3025C30.1831 24.0805 30.1516 23.8038 30.193 23.4675ZM29.6678 23.0053C29.6811 22.9009 29.6778 22.7949 29.6595 22.6888C29.6413 22.5811 29.5999 22.495 29.5353 22.4271C29.4707 22.3591 29.3945 22.321 29.3067 22.3111C29.1675 22.2945 29.0565 22.3376 28.9753 22.4387C28.8941 22.5381 28.8428 22.6971 28.8196 22.9125C28.8047 23.0483 28.8063 23.156 28.8262 23.2355C28.8444 23.3151 28.8842 23.383 28.9488 23.4426C29.0118 23.5006 29.0863 23.5338 29.1708 23.5437C29.2851 23.557 29.3911 23.5255 29.4856 23.4509C29.58 23.3747 29.6413 23.2273 29.6678 23.0053ZM29.6098 23.4344C29.5336 23.5073 29.4541 23.5586 29.3746 23.5901C29.2934 23.6216 29.2122 23.6332 29.1294 23.6232C28.9521 23.6033 28.8063 23.5205 28.6904 23.3747C28.576 23.2289 28.5263 23.0566 28.5479 22.8578C28.5678 22.6689 28.6473 22.5116 28.7881 22.3873C28.9306 22.2614 29.0996 22.2084 29.2984 22.2316C29.4657 22.2498 29.6016 22.3177 29.7043 22.4337C29.807 22.5497 29.8716 22.6872 29.8998 22.8462C29.9279 23.0053 29.9312 23.1693 29.9114 23.335C29.8699 23.6779 29.7589 23.9546 29.58 24.1699C29.4011 24.3853 29.1841 24.4781 28.9306 24.4499C28.8113 24.4367 28.7086 24.3986 28.6224 24.3389C28.5363 24.2776 28.4982 24.2147 28.5031 24.1501C28.5098 24.0888 28.5446 24.0623 28.6075 24.0689C28.6605 24.0739 28.7036 24.1153 28.7334 24.1915C28.7748 24.2992 28.8577 24.3588 28.9836 24.3737C29.1542 24.3919 29.2934 24.3306 29.3961 24.1898C29.5005 24.0473 29.5701 23.8253 29.6065 23.5222C29.6049 23.4973 29.6082 23.4691 29.6098 23.4344ZM27.968 22.823C27.978 22.717 27.973 22.6126 27.9531 22.5066C27.9332 22.4006 27.8902 22.3144 27.8239 22.2481C27.7576 22.1819 27.6814 22.1438 27.5936 22.1371C27.4528 22.1239 27.3434 22.1686 27.2656 22.2713C27.186 22.374 27.138 22.5331 27.1198 22.7501C27.1082 22.886 27.1131 22.9953 27.133 23.0732C27.1529 23.1511 27.1943 23.219 27.2589 23.277C27.3235 23.3333 27.3981 23.3664 27.4826 23.3747C27.5969 23.3847 27.7013 23.3515 27.7957 23.2753C27.8885 23.1958 27.9465 23.045 27.968 22.823ZM27.9183 23.2554C27.8438 23.33 27.7659 23.383 27.6864 23.4161C27.6069 23.4493 27.5257 23.4625 27.4412 23.4542C27.2623 23.4377 27.1148 23.3581 26.9972 23.2157C26.8795 23.0715 26.8282 22.9009 26.8431 22.7021C26.858 22.5132 26.9359 22.3542 27.075 22.2249C27.2142 22.0974 27.3832 22.041 27.5803 22.0593C27.7477 22.0742 27.8852 22.1388 27.9896 22.2531C28.0939 22.3674 28.1619 22.5033 28.1933 22.6623C28.2232 22.8197 28.2314 22.9837 28.2149 23.1511C28.1801 23.494 28.0757 23.774 27.9001 23.9927C27.7245 24.2114 27.5108 24.3075 27.2573 24.2859C27.138 24.276 27.0353 24.2395 26.9475 24.1799C26.8597 24.1202 26.8199 24.0573 26.8249 23.9943C26.8298 23.933 26.8646 23.9065 26.9276 23.9115C26.9806 23.9165 27.0237 23.9562 27.0552 24.0324C27.0982 24.1385 27.1827 24.1981 27.3086 24.208C27.4809 24.223 27.6168 24.16 27.7162 24.0159C27.8173 23.8717 27.8819 23.6481 27.91 23.3449C27.915 23.3184 27.9167 23.2886 27.9183 23.2554ZM25.9584 21.9284C25.9833 21.93 26.0081 21.9317 26.033 21.9334C25.9915 22.5099 25.9518 23.0848 25.9104 23.6613C25.9004 23.8038 25.8955 23.8933 25.8971 23.9297C25.8971 23.9678 25.912 23.996 25.9385 24.0175C25.9634 24.0391 26.0114 24.0523 26.0827 24.0573C26.1042 24.0589 26.1257 24.0606 26.1456 24.0623L26.1406 24.1368C25.8954 24.1186 25.6503 24.102 25.4051 24.0855C25.4067 24.0606 25.4084 24.0357 25.41 24.0109C25.4283 24.0126 25.4465 24.0142 25.4647 24.0142C25.5442 24.0192 25.5956 24.0109 25.6204 23.991C25.6453 23.9711 25.6619 23.9446 25.6668 23.9148C25.6718 23.8833 25.6801 23.7939 25.69 23.6464C25.7165 23.2604 25.743 22.8727 25.7695 22.4867C25.7795 22.3409 25.7828 22.2515 25.7828 22.22C25.7828 22.1885 25.7695 22.162 25.7463 22.1355C25.7231 22.1106 25.6718 22.0957 25.5923 22.0891C25.5674 22.0874 25.5442 22.0858 25.5194 22.0841C25.521 22.0593 25.5227 22.0344 25.5243 22.0096C25.7149 22.0212 25.8607 21.9947 25.9584 21.9284ZM22.7957 22.5695C22.8106 22.5695 22.8255 22.5712 22.8404 22.5712C22.8636 22.6391 22.8752 22.7319 22.8736 22.8479C22.9564 22.7584 23.0426 22.6921 23.132 22.6491C23.2215 22.606 23.3143 22.5878 23.4087 22.5911C23.518 22.5961 23.6059 22.6209 23.6738 22.6689C23.74 22.717 23.7831 22.7733 23.7997 22.8379C23.8163 22.9042 23.8229 22.9986 23.8179 23.1212C23.8113 23.2604 23.8047 23.3996 23.7997 23.5387C23.7931 23.6928 23.7914 23.7872 23.7947 23.8204C23.798 23.8535 23.8146 23.88 23.8428 23.8982C23.8709 23.9165 23.9239 23.9264 24.0018 23.9314C24.0018 23.9562 24.0002 23.9811 23.9985 24.0059C23.7699 23.996 23.5412 23.986 23.3126 23.9761C23.3143 23.9513 23.3143 23.9264 23.3159 23.9016C23.3259 23.9016 23.3358 23.9016 23.3457 23.9032C23.4253 23.9065 23.4766 23.8966 23.5015 23.875C23.5263 23.8535 23.5412 23.827 23.5462 23.7972C23.5512 23.7674 23.5561 23.6779 23.5611 23.5288C23.5677 23.3847 23.5727 23.2422 23.5793 23.098C23.5843 22.9937 23.581 22.9175 23.5727 22.8711C23.5644 22.8247 23.5379 22.7849 23.4932 22.7485C23.4485 22.712 23.3905 22.6921 23.3192 22.6888C23.2381 22.6855 23.1602 22.7071 23.084 22.7501C23.0094 22.7949 22.9365 22.8644 22.8686 22.9556C22.862 23.1378 22.857 23.3184 22.8504 23.5006C22.8454 23.6547 22.8454 23.7491 22.8504 23.7839C22.8554 23.8171 22.8719 23.8436 22.9001 23.8618C22.9282 23.88 22.9813 23.89 23.0608 23.8916C23.0608 23.9165 23.0591 23.9413 23.0575 23.9662C22.8322 23.9579 22.6052 23.9513 22.3799 23.9446L22.3815 23.8701C22.4577 23.8734 22.5091 23.8668 22.5406 23.8519C22.5704 23.8369 22.5886 23.8154 22.5969 23.7839C22.6052 23.7541 22.6118 23.6564 22.6151 23.494C22.6201 23.3615 22.6234 23.2289 22.6267 23.0947C22.6317 22.939 22.6317 22.8446 22.6267 22.8114C22.6218 22.7783 22.6052 22.7518 22.5754 22.7352C22.5472 22.717 22.4925 22.7071 22.4114 22.7054C22.4114 22.6805 22.413 22.6557 22.413 22.6308C22.5406 22.6242 22.6665 22.6027 22.7957 22.5695ZM21.7139 21.8605C21.7139 21.8141 21.7321 21.7743 21.7685 21.7412C21.8033 21.708 21.8447 21.6915 21.8928 21.6931C21.9408 21.6931 21.9823 21.7114 22.0154 21.7461C22.0485 21.7809 22.0634 21.8207 22.0634 21.8671C22.0618 21.9151 22.0452 21.9566 22.0104 21.988C21.9756 22.0212 21.9359 22.0377 21.8878 22.0361C21.8398 22.0361 21.7984 22.0179 21.7652 21.9831C21.7288 21.9499 21.7122 21.9085 21.7139 21.8605ZM22.022 22.5497C22.0154 22.8595 22.0088 23.1709 22.0021 23.4807C21.9988 23.6232 21.9988 23.7127 22.0021 23.7508C22.0055 23.7872 22.0204 23.8171 22.0485 23.8369C22.075 23.8568 22.1231 23.8684 22.1943 23.8701C22.2059 23.8701 22.2175 23.8701 22.2291 23.8701L22.2275 23.9446C21.9872 23.938 21.7453 23.933 21.5051 23.9297C21.5051 23.9049 21.5051 23.88 21.5068 23.8552C21.525 23.8552 21.5432 23.8552 21.5631 23.8552C21.6393 23.8568 21.6907 23.8452 21.7155 23.8253C21.7387 23.8038 21.7536 23.7773 21.7586 23.7458C21.7636 23.716 21.7669 23.6249 21.7685 23.4758C21.7719 23.3416 21.7735 23.2057 21.7768 23.0715C21.7801 22.9141 21.7735 22.8181 21.7603 22.7833C21.7453 22.7485 21.7271 22.7253 21.7023 22.717C21.6774 22.7071 21.6343 22.7021 21.5714 22.7021C21.5565 22.7021 21.5416 22.7021 21.5267 22.7021C21.5267 22.6772 21.5267 22.6524 21.5283 22.6275C21.7255 22.611 21.8795 22.5861 21.9889 22.5497C21.9972 22.5497 22.0104 22.5497 22.022 22.5497ZM20.1234 22.8197C20.0505 22.7584 19.9776 22.712 19.9031 22.6805C19.8285 22.6491 19.7556 22.6342 19.6811 22.6358C19.5551 22.6358 19.4508 22.6839 19.3696 22.7799C19.2868 22.876 19.247 23.0301 19.2503 23.2455C19.2536 23.4625 19.2984 23.6232 19.3828 23.7259C19.469 23.8287 19.5734 23.88 19.6993 23.8784C19.7821 23.8784 19.8583 23.8585 19.9296 23.8187C20.0008 23.779 20.0654 23.721 20.1267 23.6414C20.1251 23.3681 20.1251 23.0931 20.1234 22.8197ZM20.1234 22.7253C20.1234 22.5513 20.1234 22.3774 20.1234 22.2034C20.1234 22.0609 20.1201 21.9715 20.1168 21.935C20.1135 21.8969 20.0969 21.8687 20.0687 21.8505C20.0406 21.8306 19.9909 21.8224 19.9196 21.8224H19.8848C19.8848 21.7975 19.8848 21.7727 19.8848 21.7478C20.0207 21.7445 20.1681 21.7213 20.3305 21.6782H20.3653C20.3653 22.278 20.3636 22.876 20.3636 23.4758C20.3636 23.6315 20.3653 23.7259 20.3719 23.7607C20.3769 23.7939 20.3951 23.8187 20.4233 23.8353C20.4514 23.8519 20.5061 23.8601 20.584 23.8601C20.584 23.885 20.584 23.9098 20.584 23.9347C20.4266 23.938 20.2858 23.9513 20.1615 23.9761C20.1483 23.9247 20.1416 23.8452 20.1416 23.7342C20.0605 23.8154 19.9776 23.875 19.8931 23.9165C19.807 23.9579 19.7192 23.9778 19.6264 23.9778C19.4524 23.9794 19.3017 23.9115 19.1741 23.774C19.0465 23.6365 18.9803 23.4691 18.977 23.2703C18.9736 23.0533 19.0349 22.876 19.1642 22.7385C19.2934 22.6027 19.4491 22.5331 19.6297 22.5314C19.7208 22.5314 19.8086 22.5463 19.8915 22.5795C19.9726 22.6126 20.0505 22.6607 20.1234 22.7253ZM18.4302 22.992C18.4335 22.9672 18.4352 22.944 18.4335 22.9241C18.4302 22.828 18.4004 22.7551 18.3424 22.7037C18.2844 22.6524 18.2132 22.6275 18.1304 22.6292C17.9282 22.6342 17.8123 22.7617 17.7808 23.0086C17.9978 23.0019 18.2149 22.9953 18.4302 22.992ZM18.7218 23.05C18.407 23.0566 18.0906 23.0632 17.7758 23.0732C17.7742 23.1378 17.7725 23.1858 17.7742 23.2173C17.7825 23.4509 17.8239 23.6265 17.9017 23.7425C17.9779 23.8585 18.0906 23.9148 18.2364 23.9115C18.4352 23.9065 18.5744 23.8154 18.6539 23.6365L18.7334 23.6348C18.7003 23.7458 18.6324 23.8336 18.5313 23.8999C18.4286 23.9645 18.3176 23.9993 18.195 24.0026C18.0807 24.0059 17.973 23.9811 17.8703 23.9264C17.7675 23.8734 17.6814 23.7939 17.6151 23.6911C17.5472 23.5884 17.5091 23.4642 17.5041 23.3151C17.4958 23.1047 17.5538 22.9257 17.6764 22.7833C17.7974 22.6391 17.9547 22.5646 18.1436 22.5596C18.3225 22.5546 18.4617 22.606 18.5611 22.7104C18.6605 22.8114 18.7135 22.9257 18.7218 23.05ZM16.8663 22.8909C16.7901 22.833 16.7155 22.7899 16.641 22.7617C16.5664 22.7336 16.4902 22.722 16.4156 22.7253C16.2914 22.7319 16.1887 22.7849 16.1092 22.8827C16.0313 22.9821 15.9965 23.1378 16.0081 23.3515C16.0197 23.5686 16.071 23.7276 16.1605 23.8253C16.25 23.9247 16.3577 23.9711 16.4819 23.9645C16.5648 23.9595 16.641 23.938 16.7105 23.8949C16.7801 23.8519 16.8431 23.7906 16.8994 23.711C16.8895 23.4377 16.8779 23.1643 16.8663 22.8909ZM16.863 22.7965C16.8547 22.6226 16.8481 22.4486 16.8414 22.2746C16.8348 22.1322 16.8298 22.0427 16.8232 22.0063C16.8182 21.9698 16.8 21.9416 16.7718 21.9234C16.7437 21.9052 16.6923 21.8969 16.6211 21.9002C16.6095 21.9002 16.5979 21.9019 16.5863 21.9019C16.5846 21.877 16.583 21.8522 16.583 21.8273C16.7188 21.8174 16.8663 21.7892 17.0253 21.7395C17.0369 21.7395 17.0485 21.7395 17.0618 21.7379C17.085 22.3359 17.1082 22.9357 17.1314 23.5338C17.138 23.6895 17.1446 23.7839 17.1512 23.8171C17.1579 23.8519 17.1761 23.875 17.2059 23.89C17.2357 23.9049 17.2904 23.9115 17.3683 23.9082C17.3683 23.933 17.3699 23.9579 17.3699 23.9827C17.2125 23.991 17.0717 24.0109 16.9491 24.0407C16.9342 23.9894 16.9243 23.9098 16.9193 23.8005C16.8414 23.885 16.7619 23.9479 16.6774 23.9927C16.5929 24.0374 16.5068 24.0606 16.414 24.0656C16.24 24.0739 16.0876 24.0109 15.9534 23.88C15.8192 23.7475 15.7463 23.5835 15.7364 23.3847C15.7248 23.1676 15.7795 22.9887 15.9021 22.8462C16.0247 22.7054 16.1787 22.6292 16.3593 22.6209C16.4504 22.6159 16.5399 22.6275 16.6227 22.6573C16.7072 22.6888 16.7868 22.7336 16.863 22.7965ZM14.2337 22.7534C14.2486 22.7534 14.2636 22.7518 14.2785 22.7501C14.3083 22.8164 14.3298 22.9059 14.3414 23.0218C14.4143 22.9241 14.4922 22.8479 14.5767 22.7965C14.6612 22.7452 14.7506 22.7153 14.8467 22.7087C14.9544 22.7021 15.0455 22.7186 15.1184 22.7584C15.1897 22.7982 15.2377 22.8495 15.2626 22.9141C15.2858 22.9771 15.3023 23.0699 15.3106 23.1941C15.3189 23.3333 15.3272 23.4725 15.3355 23.6116C15.3454 23.7657 15.3537 23.8601 15.3603 23.8933C15.3686 23.9264 15.3868 23.9513 15.4166 23.9662C15.4465 23.9811 15.5011 23.986 15.5773 23.9811C15.579 24.0059 15.579 24.0308 15.5823 24.0556C15.3537 24.0689 15.1251 24.0838 14.8981 24.0987C14.8964 24.0739 14.8948 24.049 14.8931 24.0242C14.9031 24.0242 14.913 24.0225 14.9229 24.0225C15.0025 24.0175 15.0522 24.0026 15.0754 23.9778C15.0985 23.9529 15.1101 23.9264 15.1118 23.8949C15.1135 23.8634 15.1085 23.7756 15.0985 23.6265C15.0886 23.4841 15.0803 23.3399 15.0704 23.1958C15.0638 23.0898 15.0538 23.0152 15.0389 22.9705C15.0257 22.9274 14.9958 22.8893 14.9478 22.8562C14.8997 22.8247 14.8401 22.8114 14.7689 22.8147C14.6877 22.8197 14.6131 22.8495 14.5419 22.9009C14.4723 22.9539 14.4077 23.0285 14.3497 23.1279C14.363 23.3084 14.3762 23.4907 14.3895 23.6713C14.4011 23.8253 14.411 23.9198 14.4193 23.9529C14.4276 23.986 14.4475 24.0092 14.4773 24.0242C14.5071 24.0391 14.5618 24.0424 14.6396 24.0374C14.6413 24.0623 14.6429 24.0871 14.6446 24.112C14.4193 24.1285 14.194 24.1451 13.9687 24.1633C13.967 24.1385 13.9653 24.1136 13.9637 24.0888C14.0382 24.0838 14.0913 24.0722 14.1194 24.054C14.1476 24.0357 14.1642 24.0126 14.1691 23.9794C14.1741 23.9479 14.1691 23.8519 14.1575 23.6878C14.1476 23.5553 14.1376 23.4228 14.1261 23.2902C14.1145 23.1345 14.1045 23.0417 14.0962 23.0086C14.0879 22.9754 14.0681 22.9522 14.0382 22.9373C14.0068 22.9224 13.9521 22.9175 13.8726 22.9241C13.8709 22.8992 13.8693 22.8744 13.8659 22.8495C13.9869 22.8346 14.1095 22.7998 14.2337 22.7534ZM13.4766 22.8678C13.5015 23.1593 13.5247 23.4493 13.5495 23.7409C13.5611 23.8866 13.571 23.9761 13.5793 24.0142C13.586 24.0507 13.6042 24.0772 13.634 24.0937C13.6638 24.1103 13.7135 24.1153 13.7864 24.1086C13.7881 24.1335 13.7897 24.1583 13.793 24.1832C13.6274 24.1998 13.5081 24.2263 13.4352 24.266C13.4286 24.266 13.4219 24.2677 13.4153 24.2677C13.3756 24.2114 13.3474 24.1103 13.3325 23.9645C13.2745 24.0739 13.2066 24.1567 13.1254 24.218C13.0442 24.2776 12.9531 24.3124 12.8487 24.3224C12.7592 24.3306 12.6797 24.3174 12.6068 24.2843C12.5339 24.2495 12.4826 24.2047 12.4511 24.1484C12.4196 24.0921 12.3981 24.0059 12.3865 23.8883C12.3716 23.7359 12.3567 23.5868 12.3418 23.4344C12.3268 23.2803 12.3152 23.1875 12.3053 23.1527C12.297 23.1196 12.2771 23.0964 12.2457 23.0831C12.2158 23.0699 12.1612 23.0666 12.0816 23.0748C12.0783 23.05 12.0767 23.0251 12.0734 23.0003C12.2274 22.9854 12.3799 22.9688 12.5339 22.9539C12.5638 23.2604 12.5919 23.5685 12.6217 23.8767C12.63 23.9678 12.6416 24.0341 12.6565 24.0739C12.6714 24.1153 12.7029 24.1484 12.751 24.1733C12.7974 24.1998 12.8504 24.2114 12.91 24.2047C12.9945 24.1965 13.0707 24.1617 13.1436 24.1004C13.2148 24.0391 13.2612 23.9761 13.2844 23.9132C13.306 23.8485 13.3126 23.7607 13.3027 23.6464C13.2944 23.547 13.2844 23.446 13.2778 23.3465C13.2646 23.2008 13.2546 23.1129 13.2496 23.0815C13.243 23.0517 13.2264 23.0251 13.1999 23.0036C13.1734 22.9821 13.1204 22.9754 13.0409 22.9821C13.0293 22.9837 13.0177 22.9854 13.0061 22.9854C13.0044 22.9605 13.0011 22.9357 12.9995 22.9108C13.1585 22.8943 13.3176 22.881 13.4766 22.8678ZM10.7828 23.8171C10.8109 24.0523 10.8689 24.213 10.9567 24.2975C11.0462 24.3837 11.1588 24.4168 11.298 24.4019C11.4405 24.387 11.5449 24.3273 11.6095 24.2246C11.6757 24.1219 11.6956 23.9529 11.6708 23.716C11.6443 23.4824 11.5896 23.32 11.5018 23.2289C11.4156 23.1378 11.298 23.0997 11.1522 23.1163C11.0081 23.1328 10.9021 23.1941 10.8374 23.3035C10.7728 23.4112 10.7546 23.5835 10.7828 23.8171ZM10.5094 23.8419C10.4846 23.6398 10.5326 23.4609 10.6552 23.3068C10.7778 23.1527 10.9418 23.0649 11.1439 23.0417C11.3494 23.0185 11.5283 23.0682 11.6824 23.1908C11.8365 23.3134 11.9226 23.4774 11.9441 23.6796C11.9673 23.9032 11.916 24.0871 11.7901 24.2296C11.6642 24.3721 11.5034 24.4549 11.3063 24.4781C11.1091 24.4996 10.9352 24.4549 10.7811 24.3406C10.627 24.2279 10.5359 24.0623 10.5094 23.8419Z" fill="white"/>
<defs>
<linearGradient id="paint0_linear" x1="13.8481" y1="5.18991" x2="26.4473" y2="5.18991" gradientUnits="userSpaceOnUse">
<stop stop-color="#875F2D"/>
<stop offset="0.2902" stop-color="#CDA038"/>
<stop offset="0.502" stop-color="#CDA038"/>
<stop offset="0.7608" stop-color="#CDA038"/>
<stop offset="1" stop-color="#875F2D"/>
</linearGradient>
<linearGradient id="paint1_linear" x1="-0.268345" y1="13.0921" x2="13.9648" y2="13.0921" gradientUnits="userSpaceOnUse">
<stop stop-color="#875F2D"/>
<stop offset="0.2902" stop-color="#CDA038"/>
<stop offset="0.502" stop-color="#CDA038"/>
<stop offset="0.7608" stop-color="#CDA038"/>
<stop offset="1" stop-color="#875F2D"/>
</linearGradient>
<linearGradient id="paint2_linear" x1="26.4168" y1="13.0919" x2="40.6488" y2="13.0919" gradientUnits="userSpaceOnUse">
<stop stop-color="#875F2D"/>
<stop offset="0.2902" stop-color="#CDA038"/>
<stop offset="0.502" stop-color="#CDA038"/>
<stop offset="0.7608" stop-color="#CDA038"/>
<stop offset="1" stop-color="#875F2D"/>
</linearGradient>
<linearGradient id="paint3_linear" x1="11.9796" y1="17.7629" x2="28.3114" y2="17.7629" gradientUnits="userSpaceOnUse">
<stop stop-color="#875F2D"/>
<stop offset="0.2902" stop-color="#CDA038"/>
<stop offset="0.502" stop-color="#CDA038"/>
<stop offset="0.7608" stop-color="#CDA038"/>
<stop offset="1" stop-color="#875F2D"/>
</linearGradient>
<radialGradient id="paint4_radial" cx="0" cy="0" r="1" gradientUnits="userSpaceOnUse" gradientTransform="translate(6.6987 27.2168) scale(1.50728)">
<stop stop-color="#375C3F"/>
<stop offset="1" stop-color="#273C2E"/>
</radialGradient>
<radialGradient id="paint5_radial" cx="0" cy="0" r="1" gradientUnits="userSpaceOnUse" gradientTransform="translate(34.1749 27.2167) scale(1.47648)">
<stop stop-color="#375C3F"/>
<stop offset="1" stop-color="#273C2E"/>
</radialGradient>
<radialGradient id="paint6_radial" cx="0" cy="0" r="1" gradientUnits="userSpaceOnUse" gradientTransform="translate(9.26771 27.1457) scale(0.645992)">
<stop stop-color="#375C3F"/>
<stop offset="1" stop-color="#273C2E"/>
</radialGradient>
<radialGradient id="paint7_radial" cx="0" cy="0" r="1" gradientUnits="userSpaceOnUse" gradientTransform="translate(31.4087 27.146) scale(0.686181)">
<stop stop-color="#375C3F"/>
<stop offset="1" stop-color="#273C2E"/>
</radialGradient>
<radialGradient id="paint8_radial" cx="0" cy="0" r="1" gradientUnits="userSpaceOnUse" gradientTransform="translate(20.3061 23.4136) scale(5.6699)">
<stop stop-color="#375C3F"/>
<stop offset="1" stop-color="#273C2E"/>
</radialGradient>
</defs>
</svg>
