<svg width="39" height="39" viewBox="0 0 39 39" fill="none" xmlns="http://www.w3.org/2000/svg">
<mask id="mask0" mask-type="alpha" maskUnits="userSpaceOnUse" x="0" y="0" width="39" height="39">
<circle cx="19.5" cy="19.5" r="19.5" fill="#C4C4C4"/>
</mask>
<g mask="url(#mask0)">
<path d="M27.712 26.82L24.6108 26.4531L24.3477 27.0415C24.2992 27.1523 24.2508 27.2631 24.1954 27.3669H14.6216C14.5663 27.2631 14.5178 27.1523 14.4693 27.0415L14.1994 26.4531L11.0981 26.82C8.75138 27.1315 7 29.1321 7 31.4996L7 39H31.8101V31.4996C31.8101 29.1321 30.0587 27.1315 27.712 26.82Z" fill="#E7E7F7"/>
<path fill-rule="evenodd" clip-rule="evenodd" d="M27.8295 25.827L27.8436 25.8287C30.6878 26.2063 32.8101 28.6311 32.8101 31.4996V39C32.8101 39.5523 32.3624 40 31.8101 40H7C6.73478 40 6.48043 39.8947 6.29289 39.7071C6.10536 39.5196 6 39.2653 6 39V31.4996C6 28.6311 8.12235 26.2063 10.9665 25.8287L10.9806 25.827L14.0819 25.4601C14.5127 25.4091 14.9273 25.6418 15.1083 26.0361L15.26 26.3669H23.5539L23.6978 26.045C23.8764 25.6457 24.2938 25.4087 24.7282 25.4601L27.8295 25.827ZM24.1954 27.3669H14.6216C14.5663 27.2631 14.5178 27.1523 14.4693 27.0416L14.1994 26.4532L11.0981 26.8201C8.75138 27.1316 7 29.1322 7 31.4996V39H31.8101V31.4996C31.8101 29.1322 30.0587 27.1316 27.712 26.8201L24.6108 26.4532L24.3477 27.0416C24.2993 27.1523 24.2508 27.2631 24.1954 27.3669Z" fill="black"/>
<path d="M19.4046 30.323C21.5505 30.323 23.4957 29.0424 24.3403 27.0695L24.6033 26.4811L23.3919 26.3426C22.7966 26.2734 22.3466 25.7611 22.3535 25.1589V22.0576H16.4487V25.1381C16.4556 25.7404 16.0056 26.2457 15.4103 26.3219L14.2266 26.4603L14.4896 27.0487C15.3342 29.0216 17.2655 30.3092 19.4046 30.323Z" fill="url(#paint0_linear)"/>
<path fill-rule="evenodd" clip-rule="evenodd" d="M19.3981 31.323C16.8618 31.3066 14.5755 29.7822 13.5736 27.4499L13.3136 26.8684C13.1837 26.5778 13.1999 26.2428 13.3572 25.9661C13.5146 25.6893 13.7942 25.5041 14.1104 25.4671L15.2866 25.3295C15.3877 25.3151 15.4497 25.2323 15.4487 25.1496L15.4486 25.1381L15.4487 22.0576C15.4487 21.5053 15.8964 21.0576 16.4487 21.0576H22.3535C22.9058 21.0576 23.3535 21.5053 23.3535 22.0576V25.1704C23.3525 25.2632 23.423 25.3392 23.5069 25.3493C23.5071 25.3493 23.5067 25.3492 23.5069 25.3493L24.7169 25.4875C25.0336 25.5237 25.3141 25.7088 25.472 25.9857C25.6299 26.2626 25.6464 26.5982 25.5163 26.8892L25.2563 27.4707C24.2522 29.8079 21.9471 31.323 19.4046 31.323L19.3981 31.323ZM24.6033 26.4811L24.3403 27.0695C24.2865 27.195 24.2283 27.3178 24.1659 27.4376C23.2473 29.2002 21.414 30.323 19.4046 30.323C17.4013 30.3101 15.5802 29.18 14.6634 27.416C14.6012 27.2965 14.5432 27.174 14.4896 27.0487L14.2266 26.4603L15.4103 26.3219C16.0056 26.2457 16.4556 25.7404 16.4487 25.1381V22.0576H22.3535V25.1589C22.3466 25.7611 22.7966 26.2734 23.3919 26.3426L24.6033 26.4811Z" fill="black"/>
<path d="M11.728 35.0444H7V38.0003H11.728V35.0444Z" fill="url(#paint1_linear)"/>
<path fill-rule="evenodd" clip-rule="evenodd" d="M6 35.0444C6 34.4921 6.44772 34.0444 7 34.0444H11.728C12.2803 34.0444 12.728 34.4921 12.728 35.0444V38.0003C12.728 38.5526 12.2803 39.0003 11.728 39.0003H7C6.44772 39.0003 6 38.5526 6 38.0003V35.0444ZM11.728 35.0444V38.0003H7V35.0444H11.728Z" fill="black"/>
<path d="M31.8101 35.0444H27.082V38.0003H31.8101V35.0444Z" fill="url(#paint2_linear)"/>
<path fill-rule="evenodd" clip-rule="evenodd" d="M26.082 35.0444C26.082 34.4921 26.5297 34.0444 27.082 34.0444H31.8101C32.3624 34.0444 32.8101 34.4921 32.8101 35.0444V38.0003C32.8101 38.5526 32.3624 39.0003 31.8101 39.0003H27.082C26.5297 39.0003 26.082 38.5526 26.082 38.0003V35.0444ZM31.8101 35.0444V38.0003H27.082V35.0444H31.8101Z" fill="black"/>
<path d="M25.7324 17.7308H26.4939C27.47 17.7308 28.266 16.9347 28.266 15.9587C28.266 14.9826 27.47 14.1865 26.4939 14.1865H25.9055" fill="#FFB291"/>
<path fill-rule="evenodd" clip-rule="evenodd" d="M24.7324 17.7308C24.7324 17.1785 25.1801 16.7308 25.7324 16.7308H25.7812L25.7324 17.7308H26.4939C27.47 17.7308 28.266 16.9347 28.266 15.9587C28.266 14.9826 27.47 14.1865 26.4939 14.1865H25.9055L25.8567 15.1854C25.3271 15.1599 24.9055 14.7225 24.9055 14.1865C24.9055 13.6342 25.3532 13.1865 25.9055 13.1865H26.4939C28.0222 13.1865 29.266 14.4303 29.266 15.9587C29.266 17.487 28.0222 18.7308 26.4939 18.7308H25.7324C25.1801 18.7308 24.7324 18.2831 24.7324 17.7308Z" fill="black"/>
<path d="M12.9955 17.7308H12.3171C11.341 17.7308 10.5449 16.9347 10.5449 15.9587C10.5449 14.9826 11.341 14.1865 12.3171 14.1865H12.9055" fill="#FFB291"/>
<path fill-rule="evenodd" clip-rule="evenodd" d="M13.9955 17.7308C13.9955 18.2831 13.5478 18.7308 12.9955 18.7308H12.3171C10.7887 18.7308 9.54492 17.487 9.54492 15.9587C9.54492 14.4303 10.7887 13.1865 12.3171 13.1865H12.9055C13.4578 13.1865 13.9055 13.6342 13.9055 14.1865C13.9055 14.7303 13.4714 15.1727 12.9309 15.1862L12.9055 14.1865H12.3171C11.341 14.1865 10.5449 14.9826 10.5449 15.9587C10.5449 16.9347 11.341 17.7308 12.3171 17.7308H12.9955L12.9701 16.7308H12.9955C13.5478 16.7308 13.9955 17.1785 13.9955 17.7308Z" fill="black"/>
<path d="M12.9053 9.88076V16.554L13.0437 18.3954C13.3483 21.912 16.4357 24.5149 19.9523 24.2103C20.1462 24.1964 20.3331 24.1687 20.52 24.1341C23.4274 23.5734 25.5872 21.109 25.7741 18.1531L25.8987 16.554V11.3137L23.6351 7.93555H16.0065L12.9053 9.88076Z" fill="url(#paint3_linear)"/>
<path fill-rule="evenodd" clip-rule="evenodd" d="M11.9053 9.88076C11.9053 9.53654 12.0823 9.21652 12.3739 9.03361L15.4752 7.0884C15.6344 6.98852 15.8186 6.93555 16.0065 6.93555H23.6351C23.9686 6.93555 24.2802 7.10182 24.4658 7.37888L26.7295 10.757C26.8398 10.9217 26.8987 11.1155 26.8987 11.3137V16.554C26.8987 16.5799 26.8977 16.6059 26.8957 16.6317L26.7717 18.2238C26.5529 21.6289 24.0638 24.4691 20.7094 25.116L20.7021 25.1174L20.7021 25.1174C20.4944 25.1559 20.271 25.1897 20.0313 25.2072C15.9658 25.5553 12.3993 22.5444 12.0475 18.4817L12.0465 18.4704L12.0465 18.4704L11.9081 16.629C11.9062 16.604 11.9053 16.579 11.9053 16.554V9.88076ZM25.7741 18.1531L25.8987 16.554V11.3137L23.6351 7.93555H16.0065L12.9053 9.88076V16.554L13.0437 18.3954C13.3483 21.912 16.4357 24.5149 19.9523 24.2103C20.1462 24.1964 20.3331 24.1687 20.52 24.1341C23.4274 23.5734 25.5872 21.109 25.7741 18.1531Z" fill="black"/>
<path d="M12.532 9.65625C13.0999 9.81293 14.728 8.98031 14.6433 8.27868C14.6433 8.27868 16.7824 8.55558 19.6067 8.40328C22.4934 8.24407 23.3656 7.21262 23.3656 7.21262C23.3656 7.21262 24.2863 9.26859 24.6117 9.62856C24.937 9.98161 25.5324 10.3208 25.5324 10.3208C25.5324 10.3208 25.92 9.87777 25.7124 8.04332C25.4628 5.90151 23.9448 4.88518 22.9918 3.1699C23.1755 3.97681 23.0584 5.16708 22.1058 5.39201C22.1058 5.39201 21.6212 4.95589 21.6489 4.08366C21.6766 3.2322 22.0365 2 22.0365 2C22.0365 2 19.7729 3.30835 18.3261 3.52294C16.8793 3.73754 16.1317 3.77215 15.4602 4.72745C15.1764 5.12896 15.1071 5.53738 15.1071 5.53738C15.1071 5.53738 14.7887 5.25356 14.8233 4.47824C14.8579 3.70293 13.9511 2.72686 13.9511 2.72686C13.9511 2.72686 12.8643 3.64755 12.532 4.42286C11.8234 6.07634 11.8481 7.97199 12.532 9.65625Z" fill="url(#paint4_linear)"/>
<path fill-rule="evenodd" clip-rule="evenodd" d="M12.2661 10.6202C11.9665 10.5376 11.7224 10.3204 11.6054 10.0324C10.8284 8.11857 10.7917 5.94494 11.6128 4.02895C11.855 3.46381 12.3208 2.92984 12.6439 2.59247C12.8187 2.41 12.9808 2.2556 13.0993 2.14661C13.1589 2.09185 13.2082 2.04787 13.2436 2.01681C13.2613 2.00127 13.2755 1.98891 13.2858 1.98L13.2984 1.96925L13.3023 1.96587L13.3045 1.96402C13.3046 1.96393 13.3047 1.96385 13.9511 2.72686C13.9511 2.72686 13.7648 2.88465 13.523 3.12458C13.4322 3.21458 13.3337 3.31613 13.2342 3.42524C12.9583 3.72795 12.6751 4.0889 12.532 4.42287C11.8234 6.07634 11.8481 7.97199 12.532 9.65626C13.0376 9.79575 14.3836 9.15109 14.613 8.51285C14.6413 8.43421 14.6526 8.35566 14.6433 8.27868C14.6433 8.27868 15.0124 8.32646 15.6463 8.37141C16.5386 8.43467 17.9555 8.49232 19.6067 8.40329C21.0108 8.32584 21.9383 8.04204 22.5207 7.77094C23.1356 7.4847 23.3656 7.21262 23.3656 7.21262C23.3656 7.21262 23.5623 7.65172 23.8059 8.15959C24.0895 8.75069 24.4367 9.43495 24.6117 9.62857C24.6416 9.66099 24.6737 9.6933 24.7075 9.72524C24.7119 9.72936 24.7163 9.73349 24.7207 9.7376C25.0541 10.0483 25.5324 10.3208 25.5324 10.3208C25.0373 11.1897 25.0372 11.1896 25.0371 11.1896L25.0354 11.1886L25.0327 11.187L25.0246 11.1823L24.9986 11.1671C24.9772 11.1545 24.9476 11.1369 24.9118 11.1149C24.8405 11.0712 24.7421 11.0091 24.6315 10.9339C24.425 10.7933 24.1183 10.5688 23.8763 10.3062L23.8698 10.2991C23.6947 10.1054 23.5224 9.80022 23.4008 9.57618C23.2582 9.31334 23.105 9.00702 22.9667 8.72164C22.9594 8.70656 22.9521 8.69151 22.9449 8.67651C22.234 9.00784 21.1791 9.31809 19.6618 9.40177L19.6606 9.40184C18.2038 9.48039 16.9251 9.44827 16.0095 9.3965C15.7325 9.38085 15.4882 9.36336 15.2817 9.34652C15.2498 9.38894 15.2182 9.42792 15.1878 9.4633C14.945 9.74618 14.635 9.97657 14.3412 10.1502C14.0425 10.3267 13.7114 10.4736 13.3917 10.5663C13.1145 10.6466 12.6835 10.7354 12.2661 10.6202ZM25.5963 10.2086C25.5599 10.2894 25.5324 10.3208 25.5324 10.3208L25.0371 11.1896C25.4502 11.4249 25.9719 11.3371 26.285 10.9793L25.5324 10.3208C26.285 10.9793 26.2857 10.9785 26.2865 10.9776L26.2879 10.9759L26.291 10.9724L26.297 10.9653L26.3094 10.9504C26.3177 10.9402 26.3261 10.9294 26.3347 10.918C26.3519 10.8953 26.3695 10.8703 26.3873 10.8429C26.423 10.7879 26.4591 10.7238 26.4942 10.6494C26.5644 10.5005 26.6295 10.3121 26.6792 10.0742C26.7777 9.60221 26.8181 8.92121 26.706 7.93083L26.7056 7.92756C26.5531 6.61874 26.0063 5.66683 25.4275 4.86255C25.2133 4.56491 25.013 4.30736 24.8242 4.06468C24.4689 3.60789 24.1546 3.20379 23.866 2.68426C23.6903 2.36804 23.365 2.1807 23.022 2.17022C23.0841 1.81097 22.9455 1.44219 22.654 1.21338C22.3326 0.961113 21.89 0.929741 21.5363 1.13413L21.5324 1.13633L21.5162 1.14561C21.5013 1.15408 21.4784 1.16702 21.4484 1.18385C21.3881 1.21752 21.2992 1.26666 21.1874 1.32664C20.9633 1.4469 20.6504 1.60922 20.2956 1.77735C19.5545 2.12856 18.7435 2.4501 18.1794 2.53377C18.0795 2.54858 17.9791 2.56292 17.8786 2.57727C17.3191 2.65715 16.7564 2.73747 16.278 2.90151C16.0067 2.99456 15.7571 3.11426 15.5253 3.26895C15.4279 3.06819 15.3231 2.8963 15.2378 2.76548C15.1024 2.55792 14.9676 2.38268 14.8673 2.25962C14.8167 2.1975 14.7736 2.14718 14.7419 2.11105C14.726 2.09295 14.7129 2.07831 14.7031 2.06743L14.6908 2.05393L14.6866 2.04933L14.685 2.04759L14.6843 2.04685C14.6841 2.0467 14.6837 2.04621 13.9511 2.72686L14.6843 2.04685C14.3205 1.65529 13.7123 1.61855 13.3045 1.96402L13.9511 2.72686C13.9511 2.72686 14.0231 2.80436 14.1257 2.93302C14.244 3.08119 14.4028 3.29723 14.5392 3.54092C14.6221 3.68913 14.6967 3.84756 14.7488 4.00718C14.7773 4.09462 14.7991 4.18242 14.8118 4.26908C14.8119 4.27005 14.812 4.27101 14.8122 4.27197C14.8222 4.34173 14.8263 4.41075 14.8233 4.47825C14.7887 5.25357 15.1071 5.53739 15.1071 5.53739C15.1071 5.53739 15.1764 5.12896 15.4602 4.72746C15.5143 4.65053 15.5688 4.57957 15.6242 4.514C15.6883 4.43816 15.7535 4.36954 15.8202 4.30725C16.3563 3.80715 16.9954 3.71509 17.9983 3.57065C18.1035 3.5555 18.2126 3.53978 18.3261 3.52295C19.0914 3.40944 20.0852 2.98992 20.8516 2.61987C21.5342 2.29032 22.0365 2 22.0365 2C22.0365 2 21.8533 2.62714 21.7383 3.29576C21.692 3.56435 21.6568 3.83965 21.6489 4.08367C21.6212 4.9559 22.1058 5.39201 22.1058 5.39201C22.469 5.30625 22.7108 5.08013 22.8607 4.78843C23.104 4.31512 23.1055 3.66914 22.9918 3.1699C23.2853 3.6981 23.6323 4.16002 23.9794 4.60893C24.0164 4.65688 24.0535 4.70468 24.0905 4.75239C24.8322 5.7087 25.5478 6.6315 25.7124 8.04332C25.7711 8.56249 25.7822 8.97022 25.7679 9.288C25.7451 9.79404 25.6579 10.072 25.5963 10.2086ZM13.2166 3.40545C13.2165 3.40535 13.2163 3.40511 13.2166 3.40545Z" fill="black"/>
</g>
<defs>
<linearGradient id="paint0_linear" x1="15.9206" y1="21.6289" x2="20.2685" y2="26.9842" gradientUnits="userSpaceOnUse">
<stop stop-color="#FEDAC6"/>
<stop offset="1" stop-color="#FFB291"/>
</linearGradient>
<linearGradient id="paint1_linear" x1="7" y1="36.5232" x2="11.7258" y2="36.5232" gradientUnits="userSpaceOnUse">
<stop stop-color="#FEDAC6"/>
<stop offset="1" stop-color="#FFB291"/>
</linearGradient>
<linearGradient id="paint2_linear" x1="31.3243" y1="36.5232" x2="27.1923" y2="36.5232" gradientUnits="userSpaceOnUse">
<stop stop-color="#FEDAC6"/>
<stop offset="1" stop-color="#FFB291"/>
</linearGradient>
<linearGradient id="paint3_linear" x1="19.4054" y1="19.6306" x2="19.4054" y2="8.91177" gradientUnits="userSpaceOnUse">
<stop stop-color="#FEDAC6"/>
<stop offset="1" stop-color="#FFB291"/>
</linearGradient>
<linearGradient id="paint4_linear" x1="18.8872" y1="4.02755" x2="18.8872" y2="8.48433" gradientUnits="userSpaceOnUse">
<stop stop-color="#CF9344"/>
<stop offset="1" stop-color="#B86E1F"/>
</linearGradient>
</defs>
</svg>
