<svg width="29" height="40" viewBox="0 0 29 40" fill="none" xmlns="http://www.w3.org/2000/svg">
<path d="M23.6709 27.223L20.1266 26.8037L19.826 27.4762C19.7706 27.6028 19.7152 27.7293 19.6519 27.848H8.71044C8.64715 27.7293 8.59177 27.6028 8.53639 27.4762L8.22785 26.8037L4.68354 27.223C2.00158 27.579 0 29.8654 0 32.5711V39.9999H28.3544V32.5711C28.3544 29.8654 26.3529 27.579 23.6709 27.223Z" fill="#E7E7F7"/>
<path d="M14.1775 31.2265C16.63 31.2265 18.8531 29.7629 19.8183 27.5081L20.1189 26.8357L18.7344 26.6774C18.0541 26.5983 17.5398 26.0129 17.5477 25.3246V21.7803H10.7993V25.3008C10.8072 25.9891 10.293 26.5667 9.61261 26.6537L8.25977 26.8119L8.5604 27.4844C9.52559 29.7391 11.7329 31.2107 14.1775 31.2265Z" fill="url(#paint0_linear)"/>
<path d="M5.40348 36.6221H0V40.0002H5.40348V36.6221Z" fill="url(#paint1_linear)"/>
<path d="M28.3547 36.6221H22.9512V40.0002H28.3547V36.6221Z" fill="url(#paint2_linear)"/>
<path d="M21.4082 16.8353H22.2785C23.394 16.8353 24.3038 15.9255 24.3038 14.81C24.3038 13.6945 23.394 12.7847 22.2785 12.7847H21.606" fill="#FFB291"/>
<path d="M6.85141 16.8353H6.0761C4.96059 16.8353 4.05078 15.9255 4.05078 14.81C4.05078 13.6945 4.96059 12.7847 6.0761 12.7847H6.74857" fill="#FFB291"/>
<path d="M6.74805 7.86373V15.4903L6.90627 17.5947C7.25438 21.6137 10.7829 24.5884 14.8018 24.2403C15.0234 24.2245 15.237 24.1928 15.4506 24.1533C18.7734 23.5125 21.2417 20.696 21.4553 17.3178L21.5977 15.4903V9.50139L19.0107 5.64062H10.2924L6.74805 7.86373Z" fill="url(#paint3_linear)"/>
<path d="M6.74862 8.75C6.74862 8.75 7.20748 8.87658 8.45748 8.10918C9.21697 7.63449 9.16159 7.17563 9.16159 7.17563C9.16159 7.17563 11.6062 7.49209 14.8341 7.31804C18.1331 7.13608 19.1299 5.95728 19.1299 5.95728C19.1299 5.95728 20.1822 8.30696 20.554 8.71836C20.9258 9.12184 21.6062 9.50949 21.6062 9.50949C21.6062 9.50949 22.0493 9.00317 21.8119 6.90665C21.5667 4.80222 20.2375 3.18829 19.6284 2.54747C19.0192 1.90665 18.7027 1.33703 18.7027 1.33703C18.7027 1.33703 18.9638 2.48418 18.497 3.31487C18.2597 3.74209 17.6901 3.87658 17.6901 3.87658C17.6901 3.87658 17.1363 3.37816 17.1679 2.38133C17.1996 1.40823 17.611 0 17.611 0C17.611 0 15.0239 1.49525 13.3705 1.74051C11.717 1.98576 10.8625 2.02532 10.0951 3.11709C9.77077 3.57595 9.69165 4.04272 9.69165 4.04272C9.69165 4.04272 9.32773 3.71835 9.36729 2.83228C9.40684 1.9462 8.37045 0.830696 8.37045 0.830696C8.37045 0.830696 7.12836 1.88291 6.74862 2.76899C6.36887 3.65506 6.03659 4.27215 6.17108 5.87817C6.3214 7.69779 6.74862 8.75 6.74862 8.75Z" fill="url(#paint4_linear)"/>
<defs>
<linearGradient id="paint0_linear" x1="10.1958" y1="21.2903" x2="15.1649" y2="27.4107" gradientUnits="userSpaceOnUse">
<stop stop-color="#FEDAC6"/>
<stop offset="1" stop-color="#FFB291"/>
</linearGradient>
<linearGradient id="paint1_linear" x1="0" y1="38.3121" x2="5.40087" y2="38.3121" gradientUnits="userSpaceOnUse">
<stop stop-color="#FEDAC6"/>
<stop offset="1" stop-color="#FFB291"/>
</linearGradient>
<linearGradient id="paint2_linear" x1="27.7995" y1="38.3121" x2="23.0772" y2="38.3121" gradientUnits="userSpaceOnUse">
<stop stop-color="#FEDAC6"/>
<stop offset="1" stop-color="#FFB291"/>
</linearGradient>
<linearGradient id="paint3_linear" x1="14.1768" y1="19.0064" x2="14.1768" y2="6.75631" gradientUnits="userSpaceOnUse">
<stop stop-color="#FEDAC6"/>
<stop offset="1" stop-color="#FFB291"/>
</linearGradient>
<linearGradient id="paint4_linear" x1="14.0117" y1="2.3172" x2="14.0117" y2="7.41067" gradientUnits="userSpaceOnUse">
<stop stop-color="#CF9344"/>
<stop offset="1" stop-color="#B86E1F"/>
</linearGradient>
</defs>
</svg>
