<svg width="1680" height="99" viewBox="0 0 1680 99" fill="none" xmlns="http://www.w3.org/2000/svg">
<path d="M335.557 0H167.229V98.1916H335.557V0Z" fill="white"/>
<path d="M279.949 35.5694L335.557 4.5088V0H331.549L267.925 35.5694H279.949Z" fill="#BD0034"/>
<path d="M276.941 64.6262L335.556 97.1897V90.677L288.965 64.6262H276.941Z" fill="#BD0034"/>
<path d="M167.228 7.51466L216.825 35.5694H228.347L167.228 1.00195V7.51466Z" fill="#BD0034"/>
<path d="M225.842 64.6262L167.228 97.6907V98.1917H177.749L237.365 64.6262H225.842Z" fill="#BD0034"/>
<path d="M324.034 0H264.918V33.0645L324.034 0Z" fill="#1A237B"/>
<path d="M238.868 0H180.254L238.868 33.0645V0Z" fill="#1A237B"/>
<path d="M335.557 35.5692V13.0253L295.479 35.5692H335.557Z" fill="#1A237B"/>
<path d="M335.557 86.6692V64.6262H295.479L335.557 86.6692Z" fill="#1A237B"/>
<path d="M183.759 98.1917H238.867V67.1311L183.759 98.1917Z" fill="#1A237B"/>
<path d="M264.918 98.1917H320.527L264.918 67.1311V98.1917Z" fill="#1A237B"/>
<path d="M167.228 64.6262V87.6712L208.308 64.6262H167.228Z" fill="#1A237B"/>
<path d="M167.228 35.5695H208.308L167.228 12.0236V35.5695Z" fill="#1A237B"/>
<path d="M244.379 0V41.0801H167.229V58.6144H244.379V98.1916H259.909V58.6144H335.557V41.0801H259.909V0H244.379Z" fill="#BD0034"/>
<path d="M1007.77 0H839.441V98.1916H1007.77V0Z" fill="white"/>
<path d="M952.162 35.5694L1007.77 4.5088V0H1003.76L940.139 35.5694H952.162Z" fill="#BD0034"/>
<path d="M949.155 64.6262L1007.77 97.1897V90.677L961.178 64.6262H949.155Z" fill="#BD0034"/>
<path d="M839.441 7.51466L889.038 35.5694H900.561L839.441 1.00195V7.51466Z" fill="#BD0034"/>
<path d="M898.056 64.6262L839.441 97.6907V98.1917H849.962L909.578 64.6262H898.056Z" fill="#BD0034"/>
<path d="M996.247 0H937.132V33.0645L996.247 0Z" fill="#1A237B"/>
<path d="M911.082 0H852.467L911.082 33.0645V0Z" fill="#1A237B"/>
<path d="M1007.77 35.5692V13.0253L967.692 35.5692H1007.77Z" fill="#1A237B"/>
<path d="M1007.77 86.6692V64.6262H967.692L1007.77 86.6692Z" fill="#1A237B"/>
<path d="M855.973 98.1917H911.08V67.1311L855.973 98.1917Z" fill="#1A237B"/>
<path d="M937.132 98.1917H992.74L937.132 67.1311V98.1917Z" fill="#1A237B"/>
<path d="M839.441 64.6262V87.6712L880.522 64.6262H839.441Z" fill="#1A237B"/>
<path d="M839.441 35.5695H880.522L839.441 12.0236V35.5695Z" fill="#1A237B"/>
<path d="M916.592 0V41.0801H839.441V58.6144H916.592V98.1916H932.122V58.6144H1007.77V41.0801H932.122V0H916.592Z" fill="#BD0034"/>
<path d="M1679.98 0H1511.66V98.1916H1679.98V0Z" fill="white"/>
<path d="M1624.38 35.5694L1679.98 4.5088V0H1675.98L1612.35 35.5694H1624.38Z" fill="#BD0034"/>
<path d="M1621.37 64.6262L1679.98 97.1897V90.677L1633.39 64.6262H1621.37Z" fill="#BD0034"/>
<path d="M1511.65 7.51466L1561.25 35.5694H1572.77L1511.65 1.00195V7.51466Z" fill="#BD0034"/>
<path d="M1570.27 64.6262L1511.65 97.6907V98.1917H1522.18L1581.79 64.6262H1570.27Z" fill="#BD0034"/>
<path d="M1668.46 0H1609.35V33.0645L1668.46 0Z" fill="#1A237B"/>
<path d="M1583.3 0H1524.68L1583.3 33.0645V0Z" fill="#1A237B"/>
<path d="M1679.98 35.5692V13.0253L1639.91 35.5692H1679.98Z" fill="#1A237B"/>
<path d="M1679.98 86.6692V64.6262H1639.91L1679.98 86.6692Z" fill="#1A237B"/>
<path d="M1528.19 98.1917H1583.29V67.1311L1528.19 98.1917Z" fill="#1A237B"/>
<path d="M1609.35 98.1917H1664.95L1609.35 67.1311V98.1917Z" fill="#1A237B"/>
<path d="M1511.65 64.6262V87.6712L1552.73 64.6262H1511.65Z" fill="#1A237B"/>
<path d="M1511.65 35.5695H1552.73L1511.65 12.0236V35.5695Z" fill="#1A237B"/>
<path d="M1588.81 0V41.0801H1511.66V58.6144H1588.81V98.1916H1604.34V58.6144H1679.98V41.0801H1604.34V0H1588.81Z" fill="#BD0034"/>
<path d="M375.393 0H335.557V98.8333H375.393V0Z" fill="#EA0020"/>
<path d="M504.986 0H465.15V98.8333H504.986V0Z" fill="#EA0020"/>
<path d="M465.149 0H375.392V98.8333H465.149V0Z" fill="white"/>
<path d="M420.271 12.6063L414.22 24.2041C413.716 25.2126 412.203 25.2126 411.195 24.7084L407.161 22.1871L410.186 39.8359C410.69 42.8614 408.673 42.8614 407.665 41.8529L400.101 33.2806L399.093 37.8189C399.093 38.3232 398.588 38.8274 397.58 38.8274L387.999 36.3062L390.52 45.8869C391.025 47.9039 391.529 48.9124 390.016 49.4167L386.486 50.9295L402.622 64.5442C403.127 65.0485 403.631 66.057 403.127 67.0655L401.614 72.108C407.161 71.6038 412.203 70.5953 417.75 70.091C418.254 70.091 419.263 70.5953 419.263 71.0995L418.758 88.7483H421.28L420.775 71.0995C420.775 70.5953 421.28 70.091 421.784 70.091C427.331 70.5953 432.373 71.6038 437.92 72.108L436.407 67.0655C436.407 66.057 436.407 65.5527 436.911 64.5442L453.048 50.9295L449.518 49.4167C448.005 48.9124 448.509 47.9039 449.014 45.8869L451.535 36.3062L443.467 38.3232C442.458 38.3232 441.954 37.8189 441.954 37.3147L440.946 32.7764L433.382 41.3487C432.373 42.8614 430.356 42.8614 430.86 39.3317L433.886 21.6829L429.852 24.2041C428.339 25.2126 426.827 25.2126 426.322 24.2041L420.271 12.6063Z" fill="#EA0020"/>
<path d="M1047.61 0H1007.77V98.8333H1047.61V0Z" fill="#EA0020"/>
<path d="M1177.2 0H1137.36V98.8333H1177.2V0Z" fill="#EA0020"/>
<path d="M1137.36 0H1047.61V98.8333H1137.36V0Z" fill="white"/>
<path d="M1092.48 12.6063L1086.43 24.2041C1085.93 25.2126 1084.42 25.2126 1083.41 24.7084L1079.37 22.1871L1082.4 39.8359C1082.9 42.8614 1080.89 42.8614 1079.88 41.8529L1072.31 33.2806L1071.31 37.8189C1071.31 38.3232 1070.8 38.8274 1069.79 38.8274L1060.21 36.3062L1062.73 45.8869C1063.24 47.9039 1063.74 48.9124 1062.23 49.4167L1058.7 50.9295L1074.84 64.5442C1075.34 65.0485 1075.84 66.057 1075.34 67.0655L1073.83 72.108C1079.37 71.6038 1084.42 70.5953 1089.96 70.091C1090.47 70.091 1091.48 70.5953 1091.48 71.0995L1090.97 88.7483H1093.49L1092.99 71.0995C1092.99 70.5953 1093.49 70.091 1094 70.091C1099.54 70.5953 1104.59 71.6038 1110.13 72.108L1108.62 67.0655C1108.62 66.057 1108.62 65.5527 1109.12 64.5442L1125.26 50.9295L1121.73 49.4167C1120.22 48.9124 1120.72 47.9039 1121.23 45.8869L1123.75 36.3062L1115.68 38.3232C1114.67 38.3232 1114.17 37.8189 1114.17 37.3147L1113.16 32.7764L1105.6 41.3487C1104.59 42.8614 1102.57 42.8614 1103.07 39.3317L1106.1 21.6829L1102.07 24.2041C1100.55 25.2126 1099.04 25.2126 1098.54 24.2041L1092.48 12.6063Z" fill="#EA0020"/>
<path d="M167.228 90.3591H0V97.8247H167.228V90.3591Z" fill="#CB001C"/>
<path d="M167.228 82.8937H0V90.3592H167.228V82.8937Z" fill="white"/>
<path d="M167.228 75.4281H0V82.8936H167.228V75.4281Z" fill="#CB001C"/>
<path d="M167.228 67.9625H0V75.4281H167.228V67.9625Z" fill="white"/>
<path d="M167.228 60.4969H0V67.9625H167.228V60.4969Z" fill="#CB001C"/>
<path d="M167.228 53.0315H0V60.497H167.228V53.0315Z" fill="white"/>
<path d="M167.228 45.5658H0V53.0313H167.228V45.5658Z" fill="#CB001C"/>
<path d="M167.228 38.1003H0V45.5659H167.228V38.1003Z" fill="white"/>
<path d="M167.228 30.1372H0V37.6028H167.228V30.1372Z" fill="#CB001C"/>
<path d="M167.228 22.6718H0V30.1373H167.228V22.6718Z" fill="white"/>
<path d="M167.228 15.2062H0V22.6717H167.228V15.2062Z" fill="#CB001C"/>
<path d="M167.228 7.7406H0V15.2061H167.228V7.7406Z" fill="white"/>
<path d="M167.228 0.275024H0V7.74057H167.228V0.275024Z" fill="#CB001C"/>
<path d="M76.1486 0.275024H0V52.5338H76.1486V0.275024Z" fill="#2A3560"/>
<path d="M6.96669 6.24756L7.46439 8.23837H9.4552L7.96209 9.23378L8.4598 11.2246L6.96669 10.2292L4.97587 11.2246L5.97128 9.23378L3.98047 8.23837H6.46898L6.96669 6.24756Z" fill="white"/>
<path d="M6.96669 14.7085L7.46439 16.6993H9.4552L7.96209 18.1924L8.4598 20.1832L6.96669 18.6901L4.97587 20.1832L5.97128 18.1924L3.98047 16.6993H6.46898L6.96669 14.7085Z" fill="white"/>
<path d="M6.96669 23.6671L7.46439 25.6579H9.4552L7.96209 26.6533L8.4598 28.6441L6.96669 27.6487L4.97587 28.6441L5.97128 26.6533L3.98047 25.6579H6.46898L6.96669 23.6671Z" fill="white"/>
<path d="M6.96669 32.6257L7.46439 34.6165H9.4552L7.96209 35.612L8.4598 37.6028L6.96669 36.6074L4.97587 37.6028L5.97128 35.612L3.98047 34.6165H6.46898L6.96669 32.6257Z" fill="white"/>
<path d="M6.96669 41.0868L7.46439 43.0776H9.4552L7.96209 44.5707L8.4598 46.5615L6.96669 45.0684L4.97587 46.5615L5.97128 44.5707L3.98047 43.0776H6.46898L6.96669 41.0868Z" fill="white"/>
<path d="M12.9407 10.7267L13.4384 12.7175H15.9269L13.9361 14.2106L14.4338 16.2014L12.9407 14.7083L11.4476 16.2014L11.9453 14.2106L10.4521 12.7175H12.443L12.9407 10.7267Z" fill="white"/>
<path d="M12.9407 19.6855L13.4384 21.6764H15.9269L13.9361 22.6718L14.4338 24.6626L12.9407 23.6672L11.4476 24.6626L11.9453 22.6718L10.4521 21.6764H12.443L12.9407 19.6855Z" fill="white"/>
<path d="M12.9407 28.1464L13.4384 30.1372H15.9269L13.9361 31.6303L14.4338 33.6211L12.9407 32.128L11.4476 33.6211L11.9453 31.6303L10.4521 30.1372H12.443L12.9407 28.1464Z" fill="white"/>
<path d="M12.9407 37.1052L13.4384 39.096H15.9269L13.9361 40.0914L14.4338 42.0823L12.9407 41.0868L11.4476 42.0823L11.9453 40.0914L10.4521 39.096H12.443L12.9407 37.1052Z" fill="white"/>
<path d="M18.9119 6.24756L19.9073 8.23837H21.8981L20.405 9.23378L20.9027 11.2246L18.9119 10.2292L17.4187 11.2246L17.9164 9.23378L16.4233 8.23837H18.4142L18.9119 6.24756Z" fill="white"/>
<path d="M18.9119 14.7085L19.9073 16.6993H21.8981L20.405 18.1924L20.9027 20.1832L18.9119 18.6901L17.4187 20.1832L17.9164 18.1924L16.4233 16.6993H18.4142L18.9119 14.7085Z" fill="white"/>
<path d="M18.9119 23.6671L19.9073 25.6579H21.8981L20.405 26.6533L20.9027 28.6441L18.9119 27.6487L17.4187 28.6441L17.9164 26.6533L16.4233 25.6579H18.4142L18.9119 23.6671Z" fill="white"/>
<path d="M18.9119 32.6257L19.9073 34.6165H21.8981L20.405 35.612L20.9027 37.6028L18.9119 36.6074L17.4187 37.6028L17.9164 35.612L16.4233 34.6165H18.4142L18.9119 32.6257Z" fill="white"/>
<path d="M18.9119 41.0868L19.9073 43.0776H21.8981L20.405 44.5707L20.9027 46.5615L18.9119 45.0684L17.4187 46.5615L17.9164 44.5707L16.4233 43.0776H18.4142L18.9119 41.0868Z" fill="white"/>
<path d="M25.3827 10.7267L25.8804 12.7175H27.8712L26.3781 14.2106L26.8758 16.2014L25.3827 14.7083L23.3919 16.2014L24.3873 14.2106L22.3965 12.7175H24.3873L25.3827 10.7267Z" fill="white"/>
<path d="M25.3827 19.6855L25.8804 21.6764H27.8712L26.3781 22.6718L26.8758 24.6626L25.3827 23.6672L23.3919 24.6626L24.3873 22.6718L22.3965 21.6764H24.3873L25.3827 19.6855Z" fill="white"/>
<path d="M25.3827 28.1464L25.8804 30.1372H27.8712L26.3781 31.6303L26.8758 33.6211L25.3827 32.128L23.3919 33.6211L24.3873 31.6303L22.3965 30.1372H24.3873L25.3827 28.1464Z" fill="white"/>
<path d="M25.3827 37.1052L25.8804 39.096H27.8712L26.3781 40.0914L26.8758 42.0823L25.3827 41.0868L23.3919 42.0823L24.3873 40.0914L22.3965 39.096H24.3873L25.3827 37.1052Z" fill="white"/>
<path d="M31.3537 6.24756L31.8515 8.23837H34.34L32.3492 9.23378L33.3446 11.2246L31.3537 10.2292L29.8606 11.2246L30.3583 9.23378L28.8652 8.23837H30.856L31.3537 6.24756Z" fill="white"/>
<path d="M31.3537 14.7085L31.8515 16.6993H34.34L32.3492 18.1924L33.3446 20.1832L31.3537 18.6901L29.8606 20.1832L30.3583 18.1924L28.8652 16.6993H30.856L31.3537 14.7085Z" fill="white"/>
<path d="M31.3537 23.6671L31.8515 25.6579H34.34L32.3492 26.6533L33.3446 28.6441L31.3537 27.6487L29.8606 28.6441L30.3583 26.6533L28.8652 25.6579H30.856L31.3537 23.6671Z" fill="white"/>
<path d="M31.3537 32.6257L31.8515 34.6165H34.34L32.3492 35.612L33.3446 37.6028L31.3537 36.6074L29.8606 37.6028L30.3583 35.612L28.8652 34.6165H30.856L31.3537 32.6257Z" fill="white"/>
<path d="M31.3537 41.0868L31.8515 43.0776H34.34L32.3492 44.5707L33.3446 46.5615L31.3537 45.0684L29.8606 46.5615L30.3583 44.5707L28.8652 43.0776H30.856L31.3537 41.0868Z" fill="white"/>
<path d="M37.3279 10.7267L38.3233 12.7175H40.3141L38.821 14.2106L39.3187 16.2014L37.3279 14.7083L35.8348 16.2014L36.3325 14.2106L34.8394 12.7175H36.8302L37.3279 10.7267Z" fill="white"/>
<path d="M37.3279 19.6855L38.3233 21.6764H40.3141L38.821 22.6718L39.3187 24.6626L37.3279 23.6672L35.8348 24.6626L36.3325 22.6718L34.8394 21.6764H36.8302L37.3279 19.6855Z" fill="white"/>
<path d="M37.3279 28.1464L38.3233 30.1372H40.3141L38.821 31.6303L39.3187 33.6211L37.3279 32.128L35.8348 33.6211L36.3325 31.6303L34.8394 30.1372H36.8302L37.3279 28.1464Z" fill="white"/>
<path d="M37.3279 37.1052L38.3233 39.096H40.3141L38.821 40.0914L39.3187 42.0823L37.3279 41.0868L35.8348 42.0823L36.3325 40.0914L34.8394 39.096H36.8302L37.3279 37.1052Z" fill="white"/>
<path d="M43.7987 6.24756L44.2964 8.23837H46.2872L44.7941 9.23378L45.2918 11.2246L43.7987 10.2292L41.8079 11.2246L42.8033 9.23378L40.8125 8.23837H43.301L43.7987 6.24756Z" fill="white"/>
<path d="M43.7987 14.7085L44.2964 16.6993H46.2872L44.7941 18.1924L45.2918 20.1832L43.7987 18.6901L41.8079 20.1832L42.8033 18.1924L40.8125 16.6993H43.301L43.7987 14.7085Z" fill="white"/>
<path d="M43.7987 23.6671L44.2964 25.6579H46.2872L44.7941 26.6533L45.2918 28.6441L43.7987 27.6487L41.8079 28.6441L42.8033 26.6533L40.8125 25.6579H43.301L43.7987 23.6671Z" fill="white"/>
<path d="M43.7987 32.6257L44.2964 34.6165H46.2872L44.7941 35.612L45.2918 37.6028L43.7987 36.6074L41.8079 37.6028L42.8033 35.612L40.8125 34.6165H43.301L43.7987 32.6257Z" fill="white"/>
<path d="M43.7987 41.0868L44.2964 43.0776H46.2872L44.7941 44.5707L45.2918 46.5615L43.7987 45.0684L41.8079 46.5615L42.8033 44.5707L40.8125 43.0776H43.301L43.7987 41.0868Z" fill="white"/>
<path d="M49.7703 10.7267L50.268 12.7175H52.7565L50.7657 14.2106L51.2634 16.2014L49.7703 14.7083L48.2771 16.2014L48.7748 14.2106L47.2817 12.7175H49.2725L49.7703 10.7267Z" fill="white"/>
<path d="M49.7703 19.6855L50.268 21.6764H52.7565L50.7657 22.6718L51.2634 24.6626L49.7703 23.6672L48.2771 24.6626L48.7748 22.6718L47.2817 21.6764H49.2725L49.7703 19.6855Z" fill="white"/>
<path d="M49.7703 28.1464L50.268 30.1372H52.7565L50.7657 31.6303L51.2634 33.6211L49.7703 32.128L48.2771 33.6211L48.7748 31.6303L47.2817 30.1372H49.2725L49.7703 28.1464Z" fill="white"/>
<path d="M49.7703 37.1052L50.268 39.096H52.7565L50.7657 40.0914L51.2634 42.0823L49.7703 41.0868L48.2771 42.0823L48.7748 40.0914L47.2817 39.096H49.2725L49.7703 37.1052Z" fill="white"/>
<path d="M56.2416 6.24756L56.7393 8.23837H58.7301L57.237 9.23378L57.7347 11.2246L56.2416 10.2292L54.2508 11.2246L54.7485 9.23378L53.2554 8.23837H55.2462L56.2416 6.24756Z" fill="white"/>
<path d="M56.2416 14.7085L56.7393 16.6993H58.7301L57.237 18.1924L57.7347 20.1832L56.2416 18.6901L54.2508 20.1832L54.7485 18.1924L53.2554 16.6993H55.2462L56.2416 14.7085Z" fill="white"/>
<path d="M56.2416 23.6671L56.7393 25.6579H58.7301L57.237 26.6533L57.7347 28.6441L56.2416 27.6487L54.2508 28.6441L54.7485 26.6533L53.2554 25.6579H55.2462L56.2416 23.6671Z" fill="white"/>
<path d="M56.2416 32.6257L56.7393 34.6165H58.7301L57.237 35.612L57.7347 37.6028L56.2416 36.6074L54.2508 37.6028L54.7485 35.612L53.2554 34.6165H55.2462L56.2416 32.6257Z" fill="white"/>
<path d="M56.2416 41.0868L56.7393 43.0776H58.7301L57.237 44.5707L57.7347 46.5615L56.2416 45.0684L54.2508 46.5615L54.7485 44.5707L53.2554 43.0776H55.2462L56.2416 41.0868Z" fill="white"/>
<path d="M62.2118 10.7267L62.7095 12.7175H64.7003L63.2072 14.2106L63.7049 16.2014L62.2118 14.7083L60.221 16.2014L61.2164 14.2106L59.2256 12.7175H61.2164L62.2118 10.7267Z" fill="white"/>
<path d="M62.2118 19.6855L62.7095 21.6764H64.7003L63.2072 22.6718L63.7049 24.6626L62.2118 23.6672L60.221 24.6626L61.2164 22.6718L59.2256 21.6764H61.2164L62.2118 19.6855Z" fill="white"/>
<path d="M62.2118 28.1464L62.7095 30.1372H64.7003L63.2072 31.6303L63.7049 33.6211L62.2118 32.128L60.221 33.6211L61.2164 31.6303L59.2256 30.1372H61.2164L62.2118 28.1464Z" fill="white"/>
<path d="M62.2118 37.1052L62.7095 39.096H64.7003L63.2072 40.0914L63.7049 42.0823L62.2118 41.0868L60.221 42.0823L61.2164 40.0914L59.2256 39.096H61.2164L62.2118 37.1052Z" fill="white"/>
<path d="M68.1863 6.24756L68.684 8.23837H71.1725L69.1817 9.23378L70.1771 11.2246L68.1863 10.2292L66.6932 11.2246L67.1909 9.23378L65.6978 8.23837H67.6886L68.1863 6.24756Z" fill="white"/>
<path d="M68.1863 14.7085L68.684 16.6993H71.1725L69.1817 18.1924L70.1771 20.1832L68.1863 18.6901L66.6932 20.1832L67.1909 18.1924L65.6978 16.6993H67.6886L68.1863 14.7085Z" fill="white"/>
<path d="M68.1863 23.6671L68.684 25.6579H71.1725L69.1817 26.6533L70.1771 28.6441L68.1863 27.6487L66.6932 28.6441L67.1909 26.6533L65.6978 25.6579H67.6886L68.1863 23.6671Z" fill="white"/>
<path d="M68.1863 32.6257L68.684 34.6165H71.1725L69.1817 35.612L70.1771 37.6028L68.1863 36.6074L66.6932 37.6028L67.1909 35.612L65.6978 34.6165H67.6886L68.1863 32.6257Z" fill="white"/>
<path d="M68.1863 41.0868L68.684 43.0776H71.1725L69.1817 44.5707L70.1771 46.5615L68.1863 45.0684L66.6932 46.5615L67.1909 44.5707L65.6978 43.0776H67.6886L68.1863 41.0868Z" fill="white"/>
<path d="M839.442 90.3591H672.213V97.8247H839.442V90.3591Z" fill="#CB001C"/>
<path d="M839.442 82.8937H672.213V90.3592H839.442V82.8937Z" fill="white"/>
<path d="M839.442 75.4281H672.213V82.8936H839.442V75.4281Z" fill="#CB001C"/>
<path d="M839.442 67.9625H672.213V75.4281H839.442V67.9625Z" fill="white"/>
<path d="M839.442 60.4969H672.213V67.9625H839.442V60.4969Z" fill="#CB001C"/>
<path d="M839.442 53.0315H672.213V60.497H839.442V53.0315Z" fill="white"/>
<path d="M839.442 45.5658H672.213V53.0313H839.442V45.5658Z" fill="#CB001C"/>
<path d="M839.442 38.1003H672.213V45.5659H839.442V38.1003Z" fill="white"/>
<path d="M839.442 30.1372H672.213V37.6028H839.442V30.1372Z" fill="#CB001C"/>
<path d="M839.442 22.6718H672.213V30.1373H839.442V22.6718Z" fill="white"/>
<path d="M839.442 15.2062H672.213V22.6717H839.442V15.2062Z" fill="#CB001C"/>
<path d="M839.442 7.7406H672.213V15.2061H839.442V7.7406Z" fill="white"/>
<path d="M839.442 0.275024H672.213V7.74057H839.442V0.275024Z" fill="#CB001C"/>
<path d="M748.362 0.275024H672.213V52.5338H748.362V0.275024Z" fill="#2A3560"/>
<path d="M679.18 6.24756L679.678 8.23837H681.669L680.175 9.23378L680.673 11.2246L679.18 10.2292L677.189 11.2246L678.185 9.23378L676.194 8.23837H678.682L679.18 6.24756Z" fill="white"/>
<path d="M679.18 14.7085L679.678 16.6993H681.669L680.175 18.1924L680.673 20.1832L679.18 18.6901L677.189 20.1832L678.185 18.1924L676.194 16.6993H678.682L679.18 14.7085Z" fill="white"/>
<path d="M679.18 23.6671L679.678 25.6579H681.669L680.175 26.6533L680.673 28.6441L679.18 27.6487L677.189 28.6441L678.185 26.6533L676.194 25.6579H678.682L679.18 23.6671Z" fill="white"/>
<path d="M679.18 32.6257L679.678 34.6165H681.669L680.175 35.612L680.673 37.6028L679.18 36.6074L677.189 37.6028L678.185 35.612L676.194 34.6165H678.682L679.18 32.6257Z" fill="white"/>
<path d="M679.18 41.0868L679.678 43.0776H681.669L680.175 44.5707L680.673 46.5615L679.18 45.0684L677.189 46.5615L678.185 44.5707L676.194 43.0776H678.682L679.18 41.0868Z" fill="white"/>
<path d="M685.154 10.7267L685.652 12.7175H688.14L686.149 14.2106L686.647 16.2014L685.154 14.7083L683.661 16.2014L684.159 14.2106L682.666 12.7175H684.656L685.154 10.7267Z" fill="white"/>
<path d="M685.154 19.6855L685.652 21.6764H688.14L686.149 22.6718L686.647 24.6626L685.154 23.6672L683.661 24.6626L684.159 22.6718L682.666 21.6764H684.656L685.154 19.6855Z" fill="white"/>
<path d="M685.154 28.1464L685.652 30.1372H688.14L686.149 31.6303L686.647 33.6211L685.154 32.128L683.661 33.6211L684.159 31.6303L682.666 30.1372H684.656L685.154 28.1464Z" fill="white"/>
<path d="M685.154 37.1052L685.652 39.096H688.14L686.149 40.0914L686.647 42.0823L685.154 41.0868L683.661 42.0823L684.159 40.0914L682.666 39.096H684.656L685.154 37.1052Z" fill="white"/>
<path d="M691.125 6.24756L692.121 8.23837H694.111L692.618 9.23378L693.116 11.2246L691.125 10.2292L689.632 11.2246L690.13 9.23378L688.637 8.23837H690.628L691.125 6.24756Z" fill="white"/>
<path d="M691.125 14.7085L692.121 16.6993H694.111L692.618 18.1924L693.116 20.1832L691.125 18.6901L689.632 20.1832L690.13 18.1924L688.637 16.6993H690.628L691.125 14.7085Z" fill="white"/>
<path d="M691.125 23.6671L692.121 25.6579H694.111L692.618 26.6533L693.116 28.6441L691.125 27.6487L689.632 28.6441L690.13 26.6533L688.637 25.6579H690.628L691.125 23.6671Z" fill="white"/>
<path d="M691.125 32.6257L692.121 34.6165H694.111L692.618 35.612L693.116 37.6028L691.125 36.6074L689.632 37.6028L690.13 35.612L688.637 34.6165H690.628L691.125 32.6257Z" fill="white"/>
<path d="M691.125 41.0868L692.121 43.0776H694.111L692.618 44.5707L693.116 46.5615L691.125 45.0684L689.632 46.5615L690.13 44.5707L688.637 43.0776H690.628L691.125 41.0868Z" fill="white"/>
<path d="M697.596 10.7267L698.094 12.7175H700.085L698.591 14.2106L699.089 16.2014L697.596 14.7083L695.605 16.2014L696.601 14.2106L694.61 12.7175H696.601L697.596 10.7267Z" fill="white"/>
<path d="M697.596 19.6855L698.094 21.6764H700.085L698.591 22.6718L699.089 24.6626L697.596 23.6672L695.605 24.6626L696.601 22.6718L694.61 21.6764H696.601L697.596 19.6855Z" fill="white"/>
<path d="M697.596 28.1464L698.094 30.1372H700.085L698.591 31.6303L699.089 33.6211L697.596 32.128L695.605 33.6211L696.601 31.6303L694.61 30.1372H696.601L697.596 28.1464Z" fill="white"/>
<path d="M697.596 37.1052L698.094 39.096H700.085L698.591 40.0914L699.089 42.0823L697.596 41.0868L695.605 42.0823L696.601 40.0914L694.61 39.096H696.601L697.596 37.1052Z" fill="white"/>
<path d="M703.567 6.24756L704.065 8.23837H706.553L704.563 9.23378L705.558 11.2246L703.567 10.2292L702.074 11.2246L702.572 9.23378L701.079 8.23837H703.069L703.567 6.24756Z" fill="white"/>
<path d="M703.567 14.7085L704.065 16.6993H706.553L704.563 18.1924L705.558 20.1832L703.567 18.6901L702.074 20.1832L702.572 18.1924L701.079 16.6993H703.069L703.567 14.7085Z" fill="white"/>
<path d="M703.567 23.6671L704.065 25.6579H706.553L704.563 26.6533L705.558 28.6441L703.567 27.6487L702.074 28.6441L702.572 26.6533L701.079 25.6579H703.069L703.567 23.6671Z" fill="white"/>
<path d="M703.567 32.6257L704.065 34.6165H706.553L704.563 35.612L705.558 37.6028L703.567 36.6074L702.074 37.6028L702.572 35.612L701.079 34.6165H703.069L703.567 32.6257Z" fill="white"/>
<path d="M703.567 41.0868L704.065 43.0776H706.553L704.563 44.5707L705.558 46.5615L703.567 45.0684L702.074 46.5615L702.572 44.5707L701.079 43.0776H703.069L703.567 41.0868Z" fill="white"/>
<path d="M709.541 10.7267L710.537 12.7175H712.527L711.034 14.2106L711.532 16.2014L709.541 14.7083L708.048 16.2014L708.546 14.2106L707.053 12.7175H709.044L709.541 10.7267Z" fill="white"/>
<path d="M709.541 19.6855L710.537 21.6764H712.527L711.034 22.6718L711.532 24.6626L709.541 23.6672L708.048 24.6626L708.546 22.6718L707.053 21.6764H709.044L709.541 19.6855Z" fill="white"/>
<path d="M709.541 28.1464L710.537 30.1372H712.527L711.034 31.6303L711.532 33.6211L709.541 32.128L708.048 33.6211L708.546 31.6303L707.053 30.1372H709.044L709.541 28.1464Z" fill="white"/>
<path d="M709.541 37.1052L710.537 39.096H712.527L711.034 40.0914L711.532 42.0823L709.541 41.0868L708.048 42.0823L708.546 40.0914L707.053 39.096H709.044L709.541 37.1052Z" fill="white"/>
<path d="M716.012 6.24756L716.51 8.23837H718.501L717.008 9.23378L717.505 11.2246L716.012 10.2292L714.021 11.2246L715.017 9.23378L713.026 8.23837H715.514L716.012 6.24756Z" fill="white"/>
<path d="M716.012 14.7085L716.51 16.6993H718.501L717.008 18.1924L717.505 20.1832L716.012 18.6901L714.021 20.1832L715.017 18.1924L713.026 16.6993H715.514L716.012 14.7085Z" fill="white"/>
<path d="M716.012 23.6671L716.51 25.6579H718.501L717.008 26.6533L717.505 28.6441L716.012 27.6487L714.021 28.6441L715.017 26.6533L713.026 25.6579H715.514L716.012 23.6671Z" fill="white"/>
<path d="M716.012 32.6257L716.51 34.6165H718.501L717.008 35.612L717.505 37.6028L716.012 36.6074L714.021 37.6028L715.017 35.612L713.026 34.6165H715.514L716.012 32.6257Z" fill="white"/>
<path d="M716.012 41.0868L716.51 43.0776H718.501L717.008 44.5707L717.505 46.5615L716.012 45.0684L714.021 46.5615L715.017 44.5707L713.026 43.0776H715.514L716.012 41.0868Z" fill="white"/>
<path d="M721.984 10.7267L722.481 12.7175H724.97L722.979 14.2106L723.477 16.2014L721.984 14.7083L720.491 16.2014L720.988 14.2106L719.495 12.7175H721.486L721.984 10.7267Z" fill="white"/>
<path d="M721.984 19.6855L722.481 21.6764H724.97L722.979 22.6718L723.477 24.6626L721.984 23.6672L720.491 24.6626L720.988 22.6718L719.495 21.6764H721.486L721.984 19.6855Z" fill="white"/>
<path d="M721.984 28.1464L722.481 30.1372H724.97L722.979 31.6303L723.477 33.6211L721.984 32.128L720.491 33.6211L720.988 31.6303L719.495 30.1372H721.486L721.984 28.1464Z" fill="white"/>
<path d="M721.984 37.1052L722.481 39.096H724.97L722.979 40.0914L723.477 42.0823L721.984 41.0868L720.491 42.0823L720.988 40.0914L719.495 39.096H721.486L721.984 37.1052Z" fill="white"/>
<path d="M728.455 6.24756L728.953 8.23837H730.943L729.45 9.23378L729.948 11.2246L728.455 10.2292L726.464 11.2246L726.962 9.23378L725.469 8.23837H727.46L728.455 6.24756Z" fill="white"/>
<path d="M728.455 14.7085L728.953 16.6993H730.943L729.45 18.1924L729.948 20.1832L728.455 18.6901L726.464 20.1832L726.962 18.1924L725.469 16.6993H727.46L728.455 14.7085Z" fill="white"/>
<path d="M728.455 23.6671L728.953 25.6579H730.943L729.45 26.6533L729.948 28.6441L728.455 27.6487L726.464 28.6441L726.962 26.6533L725.469 25.6579H727.46L728.455 23.6671Z" fill="white"/>
<path d="M728.455 32.6257L728.953 34.6165H730.943L729.45 35.612L729.948 37.6028L728.455 36.6074L726.464 37.6028L726.962 35.612L725.469 34.6165H727.46L728.455 32.6257Z" fill="white"/>
<path d="M728.455 41.0868L728.953 43.0776H730.943L729.45 44.5707L729.948 46.5615L728.455 45.0684L726.464 46.5615L726.962 44.5707L725.469 43.0776H727.46L728.455 41.0868Z" fill="white"/>
<path d="M734.425 10.7267L734.923 12.7175H736.914L735.421 14.2106L735.918 16.2014L734.425 14.7083L732.434 16.2014L733.43 14.2106L731.439 12.7175H733.43L734.425 10.7267Z" fill="white"/>
<path d="M734.425 19.6855L734.923 21.6764H736.914L735.421 22.6718L735.918 24.6626L734.425 23.6672L732.434 24.6626L733.43 22.6718L731.439 21.6764H733.43L734.425 19.6855Z" fill="white"/>
<path d="M734.425 28.1464L734.923 30.1372H736.914L735.421 31.6303L735.918 33.6211L734.425 32.128L732.434 33.6211L733.43 31.6303L731.439 30.1372H733.43L734.425 28.1464Z" fill="white"/>
<path d="M734.425 37.1052L734.923 39.096H736.914L735.421 40.0914L735.918 42.0823L734.425 41.0868L732.434 42.0823L733.43 40.0914L731.439 39.096H733.43L734.425 37.1052Z" fill="white"/>
<path d="M740.4 6.24756L740.897 8.23837H743.386L741.395 9.23378L742.39 11.2246L740.4 10.2292L738.907 11.2246L739.404 9.23378L737.911 8.23837H739.902L740.4 6.24756Z" fill="white"/>
<path d="M740.4 14.7085L740.897 16.6993H743.386L741.395 18.1924L742.39 20.1832L740.4 18.6901L738.907 20.1832L739.404 18.1924L737.911 16.6993H739.902L740.4 14.7085Z" fill="white"/>
<path d="M740.4 23.6671L740.897 25.6579H743.386L741.395 26.6533L742.39 28.6441L740.4 27.6487L738.907 28.6441L739.404 26.6533L737.911 25.6579H739.902L740.4 23.6671Z" fill="white"/>
<path d="M740.4 32.6257L740.897 34.6165H743.386L741.395 35.612L742.39 37.6028L740.4 36.6074L738.907 37.6028L739.404 35.612L737.911 34.6165H739.902L740.4 32.6257Z" fill="white"/>
<path d="M740.4 41.0868L740.897 43.0776H743.386L741.395 44.5707L742.39 46.5615L740.4 45.0684L738.907 46.5615L739.404 44.5707L737.911 43.0776H739.902L740.4 41.0868Z" fill="white"/>
<path d="M1511.65 90.3591H1344.43V97.8247H1511.65V90.3591Z" fill="#CB001C"/>
<path d="M1511.65 82.8937H1344.43V90.3592H1511.65V82.8937Z" fill="white"/>
<path d="M1511.65 75.4281H1344.43V82.8936H1511.65V75.4281Z" fill="#CB001C"/>
<path d="M1511.65 67.9625H1344.43V75.4281H1511.65V67.9625Z" fill="white"/>
<path d="M1511.65 60.4969H1344.43V67.9625H1511.65V60.4969Z" fill="#CB001C"/>
<path d="M1511.65 53.0315H1344.43V60.497H1511.65V53.0315Z" fill="white"/>
<path d="M1511.65 45.5658H1344.43V53.0313H1511.65V45.5658Z" fill="#CB001C"/>
<path d="M1511.65 38.1003H1344.43V45.5659H1511.65V38.1003Z" fill="white"/>
<path d="M1511.65 30.1372H1344.43V37.6028H1511.65V30.1372Z" fill="#CB001C"/>
<path d="M1511.65 22.6718H1344.43V30.1373H1511.65V22.6718Z" fill="white"/>
<path d="M1511.65 15.2062H1344.43V22.6717H1511.65V15.2062Z" fill="#CB001C"/>
<path d="M1511.65 7.7406H1344.43V15.2061H1511.65V7.7406Z" fill="white"/>
<path d="M1511.66 0.275024H1344.43V7.74057H1511.66V0.275024Z" fill="#CB001C"/>
<path d="M1420.58 0.275024H1344.43V52.5338H1420.58V0.275024Z" fill="#2A3560"/>
<path d="M1351.39 6.24756L1351.89 8.23837H1353.88L1352.39 9.23378L1352.89 11.2246L1351.39 10.2292L1349.4 11.2246L1350.4 9.23378L1348.41 8.23837H1350.9L1351.39 6.24756Z" fill="white"/>
<path d="M1351.39 14.7085L1351.89 16.6993H1353.88L1352.39 18.1924L1352.89 20.1832L1351.39 18.6901L1349.4 20.1832L1350.4 18.1924L1348.41 16.6993H1350.9L1351.39 14.7085Z" fill="white"/>
<path d="M1351.39 23.6671L1351.89 25.6579H1353.88L1352.39 26.6533L1352.89 28.6441L1351.39 27.6487L1349.4 28.6441L1350.4 26.6533L1348.41 25.6579H1350.9L1351.39 23.6671Z" fill="white"/>
<path d="M1351.39 32.6257L1351.89 34.6165H1353.88L1352.39 35.612L1352.89 37.6028L1351.39 36.6074L1349.4 37.6028L1350.4 35.612L1348.41 34.6165H1350.9L1351.39 32.6257Z" fill="white"/>
<path d="M1351.39 41.0868L1351.89 43.0776H1353.88L1352.39 44.5707L1352.89 46.5615L1351.39 45.0684L1349.4 46.5615L1350.4 44.5707L1348.41 43.0776H1350.9L1351.39 41.0868Z" fill="white"/>
<path d="M1357.37 10.7267L1357.87 12.7175H1360.35L1358.36 14.2106L1358.86 16.2014L1357.37 14.7083L1355.87 16.2014L1356.37 14.2106L1354.88 12.7175H1356.87L1357.37 10.7267Z" fill="white"/>
<path d="M1357.37 19.6855L1357.87 21.6764H1360.35L1358.36 22.6718L1358.86 24.6626L1357.37 23.6672L1355.87 24.6626L1356.37 22.6718L1354.88 21.6764H1356.87L1357.37 19.6855Z" fill="white"/>
<path d="M1357.37 28.1464L1357.87 30.1372H1360.35L1358.36 31.6303L1358.86 33.6211L1357.37 32.128L1355.87 33.6211L1356.37 31.6303L1354.88 30.1372H1356.87L1357.37 28.1464Z" fill="white"/>
<path d="M1357.37 37.1052L1357.87 39.096H1360.35L1358.36 40.0914L1358.86 42.0823L1357.37 41.0868L1355.87 42.0823L1356.37 40.0914L1354.88 39.096H1356.87L1357.37 37.1052Z" fill="white"/>
<path d="M1363.34 6.24756L1364.33 8.23837H1366.32L1364.83 9.23378L1365.33 11.2246L1363.34 10.2292L1361.85 11.2246L1362.34 9.23378L1360.85 8.23837H1362.84L1363.34 6.24756Z" fill="white"/>
<path d="M1363.34 14.7085L1364.33 16.6993H1366.32L1364.83 18.1924L1365.33 20.1832L1363.34 18.6901L1361.85 20.1832L1362.34 18.1924L1360.85 16.6993H1362.84L1363.34 14.7085Z" fill="white"/>
<path d="M1363.34 23.6671L1364.33 25.6579H1366.32L1364.83 26.6533L1365.33 28.6441L1363.34 27.6487L1361.85 28.6441L1362.34 26.6533L1360.85 25.6579H1362.84L1363.34 23.6671Z" fill="white"/>
<path d="M1363.34 32.6257L1364.33 34.6165H1366.32L1364.83 35.612L1365.33 37.6028L1363.34 36.6074L1361.85 37.6028L1362.34 35.612L1360.85 34.6165H1362.84L1363.34 32.6257Z" fill="white"/>
<path d="M1363.34 41.0868L1364.33 43.0776H1366.32L1364.83 44.5707L1365.33 46.5615L1363.34 45.0684L1361.85 46.5615L1362.34 44.5707L1360.85 43.0776H1362.84L1363.34 41.0868Z" fill="white"/>
<path d="M1369.81 10.7267L1370.31 12.7175H1372.3L1370.8 14.2106L1371.3 16.2014L1369.81 14.7083L1367.82 16.2014L1368.81 14.2106L1366.82 12.7175H1368.81L1369.81 10.7267Z" fill="white"/>
<path d="M1369.81 19.6855L1370.31 21.6764H1372.3L1370.8 22.6718L1371.3 24.6626L1369.81 23.6672L1367.82 24.6626L1368.81 22.6718L1366.82 21.6764H1368.81L1369.81 19.6855Z" fill="white"/>
<path d="M1369.81 28.1464L1370.31 30.1372H1372.3L1370.8 31.6303L1371.3 33.6211L1369.81 32.128L1367.82 33.6211L1368.81 31.6303L1366.82 30.1372H1368.81L1369.81 28.1464Z" fill="white"/>
<path d="M1369.81 37.1052L1370.31 39.096H1372.3L1370.8 40.0914L1371.3 42.0823L1369.81 41.0868L1367.82 42.0823L1368.81 40.0914L1366.82 39.096H1368.81L1369.81 37.1052Z" fill="white"/>
<path d="M1375.78 6.24756L1376.28 8.23837H1378.77L1376.78 9.23378L1377.77 11.2246L1375.78 10.2292L1374.29 11.2246L1374.79 9.23378L1373.29 8.23837H1375.28L1375.78 6.24756Z" fill="white"/>
<path d="M1375.78 14.7085L1376.28 16.6993H1378.77L1376.78 18.1924L1377.77 20.1832L1375.78 18.6901L1374.29 20.1832L1374.79 18.1924L1373.29 16.6993H1375.28L1375.78 14.7085Z" fill="white"/>
<path d="M1375.78 23.6671L1376.28 25.6579H1378.77L1376.78 26.6533L1377.77 28.6441L1375.78 27.6487L1374.29 28.6441L1374.79 26.6533L1373.29 25.6579H1375.28L1375.78 23.6671Z" fill="white"/>
<path d="M1375.78 32.6257L1376.28 34.6165H1378.77L1376.78 35.612L1377.77 37.6028L1375.78 36.6074L1374.29 37.6028L1374.79 35.612L1373.29 34.6165H1375.28L1375.78 32.6257Z" fill="white"/>
<path d="M1375.78 41.0868L1376.28 43.0776H1378.77L1376.78 44.5707L1377.77 46.5615L1375.78 45.0684L1374.29 46.5615L1374.79 44.5707L1373.29 43.0776H1375.28L1375.78 41.0868Z" fill="white"/>
<path d="M1381.75 10.7267L1382.75 12.7175H1384.74L1383.25 14.2106L1383.75 16.2014L1381.75 14.7083L1380.26 16.2014L1380.76 14.2106L1379.27 12.7175H1381.26L1381.75 10.7267Z" fill="white"/>
<path d="M1381.75 19.6855L1382.75 21.6764H1384.74L1383.25 22.6718L1383.75 24.6626L1381.75 23.6672L1380.26 24.6626L1380.76 22.6718L1379.27 21.6764H1381.26L1381.75 19.6855Z" fill="white"/>
<path d="M1381.75 28.1464L1382.75 30.1372H1384.74L1383.25 31.6303L1383.75 33.6211L1381.75 32.128L1380.26 33.6211L1380.76 31.6303L1379.27 30.1372H1381.26L1381.75 28.1464Z" fill="white"/>
<path d="M1381.75 37.1052L1382.75 39.096H1384.74L1383.25 40.0914L1383.75 42.0823L1381.75 41.0868L1380.26 42.0823L1380.76 40.0914L1379.27 39.096H1381.26L1381.75 37.1052Z" fill="white"/>
<path d="M1388.23 6.24756L1388.72 8.23837H1390.71L1389.22 9.23378L1389.72 11.2246L1388.23 10.2292L1386.23 11.2246L1387.23 9.23378L1385.24 8.23837H1387.73L1388.23 6.24756Z" fill="white"/>
<path d="M1388.23 14.7085L1388.72 16.6993H1390.71L1389.22 18.1924L1389.72 20.1832L1388.23 18.6901L1386.23 20.1832L1387.23 18.1924L1385.24 16.6993H1387.73L1388.23 14.7085Z" fill="white"/>
<path d="M1388.23 23.6671L1388.72 25.6579H1390.71L1389.22 26.6533L1389.72 28.6441L1388.23 27.6487L1386.23 28.6441L1387.23 26.6533L1385.24 25.6579H1387.73L1388.23 23.6671Z" fill="white"/>
<path d="M1388.23 32.6257L1388.72 34.6165H1390.71L1389.22 35.612L1389.72 37.6028L1388.23 36.6074L1386.23 37.6028L1387.23 35.612L1385.24 34.6165H1387.73L1388.23 32.6257Z" fill="white"/>
<path d="M1388.23 41.0868L1388.72 43.0776H1390.71L1389.22 44.5707L1389.72 46.5615L1388.23 45.0684L1386.23 46.5615L1387.23 44.5707L1385.24 43.0776H1387.73L1388.23 41.0868Z" fill="white"/>
<path d="M1394.2 10.7267L1394.69 12.7175H1397.18L1395.19 14.2106L1395.69 16.2014L1394.2 14.7083L1392.7 16.2014L1393.2 14.2106L1391.71 12.7175H1393.7L1394.2 10.7267Z" fill="white"/>
<path d="M1394.2 19.6855L1394.69 21.6764H1397.18L1395.19 22.6718L1395.69 24.6626L1394.2 23.6672L1392.7 24.6626L1393.2 22.6718L1391.71 21.6764H1393.7L1394.2 19.6855Z" fill="white"/>
<path d="M1394.2 28.1464L1394.69 30.1372H1397.18L1395.19 31.6303L1395.69 33.6211L1394.2 32.128L1392.7 33.6211L1393.2 31.6303L1391.71 30.1372H1393.7L1394.2 28.1464Z" fill="white"/>
<path d="M1394.2 37.1052L1394.69 39.096H1397.18L1395.19 40.0914L1395.69 42.0823L1394.2 41.0868L1392.7 42.0823L1393.2 40.0914L1391.71 39.096H1393.7L1394.2 37.1052Z" fill="white"/>
<path d="M1400.67 6.24756L1401.17 8.23837H1403.16L1401.66 9.23378L1402.16 11.2246L1400.67 10.2292L1398.68 11.2246L1399.18 9.23378L1397.68 8.23837H1399.67L1400.67 6.24756Z" fill="white"/>
<path d="M1400.67 14.7085L1401.17 16.6993H1403.16L1401.66 18.1924L1402.16 20.1832L1400.67 18.6901L1398.68 20.1832L1399.18 18.1924L1397.68 16.6993H1399.67L1400.67 14.7085Z" fill="white"/>
<path d="M1400.67 23.6671L1401.17 25.6579H1403.16L1401.66 26.6533L1402.16 28.6441L1400.67 27.6487L1398.68 28.6441L1399.18 26.6533L1397.68 25.6579H1399.67L1400.67 23.6671Z" fill="white"/>
<path d="M1400.67 32.6257L1401.17 34.6165H1403.16L1401.66 35.612L1402.16 37.6028L1400.67 36.6074L1398.68 37.6028L1399.18 35.612L1397.68 34.6165H1399.67L1400.67 32.6257Z" fill="white"/>
<path d="M1400.67 41.0868L1401.17 43.0776H1403.16L1401.66 44.5707L1402.16 46.5615L1400.67 45.0684L1398.68 46.5615L1399.18 44.5707L1397.68 43.0776H1399.67L1400.67 41.0868Z" fill="white"/>
<path d="M1406.64 10.7267L1407.14 12.7175H1409.13L1407.63 14.2106L1408.13 16.2014L1406.64 14.7083L1404.65 16.2014L1405.64 14.2106L1403.65 12.7175H1405.64L1406.64 10.7267Z" fill="white"/>
<path d="M1406.64 19.6855L1407.14 21.6764H1409.13L1407.63 22.6718L1408.13 24.6626L1406.64 23.6672L1404.65 24.6626L1405.64 22.6718L1403.65 21.6764H1405.64L1406.64 19.6855Z" fill="white"/>
<path d="M1406.64 28.1464L1407.14 30.1372H1409.13L1407.63 31.6303L1408.13 33.6211L1406.64 32.128L1404.65 33.6211L1405.64 31.6303L1403.65 30.1372H1405.64L1406.64 28.1464Z" fill="white"/>
<path d="M1406.64 37.1052L1407.14 39.096H1409.13L1407.63 40.0914L1408.13 42.0823L1406.64 41.0868L1404.65 42.0823L1405.64 40.0914L1403.65 39.096H1405.64L1406.64 37.1052Z" fill="white"/>
<path d="M1412.61 6.24756L1413.11 8.23837H1415.6L1413.61 9.23378L1414.6 11.2246L1412.61 10.2292L1411.12 11.2246L1411.62 9.23378L1410.12 8.23837H1412.12L1412.61 6.24756Z" fill="white"/>
<path d="M1412.61 14.7085L1413.11 16.6993H1415.6L1413.61 18.1924L1414.6 20.1832L1412.61 18.6901L1411.12 20.1832L1411.62 18.1924L1410.12 16.6993H1412.12L1412.61 14.7085Z" fill="white"/>
<path d="M1412.61 23.6671L1413.11 25.6579H1415.6L1413.61 26.6533L1414.6 28.6441L1412.61 27.6487L1411.12 28.6441L1411.62 26.6533L1410.12 25.6579H1412.12L1412.61 23.6671Z" fill="white"/>
<path d="M1412.61 32.6257L1413.11 34.6165H1415.6L1413.61 35.612L1414.6 37.6028L1412.61 36.6074L1411.12 37.6028L1411.62 35.612L1410.12 34.6165H1412.12L1412.61 32.6257Z" fill="white"/>
<path d="M1412.61 41.0868L1413.11 43.0776H1415.6L1413.61 44.5707L1414.6 46.5615L1412.61 45.0684L1411.12 46.5615L1411.62 44.5707L1410.12 43.0776H1412.12L1412.61 41.0868Z" fill="white"/>
<path d="M672.213 0H588.599V97.9998H672.213V0Z" fill="#BD0034"/>
<path d="M588.6 0H504.985V97.9998H588.6V0Z" fill="white"/>
<path d="M524.395 14.9999C524.395 14.9999 523.897 14.9999 524.395 14.9999C523.897 14.9999 523.399 14.9999 523.399 14.9999C523.399 14.9999 523.897 14.4999 524.395 14.9999C524.395 14.9999 523.897 14.4999 524.395 14.9999Z" fill="#EFECEC"/>
<path d="M511.953 13.4999V20.4998H518.921C518.921 21.4998 519.916 22.9998 521.409 22.9998V29.9998H528.377V22.9998C529.372 22.9998 530.865 21.9998 530.865 20.4998H537.833V13.4999H530.865C530.865 12.4999 529.87 10.9999 528.377 10.9999V3.99988H521.409V10.9999C520.414 10.9999 518.921 11.9999 518.921 13.4999H511.953Z" fill="#D30038"/>
<path d="M511.953 13.9999V20.4998H518.921C518.921 21.4998 519.916 22.9998 521.409 22.9998V29.9998H527.879V22.9998C528.875 22.9998 530.368 21.9998 530.368 20.4998H537.336V13.9999H530.865C530.865 12.9999 529.87 11.4999 528.377 11.4999V3.99988H521.907V10.9999C520.911 10.9999 519.418 11.9999 519.418 13.4999H511.953V13.9999Z" fill="#BD0034"/>
<path d="M512.451 13.9997V19.9997H519.419C519.419 20.9997 520.414 22.4997 521.907 22.4997V29.9997H528.377V22.4997C529.373 22.4997 530.866 21.4997 530.866 19.9997H537.834V13.9997H530.368C530.368 12.9997 529.373 11.4997 527.88 11.4997V4.49976H521.907V11.4997C520.912 11.4997 519.419 12.4997 519.419 13.9997H512.451Z" fill="#91857C"/>
<path d="M512.451 14.4997V19.9997H519.916C519.916 20.9997 520.912 22.4997 522.405 22.4997V29.4997H528.377V22.4997C529.373 22.4997 530.866 21.4997 530.866 19.9997H537.834V14.4997H530.368C530.368 13.4997 529.373 11.9997 527.88 11.9997V4.49976H522.405V11.4997C520.912 11.9997 519.916 12.9997 519.916 14.4997H512.451Z" fill="#CACACA"/>
<path d="M522.403 11.4999C522.901 11.9999 522.403 12.9999 521.408 13.9999C520.91 14.4999 519.417 14.4999 519.417 14.4999C518.92 13.9999 518.92 12.9999 519.915 11.9999C520.91 10.9999 521.906 10.9999 522.403 11.4999Z" fill="#CECECE"/>
<path d="M521.906 12C522.404 12.5 522.404 13 521.408 14C520.911 14 520.413 14 519.915 14C519.418 13.5 519.418 12.5 519.915 12C520.413 11.5 521.408 11.5 521.906 12Z" fill="#91857C"/>
<path d="M519.418 12.9999H519.916H520.413V12.4999L520.911 13.4999L519.418 12.9999Z" fill="#CECECE"/>
<path d="M520.911 11.9998L521.906 12.9998L520.911 11.9998Z" fill="#CECECE"/>
<path d="M530.866 14.4997C530.368 14.9997 529.373 14.4997 528.377 13.4997C527.879 12.4997 527.382 11.4997 527.879 11.4997C528.377 10.9997 529.373 11.4997 530.368 12.4997C530.866 12.9997 531.363 13.9997 530.866 14.4997Z" fill="#CECECE"/>
<path d="M530.368 13.9999C529.871 13.9999 529.373 13.9999 528.875 13.4999C528.378 12.9999 528.378 11.9999 528.875 11.4999C528.875 11.4999 529.871 11.4999 530.368 11.9999C530.866 12.4999 530.866 13.4999 530.368 13.9999Z" fill="#91857C"/>
<path d="M529.371 11.4999V11.9999L528.874 12.4999L529.869 11.9999V12.4999L528.376 12.9999L529.371 11.4999Z" fill="#CECECE"/>
<path d="M530.368 12.4999V12.9999L529.373 13.9999V13.4999L530.368 12.4999Z" fill="#CECECE"/>
<path d="M527.879 22.9998C527.381 22.4998 527.879 21.4998 528.874 20.4998C529.372 19.9998 530.367 19.4998 530.865 19.9998C531.363 20.4998 530.865 21.4998 529.87 22.4998C529.372 22.9998 528.377 23.4998 527.879 22.9998Z" fill="#CECECE"/>
<path d="M528.377 22.4998C527.879 21.9998 527.879 21.4998 528.377 20.4998C529.372 19.9998 529.87 19.9998 530.368 20.4998C530.865 20.9998 530.865 21.4998 529.87 22.4998C529.87 22.9997 528.874 22.9997 528.377 22.4998Z" fill="#91857C"/>
<path d="M530.368 20.9998V21.4998L529.87 20.9998V21.4998V21.9998L529.373 20.4998L530.368 20.9998Z" fill="#CECECE"/>
<path d="M529.371 22.4999L528.376 21.4999V20.9999L529.371 22.4999Z" fill="#CECECE"/>
<path d="M519.417 19.9999C519.915 19.4999 520.91 19.9999 521.906 20.9999C522.901 21.9999 522.901 22.9999 522.901 23.4999C521.906 23.4999 520.91 22.9999 519.915 22.4999C518.92 21.4999 518.92 20.4999 519.417 19.9999Z" fill="#CECECE"/>
<path d="M519.915 20.4998C520.413 19.9998 520.911 19.9998 521.408 20.4998C521.906 20.9998 521.906 21.9998 521.906 22.4998C521.906 22.9997 520.413 22.9997 519.915 22.4998C519.418 21.4998 519.418 20.9998 519.915 20.4998Z" fill="#91857C"/>
<path d="M520.912 22.4999L521.41 21.4999L520.415 21.9999L521.908 20.9999L520.912 22.4999Z" fill="#CECECE"/>
<path d="M519.916 21.4998L520.911 20.4998L519.916 21.4998Z" fill="#CECECE"/>
<path d="M524.893 21.9997C521.907 21.9997 519.916 19.4997 519.916 16.9997C519.916 13.9998 522.405 11.9998 524.893 11.9998C526.386 11.9998 527.382 12.4998 528.377 13.4998C529.87 14.4997 530.368 15.9997 530.368 16.9997C530.368 18.4997 529.87 19.9997 528.875 20.4997C527.879 21.4997 526.386 21.9997 524.893 21.9997ZM524.893 11.9998C521.907 11.9998 519.916 13.9998 519.916 16.9997C519.916 19.9997 521.907 21.9997 524.893 21.9997C526.386 21.9997 527.382 21.4997 528.377 20.4997C529.372 19.4997 529.87 18.4997 529.87 16.9997C529.87 15.4997 529.372 14.4997 528.377 13.4998C527.879 12.4998 526.386 11.9998 524.893 11.9998Z" fill="#91857C"/>
<path d="M524.892 21C522.901 21 520.911 19.5 520.911 17C520.911 14.5 522.901 13.5 524.892 13.5C526.883 13.5 528.874 15 528.874 17.5C528.874 20 527.381 21 524.892 21ZM524.892 13.5C522.901 13.5 521.408 15 521.408 17C521.408 19 522.901 21 525.39 21C527.381 21 529.372 19.5 529.372 17C528.874 15 527.381 13.5 524.892 13.5Z" fill="#91857C"/>
<path d="M523.4 20.9999C523.4 21.4999 523.4 21.4999 523.4 20.9999C523.4 21.4999 522.902 21.4999 523.4 20.9999C522.902 21.4999 522.902 21.4999 523.4 20.9999C522.902 20.9999 522.902 20.9999 523.4 20.9999C523.4 20.9999 522.902 20.9999 523.4 20.9999Z" fill="black"/>
<path d="M527.381 20.9999C527.381 21.4999 527.381 21.4999 527.381 20.9999C526.883 21.4999 526.883 21.4999 527.381 20.9999C526.883 21.4999 526.883 21.4999 527.381 20.9999C526.883 20.9999 526.883 20.9999 527.381 20.9999C526.883 20.9999 526.883 20.9999 527.381 20.9999Z" fill="black"/>
<path d="M524.893 20.9998C524.396 20.9998 524.396 21.4998 524.396 21.4998H524.893C524.893 21.9998 525.391 21.9998 525.391 21.4998V20.9998H525.889C526.386 20.9998 526.386 20.4998 525.889 20.4998L524.893 20.9998C524.893 20.9998 525.391 20.9998 524.893 20.9998Z" fill="black"/>
<path d="M527.382 17.9998C527.382 17.9998 526.884 17.4998 527.382 17.9998C526.884 17.4998 527.382 17.9998 527.382 17.9998Z" fill="#91857C"/>
<path d="M523.4 19.9999H527.382L526.884 19.4999L526.386 18.9999H525.889H525.391L524.893 19.4999H523.898H523.4H522.405L523.898 19.9999H522.902H523.4Z" fill="#91857C"/>
<path d="M527.382 19.9999H523.4H522.902H523.898H522.405H523.898H524.396L524.893 19.4999H525.391H525.889L527.382 19.9999ZM522.902 19.9999H527.382H527.88L525.889 18.9999H525.391L524.893 19.4999H524.396H523.898L522.902 19.9999H523.898H522.902Z" fill="black"/>
<path d="M525.391 18.9999C524.893 18.4999 524.893 18.9999 524.396 19.4999C524.893 19.4999 524.893 18.9999 525.391 18.9999C525.889 18.9999 525.391 19.4999 525.391 18.9999C525.889 19.4999 525.889 19.9999 526.386 19.4999C526.884 19.4999 526.884 18.9999 526.884 18.9999V19.4999H526.386L525.889 18.9999H526.386L526.884 18.4999V17.9999V17.4999C526.884 17.4999 526.386 17.4999 526.884 17.9999H527.382C527.382 17.9999 527.382 17.9999 526.884 17.9999C526.884 17.9999 526.386 17.4999 526.386 17.9999V18.4999C526.386 18.4999 526.386 18.4999 525.889 18.9999C526.386 18.4999 525.889 18.4999 525.391 18.9999Z" fill="#91857C"/>
<path d="M526.386 19.4999C525.889 19.4999 525.889 18.9999 525.889 18.9999H525.391H524.893H525.391C525.391 19.4999 525.889 18.9999 525.889 18.9999C525.889 18.9999 525.889 19.4999 526.386 19.4999H526.884H527.382C527.879 19.4999 527.879 18.9999 527.879 18.9999C527.879 18.9999 527.879 18.9999 527.879 19.4999C527.879 19.4999 527.382 19.4999 527.382 19.9999C527.382 19.9999 527.382 19.9999 527.382 19.4999C527.382 19.4999 527.382 19.4999 527.382 18.9999L527.879 18.4999V17.9999C527.879 17.9999 527.879 17.9999 527.879 18.4999C527.879 18.4999 527.879 18.9999 527.382 18.9999C527.382 18.9999 527.382 18.9999 526.884 18.9999C526.884 18.9999 526.884 18.9999 526.884 19.4999L527.382 18.9999V18.4999V18.9999L526.884 19.4999H526.386ZM524.396 19.4999C524.396 19.4999 524.396 18.9999 524.396 19.4999C524.893 18.9999 524.893 18.4999 525.391 18.9999H525.889C526.386 18.9999 526.386 18.9999 526.884 18.9999C526.884 18.4999 527.382 18.4999 527.382 18.4999C527.382 18.4999 527.382 18.4999 527.382 17.9999C527.382 17.9999 527.382 17.9999 527.879 17.9999C527.879 17.9999 527.879 17.9999 527.382 17.9999V18.4999C527.382 18.4999 527.382 18.4999 526.884 18.9999C526.386 18.4999 526.386 18.4999 525.889 18.9999H525.391C524.893 18.4999 524.893 18.9999 524.396 19.4999C524.396 19.4999 524.396 18.9999 524.396 19.4999ZM527.382 17.9999C527.382 17.9999 527.382 17.4999 527.382 17.9999C527.382 17.4999 527.382 17.4999 527.382 17.4999C527.382 17.4999 527.382 17.4999 527.382 17.9999C527.382 17.4999 527.382 17.4999 527.382 17.9999Z" fill="black"/>
<path d="M524.396 17.9998V18.4998H524.893H525.391H525.889H525.391C524.893 18.4998 524.893 18.4998 524.396 17.9998C524.893 17.9998 525.391 17.9998 524.396 17.9998C524.396 17.9998 524.893 17.4998 524.396 17.9998Z" fill="#91857C"/>
<path d="M526.386 18.9998C525.888 18.9998 525.888 18.9998 526.386 18.9998C525.888 18.9998 525.391 18.9998 525.391 18.9998H524.893V18.4998C524.893 18.4998 524.893 18.4998 524.893 17.9998C524.893 17.9998 525.391 17.4998 525.391 17.9998V18.4998C525.391 18.4998 525.391 18.4998 526.386 18.9998C526.386 18.4998 525.888 18.4998 526.386 18.9998ZM525.888 18.4998C526.386 18.4998 525.888 18.4998 525.888 18.4998H525.391V17.9998H524.893C524.893 17.9998 524.893 17.9998 524.893 18.4998V18.9998C525.391 18.4998 525.391 18.4998 525.888 18.4998Z" fill="black"/>
<path d="M523.399 17.4998C522.902 17.4998 522.902 16.9998 522.404 17.4998C522.404 17.4998 522.404 17.9998 522.404 18.4998C522.404 18.4998 522.404 18.9998 521.906 18.9998V18.4998V17.9998C521.906 17.9998 522.404 17.9998 522.404 17.4998L521.906 16.9998C522.902 17.4998 522.902 17.9998 523.399 17.4998Z" fill="#91857C"/>
<path d="M522.404 19.4998C522.404 18.9998 522.404 18.9998 522.404 19.4998C522.404 18.9998 522.404 18.9998 522.404 19.4998C522.902 18.9998 522.404 18.9998 522.404 18.9998C522.404 18.9998 522.902 18.9998 522.902 18.4998C522.902 18.4998 522.902 18.4998 522.902 17.9998C522.902 17.9998 522.902 17.9998 522.902 18.4998L522.404 18.9998C522.404 18.4998 522.902 18.9998 522.404 19.4998C522.404 18.9998 522.404 18.9998 522.404 19.4998C522.404 18.9998 522.404 18.9998 522.404 19.4998ZM521.906 18.4998C521.906 17.9998 521.906 17.9998 521.906 17.9998V17.4998V16.9998C522.404 16.9998 522.404 16.9998 522.404 16.9998H522.902H522.404H521.906V17.4998V17.9998C522.404 18.4998 522.404 18.4998 521.906 18.4998Z" fill="black"/>
<path d="M524.395 14.4999C523.897 14.4999 523.399 14.4999 522.902 13.9999H522.404L521.906 14.4999C522.404 14.4999 521.906 14.9999 522.404 15.4999C521.906 15.4999 521.906 15.9999 521.906 15.9999C521.906 15.9999 521.906 16.4999 521.906 15.9999C522.404 16.4999 522.902 15.4999 522.902 15.4999C523.399 15.4999 523.897 14.9999 523.897 14.9999L524.395 14.4999Z" fill="#91857C"/>
<path d="M522.404 16.4999C522.404 16.4999 521.906 16.4999 522.404 16.4999C521.906 15.9999 521.906 15.9999 521.906 15.9999C521.906 15.9999 521.906 15.4999 522.404 15.4999C522.404 15.4999 522.404 15.4999 522.404 14.9999C522.404 14.9999 522.404 14.9999 522.902 14.9999C522.902 14.9999 522.902 14.9999 523.399 14.9999C523.399 14.9999 523.897 14.9999 524.395 14.9999C524.892 14.9999 524.892 14.9999 524.892 14.9999L524.395 15.4999C524.395 15.4999 524.395 15.9999 523.399 15.9999C522.902 15.9999 522.902 15.9999 522.404 16.4999ZM521.906 15.9999C522.404 16.4999 522.404 16.4999 522.902 15.9999L523.399 15.4999C523.897 15.4999 523.897 14.9999 523.897 14.9999L524.395 13.9999H523.897C523.399 13.9999 523.399 13.9999 522.902 13.9999H522.404C522.404 13.9999 522.404 13.9999 522.404 14.4999C521.906 15.4999 521.906 15.4999 521.906 15.9999Z" fill="black"/>
<path d="M525.391 14.4997C525.391 14.4997 525.391 14.9997 524.893 14.9997L524.396 14.4997C524.396 13.9997 524.396 13.9997 524.893 13.9997C525.391 13.4997 525.391 13.9997 525.391 14.4997Z" fill="#91857C"/>
<path d="M524.893 14.9999L524.396 14.4999C524.396 13.9999 525.391 13.9999 525.391 14.4999C525.391 14.4999 525.391 14.9999 524.893 14.9999ZM524.893 13.9999C524.396 13.9999 524.396 13.9999 524.396 14.4999C524.396 14.9999 525.391 14.9999 525.391 14.4999C525.391 13.9999 525.391 13.9999 524.893 13.9999Z" fill="black"/>
<path d="M523.898 18.4997C523.401 18.4997 522.903 17.9997 522.903 17.4997C523.401 16.4998 524.894 16.9998 525.391 15.9998C525.391 15.4998 525.391 14.9998 525.889 14.4998H526.387C526.884 14.4998 526.884 14.4998 527.382 14.4998C527.382 14.4998 527.382 14.4998 527.382 14.9998C527.382 14.9998 527.382 14.9998 526.884 14.9998H526.387C526.387 14.9998 526.884 15.4998 526.884 15.9998L527.382 16.4998C527.382 16.4998 527.88 16.4998 527.88 15.9998C527.88 15.9998 528.378 15.9998 528.875 16.4998L529.373 16.9998H528.875C528.875 16.9998 528.378 16.4998 527.88 16.9998C527.88 17.4998 527.382 17.4997 527.382 17.4997H527.88L528.378 17.9997L528.875 18.4997C528.875 18.4997 528.378 18.4997 528.378 17.9997C528.378 18.4997 528.378 17.9997 527.88 17.4997C527.88 17.4997 527.88 17.4997 527.382 17.4997C526.884 17.4997 526.884 17.4997 526.387 17.4997C525.889 17.4997 525.889 17.9997 525.391 17.9997C524.894 17.9997 524.894 17.4997 524.894 17.4997V17.9997C524.894 17.9997 524.396 18.4997 523.898 18.4997C524.396 18.9997 524.894 18.9997 524.894 18.9997C524.894 18.9997 524.894 18.9997 525.391 18.9997V19.4997C525.391 19.4997 525.391 19.4997 524.894 19.4997C524.396 18.9997 523.898 18.9997 523.898 18.9997C523.898 18.9997 524.396 18.4997 523.898 18.4997Z" fill="#91857C"/>
<path d="M525.391 19.4999C524.396 18.9999 524.396 18.9999 524.396 18.9999C524.396 18.9999 524.396 18.9999 525.391 19.4999ZM525.391 18.9999C524.894 18.9999 524.894 18.4999 524.894 18.4999C524.894 18.4999 524.894 18.4999 524.894 17.9999V18.4999C524.396 18.9999 524.894 18.9999 525.391 18.9999C524.894 18.9999 524.894 18.9999 525.391 18.9999ZM523.898 18.9999C523.898 18.4999 523.898 18.4999 523.898 18.4999C523.401 18.4999 522.903 17.9999 522.903 17.4999C522.903 16.9999 523.401 16.4999 523.898 16.4999C524.396 16.4999 524.894 16.4999 524.894 15.9999C524.894 15.4999 524.894 14.9999 525.391 14.4999C525.391 14.4999 525.889 14.4999 525.889 13.9999C525.889 13.9999 525.889 13.9999 525.391 13.9999C525.391 14.9999 525.391 15.4999 525.391 15.9999C524.894 16.4999 524.894 16.4999 524.396 16.4999C523.898 16.4999 523.401 16.4999 523.401 17.4999C523.401 17.9999 523.898 17.9999 524.396 18.4999C524.396 18.4999 523.898 18.4999 523.898 18.9999ZM524.894 17.9999C524.894 17.4999 525.391 17.4999 524.894 17.9999C525.391 17.9999 525.391 17.4999 525.391 17.4999H525.889C526.387 17.4999 526.387 17.4999 526.884 17.4999H527.382C527.382 17.4999 527.88 17.4999 527.88 17.9999C527.88 17.9999 527.88 17.9999 527.382 17.4999H526.884H526.387C525.889 17.4999 525.889 17.4999 525.889 17.4999C525.391 17.4999 525.391 17.4999 524.894 17.9999C525.391 17.9999 525.391 17.4999 524.894 17.9999ZM528.378 17.4999C527.88 17.4999 527.88 17.4999 528.378 17.4999C527.88 17.4999 528.378 17.4999 528.378 17.4999C528.378 16.9999 527.88 16.9999 527.382 16.4999H526.884H527.382C527.88 16.9999 527.88 17.4999 528.378 17.4999ZM526.884 16.4999V15.9999C527.382 15.9999 527.382 15.9999 527.382 15.9999H527.88C527.88 15.9999 527.88 15.9999 527.382 15.9999H526.884C527.382 15.9999 526.884 15.9999 526.884 16.4999C526.884 15.9999 526.387 15.9999 526.387 15.4999C526.387 15.4999 525.889 14.9999 525.889 14.4999H526.387H526.884C526.884 14.4999 526.884 14.4999 526.884 13.9999C526.884 13.9999 526.884 13.9999 526.387 13.9999H525.889H526.387C526.387 13.9999 526.387 13.9999 526.884 13.9999C526.884 13.9999 526.884 13.9999 526.884 14.4999C526.884 14.4999 526.884 14.4999 526.387 14.4999H525.889C525.889 14.4999 526.387 14.9999 526.387 15.4999L526.884 15.9999C526.884 15.9999 527.382 15.9999 527.382 15.4999H527.88C527.88 15.4999 527.88 15.4999 528.378 15.4999L528.875 15.9999H528.378H527.88C527.382 16.4999 526.884 16.4999 526.884 16.4999Z" fill="black"/>
<path d="M522.903 16L523.401 16.5L523.898 17L524.396 17.5H523.898L522.903 16C522.903 16 522.903 16.5 522.903 16Z" fill="#91857C"/>
<path d="M524.396 17.5H523.898L522.903 16.5H523.401L524.396 17.5ZM522.903 16L523.898 17H524.396V16.5L522.903 16Z" fill="black"/>
<path d="M527.381 17.4999C526.883 17.4999 526.386 17.9999 526.386 17.9999L526.883 18.4999C526.883 18.4999 526.883 17.9999 527.381 17.4999Z" fill="#91857C"/>
<path d="M526.883 18.4999L526.386 17.9999C526.386 17.9999 526.883 17.4999 527.381 17.4999C526.883 17.4999 526.386 17.9999 526.386 17.9999L526.883 18.4999C526.883 17.9999 526.883 17.4999 527.381 17.4999C526.883 17.9999 526.883 18.4999 526.883 18.4999Z" fill="black"/>
<path d="M523.898 15.4998V15.9998C523.898 15.9998 523.898 16.4998 524.396 16.4998H525.391C525.391 16.9998 525.889 16.9998 525.889 17.4998H526.386L525.889 16.9998C525.889 16.9998 525.391 16.4998 525.391 15.9998C525.391 16.4998 524.893 16.4998 524.893 16.4998V15.9998V14.9998C524.893 14.9998 524.893 14.4998 524.396 14.4998C524.893 13.9998 524.893 14.4998 524.893 14.4998C524.893 14.4998 524.893 14.4998 524.396 14.4998C523.898 14.4998 523.898 14.9998 523.898 15.4998C523.4 14.9998 523.898 14.9998 523.898 15.4998C523.4 15.4998 523.4 15.4998 522.902 15.4998C522.405 15.4998 522.405 15.9998 522.405 15.9998C522.405 15.9998 523.4 15.4998 523.898 15.4998Z" fill="#91857C"/>
<path d="M526.387 17.9997C526.884 17.9997 526.387 17.9997 526.387 17.9997C526.387 17.4997 526.387 17.4997 525.889 17.4997C525.889 17.4997 525.391 16.9998 525.391 16.4998C525.391 16.4998 524.894 16.4998 524.894 16.4998V15.4998V14.9998L525.391 14.4998C525.391 14.4998 525.391 14.4998 524.894 14.4998V14.9998H524.396C524.396 14.9998 523.898 14.9998 523.898 15.4998C523.898 15.4998 523.898 15.4998 523.401 15.9998C522.903 15.9998 522.903 16.4998 522.903 16.4998C522.903 16.4998 522.903 15.9998 523.401 15.9998C523.401 15.9998 523.401 15.4998 523.898 15.4998C523.898 15.4998 523.898 15.4998 524.396 15.4998C524.396 15.4998 524.396 15.4998 524.894 14.9998H525.391C525.391 14.9998 525.391 14.9998 525.391 14.4998C525.391 14.4998 525.391 14.4998 525.889 14.4998C525.889 14.4998 526.387 14.4998 526.387 14.9998C526.387 14.9998 526.387 14.9998 526.387 15.4998V16.9998C526.387 16.9998 526.884 16.9998 526.884 17.4997C526.884 17.9997 527.382 18.4997 527.382 18.4997C526.387 17.4997 526.387 17.4997 526.387 17.9997C526.884 17.9997 526.884 17.9997 526.387 17.9997ZM525.391 16.9998C524.894 16.9998 524.396 16.9998 524.396 16.9998L523.898 16.4998V15.9998C523.898 15.9998 523.898 15.9998 523.401 15.9998L522.903 16.4998V16.9998C522.903 16.4998 522.903 16.4998 522.903 16.4998C522.903 16.4998 523.401 16.4998 523.401 15.9998H523.898V16.4998C523.898 16.4998 523.898 16.9998 524.396 16.9998C524.396 16.4998 524.894 16.9998 525.391 16.9998Z" fill="black"/>
<path d="M523.399 14.4998C523.399 13.9998 523.897 14.4998 523.399 14.4998C523.897 14.4998 523.897 13.9998 524.395 14.4998H524.893C524.893 14.4998 524.893 14.4998 525.39 14.4998C525.888 14.4998 525.888 14.9998 525.888 14.9998H525.39C525.39 14.9998 524.893 14.9998 524.893 15.4998C523.897 14.4998 523.897 14.4998 523.399 14.4998Z" fill="#91857C"/>
<path d="M524.394 14.4999C524.394 14.4999 523.897 14.4999 524.394 14.4999C523.897 14.4999 523.897 14.4999 523.897 14.4999C523.897 14.4999 523.897 14.4999 524.394 14.4999C524.394 14.4999 523.897 14.4999 524.394 14.4999H524.892C524.892 14.4999 524.892 14.4999 525.39 14.4999C525.39 14.4999 525.39 13.9999 524.892 13.9999H524.394C524.892 13.9999 524.394 13.9999 524.394 14.4999C523.897 14.4999 523.897 13.9999 524.394 14.4999C523.897 13.9999 523.897 13.9999 523.897 14.4999C523.399 13.9999 523.897 13.9999 524.394 14.4999C523.897 13.9999 523.897 13.9999 524.394 14.4999C524.892 13.9999 524.394 13.9999 524.394 14.4999C524.892 13.9999 524.892 13.9999 524.892 13.9999H525.39C525.39 13.9999 525.39 13.9999 524.892 13.9999C524.892 13.9999 524.892 13.9999 524.394 13.9999V14.4999Z" fill="black"/>
<path d="M524.395 14.4998C524.893 14.9998 524.893 14.9998 524.893 14.9998V15.9998L524.395 15.4998C524.395 15.4998 524.395 15.4998 524.395 14.4998C523.897 14.9998 524.395 14.9998 524.395 14.4998Z" fill="#91857C"/>
<path d="M525.391 15.9998C524.893 15.9998 524.893 15.9998 525.391 15.9998C524.893 15.9998 524.893 15.9998 524.395 15.4998C524.395 15.4998 524.395 15.4998 524.395 14.9998L523.897 14.4998C523.897 14.4998 523.897 14.4998 524.395 14.4998H523.897V14.9998C524.893 15.9998 524.893 15.9998 525.391 15.9998C524.893 15.9998 524.893 15.9998 525.391 15.9998Z" fill="black"/>
<path d="M525.889 14.4998C525.889 13.9998 525.391 14.4998 525.889 14.4998L525.391 14.9998V15.4998V15.9998V16.4998V15.9998C525.391 15.9998 525.391 15.9998 525.391 15.4998C525.391 14.9998 525.889 14.4998 525.889 14.4998Z" fill="#91857C"/>
<path d="M524.893 15.9998V14.9998L525.391 14.4998C525.391 14.4998 525.391 14.4998 525.391 14.9998C525.391 14.9998 525.391 15.4998 524.893 15.4998C524.893 15.9998 524.893 15.9998 524.893 15.9998C525.391 15.4998 525.391 15.9998 524.893 15.9998C525.391 15.9998 525.391 15.9998 524.893 15.9998ZM525.888 14.4998L525.391 14.9998V15.4998V15.9998V16.4998V15.9998C525.391 15.9998 525.391 15.9998 525.391 15.4998C525.391 14.9998 525.391 14.4998 525.888 14.4998C525.888 14.4998 525.391 14.4998 525.888 14.4998Z" fill="black"/>
<path d="M526.386 14.9999C526.386 14.9999 525.888 15.4999 524.893 15.9999V14.9999V15.4999C525.888 15.4999 526.386 14.9999 526.386 14.9999Z" fill="#91857C"/>
<path d="M525.391 15.9999C524.893 15.4999 524.893 15.4999 524.893 15.4999C524.893 15.4999 524.893 15.4999 525.391 15.9999C525.888 15.9999 526.386 15.4999 526.884 14.9999C526.386 15.4999 525.888 15.9999 525.391 15.9999ZM525.391 15.9999C525.888 15.4999 526.386 14.9999 526.386 14.9999C526.386 14.9999 525.888 15.4999 525.391 15.9999Z" fill="black"/>
<path d="M526.884 19C526.884 19 526.387 19 526.884 19C526.387 19 526.387 18.5 526.387 18.5H525.889C525.889 18.5 525.889 18.5 525.391 18.5C526.387 17.5 526.884 18.5 526.884 19Z" fill="#91857C"/>
<path d="M526.884 18.9998C526.387 18.9998 526.387 18.9998 526.884 18.9998C526.387 18.9998 526.387 18.4998 526.884 18.9998L525.889 18.4998H525.391C526.387 17.4998 526.884 18.4998 526.884 18.9998C527.382 18.4998 526.387 17.9998 525.889 17.9998H525.391H525.889C525.889 17.9998 525.889 17.9998 526.387 17.9998L526.884 18.9998C526.387 18.9998 526.387 18.4998 526.884 18.9998C526.884 18.9998 526.387 18.9998 526.884 18.9998Z" fill="black"/>
<path d="M527.382 18.9999C527.382 18.9999 527.382 19.4999 527.382 18.9999C527.88 19.4999 527.88 18.9999 527.382 18.9999C527.88 18.9999 527.88 18.9999 527.88 18.9999C527.88 18.9999 527.88 19.4999 527.382 18.9999Z" fill="#91857C"/>
<path d="M527.88 19.4999C527.382 19.4999 527.382 19.4999 527.88 19.4999C527.382 19.4999 527.382 19.4999 527.88 19.4999C527.88 19.4999 527.88 18.9999 527.88 19.4999C527.382 18.9999 527.382 19.4999 527.88 19.4999C527.88 19.4999 527.382 18.9999 527.88 19.4999C527.88 18.9999 527.88 19.4999 527.88 19.4999C527.88 18.9999 527.88 18.9999 527.88 19.4999Z" fill="black"/>
<path d="M525.391 18.9999C525.391 19.4999 525.391 19.4999 525.391 18.9999C525.391 19.4999 525.391 19.4999 525.391 18.9999C525.889 19.4999 525.391 19.4999 525.391 18.9999C525.889 19.4999 525.889 19.4999 525.889 19.4999C525.889 19.4999 525.889 19.4999 525.391 18.9999C525.889 19.4999 525.889 19.4999 525.391 18.9999Z" fill="#91857C"/>
<path d="M520.415 18.4999C520.912 17.9999 520.912 17.9999 520.415 18.4999C520.415 17.9999 520.415 17.9999 520.415 18.4999C520.912 17.9999 520.912 17.9999 520.415 18.4999C520.912 17.9999 520.912 17.9999 520.415 18.4999C520.912 17.9999 520.912 17.9999 520.415 18.4999H520.912V18.9999L520.415 18.4999C520.415 17.9999 520.415 17.9999 520.415 18.4999C520.415 17.9999 520.415 17.9999 520.415 18.4999C520.415 17.9999 520.415 17.9999 520.415 18.4999ZM520.415 16.9999C520.415 16.9999 520.415 16.4999 520.415 16.9999C520.415 16.4999 520.415 16.4999 520.415 16.9999C520.912 16.4999 520.912 16.4999 521.41 16.9999C521.41 16.9999 521.41 16.9999 521.41 17.4999C521.41 17.4999 521.41 17.4999 521.41 17.9999C520.912 17.4999 520.912 17.4999 520.415 16.9999C520.415 17.4999 520.415 17.4999 520.415 16.9999ZM520.415 16.9999C520.912 17.4999 520.912 17.4999 520.912 16.9999C520.912 16.4999 520.912 16.4999 520.415 16.9999C520.415 16.4999 520.415 16.4999 520.415 16.9999ZM521.41 15.4999H520.912C520.912 15.4999 521.41 15.9999 521.41 15.4999V15.9999H520.912V15.4999H521.41ZM520.912 15.4999C520.415 15.4999 520.415 15.4999 520.912 15.4999C520.415 15.4999 520.415 15.4999 520.912 15.4999ZM522.903 12.9999C522.405 12.9999 522.405 12.9999 522.903 12.9999C522.405 12.9999 522.405 12.9999 522.903 12.9999C522.405 13.4999 522.405 13.4999 522.405 13.4999C522.903 13.4999 522.903 13.4999 522.903 12.9999C522.903 13.4999 522.903 13.4999 522.903 12.9999C522.903 13.4999 522.903 13.4999 522.903 12.9999C522.903 13.4999 522.903 13.4999 522.903 12.9999L523.401 13.4999H522.903C522.405 13.4999 522.405 13.4999 522.903 12.9999C522.405 12.9999 522.405 12.9999 522.903 12.9999C522.405 12.9999 522.405 12.9999 522.903 12.9999C522.405 12.9999 522.405 12.9999 522.903 12.9999ZM523.898 12.9999C523.898 12.9999 523.898 13.4999 523.898 12.9999C523.898 13.4999 523.898 13.4999 523.898 12.9999C523.898 13.4999 523.898 13.4999 523.898 12.9999C523.898 13.4999 523.401 13.4999 523.898 12.9999C523.898 13.4999 523.898 13.4999 523.898 12.9999V12.4999V12.9999C524.396 12.9999 524.396 12.9999 523.898 12.9999C524.396 12.9999 524.396 12.9999 523.898 12.9999C524.396 12.9999 524.396 12.9999 523.898 12.9999C524.396 12.9999 524.396 12.9999 523.898 12.9999C524.396 12.9999 524.396 12.9999 523.898 12.9999ZM525.392 12.9999H524.894V12.4999H525.392C524.894 12.4999 524.894 12.4999 525.392 12.9999C524.894 12.9999 524.894 12.9999 525.392 12.9999C524.894 12.9999 524.894 12.9999 525.392 12.9999ZM526.885 12.9999H525.889V12.4999H526.387L526.885 12.9999C526.387 12.9999 526.387 12.9999 526.885 12.9999C526.387 13.4999 526.387 13.4999 526.885 12.9999C526.387 13.4999 526.387 13.4999 526.885 12.9999C526.387 13.4999 526.387 13.4999 526.885 12.9999C526.387 13.4999 526.387 13.4999 526.885 12.9999C526.885 13.4999 526.885 13.4999 526.885 12.9999ZM527.88 13.4999C527.382 13.4999 527.382 13.4999 527.88 13.4999C527.382 13.4999 527.382 13.4999 527.88 13.4999C527.382 13.4999 527.382 13.4999 527.88 13.4999H527.382C527.382 13.4999 527.382 13.4999 527.88 13.4999V12.9999V13.4999C527.88 13.9999 527.88 13.9999 527.88 13.4999C527.88 13.9999 527.88 13.9999 527.88 13.4999C527.382 13.9999 527.382 13.9999 527.88 13.4999C527.382 13.9999 527.382 13.9999 527.88 13.4999C527.88 13.9999 527.382 13.9999 527.88 13.4999ZM528.876 13.9999V14.9999L529.373 14.4999L528.378 14.9999L528.876 13.9999L528.378 14.4999V13.9999H528.876ZM529.871 15.9999C529.373 15.9999 529.871 15.9999 529.871 15.9999H528.876V15.4999L529.871 15.9999C529.871 15.4999 529.373 15.4999 529.373 15.4999L529.871 15.9999ZM528.876 17.4999L529.373 16.9999H528.876V17.4999V16.4999H529.373V16.9999C529.373 16.9999 529.373 16.9999 528.876 17.4999C529.373 17.4999 529.373 16.9999 528.876 17.4999C529.373 17.4999 529.373 17.4999 528.876 17.4999ZM529.373 16.9999C529.373 16.9999 529.871 16.9999 529.373 16.9999C529.871 16.9999 529.871 16.9999 529.373 16.9999C529.871 16.9999 529.871 16.9999 529.373 16.9999C529.871 16.9999 529.871 16.9999 529.373 16.9999ZM529.871 18.4999C529.871 18.9999 529.871 18.9999 529.871 18.4999C529.871 18.9999 529.871 18.4999 529.871 18.4999C529.373 18.4999 529.373 18.4999 529.871 18.4999H528.876V17.9999L529.871 18.4999C529.871 17.9999 529.871 17.9999 529.871 17.9999V18.4999C529.871 17.9999 529.871 17.9999 529.871 18.4999C529.871 17.9999 529.871 17.9999 529.871 18.4999C529.871 18.4999 529.373 18.4999 529.871 18.4999Z" fill="black"/>
<path d="M1344.43 0H1260.81V97.9998H1344.43V0Z" fill="#BD0034"/>
<path d="M1260.81 0H1177.2V97.9998H1260.81V0Z" fill="white"/>
<path d="M1196.61 14.9999C1196.61 14.9999 1196.11 14.9999 1196.61 14.9999C1196.11 14.9999 1195.61 14.9999 1195.61 14.9999C1195.61 14.9999 1196.11 14.4999 1196.61 14.9999C1196.61 14.9999 1196.11 14.4999 1196.61 14.9999Z" fill="#EFECEC"/>
<path d="M1184.17 13.4999V20.4998H1191.13C1191.13 21.4998 1192.13 22.9998 1193.62 22.9998V29.9998H1200.59V22.9998C1201.59 22.9998 1203.08 21.9998 1203.08 20.4998H1210.05V13.4999H1203.08C1203.08 12.4999 1202.08 10.9999 1200.59 10.9999V3.99988H1193.62V10.9999C1192.63 10.9999 1191.13 11.9999 1191.13 13.4999H1184.17Z" fill="#D30038"/>
<path d="M1184.17 13.9999V20.4998H1191.13C1191.13 21.4998 1192.13 22.9998 1193.62 22.9998V29.9998H1200.09V22.9998C1201.09 22.9998 1202.58 21.9998 1202.58 20.4998H1209.55V13.9999H1203.08C1203.08 12.9999 1202.08 11.4999 1200.59 11.4999V3.99988H1194.12V10.9999C1193.12 10.9999 1191.63 11.9999 1191.63 13.4999H1184.17V13.9999Z" fill="#BD0034"/>
<path d="M1184.66 13.9997V19.9997H1191.63C1191.63 20.9997 1192.63 22.4997 1194.12 22.4997V29.9997H1200.59V22.4997C1201.59 22.4997 1203.08 21.4997 1203.08 19.9997H1210.05V13.9997H1202.58C1202.58 12.9997 1201.59 11.4997 1200.09 11.4997V4.49976H1194.12V11.4997C1193.13 11.4997 1191.63 12.4997 1191.63 13.9997H1184.66Z" fill="#91857C"/>
<path d="M1184.66 14.4997V19.9997H1192.13C1192.13 20.9997 1193.13 22.4997 1194.62 22.4997V29.4997H1200.59V22.4997C1201.59 22.4997 1203.08 21.4997 1203.08 19.9997H1210.05V14.4997H1202.58C1202.58 13.4997 1201.59 11.9997 1200.09 11.9997V4.49976H1194.62V11.4997C1193.13 11.9997 1192.13 12.9997 1192.13 14.4997H1184.66Z" fill="#CACACA"/>
<path d="M1194.62 11.4999C1195.11 11.9999 1194.62 12.9999 1193.62 13.9999C1193.12 14.4999 1191.63 14.4999 1191.63 14.4999C1191.13 13.9999 1191.13 12.9999 1192.13 11.9999C1193.12 10.9999 1194.12 10.9999 1194.62 11.4999Z" fill="#CECECE"/>
<path d="M1194.12 12C1194.62 12.5 1194.62 13 1193.62 14C1193.12 14 1192.63 14 1192.13 14C1191.63 13.5 1191.63 12.5 1192.13 12C1192.63 11.5 1193.62 11.5 1194.12 12Z" fill="#91857C"/>
<path d="M1191.63 12.9999H1192.13H1192.63V12.4999L1193.12 13.4999L1191.63 12.9999Z" fill="#CECECE"/>
<path d="M1193.12 11.9998L1194.12 12.9998L1193.12 11.9998Z" fill="#CECECE"/>
<path d="M1203.08 14.4997C1202.58 14.9997 1201.59 14.4997 1200.59 13.4997C1200.09 12.4997 1199.6 11.4997 1200.09 11.4997C1200.59 10.9997 1201.59 11.4997 1202.58 12.4997C1203.08 12.9997 1203.58 13.9997 1203.08 14.4997Z" fill="#CECECE"/>
<path d="M1202.58 13.9999C1202.08 13.9999 1201.59 13.9999 1201.09 13.4999C1200.59 12.9999 1200.59 11.9999 1201.09 11.4999C1201.09 11.4999 1202.08 11.4999 1202.58 11.9999C1203.08 12.4999 1203.08 13.4999 1202.58 13.9999Z" fill="#91857C"/>
<path d="M1201.58 11.4999V11.9999L1201.09 12.4999L1202.08 11.9999V12.4999L1200.59 12.9999L1201.58 11.4999Z" fill="#CECECE"/>
<path d="M1202.58 12.4999V12.9999L1201.59 13.9999V13.4999L1202.58 12.4999Z" fill="#CECECE"/>
<path d="M1200.09 22.9998C1199.59 22.4998 1200.09 21.4998 1201.09 20.4998C1201.59 19.9998 1202.58 19.4998 1203.08 19.9998C1203.58 20.4998 1203.08 21.4998 1202.08 22.4998C1201.59 22.9998 1200.59 23.4998 1200.09 22.9998Z" fill="#CECECE"/>
<path d="M1200.59 22.4998C1200.09 21.9998 1200.09 21.4998 1200.59 20.4998C1201.59 19.9998 1202.08 19.9998 1202.58 20.4998C1203.08 20.9998 1203.08 21.4998 1202.08 22.4998C1202.08 22.9997 1201.09 22.9997 1200.59 22.4998Z" fill="#91857C"/>
<path d="M1202.58 20.9998V21.4998L1202.08 20.9998V21.4998V21.9998L1201.59 20.4998L1202.58 20.9998Z" fill="#CECECE"/>
<path d="M1201.58 22.4999L1200.59 21.4999V20.9999L1201.58 22.4999Z" fill="#CECECE"/>
<path d="M1191.63 19.9999C1192.13 19.4999 1193.12 19.9999 1194.12 20.9999C1195.11 21.9999 1195.11 22.9999 1195.11 23.4999C1194.12 23.4999 1193.12 22.9999 1192.13 22.4999C1191.13 21.4999 1191.13 20.4999 1191.63 19.9999Z" fill="#CECECE"/>
<path d="M1192.13 20.4998C1192.63 19.9998 1193.12 19.9998 1193.62 20.4998C1194.12 20.9998 1194.12 21.9998 1194.12 22.4998C1194.12 22.9997 1192.63 22.9997 1192.13 22.4998C1191.63 21.4998 1191.63 20.9998 1192.13 20.4998Z" fill="#91857C"/>
<path d="M1193.13 22.4999L1193.62 21.4999L1192.63 21.9999L1194.12 20.9999L1193.13 22.4999Z" fill="#CECECE"/>
<path d="M1192.13 21.4998L1193.12 20.4998L1192.13 21.4998Z" fill="#CECECE"/>
<path d="M1197.11 21.9997C1194.12 21.9997 1192.13 19.4997 1192.13 16.9997C1192.13 13.9998 1194.62 11.9998 1197.11 11.9998C1198.6 11.9998 1199.59 12.4998 1200.59 13.4998C1202.08 14.4997 1202.58 15.9997 1202.58 16.9997C1202.58 18.4997 1202.08 19.9997 1201.09 20.4997C1200.09 21.4997 1198.6 21.9997 1197.11 21.9997ZM1197.11 11.9998C1194.12 11.9998 1192.13 13.9998 1192.13 16.9997C1192.13 19.9997 1194.12 21.9997 1197.11 21.9997C1198.6 21.9997 1199.59 21.4997 1200.59 20.4997C1201.59 19.4997 1202.08 18.4997 1202.08 16.9997C1202.08 15.4997 1201.59 14.4997 1200.59 13.4998C1200.09 12.4998 1198.6 11.9998 1197.11 11.9998Z" fill="#91857C"/>
<path d="M1197.11 21C1195.11 21 1193.12 19.5 1193.12 17C1193.12 14.5 1195.11 13.5 1197.11 13.5C1199.1 13.5 1201.09 15 1201.09 17.5C1201.09 20 1199.59 21 1197.11 21ZM1197.11 13.5C1195.11 13.5 1193.62 15 1193.62 17C1193.62 19 1195.11 21 1197.6 21C1199.59 21 1201.59 19.5 1201.59 17C1201.09 15 1199.59 13.5 1197.11 13.5Z" fill="#91857C"/>
<path d="M1195.61 20.9999C1195.61 21.4999 1195.61 21.4999 1195.61 20.9999C1195.61 21.4999 1195.12 21.4999 1195.61 20.9999C1195.12 21.4999 1195.12 21.4999 1195.61 20.9999C1195.12 20.9999 1195.12 20.9999 1195.61 20.9999C1195.61 20.9999 1195.12 20.9999 1195.61 20.9999Z" fill="black"/>
<path d="M1199.59 20.9999C1199.59 21.4999 1199.59 21.4999 1199.59 20.9999C1199.1 21.4999 1199.1 21.4999 1199.59 20.9999C1199.1 21.4999 1199.1 21.4999 1199.59 20.9999C1199.1 20.9999 1199.1 20.9999 1199.59 20.9999C1199.1 20.9999 1199.1 20.9999 1199.59 20.9999Z" fill="black"/>
<path d="M1197.11 20.9998C1196.61 20.9998 1196.61 21.4998 1196.61 21.4998H1197.11C1197.11 21.9998 1197.6 21.9998 1197.6 21.4998V20.9998H1198.1C1198.6 20.9998 1198.6 20.4998 1198.1 20.4998L1197.11 20.9998C1197.11 20.9998 1197.6 20.9998 1197.11 20.9998Z" fill="black"/>
<path d="M1199.6 17.9998C1199.6 17.9998 1199.1 17.4998 1199.6 17.9998C1199.1 17.4998 1199.6 17.9998 1199.6 17.9998Z" fill="#91857C"/>
<path d="M1195.61 19.9999H1199.6L1199.1 19.4999L1198.6 18.9999H1198.1H1197.6L1197.11 19.4999H1196.11H1195.61H1194.62L1196.11 19.9999H1195.12H1195.61Z" fill="#91857C"/>
<path d="M1199.6 19.9999H1195.61H1195.12H1196.11H1194.62H1196.11H1196.61L1197.11 19.4999H1197.6H1198.1L1199.6 19.9999ZM1195.12 19.9999H1199.6H1200.09L1198.1 18.9999H1197.6L1197.11 19.4999H1196.61H1196.11L1195.12 19.9999H1196.11H1195.12Z" fill="black"/>
<path d="M1197.6 18.9999C1197.11 18.4999 1197.11 18.9999 1196.61 19.4999C1197.11 19.4999 1197.11 18.9999 1197.6 18.9999C1198.1 18.9999 1197.6 19.4999 1197.6 18.9999C1198.1 19.4999 1198.1 19.9999 1198.6 19.4999C1199.1 19.4999 1199.1 18.9999 1199.1 18.9999V19.4999H1198.6L1198.1 18.9999H1198.6L1199.1 18.4999V17.9999V17.4999C1199.1 17.4999 1198.6 17.4999 1199.1 17.9999H1199.59C1199.59 17.9999 1199.59 17.9999 1199.1 17.9999C1199.1 17.9999 1198.6 17.4999 1198.6 17.9999V18.4999C1198.6 18.4999 1198.6 18.4999 1198.1 18.9999C1198.6 18.4999 1198.1 18.4999 1197.6 18.9999Z" fill="#91857C"/>
<path d="M1198.6 19.4999C1198.1 19.4999 1198.1 18.9999 1198.1 18.9999H1197.6H1197.11H1197.6C1197.6 19.4999 1198.1 18.9999 1198.1 18.9999C1198.1 18.9999 1198.1 19.4999 1198.6 19.4999H1199.1H1199.59C1200.09 19.4999 1200.09 18.9999 1200.09 18.9999C1200.09 18.9999 1200.09 18.9999 1200.09 19.4999C1200.09 19.4999 1199.59 19.4999 1199.59 19.9999C1199.59 19.9999 1199.59 19.9999 1199.59 19.4999C1199.59 19.4999 1199.59 19.4999 1199.59 18.9999L1200.09 18.4999V17.9999C1200.09 17.9999 1200.09 17.9999 1200.09 18.4999C1200.09 18.4999 1200.09 18.9999 1199.59 18.9999C1199.59 18.9999 1199.59 18.9999 1199.1 18.9999C1199.1 18.9999 1199.1 18.9999 1199.1 19.4999L1199.59 18.9999V18.4999V18.9999L1199.1 19.4999H1198.6ZM1196.61 19.4999C1196.61 19.4999 1196.61 18.9999 1196.61 19.4999C1197.11 18.9999 1197.11 18.4999 1197.6 18.9999H1198.1C1198.6 18.9999 1198.6 18.9999 1199.1 18.9999C1199.1 18.4999 1199.59 18.4999 1199.59 18.4999C1199.59 18.4999 1199.59 18.4999 1199.59 17.9999C1199.59 17.9999 1199.59 17.9999 1200.09 17.9999C1200.09 17.9999 1200.09 17.9999 1199.59 17.9999V18.4999C1199.59 18.4999 1199.59 18.4999 1199.1 18.9999C1198.6 18.4999 1198.6 18.4999 1198.1 18.9999H1197.6C1197.11 18.4999 1197.11 18.9999 1196.61 19.4999C1196.61 19.4999 1196.61 18.9999 1196.61 19.4999ZM1199.59 17.9999C1199.59 17.9999 1199.59 17.4999 1199.59 17.9999C1199.59 17.4999 1199.59 17.4999 1199.59 17.4999C1199.59 17.4999 1199.59 17.4999 1199.59 17.9999C1199.59 17.4999 1199.59 17.4999 1199.59 17.9999Z" fill="black"/>
<path d="M1196.61 17.9998V18.4998H1197.11H1197.6H1198.1H1197.6C1197.11 18.4998 1197.11 18.4998 1196.61 17.9998C1197.11 17.9998 1197.6 17.9998 1196.61 17.9998C1196.61 17.9998 1197.11 17.4998 1196.61 17.9998Z" fill="#91857C"/>
<path d="M1198.6 18.9998C1198.1 18.9998 1198.1 18.9998 1198.6 18.9998C1198.1 18.9998 1197.6 18.9998 1197.6 18.9998H1197.11V18.4998C1197.11 18.4998 1197.11 18.4998 1197.11 17.9998C1197.11 17.9998 1197.6 17.4998 1197.6 17.9998V18.4998C1197.6 18.4998 1197.6 18.4998 1198.6 18.9998C1198.6 18.4998 1198.1 18.4998 1198.6 18.9998ZM1198.1 18.4998C1198.6 18.4998 1198.1 18.4998 1198.1 18.4998H1197.6V17.9998H1197.11C1197.11 17.9998 1197.11 17.9998 1197.11 18.4998V18.9998C1197.6 18.4998 1197.6 18.4998 1198.1 18.4998Z" fill="black"/>
<path d="M1195.61 17.4998C1195.12 17.4998 1195.12 16.9998 1194.62 17.4998C1194.62 17.4998 1194.62 17.9998 1194.62 18.4998C1194.62 18.4998 1194.62 18.9998 1194.12 18.9998V18.4998V17.9998C1194.12 17.9998 1194.62 17.9998 1194.62 17.4998L1194.12 16.9998C1195.12 17.4998 1195.12 17.9998 1195.61 17.4998Z" fill="#91857C"/>
<path d="M1194.62 19.4998C1194.62 18.9998 1194.62 18.9998 1194.62 19.4998C1194.62 18.9998 1194.62 18.9998 1194.62 19.4998C1195.12 18.9998 1194.62 18.9998 1194.62 18.9998C1194.62 18.9998 1195.12 18.9998 1195.12 18.4998C1195.12 18.4998 1195.12 18.4998 1195.12 17.9998C1195.12 17.9998 1195.12 17.9998 1195.12 18.4998L1194.62 18.9998C1194.62 18.4998 1195.12 18.9998 1194.62 19.4998C1194.62 18.9998 1194.62 18.9998 1194.62 19.4998C1194.62 18.9998 1194.62 18.9998 1194.62 19.4998ZM1194.12 18.4998C1194.12 17.9998 1194.12 17.9998 1194.12 17.9998V17.4998V16.9998C1194.62 16.9998 1194.62 16.9998 1194.62 16.9998H1195.12H1194.62H1194.12V17.4998V17.9998C1194.62 18.4998 1194.62 18.4998 1194.12 18.4998Z" fill="black"/>
<path d="M1196.61 14.4999C1196.11 14.4999 1195.61 14.4999 1195.12 13.9999H1194.62L1194.12 14.4999C1194.62 14.4999 1194.12 14.9999 1194.62 15.4999C1194.12 15.4999 1194.12 15.9999 1194.12 15.9999C1194.12 15.9999 1194.12 16.4999 1194.12 15.9999C1194.62 16.4999 1195.12 15.4999 1195.12 15.4999C1195.61 15.4999 1196.11 14.9999 1196.11 14.9999L1196.61 14.4999Z" fill="#91857C"/>
<path d="M1194.62 16.4999C1194.62 16.4999 1194.12 16.4999 1194.62 16.4999C1194.12 15.9999 1194.12 15.9999 1194.12 15.9999C1194.12 15.9999 1194.12 15.4999 1194.62 15.4999C1194.62 15.4999 1194.62 15.4999 1194.62 14.9999C1194.62 14.9999 1194.62 14.9999 1195.12 14.9999C1195.12 14.9999 1195.12 14.9999 1195.61 14.9999C1195.61 14.9999 1196.11 14.9999 1196.61 14.9999C1197.11 14.9999 1197.11 14.9999 1197.11 14.9999L1196.61 15.4999C1196.61 15.4999 1196.61 15.9999 1195.61 15.9999C1195.12 15.9999 1195.12 15.9999 1194.62 16.4999ZM1194.12 15.9999C1194.62 16.4999 1194.62 16.4999 1195.12 15.9999L1195.61 15.4999C1196.11 15.4999 1196.11 14.9999 1196.11 14.9999L1196.61 13.9999H1196.11C1195.61 13.9999 1195.61 13.9999 1195.12 13.9999H1194.62C1194.62 13.9999 1194.62 13.9999 1194.62 14.4999C1194.12 15.4999 1194.12 15.4999 1194.12 15.9999Z" fill="black"/>
<path d="M1197.6 14.4997C1197.6 14.4997 1197.6 14.9997 1197.11 14.9997L1196.61 14.4997C1196.61 13.9997 1196.61 13.9997 1197.11 13.9997C1197.6 13.4997 1197.6 13.9997 1197.6 14.4997Z" fill="#91857C"/>
<path d="M1197.11 14.9999L1196.61 14.4999C1196.61 13.9999 1197.6 13.9999 1197.6 14.4999C1197.6 14.4999 1197.6 14.9999 1197.11 14.9999ZM1197.11 13.9999C1196.61 13.9999 1196.61 13.9999 1196.61 14.4999C1196.61 14.9999 1197.6 14.9999 1197.6 14.4999C1197.6 13.9999 1197.6 13.9999 1197.11 13.9999Z" fill="black"/>
<path d="M1196.11 18.4997C1195.61 18.4997 1195.12 17.9997 1195.12 17.4997C1195.61 16.4998 1197.11 16.9998 1197.6 15.9998C1197.6 15.4998 1197.6 14.9998 1198.1 14.4998H1198.6C1199.1 14.4998 1199.1 14.4998 1199.6 14.4998C1199.6 14.4998 1199.6 14.4998 1199.6 14.9998C1199.6 14.9998 1199.6 14.9998 1199.1 14.9998H1198.6C1198.6 14.9998 1199.1 15.4998 1199.1 15.9998L1199.6 16.4998C1199.6 16.4998 1200.09 16.4998 1200.09 15.9998C1200.09 15.9998 1200.59 15.9998 1201.09 16.4998L1201.59 16.9998H1201.09C1201.09 16.9998 1200.59 16.4998 1200.09 16.9998C1200.09 17.4998 1199.6 17.4997 1199.6 17.4997H1200.09L1200.59 17.9997L1201.09 18.4997C1201.09 18.4997 1200.59 18.4997 1200.59 17.9997C1200.59 18.4997 1200.59 17.9997 1200.09 17.4997C1200.09 17.4997 1200.09 17.4997 1199.6 17.4997C1199.1 17.4997 1199.1 17.4997 1198.6 17.4997C1198.1 17.4997 1198.1 17.9997 1197.6 17.9997C1197.11 17.9997 1197.11 17.4997 1197.11 17.4997V17.9997C1197.11 17.9997 1196.61 18.4997 1196.11 18.4997C1196.61 18.9997 1197.11 18.9997 1197.11 18.9997C1197.11 18.9997 1197.11 18.9997 1197.6 18.9997V19.4997C1197.6 19.4997 1197.6 19.4997 1197.11 19.4997C1196.61 18.9997 1196.11 18.9997 1196.11 18.9997C1196.11 18.9997 1196.61 18.4997 1196.11 18.4997Z" fill="#91857C"/>
<path d="M1197.6 19.4999C1196.61 18.9999 1196.61 18.9999 1196.61 18.9999C1196.61 18.9999 1196.61 18.9999 1197.6 19.4999ZM1197.6 18.9999C1197.11 18.9999 1197.11 18.4999 1197.11 18.4999C1197.11 18.4999 1197.11 18.4999 1197.11 17.9999V18.4999C1196.61 18.9999 1197.11 18.9999 1197.6 18.9999C1197.11 18.9999 1197.11 18.9999 1197.6 18.9999ZM1196.11 18.9999C1196.11 18.4999 1196.11 18.4999 1196.11 18.4999C1195.61 18.4999 1195.12 17.9999 1195.12 17.4999C1195.12 16.9999 1195.61 16.4999 1196.11 16.4999C1196.61 16.4999 1197.11 16.4999 1197.11 15.9999C1197.11 15.4999 1197.11 14.9999 1197.6 14.4999C1197.6 14.4999 1198.1 14.4999 1198.1 13.9999C1198.1 13.9999 1198.1 13.9999 1197.6 13.9999C1197.6 14.9999 1197.6 15.4999 1197.6 15.9999C1197.11 16.4999 1197.11 16.4999 1196.61 16.4999C1196.11 16.4999 1195.61 16.4999 1195.61 17.4999C1195.61 17.9999 1196.11 17.9999 1196.61 18.4999C1196.61 18.4999 1196.11 18.4999 1196.11 18.9999ZM1197.11 17.9999C1197.11 17.4999 1197.6 17.4999 1197.11 17.9999C1197.6 17.9999 1197.6 17.4999 1197.6 17.4999H1198.1C1198.6 17.4999 1198.6 17.4999 1199.1 17.4999H1199.6C1199.6 17.4999 1200.09 17.4999 1200.09 17.9999C1200.09 17.9999 1200.09 17.9999 1199.6 17.4999H1199.1H1198.6C1198.1 17.4999 1198.1 17.4999 1198.1 17.4999C1197.6 17.4999 1197.6 17.4999 1197.11 17.9999C1197.6 17.9999 1197.6 17.4999 1197.11 17.9999ZM1200.59 17.4999C1200.09 17.4999 1200.09 17.4999 1200.59 17.4999C1200.09 17.4999 1200.59 17.4999 1200.59 17.4999C1200.59 16.9999 1200.09 16.9999 1199.6 16.4999H1199.1H1199.6C1200.09 16.9999 1200.09 17.4999 1200.59 17.4999ZM1199.1 16.4999V15.9999C1199.6 15.9999 1199.6 15.9999 1199.6 15.9999H1200.09C1200.09 15.9999 1200.09 15.9999 1199.6 15.9999H1199.1C1199.6 15.9999 1199.1 15.9999 1199.1 16.4999C1199.1 15.9999 1198.6 15.9999 1198.6 15.4999C1198.6 15.4999 1198.1 14.9999 1198.1 14.4999H1198.6H1199.1C1199.1 14.4999 1199.1 14.4999 1199.1 13.9999C1199.1 13.9999 1199.1 13.9999 1198.6 13.9999H1198.1H1198.6C1198.6 13.9999 1198.6 13.9999 1199.1 13.9999C1199.1 13.9999 1199.1 13.9999 1199.1 14.4999C1199.1 14.4999 1199.1 14.4999 1198.6 14.4999H1198.1C1198.1 14.4999 1198.6 14.9999 1198.6 15.4999L1199.1 15.9999C1199.1 15.9999 1199.6 15.9999 1199.6 15.4999H1200.09C1200.09 15.4999 1200.09 15.4999 1200.59 15.4999L1201.09 15.9999H1200.59H1200.09C1199.6 16.4999 1199.1 16.4999 1199.1 16.4999Z" fill="black"/>
<path d="M1195.12 16L1195.61 16.5L1196.11 17L1196.61 17.5H1196.11L1195.12 16C1195.12 16 1195.12 16.5 1195.12 16Z" fill="#91857C"/>
<path d="M1196.61 17.5H1196.11L1195.12 16.5H1195.61L1196.61 17.5ZM1195.12 16L1196.11 17H1196.61V16.5L1195.12 16Z" fill="black"/>
<path d="M1199.59 17.4999C1199.1 17.4999 1198.6 17.9999 1198.6 17.9999L1199.1 18.4999C1199.1 18.4999 1199.1 17.9999 1199.59 17.4999Z" fill="#91857C"/>
<path d="M1199.1 18.4999L1198.6 17.9999C1198.6 17.9999 1199.1 17.4999 1199.59 17.4999C1199.1 17.4999 1198.6 17.9999 1198.6 17.9999L1199.1 18.4999C1199.1 17.9999 1199.1 17.4999 1199.59 17.4999C1199.1 17.9999 1199.1 18.4999 1199.1 18.4999Z" fill="black"/>
<path d="M1196.11 15.4998V15.9998C1196.11 15.9998 1196.11 16.4998 1196.61 16.4998H1197.6C1197.6 16.9998 1198.1 16.9998 1198.1 17.4998H1198.6L1198.1 16.9998C1198.1 16.9998 1197.6 16.4998 1197.6 15.9998C1197.6 16.4998 1197.11 16.4998 1197.11 16.4998V15.9998V14.9998C1197.11 14.9998 1197.11 14.4998 1196.61 14.4998C1197.11 13.9998 1197.11 14.4998 1197.11 14.4998C1197.11 14.4998 1197.11 14.4998 1196.61 14.4998C1196.11 14.4998 1196.11 14.9998 1196.11 15.4998C1195.61 14.9998 1196.11 14.9998 1196.11 15.4998C1195.61 15.4998 1195.61 15.4998 1195.12 15.4998C1194.62 15.4998 1194.62 15.9998 1194.62 15.9998C1194.62 15.9998 1195.61 15.4998 1196.11 15.4998Z" fill="#91857C"/>
<path d="M1198.6 17.9997C1199.1 17.9997 1198.6 17.9997 1198.6 17.9997C1198.6 17.4997 1198.6 17.4997 1198.1 17.4997C1198.1 17.4997 1197.6 16.9998 1197.6 16.4998C1197.6 16.4998 1197.11 16.4998 1197.11 16.4998V15.4998V14.9998L1197.6 14.4998C1197.6 14.4998 1197.6 14.4998 1197.11 14.4998V14.9998H1196.61C1196.61 14.9998 1196.11 14.9998 1196.11 15.4998C1196.11 15.4998 1196.11 15.4998 1195.61 15.9998C1195.12 15.9998 1195.12 16.4998 1195.12 16.4998C1195.12 16.4998 1195.12 15.9998 1195.61 15.9998C1195.61 15.9998 1195.61 15.4998 1196.11 15.4998C1196.11 15.4998 1196.11 15.4998 1196.61 15.4998C1196.61 15.4998 1196.61 15.4998 1197.11 14.9998H1197.6C1197.6 14.9998 1197.6 14.9998 1197.6 14.4998C1197.6 14.4998 1197.6 14.4998 1198.1 14.4998C1198.1 14.4998 1198.6 14.4998 1198.6 14.9998C1198.6 14.9998 1198.6 14.9998 1198.6 15.4998V16.9998C1198.6 16.9998 1199.1 16.9998 1199.1 17.4997C1199.1 17.9997 1199.6 18.4997 1199.6 18.4997C1198.6 17.4997 1198.6 17.4997 1198.6 17.9997C1199.1 17.9997 1199.1 17.9997 1198.6 17.9997ZM1197.6 16.9998C1197.11 16.9998 1196.61 16.9998 1196.61 16.9998L1196.11 16.4998V15.9998C1196.11 15.9998 1196.11 15.9998 1195.61 15.9998L1195.12 16.4998V16.9998C1195.12 16.4998 1195.12 16.4998 1195.12 16.4998C1195.12 16.4998 1195.61 16.4998 1195.61 15.9998H1196.11V16.4998C1196.11 16.4998 1196.11 16.9998 1196.61 16.9998C1196.61 16.4998 1197.11 16.9998 1197.6 16.9998Z" fill="black"/>
<path d="M1195.61 14.4998C1195.61 13.9998 1196.11 14.4998 1195.61 14.4998C1196.11 14.4998 1196.11 13.9998 1196.61 14.4998H1197.11C1197.11 14.4998 1197.11 14.4998 1197.6 14.4998C1198.1 14.4998 1198.1 14.9998 1198.1 14.9998H1197.6C1197.6 14.9998 1197.11 14.9998 1197.11 15.4998C1196.11 14.4998 1196.11 14.4998 1195.61 14.4998Z" fill="#91857C"/>
<path d="M1196.61 14.4999C1196.61 14.4999 1196.11 14.4999 1196.61 14.4999C1196.11 14.4999 1196.11 14.4999 1196.11 14.4999C1196.11 14.4999 1196.11 14.4999 1196.61 14.4999C1196.61 14.4999 1196.11 14.4999 1196.61 14.4999H1197.11C1197.11 14.4999 1197.11 14.4999 1197.6 14.4999C1197.6 14.4999 1197.6 13.9999 1197.11 13.9999H1196.61C1197.11 13.9999 1196.61 13.9999 1196.61 14.4999C1196.11 14.4999 1196.11 13.9999 1196.61 14.4999C1196.11 13.9999 1196.11 13.9999 1196.11 14.4999C1195.61 13.9999 1196.11 13.9999 1196.61 14.4999C1196.11 13.9999 1196.11 13.9999 1196.61 14.4999C1197.11 13.9999 1196.61 13.9999 1196.61 14.4999C1197.11 13.9999 1197.11 13.9999 1197.11 13.9999H1197.6C1197.6 13.9999 1197.6 13.9999 1197.11 13.9999C1197.11 13.9999 1197.11 13.9999 1196.61 13.9999V14.4999Z" fill="black"/>
<path d="M1196.61 14.4998C1197.11 14.9998 1197.11 14.9998 1197.11 14.9998V15.9998L1196.61 15.4998C1196.61 15.4998 1196.61 15.4998 1196.61 14.4998C1196.11 14.9998 1196.61 14.9998 1196.61 14.4998Z" fill="#91857C"/>
<path d="M1197.6 15.9998C1197.11 15.9998 1197.11 15.9998 1197.6 15.9998C1197.11 15.9998 1197.11 15.9998 1196.61 15.4998C1196.61 15.4998 1196.61 15.4998 1196.61 14.9998L1196.11 14.4998C1196.11 14.4998 1196.11 14.4998 1196.61 14.4998H1196.11V14.9998C1197.11 15.9998 1197.11 15.9998 1197.6 15.9998C1197.11 15.9998 1197.11 15.9998 1197.6 15.9998Z" fill="black"/>
<path d="M1198.1 14.4998C1198.1 13.9998 1197.6 14.4998 1198.1 14.4998L1197.6 14.9998V15.4998V15.9998V16.4998V15.9998C1197.6 15.9998 1197.6 15.9998 1197.6 15.4998C1197.6 14.9998 1198.1 14.4998 1198.1 14.4998Z" fill="#91857C"/>
<path d="M1197.11 15.9998V14.9998L1197.6 14.4998C1197.6 14.4998 1197.6 14.4998 1197.6 14.9998C1197.6 14.9998 1197.6 15.4998 1197.11 15.4998C1197.11 15.9998 1197.11 15.9998 1197.11 15.9998C1197.6 15.4998 1197.6 15.9998 1197.11 15.9998C1197.6 15.9998 1197.6 15.9998 1197.11 15.9998ZM1198.1 14.4998L1197.6 14.9998V15.4998V15.9998V16.4998V15.9998C1197.6 15.9998 1197.6 15.9998 1197.6 15.4998C1197.6 14.9998 1197.6 14.4998 1198.1 14.4998C1198.1 14.4998 1197.6 14.4998 1198.1 14.4998Z" fill="black"/>
<path d="M1198.6 14.9999C1198.6 14.9999 1198.1 15.4999 1197.11 15.9999V14.9999V15.4999C1198.1 15.4999 1198.6 14.9999 1198.6 14.9999Z" fill="#91857C"/>
<path d="M1197.6 15.9999C1197.11 15.4999 1197.11 15.4999 1197.11 15.4999C1197.11 15.4999 1197.11 15.4999 1197.6 15.9999C1198.1 15.9999 1198.6 15.4999 1199.1 14.9999C1198.6 15.4999 1198.1 15.9999 1197.6 15.9999ZM1197.6 15.9999C1198.1 15.4999 1198.6 14.9999 1198.6 14.9999C1198.6 14.9999 1198.1 15.4999 1197.6 15.9999Z" fill="black"/>
<path d="M1199.1 19C1199.1 19 1198.6 19 1199.1 19C1198.6 19 1198.6 18.5 1198.6 18.5H1198.1C1198.1 18.5 1198.1 18.5 1197.6 18.5C1198.6 17.5 1199.1 18.5 1199.1 19Z" fill="#91857C"/>
<path d="M1199.1 18.9998C1198.6 18.9998 1198.6 18.9998 1199.1 18.9998C1198.6 18.9998 1198.6 18.4998 1199.1 18.9998L1198.1 18.4998H1197.6C1198.6 17.4998 1199.1 18.4998 1199.1 18.9998C1199.6 18.4998 1198.6 17.9998 1198.1 17.9998H1197.6H1198.1C1198.1 17.9998 1198.1 17.9998 1198.6 17.9998L1199.1 18.9998C1198.6 18.9998 1198.6 18.4998 1199.1 18.9998C1199.1 18.9998 1198.6 18.9998 1199.1 18.9998Z" fill="black"/>
<path d="M1199.6 18.9999C1199.6 18.9999 1199.6 19.4999 1199.6 18.9999C1200.09 19.4999 1200.09 18.9999 1199.6 18.9999C1200.09 18.9999 1200.09 18.9999 1200.09 18.9999C1200.09 18.9999 1200.09 19.4999 1199.6 18.9999Z" fill="#91857C"/>
<path d="M1200.09 19.4999C1199.6 19.4999 1199.6 19.4999 1200.09 19.4999C1199.6 19.4999 1199.6 19.4999 1200.09 19.4999C1200.09 19.4999 1200.09 18.9999 1200.09 19.4999C1199.6 18.9999 1199.6 19.4999 1200.09 19.4999C1200.09 19.4999 1199.6 18.9999 1200.09 19.4999C1200.09 18.9999 1200.09 19.4999 1200.09 19.4999C1200.09 18.9999 1200.09 18.9999 1200.09 19.4999Z" fill="black"/>
<path d="M1197.6 18.9999C1197.6 19.4999 1197.6 19.4999 1197.6 18.9999C1197.6 19.4999 1197.6 19.4999 1197.6 18.9999C1198.1 19.4999 1197.6 19.4999 1197.6 18.9999C1198.1 19.4999 1198.1 19.4999 1198.1 19.4999C1198.1 19.4999 1198.1 19.4999 1197.6 18.9999C1198.1 19.4999 1198.1 19.4999 1197.6 18.9999Z" fill="#91857C"/>
<path d="M1192.63 18.4999C1193.13 17.9999 1193.13 17.9999 1192.63 18.4999C1192.63 17.9999 1192.63 17.9999 1192.63 18.4999C1193.13 17.9999 1193.13 17.9999 1192.63 18.4999C1193.13 17.9999 1193.13 17.9999 1192.63 18.4999C1193.13 17.9999 1193.13 17.9999 1192.63 18.4999H1193.13V18.9999L1192.63 18.4999C1192.63 17.9999 1192.63 17.9999 1192.63 18.4999C1192.63 17.9999 1192.63 17.9999 1192.63 18.4999C1192.63 17.9999 1192.63 17.9999 1192.63 18.4999ZM1192.63 16.9999C1192.63 16.9999 1192.63 16.4999 1192.63 16.9999C1192.63 16.4999 1192.63 16.4999 1192.63 16.9999C1193.13 16.4999 1193.13 16.4999 1193.62 16.9999C1193.62 16.9999 1193.62 16.9999 1193.62 17.4999C1193.62 17.4999 1193.62 17.4999 1193.62 17.9999C1193.13 17.4999 1193.13 17.4999 1192.63 16.9999C1192.63 17.4999 1192.63 17.4999 1192.63 16.9999ZM1192.63 16.9999C1193.13 17.4999 1193.13 17.4999 1193.13 16.9999C1193.13 16.4999 1193.13 16.4999 1192.63 16.9999C1192.63 16.4999 1192.63 16.4999 1192.63 16.9999ZM1193.62 15.4999H1193.13C1193.13 15.4999 1193.62 15.9999 1193.62 15.4999V15.9999H1193.13V15.4999H1193.62ZM1193.13 15.4999C1192.63 15.4999 1192.63 15.4999 1193.13 15.4999C1192.63 15.4999 1192.63 15.4999 1193.13 15.4999ZM1195.12 12.9999C1194.62 12.9999 1194.62 12.9999 1195.12 12.9999C1194.62 12.9999 1194.62 12.9999 1195.12 12.9999C1194.62 13.4999 1194.62 13.4999 1194.62 13.4999C1195.12 13.4999 1195.12 13.4999 1195.12 12.9999C1195.12 13.4999 1195.12 13.4999 1195.12 12.9999C1195.12 13.4999 1195.12 13.4999 1195.12 12.9999C1195.12 13.4999 1195.12 13.4999 1195.12 12.9999L1195.61 13.4999H1195.12C1194.62 13.4999 1194.62 13.4999 1195.12 12.9999C1194.62 12.9999 1194.62 12.9999 1195.12 12.9999C1194.62 12.9999 1194.62 12.9999 1195.12 12.9999C1194.62 12.9999 1194.62 12.9999 1195.12 12.9999ZM1196.11 12.9999C1196.11 12.9999 1196.11 13.4999 1196.11 12.9999C1196.11 13.4999 1196.11 13.4999 1196.11 12.9999C1196.11 13.4999 1196.11 13.4999 1196.11 12.9999C1196.11 13.4999 1195.61 13.4999 1196.11 12.9999C1196.11 13.4999 1196.11 13.4999 1196.11 12.9999V12.4999V12.9999C1196.61 12.9999 1196.61 12.9999 1196.11 12.9999C1196.61 12.9999 1196.61 12.9999 1196.11 12.9999C1196.61 12.9999 1196.61 12.9999 1196.11 12.9999C1196.61 12.9999 1196.61 12.9999 1196.11 12.9999C1196.61 12.9999 1196.61 12.9999 1196.11 12.9999ZM1197.6 12.9999H1197.11V12.4999H1197.6C1197.11 12.4999 1197.11 12.4999 1197.6 12.9999C1197.11 12.9999 1197.11 12.9999 1197.6 12.9999C1197.11 12.9999 1197.11 12.9999 1197.6 12.9999ZM1199.1 12.9999H1198.1V12.4999H1198.6L1199.1 12.9999C1198.6 12.9999 1198.6 12.9999 1199.1 12.9999C1198.6 13.4999 1198.6 13.4999 1199.1 12.9999C1198.6 13.4999 1198.6 13.4999 1199.1 12.9999C1198.6 13.4999 1198.6 13.4999 1199.1 12.9999C1198.6 13.4999 1198.6 13.4999 1199.1 12.9999C1199.1 13.4999 1199.1 13.4999 1199.1 12.9999ZM1200.09 13.4999C1199.6 13.4999 1199.6 13.4999 1200.09 13.4999C1199.6 13.4999 1199.6 13.4999 1200.09 13.4999C1199.6 13.4999 1199.6 13.4999 1200.09 13.4999H1199.6C1199.6 13.4999 1199.6 13.4999 1200.09 13.4999V12.9999V13.4999C1200.09 13.9999 1200.09 13.9999 1200.09 13.4999C1200.09 13.9999 1200.09 13.9999 1200.09 13.4999C1199.6 13.9999 1199.6 13.9999 1200.09 13.4999C1199.6 13.9999 1199.6 13.9999 1200.09 13.4999C1200.09 13.9999 1199.6 13.9999 1200.09 13.4999ZM1201.09 13.9999V14.9999L1201.59 14.4999L1200.59 14.9999L1201.09 13.9999L1200.59 14.4999V13.9999H1201.09ZM1202.08 15.9999C1201.59 15.9999 1202.08 15.9999 1202.08 15.9999H1201.09V15.4999L1202.08 15.9999C1202.08 15.4999 1201.59 15.4999 1201.59 15.4999L1202.08 15.9999ZM1201.09 17.4999L1201.59 16.9999H1201.09V17.4999V16.4999H1201.59V16.9999C1201.59 16.9999 1201.59 16.9999 1201.09 17.4999C1201.59 17.4999 1201.59 16.9999 1201.09 17.4999C1201.59 17.4999 1201.59 17.4999 1201.09 17.4999ZM1201.59 16.9999C1201.59 16.9999 1202.08 16.9999 1201.59 16.9999C1202.08 16.9999 1202.08 16.9999 1201.59 16.9999C1202.08 16.9999 1202.08 16.9999 1201.59 16.9999C1202.08 16.9999 1202.08 16.9999 1201.59 16.9999ZM1202.08 18.4999C1202.08 18.9999 1202.08 18.9999 1202.08 18.4999C1202.08 18.9999 1202.08 18.4999 1202.08 18.4999C1201.59 18.4999 1201.59 18.4999 1202.08 18.4999H1201.09V17.9999L1202.08 18.4999C1202.08 17.9999 1202.08 17.9999 1202.08 17.9999V18.4999C1202.08 17.9999 1202.08 17.9999 1202.08 18.4999C1202.08 17.9999 1202.08 17.9999 1202.08 18.4999C1202.08 18.4999 1201.59 18.4999 1202.08 18.4999Z" fill="black"/>
</svg>
