<svg width="50" height="49" viewBox="0 0 50 49" fill="none" xmlns="http://www.w3.org/2000/svg">
<path d="M24.8003 48.96C38.3203 48.96 49.2803 38 49.2803 24.48C49.2803 10.9601 38.3203 0 24.8003 0C11.2804 0 0.320312 10.9601 0.320312 24.48C0.320312 38 11.2804 48.96 24.8003 48.96Z" fill="#F0F0F0"/>
<path d="M5.38025 9.57617C3.45732 12.078 2.00736 14.9616 1.16309 18.0942H13.8982L5.38025 9.57617Z" fill="#0052B4"/>
<path d="M48.4371 18.0941C47.5928 14.9616 46.1428 12.078 44.2199 9.57617L35.7021 18.0941H48.4371Z" fill="#0052B4"/>
<path d="M1.16309 30.8652C2.00746 33.9977 3.45742 36.8813 5.38025 39.383L13.898 30.8652H1.16309Z" fill="#0052B4"/>
<path d="M39.7034 5.06003C37.2016 3.13711 34.3181 1.68714 31.1855 0.842773V13.5778L39.7034 5.06003Z" fill="#0052B4"/>
<path d="M9.89648 43.8995C12.3983 45.8225 15.2819 47.2724 18.4144 48.1168V35.3818L9.89648 43.8995Z" fill="#0052B4"/>
<path d="M18.4143 0.842773C15.2818 1.68714 12.3982 3.13711 9.89648 5.05993L18.4143 13.5777V0.842773Z" fill="#0052B4"/>
<path d="M31.1855 48.1168C34.318 47.2724 37.2016 45.8225 39.7034 43.8996L31.1855 35.3818V48.1168Z" fill="#0052B4"/>
<path d="M35.7021 30.8652L44.2199 39.3831C46.1428 36.8814 47.5928 33.9977 48.4371 30.8652H35.7021Z" fill="#0052B4"/>
<path d="M49.0731 21.287H27.9935H27.9934V0.20722C26.9482 0.0711451 25.8825 0 24.8003 0C23.7179 0 22.6525 0.0711451 21.6073 0.20722V21.2868V21.2869H0.527532C0.391458 22.3322 0.320312 23.3978 0.320312 24.48C0.320312 25.5624 0.391458 26.6278 0.527532 27.673H21.6071H21.6072V48.7528C22.6525 48.8889 23.7179 48.96 24.8003 48.96C25.8825 48.96 26.9482 48.889 27.9933 48.7528V27.6732V27.6731H49.0731C49.2092 26.6278 49.2803 25.5624 49.2803 24.48C49.2803 23.3978 49.2092 22.3322 49.0731 21.287Z" fill="#D80027"/>
<path d="M31.1875 30.8673L42.1113 41.7911C42.6137 41.2889 43.093 40.7638 43.5503 40.2195L34.198 30.8672H31.1875V30.8673Z" fill="#D80027"/>
<path d="M18.4142 30.8672H18.414L7.49023 41.7909C7.99246 42.2933 8.51753 42.7726 9.06183 43.2299L18.4142 33.8774V30.8672Z" fill="#D80027"/>
<path d="M18.4145 18.094V18.0938L7.49072 7.16992C6.98831 7.67214 6.50904 8.19722 6.05176 8.74152L15.4042 18.0939H18.4145V18.094Z" fill="#D80027"/>
<path d="M31.1875 18.0943L42.1114 7.17032C41.6092 6.6679 41.0841 6.18863 40.5398 5.73145L31.1875 15.0839V18.0943V18.0943Z" fill="#D80027"/>
</svg>
