<svg width="41" height="41" viewBox="0 0 41 41" fill="none" xmlns="http://www.w3.org/2000/svg">
<circle cx="20.5" cy="20.5" r="20.5" fill="url(#paint0_linear)"/>
<path d="M20.6667 9C16.443 9 13 12.3417 13 16.4412C13 18.7006 14.1291 20.1618 15.2303 21.5824C16.1029 22.7117 16.9317 23.7906 17.1337 25.2353H24.1997C24.4017 23.7906 25.2305 22.7117 26.103 21.5824C27.2042 20.1618 28.3333 18.7006 28.3333 16.4412C28.3333 13.4376 25.8939 9 20.6667 9V9ZM17.1819 28.6176C17.1819 30.4847 18.743 32 20.6667 32C22.5903 32 24.1515 30.4847 24.1515 28.6176V26.5882H17.1818V28.6176H17.1819Z" fill="white"/>
<defs>
<linearGradient id="paint0_linear" x1="31.4081" y1="13.0863" x2="-12.8163" y2="55.1548" gradientUnits="userSpaceOnUse">
<stop stop-color="#8FD300"/>
<stop offset="1" stop-color="#00B707"/>
</linearGradient>
</defs>
</svg>
