<svg width="57" height="79" viewBox="0 0 57 79" fill="none" xmlns="http://www.w3.org/2000/svg">
<path d="M28.5 0C12.785 0 0 12.8347 0 28.6107C0 48.1891 25.5047 76.9314 26.5906 78.1454C27.6105 79.2858 29.3913 79.2838 30.4094 78.1454C31.4953 76.9314 57 48.1891 57 28.6107C56.9997 12.8347 44.2148 0 28.5 0Z" fill="url(#paint0_linear)"/>
<path d="M20.0918 21.4463L22.3548 15.2231L28.5779 16.9204L34.2353 15.2231L36.4983 21.4463L28.5779 25.4065L20.0918 21.4463Z" fill="#0B6CFE"/>
<path fill-rule="evenodd" clip-rule="evenodd" d="M17.9414 14.0468L21.6171 15.3492L19.4236 21.3284C19.305 21.6836 19.4532 22.0684 19.7793 22.2164L28.1978 26.1532C28.2868 26.2124 28.4053 26.2124 28.4943 26.2124C28.6128 26.2124 28.7018 26.1828 28.7907 26.1532L37.2092 22.2164C37.5353 22.0684 37.7132 21.6836 37.5649 21.3284L35.3714 15.3492L38.1578 14.3724V18.0428C37.8614 18.2204 37.6539 18.5164 37.6539 18.8716C37.6539 19.4044 38.0985 19.8484 38.6321 19.8484C39.1656 19.8484 39.6103 19.4044 39.6103 18.8716C39.6103 18.5164 39.4028 18.1908 39.1064 18.0428V14.0172C39.3435 13.8988 39.5214 13.662 39.5214 13.3956C39.5214 13.0996 39.3435 12.8332 39.0471 12.7148L28.7314 9.0444C28.5832 8.9852 28.4053 8.9852 28.2571 9.0444L17.9414 12.6852C17.645 12.774 17.4672 13.07 17.4672 13.366C17.4672 13.662 17.645 13.958 17.9414 14.0468ZM36.0235 21.1804L28.4943 24.7028L20.9946 21.1804L22.9511 15.8228L28.2571 17.6876C28.346 17.7172 28.4053 17.7172 28.4943 17.7172C28.5832 17.7172 28.6425 17.7172 28.7314 17.6876L34.0374 15.8228L36.0235 21.1804ZM28.4943 10.4948L36.6757 13.366L34.2449 14.2244L28.5239 16.2372L22.8028 14.2244L20.3425 13.366L28.4943 10.4948ZM41.9519 28.7877C41.8334 28.4029 41.4184 28.2253 41.033 28.3437L28.4941 32.7837L15.9552 28.3733C15.5699 28.2549 15.1845 28.4325 15.0363 28.8173C14.9177 29.2021 15.0956 29.5869 15.481 29.7349L28.257 34.2341C28.3459 34.2637 28.4052 34.2637 28.4941 34.2637C28.5831 34.2637 28.6423 34.2637 28.7313 34.2341L41.5073 29.7349C41.8927 29.5869 42.1001 29.1725 41.9519 28.7877ZM28.4348 31.9251L16.637 27.7515C16.5481 27.7219 16.5184 27.6627 16.5481 27.6035C16.5184 27.5443 16.5184 27.4555 16.5481 27.3963C16.5777 27.3371 17.467 25.7683 19.957 25.7683C20.9352 25.7683 22.032 26.0347 23.2177 26.5083C26.7156 27.9587 28.0791 29.3795 28.5534 30.0307C29.0277 29.3795 30.3913 27.9291 33.8891 26.5083C35.0748 26.0051 36.1716 25.7683 37.1498 25.7683C39.6398 25.7683 40.5291 27.3371 40.5587 27.3963C40.5884 27.4555 40.5884 27.5443 40.5587 27.6035C40.5291 27.6627 40.4698 27.7219 40.4105 27.7515L28.6127 31.9251H28.5238H28.4348Z" fill="white"/>
<path fill-rule="evenodd" clip-rule="evenodd" d="M25.5294 48.3365V48.4299H25.8099V46.6792H25.5411V47.3328C25.5177 47.2978 25.471 47.2744 25.4242 47.2511C25.3775 47.2394 25.319 47.2277 25.2723 47.2277C25.1788 47.2277 25.1086 47.2511 25.0502 47.2861C24.9918 47.3211 24.945 47.3678 24.9099 47.4261C24.8749 47.4845 24.8515 47.5545 24.8398 47.6246C24.8281 47.6946 24.8164 47.7646 24.8164 47.8346C24.8164 47.9047 24.8164 47.9864 24.8281 48.0564C24.8398 48.1264 24.8632 48.1964 24.8866 48.2548C24.9216 48.3131 24.9567 48.3598 25.0151 48.3948C25.0619 48.4299 25.1437 48.4532 25.2372 48.4532C25.284 48.4532 25.3307 48.4532 25.3891 48.4299C25.4359 48.4182 25.4826 48.3832 25.5294 48.3365ZM25.5177 47.7413C25.5294 47.7763 25.5294 47.823 25.5294 47.858C25.5294 47.8755 25.5265 47.8959 25.5236 47.9163C25.5206 47.9368 25.5177 47.9572 25.5177 47.9747C25.506 48.0214 25.4943 48.0564 25.4826 48.0914C25.471 48.1264 25.4476 48.1614 25.4125 48.1848C25.3891 48.2081 25.3424 48.2198 25.2956 48.2198C25.2489 48.2198 25.2021 48.2081 25.1788 48.1848C25.1437 48.1614 25.1203 48.1381 25.1086 48.1031C25.0853 48.0797 25.0736 48.033 25.0736 47.998C25.0619 47.9513 25.0619 47.9163 25.0619 47.8813V47.8813C25.0619 47.858 25.0648 47.8376 25.0677 47.8171C25.0706 47.7967 25.0736 47.7763 25.0736 47.7529C25.0853 47.7063 25.0969 47.6712 25.1086 47.6362C25.1203 47.6012 25.1437 47.5662 25.1788 47.5429C25.2138 47.5195 25.2489 47.5078 25.3073 47.5078C25.3541 47.5078 25.4008 47.5195 25.4242 47.5429C25.4593 47.5662 25.4826 47.5895 25.4943 47.6246C25.506 47.6596 25.5177 47.6946 25.5177 47.7413ZM15.3375 48.4531C15.3083 48.4064 15.2791 48.3626 15.2499 48.3189C15.2206 48.2751 15.1914 48.2313 15.1622 48.1846C15.133 48.138 15.1038 48.0942 15.0745 48.0504L15.0745 48.0504C15.0453 48.0067 15.0161 47.9629 14.9869 47.9162C14.9752 47.9337 14.9606 47.9483 14.946 47.9629C14.9314 47.9775 14.9168 47.9921 14.9051 48.0096C14.8934 48.0271 14.8788 48.0417 14.8642 48.0563C14.8495 48.0708 14.8349 48.0854 14.8232 48.1029V48.4531H14.5544V46.7024H14.8232V47.7528H14.8349L15.0687 47.4844L15.2791 47.2626H15.618L15.1856 47.7295C15.2265 47.7878 15.2674 47.8491 15.3083 47.9104C15.3492 47.9716 15.3901 48.0329 15.431 48.0913C15.4719 48.1496 15.5128 48.2109 15.5537 48.2722L15.5537 48.2722L15.5537 48.2722C15.5947 48.3334 15.6356 48.3947 15.6765 48.4531H15.3375ZM14.2039 48.1148L14.2039 48.1148C14.1688 48.1848 14.1337 48.2548 14.0753 48.3015C14.0169 48.3599 13.9584 48.3949 13.8766 48.4299L13.8766 48.4299C13.7948 48.4533 13.713 48.4766 13.6311 48.4766C13.5376 48.4766 13.4558 48.4649 13.374 48.4299C13.2922 48.3949 13.2338 48.3599 13.1753 48.3015C13.1169 48.2432 13.0818 48.1848 13.0468 48.1031C13.0234 48.0331 13 47.9397 13 47.858V46.7843H13.2922V47.8347C13.2922 47.8814 13.3039 47.9397 13.3156 47.9747C13.3273 48.0214 13.3506 48.0564 13.3857 48.0914C13.4091 48.1265 13.4441 48.1498 13.4909 48.1731C13.5376 48.1965 13.5844 48.1965 13.6311 48.1965C13.7363 48.1965 13.8065 48.1615 13.8766 48.1031C13.935 48.0448 13.9701 47.9514 13.9701 47.8347V46.7726H14.2623V47.858C14.2506 47.9514 14.2272 48.0331 14.2039 48.1148L14.2039 48.1148L14.2039 48.1148L14.2039 48.1148ZM16.144 47.5663C16.1907 47.5313 16.2375 47.5079 16.3076 47.5079H16.4245C16.4316 47.5115 16.4397 47.515 16.4486 47.5189C16.4691 47.5277 16.4935 47.5383 16.518 47.5546L16.6232 47.3095C16.5881 47.2862 16.553 47.2745 16.518 47.2628C16.4712 47.2512 16.4362 47.2512 16.3894 47.2512H16.3894C16.2608 47.2512 16.1673 47.2978 16.0972 47.4029H16.0855V47.2628H15.8167V48.4533H16.0855V47.7413C16.0855 47.6597 16.0972 47.6013 16.144 47.5663ZM17.1375 47.2512C17.2076 47.2512 17.2661 47.2628 17.3245 47.2745C17.3829 47.2862 17.4414 47.3095 17.4764 47.3329C17.5232 47.3679 17.5583 47.4029 17.5816 47.4496C17.605 47.4963 17.6167 47.5663 17.6167 47.6363V48.4533H17.3479V48.3482C17.3128 48.3949 17.2661 48.4183 17.2193 48.4416C17.1609 48.465 17.1024 48.465 17.044 48.465C16.9154 48.465 16.8102 48.4299 16.7401 48.3716C16.67 48.3132 16.6232 48.2199 16.6232 48.1032C16.6232 48.0565 16.6349 48.0098 16.6466 47.9631C16.67 47.9164 16.6933 47.8814 16.7284 47.8464C16.7635 47.8114 16.8102 47.788 16.857 47.7647C16.9037 47.7413 16.9622 47.7414 17.0323 47.7414H17.3596V47.6597V47.6596C17.3596 47.6363 17.3596 47.613 17.3479 47.5896C17.342 47.578 17.3362 47.5692 17.3303 47.5605L17.3303 47.5604C17.3245 47.5517 17.3186 47.5429 17.3128 47.5313L17.2427 47.4963C17.2076 47.4846 17.1725 47.4846 17.1258 47.4846C17.0557 47.4846 17.0089 47.4963 16.9622 47.5079C16.9279 47.5165 16.8999 47.5376 16.8735 47.5575C16.864 47.5647 16.8546 47.5717 16.8453 47.578L16.705 47.3912C16.7635 47.3329 16.8336 47.2978 16.9037 47.2745C16.9622 47.2628 17.044 47.2512 17.1375 47.2512ZM16.8804 48.0915V48.0915C16.8804 48.1148 16.8804 48.1265 16.892 48.1498C16.9037 48.1732 16.9154 48.1849 16.9271 48.1965C16.9388 48.2082 16.9622 48.2199 16.9972 48.2315C17.0206 48.2432 17.0557 48.2432 17.1024 48.2432C17.1375 48.2432 17.1609 48.2432 17.1959 48.2315C17.2113 48.2264 17.2244 48.2235 17.2363 48.2209C17.2515 48.2176 17.2646 48.2147 17.2777 48.2082C17.3011 48.1965 17.3245 48.1732 17.3362 48.1615C17.3479 48.1382 17.3596 48.1148 17.3596 48.0798V48.0448V47.9631H17.079C17.0089 47.9631 16.9622 47.9748 16.9271 47.9981C16.9037 48.0215 16.8804 48.0565 16.8804 48.0915ZM17.9089 46.7726V47.0294H18.1777V46.7726H17.9089ZM17.9089 47.2628V48.4532H18.1777V47.2628H17.9089ZM19.2062 48.4533V47.7413C19.2062 47.6597 19.1945 47.6013 19.1594 47.5663C19.1244 47.5196 19.0659 47.5079 18.9958 47.5079C18.9257 47.5079 18.8789 47.5313 18.8322 47.5663C18.7854 47.613 18.762 47.6713 18.762 47.7413V48.4533H18.4815V47.2628H18.7504V47.3912C18.7854 47.3445 18.8322 47.3095 18.8906 47.2862C18.9491 47.2628 19.0075 47.2512 19.0542 47.2512C19.1711 47.2512 19.2763 47.2862 19.3464 47.3562C19.4166 47.4262 19.4633 47.5313 19.4633 47.6713V48.4533H19.2062ZM19.7789 46.7726V47.0294H20.0477V46.7726H19.7789ZM19.7789 47.2628V48.4532H20.0477V47.2628H19.7789ZM20.8074 47.2512C20.8775 47.2512 20.936 47.2628 20.9944 47.2745C21.0529 47.2862 21.1113 47.3095 21.1464 47.3329C21.1931 47.3679 21.2282 47.4029 21.2516 47.4496C21.2749 47.4963 21.2866 47.5663 21.2866 47.6363V48.4533H21.0178V48.3482C20.9827 48.3949 20.936 48.4183 20.8892 48.4416C20.8308 48.465 20.7724 48.465 20.7139 48.465C20.5853 48.465 20.4802 48.4299 20.41 48.3716C20.3399 48.3132 20.2931 48.2199 20.2931 48.1032C20.2931 48.0565 20.3048 48.0098 20.3165 47.9631C20.3399 47.9164 20.3633 47.8814 20.3983 47.8464C20.4334 47.8114 20.4802 47.788 20.5269 47.7647C20.5737 47.7413 20.6321 47.7414 20.7022 47.7414H21.0295V47.6597C21.0295 47.6363 21.0295 47.613 21.0178 47.5896C21.012 47.578 21.0061 47.5692 21.0003 47.5604C20.9944 47.5517 20.9886 47.5429 20.9827 47.5313L20.9126 47.4963C20.8775 47.4846 20.8425 47.4846 20.7957 47.4846C20.7256 47.4846 20.6788 47.4963 20.6321 47.5079C20.5978 47.5165 20.5698 47.5376 20.5434 47.5575L20.5434 47.5575L20.5434 47.5575L20.5434 47.5575C20.5339 47.5647 20.5245 47.5717 20.5152 47.578L20.375 47.3912C20.4334 47.3329 20.5035 47.2978 20.5737 47.2745C20.6438 47.2628 20.7256 47.2512 20.8074 47.2512ZM20.562 48.0915C20.562 48.1148 20.562 48.1265 20.5737 48.1498C20.5853 48.1732 20.597 48.1849 20.6087 48.1965C20.6204 48.2082 20.6438 48.2199 20.6788 48.2315C20.7022 48.2432 20.7373 48.2432 20.784 48.2432C20.8191 48.2432 20.8425 48.2432 20.8775 48.2315C20.9009 48.2315 20.936 48.2199 20.9594 48.2082C20.9827 48.1965 21.0061 48.1732 21.0178 48.1615C21.0295 48.1382 21.0412 48.1148 21.0412 48.0798V48.0448V47.9631H20.7607C20.6905 47.9631 20.6438 47.9748 20.6087 47.9981C20.5737 48.0215 20.562 48.0565 20.562 48.0915ZM22.2919 47.7413V48.4533H22.5607V47.6713C22.5607 47.5313 22.514 47.4262 22.4438 47.3562C22.3737 47.2862 22.2685 47.2512 22.1516 47.2512C22.1049 47.2512 22.0464 47.2628 21.988 47.2862C21.9296 47.3095 21.8828 47.3445 21.8477 47.3912V47.2628H21.5789V48.4533H21.8477V47.7413C21.8477 47.6713 21.8711 47.613 21.9179 47.5663C21.9646 47.5313 22.0114 47.5079 22.0815 47.5079C22.1516 47.5079 22.2101 47.5196 22.2451 47.5663C22.2802 47.6013 22.2919 47.6597 22.2919 47.7413ZM23.4957 48.4533V46.7726H24.6177V47.0411H23.7879V47.4846H24.5009V47.7413H23.7879V48.1965H24.6177V48.4649H23.4957V48.4533ZM26.3359 47.2743V47.9746C26.3359 48.0563 26.3476 48.1146 26.3826 48.1613C26.4177 48.1963 26.4761 48.2197 26.5579 48.2197C26.6164 48.2197 26.6748 48.1963 26.7216 48.1613C26.7683 48.1146 26.7917 48.0563 26.7917 47.9862V47.2743H27.0605V48.4647H26.7917V48.348H26.78C26.7449 48.3947 26.6982 48.4297 26.6398 48.4531C26.5813 48.4764 26.5229 48.4881 26.4761 48.4881C26.3476 48.4881 26.2541 48.4531 26.1722 48.383C26.1021 48.313 26.0554 48.208 26.0554 48.0563V47.2743H26.3359ZM27.8203 48.4764C27.9021 48.4764 27.9839 48.4647 28.054 48.4297C28.1241 48.3947 28.1943 48.348 28.2527 48.278L28.0774 48.0913C28.052 48.1167 28.0204 48.1359 27.9916 48.1535L27.9916 48.1535L27.9915 48.1535C27.9806 48.1602 27.9701 48.1666 27.9605 48.173C27.9255 48.1963 27.8787 48.208 27.8436 48.208C27.7501 48.208 27.68 48.1846 27.6333 48.1263C27.5865 48.0679 27.5631 47.9862 27.5631 47.8579C27.5631 47.7295 27.5865 47.6361 27.6333 47.5777C27.68 47.5194 27.7501 47.496 27.8436 47.496C27.9138 47.496 27.9956 47.5427 28.0657 47.6128L28.241 47.426C28.1241 47.321 27.9956 47.2626 27.832 47.2626C27.7618 47.2626 27.6917 47.2743 27.6216 47.2976C27.5631 47.321 27.493 47.356 27.4462 47.4027C27.3878 47.4494 27.3527 47.5077 27.3177 47.5894C27.2826 47.6711 27.2709 47.7645 27.2709 47.8695C27.2709 47.9746 27.2826 48.0679 27.3177 48.1496C27.3411 48.2197 27.3878 48.2897 27.4346 48.3364C27.4813 48.383 27.5398 48.4181 27.6099 48.4414C27.68 48.4647 27.7501 48.4764 27.8203 48.4764ZM28.8839 47.2512C28.954 47.2512 29.0124 47.2628 29.0709 47.2745C29.1293 47.2862 29.1877 47.3095 29.2228 47.3329C29.2696 47.3679 29.3046 47.4029 29.328 47.4496C29.3514 47.4963 29.3631 47.5663 29.3631 47.6363V48.4533H29.0942V48.3482C29.0592 48.3949 29.0124 48.4183 28.9657 48.4416C28.9072 48.465 28.8488 48.465 28.7904 48.465C28.6618 48.465 28.5566 48.4299 28.4865 48.3716C28.4163 48.3132 28.3696 48.2199 28.3696 48.1032C28.3696 48.0565 28.3813 48.0098 28.393 47.9631C28.4163 47.9164 28.4397 47.8814 28.4748 47.8464C28.5098 47.8114 28.5566 47.788 28.6033 47.7647C28.6501 47.7413 28.7085 47.7414 28.7787 47.7414H29.1059V47.6597C29.1059 47.6363 29.1059 47.613 29.0942 47.5896C29.0884 47.578 29.0826 47.5692 29.0767 47.5604C29.0709 47.5517 29.065 47.5429 29.0592 47.5313L28.989 47.4963C28.954 47.4846 28.9189 47.4846 28.8722 47.4846C28.802 47.4846 28.7553 47.4963 28.7085 47.5079C28.6742 47.5165 28.6462 47.5376 28.6199 47.5575C28.6103 47.5647 28.601 47.5717 28.5917 47.578L28.4514 47.3912C28.5098 47.3329 28.58 47.2978 28.6501 47.2745C28.7202 47.2628 28.802 47.2512 28.8839 47.2512ZM28.6384 48.0915C28.6384 48.1148 28.6384 48.1265 28.6501 48.1498C28.6618 48.1732 28.6735 48.1849 28.6852 48.1965C28.6968 48.2082 28.7202 48.2199 28.7553 48.2315C28.7787 48.2432 28.8137 48.2432 28.8605 48.2432C28.8955 48.2432 28.9189 48.2432 28.954 48.2315C28.9694 48.2264 28.9825 48.2235 28.9943 48.2209C29.0095 48.2176 29.0227 48.2147 29.0358 48.2082C29.0592 48.1965 29.0826 48.1732 29.0942 48.1615C29.1059 48.1382 29.1176 48.1148 29.1176 48.0798V48.0448V47.9631H28.8371C28.767 47.9631 28.7202 47.9748 28.6852 47.9981C28.6501 48.0215 28.6384 48.0565 28.6384 48.0915ZM29.7955 48.3715C29.8539 48.4299 29.9241 48.4532 30.0176 48.4532V48.4415H30.1812V48.2081H30.0877C30.0526 48.2081 30.0176 48.1964 30.0059 48.1731C29.9942 48.1497 29.9825 48.1264 29.9825 48.0797V47.4728H30.1695V47.2511H29.9825V46.936H29.7137V47.2511H29.5734V47.4728H29.7137V48.1497C29.7137 48.2431 29.737 48.3248 29.7955 48.3715ZM30.4265 47.0294V46.7726H30.6953V47.0294H30.4265ZM30.4265 48.4532V47.2628H30.6953V48.4532H30.4265ZM31.7474 47.2978C31.6772 47.2628 31.5954 47.2512 31.5019 47.2512C31.385 47.2512 31.2915 47.2745 31.2214 47.3445C31.1396 47.3912 31.0812 47.4496 31.0344 47.5429C31.011 47.5896 30.9993 47.6363 30.9876 47.6947C30.976 47.753 30.976 47.8114 30.976 47.8814C30.976 48.0565 30.9993 48.2082 31.0695 48.3016C31.1162 48.3599 31.1747 48.4066 31.2448 48.4416C31.3149 48.4766 31.3967 48.4883 31.4902 48.4883C31.5837 48.4883 31.6655 48.465 31.7474 48.4299C31.8292 48.3833 31.8876 48.3249 31.9344 48.2549L31.9472 48.2236L31.9473 48.2235C31.966 48.1785 31.9833 48.1369 31.9928 48.0798C32.0045 48.0215 32.0162 47.9398 32.0162 47.8464C32.0162 47.7647 32.0045 47.6947 31.9928 47.6246C31.9811 47.5546 31.9577 47.4963 31.9227 47.4496C31.8759 47.3795 31.8175 47.3329 31.7474 47.2978ZM31.3617 47.5313C31.3967 47.5079 31.4435 47.4963 31.4902 47.4963C31.537 47.4963 31.572 47.5079 31.6071 47.5196C31.6422 47.5429 31.6655 47.578 31.6889 47.6246C31.7123 47.6713 31.724 47.7414 31.724 47.8347V47.9631V47.9631C31.724 47.9981 31.724 48.0215 31.7123 48.0448C31.7006 48.1032 31.6655 48.1498 31.6305 48.1732C31.5837 48.2082 31.537 48.2199 31.4902 48.2199C31.4435 48.2199 31.3967 48.2082 31.3617 48.1849C31.3266 48.1615 31.3032 48.1382 31.2798 48.0915C31.2565 48.0565 31.2448 48.0215 31.2448 47.9864C31.2331 47.9514 31.2331 47.9047 31.2331 47.8581C31.2331 47.8114 31.2331 47.7647 31.2448 47.7297L31.2798 47.6246C31.2915 47.5896 31.3266 47.5546 31.3617 47.5313ZM32.9628 48.4533V47.7413C32.9628 47.6597 32.9511 47.6013 32.9161 47.5663C32.881 47.5196 32.8226 47.5079 32.7524 47.5079C32.6823 47.5079 32.6356 47.5313 32.5888 47.5663C32.542 47.613 32.5187 47.6713 32.5187 47.7413V48.4533H32.2498V47.2628H32.5187V47.3912C32.5537 47.3445 32.6005 47.3095 32.6589 47.2862C32.7174 47.2628 32.7758 47.2512 32.8226 47.2512C32.9394 47.2512 33.0446 47.2862 33.1148 47.3562C33.1849 47.4262 33.2316 47.5313 33.2316 47.6713V48.4533H32.9628ZM35.1135 48.3716C35.207 48.3015 35.2771 48.1965 35.3239 48.0798L35.055 47.9747C35.0317 48.0448 34.9966 48.0914 34.9381 48.1381C34.8914 48.1731 34.8213 48.1965 34.7395 48.1965C34.681 48.1965 34.6343 48.1848 34.5875 48.1615C34.5408 48.1381 34.5057 48.1148 34.4823 48.0798C34.4589 48.0448 34.4356 48.0098 34.4239 47.9631C34.4122 47.9281 34.4005 47.8814 34.4005 47.8347V47.3912C34.4005 47.3525 34.4085 47.3218 34.4179 47.2859L34.4239 47.2628C34.4356 47.2161 34.4589 47.1811 34.4823 47.1461C34.5174 47.1111 34.5408 47.0877 34.5875 47.0644C34.6343 47.0527 34.681 47.0411 34.7395 47.0411C34.8213 47.0411 34.8914 47.0527 34.9381 47.0994C34.9849 47.1461 35.02 47.1928 35.0433 47.2628L35.3239 47.1578C35.2888 47.0411 35.2187 46.9477 35.1135 46.8777C35.0083 46.8076 34.8914 46.7726 34.7395 46.7726C34.6343 46.7726 34.5408 46.7843 34.4589 46.8193C34.3771 46.8543 34.307 46.901 34.2602 46.9594C34.2018 47.0177 34.1667 47.0761 34.1434 47.1578C34.12 47.2395 34.1083 47.3212 34.1083 47.4029V47.8347C34.1083 47.9281 34.12 48.0098 34.1434 48.0914C34.1667 48.1615 34.2135 48.2315 34.2602 48.2899C34.3187 48.3482 34.3771 48.3949 34.4589 48.4299C34.5408 48.4649 34.6343 48.4766 34.7395 48.4766C34.8914 48.4766 35.0083 48.4416 35.1135 48.3716ZM36.0133 47.2512C36.1068 47.2512 36.1886 47.2628 36.2588 47.2978C36.3289 47.3329 36.3873 47.3795 36.4341 47.4496C36.4691 47.4963 36.4925 47.5546 36.5042 47.6246C36.5159 47.6947 36.5276 47.7647 36.5276 47.8464C36.5276 47.9398 36.5159 48.0215 36.5042 48.0798C36.4947 48.1369 36.4774 48.1785 36.4587 48.2235L36.4586 48.2236L36.4458 48.2549C36.399 48.3249 36.3406 48.3833 36.2588 48.4299C36.1769 48.465 36.0951 48.4883 36.0016 48.4883C35.9081 48.4883 35.8263 48.4766 35.7562 48.4416C35.6861 48.4066 35.6276 48.3599 35.5809 48.3016C35.5107 48.2082 35.4874 48.0565 35.4874 47.8814C35.4874 47.8114 35.4874 47.753 35.499 47.6947C35.5107 47.6363 35.5224 47.5896 35.5458 47.5429C35.5925 47.4496 35.651 47.3912 35.7328 47.3445C35.8029 47.2745 35.9081 47.2512 36.0133 47.2512ZM36.0016 47.4963C35.9549 47.4963 35.9081 47.5079 35.8731 47.5313C35.838 47.5546 35.8029 47.5896 35.7912 47.6246L35.7562 47.7297C35.7445 47.7647 35.7445 47.8114 35.7445 47.858V47.8581V47.8581C35.7445 47.9048 35.7445 47.9514 35.7562 47.9864C35.7562 48.0215 35.7679 48.0565 35.7912 48.0915C35.8146 48.1382 35.838 48.1615 35.8731 48.1849C35.9081 48.2082 35.9549 48.2199 36.0016 48.2199C36.0484 48.2199 36.0951 48.2082 36.1419 48.1732C36.1769 48.1498 36.212 48.1032 36.2237 48.0448C36.2354 48.0215 36.2354 47.9981 36.2354 47.9631V47.8347C36.2354 47.7414 36.2237 47.6713 36.2003 47.6246C36.1769 47.578 36.1536 47.5429 36.1185 47.5196C36.0834 47.5079 36.0484 47.4963 36.0016 47.4963ZM38.2109 47.7414V48.4533H38.4564V47.6713C38.4564 47.5313 38.4213 47.4262 38.3395 47.3562C38.2694 47.2862 38.1642 47.2512 38.0473 47.2512C37.9655 47.2512 37.8954 47.2628 37.8369 47.2978C37.7668 47.3329 37.7083 47.3679 37.6616 47.4262C37.5915 47.3095 37.4863 47.2512 37.3343 47.2512C37.2759 47.2512 37.2174 47.2628 37.159 47.2862C37.1006 47.3095 37.0538 47.3445 37.0188 47.3912V47.2628H36.7499V48.465H37.0188V47.753C37.0188 47.683 37.0421 47.6246 37.0889 47.578C37.1356 47.5313 37.1941 47.5079 37.2525 47.5079C37.3226 47.5079 37.3811 47.5196 37.4161 47.5663C37.4512 47.6013 37.4746 47.6597 37.4746 47.7414V48.465H37.7434V47.753C37.7434 47.683 37.7668 47.6246 37.8135 47.578C37.8603 47.5313 37.9187 47.5079 37.9772 47.5079C38.059 47.5079 38.1174 47.5196 38.1525 47.5663C38.1875 47.6013 38.2109 47.6597 38.2109 47.7414ZM39.0524 47.2628V47.3679H39.0641C39.0991 47.3212 39.1459 47.2862 39.2043 47.2745C39.2511 47.2512 39.3095 47.2512 39.3563 47.2512C39.4498 47.2512 39.5199 47.2745 39.5783 47.3095C39.6368 47.3445 39.6835 47.3912 39.7069 47.4496C39.742 47.5079 39.7536 47.578 39.7653 47.648C39.777 47.718 39.777 47.788 39.777 47.8581C39.777 47.9281 39.7653 47.9981 39.7536 48.0681C39.742 48.1382 39.7186 48.2082 39.6835 48.2665C39.6485 48.3249 39.6017 48.3716 39.5433 48.4066C39.4848 48.4416 39.403 48.465 39.3095 48.465C39.2708 48.465 39.232 48.4569 39.1867 48.4476L39.1576 48.4416C39.1108 48.4183 39.0757 48.3949 39.0407 48.3599V48.9435H38.7719V47.2628H39.0524ZM39.0524 47.8581C39.0524 47.8931 39.0524 47.9398 39.0641 47.9748C39.0641 48.0215 39.0757 48.0565 39.0874 48.0915C39.0991 48.1265 39.1225 48.1498 39.1576 48.1732C39.1926 48.1965 39.2277 48.2082 39.2744 48.2082C39.3212 48.2082 39.3679 48.1965 39.3913 48.1732C39.4264 48.1498 39.4498 48.1265 39.4614 48.0915C39.4731 48.0565 39.4848 48.0215 39.4965 47.9748C39.4965 47.9514 39.4994 47.931 39.5024 47.9106C39.5053 47.8902 39.5082 47.8697 39.5082 47.8464V47.7297C39.5082 47.683 39.4965 47.648 39.4848 47.613C39.4731 47.578 39.4498 47.5429 39.4147 47.5313C39.3796 47.5079 39.3446 47.4963 39.2861 47.4963C39.2394 47.4963 39.1926 47.5079 39.1693 47.5313C39.144 47.5481 39.1309 47.5709 39.1168 47.5955C39.1113 47.605 39.1057 47.6148 39.0991 47.6246C39.0874 47.6597 39.0758 47.6947 39.0641 47.7413C39.0524 47.788 39.0524 47.823 39.0524 47.8581ZM40.6652 47.2745C40.6068 47.2628 40.5483 47.2512 40.4782 47.2512C40.3847 47.2512 40.3146 47.2628 40.2445 47.2745C40.1743 47.2978 40.1042 47.3329 40.0458 47.3912L40.186 47.578C40.1953 47.5717 40.2047 47.5647 40.2142 47.5575C40.2406 47.5376 40.2686 47.5165 40.3029 47.5079C40.3496 47.4963 40.3964 47.4846 40.4665 47.4846C40.5133 47.4846 40.5483 47.4846 40.5834 47.4963L40.6535 47.5313C40.6594 47.5429 40.6652 47.5517 40.6711 47.5604C40.6769 47.5692 40.6827 47.578 40.6886 47.5896C40.7003 47.613 40.7003 47.6363 40.7003 47.6597V47.7414H40.373C40.3029 47.7414 40.2444 47.7413 40.1977 47.7647C40.1509 47.788 40.1042 47.8114 40.0691 47.8464C40.0341 47.8814 40.0107 47.9164 39.9873 47.9631L39.9873 47.9631C39.9756 48.0098 39.9639 48.0565 39.9639 48.1032C39.9639 48.2199 40.0107 48.3132 40.0808 48.3716C40.1509 48.4299 40.2561 48.465 40.3847 48.465C40.4431 48.465 40.5016 48.465 40.56 48.4416C40.6068 48.4183 40.6535 48.3949 40.6886 48.3482V48.4533H40.9574V47.6363C40.9574 47.5663 40.9457 47.4963 40.9223 47.4496C40.899 47.4029 40.8639 47.3679 40.8172 47.3329C40.7821 47.3095 40.7237 47.2862 40.6652 47.2745ZM40.2328 48.1498C40.2211 48.1265 40.2211 48.1148 40.2211 48.0915C40.2211 48.0565 40.2445 48.0215 40.2678 47.9981C40.3029 47.9748 40.3496 47.9631 40.4198 47.9631H40.7003V48.0448V48.0798C40.7003 48.1148 40.6886 48.1382 40.6769 48.1615C40.6652 48.1732 40.6418 48.1965 40.6185 48.2082C40.5951 48.2199 40.56 48.2315 40.5366 48.2315C40.5016 48.2432 40.4782 48.2432 40.4431 48.2432C40.3964 48.2432 40.3613 48.2432 40.338 48.2315C40.3029 48.2199 40.2795 48.2082 40.2678 48.1965C40.2561 48.1849 40.2445 48.1732 40.2328 48.1498ZM41.9509 48.4533V47.7413C41.9509 47.6597 41.9392 47.6013 41.9042 47.5663C41.8691 47.5196 41.8107 47.5079 41.7406 47.5079C41.6704 47.5079 41.6237 47.5313 41.5769 47.5663C41.5302 47.613 41.5068 47.6713 41.5068 47.7413V48.4533H41.238V47.2628H41.5068V47.3912C41.5419 47.3445 41.5886 47.3095 41.647 47.2862C41.7055 47.2628 41.7639 47.2512 41.8107 47.2512C41.9276 47.2512 42.0328 47.2862 42.1029 47.3562C42.173 47.4262 42.2198 47.5313 42.2198 47.6713V48.4533H41.9509ZM42.8392 48.8851C42.8977 48.8501 42.9444 48.7917 42.9795 48.6984L43.5055 47.2512H43.2133L43.0613 47.6947L42.9444 48.0681H42.9328L42.8159 47.6947L42.6639 47.2512H42.3717L42.8159 48.3833L42.7574 48.57C42.7457 48.605 42.7224 48.64 42.699 48.6634C42.6756 48.6867 42.6406 48.6984 42.6055 48.6984H42.5354V48.9318H42.6406C42.7107 48.9318 42.7808 48.9201 42.8392 48.8851Z" fill="white"/>
<path fill-rule="evenodd" clip-rule="evenodd" d="M20.5972 39H26.0672C26.3477 39 26.5697 39.2218 26.558 39.5019V44.8939C26.558 45.1623 26.336 45.3841 26.0672 45.3841H20.5972C20.3284 45.3841 20.1063 45.1623 20.1063 44.8939V39.4902C20.1063 39.2218 20.3284 39 20.5972 39ZM13 39.6301H14.0519V44.5203H13V39.6301ZM31.2798 41.7309H30.9526V39.6301H29.9007V44.5203H30.9526V42.1978H31.2798V44.5203H32.3317V39.6301H31.2798V41.7309ZM15.6883 39.6301L16.0272 41.7193V39.6301H17.0675V44.5203H16.0272L15.6883 42.4195V44.5203H14.6364V39.6301H15.6883ZM37.0539 41.7193L36.7149 39.6301H35.663V44.5203H36.7149V42.4312L37.0539 44.5203H38.0941V39.6301H37.0539V41.7193ZM18.0376 40.1671H17.5117V39.6069H19.6155V40.1671H19.0896V44.5204H18.0376V40.1671ZM43.4471 40.0853V39.6301H42.5355H42.0563H41.4835V44.5203H42.0563H42.5355H43.4471V44.0535H42.5355V42.1978H43.4471V41.7309H42.5355V40.0853H43.4471ZM28.5216 39.6301H28.8254C29.2345 39.6301 29.5618 39.9569 29.5618 40.3654V41.3108H28.5099V40.4004C28.5099 40.272 28.4631 40.167 28.393 40.167C28.3346 40.167 28.2761 40.272 28.2761 40.4004V42.0694V43.7384C28.2761 43.8667 28.3229 43.9718 28.393 43.9718C28.4514 43.9718 28.5099 43.8667 28.5099 43.7384V42.828H29.5618V43.7734C29.5618 44.1819 29.2345 44.5086 28.8254 44.5086H28.5216H28.2878H27.9839C27.5865 44.5086 27.2476 44.1819 27.2476 43.7734V42.0694V40.3654C27.2476 39.9686 27.5748 39.6301 27.9839 39.6301H28.2878H28.5216ZM34.6577 39.6301H34.0967H33.8747H33.3136H33.2318L32.7526 44.5203H33.7344L33.7811 43.1198H34.2253L34.272 44.5203H35.2538L34.7396 39.6301H34.6577ZM33.7695 42.6413L33.8396 40.4588H34.1201L34.1902 42.6413H33.7695ZM39.9991 39.6301H40.303C40.7004 39.6301 41.0394 39.9569 41.0394 40.3654V41.3108H39.9875V40.4004C39.9875 40.272 39.9407 40.167 39.8706 40.167C39.8121 40.167 39.7537 40.272 39.7537 40.4004V42.0694V43.75C39.7537 43.8784 39.8004 43.9834 39.8706 43.9834C39.929 43.9834 39.9875 43.8784 39.9875 43.75V42.7346H39.8355V42.1394H41.0394V42.4195V42.7346V43.7734C41.0394 44.1819 40.7121 44.5086 40.303 44.5086H39.9991H39.7654H39.4615C39.0524 44.5086 38.7252 44.1819 38.7252 43.7734V42.0694V40.3654C38.7252 39.9686 39.0524 39.6301 39.4615 39.6301H39.7654H39.9991Z" fill="white"/>
<path fill-rule="evenodd" clip-rule="evenodd" d="M20.8894 39.4316H21.4504H21.9296H22.9815V40.0969H21.9296V41.8709H22.9815V42.5361H21.9296V44.2985H22.9815V44.9754H21.9296H21.4504H20.8894V39.4316ZM25.0736 39.4318H26.1138L25.5177 42.1978L26.1138 44.9755H25.0736L24.8515 43.3649H24.7113L24.5009 44.9755H23.449L24.0567 42.1978L23.449 39.4318H24.5009L24.7113 41.0307H24.8515L25.0736 39.4318Z" fill="#0B6CFE"/>
<defs>
<linearGradient id="paint0_linear" x1="43.6649" y1="25.2151" x2="-35.9486" y2="79.8575" gradientUnits="userSpaceOnUse">
<stop stop-color="#8FD300"/>
<stop offset="1" stop-color="#00B707"/>
</linearGradient>
</defs>
</svg>
