<svg width="60" height="30" viewBox="0 0 60 30" fill="none" xmlns="http://www.w3.org/2000/svg">
<path d="M30.4498 0.132324H0.132324V29.8678H30.4498V0.132324Z" fill="white"/>
<path d="M30.3175 0.26455V29.7355H0.26455V0.26455H30.3175ZM30.582 0H0V30H30.582V0Z" fill="black"/>
<path d="M60 0H30V30H60V0Z" fill="black"/>
<path d="M33.995 15.8463L33.2014 14.55H32.7516V15.1056C32.7516 15.2907 32.7516 15.6611 32.7781 15.7934H32.1167C32.1432 15.5553 32.1432 14.9468 32.1432 14.6558V13.5976C32.1432 13.2802 32.1432 12.6717 32.1167 12.46C32.2754 12.46 32.8574 12.4336 33.0691 12.4336C33.9686 12.4336 34.4447 12.8833 34.4183 13.4124C34.4183 13.8886 34.1802 14.1796 33.7305 14.3913L34.2331 15.132C34.3389 15.2907 34.577 15.6082 34.6828 15.7669L33.995 15.8463ZM33.1749 14.1003C33.5717 14.1003 33.8098 13.8357 33.8098 13.5182C33.8098 13.1479 33.5982 12.9362 33.122 12.9362C32.9897 12.9362 32.8574 12.9362 32.7516 12.9627V14.1267H33.1749V14.1003Z" fill="white"/>
<path d="M34.8149 14.2063C34.8149 13.1746 35.5028 12.3545 36.5345 12.3545C37.5134 12.3545 38.1747 13.1217 38.1747 14.0212C38.1747 15.0529 37.4869 15.873 36.4552 15.873C35.4763 15.873 34.8149 15.1323 34.8149 14.2063ZM37.5663 14.127C37.5663 13.3333 37.1165 12.8571 36.5081 12.8571C35.8731 12.8571 35.4234 13.4391 35.4234 14.127C35.4234 14.9206 35.8731 15.3968 36.4816 15.3968C37.143 15.3968 37.5663 14.8148 37.5663 14.127Z" fill="white"/>
<path d="M38.8098 12.4072L39.6828 13.8623L39.9474 13.439C40.1326 13.148 40.3707 12.7247 40.5558 12.4337H41.2437L40.0003 14.3384V15.1056C40.0003 15.2908 40.0003 15.6612 40.0267 15.7935H39.3654C39.3918 15.5554 39.3918 14.9469 39.3918 14.6559V14.3914L38.8892 13.5977C38.6775 13.2802 38.3601 12.7511 38.1484 12.4601L38.8098 12.4072Z" fill="white"/>
<path d="M41.7727 13.3597C41.9579 12.9629 42.0637 12.6983 42.1696 12.4073L42.487 12.3809L43.5981 14.8412C43.7304 15.1322 43.9156 15.529 44.0479 15.82L43.3865 15.8465L42.9897 14.947H41.6405V14.9735C41.5346 15.2115 41.4024 15.5819 41.2965 15.82H40.6616L41.7727 13.3597ZM41.8256 14.4973H42.8045L42.3018 13.3332L41.8256 14.4973Z" fill="white"/>
<path d="M46.6142 15.8198C46.3232 15.7934 45.9528 15.7934 45.6089 15.7934C45.2385 15.7934 44.8682 15.7934 44.5771 15.8198C44.6036 15.5817 44.6036 14.9468 44.6036 14.6558V13.5976C44.6036 13.2802 44.6036 12.6717 44.5771 12.46C44.7623 12.46 45.0798 12.46 45.2385 12.4336C45.2121 12.5659 45.2121 12.9627 45.2121 13.1479V15.0262C45.2121 15.1056 45.2121 15.2114 45.2121 15.3172C45.3443 15.3172 45.4766 15.3172 45.6089 15.3172C45.9793 15.3172 46.2967 15.3172 46.6142 15.3172C46.6142 15.4495 46.6142 15.6347 46.6142 15.8198Z" fill="white"/>
<path d="M34.2856 20.4229C34.3121 20.1848 34.3121 19.6028 34.3121 19.2853V18.9149H32.7248V19.7086C32.7248 19.8938 32.7248 20.2641 32.7512 20.3964H32.0898C32.1163 20.1583 32.1163 19.5498 32.1163 19.2588V18.2006C32.1163 17.8832 32.1163 17.2747 32.0898 17.0631C32.275 17.0631 32.5925 17.0631 32.7512 17.0366C32.7248 17.1689 32.7248 17.5657 32.7248 17.7509V18.4387H34.3121V18.2006C34.3121 17.8832 34.3121 17.2747 34.2856 17.0631C34.4708 17.0631 34.7883 17.0631 34.947 17.0366C34.947 17.1689 34.9205 17.5657 34.9205 17.7509V19.735C34.9205 19.9202 34.9205 20.2906 34.947 20.4229H34.2856Z" fill="white"/>
<path d="M35.5288 18.8357C35.5288 17.804 36.2166 16.9839 37.2484 16.9839C38.2272 16.9839 38.8886 17.7511 38.8886 18.6506C38.8886 19.6823 38.2008 20.5024 37.169 20.5024C36.1902 20.5289 35.5288 19.7617 35.5288 18.8357ZM38.3066 18.7564C38.3066 17.9627 37.8569 17.4865 37.2484 17.4865C36.6135 17.4865 36.1637 18.0685 36.1637 18.7564C36.1637 19.55 36.6135 20.0262 37.2219 20.0262C37.8568 20.0262 38.3066 19.4442 38.3066 18.7564Z" fill="white"/>
<path d="M41.4286 20.4492C41.1376 20.4228 40.7673 20.4228 40.4234 20.4228C40.053 20.4228 39.6826 20.4228 39.3916 20.4492C39.4181 20.2111 39.4181 19.5762 39.4181 19.2852V18.227C39.4181 17.9095 39.4181 17.3011 39.3916 17.0894C39.5768 17.0894 39.8942 17.0894 40.053 17.063C40.0265 17.1953 40.0265 17.5921 40.0265 17.7773V19.6556C40.0265 19.7349 40.0265 19.8408 40.0265 19.9466C40.1588 19.9466 40.2911 19.9466 40.4234 19.9466C40.7937 19.9466 41.1112 19.9466 41.4286 19.9466C41.4286 20.0789 41.4286 20.264 41.4286 20.4492Z" fill="white"/>
<path d="M43.9946 20.4492C43.7036 20.4228 43.3332 20.4228 42.9893 20.4228C42.6189 20.4228 42.2485 20.4228 41.9575 20.4492C41.984 20.2111 41.984 19.5762 41.984 19.2852V18.227C41.984 17.9095 41.984 17.3011 41.9575 17.0894C42.1427 17.0894 42.4602 17.0894 42.6189 17.063C42.5924 17.1953 42.5924 17.5921 42.5924 17.7773V19.6556C42.5924 19.7349 42.5924 19.8408 42.5924 19.9466C42.7247 19.9466 42.857 19.9466 42.9893 19.9466C43.3596 19.9466 43.6771 19.9466 43.9946 19.9466C44.021 20.0789 44.021 20.264 43.9946 20.4492Z" fill="white"/>
<path d="M44.0474 18.8357C44.0474 17.804 44.7352 16.9839 45.7669 16.9839C46.7458 16.9839 47.4072 17.7511 47.4072 18.6506C47.4072 19.6823 46.7193 20.5024 45.6876 20.5024C44.7087 20.5289 44.0474 19.7617 44.0474 18.8357ZM46.7987 18.7564C46.7987 17.9627 46.3489 17.4865 45.7405 17.4865C45.1056 17.4865 44.6558 18.0685 44.6558 18.7564C44.6558 19.55 45.1056 20.0262 45.714 20.0262C46.3754 20.0262 46.7987 19.4442 46.7987 18.7564Z" fill="white"/>
<path d="M51.402 19.5234C51.2433 19.9202 51.1639 20.1848 51.0581 20.4758L50.7671 20.5022L49.9205 18.1477L49.3914 19.5763C49.312 19.8409 49.1798 20.1319 49.0475 20.5022H48.7565L47.8835 18.0684C47.7776 17.7774 47.6454 17.3805 47.5396 17.0895L48.2009 17.0631L48.9681 19.4176L49.4972 17.9096C49.5501 17.7245 49.7353 17.2218 49.7882 17.0631L50.0792 17.0366L50.9258 19.444L51.402 17.9625L51.6665 17.116H52.3015L51.402 19.5234Z" fill="white"/>
<path d="M52.9099 17.9891C53.0951 17.5923 53.2009 17.3277 53.3068 17.0367L53.6242 17.0103L54.7353 19.4706C54.8676 19.7616 55.0528 20.1584 55.1851 20.4494L54.5237 20.4759L54.1269 19.5764H52.7777V19.6028C52.6718 19.8409 52.5396 20.2113 52.4337 20.4494H51.7988L52.9099 17.9891ZM52.9628 19.1267H53.9417L53.439 17.9626L52.9628 19.1267Z" fill="white"/>
<path d="M55.4758 17.0366L56.3488 18.4916L56.6134 18.0684C56.7986 17.7774 57.0367 17.3541 57.2219 17.0631H57.9097L56.6663 18.9678V19.735C56.6663 19.9202 56.6663 20.2906 56.6928 20.4229H56.0314C56.0578 20.1848 56.0578 19.5763 56.0578 19.2853V19.0207L55.5552 18.2271C55.3436 17.9096 55.0261 17.3805 54.8145 17.0895L55.4758 17.0366Z" fill="white"/>
<path d="M34.7618 22.3808V23.5448C34.7618 24.0475 34.6295 24.3385 34.3914 24.5766C34.1533 24.8147 33.8094 24.9469 33.3861 24.9469C32.6454 24.9469 32.1163 24.4972 32.1163 23.7565V22.7776C32.1163 22.4866 32.1163 21.9046 32.0898 21.693C32.275 21.693 32.566 21.693 32.7248 21.6665C32.7248 21.7988 32.6983 22.1427 32.6983 22.3279V23.5977C32.6983 24.2062 32.9893 24.4443 33.4655 24.4443C33.9417 24.4443 34.2062 24.1533 34.2062 23.6771V22.7776C34.2062 22.4866 34.2062 21.9046 34.1798 21.693C34.365 21.693 34.656 21.693 34.8147 21.6665C34.7618 21.8517 34.7618 22.1956 34.7618 22.3808Z" fill="white"/>
<path d="M35.3439 23.8098L35.3704 22.7516C35.3704 22.4606 35.3704 21.9315 35.3439 21.7198L35.6085 21.6934L37.4868 23.9156V22.8309C37.4868 22.5399 37.4868 21.9579 37.4603 21.7463C37.6455 21.7463 37.9365 21.7463 38.0688 21.7198C38.0423 21.8521 38.0423 22.196 38.0423 22.3812L38.0159 24.2595C38.0159 24.4182 38.0159 24.7886 38.0159 24.9209L37.7513 24.9473L35.873 22.7516V24.233C35.873 24.4182 35.873 24.7621 35.8995 24.868H35.291C35.3175 24.6563 35.3439 24.1008 35.3439 23.8098Z" fill="white"/>
<path d="M38.7568 24.8943C38.7833 24.6827 38.7833 24.1007 38.7833 23.8097V22.8308C38.7833 22.5398 38.7833 21.9578 38.7568 21.7462C38.942 21.7462 39.233 21.7462 39.3918 21.7197C39.3653 21.852 39.3653 22.1959 39.3653 22.3811V24.233C39.3653 24.3917 39.3653 24.7621 39.3918 24.8679H38.7568V24.8943Z" fill="white"/>
<path d="M40.4761 21.7197L41.3756 23.9949L41.9312 22.5398C42.037 22.2753 42.1428 21.9843 42.2222 21.7462H42.8571L41.8783 24.0478C41.7195 24.4181 41.6137 24.6827 41.5343 24.9472L41.2433 24.9737L40.2645 22.6721C40.1587 22.3811 40 22.0372 39.8677 21.7726L40.4761 21.7197Z" fill="white"/>
<path d="M45.2379 24.8943C44.9733 24.8679 44.6294 24.8679 44.2855 24.8679C43.9416 24.8679 43.5712 24.8679 43.3066 24.8943C43.3331 24.6827 43.3331 24.1007 43.3331 23.8097V22.8308C43.3331 22.5398 43.3331 21.9314 43.3066 21.7197C43.5976 21.7197 43.9151 21.7462 44.259 21.7462C44.6029 21.7462 44.8939 21.7462 45.1849 21.7197C45.1585 21.8785 45.1585 22.0107 45.1585 22.1959C44.8939 22.1959 44.6558 22.1959 44.3384 22.1959C44.2061 22.1959 44.0474 22.1959 43.9151 22.1959C43.9151 22.2753 43.9151 22.3811 43.9151 22.434V23.016H44.9733C44.9733 23.1483 44.9469 23.307 44.9469 23.4658H43.8887V24.18C43.8887 24.233 43.8887 24.3652 43.8887 24.4446C44.0209 24.4446 44.1532 24.4446 44.3119 24.4446C44.6558 24.4446 44.9733 24.4446 45.2643 24.4181C45.2379 24.5769 45.2379 24.7356 45.2379 24.8943Z" fill="white"/>
<path d="M47.5395 24.9209L46.7987 23.7039H46.3755V24.233C46.3755 24.3918 46.3755 24.7621 46.4019 24.868H45.7935C45.8199 24.6563 45.8199 24.0743 45.8199 23.7833V22.8045C45.8199 22.5135 45.8199 21.9315 45.7935 21.7198C45.9522 21.7198 46.4813 21.6934 46.6929 21.6934C47.5395 21.6934 47.9892 22.1166 47.9628 22.6193C47.9628 23.069 47.7247 23.3336 47.3278 23.5452L47.804 24.2595C47.9099 24.4182 48.1215 24.7092 48.2273 24.8415L47.5395 24.9209ZM46.7458 23.2807C47.1162 23.2807 47.3543 23.0426 47.3543 22.7251C47.3543 22.3812 47.1427 22.1696 46.6929 22.1696C46.5607 22.1696 46.4548 22.1696 46.349 22.196V23.2807H46.7458Z" fill="white"/>
<path d="M49.3913 24.9734C49.0738 24.9734 48.7034 24.8676 48.4653 24.7088L48.4918 24.1533C48.677 24.312 49.0738 24.4972 49.4177 24.4972C49.7087 24.4972 49.9204 24.3385 49.9204 24.0475C49.9204 23.4919 48.5712 23.439 48.5712 22.5924C48.5712 22.0369 48.9944 21.6665 49.6029 21.6665C49.9204 21.6665 50.2114 21.7723 50.3965 21.9046L50.2643 22.3808C50.1055 22.2485 49.841 22.1691 49.6294 22.1691C49.3384 22.1691 49.1532 22.3279 49.1532 22.566C49.1532 23.0951 50.5024 23.1215 50.5024 24.021C50.4759 24.5501 50.0526 24.9734 49.3913 24.9734Z" fill="white"/>
<path d="M50.9785 24.8943C51.005 24.6827 51.005 24.1007 51.005 23.8097V22.8308C51.005 22.5398 51.005 21.9578 50.9785 21.7462C51.1637 21.7462 51.4547 21.7462 51.6134 21.7197C51.587 21.852 51.587 22.1959 51.587 22.3811V24.233C51.587 24.3917 51.587 24.7621 51.6134 24.8679H50.9785V24.8943Z" fill="white"/>
<path d="M54.7353 22.2224C54.3913 22.2224 54.1003 22.2224 53.73 22.2224C53.73 22.3282 53.73 22.434 53.73 22.5134V24.2594C53.73 24.4181 53.73 24.7885 53.7564 24.8943H53.1215C53.148 24.6827 53.148 24.1007 53.148 23.8097V22.9367C53.148 22.7515 53.148 22.4605 53.148 22.2224C52.7511 22.2224 52.4601 22.2224 52.1162 22.2224C52.1427 22.0636 52.1427 21.8785 52.1427 21.7197C52.5659 21.7197 52.9628 21.7462 53.439 21.7462C53.9416 21.7462 54.3649 21.7462 54.7882 21.7197C54.7353 21.8785 54.7353 22.0372 54.7353 22.2224Z" fill="white"/>
<path d="M55.6613 21.6934L56.4814 23.0426L56.7195 22.6457C56.9047 22.3812 57.1163 21.9844 57.275 21.6934H57.91L56.7459 23.4923V24.2066C56.7459 24.3653 56.7459 24.7357 56.7724 24.8415H56.1639C56.1904 24.6299 56.1904 24.0479 56.1904 23.7569V23.4923L55.7142 22.7516C55.529 22.4341 55.2116 21.9579 55.0264 21.6934H55.6613Z" fill="white"/>
<path d="M32.1162 27.0897C32.1162 26.5341 32.4866 26.1108 33.0421 26.1108C33.5712 26.1108 33.9152 26.5077 33.9152 26.9839C33.9152 27.5394 33.5448 27.9627 32.9892 27.9627C32.4601 27.9891 32.1162 27.5659 32.1162 27.0897ZM33.5712 27.0632C33.5712 26.6399 33.3331 26.4018 33.0157 26.4018C32.6718 26.4018 32.4337 26.7193 32.4337 27.0632C32.4337 27.4865 32.6718 27.7246 32.9892 27.7246C33.3331 27.7246 33.5712 27.4071 33.5712 27.0632Z" fill="white"/>
<path d="M35.2646 26.428C35.1323 26.428 34.9736 26.428 34.8148 26.428C34.7355 26.428 34.6561 26.428 34.5767 26.428C34.5767 26.4809 34.5767 26.5339 34.5767 26.5868V26.9307H35.1587C35.1587 27.01 35.1587 27.0894 35.1587 27.1952H34.6032V27.6185C34.6032 27.7243 34.6032 27.9095 34.6032 27.9889H34.2593C34.2593 27.8566 34.2857 27.5391 34.2857 27.3804V26.8249C34.2857 26.6661 34.2857 26.3222 34.2593 26.1899C34.418 26.1899 34.6032 26.1899 34.7884 26.1899C34.9736 26.1899 35.1587 26.1899 35.3175 26.1899C35.2646 26.2429 35.2646 26.3222 35.2646 26.428Z" fill="white"/>
<path d="M37.1428 27.9361C36.984 27.9361 36.7988 27.9361 36.6137 27.9361C36.4285 27.9361 36.2168 27.9361 36.0581 27.9361C36.0581 27.8038 36.0846 27.4863 36.0846 27.3276V26.772C36.0846 26.6133 36.0846 26.2958 36.0581 26.1636C36.1639 26.1636 36.3227 26.1636 36.402 26.1636C36.402 26.2429 36.402 26.4281 36.402 26.5339V27.5392C36.402 27.5657 36.402 27.6451 36.402 27.698C36.4814 27.698 36.5343 27.698 36.6137 27.698C36.8253 27.698 36.984 27.698 37.1428 27.698C37.1692 27.7509 37.1428 27.8567 37.1428 27.9361Z" fill="white"/>
<path d="M37.2749 27.0897C37.2749 26.5341 37.6453 26.1108 38.2008 26.1108C38.7299 26.1108 39.0738 26.5077 39.0738 26.9839C39.0738 27.5394 38.7035 27.9627 38.1479 27.9627C37.6188 27.9891 37.2749 27.5659 37.2749 27.0897ZM38.7299 27.0632C38.7299 26.6399 38.4918 26.4018 38.1744 26.4018C37.8305 26.4018 37.5924 26.7193 37.5924 27.0632C37.5924 27.4865 37.8305 27.7246 38.1479 27.7246C38.4918 27.7246 38.7299 27.4071 38.7299 27.0632Z" fill="white"/>
<path d="M39.3913 27.3278V26.7193C39.3913 26.5606 39.3913 26.2431 39.3913 26.1373L39.55 26.1108L40.6082 27.3542V26.7458C40.6082 26.587 40.6082 26.2696 40.5818 26.1373C40.6876 26.1373 40.8463 26.1373 40.9257 26.1373C40.9257 26.2167 40.8992 26.4018 40.8992 26.5077V27.5659C40.8992 27.6717 40.8992 27.8569 40.8992 27.9362L40.7405 27.9627L39.6823 26.7193V27.5659C39.6823 27.6717 39.6823 27.8569 39.6823 27.9362H39.3384C39.3648 27.804 39.3913 27.4865 39.3913 27.3278Z" fill="white"/>
<path d="M41.9048 27.9361H41.3228C41.3228 27.8038 41.3492 27.4863 41.3492 27.3276V26.772C41.3492 26.6133 41.3492 26.2958 41.3228 26.1636C41.4021 26.1636 41.5873 26.1636 41.8519 26.1636C42.4868 26.1636 42.8307 26.5339 42.8307 27.0101C42.8571 27.5657 42.4603 27.9361 41.9048 27.9361ZM41.8783 26.4017C41.7989 26.4017 41.746 26.4017 41.6931 26.4017C41.6931 26.4546 41.6931 26.5075 41.6931 26.5604V27.5128C41.6931 27.5657 41.6931 27.5921 41.6931 27.6451C41.746 27.6451 41.7989 27.6451 41.9048 27.6451C42.3545 27.6451 42.5397 27.354 42.5397 27.0101C42.5132 26.6398 42.3016 26.4017 41.8783 26.4017Z" fill="white"/>
<path d="M43.1743 27.0897C43.1743 26.5341 43.5447 26.1108 44.1002 26.1108C44.6293 26.1108 44.9733 26.5077 44.9733 27.0103C44.9733 27.5659 44.6029 27.9891 44.0473 27.9891C43.5182 27.9891 43.1743 27.5659 43.1743 27.0897ZM44.6293 27.0368C44.6293 26.6135 44.3912 26.3489 44.0473 26.3489C43.7034 26.3489 43.4653 26.6664 43.4653 27.0103C43.4653 27.4336 43.7034 27.6981 44.0473 27.6981C44.4177 27.7246 44.6293 27.4071 44.6293 27.0368Z" fill="white"/>
<path d="M45.2911 27.3278V26.7193C45.2911 26.5606 45.2911 26.2431 45.2911 26.1373L45.4498 26.1108L46.5345 27.3807V26.7722C46.5345 26.6135 46.5345 26.2696 46.508 26.1638C46.6139 26.1638 46.7726 26.1638 46.852 26.1638C46.852 26.2431 46.8255 26.4283 46.8255 26.5341V27.6188C46.8255 27.7246 46.8255 27.9098 46.8255 27.9891L46.6668 28.0156L45.6086 26.7722V27.6188C45.6086 27.7246 45.6086 27.9098 45.6086 27.9891H45.2646C45.2911 27.804 45.2911 27.4865 45.2911 27.3278Z" fill="white"/>
<path d="M10.5027 25.3439C10.5292 25.3439 10.5556 25.3439 10.5821 25.3174L10.4763 25.2645L10.4498 25.2909H10.4234C10.4234 25.2909 10.3969 25.2909 10.3969 25.2645L10.1588 25.0264C10.2382 25.0264 10.2911 25.0264 10.3175 24.9999L10.4234 24.947L10.5556 25.0528H10.635L10.4763 24.8941L10.6879 24.7618L10.7673 24.8412C10.7937 24.8677 10.7937 24.8677 10.7673 24.947V24.9735H10.8731C10.8996 24.947 10.8996 24.9206 10.8731 24.8941L10.7408 24.7618L10.7673 24.7354L10.6879 24.7089C10.6086 24.656 10.5821 24.6296 10.5556 24.6031C10.5292 24.5767 10.4763 24.5767 10.4498 24.5767H10.4234L10.4498 24.6296C10.4498 24.6296 10.4498 24.6296 10.4763 24.6296C10.5027 24.6296 10.5556 24.656 10.6086 24.6825L10.635 24.7089L10.3969 24.8677H10.3175L10.344 24.8941C10.2911 24.9206 10.2382 24.947 10.1853 24.9735C10.1588 24.9735 10.1588 24.9735 10.1324 24.9735C10.1059 24.9735 10.0795 24.9735 10.053 24.947H9.97363L10.1059 25.0793C10.1324 25.1058 10.1853 25.1587 10.2117 25.2116C10.2382 25.238 10.2382 25.238 10.2646 25.2645C10.2911 25.2909 10.2911 25.2909 10.3175 25.3174C10.344 25.3439 10.3705 25.3703 10.4498 25.3703C10.4763 25.3439 10.4763 25.3439 10.5027 25.3439Z" fill="black"/>
<path d="M11.0052 25.3968C10.9787 25.3174 11.0052 25.291 11.0316 25.2645C11.0581 25.2381 11.0845 25.2116 11.1374 25.2116C11.1639 25.2116 11.1904 25.2116 11.1904 25.2381C11.2168 25.2645 11.2168 25.291 11.1904 25.3439V25.3703H11.2962C11.3226 25.3174 11.3226 25.2645 11.2697 25.2116C11.2168 25.1587 11.1375 25.1587 11.111 25.1587C11.0316 25.1587 10.9787 25.1851 10.9258 25.2381C10.8729 25.291 10.8994 25.3439 10.8994 25.4232C10.8994 25.4762 10.9258 25.5291 10.8729 25.582C10.8464 25.6084 10.7935 25.6349 10.7671 25.6349C10.7142 25.6349 10.6877 25.6084 10.6613 25.582C10.6083 25.5291 10.6083 25.4762 10.6083 25.4497C10.6083 25.4497 10.6083 25.4232 10.6348 25.3703V25.3439H10.5819L10.4761 25.4232C10.4761 25.5026 10.5025 25.5555 10.5554 25.6084C10.6084 25.6613 10.6877 25.6878 10.7671 25.6878C10.7671 25.6878 10.7671 25.6878 10.7935 25.6878C10.8994 25.6878 10.9523 25.6613 11.0052 25.6084C11.0316 25.5555 11.0316 25.5026 11.0052 25.3968Z" fill="black"/>
<path d="M11.3758 25.8994C11.4022 25.8465 11.4022 25.8201 11.3758 25.6878C11.3493 25.6084 11.3493 25.582 11.4022 25.5555C11.4287 25.5291 11.4551 25.5026 11.5081 25.5026C11.5345 25.5026 11.5345 25.5026 11.561 25.5291C11.5874 25.5555 11.5874 25.582 11.561 25.6349V25.6613H11.6668C11.6932 25.6084 11.6668 25.5555 11.6403 25.5026C11.5874 25.4762 11.5081 25.4497 11.4816 25.4497C11.4816 25.4497 11.4816 25.4497 11.4551 25.4497C11.3758 25.4497 11.3229 25.4762 11.27 25.5555C11.217 25.6084 11.2435 25.6878 11.27 25.7407C11.2964 25.7936 11.2964 25.8465 11.27 25.8994C11.2435 25.9259 11.1906 25.9524 11.1377 25.9524C11.1112 25.9524 11.0583 25.9524 11.0319 25.9259C10.979 25.873 10.9525 25.8201 10.9525 25.7936C10.9525 25.7936 10.9525 25.7672 10.979 25.7143V25.6878H10.926L10.8467 25.7672C10.8467 25.8465 10.8731 25.8994 10.9525 25.9259C11.0054 25.9788 11.0848 25.9788 11.1377 25.9788H11.1641C11.27 25.9788 11.3493 25.9524 11.3758 25.8994Z" fill="black"/>
<path d="M12.2222 25.8733L12.0635 25.7675L12.09 25.7411L12.0106 25.7146C11.9312 25.6617 11.9048 25.6617 11.8519 25.6353C11.7989 25.6353 11.7725 25.6353 11.7196 25.6353L11.746 25.7146C11.7989 25.6882 11.8519 25.6882 11.9048 25.7411L11.9312 25.7675L11.7196 25.9263H11.6402L11.6667 25.9527C11.6138 26.0056 11.5873 26.0321 11.5344 26.0585C11.5079 26.085 11.5079 26.085 11.4815 26.085C11.455 26.085 11.4286 26.085 11.4021 26.0585L11.3228 26.085L11.4815 26.1908C11.5079 26.2173 11.5873 26.2702 11.6138 26.2966C11.6402 26.2966 11.6402 26.3231 11.6667 26.3231C11.6931 26.3495 11.7196 26.3495 11.7196 26.376C11.746 26.376 11.7725 26.4025 11.7989 26.4025C11.8254 26.4025 11.8519 26.4024 11.9048 26.376C11.9312 26.376 11.9577 26.3495 11.9577 26.3231L11.9048 26.2966C11.9048 26.2966 11.9048 26.3231 11.8783 26.3231C11.8783 26.3495 11.8519 26.3495 11.8519 26.3495H11.8254L11.5344 26.1644C11.6138 26.1644 11.6667 26.1379 11.6931 26.1114L11.7725 26.0321L11.9312 26.1114L12.0106 26.085L11.8254 25.9792L12.0106 25.8204L12.1164 25.8998C12.1429 25.9263 12.1429 25.9263 12.1429 26.0056V26.0321L12.2487 26.0056C12.2487 25.9263 12.2487 25.8998 12.2222 25.8733Z" fill="black"/>
<path d="M13.3068 26.3494C13.2275 26.323 13.0952 26.323 13.0158 26.3494C12.8836 26.4023 12.8042 26.5082 12.7513 26.614C12.7248 26.6933 12.7248 26.7727 12.7513 26.8256C12.7777 26.8785 12.8042 26.905 12.8836 26.9314C12.91 26.9314 12.9365 26.9579 12.9365 26.9579H12.9629C13.0158 27.0902 13.0687 27.196 13.201 27.2489C13.2275 27.2489 13.2539 27.2754 13.2804 27.2754C13.3068 27.2754 13.3333 27.2754 13.3598 27.2489L13.3333 27.0902L13.3068 27.1431C13.2804 27.196 13.2539 27.2224 13.2275 27.196C13.201 27.196 13.1481 27.1431 13.0687 26.9579C13.1217 26.9579 13.1481 26.9314 13.1746 26.9314C13.2804 26.8785 13.3598 26.7727 13.4127 26.6404C13.4656 26.4817 13.4391 26.3759 13.3068 26.3494ZM13.3068 26.5875C13.2275 26.7992 13.1217 26.8521 13.0423 26.8785V26.8521L12.9629 26.8785H12.9365C12.8836 26.8521 12.8571 26.8256 12.8571 26.7727C12.8571 26.7198 12.8571 26.6669 12.8836 26.6404C12.9365 26.4817 13.0687 26.3759 13.1746 26.3759C13.201 26.3759 13.2275 26.3759 13.2275 26.3759C13.2539 26.4023 13.3598 26.4553 13.3068 26.5875Z" fill="black"/>
<path d="M14.0744 27.1694C14.0215 27.1694 14.0215 27.1694 13.9686 27.1429V27.1165C13.9686 27.09 13.995 27.0635 14.0215 27.0106L14.2596 26.5609H14.2331C14.1008 26.5344 14.0744 26.5609 14.0479 26.5874H14.0215L14.1008 26.6138L13.8627 27.0635C13.7834 27.09 13.7305 27.09 13.6775 27.09C13.6246 27.0635 13.5982 27.0371 13.5982 26.9577C13.6246 26.8254 13.7834 26.6403 13.8892 26.5344C13.8892 26.5344 13.8892 26.5344 13.8892 26.508C13.8892 26.508 13.8892 26.508 13.8892 26.4815C13.8892 26.4815 13.8892 26.4815 13.8627 26.4815H13.8363C13.8098 26.4551 13.7569 26.4551 13.7305 26.4551C13.704 26.4551 13.6775 26.4551 13.6511 26.4551C13.6246 26.4551 13.6246 26.4551 13.5982 26.4551C13.5453 26.4815 13.4924 26.5344 13.4395 26.5609L13.5188 26.5874C13.5188 26.5344 13.5717 26.508 13.6246 26.508H13.6511C13.6775 26.508 13.704 26.5344 13.7305 26.5344C13.6246 26.6403 13.4924 26.799 13.4659 26.9313C13.4659 26.9577 13.4659 27.0106 13.4659 27.0635C13.4924 27.09 13.5188 27.1165 13.5453 27.1165C13.5717 27.1165 13.5717 27.1165 13.5982 27.1165C13.6511 27.1165 13.7569 27.1165 13.8098 27.09V27.1429C13.8098 27.1429 13.8098 27.1694 13.8363 27.1694H13.995C14.0479 27.2223 14.0744 27.1958 14.0744 27.1694Z" fill="black"/>
<path d="M14.7619 27.2223C14.7354 27.2223 14.7354 27.2223 14.7354 27.2223C14.7354 27.2223 14.7354 27.2223 14.7354 27.1959C14.7354 27.1694 14.8148 26.6932 14.8412 26.6139L14.8148 26.5874C14.7883 26.6139 14.7619 26.6139 14.7619 26.6139C14.7354 26.6139 14.709 26.6139 14.709 26.6139C14.6825 26.6139 14.6561 26.6139 14.6296 26.5874C14.6031 26.5874 14.5767 26.5874 14.5502 26.5874C14.5238 26.5874 14.4444 26.6403 14.418 26.6668C14.3915 26.6932 14.3915 26.7197 14.365 26.7197V26.7461H14.4444C14.4444 26.6932 14.4973 26.6668 14.5767 26.6668C14.6031 26.6668 14.6561 26.6932 14.709 26.6932L14.4709 26.9842C14.3386 27.1165 14.3121 27.143 14.2328 27.143C14.2328 27.143 14.2328 27.143 14.2063 27.143H14.1799L14.127 27.2223C14.1534 27.2223 14.1534 27.2223 14.1799 27.2223C14.2592 27.2223 14.3121 27.2223 14.418 27.09L14.4709 27.0107L14.6561 27.0371L14.6031 27.2488C14.6031 27.2752 14.6296 27.2752 14.6296 27.2752C14.6825 27.2752 14.7354 27.2752 14.8148 27.2488L14.8412 27.1959H14.7883C14.8148 27.2223 14.7883 27.2223 14.7619 27.2223ZM14.709 26.7726L14.6561 27.0107L14.5238 26.9842L14.709 26.7726Z" fill="black"/>
<path d="M15.8729 26.4552C15.8464 26.4552 15.8464 26.4552 15.82 26.4552C15.82 26.4552 15.7141 26.5345 15.6877 26.561C15.6612 26.5874 15.6612 26.6139 15.6348 26.6403L15.3702 27.0901L15.2909 26.5874L15.238 26.6403H15.2115C15.185 26.6403 15.1586 26.6403 15.1586 26.6403C15.1057 26.6403 15.0528 26.6404 15.0263 26.6933C14.9999 26.7197 14.9734 26.7726 14.947 26.7991L14.9999 26.852V26.8255C14.9999 26.7991 14.9999 26.7726 15.0263 26.7462C15.0528 26.7197 15.0792 26.7197 15.1057 26.7197C15.1321 26.7197 15.185 26.7197 15.2115 26.7197L15.1321 27.0372C15.1057 27.1959 15.0792 27.1959 14.9999 27.2224C14.9734 27.2224 14.947 27.2224 14.947 27.2224L14.894 27.3282H14.9205C14.9205 27.3282 14.9205 27.3282 14.947 27.3282C15.0263 27.3282 15.0528 27.3282 15.0792 27.3017C15.1057 27.2753 15.185 27.1959 15.185 27.1165L15.2644 26.7991L15.3173 27.3017L15.3702 27.2488L15.6348 26.7726L15.5554 27.2488C15.5554 27.2753 15.5819 27.2753 15.5819 27.2753C15.6348 27.2753 15.7141 27.2488 15.7671 27.2488L15.82 27.1959H15.7935H15.7671C15.7406 27.1959 15.7141 27.1959 15.7141 27.1959C15.6877 27.1959 15.6877 27.1959 15.6877 27.1695C15.6877 27.1695 15.6877 27.1165 15.6877 27.0901L15.7671 26.5874C15.7671 26.561 15.7935 26.5345 15.82 26.5345H15.8729L15.8993 26.4287L15.8729 26.4552C15.8993 26.4552 15.8993 26.4552 15.8729 26.4552Z" fill="black"/>
<path d="M17.1956 26.1114C17.1691 26.1114 17.1427 26.0849 17.1427 26.1114C17.1162 26.1114 17.1162 26.1114 17.0898 26.1643C17.1162 26.1907 17.1427 26.2172 17.1427 26.2436C17.1692 26.3495 17.1162 26.5082 17.0898 26.5876L16.984 26.8521L16.9046 26.3759L16.9575 26.323H16.9311L16.7988 26.3759C16.7723 26.3759 16.7459 26.4024 16.7194 26.4288C16.693 26.4553 16.6665 26.4817 16.6665 26.5082H16.7194C16.7194 26.4553 16.7723 26.4288 16.7988 26.4288H16.8252L16.9311 27.0373L17.0104 26.9844C17.0369 26.9579 17.1691 26.614 17.2221 26.5082C17.3014 26.2966 17.3014 26.2172 17.275 26.1643C17.2221 26.1378 17.2221 26.1114 17.1956 26.1114Z" fill="black"/>
<path d="M17.4869 26.1376C17.5398 26.1111 17.5398 26.1111 17.5662 26.0582L17.5927 26.0317L17.3546 26.1376C17.3546 26.1376 17.3281 26.164 17.3281 26.1905V26.2169L17.4075 26.1905L17.4604 26.7196C17.4075 26.746 17.4075 26.746 17.381 26.7989V26.8254L17.6191 26.7196C17.6456 26.7196 17.6456 26.6931 17.672 26.6667V26.6402L17.5662 26.6667L17.4869 26.1376Z" fill="black"/>
<path d="M17.8572 25.8466V25.8201L17.7779 25.8995C17.7514 25.8995 17.725 25.9259 17.725 25.9524C17.6721 26.0053 17.6191 26.0847 17.6191 26.164V26.1905H17.6985C17.6985 26.1111 17.725 26.0582 17.8043 26.0053L17.9101 26.455C17.9366 26.5344 17.9101 26.5608 17.8308 26.6402L17.8043 26.746H17.8308C17.8572 26.746 17.8572 26.7196 17.8837 26.7196C17.9101 26.6931 17.9366 26.6931 17.9895 26.6667C18.0953 26.6138 18.1482 26.5608 18.2012 26.5344C18.2541 26.5079 18.3334 26.3757 18.3599 26.2434C18.3599 26.164 18.3334 26.0582 18.307 25.9524C18.1747 25.7672 18.0424 25.7407 17.8572 25.8466ZM17.9631 26.1905L17.8837 25.8995C17.9366 25.873 17.9895 25.873 18.016 25.873C18.0689 25.873 18.1218 25.9259 18.1482 25.9788C18.1747 26.0317 18.2012 26.1376 18.2012 26.1905C18.2012 26.3492 18.1218 26.4021 18.0424 26.455C18.016 26.4815 17.9631 26.4815 17.9366 26.5079H17.9101C17.9895 26.3757 17.9895 26.3228 17.9631 26.1905Z" fill="black"/>
<path d="M18.9682 25.7409L18.8888 25.8202L18.9153 25.8467C18.9417 25.8732 18.9153 25.8732 18.9153 25.8996L18.6243 26.0848C18.6507 26.0054 18.6507 25.9525 18.6243 25.9261L18.5978 25.8202L18.7301 25.7144L18.7566 25.6351L18.5714 25.7409L18.492 25.5028L18.5978 25.4234H18.6243C18.6507 25.4234 18.6507 25.4234 18.7036 25.4499L18.7301 25.3441C18.7036 25.3176 18.6772 25.3176 18.6507 25.3441L18.492 25.4499V25.4234L18.4391 25.5028C18.3597 25.5557 18.3333 25.5822 18.3068 25.6086C18.2804 25.6615 18.2539 25.7144 18.2539 25.7673H18.3333V25.7409C18.3068 25.688 18.3333 25.6351 18.4126 25.5822L18.4391 25.5557L18.5185 25.7938L18.492 25.8732L18.5185 25.8467C18.5449 25.8996 18.5714 25.9525 18.5714 26.0054C18.5714 26.0583 18.5714 26.0848 18.5185 26.1377V26.2435L18.6772 26.1377C18.7036 26.1113 18.783 26.0848 18.8095 26.0583C18.8359 26.0583 18.8359 26.0319 18.8624 26.0319C18.8888 26.0054 18.9153 26.0054 18.9153 26.0054C18.9682 25.979 18.9682 25.9525 18.9946 25.8202C18.9946 25.7938 18.9946 25.7673 18.9682 25.7409Z" fill="black"/>
<path d="M19.6828 25.3707C19.7093 25.45 19.6828 25.4765 19.6563 25.5029C19.6034 25.5294 19.4976 25.5029 19.3124 25.3707L19.1802 25.2913C19.2066 25.2649 19.2331 25.2119 19.2331 25.159C19.2595 25.1061 19.2331 25.0268 19.2066 25.0003C19.1802 24.9738 19.1272 24.9474 19.1008 24.9738C19.0743 24.9738 19.0479 25.0003 18.9685 25.0532L18.9421 25.0268L18.8891 25.1326C18.8627 25.159 18.8627 25.159 18.8362 25.1855C18.7833 25.2384 18.7569 25.3178 18.7833 25.3707V25.3971L18.8627 25.3707C18.8362 25.3178 18.8627 25.2649 18.9156 25.2119L19.0743 25.5294C19.1537 25.6881 19.1272 25.741 19.1008 25.7675H19.0479V25.8733L19.2331 25.7146C19.286 25.6881 19.286 25.6617 19.3124 25.5823V25.5559L19.2066 25.6617C19.2066 25.5559 19.2066 25.4765 19.1537 25.3707L19.3389 25.5029C19.4447 25.5823 19.5241 25.6088 19.577 25.6088C19.6299 25.6088 19.6828 25.5823 19.7357 25.5559C19.7357 25.5559 19.8151 25.5029 19.8151 25.4765L19.7093 25.3707H19.6828ZM19.1802 25.1855C19.1802 25.2384 19.1537 25.2913 19.1272 25.3178L19.0214 25.1061C19.0479 25.0797 19.0743 25.0532 19.1008 25.0532C19.1272 25.0532 19.1272 25.0532 19.1537 25.0797C19.1537 25.1061 19.1802 25.1326 19.1802 25.1855Z" fill="black"/>
<path d="M19.7089 25.1851L19.4179 24.7089C19.4444 24.6825 19.4444 24.656 19.4708 24.6031V24.5767L19.2856 24.7618C19.2856 24.7618 19.2856 24.7883 19.2856 24.8148V24.8412L19.365 24.7883L19.656 25.2645C19.6031 25.3174 19.6031 25.3174 19.6031 25.3703V25.3968L19.7883 25.2116C19.7883 25.2116 19.8147 25.1851 19.8147 25.1322V25.1058L19.7089 25.1851Z" fill="black"/>
<path d="M23.2009 11.455C23.0421 11.9048 23.0157 12.4868 22.222 12.8836C22.1427 12.5133 21.9839 11.8519 21.4548 11.5873C22.513 10.9789 22.275 9.92066 22.275 9.92066C22.275 9.92066 21.4548 10.6085 20.4496 10.2646C20.4496 10.2646 22.222 10.1323 22.3014 8.75664C22.3543 8.14817 21.9839 7.32807 21.1903 7.03706C20.4231 6.74606 19.9734 5.89949 19.9734 5.89949C19.9734 5.89949 19.3914 7.06351 20.6083 7.4868C19.894 7.83071 20.2379 8.51854 20.2379 8.51854C20.2379 8.51854 20.3966 8.25399 20.6877 8.14817C20.5818 8.41272 20.4496 8.70373 20.2908 8.86246C20.1586 8.99473 19.9205 9.10055 19.8146 9.15346C20.185 7.83071 18.7564 7.35452 18.7564 7.35452C18.7564 7.35452 18.7564 7.38098 18.7564 7.40743C18.7564 7.59262 18.9152 8.86246 18.148 8.91537C17.8305 8.94182 17.6453 8.80955 17.566 8.65082C17.566 8.65082 18.0422 8.51854 18.0686 8.04235C18.0951 7.43389 17.5924 7.01061 17.3014 7.01061L18.7035 4.52383L17.222 1.90479L15.9522 4.15346C15.9257 4.15346 15.8993 4.15346 15.8728 4.15346C15.9257 4.0741 15.9522 3.99473 15.9522 3.88891C15.9522 3.65082 15.7406 3.46563 15.476 3.46563C15.2115 3.46563 14.9998 3.65082 14.9998 3.88891C14.9998 3.99473 15.0263 4.0741 15.1056 4.15346C15.0263 4.15346 14.9734 4.17992 14.9469 4.17992L13.6506 1.90479L12.1691 4.49738L12.275 4.68256H11.7194C11.931 4.68256 12.4072 3.20108 11.2697 2.80426C11.6136 3.67727 10.9257 3.80955 10.9257 4.28574C10.9257 4.44447 11.0051 4.6032 11.1109 4.68256L11.2961 4.8942C11.3226 4.92066 11.4019 5.00002 11.5607 5.07939C11.6929 5.1323 12.3543 5.26457 12.6453 5.34394L13.5448 6.93124C13.148 6.93124 13.0421 6.95769 12.9892 6.95769C12.566 7.03706 12.275 7.56616 12.275 7.98944C12.275 8.25399 12.4866 8.51854 12.4866 8.51854L12.513 8.57145C12.3808 8.67727 12.1956 8.80955 11.9839 8.99473C11.9046 8.99473 11.8252 8.99473 11.7194 8.99473C10.9787 8.94182 11.058 7.59262 11.0845 7.35452C11.0845 7.35452 9.62945 7.7778 10.0263 9.15346C9.92046 9.0741 9.68236 8.99473 9.55009 8.86246C9.49718 8.75664 9.3649 8.46563 9.25908 8.20108C9.49718 8.3069 9.57654 8.38627 9.70882 8.57145C9.76173 8.43918 9.99982 7.83071 9.33845 7.53971C10.5818 7.11643 9.97337 5.9524 9.97337 5.9524C9.97337 5.9524 9.52363 6.79896 8.75644 7.08997C7.98924 7.38098 7.59241 8.22754 7.64532 8.80955C7.72469 9.68256 8.51834 10.1852 9.49718 10.3175C8.57125 10.582 8.3067 10.291 7.67178 9.97357C7.56596 10.8201 7.96278 11.2963 8.49189 11.6402C8.0686 11.8519 7.85697 12.3281 7.72469 12.9365C6.93104 12.5926 6.74585 11.508 6.74585 11.508C6.74585 11.508 6.08448 13.7831 7.98924 13.9418C7.80406 14.0741 7.22204 14.4709 7.14268 15.2646C7.08977 17.3016 8.46543 17.2752 9.02099 18.1746C9.15326 18.4127 9.12681 18.836 9.10035 19.0741C8.88871 19.0741 8.72998 19.2328 8.72998 19.4445C8.72998 19.4709 8.72998 19.5238 8.75644 19.5503C8.67707 19.6032 8.59771 19.6561 8.5448 19.7355C8.41252 19.9207 8.38606 20.1852 8.49189 20.4233C8.5448 20.5291 8.57125 20.6085 8.62416 20.7143C8.22733 20.7937 7.88342 20.873 7.88342 20.873C8.49189 21.217 8.94162 21.2699 8.94162 22.6191H9.39136C9.3649 22.7778 9.33845 22.9894 9.33845 23.1746C9.31199 23.545 9.31199 25.3175 9.31199 25.3175C9.31199 25.3175 11.5871 28.0424 14.9998 28.0424C18.148 28.0424 20.3173 25.7143 20.6877 25.291C20.7141 25 20.6877 22.963 20.6083 22.5662H21.0316C21.0316 21.9312 20.9787 21.3492 22.0898 20.8201C21.7194 20.7408 21.7459 20.7408 21.349 20.6614C21.4019 20.582 21.8517 19.9207 21.2168 19.4974C21.2168 19.4709 21.2432 19.418 21.2432 19.3916C21.2432 19.1799 21.0845 19.0212 20.8728 19.0212C20.8728 19.0212 20.767 18.3863 20.9522 18.1217C21.2961 17.4868 22.9363 17.09 22.8305 15.2117C22.7776 14.4445 22.1691 14.0476 21.9839 13.8889C23.1215 13.8095 23.5448 12.6984 23.2009 11.455ZM11.6929 3.94182C11.5078 4.28574 11.2697 4.33865 11.1638 4.47092C11.1109 4.17992 11.3755 4.02119 11.4813 3.80955C11.5871 3.59791 11.5607 3.3069 11.5342 3.17463C11.6929 3.3069 11.7988 3.70373 11.6929 3.94182ZM19.1533 7.88362C19.3649 8.06881 19.5501 8.38627 19.603 8.73018C19.6824 9.12701 19.4178 9.68256 19.4178 9.68256C19.4178 9.68256 20.0792 9.55029 20.5289 9.12701C20.7935 8.836 20.9522 8.43918 21.0316 8.20108C21.3755 8.25399 21.7988 8.65082 21.5607 9.23283C21.4548 9.47092 21.2961 9.70902 21.1109 9.84129C20.8464 10.0265 20.5289 10.0794 20.2908 10.1058C20.3966 9.84129 20.4496 9.62965 20.4496 9.62965C18.9416 10.5556 17.9892 9.73547 17.9892 9.73547C18.7829 9.6032 19.4178 9.10055 19.1533 7.88362ZM17.7511 12.4074C18.0686 12.9101 18.0951 13.1746 18.0421 13.6244C18.3596 13.6244 18.9681 13.3598 18.5712 12.381C18.7564 12.672 19.1533 13.3334 19.4707 13.4921C20.2908 13.9154 21.1109 13.6773 21.1109 13.6773C21.1109 13.6773 20.2115 12.5397 19.5765 12.0635C19.312 11.8254 18.8358 11.5609 18.7829 11.4815C18.9152 11.5344 19.4972 11.9048 19.9205 11.799C19.9998 11.9577 20.185 12.3281 20.5289 12.5397C20.8993 12.7778 21.349 12.9101 21.6929 12.9894C21.4019 13.0424 21.0051 13.0159 20.6877 12.9101C21.0051 13.2804 21.349 13.7302 21.349 13.7302C21.349 13.7302 21.0316 13.8625 20.6347 13.8625C20.9522 14.1535 21.3226 14.5767 21.5607 15.0265C21.5607 15.0265 21.5871 15.3704 21.2432 15.3968C20.8728 15.3704 20.6877 14.7355 20.6877 14.3651C20.6877 14.3651 20.4231 14.6297 20.3173 14.7619V13.836H17.7776C17.8305 13.5979 17.9099 13.0953 17.7511 12.5662V12.4074ZM20.5554 19.6297C20.3702 19.8413 20.3702 20.5027 20.3702 20.5556C20.2115 20.5556 20.0263 20.582 19.8146 20.6349C19.9998 20.0529 20.1321 19.4445 20.2115 18.836V18.7302C20.3173 18.8889 20.4496 19.0476 20.5554 19.1535C20.5025 19.2064 20.476 19.3122 20.476 19.3916C20.476 19.4709 20.5025 19.5503 20.5554 19.6297ZM19.9998 14.1799V16.5873H10.0263V14.1799H14.3914L15.0792 14.418C15.0792 14.418 15.1056 14.2593 15.1586 14.1799H19.9998ZM19.5236 20.6085C19.4972 20.6614 19.2326 21.3757 19.1797 21.4815L18.4654 22.672L17.3014 20.7143L16.1374 22.6455L17.1691 24.3651C17.0104 24.5503 16.8252 24.709 16.6665 24.8413C16.5871 24.7884 16.5078 24.709 16.3755 24.5767C16.1903 24.3916 16.1374 24.1535 16.1374 24.1535C16.1374 24.1006 16.1638 24.0212 16.1903 23.9418C16.2432 23.7831 16.2961 23.7302 16.2961 23.7302C16.2961 23.7302 16.2432 23.6773 16.1903 23.5185C16.1374 23.3863 16.1109 23.2275 16.1109 23.2275C16.1109 23.2275 16.0845 23.3863 16.0316 23.5185C15.9787 23.6773 15.9257 23.7302 15.9257 23.7302C15.9257 23.7302 15.9787 23.7831 16.0316 23.9418L16.0845 24.1535C16.0845 24.1535 16.0316 24.3916 15.8464 24.5767C15.6083 24.8413 15.4496 24.8942 15.4496 24.8942C15.4496 24.8942 15.6347 24.8942 15.8728 24.709C16.0316 24.6032 16.0845 24.4974 16.0845 24.4974V24.5238C16.0845 24.5238 16.0316 24.709 15.8993 24.8413C15.767 24.9736 15.6347 25.0265 15.6347 25.0265C15.6347 25.0265 15.767 25.0529 15.9257 24.9207C16.058 24.8148 16.058 24.7884 16.058 24.7884V24.8413C16.058 24.8413 16.0316 24.9471 15.9522 25.0265C15.8993 25.1058 15.7935 25.1588 15.7935 25.1588C15.7935 25.1588 15.8993 25.1323 15.9787 25.0794C16.0316 25.0529 16.058 25 16.058 25L16.0845 25.2646C15.9257 25.3968 15.767 25.5291 15.6347 25.6085L14.9734 24.4974L14.312 25.6614C14.1797 25.5556 14.021 25.4498 13.8358 25.291L13.8623 25.1058C13.8623 25.1058 13.8887 25.1588 13.9416 25.1852C14.021 25.2381 14.1268 25.2646 14.1268 25.2646C14.1268 25.2646 14.021 25.2117 13.9681 25.1323C13.8887 25.0265 13.8623 24.9471 13.8623 24.9471V24.8942C13.8623 24.8942 13.8623 24.9207 13.9945 25.0265C14.1533 25.1588 14.2855 25.1323 14.2855 25.1323C14.2855 25.1323 14.1797 25.0794 14.021 24.9471C13.8887 24.8148 13.8358 24.6297 13.8358 24.6297V24.6032C13.8358 24.6032 13.8887 24.6826 14.0474 24.8148C14.2591 24.9736 14.4707 25 14.4707 25C14.4707 25 14.312 24.9471 14.0739 24.6826C13.8887 24.4974 13.8358 24.2593 13.8358 24.2593C13.8358 24.2064 13.8623 24.127 13.8887 24.0476C13.9416 23.8889 13.9945 23.836 13.9945 23.836C13.9945 23.836 13.9416 23.7831 13.8887 23.6244C13.8358 23.4921 13.8093 23.3334 13.8093 23.3334C13.8093 23.3334 13.7829 23.4921 13.73 23.6244C13.6771 23.7831 13.6242 23.836 13.6242 23.836C13.6242 23.836 13.6771 23.8889 13.73 24.0476L13.7829 24.2593C13.7829 24.2593 13.73 24.4974 13.5448 24.6826C13.439 24.7884 13.3596 24.8677 13.3067 24.8942C13.148 24.7355 12.9892 24.5767 12.8041 24.3916L13.8093 22.7249L12.6718 20.7937L11.5078 22.7249C11.2168 22.2752 10.9522 21.799 10.7406 21.3492C10.6877 21.217 10.476 20.7408 10.4496 20.6085L11.4813 18.8889L10.3702 17.0106H11.4284C11.4019 17.09 11.3226 17.1958 11.2432 17.2752C11.0051 17.5397 10.8464 17.5926 10.8464 17.5926C10.8464 17.5926 11.0316 17.5926 11.2697 17.4074C11.4284 17.3016 11.4813 17.1958 11.4813 17.1958V17.2222C11.4813 17.2222 11.4284 17.4074 11.2961 17.5397C11.1638 17.672 11.0316 17.7249 11.0316 17.7249C11.0316 17.7249 11.1638 17.7513 11.3226 17.6191C11.4548 17.5133 11.4548 17.4868 11.4548 17.4868V17.5397C11.4548 17.5397 11.4284 17.6455 11.349 17.7249C11.2961 17.8043 11.1903 17.8572 11.1903 17.8572C11.1903 17.8572 11.2961 17.8307 11.3755 17.7778C11.4284 17.7513 11.4548 17.6984 11.4548 17.6984L11.5078 18.2275L11.5607 17.6984C11.5607 17.6984 11.5871 17.7513 11.64 17.7778C11.7194 17.8307 11.8252 17.8572 11.8252 17.8572C11.8252 17.8572 11.7194 17.8043 11.6665 17.7249C11.5871 17.6191 11.5607 17.5397 11.5607 17.5397V17.4868C11.5607 17.4868 11.5607 17.5133 11.6929 17.6191C11.8517 17.7513 11.9839 17.7249 11.9839 17.7249C11.9839 17.7249 11.8781 17.672 11.7194 17.5397C11.5871 17.4074 11.5342 17.2222 11.5342 17.2222V17.1958C11.5342 17.1958 11.5871 17.2752 11.7459 17.4074C11.9575 17.5662 12.1691 17.5926 12.1691 17.5926C12.1691 17.5926 12.0104 17.5397 11.7723 17.2752C11.6929 17.1958 11.64 17.09 11.5871 17.0106H13.73C13.7035 17.09 13.6242 17.1958 13.5448 17.2752C13.3067 17.5397 13.148 17.5926 13.148 17.5926C13.148 17.5926 13.3332 17.5926 13.5712 17.4074C13.73 17.3016 13.7829 17.1958 13.7829 17.1958V17.2222C13.7829 17.2222 13.73 17.4074 13.5977 17.5397C13.4654 17.672 13.3332 17.7249 13.3332 17.7249C13.3332 17.7249 13.4654 17.7513 13.6242 17.6191C13.7564 17.5133 13.7564 17.4868 13.7564 17.4868V17.5397C13.7564 17.5397 13.73 17.6455 13.6506 17.7249C13.5977 17.8043 13.4919 17.8572 13.4919 17.8572C13.4919 17.8572 13.5977 17.8307 13.6771 17.7778C13.73 17.7513 13.7564 17.6984 13.7564 17.6984L13.8093 18.2275L13.8623 17.6984C13.8623 17.6984 13.8887 17.7513 13.9416 17.7778C14.021 17.8307 14.1268 17.8572 14.1268 17.8572C14.1268 17.8572 14.021 17.8043 13.9681 17.7249C13.8887 17.6191 13.8623 17.5397 13.8623 17.5397V17.4868C13.8623 17.4868 13.8623 17.5133 13.9945 17.6191C14.1533 17.7513 14.2855 17.7249 14.2855 17.7249C14.2855 17.7249 14.1797 17.672 14.021 17.5397C13.8887 17.4074 13.8358 17.2222 13.8358 17.2222V17.1958C13.8358 17.1958 13.8887 17.2752 14.0474 17.4074C14.2591 17.5662 14.4707 17.5926 14.4707 17.5926C14.4707 17.5926 14.312 17.5397 14.0739 17.2752C13.9945 17.1958 13.9416 17.09 13.8887 17.0106H16.0316C16.0051 17.09 15.9257 17.1958 15.8464 17.2752C15.6083 17.5397 15.4496 17.5926 15.4496 17.5926C15.4496 17.5926 15.6347 17.5926 15.8728 17.4074C16.0316 17.3016 16.0845 17.1958 16.0845 17.1958V17.2222C16.0845 17.2222 16.0316 17.4074 15.8993 17.5397C15.767 17.672 15.6347 17.7249 15.6347 17.7249C15.6347 17.7249 15.767 17.7513 15.9257 17.6191C16.058 17.5133 16.058 17.4868 16.058 17.4868V17.5397C16.058 17.5397 16.0316 17.6455 15.9522 17.7249C15.8993 17.8043 15.7935 17.8572 15.7935 17.8572C15.7935 17.8572 15.8993 17.8307 15.9787 17.7778C16.0316 17.7513 16.058 17.6984 16.058 17.6984L16.1109 18.2275L16.1638 17.6984C16.1638 17.6984 16.1903 17.7513 16.2432 17.7778C16.3226 17.8307 16.4284 17.8572 16.4284 17.8572C16.4284 17.8572 16.3226 17.8043 16.2697 17.7249C16.1903 17.6191 16.1638 17.5397 16.1638 17.5397V17.4868C16.1638 17.4868 16.1638 17.5133 16.2961 17.6191C16.4548 17.7513 16.5871 17.7249 16.5871 17.7249C16.5871 17.7249 16.4813 17.672 16.3226 17.5397C16.1903 17.4074 16.1374 17.2222 16.1374 17.2222V17.1958C16.1374 17.1958 16.1903 17.2752 16.349 17.4074C16.5607 17.5662 16.7723 17.5926 16.7723 17.5926C16.7723 17.5926 16.6136 17.5397 16.3755 17.2752C16.2961 17.1958 16.2432 17.09 16.1903 17.0106H18.3332C18.3067 17.09 18.2273 17.1958 18.148 17.2752C17.9099 17.5397 17.7511 17.5926 17.7511 17.5926C17.7511 17.5926 17.9363 17.5926 18.1744 17.4074C18.3332 17.3016 18.3861 17.1958 18.3861 17.1958V17.2222C18.3861 17.2222 18.3332 17.4074 18.2009 17.5397C18.0686 17.672 17.9363 17.7249 17.9363 17.7249C17.9363 17.7249 18.0686 17.7513 18.2273 17.6191C18.3596 17.5133 18.3596 17.4868 18.3596 17.4868V17.5397C18.3596 17.5397 18.3332 17.6455 18.2538 17.7249C18.2009 17.8043 18.0951 17.8572 18.0951 17.8572C18.0951 17.8572 18.2009 17.8307 18.2802 17.7778C18.3332 17.7513 18.3596 17.6984 18.3596 17.6984L18.4125 18.2275L18.4654 17.6984C18.4654 17.6984 18.4919 17.7513 18.5448 17.7778C18.6242 17.8307 18.73 17.8572 18.73 17.8572C18.73 17.8572 18.6242 17.8043 18.5712 17.7249C18.4919 17.6191 18.4654 17.5397 18.4654 17.5397V17.4868C18.4654 17.4868 18.4654 17.5133 18.5977 17.6191C18.7564 17.7513 18.8887 17.7249 18.8887 17.7249C18.8887 17.7249 18.7829 17.672 18.6242 17.5397C18.4919 17.4074 18.439 17.2222 18.439 17.2222V17.1958C18.439 17.1958 18.4919 17.2752 18.6506 17.4074C18.8623 17.5662 19.0739 17.5926 19.0739 17.5926C19.0739 17.5926 18.9152 17.5397 18.6771 17.2752C18.5977 17.1958 18.5448 17.09 18.4919 17.0106H19.5236L18.439 18.7831L19.5236 20.6085ZM16.2697 25.1058C16.1903 25 16.1638 24.9207 16.1638 24.9207V24.8677C16.1638 24.8677 16.1638 24.8942 16.2961 25C16.349 25.0265 16.3755 25.0529 16.4019 25.0794C16.3755 25.1058 16.3226 25.1323 16.2961 25.1852C16.2961 25.1323 16.2961 25.1323 16.2697 25.1058ZM16.2697 25.1852C16.2168 25.2117 16.1903 25.2646 16.1374 25.291L16.1638 25.1058C16.1903 25.1058 16.2168 25.1323 16.2697 25.1852ZM16.349 24.8942C16.2168 24.7619 16.1638 24.5767 16.1638 24.5767V24.5503C16.1638 24.5503 16.2168 24.6297 16.3755 24.7619C16.4813 24.8413 16.5607 24.8677 16.64 24.8942C16.5871 24.9471 16.5342 24.9736 16.4813 25.0265C16.4284 24.9736 16.3755 24.9471 16.349 24.8942ZM17.9099 23.9683C18.4919 23.254 18.9945 22.5397 19.3649 21.799C19.4178 22.09 19.5765 22.4868 19.6559 22.7513C19.7353 22.9894 19.7353 23.2011 19.7353 23.3069C19.7088 23.3334 18.4919 25.3968 15.9787 25.8466C16.4813 25.4498 17.1427 24.8677 17.9099 23.9683ZM10.6347 21.7196C11.1109 22.672 11.5078 23.2275 12.1162 23.9683C12.8834 24.8677 13.5448 25.4498 14.0739 25.8466C11.8252 25.4498 10.5818 23.7566 10.3437 23.3598C10.1056 22.8572 10.5554 22.3281 10.6347 21.7196ZM13.7564 24.9207C13.7564 24.9207 13.73 25.0265 13.6506 25.1058C13.6242 25.0794 13.5977 25.0529 13.5448 25.0265C13.5713 25.0265 13.5977 25 13.6242 24.9736C13.7564 24.8677 13.7564 24.8413 13.7564 24.8413V24.9207ZM13.7564 25.2117C13.73 25.1852 13.7035 25.1588 13.6771 25.1588C13.7035 25.1323 13.73 25.1058 13.73 25.1058L13.7564 25.2117ZM13.5712 24.8942C13.5448 24.9207 13.5183 24.9471 13.4919 24.9736C13.439 24.9207 13.4125 24.8942 13.3596 24.8413C13.4125 24.8148 13.4919 24.7884 13.5712 24.7355C13.73 24.6297 13.7829 24.5238 13.7829 24.5238V24.5503C13.7564 24.5767 13.73 24.7619 13.5712 24.8942ZM9.41781 19.1535C9.52363 19.0476 9.65591 18.8889 9.76173 18.7302C9.81464 19.3651 9.94691 20 10.1586 20.6349C9.97337 20.582 9.76173 20.5556 9.603 20.5556C9.57654 20.4498 9.65591 19.9471 9.41781 19.6032C9.47072 19.5503 9.49718 19.4709 9.49718 19.3916C9.52363 19.3122 9.47072 19.2328 9.41781 19.1535ZM9.65591 14.8148C9.55009 14.6561 9.41781 14.5503 9.28554 14.3916C9.12681 15.8201 8.43898 15.4762 8.41252 15.0529C8.57125 14.709 9.04744 14.1799 9.33845 13.8889C8.88871 13.8889 8.62416 13.7566 8.62416 13.7566C8.62416 13.7566 8.99453 13.2804 9.28554 12.9365C8.99453 13.0159 8.57125 13.0688 8.28025 13.0159C8.8358 12.8836 9.73527 12.6455 10.0527 11.8254C10.3437 11.9048 10.7935 11.7196 11.1903 11.508C10.9522 11.6667 10.0527 12.1693 8.88871 13.6773C10.3966 13.9154 10.7935 13.4392 11.4019 12.381C11.2961 12.7513 11.2168 12.9894 11.349 13.3863C11.5078 13.9154 12.0369 13.7302 12.0369 13.7302C11.8252 12.5397 12.566 12.09 12.7776 11.9312C12.9099 12.1164 13.2273 12.6191 13.2802 12.6984C12.857 13.2275 12.566 13.4921 12.566 13.4921L13.5448 13.8625H9.65591V14.8148ZM14.5236 7.22225L14.9469 8.0159H14.5236L14.0739 7.22225H14.5236ZM13.8093 7.01061L14.2591 6.1905C14.312 6.21695 14.3649 6.24341 14.4178 6.26986C14.6295 6.34923 14.8146 6.45505 15.1056 6.50796C14.9205 6.66669 14.3649 6.82542 14.3649 6.82542L14.2855 7.01061H13.8093V7.01061ZM14.7617 7.01061C14.894 6.9577 15.2908 6.74606 15.5025 6.53441C15.5818 6.53441 15.6877 6.53441 15.7406 6.53441C15.8993 6.64023 16.2168 6.90479 16.5342 7.01061H14.7617ZM14.894 14.0476L14.1004 13.7831C14.1004 13.7831 14.4178 13.4127 14.9734 13.0159C14.9734 13.254 14.9998 13.4127 14.9998 13.4127C14.9998 13.4127 15.3702 13.0688 15.7406 12.5397C16.8781 12.0106 17.4601 12.4868 17.5395 12.7513C16.8781 12.2222 15.2115 13.2804 14.894 14.0476ZM16.4019 13.8889H15.3437C15.5554 13.5979 16.0316 13.2275 16.2961 13.1217C16.4284 13.3863 16.4284 13.7831 16.4019 13.8889ZM17.513 12.2752C17.3543 12.1693 16.8517 11.8254 16.0051 12.1429C16.2697 11.799 16.4548 10.9259 16.4019 10.3439C16.6665 11.0318 16.9046 11.6667 17.513 12.0635V12.2752ZM16.5342 8.0159L16.0845 7.22225H16.5078L16.9575 8.0159C16.8517 8.0159 16.5342 8.0159 16.5342 8.0159ZM16.931 7.01061L16.8517 6.82542C16.8517 6.82542 16.349 6.69315 16.1374 6.50796C16.4019 6.45505 16.6136 6.32278 16.7723 6.24341L17.222 7.03706C17.1956 7.01061 16.931 7.01061 16.931 7.01061ZM15.5554 7.22225L15.9787 8.0159H15.5289L15.0792 7.22225H15.5554ZM15.6083 8.49209C15.6347 8.51854 16.0845 9.12701 16.0845 9.57674C16.0845 9.73547 15.9787 10.7408 14.5236 10.4762C16.1638 10.2646 15.767 8.99473 15.6083 8.49209ZM14.2062 10.3175C14.2062 10.3175 14.6824 11.4815 15.5025 10.7937C15.0263 11.4815 14.9469 11.9841 14.9469 12.7249C14.4707 13.0424 14.0474 13.4392 14.0474 13.4392C13.7035 12.8836 12.1956 10.5556 11.7723 10.2117H14.894C14.5765 10.3175 14.2062 10.3175 14.2062 10.3175ZM13.9152 13.7037L13.0686 13.4127C13.148 13.3069 13.2538 13.2275 13.4654 12.9365C13.5183 13.0424 13.9152 13.7037 13.9152 13.7037ZM17.4337 7.2487C18.1215 7.67198 17.9099 8.28045 17.7511 8.41272L17.0633 7.22225C17.1162 7.22225 17.4072 7.22225 17.4337 7.2487ZM17.275 2.4868L17.4337 2.75135L16.2697 4.81484L16.1109 4.55029L17.275 2.4868ZM15.5554 3.70373C15.6877 3.70373 15.7935 3.80955 15.7935 3.94182C15.7935 4.0741 15.6877 4.17992 15.5554 4.17992C15.4231 4.17992 15.3173 4.0741 15.3173 3.94182C15.2908 3.80955 15.4231 3.70373 15.5554 3.70373ZM15.8728 4.44447L15.8199 4.55029L15.9257 4.73547H14.6559C14.6559 4.70902 15.1321 4.28574 15.8728 4.44447ZM13.7035 2.4868L13.8623 2.7778L12.7511 4.76193H12.6453L12.5395 4.57674L13.7035 2.4868ZM12.222 5.00002H14.9469H16.0845L16.64 6.00531C16.5342 6.08468 16.2432 6.29632 15.6083 6.29632C15.476 6.29632 15.1056 6.26986 14.5501 6.03177C13.5713 5.50267 13.3596 5.23812 12.222 5.00002ZM13.5183 7.22225L13.9681 8.0159H13.5448L13.1215 7.22225C13.0951 7.22225 13.2273 7.22225 13.5183 7.22225ZM12.566 8.06881C12.566 7.91008 12.6189 7.69844 12.7247 7.53971L13.0686 8.12172C12.9099 8.22754 12.7511 8.35981 12.6982 8.41272C12.6453 8.33336 12.566 8.20108 12.566 8.06881ZM13.2802 8.43918C13.3067 8.43918 13.439 8.43918 13.8887 8.43918C14.3384 8.43918 14.9205 8.43918 15.3702 8.43918C15.3966 8.545 15.4231 8.65082 15.4231 8.78309H13.7035C13.7035 8.78309 13.7564 9.23283 13.3332 9.23283H12.2485C12.7511 8.86246 13.2009 8.51854 13.2802 8.43918ZM11.6929 9.49738H13.5183C13.9416 9.49738 13.9681 9.10055 13.9681 9.04764H15.4496C15.5025 9.65611 15.3966 9.84129 15.2908 9.94711H11.5871C11.4548 9.92066 11.1903 9.73547 11.1638 9.73547C11.2432 9.68256 11.6136 9.49738 11.6929 9.49738ZM8.96808 8.17463C9.0739 8.41272 9.20617 8.80955 9.47072 9.10055C9.894 9.55029 10.5289 9.62965 10.5289 9.62965C10.5289 9.62965 10.0263 8.65082 10.8199 7.88362C10.6877 8.59791 10.8464 9.17992 11.2168 9.41801L10.6347 9.73547C10.6347 9.73547 10.8728 9.8942 11.0845 10.0265C10.2644 10.1588 9.55009 9.62965 9.55009 9.62965C9.55009 9.62965 9.57654 9.84129 9.70882 10.1058C8.46543 10.0529 7.80406 8.51854 8.96808 8.17463ZM9.04744 11.5344C8.49189 11.2963 8.06861 10.873 7.98924 10.3704C8.46543 10.6349 8.96808 10.7937 9.92046 10.3968C10.2379 10.8466 10.7406 10.8201 10.9257 10.8201C10.476 11.1376 9.78818 11.1111 9.17972 10.7143C9.28554 11.0318 9.39136 11.4021 9.86755 11.7196C9.78818 11.9048 9.603 12.1693 9.33845 12.3281C8.86226 12.6455 8.33316 12.7778 8.04215 12.8307C8.22734 12.3016 8.46543 11.7725 9.04744 11.5344ZM8.72998 17.381C8.67707 17.3545 7.80405 16.8519 8.33316 15.5027C8.33316 15.5027 8.99453 16.1905 9.47072 15C10.3966 16.217 8.57125 16.5344 8.57125 16.5344C9.97337 16.9842 9.92046 18.1217 9.44427 18.7831C9.52363 18.2011 9.17972 17.6984 8.72998 17.381ZM9.68236 16.2434V17.0106C9.49718 16.7725 9.28554 16.6667 9.12681 16.5873C9.39136 16.4815 9.603 16.3492 9.68236 16.2434ZM8.91517 19.709C8.96808 19.7619 9.04744 19.7884 9.15326 19.7884C9.20617 19.7884 9.23263 19.7884 9.28554 19.7619C9.3649 19.8677 9.41781 20.0794 9.41781 20.3439C9.39136 20.6614 9.52363 21.0053 9.603 21.1111C9.12681 21.0318 8.28025 20.1323 8.91517 19.709ZM9.44427 22.3016H9.23263C9.20617 22.0635 9.17972 21.6138 9.02099 21.3492C8.91517 21.1376 8.65062 21.0053 8.49189 20.8995C8.57125 20.873 8.67707 20.873 8.80935 20.8466C9.25908 21.3757 9.86755 21.2699 9.86755 21.2699C9.86755 21.2699 9.73527 21.1111 9.65591 20.7937C9.92046 20.8201 10.1321 20.8466 10.2908 20.9259C10.3437 21.0582 10.3966 21.1905 10.4496 21.3228C10.3966 21.5344 10.2379 21.7461 10.1321 21.8519C9.86755 22.1429 9.47072 22.0106 9.44427 22.3016ZM14.9998 27.7778C11.9839 27.7778 9.894 25.5556 9.57654 25.1852C9.57654 24.9736 9.47072 22.2222 9.84109 22.2487C10.0792 22.3016 9.52363 22.6455 10.0263 23.4127C10.0527 23.4392 11.5078 25.8995 14.5236 26.1376C14.7882 26.2963 14.8675 26.3757 14.894 26.3757L14.9469 26.4021L14.9998 26.3757C15.0263 26.3757 15.185 26.2963 15.4231 26.1376C18.0421 25.8995 19.5765 23.9154 19.8146 23.5715C20.4231 22.7778 19.9734 22.3545 20.1056 22.2222C20.476 22.1429 20.3702 24.8413 20.3702 25.1588C20.1056 25.5556 18.0157 27.7778 14.9998 27.7778ZM21.5078 20.9259C21.349 21.0318 21.0845 21.164 20.9787 21.3757C20.8199 21.6138 20.7935 22.0635 20.767 22.3281H20.5554C20.5554 22.1958 20.4496 22.1164 20.3437 22.1164C20.0792 22.09 19.7617 21.9842 19.5501 21.4021C19.603 21.2699 19.6559 21.1111 19.7088 20.9789C19.8411 20.926 20.0792 20.873 20.3173 20.8466C20.2379 21.164 20.1056 21.3228 20.1056 21.3228C20.1056 21.3228 20.7141 21.4021 21.1638 20.8995C21.2961 20.8995 21.4284 20.8995 21.5078 20.9259ZM21.0845 19.709C21.5078 19.8942 21.349 20.8201 20.4496 21.1111C20.7141 20.7408 20.5554 20 20.7406 19.7619C20.767 19.7619 20.9257 19.8148 21.0845 19.709ZM21.2697 17.381C21.058 17.5397 20.4496 18.0159 20.5554 18.7566C20.1056 18.1217 19.9734 16.9842 21.4284 16.508C20.3173 16.2699 19.9998 15.7143 20.5289 14.9736C20.9522 16.0318 21.5871 15.6085 21.6665 15.4762C21.8517 15.9524 22.0369 16.8783 21.2697 17.381ZM20.3173 17.0635V16.2434C20.5289 16.4286 20.6612 16.4815 20.8464 16.5609C20.7141 16.6667 20.5025 16.7725 20.3173 17.0635ZM20.1321 11.7461C20.6347 11.4815 20.8199 10.7408 20.8199 10.7408C20.8199 10.7408 19.9469 11.4021 19.0739 10.8466C19.1003 10.8466 19.7088 10.9524 20.0792 10.4233C20.6347 10.6085 21.1109 10.873 22.0104 10.3968C21.8517 11.2434 20.9522 11.5609 20.9522 11.5609C21.3226 11.7725 21.6665 11.9312 21.9575 12.8572C21.4813 12.7249 20.5025 12.4868 20.1321 11.7461Z" fill="black"/>
<path d="M18.4657 20.7143V20.6878C18.4657 20.6878 18.5186 20.7672 18.6773 20.8994C18.8889 21.0582 19.1006 21.0846 19.1006 21.0846C19.1006 21.0846 18.9419 21.0317 18.7038 20.7672C18.5186 20.582 18.4657 20.3439 18.4657 20.3439C18.4657 20.291 18.4921 20.2116 18.5186 20.1323C18.5715 19.9735 18.6244 19.9206 18.6244 19.9206C18.6244 19.9206 18.5715 19.8677 18.5186 19.709C18.4657 19.5767 18.4392 19.418 18.4392 19.418C18.4392 19.418 18.4128 19.5767 18.3598 19.709C18.3069 19.8412 18.254 19.8942 18.254 19.8942C18.254 19.8942 18.3069 19.9471 18.3598 20.1058L18.4128 20.3174C18.4128 20.3174 18.3598 20.5555 18.1747 20.7407C17.9366 21.0053 17.7778 21.0582 17.7778 21.0582C17.7778 21.0582 17.963 21.0582 18.2011 20.873C18.3598 20.7672 18.4128 20.6614 18.4128 20.6614V20.6878C18.4128 20.6878 18.3598 20.873 18.2276 21.0053C18.0953 21.1375 17.963 21.1905 17.963 21.1905C17.963 21.1905 18.0953 21.2169 18.254 21.0846C18.3863 20.9788 18.3863 20.9524 18.3863 20.9524V21.0053C18.3863 21.0053 18.3598 21.1111 18.2805 21.1905C18.2276 21.2698 18.1217 21.3227 18.1217 21.3227C18.1217 21.3227 18.2276 21.2963 18.3069 21.2434C18.3598 21.2169 18.3863 21.164 18.3863 21.164L18.4392 21.6931L18.4921 21.164C18.4921 21.164 18.5186 21.2169 18.5715 21.2434C18.6508 21.2963 18.7567 21.3227 18.7567 21.3227C18.7567 21.3227 18.6508 21.2698 18.5979 21.1905C18.5186 21.0846 18.4921 21.0053 18.4921 21.0053V20.9524C18.4921 20.9524 18.4921 20.9788 18.6244 21.0846C18.7831 21.2169 18.9154 21.1905 18.9154 21.1905C18.9154 21.1905 18.8096 21.1375 18.6508 21.0053C18.5186 20.8995 18.4657 20.7143 18.4657 20.7143Z" fill="black"/>
<path d="M16.1639 20.7143V20.6878C16.1639 20.6878 16.2168 20.7672 16.3755 20.8994C16.5872 21.0582 16.7988 21.0846 16.7988 21.0846C16.7988 21.0846 16.6401 21.0317 16.402 20.7672C16.2168 20.582 16.1639 20.3439 16.1639 20.3439C16.1639 20.291 16.1904 20.2116 16.2168 20.1323C16.2697 19.9735 16.3226 19.9206 16.3226 19.9206C16.3226 19.9206 16.2697 19.8677 16.2168 19.709C16.1639 19.5767 16.1374 19.418 16.1374 19.418C16.1374 19.418 16.111 19.5767 16.0581 19.709C16.0052 19.8677 15.9523 19.9206 15.9523 19.9206C15.9523 19.9206 16.0052 19.9735 16.0581 20.1323L16.111 20.3439C16.111 20.3439 16.0581 20.582 15.8729 20.7672C15.6348 21.0317 15.4761 21.0846 15.4761 21.0846C15.4761 21.0846 15.6613 21.0846 15.8994 20.8994C16.0581 20.7936 16.111 20.6878 16.111 20.6878V20.7143C16.111 20.7143 16.0581 20.8994 15.9258 21.0317C15.7935 21.164 15.6613 21.2169 15.6613 21.2169C15.6613 21.2169 15.7935 21.2434 15.9523 21.1111C16.0845 21.0053 16.0845 20.9788 16.0845 20.9788V21.0317C16.0845 21.0317 16.0581 21.1375 15.9787 21.2169C15.9258 21.2963 15.82 21.3492 15.82 21.3492C15.82 21.3492 15.9258 21.3227 16.0052 21.2698C16.0581 21.2434 16.0845 21.1905 16.0845 21.1905L16.1374 21.7196L16.1904 21.1905C16.1904 21.1905 16.2168 21.2434 16.2697 21.2698C16.3491 21.3227 16.4549 21.3492 16.4549 21.3492C16.4549 21.3492 16.3491 21.2963 16.2962 21.2169C16.2168 21.1111 16.1904 21.0317 16.1904 21.0317V20.9788C16.1904 20.9788 16.1904 21.0053 16.3226 21.1111C16.4814 21.2434 16.6136 21.2169 16.6136 21.2169C16.6136 21.2169 16.5078 21.164 16.3491 21.0317C16.1904 20.8994 16.1639 20.7143 16.1639 20.7143Z" fill="black"/>
<path d="M13.8363 20.7143V20.6878C13.8363 20.6878 13.8892 20.7672 14.0479 20.8994C14.2595 21.0582 14.4712 21.0846 14.4712 21.0846C14.4712 21.0846 14.3125 21.0317 14.0744 20.7672C13.8892 20.582 13.8363 20.3439 13.8363 20.3439C13.8363 20.291 13.8627 20.2116 13.8892 20.1323C13.9421 19.9735 13.995 19.9206 13.995 19.9206C13.995 19.9206 13.9421 19.8677 13.8892 19.709C13.8363 19.5767 13.8098 19.418 13.8098 19.418C13.8098 19.418 13.7834 19.5767 13.7304 19.709C13.6775 19.8677 13.6246 19.9206 13.6246 19.9206C13.6246 19.9206 13.6775 19.9735 13.7304 20.1323L13.7834 20.3439C13.7834 20.3439 13.7304 20.582 13.5453 20.7672C13.3072 21.0317 13.1484 21.0846 13.1484 21.0846C13.1484 21.0846 13.3336 21.0846 13.5717 20.8994C13.7304 20.7936 13.7834 20.6878 13.7834 20.6878V20.7143C13.7834 20.7143 13.7304 20.8994 13.5982 21.0317C13.4659 21.164 13.3336 21.2169 13.3336 21.2169C13.3336 21.2169 13.4659 21.2434 13.6246 21.1111C13.7569 21.0053 13.7569 20.9788 13.7569 20.9788V21.0317C13.7569 21.0317 13.7304 21.1375 13.6511 21.2169C13.5982 21.2963 13.4924 21.3492 13.4924 21.3492C13.4924 21.3492 13.5982 21.3227 13.6775 21.2698C13.7304 21.2434 13.7569 21.1905 13.7569 21.1905L13.8098 21.7196L13.8627 21.1905C13.8627 21.1905 13.8892 21.2434 13.9421 21.2698C14.0215 21.3227 14.1273 21.3492 14.1273 21.3492C14.1273 21.3492 14.0215 21.2963 13.9685 21.2169C13.8892 21.1111 13.8627 21.0317 13.8627 21.0317V20.9788C13.8627 20.9788 13.8627 21.0053 13.995 21.1111C14.1537 21.2434 14.286 21.2169 14.286 21.2169C14.286 21.2169 14.1802 21.164 14.0215 21.0317C13.8892 20.8994 13.8363 20.7143 13.8363 20.7143Z" fill="black"/>
<path d="M11.5345 20.7143V20.6878C11.5345 20.6878 11.5874 20.7672 11.7462 20.8994C11.9578 21.0582 12.1694 21.0846 12.1694 21.0846C12.1694 21.0846 12.0107 21.0317 11.7726 20.7672C11.5874 20.582 11.5345 20.3439 11.5345 20.3439C11.5345 20.291 11.561 20.2116 11.5874 20.1323C11.6403 19.9735 11.6932 19.9206 11.6932 19.9206C11.6932 19.9206 11.6403 19.8677 11.5874 19.709C11.5345 19.5767 11.5081 19.418 11.5081 19.418C11.5081 19.418 11.4816 19.5767 11.4287 19.709C11.3758 19.8677 11.3229 19.9206 11.3229 19.9206C11.3229 19.9206 11.3758 19.9735 11.4287 20.1323L11.4816 20.3439C11.4816 20.3439 11.4287 20.582 11.2435 20.7672C11.0054 21.0317 10.8467 21.0846 10.8467 21.0846C10.8467 21.0846 11.0319 21.0846 11.27 20.8994C11.4287 20.7936 11.4816 20.6878 11.4816 20.6878V20.7143C11.4816 20.7143 11.4287 20.8994 11.2964 21.0317C11.1641 21.164 11.0319 21.2169 11.0319 21.2169C11.0319 21.2169 11.1641 21.2434 11.3229 21.1111C11.4551 21.0053 11.4551 20.9788 11.4551 20.9788V21.0317C11.4551 21.0317 11.4287 21.1375 11.3493 21.2169C11.2964 21.2963 11.1906 21.3492 11.1906 21.3492C11.1906 21.3492 11.2964 21.3227 11.3758 21.2698C11.4287 21.2434 11.4551 21.1905 11.4551 21.1905L11.5081 21.7196L11.561 21.1905C11.561 21.1905 11.5874 21.2434 11.6403 21.2698C11.7197 21.3227 11.8255 21.3492 11.8255 21.3492C11.8255 21.3492 11.7197 21.2963 11.6668 21.2169C11.5874 21.1111 11.561 21.0317 11.561 21.0317V20.9788C11.561 20.9788 11.561 21.0053 11.6932 21.1111C11.852 21.2434 11.9842 21.2169 11.9842 21.2169C11.9842 21.2169 11.8784 21.164 11.7197 21.0317C11.5874 20.8994 11.5345 20.7143 11.5345 20.7143Z" fill="black"/>
<path d="M15.291 14.4444C15.291 14.4444 15.3968 14.6561 15.3968 14.8148C15.3968 15.0529 15.1852 15.2381 14.9471 15.2381C14.709 15.2381 14.4974 15.0264 14.4974 14.7883C14.4974 14.6032 14.6032 14.418 14.6032 14.418C14.2328 14.5767 13.9683 14.9471 13.9683 15.3439C13.9683 15.873 14.418 16.3227 14.9471 16.3227C15.4762 16.3227 15.9259 15.873 15.9259 15.3439C15.8995 14.9471 15.6614 14.6032 15.291 14.4444ZM14.9206 16.164C14.4709 16.164 14.127 15.7936 14.127 15.3703C14.127 15.1852 14.1799 15.0264 14.2857 14.8942C14.2857 14.9206 14.2857 14.9735 14.2857 15C14.2857 15.3703 14.5767 15.6614 14.9471 15.6614C15.3175 15.6614 15.6085 15.3703 15.6085 15C15.6085 14.9735 15.6085 14.9206 15.6085 14.8942C15.7143 15.0264 15.7672 15.1852 15.7672 15.3703C15.7143 15.7936 15.3704 16.164 14.9206 16.164Z" fill="black"/>
<path d="M12.1958 14.4444C12.1958 14.4444 12.3016 14.6561 12.3016 14.8148C12.3016 15.0529 12.09 15.2381 11.8519 15.2381C11.6138 15.2381 11.4021 15.0264 11.4021 14.7883C11.4021 14.6032 11.508 14.418 11.508 14.418C11.1376 14.5767 10.873 14.9471 10.873 15.3439C10.873 15.873 11.3228 16.3227 11.8519 16.3227C12.381 16.3227 12.8307 15.873 12.8307 15.3439C12.8043 14.9471 12.5662 14.6032 12.1958 14.4444ZM11.8254 16.164C11.3757 16.164 11.0318 15.7936 11.0318 15.3703C11.0318 15.1852 11.0847 15.0264 11.1905 14.8942C11.1905 14.9206 11.1905 14.9735 11.1905 15C11.1905 15.3703 11.4815 15.6614 11.8519 15.6614C12.2223 15.6614 12.5133 15.3703 12.5133 15C12.5133 14.9735 12.5133 14.9206 12.5133 14.8942C12.6191 15.0264 12.672 15.1852 12.672 15.3703C12.6455 15.7936 12.2752 16.164 11.8254 16.164Z" fill="black"/>
<path d="M18.3862 14.4444C18.3862 14.4444 18.492 14.6561 18.492 14.8148C18.492 15.0529 18.2804 15.2381 18.0423 15.2381C17.8042 15.2381 17.5926 15.0264 17.5926 14.7883C17.5926 14.6032 17.6984 14.418 17.6984 14.418C17.328 14.5767 17.0635 14.9471 17.0635 15.3439C17.0635 15.873 17.5132 16.3227 18.0423 16.3227C18.5714 16.3227 19.0211 15.873 19.0211 15.3439C18.9947 14.9471 18.7566 14.6032 18.3862 14.4444ZM18.0159 16.164C17.5661 16.164 17.2222 15.7936 17.2222 15.3703C17.2222 15.1852 17.2751 15.0264 17.3809 14.8942C17.3809 14.9206 17.3809 14.9735 17.3809 15C17.3809 15.3703 17.6719 15.6614 18.0423 15.6614C18.4127 15.6614 18.7037 15.3703 18.7037 15C18.7037 14.9735 18.7037 14.9206 18.7037 14.8942C18.8095 15.0264 18.8624 15.1852 18.8624 15.3703C18.8095 15.7936 18.4656 16.164 18.0159 16.164Z" fill="black"/>
<path d="M14.127 9.44438C14.127 9.52374 14.2063 9.60311 14.2857 9.60311C14.365 9.60311 14.4444 9.52374 14.4444 9.44438C14.4444 9.36501 14.365 9.28564 14.2857 9.28564C14.1799 9.28564 14.127 9.36501 14.127 9.44438Z" fill="black"/>
<path d="M14.4444 9.44438C14.4444 9.52374 14.365 9.60311 14.2857 9.60311C14.2063 9.60311 14.127 9.52374 14.127 9.44438C14.127 9.36501 14.2063 9.28564 14.2857 9.28564C14.365 9.28564 14.4444 9.36501 14.4444 9.44438Z" fill="black"/>
<path d="M14.7617 9.44438C14.7617 9.52374 14.8411 9.60311 14.9204 9.60311C14.9998 9.60311 15.0792 9.52374 15.0792 9.44438C15.0792 9.36501 14.9998 9.28564 14.9204 9.28564C14.8411 9.28564 14.7617 9.36501 14.7617 9.44438Z" fill="black"/>
<path d="M15.106 9.44438C15.106 9.52374 15.0267 9.60311 14.9473 9.60311C14.8679 9.60311 14.7886 9.52374 14.7886 9.44438C14.7886 9.36501 14.8679 9.28564 14.9473 9.28564C15.0267 9.28564 15.106 9.36501 15.106 9.44438Z" fill="black"/>
<path d="M16.1112 18.7831L14.9736 16.9048L13.8096 18.7831L14.9736 20.7143L16.1112 18.7831Z" fill="black"/>
<path d="M16.1112 22.6456L14.9736 20.7144L13.8096 22.6456L14.9736 24.5768L16.1112 22.6456Z" fill="black"/>
<path d="M18.4128 18.7831L17.2753 16.9048L16.1377 18.7831L17.2753 20.7143L18.4128 18.7831Z" fill="black"/>
<path d="M13.8094 18.7831L12.6454 16.9048L11.5078 18.7831L12.6454 20.7143L13.8094 18.7831Z" fill="black"/>
<path d="M10.0531 24.2857C10.0531 24.3122 10.0531 24.3386 10.0267 24.3386C10.0267 24.3651 10.0267 24.3651 10.0002 24.3916C10.0002 24.418 10.0002 24.418 10.0002 24.4445C10.0002 24.4709 10.0002 24.4709 10.0002 24.4974C10.0002 24.5238 10.0002 24.5238 10.0267 24.5238L10.0531 24.5503L10.0267 24.5238C10.0267 24.5238 10.0002 24.4974 9.97376 24.4974C9.9473 24.4974 9.9473 24.4974 9.92085 24.4974C9.89439 24.4974 9.89439 24.4974 9.86794 24.4974C9.84148 24.4974 9.84148 24.4974 9.81503 24.5238H9.78857C9.78857 24.4974 9.81503 24.4974 9.81503 24.4709C9.81503 24.4445 9.81503 24.4445 9.84148 24.418C9.84148 24.3916 9.84148 24.3916 9.84148 24.3651C9.84148 24.3386 9.84148 24.3386 9.84148 24.3122C9.84148 24.3122 9.84148 24.2857 9.81503 24.2857L9.84148 24.2593L9.86794 24.2857C9.86794 24.2857 9.89439 24.3122 9.92085 24.3122C9.9473 24.3122 9.9473 24.3122 9.97376 24.3122C10.0002 24.3122 10.0002 24.3122 10.0267 24.3122C10.0267 24.2857 10.0531 24.2857 10.0531 24.2857Z" fill="black"/>
<path d="M19.7617 24.4709C19.7882 24.4709 19.8146 24.4709 19.8146 24.4709C19.8411 24.4709 19.8411 24.4709 19.8675 24.4709C19.894 24.4709 19.894 24.4709 19.9205 24.4709C19.9469 24.4709 19.9469 24.4709 19.9734 24.4444L19.9998 24.418L20.0263 24.4444C20.0263 24.4444 20.0263 24.4709 19.9998 24.4709C19.9998 24.4973 19.9998 24.4973 19.9998 24.5238C19.9998 24.5502 19.9998 24.5767 19.9998 24.5767C19.9998 24.6032 19.9998 24.6032 20.0263 24.6296C20.0263 24.6561 20.0527 24.6561 20.0527 24.6825V24.709C20.0263 24.709 20.0263 24.6825 19.9998 24.6825C19.9734 24.6825 19.9734 24.6825 19.9469 24.6825C19.9205 24.6825 19.9204 24.6825 19.894 24.6825C19.8675 24.6825 19.8675 24.6825 19.8411 24.709L19.8146 24.7354L19.7882 24.709C19.7882 24.709 19.7882 24.6825 19.8146 24.6825C19.8146 24.6561 19.8146 24.6561 19.8146 24.6296C19.8146 24.6032 19.8146 24.5767 19.8146 24.5767C19.8146 24.5502 19.8146 24.5502 19.7882 24.5238C19.7617 24.4973 19.7617 24.4709 19.7617 24.4709Z" fill="black"/>
<path d="M12.4866 26.1904C12.5131 26.2169 12.4866 26.2433 12.4866 26.2433C12.4866 26.2698 12.4866 26.2698 12.4866 26.2963C12.4866 26.3227 12.4866 26.3227 12.5131 26.3492C12.5131 26.3756 12.5395 26.3756 12.5395 26.4021L12.566 26.4285V26.455H12.5395C12.5131 26.455 12.5131 26.455 12.4866 26.455C12.4602 26.455 12.4602 26.455 12.4337 26.4814C12.4073 26.4814 12.4073 26.5079 12.3808 26.5079L12.3544 26.5343H12.3279C12.3279 26.5079 12.3279 26.5079 12.3279 26.4814C12.3279 26.455 12.3279 26.455 12.3279 26.4285C12.3279 26.4021 12.3279 26.4021 12.3014 26.3756C12.3014 26.3492 12.275 26.3492 12.275 26.3227L12.2485 26.2963V26.2698H12.275C12.3014 26.2698 12.3014 26.2698 12.3279 26.2698C12.3544 26.2698 12.3544 26.2698 12.3808 26.2433C12.4073 26.2433 12.4073 26.2169 12.4337 26.2169C12.4602 26.2169 12.4602 26.1904 12.4866 26.1904Z" fill="black"/>
<path d="M16.1904 26.6401C16.2168 26.6401 16.2168 26.6666 16.2433 26.693L16.2697 26.7195C16.2962 26.7195 16.2962 26.746 16.3227 26.746C16.3491 26.746 16.3491 26.746 16.3756 26.7724C16.402 26.7724 16.402 26.7724 16.4285 26.7724V26.7989C16.4285 26.7989 16.402 26.7989 16.402 26.8253C16.402 26.8253 16.3756 26.8518 16.3491 26.8518C16.3227 26.8782 16.3227 26.8782 16.3227 26.9047C16.3227 26.9311 16.2962 26.9311 16.2962 26.9576C16.2962 26.9841 16.2962 26.9841 16.2962 27.0105H16.2697C16.2697 26.9841 16.2433 26.9841 16.2433 26.9576C16.2433 26.9311 16.2168 26.9311 16.2168 26.9311C16.1904 26.9311 16.1904 26.9047 16.1639 26.9047C16.1375 26.9047 16.1375 26.9047 16.111 26.8782C16.0846 26.8782 16.0846 26.8782 16.0581 26.8782V26.8518C16.0581 26.8518 16.0846 26.8518 16.0846 26.8253C16.0846 26.8253 16.111 26.7989 16.1375 26.7989C16.1639 26.7724 16.1639 26.7724 16.1639 26.746C16.1639 26.7195 16.1904 26.7195 16.1904 26.693C16.1904 26.6666 16.2168 26.6666 16.1904 26.6401Z" fill="black"/>
</svg>
