<svg width="23" height="32" viewBox="0 0 23 32" fill="none" xmlns="http://www.w3.org/2000/svg">
<path fill-rule="evenodd" clip-rule="evenodd" d="M21.3149 22.4825C21.7075 20.2576 21.2072 13.8526 18.737 9.0984C16.2668 4.34424 13.9014 1.71857 13.0275 1C12.0564 1.73798 10.4364 3.64581 9.31776 6.16274C8.31413 8.4209 7.66906 11.3422 7.61716 12.452C7.52378 12.4968 7.43124 12.543 7.33956 12.5907C6.83662 12.1703 6.30664 11.106 5.83672 9.73538C5.29635 8.15933 5.43296 6.69271 5.47793 6.20986C5.47951 6.19293 5.48097 6.17721 5.48229 6.16274C3.95879 8.26968 2.92338 10.5793 2.3074 13.8047C1.82365 16.3376 1.72425 18.496 2.17687 22.4825H2.24708C2.90429 27.1554 6.91875 30.7507 11.7729 30.7507C16.6271 30.7507 20.6415 27.1554 21.2987 22.4825H21.3149Z" fill="#F96450"/>
<path d="M18.737 9.0984L19.6244 8.63734L18.737 9.0984ZM21.3149 22.4825V23.4825C21.8001 23.4825 22.2153 23.1342 22.2997 22.6563L21.3149 22.4825ZM13.0275 1L13.6626 0.227574C13.3046 -0.0667422 12.7914 -0.07657 12.4224 0.203828L13.0275 1ZM9.31776 6.16274L8.40395 5.7566L9.31776 6.16274ZM7.61716 12.452L8.04968 13.3536C8.38135 13.1945 8.59889 12.8661 8.61607 12.4987L7.61716 12.452ZM7.33956 12.5907L6.69822 13.358C7.00794 13.6168 7.44294 13.6641 7.80105 13.4778L7.33956 12.5907ZM5.83672 9.73538L6.78266 9.41105L5.83672 9.73538ZM5.47793 6.20986L4.48224 6.11712L4.48224 6.11712L5.47793 6.20986ZM5.48229 6.16274L6.47817 6.25346C6.51904 5.80487 6.25494 5.38432 5.83312 5.22629C5.4113 5.06827 4.93589 5.21176 4.67195 5.57679L5.48229 6.16274ZM2.3074 13.8047L3.28965 13.9922L2.3074 13.8047ZM2.17687 22.4825L1.18325 22.5953C1.24063 23.1007 1.66823 23.4825 2.17687 23.4825V22.4825ZM2.24708 22.4825L3.23734 22.3432C3.16791 21.8496 2.74556 21.4825 2.24708 21.4825V22.4825ZM21.2987 22.4825V21.4825C20.8003 21.4825 20.3779 21.8496 20.3085 22.3432L21.2987 22.4825ZM17.8497 9.55947C19.0191 11.8101 19.7371 14.4866 20.1114 16.8926C20.4888 19.3189 20.4989 21.3522 20.3301 22.3087L22.2997 22.6563C22.5235 21.388 22.4798 19.1063 22.0876 16.5852C21.6923 14.044 20.9252 11.1408 19.6244 8.63734L17.8497 9.55947ZM12.3924 1.77243C13.128 2.37726 15.4175 4.87844 17.8497 9.55947L19.6244 8.63734C17.1162 3.81005 14.6748 1.05987 13.6626 0.227574L12.3924 1.77243ZM10.2316 6.56887C11.2956 4.17476 12.8203 2.41343 13.6326 1.79617L12.4224 0.203828C11.2925 1.06254 9.57716 3.11686 8.40395 5.7566L10.2316 6.56887ZM8.61607 12.4987C8.66114 11.5348 9.26865 8.73544 10.2316 6.56887L8.40395 5.7566C7.35961 8.10636 6.67697 11.1495 6.61825 12.4052L8.61607 12.4987ZM7.80105 13.4778C7.88316 13.4351 7.96605 13.3937 8.04968 13.3536L7.18464 11.5503C7.08151 11.5998 6.97931 11.6509 6.87806 11.7036L7.80105 13.4778ZM4.89078 10.0597C5.13593 10.7747 5.4042 11.4324 5.68804 11.9797C5.9599 12.504 6.29183 13.0183 6.69822 13.358L7.98089 11.8234C7.88434 11.7427 7.69981 11.5147 7.46348 11.059C7.23912 10.6264 7.00744 10.0666 6.78266 9.41105L4.89078 10.0597ZM4.48224 6.11712C4.43514 6.62283 4.27735 8.27059 4.89078 10.0597L6.78266 9.41105C6.31535 8.04807 6.43078 6.7626 6.47362 6.30261L4.48224 6.11712ZM4.48642 6.07201C4.48521 6.08528 4.48384 6.09994 4.48224 6.11712L6.47362 6.30261C6.47518 6.28592 6.47674 6.26914 6.47817 6.25346L4.48642 6.07201ZM3.28965 13.9922C3.88003 10.901 4.86052 8.72925 6.29264 6.74869L4.67195 5.57679C3.05706 7.81011 1.96673 10.2577 1.32516 13.6171L3.28965 13.9922ZM3.17048 22.3697C2.72657 18.4599 2.82878 16.4054 3.28965 13.9922L1.32516 13.6171C0.818527 16.2698 0.721931 18.5322 1.18325 22.5953L3.17048 22.3697ZM2.24708 21.4825H2.17687V23.4825H2.24708V21.4825ZM11.7729 29.7507C7.42418 29.7507 3.8261 26.5295 3.23734 22.3432L1.25683 22.6218C1.98249 27.7814 6.41331 31.7507 11.7729 31.7507V29.7507ZM20.3085 22.3432C19.7197 26.5295 16.1216 29.7507 11.7729 29.7507V31.7507C17.1325 31.7507 21.5633 27.7814 22.289 22.6218L20.3085 22.3432ZM21.3149 21.4825H21.2987V23.4825H21.3149V21.4825Z" fill="black"/>
<path fill-rule="evenodd" clip-rule="evenodd" d="M17.8764 24.4972C18.1246 23.0907 17.8083 19.0416 16.2467 16.0361C14.6851 13.0307 13.1898 11.3708 12.6373 10.9165C12.0234 11.383 10.9993 12.5891 10.2921 14.1803C9.65766 15.6077 9.24987 17.4544 9.21702 18.156C9.15796 18.1844 9.09943 18.2136 9.04145 18.2438C8.72352 17.978 8.38852 17.3052 8.09147 16.4388C7.74986 15.4425 7.83622 14.5153 7.86465 14.2101C7.86565 14.1994 7.86657 14.1894 7.8674 14.1803C6.90428 15.5122 6.24972 16.9723 5.86031 19.0113C5.5545 20.6126 5.49166 21.9771 5.77779 24.4972H5.82237C6.23792 27.4513 8.77572 29.724 11.8443 29.724C14.913 29.724 17.4508 27.4513 17.8663 24.4972H17.8764Z" fill="#F9B550"/>
</svg>
