<svg width="24" height="24" viewBox="0 0 24 24" fill="none" xmlns="http://www.w3.org/2000/svg">
<path fill-rule="evenodd" clip-rule="evenodd" d="M11.9883 7.5793C11.9678 7.53519 11.947 7.4897 11.926 7.4429C11.6066 6.73113 11.2646 5.78039 11.0582 4.83934C10.8463 3.87309 10.8029 3.02856 10.9728 2.46723C11.0526 2.20347 11.1677 2.04083 11.2999 1.94003C11.4295 1.84114 11.6431 1.75 12.0164 1.75C12.3901 1.75 12.5994 1.84123 12.7239 1.93735C12.8507 2.03533 12.9622 2.19478 13.0381 2.45784C13.1999 3.0189 13.1456 3.86407 12.9247 4.8334C12.7099 5.77652 12.3629 6.73053 12.0471 7.44777C12.0273 7.49278 12.0077 7.53664 11.9883 7.5793ZM10.39 0.747467C10.8339 0.408864 11.3875 0.25 12.0164 0.25C12.6449 0.25 13.1986 0.408768 13.6407 0.750147C14.0803 1.08967 14.3389 1.55522 14.4793 2.04216C14.7501 2.9811 14.6221 4.13593 14.3873 5.1666C14.1465 6.22348 13.7645 7.26947 13.4199 8.05223C13.3579 8.1931 13.2963 8.32718 13.2361 8.45276C13.3669 8.49771 13.4944 8.5497 13.6182 8.60826C13.6633 8.47494 13.7135 8.33551 13.7681 8.19186C14.0753 7.38434 14.5497 6.37479 15.1342 5.46178C15.7049 4.5705 16.4418 3.67331 17.3064 3.21042C17.7543 2.97065 18.2682 2.83074 18.8184 2.90472C19.3716 2.97913 19.8755 3.25831 20.3202 3.70298C20.7646 4.14742 21.0438 4.65119 21.115 5.20516C21.1858 5.75612 21.0395 6.26816 20.7945 6.71179C20.322 7.5672 19.4149 8.29324 18.5201 8.85599C17.6025 9.43305 16.5928 9.90261 15.7956 10.2124C15.6553 10.2669 15.5199 10.3171 15.3912 10.3626C15.4509 10.4854 15.5041 10.612 15.5503 10.7418C15.6742 10.6807 15.8056 10.6189 15.9429 10.5573C16.7311 10.2035 17.7804 9.82506 18.8393 9.59282C19.8731 9.36611 21.0286 9.25275 21.9672 9.53681C22.4535 9.68395 22.9158 9.94845 23.2525 10.3898C23.5911 10.8336 23.75 11.3873 23.75 12.0162C23.75 12.6447 23.5912 13.1984 23.2499 13.6404C22.9103 14.0801 22.4448 14.3387 21.9578 14.4791C21.0189 14.7499 19.8641 14.6218 18.8334 14.387C17.7765 14.1462 16.7305 13.7643 15.9478 13.4196C15.8104 13.3592 15.6795 13.2991 15.5566 13.2404C15.511 13.3706 15.4584 13.4975 15.3992 13.6207C15.5303 13.6652 15.6672 13.7145 15.8081 13.7681C16.6157 14.0753 17.6252 14.5497 18.5382 15.1342C19.4295 15.7049 20.3267 16.4418 20.7896 17.3064C21.0294 17.7543 21.1693 18.2682 21.0953 18.8184C21.0209 19.3716 20.7417 19.8755 20.297 20.3202C19.8526 20.7646 19.3488 21.0438 18.7948 21.115C18.2439 21.1858 17.7318 21.0395 17.2882 20.7945C16.4328 20.322 15.7068 19.4149 15.144 18.5201C14.5669 17.6025 14.0974 16.5928 13.7876 15.7956C13.732 15.6526 13.6809 15.5148 13.6348 15.3838C13.5114 15.443 13.3841 15.4956 13.2537 15.5412C13.3162 15.6677 13.3796 15.8022 13.4427 15.9429C13.7965 16.7311 14.1749 17.7804 14.4072 18.8393C14.6339 19.8731 14.7472 21.0286 14.4632 21.9672C14.316 22.4535 14.0516 22.9158 13.6102 23.2525C13.1664 23.5911 12.6127 23.75 11.9838 23.75C11.3553 23.75 10.8016 23.5912 10.3596 23.2499C9.91993 22.9103 9.66135 22.4448 9.52091 21.9578C9.25011 21.0189 9.37817 19.8641 9.61299 18.8334C9.85377 17.7765 10.2357 16.7305 10.5803 15.9478C10.644 15.8032 10.7072 15.6658 10.7688 15.5374C10.6379 15.4912 10.5104 15.438 10.3866 15.3782C10.3404 15.5156 10.2886 15.6596 10.2321 15.8081C9.9249 16.6157 9.45057 17.6252 8.86599 18.5382C8.29533 19.4295 7.55845 20.3267 6.69384 20.7896C6.24598 21.0294 5.73201 21.1693 5.18186 21.0953C4.6286 21.0209 4.12474 20.7417 3.68008 20.297C3.23564 19.8526 2.9564 19.3488 2.88521 18.7948C2.8144 18.2439 2.96075 17.7318 3.20577 17.2882C3.67821 16.4328 4.58535 15.7068 5.48019 15.144C6.39777 14.5669 7.40747 14.0974 8.20466 13.7876C8.35521 13.7291 8.50013 13.6755 8.63723 13.6275C8.57734 13.5034 8.52409 13.3755 8.47793 13.2442C8.34587 13.3099 8.20489 13.3764 8.0571 13.4427C7.26887 13.7965 6.21961 14.1749 5.16066 14.4072C4.12691 14.6339 2.97144 14.7473 2.03277 14.4632C1.54653 14.316 1.08417 14.0516 0.747467 13.6102C0.408864 13.1664 0.25 12.6127 0.25 11.9838C0.25 11.3553 0.408768 10.8016 0.750147 10.3596C1.08967 9.91993 1.55522 9.66135 2.04216 9.52091C2.9811 9.25011 4.13593 9.37817 5.1666 9.61299C6.22348 9.85377 7.26947 10.2357 8.05223 10.5804C8.20026 10.6455 8.34079 10.7102 8.47184 10.7733C8.51739 10.6417 8.57006 10.5133 8.62939 10.3888C8.48977 10.3419 8.34327 10.2894 8.19211 10.2319C7.38458 9.92465 6.37504 9.45033 5.46203 8.86575C4.57075 8.29508 3.67355 7.55821 3.21067 6.6936C2.97089 6.24574 2.83098 5.73177 2.90497 5.18162C2.97937 4.62835 3.25856 4.1245 3.70322 3.67984C4.14766 3.2354 4.65143 2.95616 5.20541 2.88496C5.75637 2.81416 6.26841 2.96051 6.71203 3.20552C7.56745 3.67797 8.29348 4.58511 8.85624 5.47995C9.4333 6.39753 9.90286 7.40722 10.2126 8.20442C10.2701 8.35234 10.3228 8.49483 10.3702 8.6298C10.4937 8.56938 10.6209 8.51555 10.7515 8.46876C10.6873 8.33935 10.6223 8.20147 10.5575 8.0571C10.2038 7.26887 9.8253 6.21961 9.59307 5.16066C9.36636 4.12691 9.25299 2.97144 9.53705 2.03277C9.6842 1.54653 9.94869 1.08417 10.39 0.747467ZM13.6896 10.4955C14.0217 10.8645 14.2334 11.344 14.263 11.8721C14.2549 11.9168 14.25 11.9649 14.25 12.0162C14.25 12.0643 14.2544 12.1092 14.2617 12.1503C14.2269 12.6779 14.0102 13.1558 13.6738 13.5219C13.642 13.5451 13.6103 13.5718 13.5795 13.6026C13.5526 13.6296 13.529 13.6571 13.5085 13.6843C13.1114 14.0363 12.589 14.25 12.0166 14.25C10.774 14.25 9.7666 13.2426 9.7666 12C9.7666 10.7574 10.774 9.75 12.0166 9.75C12.597 9.75 13.1261 9.96977 13.5252 10.3306C13.5476 10.3609 13.5733 10.3911 13.6026 10.4205C13.6314 10.4492 13.6606 10.474 13.6896 10.4955ZM12.0742 16.5571C12.0532 16.5103 12.0324 16.4648 12.0119 16.4207C11.9926 16.4634 11.973 16.5072 11.9532 16.5522C11.6374 17.2695 11.2904 18.2235 11.0755 19.1666C10.8547 20.1359 10.8003 20.9811 10.9622 21.5422C11.038 21.8052 11.1495 21.9647 11.2764 22.0626C11.4009 22.1588 11.6102 22.25 11.9838 22.25C12.3572 22.25 12.5708 22.1589 12.7004 22.06C12.8325 21.9592 12.9477 21.7965 13.0275 21.5328C13.1974 20.9714 13.1539 20.1269 12.942 19.1607C12.7356 18.2196 12.3937 17.2689 12.0742 16.5571ZM15.1343 15.1177C15.18 15.1344 15.2268 15.1519 15.2748 15.1701C16.004 15.4475 16.918 15.878 17.7294 16.3975C18.5625 16.9309 19.1904 17.4973 19.4672 18.0144C19.5972 18.2573 19.6308 18.4538 19.6087 18.6185C19.5869 18.7801 19.5004 18.9955 19.2364 19.2595C18.9721 19.5237 18.7596 19.6072 18.6036 19.6273C18.4446 19.6477 18.2531 19.6138 18.0134 19.4814C17.5022 19.1991 16.943 18.5631 16.4138 17.7215C15.8988 16.9027 15.4696 15.9827 15.1857 15.2523C15.1679 15.2064 15.1508 15.1616 15.1343 15.1177ZM8.72546 8.82989C8.77341 8.84813 8.82027 8.8656 8.86596 8.88229C8.84947 8.83844 8.83232 8.79357 8.81451 8.74774C8.53065 8.01727 8.10142 7.09732 7.58646 6.2785C7.05721 5.43692 6.49799 4.80088 5.98684 4.51857C5.74718 4.38621 5.55561 4.35229 5.39661 4.37273C5.24063 4.39277 5.0281 4.47628 4.76388 4.7405C4.49989 5.00449 4.41331 5.21995 4.39158 5.38154C4.36943 5.54624 4.40301 5.74267 4.53308 5.98562C4.80988 6.50265 5.43778 7.0691 6.27086 7.6025C7.08221 8.12199 7.99628 8.55248 8.72546 8.82989ZM15.1177 8.86572C15.1344 8.82003 15.1519 8.77317 15.1701 8.72522C15.4475 7.99604 15.878 7.08196 16.3975 6.27062C16.9309 5.43754 17.4973 4.80963 18.0144 4.53283C18.2573 4.40276 18.4538 4.36919 18.6185 4.39134C18.7801 4.41307 18.9955 4.49965 19.2595 4.76364C19.5237 5.02785 19.6072 5.24038 19.6273 5.39636C19.6477 5.55536 19.6138 5.74694 19.4814 5.9866C19.1991 6.49775 18.5631 7.05696 17.7215 7.58622C16.9027 8.10117 15.9827 8.5304 15.2523 8.81426C15.2064 8.83207 15.1616 8.84923 15.1177 8.86572ZM8.83013 15.2748C8.84837 15.2268 8.86584 15.18 8.88253 15.1343C8.83869 15.1508 8.79382 15.1679 8.74798 15.1857C8.01751 15.4696 7.09757 15.8988 6.27874 16.4138C5.43716 16.943 4.80113 17.5022 4.51882 18.0134C4.38645 18.2531 4.35254 18.4446 4.37297 18.6036C4.39302 18.7596 4.47652 18.9721 4.74074 19.2364C5.00473 19.5004 5.22019 19.5869 5.38178 19.6087C5.54649 19.6308 5.74291 19.5972 5.98587 19.4672C6.5029 19.1904 7.06935 18.5625 7.60275 17.7294C8.12224 16.918 8.55273 16.004 8.83013 15.2748ZM16.4207 11.9881C16.4648 11.9676 16.5103 11.9468 16.5571 11.9258C17.2689 11.6063 18.2196 11.2644 19.1607 11.058C20.1269 10.8461 20.9714 10.8026 21.5328 10.9725C21.7965 11.0523 21.9592 11.1675 22.06 11.2996C22.1589 11.4292 22.25 11.6428 22.25 12.0162C22.25 12.3898 22.1588 12.5991 22.0626 12.7236C21.9647 12.8505 21.8052 12.962 21.5422 13.0378C20.9811 13.1997 20.1359 13.1453 19.1666 12.9245C18.2235 12.7096 17.2695 12.3626 16.5522 12.0468C16.5072 12.027 16.4634 12.0074 16.4207 11.9881ZM7.4429 12.0742C7.4897 12.0532 7.53519 12.0324 7.5793 12.0119C7.53664 11.9926 7.49278 11.973 7.44777 11.9532C6.73053 11.6374 5.77652 11.2904 4.8334 11.0755C3.86407 10.8547 3.0189 10.8003 2.45784 10.9622C2.19478 11.038 2.03533 11.1495 1.93735 11.2764C1.84123 11.4009 1.75 11.6102 1.75 11.9838C1.75 12.3572 1.84114 12.5708 1.94003 12.7004C2.04083 12.8325 2.20347 12.9477 2.46723 13.0275C3.02856 13.1974 3.87309 13.1539 4.83934 12.942C5.78039 12.7356 6.73113 12.3937 7.4429 12.0742Z" fill="white"/>
</svg>
