<svg width="24" height="24" viewBox="0 0 24 24" fill="none" xmlns="http://www.w3.org/2000/svg">
<path fill-rule="evenodd" clip-rule="evenodd" d="M11.7383 7.5793C11.7178 7.53519 11.697 7.4897 11.676 7.4429C11.3566 6.73113 11.0146 5.78039 10.8082 4.83934C10.5963 3.87309 10.5529 3.02856 10.7228 2.46723C10.8026 2.20347 10.9177 2.04083 11.0499 1.94003C11.1795 1.84114 11.3931 1.75 11.7664 1.75C12.1401 1.75 12.3494 1.84123 12.4739 1.93735C12.6007 2.03533 12.7122 2.19478 12.7881 2.45784C12.9499 3.0189 12.8956 3.86407 12.6747 4.8334C12.4599 5.77652 12.1129 6.73053 11.7971 7.44777C11.7773 7.49278 11.7577 7.53664 11.7383 7.5793ZM10.14 0.747467C10.5839 0.408864 11.1375 0.25 11.7664 0.25C12.3949 0.25 12.9486 0.408768 13.3907 0.750147C13.8303 1.08967 14.0889 1.55522 14.2293 2.04216C14.5001 2.9811 14.3721 4.13593 14.1373 5.1666C13.8965 6.22348 13.5145 7.26947 13.1699 8.05223C13.1079 8.1931 13.0463 8.32718 12.9861 8.45276C13.1169 8.49771 13.2444 8.5497 13.3682 8.60826C13.4133 8.47494 13.4635 8.33551 13.5181 8.19186C13.8253 7.38434 14.2997 6.37479 14.8842 5.46178C15.4549 4.5705 16.1918 3.67331 17.0564 3.21042C17.5043 2.97065 18.0182 2.83074 18.5684 2.90472C19.1216 2.97913 19.6255 3.25831 20.0702 3.70298C20.5146 4.14742 20.7938 4.65119 20.865 5.20516C20.9358 5.75612 20.7895 6.26816 20.5445 6.71179C20.072 7.5672 19.1649 8.29324 18.2701 8.85599C17.3525 9.43305 16.3428 9.90261 15.5456 10.2124C15.4053 10.2669 15.2699 10.3171 15.1412 10.3626C15.2009 10.4854 15.2541 10.612 15.3003 10.7418C15.4242 10.6807 15.5556 10.6189 15.6929 10.5573C16.4811 10.2035 17.5304 9.82506 18.5893 9.59282C19.6231 9.36611 20.7786 9.25275 21.7172 9.53681C22.2035 9.68395 22.6658 9.94845 23.0025 10.3898C23.3411 10.8336 23.5 11.3873 23.5 12.0162C23.5 12.6447 23.3412 13.1984 22.9999 13.6404C22.6603 14.0801 22.1948 14.3387 21.7078 14.4791C20.7689 14.7499 19.6141 14.6218 18.5834 14.387C17.5265 14.1462 16.4805 13.7643 15.6978 13.4196C15.5604 13.3592 15.4295 13.2991 15.3066 13.2404C15.261 13.3706 15.2084 13.4975 15.1492 13.6207C15.2803 13.6652 15.4172 13.7145 15.5581 13.7681C16.3657 14.0753 17.3752 14.5497 18.2882 15.1342C19.1795 15.7049 20.0767 16.4418 20.5396 17.3064C20.7794 17.7543 20.9193 18.2682 20.8453 18.8184C20.7709 19.3716 20.4917 19.8755 20.047 20.3202C19.6026 20.7646 19.0988 21.0438 18.5448 21.115C17.9939 21.1858 17.4818 21.0395 17.0382 20.7945C16.1828 20.322 15.4568 19.4149 14.894 18.5201C14.3169 17.6025 13.8474 16.5928 13.5376 15.7956C13.482 15.6526 13.4309 15.5148 13.3848 15.3838C13.2614 15.443 13.1341 15.4956 13.0037 15.5412C13.0662 15.6677 13.1296 15.8022 13.1927 15.9429C13.5465 16.7311 13.9249 17.7804 14.1572 18.8393C14.3839 19.8731 14.4972 21.0286 14.2132 21.9672C14.066 22.4535 13.8016 22.9158 13.3602 23.2525C12.9164 23.5911 12.3627 23.75 11.7338 23.75C11.1053 23.75 10.5516 23.5912 10.1096 23.2499C9.66993 22.9103 9.41135 22.4448 9.27091 21.9578C9.00011 21.0189 9.12817 19.8641 9.36299 18.8334C9.60377 17.7765 9.9857 16.7305 10.3303 15.9478C10.394 15.8032 10.4572 15.6658 10.5188 15.5374C10.3879 15.4912 10.2604 15.438 10.1366 15.3782C10.0904 15.5156 10.0386 15.6596 9.98211 15.8081C9.6749 16.6157 9.20057 17.6252 8.61599 18.5382C8.04533 19.4295 7.30845 20.3267 6.44384 20.7896C5.99598 21.0294 5.48201 21.1693 4.93186 21.0953C4.3786 21.0209 3.87474 20.7417 3.43008 20.297C2.98564 19.8526 2.7064 19.3488 2.63521 18.7948C2.5644 18.2439 2.71075 17.7318 2.95577 17.2882C3.42821 16.4328 4.33535 15.7068 5.23019 15.144C6.14777 14.5669 7.15747 14.0974 7.95466 13.7876C8.10521 13.7291 8.25013 13.6755 8.38723 13.6275C8.32734 13.5034 8.27409 13.3755 8.22793 13.2442C8.09587 13.3099 7.95489 13.3764 7.8071 13.4427C7.01887 13.7965 5.96961 14.1749 4.91066 14.4072C3.87691 14.6339 2.72144 14.7473 1.78277 14.4632C1.29653 14.316 0.834168 14.0516 0.497467 13.6102C0.158864 13.1664 0 12.6127 0 11.9838C0 11.3553 0.158768 10.8016 0.500147 10.3596C0.839665 9.91993 1.30522 9.66135 1.79216 9.52091C2.7311 9.25011 3.88593 9.37817 4.9166 9.61299C5.97348 9.85377 7.01947 10.2357 7.80223 10.5804C7.95026 10.6455 8.09079 10.7102 8.22184 10.7733C8.26739 10.6417 8.32006 10.5133 8.37939 10.3888C8.23977 10.3419 8.09327 10.2894 7.94211 10.2319C7.13458 9.92465 6.12504 9.45033 5.21203 8.86575C4.32075 8.29508 3.42355 7.55821 2.96067 6.6936C2.72089 6.24574 2.58098 5.73177 2.65497 5.18162C2.72937 4.62835 3.00856 4.1245 3.45322 3.67984C3.89766 3.2354 4.40143 2.95616 4.95541 2.88496C5.50637 2.81416 6.01841 2.96051 6.46203 3.20552C7.31745 3.67797 8.04348 4.58511 8.60624 5.47995C9.1833 6.39753 9.65286 7.40722 9.96265 8.20442C10.0201 8.35234 10.0728 8.49483 10.1202 8.6298C10.2437 8.56938 10.3709 8.51555 10.5015 8.46876C10.4373 8.33935 10.3723 8.20147 10.3075 8.0571C9.95376 7.26887 9.5753 6.21961 9.34307 5.16066C9.11636 4.12691 9.00299 2.97144 9.28705 2.03277C9.4342 1.54653 9.69869 1.08417 10.14 0.747467ZM13.4396 10.4955C13.7717 10.8645 13.9834 11.344 14.013 11.8721C14.0049 11.9168 14 11.9649 14 12.0162C14 12.0643 14.0044 12.1092 14.0117 12.1503C13.9769 12.6779 13.7602 13.1558 13.4238 13.5219C13.392 13.5451 13.3603 13.5718 13.3295 13.6026C13.3026 13.6296 13.279 13.6571 13.2585 13.6843C12.8614 14.0363 12.339 14.25 11.7666 14.25C10.524 14.25 9.5166 13.2426 9.5166 12C9.5166 10.7574 10.524 9.75 11.7666 9.75C12.347 9.75 12.8761 9.96977 13.2752 10.3306C13.2976 10.3609 13.3233 10.3911 13.3526 10.4205C13.3814 10.4492 13.4106 10.474 13.4396 10.4955ZM11.8242 16.5571C11.8032 16.5103 11.7824 16.4648 11.7619 16.4207C11.7426 16.4634 11.723 16.5072 11.7032 16.5522C11.3874 17.2695 11.0404 18.2235 10.8255 19.1666C10.6047 20.1359 10.5503 20.9811 10.7122 21.5422C10.788 21.8052 10.8995 21.9647 11.0264 22.0626C11.1509 22.1588 11.3602 22.25 11.7338 22.25C12.1072 22.25 12.3208 22.1589 12.4504 22.06C12.5825 21.9592 12.6977 21.7965 12.7775 21.5328C12.9474 20.9714 12.9039 20.1269 12.692 19.1607C12.4856 18.2196 12.1437 17.2689 11.8242 16.5571ZM14.8843 15.1177C14.93 15.1344 14.9768 15.1519 15.0248 15.1701C15.754 15.4475 16.668 15.878 17.4794 16.3975C18.3125 16.9309 18.9404 17.4973 19.2172 18.0144C19.3472 18.2573 19.3808 18.4538 19.3587 18.6185C19.3369 18.7801 19.2504 18.9955 18.9864 19.2595C18.7221 19.5237 18.5096 19.6072 18.3536 19.6273C18.1946 19.6477 18.0031 19.6138 17.7634 19.4814C17.2522 19.1991 16.693 18.5631 16.1638 17.7215C15.6488 16.9027 15.2196 15.9827 14.9357 15.2523C14.9179 15.2064 14.9008 15.1616 14.8843 15.1177ZM8.47546 8.82989C8.52341 8.84813 8.57027 8.8656 8.61596 8.88229C8.59947 8.83844 8.58232 8.79357 8.56451 8.74774C8.28065 8.01727 7.85142 7.09732 7.33646 6.2785C6.80721 5.43692 6.24799 4.80088 5.73684 4.51857C5.49718 4.38621 5.30561 4.35229 5.14661 4.37273C4.99063 4.39277 4.7781 4.47628 4.51388 4.7405C4.24989 5.00449 4.16331 5.21995 4.14158 5.38154C4.11943 5.54624 4.15301 5.74267 4.28308 5.98562C4.55988 6.50265 5.18778 7.0691 6.02086 7.6025C6.83221 8.12199 7.74628 8.55248 8.47546 8.82989ZM14.8677 8.86572C14.8844 8.82003 14.9019 8.77317 14.9201 8.72522C15.1975 7.99604 15.628 7.08196 16.1475 6.27062C16.6809 5.43754 17.2473 4.80963 17.7644 4.53283C18.0073 4.40276 18.2038 4.36919 18.3685 4.39134C18.5301 4.41307 18.7455 4.49965 19.0095 4.76364C19.2737 5.02785 19.3572 5.24038 19.3773 5.39636C19.3977 5.55536 19.3638 5.74694 19.2314 5.9866C18.9491 6.49775 18.3131 7.05696 17.4715 7.58622C16.6527 8.10117 15.7327 8.5304 15.0023 8.81426C14.9564 8.83207 14.9116 8.84923 14.8677 8.86572ZM8.58013 15.2748C8.59837 15.2268 8.61584 15.18 8.63253 15.1343C8.58869 15.1508 8.54382 15.1679 8.49798 15.1857C7.76751 15.4696 6.84757 15.8988 6.02874 16.4138C5.18716 16.943 4.55113 17.5022 4.26882 18.0134C4.13645 18.2531 4.10254 18.4446 4.12297 18.6036C4.14302 18.7596 4.22652 18.9721 4.49074 19.2364C4.75473 19.5004 4.97019 19.5869 5.13178 19.6087C5.29649 19.6308 5.49291 19.5972 5.73587 19.4672C6.2529 19.1904 6.81935 18.5625 7.35275 17.7294C7.87224 16.918 8.30273 16.004 8.58013 15.2748ZM16.1707 11.9881C16.2148 11.9676 16.2603 11.9468 16.3071 11.9258C17.0189 11.6063 17.9696 11.2644 18.9107 11.058C19.8769 10.8461 20.7214 10.8026 21.2828 10.9725C21.5465 11.0523 21.7092 11.1675 21.81 11.2996C21.9089 11.4292 22 11.6428 22 12.0162C22 12.3898 21.9088 12.5991 21.8126 12.7236C21.7147 12.8505 21.5552 12.962 21.2922 13.0378C20.7311 13.1997 19.8859 13.1453 18.9166 12.9245C17.9735 12.7096 17.0195 12.3626 16.3022 12.0468C16.2572 12.027 16.2134 12.0074 16.1707 11.9881ZM7.1929 12.0742C7.2397 12.0532 7.28519 12.0324 7.3293 12.0119C7.28664 11.9926 7.24278 11.973 7.19777 11.9532C6.48053 11.6374 5.52652 11.2904 4.5834 11.0755C3.61407 10.8547 2.7689 10.8003 2.20784 10.9622C1.94478 11.038 1.78533 11.1495 1.68735 11.2764C1.59123 11.4009 1.5 11.6102 1.5 11.9838C1.5 12.3572 1.59114 12.5708 1.69003 12.7004C1.79083 12.8325 1.95347 12.9477 2.21723 13.0275C2.77856 13.1974 3.62309 13.1539 4.58934 12.942C5.53039 12.7356 6.48113 12.3937 7.1929 12.0742Z" fill="#0B6CFE"/>
</svg>
