<svg width="870" height="870" viewBox="0 0 870 870" fill="none" xmlns="http://www.w3.org/2000/svg">
<path fill-rule="evenodd" clip-rule="evenodd" d="M416.868 33.9385L403.074 1.96289L417.651 1.64941L425.802 20.3018L431.602 1.17871L444.455 0.865234L433.169 37.5439L447.747 70.7744L433.169 71.0879L424.078 50.3975L417.024 71.5576L404.171 71.8711L416.868 33.9385ZM362.008 7.29297L349.938 9.17383L360.44 78.2988L369.688 76.8877L381.601 33.7832L387.714 74.0664L399.94 72.1855L389.438 3.06055L379.563 4.62793L367.964 46.9492L362.008 7.29297ZM295.233 23.9062L310.124 19.5166L317.804 46.1641L319.372 45.6934L321.566 16.2256L336.3 11.9932L333.166 47.1045L356.207 79.0801L341.003 83.4697L322.664 56.9795L321.096 57.4492L329.56 86.7607L314.669 91.1504L295.233 23.9062ZM261.846 89.2695C264.824 96.167 268.586 100.869 273.132 103.22C277.677 105.729 283.32 105.258 290.06 102.279C296.8 99.3018 300.875 95.54 302.13 90.9941C303.541 86.4482 302.914 81.1191 300.249 75.1631L297.897 69.6768L284.104 75.79L287.082 82.5293C288.179 85.0381 288.806 87.0752 288.806 88.6426C288.963 90.21 287.866 91.4639 285.985 92.248C283.947 93.0312 282.38 93.0312 281.125 91.9346C279.872 90.9941 278.618 89.1133 277.521 86.6055L264.354 56.5098C263.257 54.002 262.787 51.9639 262.787 50.2402C262.787 48.6729 263.727 47.4189 265.765 46.4785C267.802 45.5381 269.37 45.6943 270.467 46.792C271.564 47.8887 272.662 49.6133 273.759 52.1211L276.58 58.5479L290.374 52.4346L288.022 46.9482C285.358 40.9922 282.066 37.0732 277.834 35.0361C273.759 32.998 268.272 33.4678 261.532 36.4463C254.479 39.4248 250.247 43.5 248.993 48.3594C247.739 53.2178 248.522 59.1748 251.657 66.2285L261.846 89.2695ZM215.764 73.9092L206.672 79.2383L200.873 69.3633L232.378 51.0244L238.178 60.8994L229.087 66.2285L258.555 116.701L245.075 124.538L215.764 73.9092ZM169.052 92.2471L156.669 101.651L198.99 157.61L211.374 148.205L192.877 123.753L201.499 117.17L219.994 141.465L232.377 132.061L190.056 76.2588L177.673 85.6631L194.758 108.235L186.137 114.818L169.052 92.2471ZM123.596 132.69L146.167 110.902L153.534 118.426L142.092 129.555L154.161 142.095L162.939 133.631L170.306 141.312L161.528 149.775L176.105 164.823L187.705 153.537L194.915 161.062L172.187 183.006L123.596 132.69ZM114.662 141.938L93.8145 166.703L147.108 211.847L157.14 200.09L112.467 162.314L123.439 149.305L114.662 141.938ZM68.2656 202.912L77.9839 188.178L143.504 216.078L135.667 227.991L122.029 221.722L116.387 230.343L127.359 240.531L119.208 252.757L68.2656 202.912ZM113.565 217.803L88.7993 205.733L109.49 223.916L113.565 217.803ZM27.8252 283.478L62.623 284.261L91.9346 311.691L96.9502 299.936L80.6484 284.731L103.22 285.045L108.863 271.722L72.6548 271.095L44.127 245.545L39.1108 257.301L54.002 270.468L33.625 269.997L27.8252 283.478ZM12.3062 334.735L15.5977 322.979L54.1572 333.951L20.6138 305.737L23.4351 296.176L90.6792 315.455L87.231 327.368L48.0444 316.083L82.2148 344.767L79.5503 353.858L12.3062 334.735ZM5.0957 375.173L2.90137 390.534L72.1831 401.036L74.3774 385.675L44.2822 381.13L44.439 379.562L76.1016 373.919L78.2964 357.931L39.5801 365.611L9.01465 348.213L6.81982 363.417L32.6831 377.681L32.5264 379.249L5.0957 375.173ZM0.864258 435.521L1.17773 417.809L71.3999 406.209L71.0864 420.473L56.1958 422.511L56.0391 432.855L70.7729 435.521L70.4595 450.098L0.864258 435.521ZM47.1045 423.765L19.6738 426.899L46.9478 431.132L47.1045 423.765ZM3.84229 485.836L5.56641 501.197L75.1621 493.674L73.4375 478.312L43.1855 481.604L43.0288 480.036L72.3403 466.713L70.6162 450.882L35.0347 467.967L1.021 458.719L2.58838 474.08L31.2729 481.291L31.4297 482.858L3.84229 485.836ZM17.9492 557.941L15.1279 546.028L54.001 536.624L10.8955 528.786L8.54443 519.068L76.5723 502.453L79.5503 514.522L39.8936 524.241L83.7827 532.392L85.9771 541.482L17.9492 557.941ZM33.1543 599.949L38.7974 614.369L104.003 588.663L98.3608 574.242L69.833 585.528L65.7573 575.496L94.2852 564.211L88.6426 549.79L23.5928 575.496L29.2358 589.917L55.5688 579.572L59.4878 589.604L33.1543 599.949ZM83 658.885L93.8154 659.512L93.6587 649.95L83.627 651.047L89.1133 642.583L80.4922 638.037L76.4165 647.912L68.5796 641.799L62.9365 648.853L71.4009 653.555L62.1528 657.944L67.6392 666.878L75.6328 660.608L76.103 670.17L84.8809 668.603L83 658.885ZM475.021 50.3965C473.768 57.9199 474.551 63.877 477.059 68.2656C479.724 72.8115 484.74 75.6328 492.263 76.7295C499.474 77.9834 504.803 76.8867 508.408 73.752C512.013 70.6162 514.365 65.7578 515.305 59.3311L516.246 53.375L501.354 51.0234L500.257 58.2334C499.787 60.8984 499.16 62.9365 498.376 64.3467C497.593 65.7578 496.025 66.2275 493.988 65.9141C491.793 65.6006 490.539 64.6602 490.069 63.0928C489.442 61.5254 489.442 59.3311 489.912 56.666L495.085 23.9062C495.555 21.2412 496.182 19.2041 497.123 17.793C497.906 16.3828 499.474 15.9121 501.668 16.2256C503.863 16.5391 505.117 17.4795 505.43 19.0469C505.744 20.6143 505.744 22.6523 505.273 25.3174L504.176 32.2139L519.067 34.5654L520.007 28.6084C521.104 22.1816 520.321 17.0098 517.813 13.0908C515.305 9.17188 510.446 6.66406 503.236 5.56738C495.712 4.31348 490.069 5.41016 486.307 8.8584C482.545 12.3066 480.194 17.793 478.94 25.4736L475.021 50.3965ZM538.189 13.249L571.576 22.8105L568.285 34.0967L549.789 28.7666L544.773 45.8525L547.908 46.793C561.231 50.5547 565.934 59.0186 562.171 72.0283C560.604 77.2012 558.566 80.9629 556.059 83.3145C553.394 85.666 550.416 86.9199 547.124 87.0762C546.31 87.1152 545.458 87.1064 544.567 87.0518C543.447 86.9824 542.266 86.8418 541.025 86.6338C540.311 86.5137 539.577 86.3721 538.824 86.208C537.715 85.9678 536.563 85.6816 535.368 85.3525L518.753 80.4932L538.189 13.249ZM538.346 75.4775C541.011 76.2607 543.048 76.1045 544.616 74.8506C546.184 73.7529 547.438 71.5586 548.378 68.2666C549.318 65.1318 549.475 62.624 548.848 60.7432C548.221 58.7051 546.497 57.4512 543.519 56.5107L541.794 56.041L536.309 74.8506L538.346 75.4775ZM570.479 72.9688C567.344 79.8652 566.56 85.8213 567.971 90.6807C569.382 95.54 573.457 99.459 580.354 102.437C587.251 105.415 593.05 105.729 597.596 103.534C602.142 101.34 606.06 96.6367 609.039 89.7402L619.384 65.915C622.362 59.0186 623.146 53.2188 621.735 48.3594C620.324 43.6572 616.092 39.582 609.195 36.6035C602.298 33.4688 596.655 33.1553 592.11 35.3496C587.564 37.5439 583.802 42.2461 580.824 49.1436L570.479 72.9688ZM592.894 87.0752C592.713 87.4971 592.526 87.9014 592.334 88.2871C591.526 89.9092 590.615 91.2051 589.602 92.0918C588.505 93.1885 586.78 93.3457 584.586 92.4053C582.548 91.4648 581.608 90.2109 581.608 88.6436C581.608 88.373 581.624 88.0996 581.653 87.8203C581.664 87.7246 581.675 87.6289 581.689 87.5322C581.704 87.4248 581.72 87.3164 581.739 87.208C581.763 87.0684 581.79 86.9277 581.82 86.7852C581.905 86.3848 582.013 85.9717 582.143 85.5439C582.408 84.665 582.761 83.7217 583.175 82.6865L596.655 51.8076C597.596 49.6133 598.693 47.8887 599.947 46.792C601.201 45.6943 602.769 45.6943 604.649 46.4785C606.688 47.4189 607.785 48.6729 607.785 50.2402C607.941 51.8076 607.471 53.8457 606.374 56.1963L592.894 87.0752ZM643.053 53.5303L663.116 65.7568C668.445 68.8916 671.423 72.8096 672.208 77.3555C672.991 81.9014 671.737 87.0742 668.289 92.5596C664.37 98.9863 660.138 102.435 655.749 103.219C651.203 103.846 646.188 102.592 640.701 99.2998L635.372 96.0088L620.011 121.558L606.844 113.564L643.053 53.5303ZM645.404 89.4248C647.755 90.8359 649.636 91.1494 651.203 90.3652C651.758 90.0879 652.313 89.6729 652.875 89.127C653.9 88.1318 654.949 86.7021 656.062 84.8799C657.63 82.2148 658.57 80.0205 658.57 78.2959C658.57 77.6436 658.413 77.0127 658.082 76.3965C657.776 75.8291 657.323 75.2734 656.708 74.7236C656.228 74.293 655.649 73.8652 654.965 73.4375L650.576 70.7725L641.015 86.6035L645.404 89.4248ZM660.138 120.619C655.278 126.575 652.927 132.062 653.084 137.077C653.084 142.093 656.062 147.109 662.175 151.812C668.132 156.514 673.461 158.395 678.477 157.454C683.493 156.514 688.352 153.065 693.055 147.109L709.355 126.889C714.059 120.933 716.409 115.446 716.253 110.431C716.096 105.415 713.118 100.398 707.161 95.6963C701.361 90.9941 695.876 89.1133 691.017 90.0537C686.001 90.9941 681.142 94.4424 676.439 100.398L660.138 120.619ZM677.09 141.334C676.719 141.737 676.35 142.101 675.985 142.428C675.167 143.161 674.37 143.713 673.618 144.131C672.207 144.915 670.64 144.602 668.916 143.19C667.191 141.779 666.564 140.369 667.034 138.802C667.348 137.234 668.445 135.51 670.013 133.472L691.017 107.139C692.584 105.102 694.151 103.847 695.562 103.063C696.973 102.437 698.54 102.75 700.107 104.004C701.832 105.415 702.459 106.825 702.146 108.393C701.832 109.96 700.734 111.685 699.167 113.722L678.164 140.056C677.805 140.521 677.447 140.946 677.09 141.334ZM735.22 120.932L747.76 134.099C750.895 137.39 753.245 140.524 754.813 143.503C756.381 146.481 756.851 149.616 756.224 152.908C755.597 156.199 753.559 159.491 749.954 162.939C746.976 165.761 743.997 167.328 741.176 167.642C738.354 167.955 735.533 167.172 732.712 165.134C735.063 168.426 736.004 171.874 735.377 175.322C734.75 178.928 732.712 182.376 729.106 185.824C719.075 195.386 709.2 195.072 699.481 184.884L684.591 169.366L735.22 120.932ZM705.281 175.322C707.476 177.674 709.67 178.771 711.864 178.614C714.059 178.457 716.254 177.203 718.918 174.695C721.739 171.874 723.307 169.522 723.62 167.485C723.777 165.447 722.837 163.097 720.485 160.745L718.291 158.394L703.087 172.972L705.281 175.322ZM727.696 153.535C729.891 155.886 732.085 156.983 733.966 156.826C734.555 156.777 735.159 156.621 735.784 156.361C736.156 156.206 736.536 156.015 736.925 155.788C737.383 155.521 737.853 155.203 738.335 154.838C738.946 154.375 739.578 153.835 740.235 153.222C742.273 151.341 743.214 149.303 743.214 147.265C743.214 145.228 742.273 143.189 740.235 140.995L738.354 139.114L725.658 151.341L727.696 153.535ZM778.639 198.993L767.823 198.68L768.137 208.241L778.169 206.83L772.996 215.451L781.773 219.684L785.535 209.652L793.687 215.451L799.016 208.085L790.395 203.695L799.486 198.993L793.687 190.216L785.849 196.799L785.065 187.237L776.444 189.275L778.639 198.993ZM835.066 264.668L840.396 279.245L813.749 289.12L817.511 299.309L844.157 289.434L849.487 304.011L783.811 328.307L778.48 313.729L807.165 303.07L803.403 292.882L774.719 303.541L769.39 288.964L835.066 264.668ZM818.139 341.944L857.325 333.323L854.66 321.41L786.319 336.614L788.357 345.862L832.089 354.797L792.275 363.575L794.94 375.645L863.281 360.439L861.087 350.722L818.139 341.944ZM866.103 378.467L867.513 393.828L839.926 396.179L840.082 397.746L868.61 405.584L869.864 420.945L836.007 411.07L800.112 427.528L798.701 411.697L828.17 398.844L828.013 397.276L797.604 399.941L796.193 384.58L866.103 378.467ZM868.61 461.855L869.395 444.3L800.112 428.155L799.485 442.732L814.22 445.711L813.749 456.056L798.858 457.78L798.231 472.044L868.61 461.855ZM850.428 452.294L822.997 454.959L823.311 447.435L850.428 452.294ZM866.571 489.13L864.063 504.334L836.79 499.789L836.477 501.356L862.183 516.09L859.675 531.295L829.423 513.269L790.55 520.166L793.215 504.491L825.034 499.476L825.348 497.908L795.252 492.892L797.76 477.688L866.571 489.13ZM852.308 556.373L855.913 544.773L789.14 524.083L786.317 533.018L819.861 562.485L780.832 550.416L777.227 562.329L844.157 583.02L847.136 573.458L814.062 544.617L852.308 556.373ZM804.657 594.149L839.455 595.717L833.499 609.04L813.122 608.257L827.855 621.736L822.526 633.492L794.469 607.316L758.261 605.905L764.217 592.738L786.788 593.522L770.801 578.005L776.13 566.405L804.657 594.149ZM787.259 689.765L797.291 675.345L747.289 624.559L738.981 636.628L749.797 646.974L743.997 655.438L730.517 649.011L722.366 660.767L787.259 689.765ZM776.914 672.053L752.305 659.513L756.537 653.399L776.914 672.053ZM771.114 711.081L749.64 735.377L741.019 727.854L752.147 715.157L708.259 676.598L718.447 664.998L771.114 711.081ZM717.507 765.786L740.549 744.469L693.055 693.213L669.856 714.688L676.91 722.367L688.822 711.396L703.086 726.757L694.151 735.064L701.362 742.901L710.297 734.594L722.053 747.29L710.297 758.105L717.507 765.786ZM706.849 774.878L694.309 783.97L677.694 761.085L668.916 767.354L685.531 790.239L672.991 799.331L631.924 742.745L644.463 733.654L662.489 758.42L671.267 752.15L653.241 727.384L665.781 718.293L706.849 774.878ZM656.377 796.194L647.129 801.367L618.758 750.268L605.121 757.791L633.492 808.891L624.401 813.906L630.044 823.938L662.02 806.226L656.377 796.194ZM590.386 770.96C594.931 773.468 598.536 778.17 601.358 785.066L610.919 808.422C613.897 815.476 614.681 821.589 613.271 826.448C611.86 831.307 607.627 835.226 600.574 838.047C593.834 840.868 588.348 841.182 584.116 839.145C579.884 837.106 576.592 833.031 574.241 827.075L571.89 821.432L585.84 815.633L588.504 822.059C589.115 823.456 589.678 824.609 590.246 825.574C590.698 826.342 591.153 826.989 591.64 827.545C592.174 828.079 592.819 828.391 593.576 828.479C594.374 828.572 595.296 828.418 596.342 828.016C598.379 827.231 599.477 825.978 599.477 824.253C599.477 822.529 599.006 820.491 598.066 817.983L585.526 787.575C584.429 785.067 583.332 783.186 582.078 782.089C580.824 780.991 579.256 780.835 577.219 781.618C575.181 782.402 574.241 783.656 574.241 785.224C574.241 786.791 574.711 788.829 575.808 791.493L578.629 798.233L564.679 804.033L562.328 798.391C559.82 792.277 559.35 786.948 560.761 782.402C562.171 777.856 566.247 774.251 572.987 771.43C580.197 768.608 585.997 768.452 590.386 770.96ZM551.827 853.877L566.717 849.802L548.535 782.244L533.644 786.319L541.481 815.788L539.914 816.258L522.202 789.454L506.84 793.53L529.255 825.977L525.493 860.931L540.384 857.012L543.049 827.544L544.616 827.073L551.827 853.877ZM511.699 863.439L499.629 865.007L494.457 825.193L481.917 867.201L472.042 868.455L462.951 799.017L475.333 797.449L480.663 837.89L493.359 795.098L502.764 793.844L511.699 863.439ZM458.563 869.552L445.396 837.262L458.876 799.643H446.023L438.656 820.646L430.035 799.8L415.458 799.956L429.251 833.5L417.182 869.865H430.035L436.148 850.898L443.986 869.708L458.563 869.552ZM385.833 801.68C388.34 806.225 388.811 812.182 387.557 819.548L383.168 844.314C381.757 851.838 379.249 857.324 375.487 860.772C371.726 864.064 366.083 865.161 358.402 863.751C351.191 862.497 346.333 859.832 343.981 855.913C341.63 851.995 341.003 846.822 342.1 840.396L343.198 834.439L358.088 837.104L356.834 844.001C356.364 846.665 356.364 848.703 356.678 850.271C356.991 851.838 358.245 852.778 360.439 853.092C362.634 853.405 364.202 852.936 365.142 851.524C366.083 850.114 366.866 848.076 367.336 845.411L372.979 812.965C373.45 810.3 373.45 808.105 372.979 806.538C372.684 805.552 372.077 804.813 371.161 804.285C370.621 803.974 369.973 803.734 369.217 803.561C367.18 803.247 365.612 803.717 364.829 804.971C364.764 805.087 364.7 805.207 364.635 805.332L364.522 805.557C364.443 805.717 364.364 805.883 364.287 806.056C364.16 806.337 364.036 806.634 363.915 806.948C363.831 807.166 363.749 807.392 363.669 807.625C363.326 808.628 363.021 809.781 362.791 811.084L361.537 818.294L346.646 815.63L347.743 809.673C348.84 803.247 351.348 798.388 354.954 795.409C358.559 792.274 364.045 791.491 371.255 792.745C378.309 794.312 383.325 797.134 385.833 801.68ZM290.375 845.256L323.604 855.602L344.295 788.984L327.68 783.812C323.291 782.558 319.529 781.931 316.081 781.931C312.632 781.931 309.654 783.028 306.99 785.379C304.325 787.573 302.13 791.336 300.563 796.508C296.488 809.361 301.19 817.825 314.356 821.901L317.492 822.842L312.162 839.77L293.823 833.971L290.375 845.256ZM318.432 793.687C320 792.59 322.037 792.433 324.702 793.217L326.583 793.844L320.783 812.496L319.059 812.026C316.081 811.085 314.356 809.675 313.886 807.637C313.416 805.756 313.573 803.248 314.513 800.113C315.611 796.979 316.865 794.784 318.432 793.687ZM295.39 777.542C296.644 782.401 295.704 788.357 292.568 795.255L281.753 818.923C278.618 825.82 274.699 830.365 270.154 832.403C265.608 834.598 259.965 833.971 253.068 830.836C246.171 827.701 242.096 823.625 240.686 818.767C239.275 813.907 240.215 808.107 243.35 801.211L254.166 777.542C257.301 770.646 261.219 766.1 265.765 763.905C270.311 761.711 276.11 762.181 283.007 765.473C290.061 768.607 294.136 772.683 295.39 777.542ZM273.759 775.661C272.505 776.759 271.408 778.326 270.311 780.677L256.203 811.242C255.106 813.594 254.636 815.632 254.636 817.199C254.636 818.064 254.97 818.833 255.585 819.507C256.085 820.055 256.771 820.539 257.614 820.961C259.495 821.901 261.062 821.744 262.316 820.647C263.57 819.55 264.667 817.982 265.765 815.632L279.872 785.065C280.969 782.715 281.439 780.834 281.596 779.267C281.596 777.699 280.656 776.445 278.618 775.505C276.581 774.563 275.013 774.563 273.759 775.661ZM199.775 800.426L219.682 812.965L256.987 753.872L243.977 745.564L228.146 770.644L222.816 767.353C217.487 764.061 212.471 762.493 207.926 763.12C203.38 763.747 199.148 767.195 195.072 773.465C191.467 778.951 190.057 784.124 190.84 788.67C191.624 793.215 194.602 797.134 199.775 800.426ZM212.314 775.974C213.725 775.347 215.606 775.66 217.958 777.07L222.189 779.892L212.314 795.566L208.083 792.901C205.731 791.334 204.634 789.767 204.634 788.043C204.791 786.318 205.574 784.124 207.299 781.459C209.18 778.481 210.747 776.757 212.314 775.974ZM211.375 729.42C211.375 734.437 208.867 739.922 204.008 745.722L187.393 765.629C182.534 771.428 177.675 774.877 172.659 775.66C167.8 776.601 162.314 774.563 156.514 769.704C150.714 764.845 147.736 759.829 147.736 754.813C147.736 749.797 150.087 744.312 154.947 738.512L171.562 718.604C176.421 712.805 181.437 709.356 186.296 708.573C191.312 707.633 196.641 709.67 202.598 714.529C208.397 719.389 211.375 724.248 211.375 729.42ZM190.841 721.896C189.431 722.523 187.863 723.935 186.139 725.815L164.665 751.678C162.941 753.716 162 755.44 161.53 757.008C161.06 758.575 161.843 759.985 163.411 761.396C164.979 762.65 166.546 763.12 167.957 762.337C169.367 761.71 170.935 760.299 172.659 758.418L194.29 732.555C195.118 731.562 195.814 730.612 196.356 729.707C196.841 728.897 197.203 728.123 197.425 727.383C197.721 726.396 197.582 725.471 197.007 724.568C196.67 724.038 196.182 723.516 195.544 722.993C193.82 721.583 192.409 721.27 190.841 721.896ZM116.543 730.519L128.926 743.999L180.495 696.661L165.918 680.83C156.356 670.484 146.481 669.857 136.293 679.263C132.688 682.711 130.493 686.159 129.866 689.607C129.239 693.057 130.023 696.505 132.374 699.796C129.553 697.759 126.888 696.818 123.91 697.132C120.932 697.288 117.954 698.855 114.976 701.678C111.37 704.969 109.176 708.261 108.549 711.553C107.922 714.844 108.392 717.979 109.803 720.957C111.213 723.936 113.408 727.227 116.543 730.519ZM130.963 707.947C132.845 707.79 134.882 709.044 137.077 711.396L139.114 713.747L126.104 725.659L124.224 723.622C122.342 721.428 121.402 719.39 121.402 717.352C121.402 715.157 122.499 713.276 124.537 711.396C126.888 709.201 129.083 708.104 130.963 707.947ZM153.222 686.63C155.416 686.473 157.61 687.727 159.805 690.078L161.999 692.586L146.481 706.85L144.287 704.499C142.092 701.991 140.995 699.64 141.309 697.602C141.622 695.407 143.19 693.057 146.168 690.392C148.676 688.04 151.027 686.786 153.222 686.63Z" fill="#0B6CFE" fill-opacity="0.15"/>
</svg>
