<svg width="117" height="117" viewBox="0 0 117 117" fill="none" xmlns="http://www.w3.org/2000/svg">
<path fill-rule="evenodd" clip-rule="evenodd" d="M105.086 37.6717C104.064 35.3693 102.153 33.7391 99.9359 33.0056C100.294 30.6981 99.714 28.2539 98.1308 26.2946C96.5477 24.3353 94.2796 23.2553 91.9484 23.1205C91.6968 20.799 90.5043 18.588 88.4679 17.1052C86.4316 15.6224 83.9613 15.1662 81.6748 15.6394C80.831 13.4618 79.1067 11.6346 76.7557 10.7293C74.4048 9.82396 71.9003 10.0228 69.814 11.072C68.4353 9.18736 66.2971 7.86893 63.7922 7.60296C61.2873 7.337 58.9198 8.17704 57.1762 9.73012C55.3567 8.26633 52.9499 7.5461 50.4613 7.93755C47.9728 8.32898 45.9034 9.75322 44.6212 11.7048C42.4849 10.762 39.9739 10.6893 37.6716 11.7114C35.3693 12.7336 33.739 14.6448 33.0056 16.8617C30.6981 16.5039 28.2537 17.0836 26.2944 18.6668C24.335 20.25 23.255 22.5182 23.1203 24.8494C20.7986 25.1009 18.5874 26.2935 17.1045 28.33C15.6216 30.3665 15.1654 32.8369 15.6388 35.1236C13.4616 35.9675 11.6346 37.6917 10.7294 40.0424C9.82417 42.3931 10.0229 44.8973 11.0717 46.9835C9.18694 48.3622 7.86835 50.5005 7.60237 53.0056C7.33639 55.5107 8.17657 57.8783 9.72989 59.622C8.26621 61.4414 7.54606 63.8481 7.93749 66.3366C8.32892 68.8251 9.75315 70.8945 11.7047 72.1767C10.7619 74.313 10.6892 76.824 11.7113 79.1264C12.7335 81.4287 14.6447 83.0589 16.8616 83.7924C16.5038 86.0999 17.0835 88.5442 18.6667 90.5036C20.2499 92.463 22.5181 93.543 24.8493 93.6777C25.1008 95.9994 26.2934 98.2106 28.3299 99.6935C30.3663 101.176 32.8367 101.633 35.1233 101.159C35.9671 103.337 37.6914 105.164 40.0423 106.069C42.3931 106.974 44.8974 106.776 46.9837 105.727C48.3623 107.611 50.5006 108.93 53.0055 109.196C55.5106 109.462 57.8782 108.621 59.6218 107.068C61.4413 108.532 63.848 109.252 66.3365 108.86C68.8249 108.469 70.8942 107.045 72.1765 105.093C74.3128 106.036 76.8239 106.109 79.1263 105.087C81.4287 104.065 83.0589 102.153 83.7924 99.9365C86.1 100.294 88.5445 99.7148 90.5039 98.1315C92.4633 96.5482 93.5434 94.2799 93.678 91.9486C95.9995 91.697 98.2105 90.5044 99.6933 88.468C101.176 86.4317 101.632 83.9613 101.159 81.6747C103.336 80.8309 105.163 79.1067 106.069 76.7558C106.974 74.4049 106.775 71.9004 105.726 69.8141C107.611 68.4354 108.929 66.2972 109.195 63.7923C109.461 61.2874 108.621 58.92 107.068 57.1763C108.532 55.3568 109.252 52.95 108.86 50.4614C108.469 47.9729 107.045 45.9034 105.093 44.6212C106.036 42.4849 106.108 39.974 105.086 37.6717Z" fill="#00969F"/>
<path d="M25.4009 47.1299L27.7629 46.2926L29.2972 50.6207L30.9466 50.036L29.4123 45.7079L31.7875 44.8659L35.5765 55.5541L33.2013 56.3961L31.5454 51.725L29.896 52.3097L31.5519 56.9809L29.1899 57.8182L25.4009 47.1299ZM33.4548 44.2748L35.3153 43.6152L37.4858 49.7379L38.0467 42.6469L39.5774 42.1043L43.3664 52.7926L41.4663 53.4662L39.2584 47.238L38.6821 54.4532L37.2438 54.9631L33.4548 44.2748ZM41.238 41.5157L43.5999 40.6783L45.1015 44.914L45.339 44.8298L45.4077 40.0375L47.7565 39.2048L47.5811 44.9114L51.6115 49.8697L49.1835 50.7304L45.9752 46.6244L45.7377 46.7086L47.389 51.3666L45.027 52.2039L41.238 41.5157ZM50.2539 38.3195L52.9458 37.3652L58.7273 47.3471L56.5501 48.119L55.3939 45.9888L53.8236 46.5455L54.2541 48.9329L52.024 49.7234L50.2539 38.3195ZM54.669 44.6565L52.6234 40.6879L53.5342 45.0588L54.669 44.6565ZM56.057 36.2623L58.419 35.4249L59.9206 39.6607L60.1581 39.5765L60.2267 34.7841L62.5755 33.9514L62.4002 39.658L66.4305 44.6163L64.0026 45.477L60.7942 41.371L60.5567 41.4552L62.208 46.1132L59.846 46.9505L56.057 36.2623ZM63.6083 33.5853L65.4688 32.9258L67.6393 39.0484L68.2003 31.9575L69.7309 31.4148L73.5199 42.1031L71.6198 42.7767L69.4119 36.5485L68.8356 43.7637L67.3973 44.2736L63.6083 33.5853ZM74.4737 35.2888L70.7449 31.0554L72.9749 30.2648L75.1738 32.7383L75.0994 29.5117L77.0655 28.8147L77.1611 35.0342L81.0656 39.4281L78.8488 40.214L76.4104 37.4838L76.3945 41.0841L74.4416 41.7764L74.4737 35.2888ZM27.5524 64.4038L30.2443 63.4495L36.0258 73.4315L33.8486 74.2033L32.6924 72.0732L31.1221 72.6298L31.5526 75.0172L29.3225 75.8078L27.5524 64.4038ZM31.9675 70.7408L29.9219 66.7722L30.8327 71.1431L31.9675 70.7408ZM33.3555 62.3466L38.3038 60.5924L38.9259 62.3474L36.3396 63.2643L39.5065 72.1975L37.1445 73.0349L33.3555 62.3466ZM39.4239 60.1953L44.2271 58.4926L44.7977 60.1025L42.3566 60.9678L43.2968 63.6201L45.1574 62.9605L45.7374 64.5968L43.8769 65.2563L45.0089 68.4496L47.4764 67.5749L48.0425 69.1715L43.2129 70.8836L39.4239 60.1953ZM45.3654 58.0891L47.7273 57.2518L49.2617 61.5798L50.9111 60.9951L49.3768 56.667L51.7519 55.825L55.5409 66.5133L53.1658 67.3553L51.5098 62.6841L49.8604 63.2689L51.5164 67.94L49.1544 68.7773L45.3654 58.0891ZM54.965 56.6615L53.3552 57.2322L52.733 55.4772L58.3147 53.4985L58.9368 55.2535L57.3402 55.8195L60.5071 64.7528L58.1319 65.5948L54.965 56.6615ZM66.1622 62.9263C65.001 63.3379 64.0665 63.3276 63.3587 62.8952C62.6565 62.451 62.1012 61.6526 61.6927 60.5002L60.3268 56.6472C59.9089 55.4684 59.8358 54.4942 60.1076 53.7244C60.3762 52.9459 61.0956 52.3493 62.2656 51.9345C63.3828 51.5385 64.2696 51.5261 64.9261 51.8975C65.5825 52.2688 66.0854 52.9471 66.4347 53.9323L66.7621 54.856L64.4529 55.6746L64.074 54.6058C63.9275 54.1923 63.7712 53.8913 63.6053 53.7025C63.4393 53.5138 63.1892 53.4787 62.855 53.5972C62.5207 53.7157 62.3428 53.9124 62.3215 54.1873C62.297 54.4535 62.358 54.7933 62.5046 55.2067L64.2869 60.2342C64.4365 60.6564 64.6047 60.9632 64.7914 61.1545C64.9837 61.3339 65.2426 61.3659 65.5681 61.2505C65.8936 61.1351 66.0613 60.9519 66.0713 60.7007C66.087 60.4377 66.02 60.0951 65.8703 59.6728L65.4727 58.5512L67.7819 57.7326L68.1093 58.6563C68.4648 59.6591 68.5093 60.5247 68.2426 61.253C67.9729 61.9725 67.2794 62.5302 66.1622 62.9263ZM66.7306 50.5151L69.0925 49.6778L70.5941 53.9135L70.8316 53.8293L70.9003 49.0369L73.2491 48.2043L73.0737 53.9108L77.1041 58.8691L74.6761 59.7298L71.4678 55.6238L71.2303 55.708L72.8815 60.366L70.5196 61.2033L66.7306 50.5151ZM74.2818 47.8381L76.1424 47.1786L78.3129 53.3012L78.8738 46.2103L80.4045 45.6676L84.1935 56.3559L82.2934 57.0295L80.0854 50.8013L79.5091 58.0165L78.0708 58.5264L74.2818 47.8381ZM85.1473 49.5416L81.4185 45.3082L83.6485 44.5176L85.8473 46.9911L85.7729 43.7645L87.7391 43.0675L87.8347 49.287L91.7392 53.6809L89.5224 54.4668L87.084 51.7366L87.068 55.3369L85.1151 56.0292L85.1473 49.5416ZM47.5184 88.6777C46.454 89.055 45.5945 89.0329 44.9401 88.6114C44.2856 88.1898 43.7681 87.4424 43.3877 86.3692L43.252 85.9865L45.4689 85.2007L45.6139 85.6097C45.8041 86.1463 45.991 86.5059 46.1745 86.6884C46.3668 86.8678 46.6081 86.906 46.8984 86.8031C47.1799 86.7033 47.3301 86.5263 47.3489 86.2721C47.3765 86.0147 47.3014 85.6353 47.1237 85.1339C46.9209 84.5621 46.6864 84.1798 46.42 83.9871C46.1593 83.7825 45.7899 83.7599 45.3118 83.9195C45.2822 83.9201 45.0828 83.9859 44.7133 84.1168L44.2034 82.6785L44.7444 82.4867C45.2339 82.3033 45.5214 82.0529 45.6069 81.7354C45.7012 81.4148 45.647 80.9686 45.4443 80.3968C45.2946 79.9745 45.1164 79.6812 44.9096 79.5169C44.6997 79.3437 44.4496 79.3086 44.1593 79.4115C43.8866 79.5082 43.7276 79.6883 43.6824 79.9519C43.646 80.2124 43.6967 80.5509 43.8345 80.9675L44.045 81.5613L41.8282 82.3471L41.599 81.7006C41.2622 80.7505 41.2701 79.9208 41.6227 79.2116C41.9841 78.4992 42.6266 77.9793 43.5503 77.6519C44.4916 77.3182 45.3091 77.3057 46.0027 77.6143C46.7052 77.9198 47.2232 78.5432 47.5569 79.4845C47.7721 80.0915 47.8329 80.6541 47.7394 81.1725C47.6459 81.6909 47.4287 82.0699 47.0879 82.3095C47.5575 82.3213 47.9752 82.4802 48.3412 82.7862C48.704 83.0834 49.0117 83.5882 49.2643 84.3008C49.6354 85.3476 49.6923 86.2484 49.435 87.003C49.1777 87.7577 48.5389 88.3159 47.5184 88.6777ZM47.9262 76.2788L53.2307 74.3984L53.8669 76.1929L50.9243 77.2361L51.888 79.9543L52.3894 79.7766C54.5007 79.0281 55.9212 79.6832 56.6509 81.7416C56.944 82.5686 57.0265 83.2622 56.8984 83.8225C56.7759 84.371 56.498 84.8161 56.0647 85.1579C55.637 85.4877 55.0712 85.7774 54.3675 86.0269L51.7152 86.9671L47.9262 76.2788ZM53.8334 84.4783C54.2556 84.3286 54.5142 84.1083 54.609 83.8172C54.7096 83.5142 54.6694 83.1075 54.4885 82.5973C54.3139 82.1047 54.0962 81.7561 53.8355 81.5514C53.5748 81.3467 53.2114 81.3271 52.7451 81.4923L52.468 81.5906L53.5299 84.5859L53.8334 84.4783ZM62.0995 83.4641C60.9471 83.8726 60.0201 83.8695 59.3186 83.4548C58.6139 83.0312 58.0557 82.2388 57.6441 81.0776L56.236 77.1058C55.8244 75.9446 55.762 74.9864 56.0488 74.2312C56.3325 73.4671 57.0505 72.8809 58.2029 72.4723C59.3641 72.0607 60.2955 72.0622 60.9971 72.477C61.7074 72.8886 62.2669 73.6707 62.6754 74.8231L64.0834 78.7949C64.4951 79.9561 64.5562 80.9246 64.2668 81.7006C63.9831 82.4646 63.2607 83.0525 62.0995 83.4641ZM61.5054 81.7883C61.8397 81.6698 62.0207 81.4819 62.0483 81.2245C62.0727 80.9584 62.0164 80.6318 61.8792 80.2447L60.0548 75.0985C59.9145 74.7026 59.7526 74.4135 59.569 74.231C59.3855 74.0485 59.1266 74.0165 58.7923 74.135C58.4756 74.2472 58.305 74.4364 58.2806 74.7026C58.253 74.9599 58.3078 75.2821 58.445 75.6692L60.2693 80.8154C60.4065 81.2025 60.5641 81.4932 60.7419 81.6876C60.9166 81.8732 61.1711 81.9068 61.5054 81.7883ZM62.9247 70.9618L66.5139 69.6895C67.4551 69.3558 68.254 69.3746 68.9105 69.746C69.5638 70.1085 70.0682 70.7912 70.4238 71.794C70.8292 72.9376 70.8387 73.8304 70.4523 74.4724C70.0716 75.1025 69.3931 75.5906 68.4166 75.9368L67.4665 76.2736L69.0757 80.8128L66.7137 81.6501L62.9247 70.9618ZM67.6735 74.3435C68.087 74.1969 68.3207 73.9903 68.3747 73.7236C68.4375 73.4537 68.3769 73.0593 68.1929 72.5403C68.0245 72.0653 67.8338 71.7368 67.6207 71.5548C67.4077 71.3729 67.0857 71.3583 66.6546 71.5111L65.8761 71.7871L66.8818 74.6241L67.6735 74.3435ZM77.3696 78.0508C76.2172 78.4594 75.2902 78.4562 74.5886 78.0415C73.8839 77.6179 73.3258 76.8256 72.9141 75.6644L71.5061 71.6926C71.0945 70.5314 71.032 69.5731 71.3188 68.8179C71.6025 68.0539 72.3206 67.4676 73.473 67.0591C74.6342 66.6474 75.5655 66.649 76.2671 67.0637C76.9775 67.4754 77.5369 68.2574 77.9454 69.4098L79.3535 73.3816C79.7651 74.5428 79.8262 75.5114 79.5369 76.2873C79.2532 77.0513 78.5308 77.6392 77.3696 78.0508ZM76.7755 76.375C77.1098 76.2565 77.2907 76.0686 77.3183 75.8112C77.3428 75.5451 77.2864 75.2185 77.1492 74.8314L75.3249 69.6852C75.1845 69.2894 75.0226 69.0002 74.8391 68.8177C74.6556 68.6352 74.3966 68.6032 74.0624 68.7217C73.7457 68.834 73.5751 69.0232 73.5506 69.2893C73.523 69.5467 73.5778 69.8689 73.715 70.2559L75.5394 75.4021C75.6766 75.7892 75.8341 76.0799 76.012 76.2743C76.1867 76.46 76.4412 76.4935 76.7755 76.375ZM78.1948 65.5486L80.979 64.5616C81.6739 64.3152 82.2898 64.181 82.8267 64.1591C83.3692 64.1252 83.8633 64.2619 84.309 64.5694C84.7546 64.8768 85.11 65.4044 85.3751 66.1521C85.5996 66.7855 85.6379 67.3265 85.4899 67.775C85.342 68.2236 85.0344 68.5851 84.5673 68.8596C85.2112 68.7205 85.7738 68.8132 86.2552 69.1376C86.7366 69.4621 87.1114 70.0026 87.3796 70.7591C88.1281 72.8704 87.4247 74.308 85.2694 75.0721L81.9838 76.2368L78.1948 65.5486ZM82.5342 68.8228C83.0356 68.6451 83.3337 68.4107 83.4286 68.1196C83.5323 67.8254 83.4983 67.4363 83.3268 66.9525C83.1771 66.5303 82.9505 66.2541 82.6469 66.1241C82.3402 65.9852 81.967 65.9938 81.5271 66.1497L81.1181 66.2947L82.0723 68.9866L82.5342 68.8228ZM84.2624 73.5723C84.7639 73.3946 85.0721 73.1467 85.1871 72.8286C85.3078 72.4987 85.273 72.0654 85.0828 71.5288C84.8676 70.9218 84.6108 70.5326 84.3124 70.3611C84.0227 70.1865 83.6228 70.1897 83.1125 70.3705L82.6243 70.5436L83.761 73.7501L84.2624 73.5723Z" fill="white"/>
<circle cx="58.6503" cy="58.0532" r="41.8164" transform="rotate(-8.93925 58.6503 58.0532)" stroke="white"/>
</svg>
