<svg width="39" height="39" viewBox="0 0 39 39" fill="none" xmlns="http://www.w3.org/2000/svg">
<mask id="mask0" mask-type="alpha" maskUnits="userSpaceOnUse" x="0" y="0" width="39" height="39">
<circle cx="19.5" cy="19.5" r="19.5" fill="#C4C4C4"/>
</mask>
<g mask="url(#mask0)">
<path d="M23.9685 36.9509H13.3555L13.9137 26.7886L24.298 26.7953L23.9685 36.9509Z" fill="#E7E7F7"/>
<path d="M19.0658 27.9185C21.1507 27.9185 24.11 26.8021 24.11 26.8021L22.933 26.6675C22.3546 26.6003 21.9175 26.1026 21.9242 25.5175V22.5044H16.1872V25.4973C16.194 26.0824 15.7568 26.5734 15.1784 26.6474L14.0283 26.7819C14.0216 26.7819 16.9876 27.905 19.0658 27.9185Z" fill="url(#paint0_linear)"/>
<path fill-rule="evenodd" clip-rule="evenodd" d="M19.0589 28.9185C17.8797 28.9108 16.5119 28.5952 15.4931 28.3075C14.9722 28.1605 14.5199 28.014 14.1973 27.9041C14.0359 27.8491 13.906 27.8029 13.8154 27.7699C13.7702 27.7535 13.7341 27.7401 13.7082 27.7304L13.6741 27.7174L13.654 27.7094C13.6512 27.7083 13.6391 27.7034 13.6248 27.6971C13.6215 27.6956 13.5925 27.683 13.5585 27.6649C13.5308 27.6496 13.4291 27.5828 13.3594 27.5256C13.0732 27.0368 13.4198 26.0906 13.9164 25.8281L13.9117 25.7886L15.0541 25.655C15.1383 25.6428 15.1876 25.5744 15.1869 25.5088L15.1868 25.4973L15.1868 22.5044C15.1868 21.9521 15.6345 21.5044 16.1868 21.5044H21.9238C22.476 21.5044 22.9238 21.9521 22.9238 22.5044V25.529C22.9229 25.6046 22.9806 25.6661 23.0476 25.6742C23.0478 25.6742 23.0474 25.6742 23.0476 25.6742L24.2231 25.8085C24.6819 25.8609 25.0451 26.2207 25.102 26.6789C25.1588 27.1371 24.8946 27.5747 24.4626 27.7377L24.1096 26.8021L22.9326 26.6675C22.6739 26.6375 22.4434 26.5212 22.2683 26.3496C22.0519 26.1375 21.92 25.8408 21.9238 25.5175V22.5044H16.1868V25.4973C16.1905 25.8208 16.0586 26.1155 15.842 26.3269C15.667 26.4979 15.4366 26.6143 15.178 26.6474L14.0279 26.7819C14.0279 26.7819 14.0279 26.7819 14.0279 26.7819C14.0299 26.7834 14.2844 26.8801 14.6955 27.0166C14.8556 27.0698 15.0395 27.129 15.2416 27.191C15.2436 27.1916 15.2457 27.1922 15.2478 27.1929C15.4843 27.2654 15.7454 27.3415 16.0221 27.4162C16.9755 27.6734 18.1136 27.9123 19.0654 27.9185C20.0112 27.9185 21.1369 27.6887 22.0847 27.4377C22.3647 27.3635 22.6292 27.2875 22.8689 27.215C22.8693 27.2149 22.8697 27.2147 22.8701 27.2146C23.607 26.9917 24.1096 26.8021 24.1096 26.8021C24.4626 27.7377 24.4627 27.7376 24.4626 27.7377L24.4587 27.7391L24.4505 27.7422L24.4217 27.7529C24.397 27.762 24.3616 27.7749 24.3164 27.7912C24.226 27.8236 24.0962 27.8694 23.9345 27.924C23.6117 28.0329 23.1592 28.1781 22.6381 28.3235C21.6187 28.6079 20.2496 28.9185 19.0654 28.9185L19.0589 28.9185Z" fill="black"/>
<path d="M27.123 27.1314L24.1099 26.7749L23.8543 27.3466C23.7131 27.6829 23.5315 27.999 23.3297 28.2882L19.059 36.5606L14.7815 28.2814C14.5797 27.9922 14.4049 27.6829 14.2636 27.3466L14.0081 26.7749L10.995 27.1314C8.70158 27.434 7 29.3844 7 31.6846V35.1281V37.9999H31.1045V31.6846C31.1045 29.3844 29.403 27.434 27.123 27.1314Z" fill="url(#paint1_linear)"/>
<path fill-rule="evenodd" clip-rule="evenodd" d="M27.2405 26.1383L27.2546 26.1401C30.0338 26.509 32.1045 28.8853 32.1045 31.6846V38C32.1045 38.5522 31.6568 39 31.1045 39H7C6.44772 39 6 38.5522 6 38V31.6846C6 28.8836 8.07255 26.5084 10.8642 26.14L10.8775 26.1382L13.8906 25.7819C14.325 25.7305 14.7424 25.9674 14.921 26.3668L15.1766 26.9385L15.1856 26.9594C15.2972 27.225 15.4366 27.4728 15.6016 27.7093C15.6269 27.7455 15.6497 27.7833 15.6699 27.8225L19.0587 34.3814L22.4412 27.8295C22.4615 27.7902 22.4843 27.7523 22.5096 27.716C22.6776 27.4753 22.8226 27.2208 22.9324 26.9594L22.9414 26.9385L23.197 26.3668C23.3755 25.9674 23.793 25.7305 24.2274 25.7819L27.2405 26.1383ZM19.059 36.5607L14.7815 28.2815C14.5797 27.9923 14.4049 27.6829 14.2636 27.3466L14.0081 26.7749L10.995 27.1314C8.70158 27.434 7 29.3845 7 31.6846V38H31.1045V31.6846C31.1045 29.3845 29.403 27.434 27.123 27.1314L24.1099 26.7749L23.8543 27.3466C23.7131 27.6829 23.5315 27.999 23.3297 28.2882L19.059 36.5607Z" fill="black"/>
<path d="M25.1992 18.3073H25.939C26.8873 18.3073 27.6608 17.5338 27.6608 16.5855C27.6608 15.6372 26.8873 14.8638 25.939 14.8638H25.3674" fill="#FFB291"/>
<path fill-rule="evenodd" clip-rule="evenodd" d="M24.1992 18.3073C24.1992 17.755 24.6469 17.3073 25.1992 17.3073H25.248L25.1992 18.3073H25.939C26.8873 18.3073 27.6608 17.5338 27.6608 16.5855C27.6608 15.6372 26.8873 14.8638 25.939 14.8638H25.3674L25.3186 15.8626C24.789 15.8372 24.3674 15.3997 24.3674 14.8638C24.3674 14.3115 24.8151 13.8638 25.3674 13.8638H25.939C27.4396 13.8638 28.6608 15.0849 28.6608 16.5855C28.6608 18.0861 27.4396 19.3073 25.939 19.3073H25.1992C24.6469 19.3073 24.1992 18.8596 24.1992 18.3073Z" fill="black"/>
<path d="M12.8242 18.3073H12.1651C11.2168 18.3073 10.4434 17.5338 10.4434 16.5855C10.4434 15.6372 11.2168 14.8638 12.1651 14.8638H12.7368" fill="#FFB291"/>
<path fill-rule="evenodd" clip-rule="evenodd" d="M13.8242 18.3073C13.8242 18.8596 13.3765 19.3073 12.8242 19.3073H12.1651C10.6645 19.3073 9.44336 18.0861 9.44336 16.5855C9.44336 15.0849 10.6645 13.8638 12.1651 13.8638H12.7368C13.2891 13.8638 13.7368 14.3115 13.7368 14.8638C13.7368 15.4076 13.3027 15.85 12.7622 15.8635L12.7368 14.8638H12.1651C11.2168 14.8638 10.4434 15.6372 10.4434 16.5855C10.4434 17.5338 11.2168 18.3073 12.1651 18.3073H12.8242L12.7988 17.3073H12.8242C13.3765 17.3073 13.8242 17.755 13.8242 18.3073Z" fill="black"/>
<path d="M12.7373 10.674V17.1575L12.8718 18.9465C13.1677 22.3631 16.1674 24.8919 19.584 24.596C19.7723 24.5825 19.9539 24.5556 20.1355 24.522C22.9602 23.9772 25.0653 21.5829 25.2402 18.7111L25.3612 17.1575V12.0662L22.4894 10.4453L12.7373 10.674Z" fill="url(#paint2_linear)"/>
<path fill-rule="evenodd" clip-rule="evenodd" d="M11.7373 10.674C11.7373 10.1308 12.1709 9.68699 12.7139 9.67426L22.466 9.44559C22.6461 9.44136 22.824 9.48589 22.9809 9.57445L25.8528 11.1953C26.1669 11.3726 26.3612 11.7054 26.3612 12.0662V17.1575C26.3612 17.1834 26.3602 17.2093 26.3582 17.2351L26.2378 18.7806C26.0314 22.1048 23.5943 24.8733 20.3248 25.5039L20.3176 25.5053L20.3175 25.5053C20.1151 25.5428 19.8971 25.5758 19.6629 25.5929C15.6975 25.9324 12.2188 22.9955 11.8755 19.0328L11.8746 19.0214L11.8746 19.0214L11.7401 17.2324C11.7382 17.2075 11.7373 17.1825 11.7373 17.1575V10.674ZM19.584 24.596C19.7723 24.5825 19.9539 24.5556 20.1355 24.522C22.9602 23.9772 25.0653 21.5829 25.2402 18.7111L25.3612 17.1575V12.0662L22.4894 10.4453L12.7373 10.674V17.1575L12.8718 18.9465C13.1677 22.3631 16.1674 24.8919 19.584 24.596Z" fill="black"/>
<path d="M25.3673 12.4291C24.3059 12.3508 22.9215 11.7816 22.4955 10.7073C22.4955 10.7073 18.9242 12.4896 16.086 12.0726C13.2478 11.6556 12.3668 10.7611 11.5799 9.81952C10.793 8.87794 10.4365 7.76149 10.4365 7.76149C11.9651 7.50066 13.1268 8.05069 13.1268 8.05069C13.1268 8.05069 12.017 7.38486 11.7346 6.42982C11.4252 5.39408 12.1785 4.5332 12.1785 4.5332C13.5533 6.85987 15.5955 6.14636 17.9019 5.80434C19.6708 5.54204 21.2244 5.50169 21.87 5.94558C22.5157 6.38947 22.4955 6.69212 22.4955 6.69212C22.4955 6.69212 23.5918 6.59796 24.4997 7.28397C25.8593 8.31122 25.3606 10.9812 25.3606 12.4291H25.3673Z" fill="url(#paint3_linear)"/>
<path fill-rule="evenodd" clip-rule="evenodd" d="M26.3666 12.4658C26.3468 13.0034 25.9052 13.4291 25.3673 13.4291H25.3605C25.322 13.4291 25.284 13.4269 25.2466 13.4226C24.5969 13.3681 23.8673 13.1712 23.2191 12.8222C22.8316 12.6137 22.4416 12.3329 22.1193 11.9685C21.734 12.1271 21.231 12.3186 20.6558 12.5C19.364 12.9074 17.5865 13.3038 15.9406 13.062C14.437 12.8411 13.3748 12.4828 12.5592 12.0062C11.7347 11.5245 11.2288 10.9589 10.8125 10.4608C10.3467 9.90342 10.0185 9.30829 9.80886 8.8646C9.70277 8.64003 9.62386 8.44746 9.57056 8.30825C9.54385 8.2385 9.5234 8.18171 9.50903 8.1405C9.50184 8.11988 9.49616 8.10312 9.49197 8.09055L9.48679 8.07485L9.48503 8.06942L9.48436 8.06733L9.48394 8.06603C9.48388 8.06584 9.48382 8.06565 10.4364 7.7615C10.4364 7.7615 10.5689 8.17622 10.8504 8.71332C11.0308 9.05745 11.2725 9.45183 11.5798 9.81953C12.3667 10.7611 13.2477 11.6556 16.0859 12.0726C18.0364 12.3592 20.3331 11.6071 21.579 11.1086C22.1461 10.8817 22.4954 10.7073 22.4954 10.7073C22.5355 10.8084 22.5841 10.905 22.6401 10.9971C23.0012 11.5916 23.6711 12.0005 24.3631 12.2269C24.7015 12.3376 25.0451 12.4047 25.3605 12.4286C25.3605 12.4284 25.3605 12.4287 25.3605 12.4286L25.3673 12.4291C25.365 12.4289 25.3628 12.4287 25.3605 12.4286C25.3605 12.3257 25.3631 12.2166 25.3673 12.1025C25.3746 11.9028 25.387 11.6875 25.4001 11.462C25.4007 11.4509 25.4013 11.4398 25.402 11.4286C25.4861 9.97209 25.5854 8.10428 24.4997 7.28398C24.0651 6.95563 23.5874 6.80602 23.2074 6.73925C22.7934 6.66653 22.4954 6.69213 22.4954 6.69213C22.4954 6.69213 22.4962 6.68027 22.4925 6.65781C22.4773 6.5668 22.3878 6.30162 21.87 5.94559C21.2243 5.5017 19.6707 5.54205 17.9019 5.80435C17.6144 5.84697 17.331 5.89537 17.0526 5.94294C15.4217 6.2215 13.9583 6.47144 12.8193 5.36592C12.5924 5.14566 12.3783 4.87158 12.1784 4.53321L11.4258 3.87471C11.6371 3.63326 11.9513 3.50784 12.2708 3.53749C12.5903 3.56714 12.8761 3.74827 13.0393 4.02448C13.3146 4.4904 13.5907 4.75125 13.8465 4.9062C14.1025 5.06128 14.3968 5.14585 14.7624 5.17211C15.1393 5.19917 15.5692 5.16296 16.0831 5.08775C16.3379 5.05046 16.6003 5.0057 16.8817 4.95763L16.8889 4.95641C17.1643 4.90936 17.4568 4.85941 17.7552 4.81516C18.6666 4.68001 19.5577 4.59629 20.3254 4.61031C21.0372 4.62332 21.8517 4.71948 22.4365 5.12154C22.7199 5.31638 22.9386 5.51441 23.1024 5.71446C23.1699 5.72199 23.2412 5.7315 23.3156 5.74344C23.8064 5.82222 24.4781 6.01433 25.1025 6.48611C26.1684 7.29148 26.3918 8.63735 26.4389 9.6525C26.464 10.1939 26.4416 10.7374 26.4157 11.213C26.4095 11.3273 26.4033 11.4361 26.3973 11.5396C26.3801 11.8388 26.3653 12.095 26.3615 12.3207C26.3666 12.3682 26.3684 12.4167 26.3666 12.4658ZM11.6884 5.59358C11.797 4.96904 12.1784 4.53321 12.1784 4.53321C11.4258 3.87471 11.4261 3.8744 11.4258 3.87471L11.4247 3.87592L11.4236 3.87723L11.4211 3.8801L11.4153 3.88689L11.4004 3.90458C11.3891 3.91818 11.3751 3.93542 11.3589 3.95616C11.3266 3.99752 11.2849 4.05332 11.2382 4.12218C11.1455 4.25862 11.028 4.45341 10.9231 4.69488C10.7164 5.17112 10.5326 5.89542 10.775 6.71167C10.6107 6.72528 10.4415 6.74618 10.2682 6.77574C9.9828 6.82445 9.73248 6.9945 9.58203 7.24191C9.43157 7.48932 9.39587 7.79018 9.48394 8.06603L10.4364 7.7615C10.7316 7.71114 11.013 7.69101 11.275 7.6913C11.3444 7.69138 11.4123 7.69289 11.4788 7.69565C12.463 7.73645 13.1267 8.0507 13.1267 8.0507C13.1267 8.0507 12.2365 7.51657 11.8477 6.71893C11.8024 6.626 11.764 6.52949 11.7345 6.42983C11.6452 6.13103 11.6444 5.84679 11.6884 5.59358Z" fill="black"/>
<path d="M15.8838 6.30268L16.0385 3.32324L23.282 3.80749L22.9928 7.13665C22.9726 7.40568 22.7641 7.6209 22.5018 7.65453C21.7956 7.75541 20.3698 7.88992 18.9574 7.68815C17.5989 7.48638 16.6573 7.08285 16.1932 6.84745C15.9914 6.73984 15.8704 6.53135 15.8838 6.30268Z" fill="url(#paint4_linear)"/>
<path fill-rule="evenodd" clip-rule="evenodd" d="M22.9928 7.13617C22.9726 7.40519 22.7641 7.62041 22.5018 7.65404C21.7957 7.75492 20.3698 7.88943 18.9575 7.68767C17.5989 7.4859 16.6573 7.08236 16.1932 6.84697C15.9915 6.73936 15.8704 6.53086 15.8839 6.30219L16.0385 3.32276L23.282 3.807L22.9928 7.13617ZM14.8853 6.24772L15.0399 3.27091C15.0538 3.00347 15.1743 2.75278 15.3746 2.57498C15.5748 2.39717 15.838 2.30712 16.1052 2.32498L23.3487 2.80923C23.6168 2.82715 23.8664 2.95218 24.0412 3.15615C24.2161 3.36013 24.3015 3.62588 24.2783 3.89354L23.9894 7.21832C23.9304 7.95925 23.3596 8.54808 22.6378 8.64477C21.8862 8.75179 20.3582 8.89792 18.816 8.67762L18.8105 8.67683C17.3259 8.45634 16.2813 8.01293 15.7409 7.73879L15.7226 7.72932C15.1889 7.44467 14.85 6.87724 14.8853 6.24772Z" fill="black"/>
<path d="M14.5598 3.50442L19.5435 5.16564C19.6847 5.21272 19.8394 5.22617 19.9874 5.19254L25.1123 4.38547C25.2266 4.3653 25.2266 4.19716 25.1123 4.17698L20.0344 3C20.0277 3 20.0143 3 20.0075 3L14.5867 3.29593C14.4724 3.30265 14.4455 3.46407 14.5598 3.50442Z" fill="url(#paint5_linear)"/>
<path fill-rule="evenodd" clip-rule="evenodd" d="M14.2431 4.4531L14.2265 4.44741C13.0566 4.0345 13.3519 2.3668 14.5275 2.29765L14.5317 2.2974L19.9526 2.00149C19.9707 2.0005 19.9889 2 20.0071 2H20.0338C20.1098 2 20.1857 2.00866 20.2598 2.02583L25.3206 3.19886C26.5014 3.44052 26.4898 5.15776 25.2856 5.37026L25.2674 5.3733L20.1687 6.17624C19.8326 6.24439 19.5059 6.20735 19.2268 6.11433L14.2431 4.4531ZM19.9869 5.19254L25.1118 4.38547C25.2261 4.3653 25.2261 4.19716 25.1118 4.17698L20.034 3H20.0071L14.5863 3.29593C14.4719 3.30265 14.445 3.46407 14.5594 3.50442L19.543 5.16564C19.6843 5.21272 19.8389 5.22617 19.9869 5.19254Z" fill="black"/>
<path d="M20.3093 29.1156L19.0516 27.9185L17.7939 29.1156L18.1773 34.866L19.0516 36.5608L19.926 34.866L20.3093 29.1156Z" fill="url(#paint6_linear)"/>
<path d="M12.5352 26.9498L12.7369 30.5278L14.3712 30.9582L13.3557 31.8662L19.0523 37.3072V36.5606L13.9946 26.7749L12.5352 26.9498Z" fill="url(#paint7_linear)"/>
<path d="M25.5825 26.9498L25.3808 30.5278L23.7464 30.9582L24.762 31.8662L19.0654 37.3072V36.5606L24.1231 26.7749L25.5825 26.9498Z" fill="url(#paint8_linear)"/>
</g>
<defs>
<linearGradient id="paint0_linear" x1="15.8482" y1="22.0235" x2="19.6681" y2="26.7285" gradientUnits="userSpaceOnUse">
<stop stop-color="#FEDAC6"/>
<stop offset="1" stop-color="#FFB291"/>
</linearGradient>
<linearGradient id="paint1_linear" x1="19.0524" y1="22.9358" x2="19.0524" y2="38.5971" gradientUnits="userSpaceOnUse">
<stop stop-color="#395175"/>
<stop offset="1" stop-color="#192333"/>
</linearGradient>
<linearGradient id="paint2_linear" x1="19.0526" y1="20.6177" x2="19.0526" y2="11.2933" gradientUnits="userSpaceOnUse">
<stop stop-color="#FEDAC6"/>
<stop offset="1" stop-color="#FFB291"/>
</linearGradient>
<linearGradient id="paint3_linear" x1="17.9044" y1="13.7659" x2="17.9044" y2="7.54364" gradientUnits="userSpaceOnUse">
<stop stop-color="#A15D30"/>
<stop offset="1" stop-color="#734322"/>
</linearGradient>
<linearGradient id="paint4_linear" x1="19.3464" y1="8.55035" x2="19.7328" y2="2.39428" gradientUnits="userSpaceOnUse">
<stop stop-color="#395175"/>
<stop offset="1" stop-color="#192333"/>
</linearGradient>
<linearGradient id="paint5_linear" x1="19.6253" y1="5.69917" x2="20.0575" y2="2.06384" gradientUnits="userSpaceOnUse">
<stop stop-color="#395175"/>
<stop offset="1" stop-color="#192333"/>
</linearGradient>
<linearGradient id="paint6_linear" x1="19.0519" y1="36.8794" x2="19.0519" y2="29.3771" gradientUnits="userSpaceOnUse">
<stop stop-color="#5D1B13"/>
<stop offset="1" stop-color="#FF192D"/>
</linearGradient>
<linearGradient id="paint7_linear" x1="15.7948" y1="14.865" x2="15.7948" y2="33.962" gradientUnits="userSpaceOnUse">
<stop stop-color="#395175"/>
<stop offset="1" stop-color="#192333"/>
</linearGradient>
<linearGradient id="paint8_linear" x1="22.3241" y1="14.865" x2="22.3241" y2="33.962" gradientUnits="userSpaceOnUse">
<stop stop-color="#395175"/>
<stop offset="1" stop-color="#192333"/>
</linearGradient>
</defs>
</svg>
