<svg width="28" height="40" viewBox="0 0 28 40" fill="none" xmlns="http://www.w3.org/2000/svg">
<path d="M19.3928 38.8012H7.26367L7.90164 27.187L19.7694 27.1947L19.3928 38.8012Z" fill="#E7E7F7"/>
<path d="M13.7893 28.4781C16.1721 28.4781 19.5541 27.2021 19.5541 27.2021L18.209 27.0484C17.548 26.9715 17.0484 26.4027 17.0561 25.734V22.2905H10.4996V25.711C10.5073 26.3797 10.0076 26.9408 9.34661 27.0253L8.03224 27.1791C8.02455 27.1791 11.4143 28.4627 13.7893 28.4781Z" fill="url(#paint0_linear)"/>
<path d="M22.9977 27.5788L19.5542 27.1714L19.2621 27.8247C19.1007 28.209 18.8932 28.5703 18.6626 28.9008L13.7817 38.3551L8.89316 28.8931C8.66257 28.5626 8.46272 28.209 8.30131 27.8247L8.00922 27.1714L4.56572 27.5788C1.94466 27.9247 0 30.1537 0 32.7825V36.7179V40H27.548V32.7825C27.548 30.1537 25.6034 27.9247 22.9977 27.5788Z" fill="url(#paint1_linear)"/>
<path d="M20.7998 17.494H21.6453C22.7291 17.494 23.613 16.6101 23.613 15.5263C23.613 14.4425 22.7291 13.5586 21.6453 13.5586H20.992" fill="#FFB291"/>
<path d="M6.65653 17.494H5.90326C4.81948 17.494 3.93555 16.6101 3.93555 15.5263C3.93555 14.4425 4.81948 13.5586 5.90326 13.5586H6.55661" fill="#FFB291"/>
<path d="M6.55664 8.77013V16.1798L6.71037 18.2244C7.04857 22.1291 10.4767 25.0192 14.3814 24.681C14.5966 24.6656 14.8041 24.6348 15.0117 24.5964C18.24 23.9738 20.6458 21.2375 20.8456 17.9554L20.984 16.1798V10.3612L17.7019 8.50879L6.55664 8.77013Z" fill="url(#paint2_linear)"/>
<path d="M20.9915 10.7763C20.9915 10.7763 19.5311 10.6687 18.7087 9.96151C17.8862 9.25436 17.7094 8.80855 17.7094 8.80855C17.7094 8.80855 13.628 10.8454 10.3843 10.3689C7.14065 9.89233 6.13373 8.87004 5.23442 7.79395C4.33511 6.71785 3.92773 5.44191 3.92773 5.44191C3.92773 5.44191 5.86471 5.1114 6.4335 5.44191C7.00229 5.77243 7.00229 5.77243 7.00229 5.77243C7.00229 5.77243 5.73404 5.01147 5.41121 3.92C5.05763 2.7363 5.91851 1.75244 5.91851 1.75244C5.91851 1.75244 6.7179 3.10525 7.64026 3.53568C8.56263 3.96612 10.4381 3.50494 12.4596 3.20517C14.4812 2.9054 16.2567 2.85928 16.9946 3.36658C17.7325 3.87389 17.7094 4.21977 17.7094 4.21977C17.7094 4.21977 18.9623 4.11216 20 4.89618C21.0377 5.68019 20.9838 7.3097 20.9838 7.3097V10.7763H20.9915Z" fill="url(#paint3_linear)"/>
<path d="M10.1535 3.77421L10.3303 0.369141L18.6085 0.922561L18.278 4.72733C18.255 5.03478 18.0167 5.28075 17.7169 5.31918C16.9098 5.43447 15.2803 5.5882 13.6662 5.35761C12.1135 5.12702 11.0374 4.66584 10.5071 4.39681C10.2765 4.27383 10.1381 4.03555 10.1535 3.77421Z" fill="url(#paint4_linear)"/>
<path d="M8.63964 0.57648L14.3353 2.47502C14.4967 2.52882 14.6735 2.5442 14.8426 2.50576L20.6996 1.5834C20.8303 1.56034 20.8303 1.36818 20.6996 1.34512L14.8964 0C14.8887 0 14.8733 0 14.8656 0L8.67038 0.338201C8.53971 0.345888 8.50897 0.530361 8.63964 0.57648Z" fill="url(#paint5_linear)"/>
<path d="M15.2116 29.8462L13.7743 28.478L12.3369 29.8462L12.775 36.4181L13.7743 38.355L14.7735 36.4181L15.2116 29.8462Z" fill="url(#paint6_linear)"/>
<path d="M6.32617 27.3712L6.55676 31.4604L8.42456 31.9523L7.26391 32.99L13.7743 39.2083V38.3551L7.99412 27.1714L6.32617 27.3712Z" fill="url(#paint7_linear)"/>
<path d="M21.2372 27.3712L21.0066 31.4604L19.1388 31.9523L20.2994 32.99L13.7891 39.2083V38.3551L19.5692 27.1714L21.2372 27.3712Z" fill="url(#paint8_linear)"/>
<defs>
<linearGradient id="paint0_linear" x1="10.112" y1="21.7409" x2="14.4776" y2="27.118" gradientUnits="userSpaceOnUse">
<stop stop-color="#FEDAC6"/>
<stop offset="1" stop-color="#FFB291"/>
</linearGradient>
<linearGradient id="paint1_linear" x1="13.7742" y1="22.7838" x2="13.7742" y2="40.6825" gradientUnits="userSpaceOnUse">
<stop stop-color="#395175"/>
<stop offset="1" stop-color="#192333"/>
</linearGradient>
<linearGradient id="paint2_linear" x1="13.7741" y1="20.1344" x2="13.7741" y2="9.47796" gradientUnits="userSpaceOnUse">
<stop stop-color="#FEDAC6"/>
<stop offset="1" stop-color="#FFB291"/>
</linearGradient>
<linearGradient id="paint3_linear" x1="12.4624" y1="12.3041" x2="12.4624" y2="5.19294" gradientUnits="userSpaceOnUse">
<stop stop-color="#A15D30"/>
<stop offset="1" stop-color="#734322"/>
</linearGradient>
<linearGradient id="paint4_linear" x1="14.1107" y1="6.34298" x2="14.5523" y2="-0.692535" gradientUnits="userSpaceOnUse">
<stop stop-color="#395175"/>
<stop offset="1" stop-color="#192333"/>
</linearGradient>
<linearGradient id="paint5_linear" x1="14.4288" y1="3.08477" x2="14.9227" y2="-1.06989" gradientUnits="userSpaceOnUse">
<stop stop-color="#395175"/>
<stop offset="1" stop-color="#192333"/>
</linearGradient>
<linearGradient id="paint6_linear" x1="13.7746" y1="38.7191" x2="13.7746" y2="30.1451" gradientUnits="userSpaceOnUse">
<stop stop-color="#5D1B13"/>
<stop offset="1" stop-color="#FF192D"/>
</linearGradient>
<linearGradient id="paint7_linear" x1="10.0514" y1="13.5601" x2="10.0514" y2="35.3852" gradientUnits="userSpaceOnUse">
<stop stop-color="#395175"/>
<stop offset="1" stop-color="#192333"/>
</linearGradient>
<linearGradient id="paint8_linear" x1="17.5133" y1="13.5601" x2="17.5133" y2="35.3852" gradientUnits="userSpaceOnUse">
<stop stop-color="#395175"/>
<stop offset="1" stop-color="#192333"/>
</linearGradient>
</defs>
</svg>
