<svg width="24" height="24" viewBox="0 0 24 24" fill="none" xmlns="http://www.w3.org/2000/svg">
<path fill-rule="evenodd" clip-rule="evenodd" d="M11.75 0.25C12.1642 0.25 12.5 0.585786 12.5 1V3C12.5 3.41421 12.1642 3.75 11.75 3.75C11.3358 3.75 11 3.41421 11 3V1C11 0.585786 11.3358 0.25 11.75 0.25ZM6.5 12C6.5 9.1005 8.8505 6.75 11.75 6.75C14.6495 6.75 17 9.1005 17 12C17 14.8995 14.6495 17.25 11.75 17.25C8.8505 17.25 6.5 14.8995 6.5 12ZM11.75 5.25C8.02208 5.25 5 8.27208 5 12C5 15.7279 8.02208 18.75 11.75 18.75C15.4779 18.75 18.5 15.7279 18.5 12C18.5 8.27208 15.4779 5.25 11.75 5.25ZM11.3208 9.32946C11.7189 9.21515 11.949 8.79974 11.8347 8.40161C11.7204 8.00348 11.3049 7.77341 10.9068 7.88772C10.1674 8.10003 9.57319 8.36655 9.06826 8.84348C8.57794 9.30661 8.23011 9.91474 7.87258 10.6838C7.69795 11.0594 7.86088 11.5054 8.23648 11.68C8.61209 11.8547 9.05814 11.6917 9.23276 11.3161C9.57249 10.5854 9.8233 10.1937 10.0983 9.93395C10.3586 9.68804 10.6963 9.50876 11.3208 9.32946ZM12.5 21C12.5 20.5858 12.1642 20.25 11.75 20.25C11.3358 20.25 11 20.5858 11 21V23C11 23.4142 11.3358 23.75 11.75 23.75C12.1642 23.75 12.5 23.4142 12.5 23V21ZM0 12C0 11.5858 0.335786 11.25 0.75 11.25H2.75C3.16421 11.25 3.5 11.5858 3.5 12C3.5 12.4142 3.16421 12.75 2.75 12.75H0.75C0.335786 12.75 0 12.4142 0 12ZM20.75 11.25C20.3358 11.25 20 11.5858 20 12C20 12.4142 20.3358 12.75 20.75 12.75H22.75C23.1642 12.75 23.5 12.4142 23.5 12C23.5 11.5858 23.1642 11.25 22.75 11.25H20.75ZM3.44171 3.69135C3.7346 3.39846 4.20947 3.39846 4.50237 3.69135L5.91658 5.10556C6.20947 5.39846 6.20947 5.87333 5.91658 6.16622C5.62369 6.45912 5.14881 6.45912 4.85592 6.16622L3.44171 4.75201C3.14881 4.45912 3.14881 3.98424 3.44171 3.69135ZM18.6445 17.8334C18.3516 17.5405 17.8767 17.5405 17.5838 17.8334C17.2909 18.1263 17.2909 18.6012 17.5838 18.8941L18.998 20.3083C19.2909 20.6012 19.7658 20.6012 20.0587 20.3083C20.3516 20.0154 20.3516 19.5405 20.0587 19.2477L18.6445 17.8334ZM20.0587 3.69146C20.3515 3.98436 20.3515 4.45923 20.0587 4.75212L18.6444 6.16634C18.3515 6.45923 17.8767 6.45923 17.5838 6.16634C17.2909 5.87344 17.2909 5.39857 17.5838 5.10568L18.998 3.69146C19.2909 3.39857 19.7658 3.39857 20.0587 3.69146ZM5.91656 18.8942C6.20945 18.6013 6.20945 18.1264 5.91656 17.8336C5.62367 17.5407 5.14879 17.5407 4.8559 17.8336L3.44169 19.2478C3.14879 19.5407 3.14879 20.0155 3.44169 20.3084C3.73458 20.6013 4.20945 20.6013 4.50235 20.3084L5.91656 18.8942Z" fill="#0B6CFE"/>
</svg>
