<svg width="24" height="24" viewBox="0 0 24 24" fill="none" xmlns="http://www.w3.org/2000/svg">
<path fill-rule="evenodd" clip-rule="evenodd" d="M12 6.75C9.10051 6.75 6.75 9.10051 6.75 12C6.75 14.8995 9.10051 17.25 12 17.25C14.8995 17.25 17.25 14.8995 17.25 12C17.25 9.10051 14.8995 6.75 12 6.75ZM5.25 12C5.25 8.27208 8.27208 5.25 12 5.25C15.7279 5.25 18.75 8.27208 18.75 12C18.75 15.7279 15.7279 18.75 12 18.75C8.27208 18.75 5.25 15.7279 5.25 12Z" fill="white"/>
<path fill-rule="evenodd" clip-rule="evenodd" d="M12.0847 8.40161C12.199 8.79974 11.9689 9.21515 11.5708 9.32947C10.9463 9.50876 10.6086 9.68804 10.3483 9.93395C10.0733 10.1937 9.82249 10.5854 9.48276 11.3161C9.30814 11.6917 8.86209 11.8547 8.48648 11.68C8.11088 11.5054 7.94795 11.0594 8.12258 10.6838C8.48011 9.91474 8.82794 9.30661 9.31826 8.84348C9.82319 8.36655 10.4174 8.10003 11.1568 7.88772C11.5549 7.77341 11.9704 8.00348 12.0847 8.40161Z" fill="white"/>
<path fill-rule="evenodd" clip-rule="evenodd" d="M12 0.25C12.4142 0.25 12.75 0.585786 12.75 1V3C12.75 3.41421 12.4142 3.75 12 3.75C11.5858 3.75 11.25 3.41421 11.25 3V1C11.25 0.585786 11.5858 0.25 12 0.25Z" fill="white"/>
<path fill-rule="evenodd" clip-rule="evenodd" d="M12 20.25C12.4142 20.25 12.75 20.5858 12.75 21V23C12.75 23.4142 12.4142 23.75 12 23.75C11.5858 23.75 11.25 23.4142 11.25 23V21C11.25 20.5858 11.5858 20.25 12 20.25Z" fill="white"/>
<path fill-rule="evenodd" clip-rule="evenodd" d="M0.25 12C0.25 11.5858 0.585786 11.25 1 11.25L3 11.25C3.41421 11.25 3.75 11.5858 3.75 12C3.75 12.4142 3.41421 12.75 3 12.75L1 12.75C0.585786 12.75 0.25 12.4142 0.25 12Z" fill="white"/>
<path fill-rule="evenodd" clip-rule="evenodd" d="M20.25 12C20.25 11.5858 20.5858 11.25 21 11.25L23 11.25C23.4142 11.25 23.75 11.5858 23.75 12C23.75 12.4142 23.4142 12.75 23 12.75L21 12.75C20.5858 12.75 20.25 12.4142 20.25 12Z" fill="white"/>
<path fill-rule="evenodd" clip-rule="evenodd" d="M3.69171 3.69135C3.9846 3.39846 4.45947 3.39846 4.75237 3.69135L6.16658 5.10556C6.45947 5.39846 6.45947 5.87333 6.16658 6.16622C5.87369 6.45912 5.39881 6.45912 5.10592 6.16622L3.69171 4.75201C3.39881 4.45912 3.39881 3.98424 3.69171 3.69135Z" fill="white"/>
<path fill-rule="evenodd" clip-rule="evenodd" d="M17.8338 17.8334C18.1267 17.5405 18.6016 17.5405 18.8945 17.8334L20.3087 19.2477C20.6016 19.5405 20.6016 20.0154 20.3087 20.3083C20.0158 20.6012 19.5409 20.6012 19.248 20.3083L17.8338 18.8941C17.5409 18.6012 17.5409 18.1263 17.8338 17.8334Z" fill="white"/>
<path fill-rule="evenodd" clip-rule="evenodd" d="M20.3087 3.69146C20.6015 3.98436 20.6015 4.45923 20.3087 4.75212L18.8944 6.16634C18.6015 6.45923 18.1267 6.45923 17.8338 6.16634C17.5409 5.87344 17.5409 5.39857 17.8338 5.10568L19.248 3.69146C19.5409 3.39857 20.0158 3.39857 20.3087 3.69146Z" fill="white"/>
<path fill-rule="evenodd" clip-rule="evenodd" d="M6.16656 17.8336C6.45945 18.1264 6.45945 18.6013 6.16656 18.8942L4.75235 20.3084C4.45945 20.6013 3.98458 20.6013 3.69169 20.3084C3.39879 20.0155 3.39879 19.5407 3.69169 19.2478L5.1059 17.8336C5.39879 17.5407 5.87367 17.5407 6.16656 17.8336Z" fill="white"/>
</svg>
