<svg width="34" height="34" viewBox="0 0 34 34" fill="none" xmlns="http://www.w3.org/2000/svg">
<path d="M17.043 33.543C26.1557 33.543 33.543 26.1557 33.543 17.043C33.543 7.93027 26.1557 0.542969 17.043 0.542969C7.93027 0.542969 0.542969 7.93027 0.542969 17.043C0.542969 26.1557 7.93027 33.543 17.043 33.543Z" fill="#F0F0F0"/>
<path d="M16.3257 17.0427H33.543C33.543 15.5534 33.3445 14.1107 32.9746 12.7383L16.3257 12.7383V17.0427Z" fill="#D80027"/>
<path d="M16.3257 8.43426L31.1213 8.43426C30.1112 6.78606 28.8198 5.32923 27.314 4.12988L16.3257 4.12988V8.43426Z" fill="#D80027"/>
<path d="M17.043 33.543C20.9262 33.543 24.4954 32.2008 27.314 29.9561L6.77197 29.9561C9.59051 32.2008 13.1597 33.543 17.043 33.543Z" fill="#D80027"/>
<path d="M2.96468 25.6515L31.1212 25.6515C31.932 24.3284 32.5609 22.8821 32.9745 21.3472L1.11133 21.3472C1.52492 22.8821 2.15379 24.3284 2.96468 25.6515Z" fill="#D80027"/>
<path d="M8.18608 3.11968H9.6897L8.29107 4.13578L8.82532 5.77991L7.42676 4.76381L6.02819 5.77991L6.48967 4.35956C5.25823 5.38533 4.1789 6.58713 3.28945 7.9262H3.77123L2.88094 8.57299C2.74224 8.80438 2.60921 9.03944 2.48172 9.27798L2.90685 10.5864L2.11369 10.0102C1.91653 10.4279 1.73619 10.855 1.57409 11.291L2.04247 12.7327H3.77123L2.3726 13.7488L2.90685 15.393L1.50828 14.3769L0.670521 14.9856C0.586668 15.6596 0.542969 16.3462 0.542969 17.043L17.043 17.043C17.043 7.93033 17.043 6.85602 17.043 0.542969C13.7834 0.542969 10.7449 1.4885 8.18608 3.11968ZM8.82532 15.393L7.42676 14.3769L6.02819 15.393L6.56244 13.7488L5.16381 12.7327H6.89257L7.42676 11.0886L7.96094 12.7327L9.6897 12.7327L8.29107 13.7488L8.82532 15.393ZM8.29107 8.94231L8.82532 10.5864L7.42676 9.57034L6.02819 10.5864L6.56244 8.94231L5.16381 7.9262H6.89257L7.42676 6.28207L7.96094 7.9262H9.6897L8.29107 8.94231ZM14.7438 15.393L13.3452 14.3769L11.9467 15.393L12.4809 13.7488L11.0823 12.7327H12.811L13.3452 11.0886L13.8794 12.7327H15.6082L14.2095 13.7488L14.7438 15.393ZM14.2095 8.94231L14.7438 10.5864L13.3452 9.57034L11.9467 10.5864L12.4809 8.94231L11.0823 7.9262L12.811 7.9262L13.3452 6.28207L13.8794 7.9262H15.6082L14.2095 8.94231ZM14.2095 4.13578L14.7438 5.77991L13.3452 4.76381L11.9467 5.77991L12.4809 4.13578L11.0823 3.11968H12.811L13.3452 1.47554L13.8794 3.11968L15.6082 3.11968L14.2095 4.13578Z" fill="#0052B4"/>
</svg>
