<svg width="32" height="30" viewBox="0 0 32 30" fill="none" xmlns="http://www.w3.org/2000/svg">
<path fill-rule="evenodd" clip-rule="evenodd" d="M25.1776 21.1497C25.5363 21.3568 25.995 21.2339 26.2021 20.8752C26.4092 20.5165 26.2863 20.0578 25.9276 19.8507L23.6771 18.5513L25.653 17.5744C26.0243 17.3908 26.1765 16.941 25.9929 16.5697C25.8093 16.1984 25.3595 16.0462 24.9882 16.2298L22.1159 17.65L17.5262 15.0001L22.1158 12.3503L24.9879 13.7704C25.3592 13.954 25.8091 13.8018 25.9926 13.4305C26.1762 13.0592 26.0241 12.6094 25.6528 12.4258L23.6771 11.4489L25.9274 10.1497C26.2861 9.9426 26.409 9.48391 26.2019 9.12519C25.9948 8.76647 25.5361 8.64357 25.1774 8.85067L22.927 10.1499L23.0689 7.95043C23.0955 7.53707 22.782 7.18037 22.3687 7.15371C21.9553 7.12705 21.5986 7.44053 21.572 7.85389L21.3658 11.0513L16.7761 13.7011L16.7761 8.40167L19.4423 6.62421C19.787 6.39444 19.8801 5.92879 19.6503 5.58414C19.4206 5.2395 18.9549 5.14637 18.6103 5.37613L16.7761 6.59889L16.7761 4.00009C16.7761 3.58587 16.4403 3.25009 16.0261 3.25009C15.6119 3.25009 15.2761 3.58587 15.2761 4.00009L15.2761 6.59873L13.4422 5.37613C13.0976 5.14636 12.6319 5.2395 12.4022 5.58414C12.1724 5.92879 12.2655 6.39444 12.6102 6.62421L15.2761 8.4015L15.2761 13.701L10.6867 11.0513L10.4805 7.85389C10.4538 7.44053 10.0971 7.12705 9.68379 7.15371C9.27044 7.18037 8.95696 7.53707 8.98362 7.95043L9.12547 10.1499L6.87506 8.85067C6.51634 8.64357 6.05765 8.76647 5.85054 9.12519C5.64344 9.48391 5.76634 9.9426 6.12506 10.1497L8.37538 11.4489L6.39972 12.4258C6.02842 12.6094 5.87624 13.0592 6.05983 13.4305C6.24342 13.8018 6.69326 13.954 7.06456 13.7704L9.93663 12.3503L14.5262 15.0001L9.93658 17.65L7.06432 16.2298C6.69301 16.0462 6.24318 16.1984 6.05959 16.5697C5.876 16.941 6.02817 17.3908 6.39948 17.5744L8.37533 18.5513L6.12482 19.8507C5.7661 20.0578 5.64319 20.5165 5.8503 20.8752C6.05741 21.2339 6.5161 21.3568 6.87482 21.1497L9.12524 19.8504L8.98337 22.0502C8.95671 22.4636 9.27019 22.8203 9.68355 22.847C10.0969 22.8736 10.4536 22.5601 10.4803 22.1468L10.6865 18.949L15.2761 16.2992L15.2761 21.5987L12.6102 23.376C12.2655 23.6057 12.1724 24.0714 12.4022 24.416C12.6319 24.7607 13.0976 24.8538 13.4422 24.624L15.2761 23.4014L15.2761 26.0001C15.2761 26.4143 15.6119 26.7501 16.0261 26.7501C16.4403 26.7501 16.7761 26.4143 16.7761 26.0001L16.7761 23.4013L18.6103 24.624C18.9549 24.8538 19.4206 24.7607 19.6503 24.416C19.8801 24.0714 19.787 23.6057 19.4423 23.376L16.7761 21.5985L16.7761 16.2991L21.3657 18.9489L21.572 22.1468C21.5986 22.5601 21.9553 22.8736 22.3687 22.847C22.782 22.8203 23.0955 22.4636 23.0689 22.0502L22.927 19.8503L25.1776 21.1497Z" fill="white"/>
</svg>
