<svg width="31" height="30" viewBox="0 0 31 30" fill="none" xmlns="http://www.w3.org/2000/svg">
<path fill-rule="evenodd" clip-rule="evenodd" d="M24.4655 21.1497C24.8242 21.3568 25.2829 21.2339 25.49 20.8752C25.6971 20.5165 25.5742 20.0578 25.2155 19.8507L22.965 18.5513L24.9408 17.5744C25.3121 17.3908 25.4643 16.941 25.2807 16.5697C25.0971 16.1984 24.6473 16.0462 24.276 16.2298L21.4037 17.65L16.8141 15.0001L21.4037 12.3503L24.2758 13.7704C24.6471 13.954 25.0969 13.8018 25.2805 13.4305C25.4641 13.0592 25.3119 12.6094 24.9406 12.4258L22.9649 11.4489L25.2152 10.1497C25.5739 9.9426 25.6968 9.48391 25.4897 9.12519C25.2826 8.76647 24.8239 8.64357 24.4652 8.85067L22.2148 10.1499L22.3567 7.95043C22.3834 7.53707 22.0699 7.18037 21.6565 7.15371C21.2432 7.12705 20.8865 7.44053 20.8598 7.85389L20.6536 11.0513L16.064 13.7011L16.064 8.40167L18.7301 6.62421C19.0748 6.39444 19.1679 5.92879 18.9382 5.58414C18.7084 5.2395 18.2427 5.14637 17.8981 5.37613L16.064 6.59889L16.064 4.00009C16.064 3.58587 15.7282 3.25009 15.314 3.25009C14.8997 3.25009 14.564 3.58587 14.564 4.00009L14.564 6.59873L12.7301 5.37613C12.3854 5.14636 11.9198 5.2395 11.69 5.58414C11.4602 5.92879 11.5534 6.39444 11.898 6.62421L14.564 8.4015L14.564 13.701L9.97456 11.0513L9.76835 7.85389C9.74169 7.44053 9.38499 7.12705 8.97163 7.15371C8.55828 7.18037 8.2448 7.53707 8.27146 7.95043L8.41331 10.1499L6.16291 8.85067C5.80419 8.64357 5.34549 8.76647 5.13839 9.12519C4.93128 9.48391 5.05419 9.9426 5.41291 10.1497L7.66322 11.4489L5.68756 12.4258C5.31626 12.6094 5.16409 13.0592 5.34768 13.4305C5.53127 13.8018 5.9811 13.954 6.3524 13.7704L9.22447 12.3503L13.8141 15.0001L9.22442 17.65L6.35216 16.2298C5.98085 16.0462 5.53102 16.1984 5.34743 16.5697C5.16384 16.941 5.31601 17.3908 5.68732 17.5744L7.66317 18.5513L5.41266 19.8507C5.05394 20.0578 4.93103 20.5165 5.13814 20.8752C5.34525 21.2339 5.80394 21.3568 6.16266 21.1497L8.41309 19.8504L8.27121 22.0502C8.24456 22.4636 8.55803 22.8203 8.97139 22.847C9.38474 22.8736 9.74144 22.5601 9.7681 22.1468L9.97433 18.949L14.564 16.2992L14.564 21.5987L11.898 23.376C11.5534 23.6057 11.4602 24.0714 11.69 24.416C11.9198 24.7607 12.3854 24.8538 12.7301 24.624L14.564 23.4014L14.564 26.0001C14.564 26.4143 14.8997 26.7501 15.314 26.7501C15.7282 26.7501 16.064 26.4143 16.064 26.0001L16.064 23.4013L17.8981 24.624C18.2427 24.8538 18.7084 24.7607 18.9382 24.416C19.1679 24.0714 19.0748 23.6057 18.7301 23.376L16.064 21.5985L16.064 16.2991L20.6536 18.9489L20.8598 22.1468C20.8865 22.5601 21.2432 22.8736 21.6565 22.847C22.0699 22.8203 22.3834 22.4636 22.3567 22.0502L22.2148 19.8503L24.4655 21.1497Z" fill="#0B6CFE"/>
</svg>
