<svg width="50" height="49" viewBox="0 0 50 49" fill="none" xmlns="http://www.w3.org/2000/svg">
<path d="M24.9204 48.96C38.4404 48.96 49.4005 38 49.4005 24.48C49.4005 10.9601 38.4404 0 24.9204 0C11.4005 0 0.44043 10.9601 0.44043 24.48C0.44043 38 11.4005 48.96 24.9204 48.96Z" fill="#F0F0F0"/>
<path d="M23.8535 24.4789L49.3978 24.4789C49.3978 22.2694 49.1033 20.1289 48.5545 18.0928L23.8535 18.0928V24.4789Z" fill="#D80027"/>
<path d="M23.8535 11.7074L45.8048 11.7074C44.3063 9.26209 42.3902 7.10068 40.1562 5.32129L23.8535 5.32129V11.7074Z" fill="#D80027"/>
<path d="M24.9201 48.9584C30.6814 48.9584 35.9768 46.9671 40.1585 43.6367H9.68164C13.8633 46.9671 19.1588 48.9584 24.9201 48.9584Z" fill="#D80027"/>
<path d="M4.03192 37.2514L45.8059 37.2514C47.009 35.2883 47.942 33.1424 48.5556 30.8652L1.28223 30.8652C1.89585 33.1424 2.82887 35.2883 4.03192 37.2514Z" fill="#D80027"/>
<path d="M11.78 3.8229H14.0109L11.9358 5.33043L12.7284 7.76973L10.6535 6.2622L8.5785 7.76973L9.26318 5.66244C7.43617 7.18431 5.83483 8.96734 4.5152 10.954H5.23L3.90913 11.9136C3.70335 12.2569 3.50598 12.6057 3.31683 12.9596L3.94757 14.9009L2.77081 14.0459C2.4783 14.6656 2.21074 15.2993 1.97024 15.9462L2.66515 18.0852H5.23L3.15494 19.5927L3.94757 22.032L1.87261 20.5245L0.629672 21.4276C0.505263 22.4276 0.44043 23.4462 0.44043 24.48L24.9204 24.48C24.9204 10.9602 24.9204 9.36628 24.9204 0C20.0845 0 15.5764 1.40282 11.78 3.8229ZM12.7284 22.032L10.6535 20.5245L8.5785 22.032L9.37114 19.5927L7.29608 18.0852H9.86093L10.6535 15.6459L11.446 18.0852H14.0109L11.9358 19.5927L12.7284 22.032ZM11.9358 12.4616L12.7284 14.9009L10.6535 13.3933L8.5785 14.9009L9.37114 12.4616L7.29608 10.954L9.86093 10.954L10.6535 8.51474L11.446 10.954H14.0109L11.9358 12.4616ZM21.5093 22.032L19.4343 20.5245L17.3594 22.032L18.152 19.5927L16.0769 18.0852L18.6418 18.0852L19.4343 15.6459L20.2269 18.0852H22.7917L20.7167 19.5927L21.5093 22.032ZM20.7167 12.4616L21.5093 14.9009L19.4343 13.3933L17.3594 14.9009L18.152 12.4616L16.0769 10.954H18.6418L19.4343 8.51474L20.2269 10.954H22.7917L20.7167 12.4616ZM20.7167 5.33043L21.5093 7.76973L19.4343 6.2622L17.3594 7.76973L18.152 5.33043L16.0769 3.8229L18.6418 3.8229L19.4343 1.3836L20.2269 3.8229L22.7917 3.8229L20.7167 5.33043Z" fill="#0052B4"/>
</svg>
